G75*
G70*
%OFA0B0*%
%FSLAX24Y24*%
%IPPOS*%
%LPD*%
%AMOC8*
5,1,8,0,0,1.08239X$1,22.5*
%
%ADD10C,0.0030*%
%ADD11C,0.0080*%
%ADD12C,0.0220*%
%ADD13R,0.0300X0.0180*%
D10*
X009316Y008962D02*
X009378Y008900D01*
X009501Y008900D01*
X009563Y008962D01*
X009563Y009209D01*
X009501Y009271D01*
X009378Y009271D01*
X009316Y009209D01*
X009316Y008962D01*
X009684Y008900D02*
X009684Y009147D01*
X009870Y009147D01*
X009931Y009086D01*
X009931Y008900D01*
X011516Y008962D02*
X011578Y008900D01*
X011701Y008900D01*
X011763Y008962D01*
X011763Y009209D01*
X011701Y009271D01*
X011578Y009271D01*
X011516Y009209D01*
X011516Y008962D01*
X011884Y009086D02*
X012008Y009086D01*
X012130Y009086D02*
X012253Y009086D01*
X012192Y009209D02*
X012192Y008900D01*
X011946Y008900D02*
X011946Y009209D01*
X012008Y009271D01*
X012192Y009209D02*
X012253Y009271D01*
X013316Y009462D02*
X013378Y009400D01*
X013501Y009400D01*
X013563Y009462D01*
X013563Y009524D01*
X013501Y009586D01*
X013378Y009586D01*
X013316Y009647D01*
X013316Y009709D01*
X013378Y009771D01*
X013501Y009771D01*
X013563Y009709D01*
X013684Y009586D02*
X013684Y009462D01*
X013746Y009400D01*
X013870Y009400D01*
X013931Y009524D02*
X013684Y009524D01*
X013684Y009586D02*
X013746Y009647D01*
X013870Y009647D01*
X013931Y009586D01*
X013931Y009524D01*
X014053Y009524D02*
X014176Y009647D01*
X014238Y009647D01*
X014360Y009647D02*
X014421Y009647D01*
X014421Y009400D01*
X014360Y009400D02*
X014483Y009400D01*
X014605Y009462D02*
X014667Y009524D01*
X014852Y009524D01*
X014852Y009586D02*
X014852Y009400D01*
X014667Y009400D01*
X014605Y009462D01*
X014667Y009647D02*
X014790Y009647D01*
X014852Y009586D01*
X014973Y009771D02*
X015035Y009771D01*
X015035Y009400D01*
X014973Y009400D02*
X015097Y009400D01*
X014421Y009771D02*
X014421Y009832D01*
X014053Y009647D02*
X014053Y009400D01*
X015416Y008247D02*
X015540Y008371D01*
X015540Y008000D01*
X015663Y008000D02*
X015416Y008000D01*
X015478Y007371D02*
X015416Y007309D01*
X015478Y007371D02*
X015601Y007371D01*
X015663Y007309D01*
X015663Y007247D01*
X015416Y007000D01*
X015663Y007000D01*
X015601Y006371D02*
X015663Y006309D01*
X015663Y006247D01*
X015601Y006186D01*
X015663Y006124D01*
X015663Y006062D01*
X015601Y006000D01*
X015478Y006000D01*
X015416Y006062D01*
X015540Y006186D02*
X015601Y006186D01*
X015601Y006371D02*
X015478Y006371D01*
X015416Y006309D01*
X016216Y005571D02*
X016216Y005200D01*
X016463Y005200D01*
X016584Y005200D02*
X016831Y005447D01*
X016953Y005447D02*
X017076Y005447D01*
X017014Y005509D02*
X017014Y005262D01*
X017076Y005200D01*
X017198Y005200D02*
X017198Y005447D01*
X017198Y005324D02*
X017322Y005447D01*
X017383Y005447D01*
X017567Y005447D02*
X017690Y005447D01*
X017752Y005386D01*
X017752Y005200D01*
X017567Y005200D01*
X017505Y005262D01*
X017567Y005324D01*
X017752Y005324D01*
X016831Y005200D02*
X016584Y005447D01*
X016463Y005571D02*
X016216Y005571D01*
X016216Y005386D02*
X016340Y005386D01*
X015663Y005186D02*
X015416Y005186D01*
X015601Y005371D01*
X015601Y005000D01*
X015324Y003384D02*
X015078Y003384D01*
X015016Y003322D01*
X015016Y003137D01*
X015386Y003137D01*
X015386Y003322D01*
X015324Y003384D01*
X015386Y003016D02*
X015016Y003016D01*
X015016Y002769D02*
X015386Y003016D01*
X015386Y002769D02*
X015016Y002769D01*
X015078Y002647D02*
X015016Y002586D01*
X015016Y002462D01*
X015078Y002400D01*
X015324Y002400D01*
X015386Y002462D01*
X015386Y002586D01*
X015324Y002647D01*
X015201Y002647D01*
X015201Y002524D01*
X016016Y002586D02*
X016016Y002462D01*
X016078Y002400D01*
X016324Y002400D01*
X016386Y002462D01*
X016386Y002586D01*
X016324Y002647D01*
X016201Y002647D01*
X016201Y002524D01*
X016078Y002647D02*
X016016Y002586D01*
X016016Y002769D02*
X016386Y003016D01*
X016016Y003016D01*
X016016Y003137D02*
X016016Y003322D01*
X016078Y003384D01*
X016324Y003384D01*
X016386Y003322D01*
X016386Y003137D01*
X016016Y003137D01*
X016016Y002769D02*
X016386Y002769D01*
X014386Y002892D02*
X014263Y002769D01*
X014016Y002769D01*
X014016Y002647D02*
X014016Y002400D01*
X014201Y002400D01*
X014139Y002524D01*
X014139Y002586D01*
X014201Y002647D01*
X014324Y002647D01*
X014386Y002586D01*
X014386Y002462D01*
X014324Y002400D01*
X014386Y002892D02*
X014263Y003016D01*
X014016Y003016D01*
X012938Y005000D02*
X012753Y005000D01*
X012753Y005371D01*
X012938Y005371D01*
X013000Y005309D01*
X013000Y005062D01*
X012938Y005000D01*
X012631Y005000D02*
X012631Y005371D01*
X012384Y005371D02*
X012631Y005000D01*
X012384Y005000D02*
X012384Y005371D01*
X012263Y005309D02*
X012201Y005371D01*
X012078Y005371D01*
X012016Y005309D01*
X012016Y005062D01*
X012078Y005000D01*
X012201Y005000D01*
X012263Y005062D01*
X012263Y005186D01*
X012140Y005186D01*
X021916Y012100D02*
X022101Y012100D01*
X022163Y012162D01*
X022163Y012224D01*
X022101Y012286D01*
X021916Y012286D01*
X021916Y012471D02*
X021916Y012100D01*
X022101Y012286D02*
X022163Y012347D01*
X022163Y012409D01*
X022101Y012471D01*
X021916Y012471D01*
X022284Y012471D02*
X022346Y012471D01*
X022346Y012100D01*
X022284Y012100D02*
X022408Y012100D01*
X022530Y012162D02*
X022530Y012347D01*
X022530Y012162D02*
X022592Y012100D01*
X022777Y012100D01*
X022777Y012347D01*
X022898Y012286D02*
X022960Y012347D01*
X023083Y012347D01*
X023145Y012286D01*
X023145Y012224D01*
X022898Y012224D01*
X022898Y012162D02*
X022898Y012286D01*
X022898Y012162D02*
X022960Y012100D01*
X023083Y012100D01*
X023328Y012162D02*
X023328Y012409D01*
X023267Y012347D02*
X023390Y012347D01*
X023512Y012286D02*
X023512Y012162D01*
X023574Y012100D01*
X023697Y012100D01*
X023759Y012162D01*
X023759Y012286D01*
X023697Y012347D01*
X023574Y012347D01*
X023512Y012286D01*
X023328Y012162D02*
X023390Y012100D01*
X023880Y012162D02*
X023942Y012100D01*
X024066Y012100D01*
X024127Y012162D01*
X024127Y012286D01*
X024066Y012347D01*
X023942Y012347D01*
X023880Y012286D01*
X023880Y012162D01*
X024249Y012347D02*
X024372Y012347D01*
X024310Y012409D02*
X024310Y012162D01*
X024372Y012100D01*
X024494Y012100D02*
X024494Y012471D01*
X024556Y012347D02*
X024679Y012347D01*
X024741Y012286D01*
X024741Y012100D01*
X024556Y012347D02*
X024494Y012286D01*
X023513Y013000D02*
X023389Y013000D01*
X023451Y013000D02*
X023451Y013371D01*
X023389Y013371D02*
X023513Y013371D01*
X023268Y013186D02*
X023021Y013186D01*
X022900Y013124D02*
X022900Y013062D01*
X022838Y013000D01*
X022714Y013000D01*
X022653Y013062D01*
X022714Y013186D02*
X022653Y013247D01*
X022653Y013309D01*
X022714Y013371D01*
X022838Y013371D01*
X022900Y013309D01*
X022838Y013186D02*
X022900Y013124D01*
X022838Y013186D02*
X022714Y013186D01*
X022531Y013371D02*
X022284Y013371D01*
X022408Y013371D02*
X022408Y013000D01*
X022163Y013062D02*
X022101Y013000D01*
X021978Y013000D01*
X021916Y013062D01*
X021916Y013309D01*
X021978Y013371D01*
X022101Y013371D01*
X022163Y013309D01*
X022640Y014000D02*
X022763Y014124D01*
X022763Y014371D01*
X022884Y014309D02*
X022884Y014062D01*
X022946Y014000D01*
X023070Y014000D01*
X023131Y014062D01*
X023253Y014062D02*
X023253Y014309D01*
X023314Y014371D01*
X023438Y014371D01*
X023500Y014309D01*
X023500Y014062D02*
X023438Y014000D01*
X023314Y014000D01*
X023253Y014062D01*
X023131Y014309D02*
X023070Y014371D01*
X022946Y014371D01*
X022884Y014309D01*
X022516Y014371D02*
X022516Y014124D01*
X022640Y014000D01*
X022578Y015000D02*
X022701Y015000D01*
X022763Y015062D01*
X022763Y015186D01*
X022640Y015186D01*
X022763Y015309D02*
X022701Y015371D01*
X022578Y015371D01*
X022516Y015309D01*
X022516Y015062D01*
X022578Y015000D01*
X022884Y015000D02*
X022884Y015371D01*
X023131Y015000D01*
X023131Y015371D01*
X023253Y015371D02*
X023438Y015371D01*
X023500Y015309D01*
X023500Y015062D01*
X023438Y015000D01*
X023253Y015000D01*
X023253Y015371D01*
X023283Y016000D02*
X023406Y016000D01*
X023468Y016062D01*
X023468Y016309D01*
X023406Y016371D01*
X023283Y016371D01*
X023221Y016309D01*
X023221Y016062D01*
X023283Y016000D01*
X023100Y016186D02*
X022853Y016186D01*
X022731Y016371D02*
X022484Y016000D01*
X022240Y016000D02*
X022240Y016371D01*
X022363Y016371D02*
X022116Y016371D01*
X022484Y016371D02*
X022731Y016000D01*
X022831Y017000D02*
X022584Y017371D01*
X022463Y017309D02*
X022463Y017186D01*
X022401Y017124D01*
X022216Y017124D01*
X022340Y017124D02*
X022463Y017000D01*
X022584Y017000D02*
X022831Y017371D01*
X022953Y017186D02*
X023200Y017186D01*
X023321Y017371D02*
X023444Y017371D01*
X023383Y017371D02*
X023383Y017000D01*
X023444Y017000D02*
X023321Y017000D01*
X022463Y017309D02*
X022401Y017371D01*
X022216Y017371D01*
X022216Y017000D01*
X022208Y018000D02*
X022208Y018371D01*
X022331Y018371D02*
X022084Y018371D01*
X021963Y018309D02*
X021963Y018186D01*
X021901Y018124D01*
X021716Y018124D01*
X021840Y018124D02*
X021963Y018000D01*
X021716Y018000D02*
X021716Y018371D01*
X021901Y018371D01*
X021963Y018309D01*
X022453Y018309D02*
X022453Y018247D01*
X022514Y018186D01*
X022638Y018186D01*
X022700Y018124D01*
X022700Y018062D01*
X022638Y018000D01*
X022514Y018000D01*
X022453Y018062D01*
X022453Y018309D02*
X022514Y018371D01*
X022638Y018371D01*
X022700Y018309D01*
X022821Y018186D02*
X023068Y018186D01*
X023189Y018309D02*
X023189Y018062D01*
X023251Y018000D01*
X023374Y018000D01*
X023436Y018062D01*
X023436Y018309D01*
X023374Y018371D01*
X023251Y018371D01*
X023189Y018309D01*
X015786Y019000D02*
X015786Y019186D01*
X015724Y019247D01*
X015478Y019247D01*
X015416Y019186D01*
X015416Y019000D01*
X015786Y019000D01*
X015724Y019369D02*
X015663Y019369D01*
X015601Y019430D01*
X015601Y019554D01*
X015663Y019616D01*
X015724Y019616D01*
X015786Y019554D01*
X015786Y019430D01*
X015724Y019369D01*
X015601Y019430D02*
X015539Y019369D01*
X015478Y019369D01*
X015416Y019430D01*
X015416Y019554D01*
X015478Y019616D01*
X015539Y019616D01*
X015601Y019554D01*
X014786Y019554D02*
X014786Y019430D01*
X014724Y019369D01*
X014724Y019247D02*
X014478Y019247D01*
X014416Y019186D01*
X014416Y019000D01*
X014786Y019000D01*
X014786Y019186D01*
X014724Y019247D01*
X014601Y019430D02*
X014601Y019616D01*
X014724Y019616D02*
X014478Y019616D01*
X014416Y019554D01*
X014416Y019430D01*
X014478Y019369D01*
X014539Y019369D01*
X014601Y019430D01*
X014786Y019554D02*
X014724Y019616D01*
X013786Y019616D02*
X013786Y019369D01*
X013786Y019492D02*
X013416Y019492D01*
X013539Y019369D01*
X013478Y019247D02*
X013416Y019186D01*
X013416Y019000D01*
X013786Y019000D01*
X013786Y019186D01*
X013724Y019247D01*
X013478Y019247D01*
X013478Y019737D02*
X013416Y019799D01*
X013416Y019922D01*
X013478Y019984D01*
X013724Y019737D01*
X013786Y019799D01*
X013786Y019922D01*
X013724Y019984D01*
X013478Y019984D01*
X013478Y019737D02*
X013724Y019737D01*
X012786Y019737D02*
X012786Y019984D01*
X012786Y019860D02*
X012416Y019860D01*
X012539Y019737D01*
X012416Y019492D02*
X012786Y019492D01*
X012786Y019369D02*
X012786Y019616D01*
X012539Y019369D02*
X012416Y019492D01*
X012478Y019247D02*
X012416Y019186D01*
X012416Y019000D01*
X012786Y019000D01*
X012786Y019186D01*
X012724Y019247D01*
X012478Y019247D01*
X009786Y019186D02*
X009786Y019062D01*
X009724Y019000D01*
X009478Y019000D01*
X009416Y019062D01*
X009416Y019186D01*
X009478Y019247D01*
X009601Y019247D02*
X009601Y019124D01*
X009601Y019247D02*
X009724Y019247D01*
X009786Y019186D01*
X009786Y019369D02*
X009416Y019369D01*
X009786Y019616D01*
X009416Y019616D01*
X009416Y019737D02*
X009416Y019922D01*
X009478Y019984D01*
X009724Y019984D01*
X009786Y019922D01*
X009786Y019737D01*
X009416Y019737D01*
X008686Y019622D02*
X008686Y019437D01*
X008316Y019437D01*
X008316Y019622D01*
X008378Y019684D01*
X008624Y019684D01*
X008686Y019622D01*
X008686Y019316D02*
X008316Y019316D01*
X008316Y019069D02*
X008686Y019316D01*
X008686Y019069D02*
X008316Y019069D01*
X008378Y018947D02*
X008316Y018886D01*
X008316Y018762D01*
X008378Y018700D01*
X008624Y018700D01*
X008686Y018762D01*
X008686Y018886D01*
X008624Y018947D01*
X008501Y018947D01*
X008501Y018824D01*
X007584Y019700D02*
X007461Y019700D01*
X007399Y019762D01*
X007646Y020009D01*
X007646Y019762D01*
X007584Y019700D01*
X007399Y019762D02*
X007399Y020009D01*
X007461Y020071D01*
X007584Y020071D01*
X007646Y020009D01*
X007278Y019700D02*
X007031Y019700D01*
X007154Y019700D02*
X007154Y020071D01*
X007031Y019947D01*
X006909Y020009D02*
X006663Y019762D01*
X006724Y019700D01*
X006848Y019700D01*
X006909Y019762D01*
X006909Y020009D01*
X006848Y020071D01*
X006724Y020071D01*
X006663Y020009D01*
X006663Y019762D01*
X006541Y019700D02*
X006294Y019700D01*
X006541Y019947D01*
X006541Y020009D01*
X006479Y020071D01*
X006356Y020071D01*
X006294Y020009D01*
X005804Y020071D02*
X005558Y020071D01*
X005558Y019886D01*
X005681Y019947D01*
X005743Y019947D01*
X005804Y019886D01*
X005804Y019762D01*
X005743Y019700D01*
X005619Y019700D01*
X005558Y019762D01*
X005436Y019700D02*
X005189Y019700D01*
X005436Y019947D01*
X005436Y020009D01*
X005374Y020071D01*
X005251Y020071D01*
X005189Y020009D01*
X004700Y019886D02*
X004700Y019700D01*
X004700Y019886D02*
X004638Y019947D01*
X004453Y019947D01*
X004453Y019700D01*
X004331Y019700D02*
X004331Y019947D01*
X004084Y019947D02*
X004084Y019762D01*
X004146Y019700D01*
X004331Y019700D01*
X003901Y019762D02*
X003901Y020071D01*
X003840Y020071D02*
X003963Y020071D01*
X003901Y019762D02*
X003840Y019700D01*
X003778Y019700D01*
X003716Y019762D01*
X003840Y020700D02*
X003840Y021071D01*
X003963Y021071D02*
X003716Y021071D01*
X004084Y020886D02*
X004084Y020762D01*
X004146Y020700D01*
X004270Y020700D01*
X004331Y020824D02*
X004084Y020824D01*
X004084Y020886D02*
X004146Y020947D01*
X004270Y020947D01*
X004331Y020886D01*
X004331Y020824D01*
X004453Y020886D02*
X004453Y020762D01*
X004514Y020700D01*
X004700Y020700D01*
X004821Y020700D02*
X004944Y020700D01*
X004883Y020700D02*
X004883Y021071D01*
X004821Y021071D01*
X004700Y020947D02*
X004514Y020947D01*
X004453Y020886D01*
X005067Y020762D02*
X005128Y020824D01*
X005313Y020824D01*
X005313Y020886D02*
X005313Y020700D01*
X005128Y020700D01*
X005067Y020762D01*
X005128Y020947D02*
X005252Y020947D01*
X005313Y020886D01*
X005803Y020824D02*
X005927Y020700D01*
X006050Y020824D01*
X006050Y021071D01*
X006171Y020886D02*
X006418Y020886D01*
X006357Y021071D02*
X006171Y020886D01*
X006357Y021071D02*
X006357Y020700D01*
X005803Y020824D02*
X005803Y021071D01*
D11*
X009284Y006496D02*
X012118Y006496D01*
X012118Y007874D01*
X009284Y007874D01*
X009284Y006496D01*
X013201Y006435D02*
X013201Y005935D01*
X013451Y005685D01*
X013201Y005435D01*
X013201Y004935D01*
X013451Y004685D01*
X013201Y004435D01*
X013201Y003935D01*
X013451Y003685D01*
X013951Y003685D01*
X014201Y003935D01*
X014201Y004435D01*
X013951Y004685D01*
X014201Y004935D01*
X014201Y005435D01*
X013951Y005685D01*
X014201Y005935D01*
X014201Y006435D01*
X013951Y006685D01*
X014201Y006935D01*
X014201Y007435D01*
X013951Y007685D01*
X014201Y007935D01*
X014201Y008435D01*
X013951Y008685D01*
X013451Y008685D01*
X013201Y008435D01*
X013201Y007935D01*
X013451Y007685D01*
X013201Y007435D01*
X013201Y006935D01*
X013451Y006685D01*
X013201Y006435D01*
X014201Y006435D02*
X014201Y005935D01*
X014451Y005685D01*
X014201Y005435D01*
X014201Y004935D01*
X014451Y004685D01*
X014201Y004435D01*
X014201Y003935D01*
X014451Y003685D01*
X014951Y003685D01*
X015201Y003935D01*
X015201Y004435D01*
X014951Y004685D01*
X015201Y004935D01*
X015201Y005435D01*
X014951Y005685D01*
X015201Y005935D01*
X015201Y006435D01*
X014951Y006685D01*
X015201Y006935D01*
X015201Y007435D01*
X014951Y007685D01*
X015201Y007935D01*
X015201Y008435D01*
X014951Y008685D01*
X014451Y008685D01*
X014201Y008435D01*
X014201Y007935D01*
X014451Y007685D01*
X014201Y007435D01*
X014201Y006935D01*
X014451Y006685D01*
X014201Y006435D01*
X016201Y004435D02*
X016451Y004685D01*
X016951Y004685D01*
X017201Y004435D01*
X017201Y003935D01*
X016951Y003685D01*
X016451Y003685D01*
X016201Y003935D01*
X016201Y004435D01*
X015951Y002185D02*
X016451Y002185D01*
X016701Y001935D01*
X016951Y002185D01*
X017451Y002185D01*
X017701Y001935D01*
X017701Y001435D01*
X017451Y001185D01*
X016951Y001185D01*
X016701Y001435D01*
X016451Y001185D01*
X015951Y001185D01*
X015701Y001435D01*
X015451Y001185D01*
X014951Y001185D01*
X014701Y001435D01*
X014451Y001185D01*
X013951Y001185D01*
X013701Y001435D01*
X013451Y001185D01*
X012951Y001185D01*
X012701Y001435D01*
X012451Y001185D01*
X011951Y001185D01*
X011701Y001435D01*
X011701Y001935D01*
X011951Y002185D01*
X012451Y002185D01*
X012701Y001935D01*
X012951Y002185D01*
X013451Y002185D01*
X013701Y001935D01*
X013951Y002185D01*
X014451Y002185D01*
X014701Y001935D01*
X014951Y002185D01*
X015451Y002185D01*
X015701Y001935D01*
X015951Y002185D01*
X018701Y001935D02*
X018701Y001435D01*
X018951Y001185D01*
X019451Y001185D01*
X019701Y001435D01*
X019951Y001185D01*
X020451Y001185D01*
X020701Y001435D01*
X020951Y001185D01*
X021451Y001185D01*
X021701Y001435D01*
X021951Y001185D01*
X022451Y001185D01*
X022701Y001435D01*
X022951Y001185D01*
X023451Y001185D01*
X023701Y001435D01*
X023951Y001185D01*
X024451Y001185D01*
X024701Y001435D01*
X024701Y001935D01*
X024451Y002185D01*
X023951Y002185D01*
X023701Y001935D01*
X023451Y002185D01*
X022951Y002185D01*
X022701Y001935D01*
X022451Y002185D01*
X021951Y002185D01*
X021701Y001935D01*
X021451Y002185D01*
X020951Y002185D01*
X020701Y001935D01*
X020451Y002185D01*
X019951Y002185D01*
X019701Y001935D01*
X019451Y002185D01*
X018951Y002185D01*
X018701Y001935D01*
X023951Y012685D02*
X023701Y012935D01*
X023701Y013435D01*
X023951Y013685D01*
X023701Y013935D01*
X023701Y014435D01*
X023951Y014685D01*
X023701Y014935D01*
X023701Y015435D01*
X023951Y015685D01*
X023701Y015935D01*
X023701Y016435D01*
X023951Y016685D01*
X023701Y016935D01*
X023701Y017435D01*
X023951Y017685D01*
X023701Y017935D01*
X023701Y018435D01*
X023951Y018685D01*
X024451Y018685D01*
X024701Y018435D01*
X024701Y017935D01*
X024451Y017685D01*
X024701Y017435D01*
X024701Y016935D01*
X024451Y016685D01*
X024701Y016435D01*
X024701Y015935D01*
X024451Y015685D01*
X024701Y015435D01*
X024701Y014935D01*
X024451Y014685D01*
X024701Y014435D01*
X024701Y013935D01*
X024451Y013685D01*
X024701Y013435D01*
X024701Y012935D01*
X024451Y012685D01*
X023951Y012685D01*
X023951Y020185D02*
X024451Y020185D01*
X024701Y020435D01*
X024701Y020935D01*
X024451Y021185D01*
X023951Y021185D01*
X023701Y020935D01*
X023451Y021185D01*
X022951Y021185D01*
X022701Y020935D01*
X022451Y021185D01*
X021951Y021185D01*
X021701Y020935D01*
X021451Y021185D01*
X020951Y021185D01*
X020701Y020935D01*
X020451Y021185D01*
X019951Y021185D01*
X019701Y020935D01*
X019451Y021185D01*
X018951Y021185D01*
X018701Y020935D01*
X018451Y021185D01*
X017951Y021185D01*
X017701Y020935D01*
X017451Y021185D01*
X016951Y021185D01*
X016701Y020935D01*
X016701Y020435D01*
X016951Y020185D01*
X017451Y020185D01*
X017701Y020435D01*
X017951Y020185D01*
X018451Y020185D01*
X018701Y020435D01*
X018951Y020185D01*
X019451Y020185D01*
X019701Y020435D01*
X019951Y020185D01*
X020451Y020185D01*
X020701Y020435D01*
X020951Y020185D01*
X021451Y020185D01*
X021701Y020435D01*
X021951Y020185D01*
X022451Y020185D01*
X022701Y020435D01*
X022951Y020185D01*
X023451Y020185D01*
X023701Y020435D01*
X023951Y020185D01*
X016101Y020435D02*
X015851Y020185D01*
X015351Y020185D01*
X015101Y020435D01*
X014851Y020185D01*
X014351Y020185D01*
X014101Y020435D01*
X013851Y020185D01*
X013351Y020185D01*
X013101Y020435D01*
X012851Y020185D01*
X012351Y020185D01*
X012101Y020435D01*
X011851Y020185D01*
X011351Y020185D01*
X011101Y020435D01*
X010851Y020185D01*
X010351Y020185D01*
X010101Y020435D01*
X009851Y020185D01*
X009351Y020185D01*
X009101Y020435D01*
X008851Y020185D01*
X008351Y020185D01*
X008101Y020435D01*
X008101Y020935D01*
X008351Y021185D01*
X008851Y021185D01*
X009101Y020935D01*
X009351Y021185D01*
X009851Y021185D01*
X010101Y020935D01*
X010351Y021185D01*
X010851Y021185D01*
X011101Y020935D01*
X011351Y021185D01*
X011851Y021185D01*
X012101Y020935D01*
X012351Y021185D01*
X012851Y021185D01*
X013101Y020935D01*
X013351Y021185D01*
X013851Y021185D01*
X014101Y020935D01*
X014351Y021185D01*
X014851Y021185D01*
X015101Y020935D01*
X015351Y021185D01*
X015851Y021185D01*
X016101Y020935D01*
X016101Y020435D01*
X007154Y018548D02*
X007154Y013823D01*
X006760Y013823D01*
X005579Y013823D02*
X002823Y013823D01*
X002823Y018548D01*
X005579Y018548D01*
X006760Y018548D02*
X007154Y018548D01*
D12*
X018189Y004185D02*
X018213Y004185D01*
X019689Y004185D02*
X019713Y004185D01*
X021189Y004185D02*
X021213Y004185D01*
X022689Y004185D02*
X022713Y004185D01*
X024189Y004185D02*
X024213Y004185D01*
D13*
X024201Y006185D03*
X022701Y006185D03*
X021201Y006185D03*
X019701Y006185D03*
X018201Y006185D03*
M02*
