G75*
G70*
%OFA0B0*%
%FSLAX24Y24*%
%IPPOS*%
%LPD*%
%AMOC8*
5,1,8,0,0,1.08239X$1,22.5*
%
%ADD10C,0.0000*%
%ADD11OC8,0.0600*%
%ADD12C,0.2000*%
%ADD13C,0.0600*%
%ADD14C,0.0476*%
%ADD15C,0.0554*%
%ADD16C,0.0860*%
%ADD17C,0.0100*%
%ADD18C,0.0400*%
%ADD19C,0.0160*%
D10*
X002699Y000558D02*
X002699Y021554D01*
X029569Y021554D01*
X029569Y000558D01*
X002699Y000558D01*
X002979Y014590D02*
X002981Y014620D01*
X002987Y014650D01*
X002996Y014679D01*
X003009Y014706D01*
X003026Y014731D01*
X003045Y014754D01*
X003068Y014775D01*
X003093Y014792D01*
X003119Y014806D01*
X003148Y014816D01*
X003177Y014823D01*
X003207Y014826D01*
X003238Y014825D01*
X003268Y014820D01*
X003297Y014811D01*
X003324Y014799D01*
X003350Y014784D01*
X003374Y014765D01*
X003395Y014743D01*
X003413Y014719D01*
X003428Y014692D01*
X003439Y014664D01*
X003447Y014635D01*
X003451Y014605D01*
X003451Y014575D01*
X003447Y014545D01*
X003439Y014516D01*
X003428Y014488D01*
X003413Y014461D01*
X003395Y014437D01*
X003374Y014415D01*
X003350Y014396D01*
X003324Y014381D01*
X003297Y014369D01*
X003268Y014360D01*
X003238Y014355D01*
X003207Y014354D01*
X003177Y014357D01*
X003148Y014364D01*
X003119Y014374D01*
X003093Y014388D01*
X003068Y014405D01*
X003045Y014426D01*
X003026Y014449D01*
X003009Y014474D01*
X002996Y014501D01*
X002987Y014530D01*
X002981Y014560D01*
X002979Y014590D01*
X003963Y014590D02*
X003965Y014620D01*
X003971Y014650D01*
X003980Y014679D01*
X003993Y014706D01*
X004010Y014731D01*
X004029Y014754D01*
X004052Y014775D01*
X004077Y014792D01*
X004103Y014806D01*
X004132Y014816D01*
X004161Y014823D01*
X004191Y014826D01*
X004222Y014825D01*
X004252Y014820D01*
X004281Y014811D01*
X004308Y014799D01*
X004334Y014784D01*
X004358Y014765D01*
X004379Y014743D01*
X004397Y014719D01*
X004412Y014692D01*
X004423Y014664D01*
X004431Y014635D01*
X004435Y014605D01*
X004435Y014575D01*
X004431Y014545D01*
X004423Y014516D01*
X004412Y014488D01*
X004397Y014461D01*
X004379Y014437D01*
X004358Y014415D01*
X004334Y014396D01*
X004308Y014381D01*
X004281Y014369D01*
X004252Y014360D01*
X004222Y014355D01*
X004191Y014354D01*
X004161Y014357D01*
X004132Y014364D01*
X004103Y014374D01*
X004077Y014388D01*
X004052Y014405D01*
X004029Y014426D01*
X004010Y014449D01*
X003993Y014474D01*
X003980Y014501D01*
X003971Y014530D01*
X003965Y014560D01*
X003963Y014590D01*
X005931Y016558D02*
X005933Y016588D01*
X005939Y016618D01*
X005948Y016647D01*
X005961Y016674D01*
X005978Y016699D01*
X005997Y016722D01*
X006020Y016743D01*
X006045Y016760D01*
X006071Y016774D01*
X006100Y016784D01*
X006129Y016791D01*
X006159Y016794D01*
X006190Y016793D01*
X006220Y016788D01*
X006249Y016779D01*
X006276Y016767D01*
X006302Y016752D01*
X006326Y016733D01*
X006347Y016711D01*
X006365Y016687D01*
X006380Y016660D01*
X006391Y016632D01*
X006399Y016603D01*
X006403Y016573D01*
X006403Y016543D01*
X006399Y016513D01*
X006391Y016484D01*
X006380Y016456D01*
X006365Y016429D01*
X006347Y016405D01*
X006326Y016383D01*
X006302Y016364D01*
X006276Y016349D01*
X006249Y016337D01*
X006220Y016328D01*
X006190Y016323D01*
X006159Y016322D01*
X006129Y016325D01*
X006100Y016332D01*
X006071Y016342D01*
X006045Y016356D01*
X006020Y016373D01*
X005997Y016394D01*
X005978Y016417D01*
X005961Y016442D01*
X005948Y016469D01*
X005939Y016498D01*
X005933Y016528D01*
X005931Y016558D01*
X003963Y018527D02*
X003965Y018557D01*
X003971Y018587D01*
X003980Y018616D01*
X003993Y018643D01*
X004010Y018668D01*
X004029Y018691D01*
X004052Y018712D01*
X004077Y018729D01*
X004103Y018743D01*
X004132Y018753D01*
X004161Y018760D01*
X004191Y018763D01*
X004222Y018762D01*
X004252Y018757D01*
X004281Y018748D01*
X004308Y018736D01*
X004334Y018721D01*
X004358Y018702D01*
X004379Y018680D01*
X004397Y018656D01*
X004412Y018629D01*
X004423Y018601D01*
X004431Y018572D01*
X004435Y018542D01*
X004435Y018512D01*
X004431Y018482D01*
X004423Y018453D01*
X004412Y018425D01*
X004397Y018398D01*
X004379Y018374D01*
X004358Y018352D01*
X004334Y018333D01*
X004308Y018318D01*
X004281Y018306D01*
X004252Y018297D01*
X004222Y018292D01*
X004191Y018291D01*
X004161Y018294D01*
X004132Y018301D01*
X004103Y018311D01*
X004077Y018325D01*
X004052Y018342D01*
X004029Y018363D01*
X004010Y018386D01*
X003993Y018411D01*
X003980Y018438D01*
X003971Y018467D01*
X003965Y018497D01*
X003963Y018527D01*
X002979Y018527D02*
X002981Y018557D01*
X002987Y018587D01*
X002996Y018616D01*
X003009Y018643D01*
X003026Y018668D01*
X003045Y018691D01*
X003068Y018712D01*
X003093Y018729D01*
X003119Y018743D01*
X003148Y018753D01*
X003177Y018760D01*
X003207Y018763D01*
X003238Y018762D01*
X003268Y018757D01*
X003297Y018748D01*
X003324Y018736D01*
X003350Y018721D01*
X003374Y018702D01*
X003395Y018680D01*
X003413Y018656D01*
X003428Y018629D01*
X003439Y018601D01*
X003447Y018572D01*
X003451Y018542D01*
X003451Y018512D01*
X003447Y018482D01*
X003439Y018453D01*
X003428Y018425D01*
X003413Y018398D01*
X003395Y018374D01*
X003374Y018352D01*
X003350Y018333D01*
X003324Y018318D01*
X003297Y018306D01*
X003268Y018297D01*
X003238Y018292D01*
X003207Y018291D01*
X003177Y018294D01*
X003148Y018301D01*
X003119Y018311D01*
X003093Y018325D01*
X003068Y018342D01*
X003045Y018363D01*
X003026Y018386D01*
X003009Y018411D01*
X002996Y018438D01*
X002987Y018467D01*
X002981Y018497D01*
X002979Y018527D01*
D11*
X007699Y009218D03*
X006699Y008678D03*
X007699Y008138D03*
X006699Y007598D03*
X007699Y007058D03*
X006699Y006518D03*
X007699Y005978D03*
X006699Y005438D03*
X007699Y004898D03*
D12*
X007199Y002128D03*
X007199Y011988D03*
D13*
X017199Y010058D03*
X018199Y010058D03*
X018199Y009058D03*
X017199Y009058D03*
X017199Y008058D03*
X018199Y008058D03*
X018199Y007058D03*
X017199Y007058D03*
X017199Y006058D03*
X018199Y006058D03*
X019199Y004558D03*
X016699Y003558D03*
X015699Y003558D03*
X014699Y003558D03*
X016699Y001558D03*
X017699Y001558D03*
X018699Y001558D03*
X019699Y001558D03*
X020699Y001558D03*
X021699Y001558D03*
X023699Y001558D03*
X024699Y001558D03*
X025699Y001558D03*
X026699Y001558D03*
X027699Y001558D03*
X028699Y001558D03*
X028699Y013058D03*
X028699Y014058D03*
X028699Y015058D03*
X028699Y016058D03*
X028699Y017058D03*
X028699Y018058D03*
X028699Y020558D03*
X027699Y020558D03*
X026699Y020558D03*
X025699Y020558D03*
X024699Y020558D03*
X023699Y020558D03*
X022699Y020558D03*
X021699Y020558D03*
X020099Y020558D03*
X019099Y020558D03*
X018099Y020558D03*
X017099Y020558D03*
X016099Y020558D03*
X015099Y020558D03*
X014099Y020558D03*
X013099Y020558D03*
D14*
X019699Y007058D03*
X019699Y006058D03*
X021699Y006058D03*
X021699Y007058D03*
X023699Y007058D03*
X023699Y006058D03*
X025699Y006058D03*
X025699Y007058D03*
X027699Y007058D03*
X027699Y006058D03*
D15*
X028699Y007058D03*
X026699Y007058D03*
X024699Y007058D03*
X022699Y007058D03*
X020699Y007058D03*
X020699Y004058D03*
X022699Y004058D03*
X024699Y004058D03*
X026699Y004058D03*
X028699Y004058D03*
D16*
X006167Y014590D03*
X006167Y015574D03*
X004199Y016558D03*
X006167Y017543D03*
X006167Y018527D03*
D17*
X016099Y020418D02*
X016099Y020558D01*
X016099Y020418D02*
X016259Y020258D01*
X016259Y004498D01*
X019139Y004498D01*
X019199Y004558D01*
X019219Y004578D01*
X019219Y005538D01*
X019699Y006018D01*
X019699Y006058D01*
X020079Y006478D02*
X018959Y006478D01*
X018959Y009518D01*
X018479Y009998D01*
X018239Y009998D01*
X018199Y010058D01*
X019459Y007698D02*
X019459Y019858D01*
X020099Y020498D01*
X020099Y020558D01*
X027919Y019598D02*
X027919Y016798D01*
X028639Y016078D01*
X028699Y016058D01*
X027919Y019598D02*
X028639Y020318D01*
X028639Y020558D01*
X028699Y020558D01*
X021439Y009278D02*
X023119Y007598D01*
X023119Y006638D01*
X023699Y006058D01*
X024719Y005038D01*
X024719Y004078D01*
X024699Y004058D01*
X026699Y004058D02*
X026719Y004078D01*
X026719Y005038D01*
X025699Y006058D01*
X027699Y006058D02*
X028719Y005038D01*
X028719Y004078D01*
X028699Y004058D01*
X022719Y004078D02*
X022699Y004058D01*
X022719Y004078D02*
X022719Y005038D01*
X021699Y006058D01*
X021679Y005998D01*
X020399Y005998D01*
X020399Y006158D01*
X020079Y006478D01*
D18*
X019459Y007698D03*
X021439Y009278D03*
D19*
X021062Y009144D02*
X019709Y009144D01*
X019709Y009303D02*
X021039Y009303D01*
X021039Y009358D02*
X021039Y009199D01*
X021100Y009052D01*
X021212Y008939D01*
X021359Y008878D01*
X021485Y008878D01*
X022869Y007495D01*
X022869Y007484D01*
X022806Y007504D01*
X022735Y007515D01*
X022707Y007515D01*
X022707Y007067D01*
X022690Y007067D01*
X022690Y007050D01*
X022242Y007050D01*
X022242Y007022D01*
X022253Y006951D01*
X022275Y006883D01*
X022308Y006819D01*
X022350Y006760D01*
X022401Y006710D01*
X022459Y006667D01*
X022523Y006635D01*
X022592Y006612D01*
X022663Y006601D01*
X022690Y006601D01*
X022690Y007049D01*
X022707Y007049D01*
X022707Y006601D01*
X022735Y006601D01*
X022806Y006612D01*
X022869Y006633D01*
X022869Y006589D01*
X022907Y006497D01*
X023261Y006143D01*
X023261Y005971D01*
X023328Y005810D01*
X023451Y005687D01*
X023612Y005620D01*
X023783Y005620D01*
X024469Y004935D01*
X024469Y004479D01*
X024429Y004463D01*
X024294Y004329D01*
X024222Y004153D01*
X024222Y003963D01*
X024294Y003788D01*
X024429Y003654D01*
X024604Y003581D01*
X024794Y003581D01*
X024969Y003654D01*
X025103Y003788D01*
X025176Y003963D01*
X025176Y004153D01*
X025103Y004329D01*
X024969Y004463D01*
X024969Y004989D01*
X024969Y005088D01*
X024931Y005180D01*
X024137Y005974D01*
X024137Y006145D01*
X024070Y006306D01*
X023947Y006429D01*
X023786Y006496D01*
X023615Y006496D01*
X023369Y006742D01*
X023369Y006802D01*
X023380Y006786D01*
X023427Y006740D01*
X023480Y006701D01*
X023539Y006671D01*
X023601Y006651D01*
X023666Y006640D01*
X023699Y006640D01*
X023732Y006640D01*
X023797Y006651D01*
X023859Y006671D01*
X023918Y006701D01*
X023971Y006740D01*
X024018Y006786D01*
X024056Y006839D01*
X024086Y006898D01*
X024106Y006960D01*
X024117Y007025D01*
X024117Y007058D01*
X023699Y007058D01*
X023699Y006640D01*
X023699Y007058D01*
X023699Y007058D01*
X023699Y007058D01*
X024117Y007058D01*
X024117Y007091D01*
X024106Y007156D01*
X024086Y007219D01*
X024056Y007277D01*
X024018Y007330D01*
X023971Y007377D01*
X023918Y007416D01*
X023859Y007445D01*
X023797Y007466D01*
X023732Y007476D01*
X023699Y007476D01*
X023699Y007059D01*
X023699Y007059D01*
X023699Y007476D01*
X023666Y007476D01*
X023601Y007466D01*
X023539Y007445D01*
X023480Y007416D01*
X023427Y007377D01*
X023380Y007330D01*
X023369Y007315D01*
X023369Y007549D01*
X023369Y007648D01*
X023331Y007740D01*
X021839Y009232D01*
X021839Y009358D01*
X021778Y009505D01*
X021665Y009617D01*
X021518Y009678D01*
X021359Y009678D01*
X021212Y009617D01*
X021100Y009505D01*
X021039Y009358D01*
X021082Y009461D02*
X019709Y009461D01*
X019709Y009620D02*
X021218Y009620D01*
X021660Y009620D02*
X029089Y009620D01*
X029089Y009778D02*
X019709Y009778D01*
X019709Y009937D02*
X029089Y009937D01*
X029089Y010095D02*
X019709Y010095D01*
X019709Y010254D02*
X029089Y010254D01*
X029089Y010412D02*
X019709Y010412D01*
X019709Y010571D02*
X029089Y010571D01*
X029089Y010729D02*
X019709Y010729D01*
X019709Y010888D02*
X029089Y010888D01*
X029089Y011046D02*
X019709Y011046D01*
X019709Y011205D02*
X029089Y011205D01*
X029089Y011364D02*
X019709Y011364D01*
X019709Y011522D02*
X029089Y011522D01*
X029089Y011681D02*
X019709Y011681D01*
X019709Y011839D02*
X029089Y011839D01*
X029089Y011998D02*
X019709Y011998D01*
X019709Y012156D02*
X029089Y012156D01*
X029089Y012315D02*
X019709Y012315D01*
X019709Y012473D02*
X029089Y012473D01*
X029089Y012632D02*
X028976Y012632D01*
X028982Y012634D02*
X029089Y012741D01*
X029089Y007299D01*
X029048Y007356D01*
X028997Y007407D01*
X028938Y007449D01*
X028874Y007482D01*
X028806Y007504D01*
X028735Y007515D01*
X028707Y007515D01*
X028707Y007067D01*
X028690Y007067D01*
X028690Y007050D01*
X028242Y007050D01*
X028242Y007022D01*
X028253Y006951D01*
X028275Y006883D01*
X028308Y006819D01*
X028350Y006760D01*
X028401Y006710D01*
X028459Y006667D01*
X028523Y006635D01*
X028592Y006612D01*
X028663Y006601D01*
X028690Y006601D01*
X028690Y007049D01*
X028707Y007049D01*
X028707Y006601D01*
X028735Y006601D01*
X028806Y006612D01*
X028874Y006635D01*
X028938Y006667D01*
X028997Y006710D01*
X029048Y006760D01*
X029089Y006817D01*
X029089Y004343D01*
X028969Y004463D01*
X028969Y004989D01*
X028969Y005088D01*
X028931Y005180D01*
X028137Y005974D01*
X028137Y006145D01*
X028070Y006306D01*
X027947Y006429D01*
X027786Y006496D01*
X027612Y006496D01*
X027451Y006429D01*
X027328Y006306D01*
X027261Y006145D01*
X027261Y005971D01*
X027328Y005810D01*
X027451Y005687D01*
X027612Y005620D01*
X027783Y005620D01*
X028469Y004935D01*
X028469Y004479D01*
X028429Y004463D01*
X028294Y004329D01*
X028222Y004153D01*
X028222Y003963D01*
X028294Y003788D01*
X028429Y003654D01*
X028604Y003581D01*
X028794Y003581D01*
X028969Y003654D01*
X029089Y003774D01*
X029089Y001875D01*
X028982Y001982D01*
X028798Y002058D01*
X028599Y002058D01*
X028416Y001982D01*
X028275Y001841D01*
X028199Y001658D01*
X028199Y001459D01*
X028275Y001275D01*
X028416Y001134D01*
X028599Y001058D01*
X027798Y001058D01*
X027982Y001134D01*
X028123Y001275D01*
X028199Y001459D01*
X028199Y001658D01*
X028123Y001841D01*
X027982Y001982D01*
X027798Y002058D01*
X027599Y002058D01*
X027416Y001982D01*
X027275Y001841D01*
X027199Y001658D01*
X027199Y001459D01*
X027275Y001275D01*
X027416Y001134D01*
X027599Y001058D01*
X026798Y001058D01*
X026982Y001134D01*
X027123Y001275D01*
X027199Y001459D01*
X027199Y001658D01*
X027123Y001841D01*
X026982Y001982D01*
X026798Y002058D01*
X026599Y002058D01*
X026416Y001982D01*
X026275Y001841D01*
X026199Y001658D01*
X026199Y001459D01*
X026275Y001275D01*
X026416Y001134D01*
X026599Y001058D01*
X025798Y001058D01*
X025982Y001134D01*
X026123Y001275D01*
X026199Y001459D01*
X026199Y001658D01*
X026123Y001841D01*
X025982Y001982D01*
X025798Y002058D01*
X025599Y002058D01*
X025416Y001982D01*
X025275Y001841D01*
X025199Y001658D01*
X025199Y001459D01*
X025275Y001275D01*
X025416Y001134D01*
X025599Y001058D01*
X024798Y001058D01*
X024982Y001134D01*
X025123Y001275D01*
X025199Y001459D01*
X025199Y001658D01*
X025123Y001841D01*
X024982Y001982D01*
X024798Y002058D01*
X024599Y002058D01*
X024416Y001982D01*
X024275Y001841D01*
X024199Y001658D01*
X024199Y001459D01*
X024275Y001275D01*
X024416Y001134D01*
X024599Y001058D01*
X023798Y001058D01*
X023982Y001134D01*
X024123Y001275D01*
X024199Y001459D01*
X024199Y001658D01*
X024123Y001841D01*
X023982Y001982D01*
X023798Y002058D01*
X023599Y002058D01*
X023416Y001982D01*
X023275Y001841D01*
X023199Y001658D01*
X023199Y001459D01*
X023275Y001275D01*
X023416Y001134D01*
X023599Y001058D01*
X021798Y001058D01*
X021982Y001134D01*
X022123Y001275D01*
X022199Y001459D01*
X022199Y001658D01*
X022123Y001841D01*
X021982Y001982D01*
X021798Y002058D01*
X021599Y002058D01*
X021416Y001982D01*
X021275Y001841D01*
X021199Y001658D01*
X021199Y001459D01*
X021275Y001275D01*
X021416Y001134D01*
X021599Y001058D01*
X020798Y001058D01*
X020982Y001134D01*
X021123Y001275D01*
X021199Y001459D01*
X021199Y001658D01*
X021123Y001841D01*
X020982Y001982D01*
X020798Y002058D01*
X020599Y002058D01*
X020416Y001982D01*
X020275Y001841D01*
X020199Y001658D01*
X020199Y001459D01*
X020275Y001275D01*
X020416Y001134D01*
X020599Y001058D01*
X019798Y001058D01*
X019982Y001134D01*
X020123Y001275D01*
X020199Y001459D01*
X020199Y001658D01*
X020123Y001841D01*
X019982Y001982D01*
X019798Y002058D01*
X019599Y002058D01*
X019416Y001982D01*
X019275Y001841D01*
X019199Y001658D01*
X019199Y001459D01*
X019275Y001275D01*
X019416Y001134D01*
X019599Y001058D01*
X018798Y001058D01*
X018982Y001134D01*
X019123Y001275D01*
X019199Y001459D01*
X019199Y001658D01*
X019123Y001841D01*
X018982Y001982D01*
X018798Y002058D01*
X018599Y002058D01*
X018416Y001982D01*
X018275Y001841D01*
X018199Y001658D01*
X018199Y001459D01*
X018275Y001275D01*
X018416Y001134D01*
X018599Y001058D01*
X017798Y001058D01*
X017982Y001134D01*
X018123Y001275D01*
X018199Y001459D01*
X018199Y001658D01*
X018123Y001841D01*
X017982Y001982D01*
X017798Y002058D01*
X017599Y002058D01*
X017416Y001982D01*
X017275Y001841D01*
X017199Y001658D01*
X017199Y001459D01*
X017275Y001275D01*
X017416Y001134D01*
X017599Y001058D01*
X016798Y001058D01*
X016982Y001134D01*
X017123Y001275D01*
X017199Y001459D01*
X017199Y001658D01*
X017123Y001841D01*
X016982Y001982D01*
X016798Y002058D01*
X016599Y002058D01*
X016416Y001982D01*
X016275Y001841D01*
X016199Y001658D01*
X016199Y001459D01*
X016275Y001275D01*
X016416Y001134D01*
X016599Y001058D01*
X007745Y001058D01*
X007711Y001038D02*
X007936Y001168D01*
X008159Y001391D01*
X008317Y001665D01*
X008399Y001970D01*
X008399Y002286D01*
X008317Y002591D01*
X008159Y002865D01*
X007936Y003088D01*
X007662Y003246D01*
X007357Y003328D01*
X007041Y003328D01*
X006736Y003246D01*
X006462Y003088D01*
X006239Y002865D01*
X006081Y002591D01*
X005999Y002286D01*
X005999Y001970D01*
X006081Y001665D01*
X006239Y001391D01*
X006462Y001168D01*
X006687Y001038D01*
X003179Y001038D01*
X003179Y013874D01*
X003357Y013874D01*
X003620Y013983D01*
X003707Y014069D01*
X003793Y013983D01*
X004056Y013874D01*
X004341Y013874D01*
X004605Y013983D01*
X004806Y014184D01*
X004915Y014447D01*
X004915Y014732D01*
X004806Y014995D01*
X004605Y015197D01*
X004341Y015306D01*
X004056Y015306D01*
X003793Y015197D01*
X003707Y015110D01*
X003620Y015197D01*
X003357Y015306D01*
X003179Y015306D01*
X003179Y017811D01*
X003357Y017811D01*
X003620Y017920D01*
X003707Y018006D01*
X003793Y017920D01*
X004056Y017811D01*
X004341Y017811D01*
X004605Y017920D01*
X004806Y018121D01*
X004915Y018384D01*
X004915Y018669D01*
X004806Y018932D01*
X004605Y019134D01*
X004341Y019243D01*
X004056Y019243D01*
X003793Y019134D01*
X003707Y019047D01*
X003620Y019134D01*
X003357Y019243D01*
X003179Y019243D01*
X003179Y021074D01*
X029089Y021074D01*
X029089Y020875D01*
X028982Y020982D01*
X028798Y021058D01*
X028599Y021058D01*
X028416Y020982D01*
X028275Y020841D01*
X028199Y020658D01*
X028199Y020459D01*
X028265Y020298D01*
X027707Y019740D01*
X027669Y019648D01*
X027669Y019549D01*
X027669Y016749D01*
X027707Y016657D01*
X027777Y016586D01*
X028201Y016163D01*
X028199Y016158D01*
X028199Y015959D01*
X028275Y015775D01*
X028416Y015634D01*
X028599Y015558D01*
X028416Y015482D01*
X028275Y015341D01*
X028199Y015158D01*
X028199Y014959D01*
X028275Y014775D01*
X028416Y014634D01*
X028599Y014558D01*
X028798Y014558D01*
X028982Y014634D01*
X029089Y014741D01*
X029089Y014338D01*
X029065Y014371D01*
X029012Y014424D01*
X028950Y014469D01*
X028883Y014503D01*
X028811Y014526D01*
X028737Y014538D01*
X028719Y014538D01*
X028719Y014079D01*
X028679Y014079D01*
X028679Y014538D01*
X028661Y014538D01*
X028586Y014526D01*
X028515Y014503D01*
X028447Y014469D01*
X028386Y014424D01*
X028333Y014371D01*
X028288Y014310D01*
X028254Y014243D01*
X028231Y014171D01*
X028219Y014096D01*
X028219Y014078D01*
X028679Y014078D01*
X028679Y014038D01*
X028719Y014038D01*
X028719Y013578D01*
X028737Y013578D01*
X028811Y013590D01*
X028883Y013613D01*
X028950Y013648D01*
X029012Y013692D01*
X029065Y013746D01*
X029089Y013779D01*
X029089Y013375D01*
X028982Y013482D01*
X028798Y013558D01*
X028599Y013558D01*
X028416Y013482D01*
X028275Y013341D01*
X028199Y013158D01*
X028199Y012959D01*
X028275Y012775D01*
X028416Y012634D01*
X028599Y012558D01*
X028798Y012558D01*
X028982Y012634D01*
X028422Y012632D02*
X019709Y012632D01*
X019709Y012790D02*
X028269Y012790D01*
X028203Y012949D02*
X019709Y012949D01*
X019709Y013108D02*
X028199Y013108D01*
X028244Y013266D02*
X019709Y013266D01*
X019709Y013425D02*
X028358Y013425D01*
X028447Y013648D02*
X028515Y013613D01*
X028586Y013590D01*
X028661Y013578D01*
X028679Y013578D01*
X028679Y014038D01*
X028219Y014038D01*
X028219Y014020D01*
X028231Y013946D01*
X028254Y013874D01*
X028288Y013807D01*
X028333Y013746D01*
X028386Y013692D01*
X028447Y013648D01*
X028337Y013742D02*
X019709Y013742D01*
X019709Y013900D02*
X028245Y013900D01*
X028246Y014217D02*
X019709Y014217D01*
X019709Y014059D02*
X028679Y014059D01*
X028679Y014217D02*
X028719Y014217D01*
X028719Y014376D02*
X028679Y014376D01*
X028679Y014534D02*
X028719Y014534D01*
X028761Y014534D02*
X029089Y014534D01*
X029089Y014376D02*
X029060Y014376D01*
X029041Y014693D02*
X029089Y014693D01*
X028637Y014534D02*
X019709Y014534D01*
X019709Y014376D02*
X028338Y014376D01*
X028357Y014693D02*
X019709Y014693D01*
X019709Y014852D02*
X028243Y014852D01*
X028199Y015010D02*
X019709Y015010D01*
X019709Y015169D02*
X028203Y015169D01*
X028269Y015327D02*
X019709Y015327D01*
X019709Y015486D02*
X028424Y015486D01*
X028406Y015644D02*
X019709Y015644D01*
X019709Y015803D02*
X028263Y015803D01*
X028199Y015961D02*
X019709Y015961D01*
X019709Y016120D02*
X028199Y016120D01*
X028085Y016278D02*
X019709Y016278D01*
X019709Y016437D02*
X027927Y016437D01*
X027768Y016596D02*
X019709Y016596D01*
X019709Y016754D02*
X027669Y016754D01*
X027669Y016913D02*
X019709Y016913D01*
X019709Y017071D02*
X027669Y017071D01*
X027669Y017230D02*
X019709Y017230D01*
X019709Y017388D02*
X027669Y017388D01*
X027669Y017547D02*
X019709Y017547D01*
X019709Y017705D02*
X027669Y017705D01*
X027669Y017864D02*
X019709Y017864D01*
X019709Y018022D02*
X027669Y018022D01*
X027669Y018181D02*
X019709Y018181D01*
X019709Y018339D02*
X027669Y018339D01*
X027669Y018498D02*
X019709Y018498D01*
X019709Y018657D02*
X027669Y018657D01*
X027669Y018815D02*
X019709Y018815D01*
X019709Y018974D02*
X027669Y018974D01*
X027669Y019132D02*
X019709Y019132D01*
X019709Y019291D02*
X027669Y019291D01*
X027669Y019449D02*
X019709Y019449D01*
X019709Y019608D02*
X027669Y019608D01*
X027734Y019766D02*
X019721Y019766D01*
X019709Y019755D02*
X020012Y020058D01*
X020198Y020058D01*
X020382Y020134D01*
X020523Y020275D01*
X020599Y020459D01*
X020599Y020658D01*
X020523Y020841D01*
X020382Y020982D01*
X020198Y021058D01*
X019999Y021058D01*
X019816Y020982D01*
X019675Y020841D01*
X019599Y020658D01*
X019599Y020459D01*
X019630Y020383D01*
X019523Y020276D01*
X019599Y020459D01*
X019599Y020658D01*
X019523Y020841D01*
X019382Y020982D01*
X019198Y021058D01*
X018999Y021058D01*
X018816Y020982D01*
X018675Y020841D01*
X018599Y020658D01*
X018599Y020459D01*
X018675Y020275D01*
X018816Y020134D01*
X018999Y020058D01*
X019198Y020058D01*
X019381Y020134D01*
X019247Y020000D01*
X019209Y019908D01*
X019209Y019809D01*
X019209Y008014D01*
X019209Y008014D01*
X019209Y009469D01*
X019209Y009568D01*
X019171Y009660D01*
X018699Y010132D01*
X018699Y010158D01*
X018623Y010341D01*
X018482Y010482D01*
X018298Y010558D01*
X018099Y010558D01*
X017916Y010482D01*
X017775Y010341D01*
X017699Y010158D01*
X017699Y009959D01*
X017775Y009775D01*
X017916Y009634D01*
X018099Y009558D01*
X017916Y009482D01*
X017775Y009341D01*
X017699Y009158D01*
X017699Y008959D01*
X017775Y008775D01*
X017916Y008634D01*
X018099Y008558D01*
X017916Y008482D01*
X017775Y008341D01*
X017699Y008158D01*
X017699Y007959D01*
X017775Y007775D01*
X017916Y007634D01*
X018099Y007558D01*
X017916Y007482D01*
X017775Y007341D01*
X017699Y007158D01*
X017699Y006959D01*
X017775Y006775D01*
X017916Y006634D01*
X018099Y006558D01*
X017916Y006482D01*
X017775Y006341D01*
X017699Y006158D01*
X017699Y005959D01*
X017775Y005775D01*
X017916Y005634D01*
X018099Y005558D01*
X018298Y005558D01*
X018482Y005634D01*
X018623Y005775D01*
X018699Y005959D01*
X018699Y006158D01*
X018623Y006341D01*
X018482Y006482D01*
X018298Y006558D01*
X018099Y006558D01*
X018298Y006558D01*
X018482Y006634D01*
X018623Y006775D01*
X018699Y006959D01*
X018699Y007158D01*
X018623Y007341D01*
X018482Y007482D01*
X018298Y007558D01*
X018099Y007558D01*
X018298Y007558D01*
X018482Y007634D01*
X018623Y007775D01*
X018699Y007959D01*
X018699Y008158D01*
X018623Y008341D01*
X018482Y008482D01*
X018298Y008558D01*
X018099Y008558D01*
X018298Y008558D01*
X018482Y008634D01*
X018623Y008775D01*
X018699Y008959D01*
X018699Y009158D01*
X018623Y009341D01*
X018482Y009482D01*
X018298Y009558D01*
X018099Y009558D01*
X018298Y009558D01*
X018482Y009634D01*
X018486Y009638D01*
X018709Y009415D01*
X018709Y006429D01*
X018747Y006337D01*
X018817Y006266D01*
X018909Y006228D01*
X019009Y006228D01*
X019295Y006228D01*
X019261Y006145D01*
X019261Y005971D01*
X019272Y005945D01*
X019077Y005750D01*
X019007Y005680D01*
X018969Y005588D01*
X018969Y005004D01*
X018916Y004982D01*
X018775Y004841D01*
X018736Y004748D01*
X016509Y004748D01*
X016509Y020209D01*
X016509Y020261D01*
X016523Y020275D01*
X016599Y020459D01*
X016675Y020275D01*
X016816Y020134D01*
X016999Y020058D01*
X017198Y020058D01*
X017382Y020134D01*
X017523Y020275D01*
X017599Y020459D01*
X017675Y020275D01*
X017816Y020134D01*
X017999Y020058D01*
X018198Y020058D01*
X018382Y020134D01*
X018523Y020275D01*
X018599Y020459D01*
X018599Y020658D01*
X018523Y020841D01*
X018382Y020982D01*
X018198Y021058D01*
X017999Y021058D01*
X017816Y020982D01*
X017675Y020841D01*
X017599Y020658D01*
X017599Y020459D01*
X017599Y020658D01*
X017523Y020841D01*
X017382Y020982D01*
X017198Y021058D01*
X016999Y021058D01*
X016816Y020982D01*
X016675Y020841D01*
X016599Y020658D01*
X016599Y020459D01*
X016599Y020658D01*
X016523Y020841D01*
X016382Y020982D01*
X016198Y021058D01*
X015999Y021058D01*
X015816Y020982D01*
X015675Y020841D01*
X015599Y020658D01*
X015599Y020459D01*
X015675Y020275D01*
X015816Y020134D01*
X015999Y020058D01*
X016009Y020058D01*
X016009Y004548D01*
X016009Y004449D01*
X016047Y004357D01*
X016117Y004286D01*
X016209Y004248D01*
X018802Y004248D01*
X018916Y004134D01*
X019099Y004058D01*
X019298Y004058D01*
X019482Y004134D01*
X019623Y004275D01*
X019699Y004459D01*
X019699Y004658D01*
X019623Y004841D01*
X019482Y004982D01*
X019469Y004988D01*
X019469Y005435D01*
X019655Y005620D01*
X019786Y005620D01*
X019947Y005687D01*
X020070Y005810D01*
X020137Y005971D01*
X020137Y006067D01*
X020149Y006055D01*
X020149Y005949D01*
X020187Y005857D01*
X020257Y005786D01*
X020349Y005748D01*
X020449Y005748D01*
X021390Y005748D01*
X021451Y005687D01*
X021612Y005620D01*
X021783Y005620D01*
X022469Y004935D01*
X022469Y004479D01*
X022429Y004463D01*
X022294Y004329D01*
X022222Y004153D01*
X022222Y003963D01*
X022294Y003788D01*
X022429Y003654D01*
X022604Y003581D01*
X022794Y003581D01*
X022969Y003654D01*
X023103Y003788D01*
X023176Y003963D01*
X023176Y004153D01*
X023103Y004329D01*
X022969Y004463D01*
X022969Y004989D01*
X022969Y005088D01*
X022931Y005180D01*
X022137Y005974D01*
X022137Y006145D01*
X022070Y006306D01*
X021947Y006429D01*
X021786Y006496D01*
X021612Y006496D01*
X021451Y006429D01*
X021328Y006306D01*
X021304Y006248D01*
X020632Y006248D01*
X020611Y006300D01*
X020291Y006620D01*
X020220Y006690D01*
X020129Y006728D01*
X019955Y006728D01*
X019971Y006740D01*
X020018Y006786D01*
X020056Y006839D01*
X020086Y006898D01*
X020106Y006960D01*
X020117Y007025D01*
X020117Y007058D01*
X019699Y007058D01*
X019699Y007058D01*
X020117Y007058D01*
X020117Y007091D01*
X020106Y007156D01*
X020086Y007219D01*
X020056Y007277D01*
X020018Y007330D01*
X019971Y007377D01*
X019918Y007416D01*
X019859Y007445D01*
X019797Y007466D01*
X019793Y007466D01*
X019798Y007472D01*
X019859Y007619D01*
X019859Y007778D01*
X019798Y007925D01*
X019709Y008014D01*
X019709Y019755D01*
X019879Y019925D02*
X027892Y019925D01*
X027859Y020083D02*
X028051Y020083D01*
X027982Y020134D02*
X028123Y020275D01*
X028199Y020459D01*
X028199Y020658D01*
X028123Y020841D01*
X027982Y020982D01*
X027798Y021058D01*
X027599Y021058D01*
X027416Y020982D01*
X027275Y020841D01*
X027199Y020658D01*
X027199Y020459D01*
X027275Y020275D01*
X027416Y020134D01*
X027599Y020058D01*
X027798Y020058D01*
X027982Y020134D01*
X028090Y020242D02*
X028209Y020242D01*
X028223Y020401D02*
X028175Y020401D01*
X028199Y020559D02*
X028199Y020559D01*
X028174Y020718D02*
X028224Y020718D01*
X028310Y020876D02*
X028088Y020876D01*
X027855Y021035D02*
X028543Y021035D01*
X028855Y021035D02*
X029089Y021035D01*
X029088Y020876D02*
X029089Y020876D01*
X027543Y021035D02*
X026855Y021035D01*
X026798Y021058D02*
X026599Y021058D01*
X026416Y020982D01*
X026275Y020841D01*
X026199Y020658D01*
X026199Y020459D01*
X026275Y020275D01*
X026416Y020134D01*
X026599Y020058D01*
X026798Y020058D01*
X026982Y020134D01*
X027123Y020275D01*
X027199Y020459D01*
X027199Y020658D01*
X027123Y020841D01*
X026982Y020982D01*
X026798Y021058D01*
X026543Y021035D02*
X025855Y021035D01*
X025798Y021058D02*
X025982Y020982D01*
X026123Y020841D01*
X026199Y020658D01*
X026199Y020459D01*
X026123Y020275D01*
X025982Y020134D01*
X025798Y020058D01*
X025599Y020058D01*
X025416Y020134D01*
X025275Y020275D01*
X025199Y020459D01*
X025199Y020658D01*
X025275Y020841D01*
X025416Y020982D01*
X025599Y021058D01*
X025798Y021058D01*
X025543Y021035D02*
X024855Y021035D01*
X024798Y021058D02*
X024599Y021058D01*
X024416Y020982D01*
X024275Y020841D01*
X024199Y020658D01*
X024199Y020459D01*
X024275Y020275D01*
X024416Y020134D01*
X024599Y020058D01*
X024798Y020058D01*
X024982Y020134D01*
X025123Y020275D01*
X025199Y020459D01*
X025199Y020658D01*
X025123Y020841D01*
X024982Y020982D01*
X024798Y021058D01*
X024543Y021035D02*
X023855Y021035D01*
X023798Y021058D02*
X023599Y021058D01*
X023416Y020982D01*
X023275Y020841D01*
X023199Y020658D01*
X023199Y020459D01*
X023275Y020275D01*
X023416Y020134D01*
X023599Y020058D01*
X023798Y020058D01*
X023982Y020134D01*
X024123Y020275D01*
X024199Y020459D01*
X024199Y020658D01*
X024123Y020841D01*
X023982Y020982D01*
X023798Y021058D01*
X023543Y021035D02*
X022855Y021035D01*
X022798Y021058D02*
X022599Y021058D01*
X022416Y020982D01*
X022275Y020841D01*
X022199Y020658D01*
X022199Y020459D01*
X022275Y020275D01*
X022416Y020134D01*
X022599Y020058D01*
X022798Y020058D01*
X022982Y020134D01*
X023123Y020275D01*
X023199Y020459D01*
X023199Y020658D01*
X023123Y020841D01*
X022982Y020982D01*
X022798Y021058D01*
X022543Y021035D02*
X021855Y021035D01*
X021798Y021058D02*
X021599Y021058D01*
X021416Y020982D01*
X021275Y020841D01*
X021199Y020658D01*
X021199Y020459D01*
X021275Y020275D01*
X021416Y020134D01*
X021599Y020058D01*
X021798Y020058D01*
X021982Y020134D01*
X022123Y020275D01*
X022199Y020459D01*
X022199Y020658D01*
X022123Y020841D01*
X021982Y020982D01*
X021798Y021058D01*
X021543Y021035D02*
X020255Y021035D01*
X020488Y020876D02*
X021310Y020876D01*
X021224Y020718D02*
X020574Y020718D01*
X020599Y020559D02*
X021199Y020559D01*
X021223Y020401D02*
X020575Y020401D01*
X020490Y020242D02*
X021308Y020242D01*
X021539Y020083D02*
X020259Y020083D01*
X019623Y020401D02*
X019575Y020401D01*
X019599Y020559D02*
X019599Y020559D01*
X019574Y020718D02*
X019624Y020718D01*
X019710Y020876D02*
X019488Y020876D01*
X019255Y021035D02*
X019943Y021035D01*
X018943Y021035D02*
X018255Y021035D01*
X018488Y020876D02*
X018710Y020876D01*
X018624Y020718D02*
X018574Y020718D01*
X018599Y020559D02*
X018599Y020559D01*
X018575Y020401D02*
X018623Y020401D01*
X018708Y020242D02*
X018490Y020242D01*
X018259Y020083D02*
X018939Y020083D01*
X019216Y019925D02*
X016509Y019925D01*
X016509Y020083D02*
X016939Y020083D01*
X016708Y020242D02*
X016509Y020242D01*
X016575Y020401D02*
X016623Y020401D01*
X016599Y020559D02*
X016599Y020559D01*
X016574Y020718D02*
X016624Y020718D01*
X016710Y020876D02*
X016488Y020876D01*
X016255Y021035D02*
X016943Y021035D01*
X017255Y021035D02*
X017943Y021035D01*
X017710Y020876D02*
X017488Y020876D01*
X017574Y020718D02*
X017624Y020718D01*
X017599Y020559D02*
X017599Y020559D01*
X017575Y020401D02*
X017623Y020401D01*
X017708Y020242D02*
X017490Y020242D01*
X017259Y020083D02*
X017939Y020083D01*
X019209Y019766D02*
X016509Y019766D01*
X016509Y019608D02*
X019209Y019608D01*
X019209Y019449D02*
X016509Y019449D01*
X016509Y019291D02*
X019209Y019291D01*
X019209Y019132D02*
X016509Y019132D01*
X016509Y018974D02*
X019209Y018974D01*
X019209Y018815D02*
X016509Y018815D01*
X016509Y018657D02*
X019209Y018657D01*
X019209Y018498D02*
X016509Y018498D01*
X016509Y018339D02*
X019209Y018339D01*
X019209Y018181D02*
X016509Y018181D01*
X016509Y018022D02*
X019209Y018022D01*
X019209Y017864D02*
X016509Y017864D01*
X016509Y017705D02*
X019209Y017705D01*
X019209Y017547D02*
X016509Y017547D01*
X016509Y017388D02*
X019209Y017388D01*
X019209Y017230D02*
X016509Y017230D01*
X016509Y017071D02*
X019209Y017071D01*
X019209Y016913D02*
X016509Y016913D01*
X016509Y016754D02*
X019209Y016754D01*
X019209Y016596D02*
X016509Y016596D01*
X016509Y016437D02*
X019209Y016437D01*
X019209Y016278D02*
X016509Y016278D01*
X016509Y016120D02*
X019209Y016120D01*
X019209Y015961D02*
X016509Y015961D01*
X016509Y015803D02*
X019209Y015803D01*
X019209Y015644D02*
X016509Y015644D01*
X016509Y015486D02*
X019209Y015486D01*
X019209Y015327D02*
X016509Y015327D01*
X016509Y015169D02*
X019209Y015169D01*
X019209Y015010D02*
X016509Y015010D01*
X016509Y014852D02*
X019209Y014852D01*
X019209Y014693D02*
X016509Y014693D01*
X016509Y014534D02*
X019209Y014534D01*
X019209Y014376D02*
X016509Y014376D01*
X016509Y014217D02*
X019209Y014217D01*
X019209Y014059D02*
X016509Y014059D01*
X016509Y013900D02*
X019209Y013900D01*
X019209Y013742D02*
X016509Y013742D01*
X016509Y013583D02*
X019209Y013583D01*
X019209Y013425D02*
X016509Y013425D01*
X016509Y013266D02*
X019209Y013266D01*
X019209Y013108D02*
X016509Y013108D01*
X016509Y012949D02*
X019209Y012949D01*
X019209Y012790D02*
X016509Y012790D01*
X016509Y012632D02*
X019209Y012632D01*
X019209Y012473D02*
X016509Y012473D01*
X016509Y012315D02*
X019209Y012315D01*
X019209Y012156D02*
X016509Y012156D01*
X016509Y011998D02*
X019209Y011998D01*
X019209Y011839D02*
X016509Y011839D01*
X016509Y011681D02*
X019209Y011681D01*
X019209Y011522D02*
X016509Y011522D01*
X016509Y011364D02*
X019209Y011364D01*
X019209Y011205D02*
X016509Y011205D01*
X016509Y011046D02*
X019209Y011046D01*
X019209Y010888D02*
X016509Y010888D01*
X016509Y010729D02*
X019209Y010729D01*
X019209Y010571D02*
X016509Y010571D01*
X016509Y010412D02*
X016846Y010412D01*
X016916Y010482D02*
X016775Y010341D01*
X016699Y010158D01*
X016699Y009959D01*
X016775Y009775D01*
X016916Y009634D01*
X017099Y009558D01*
X016916Y009482D01*
X016775Y009341D01*
X016699Y009158D01*
X016699Y008959D01*
X016775Y008775D01*
X016916Y008634D01*
X017099Y008558D01*
X016916Y008482D01*
X016775Y008341D01*
X016699Y008158D01*
X016699Y007959D01*
X016775Y007775D01*
X016916Y007634D01*
X017099Y007558D01*
X016916Y007482D01*
X016775Y007341D01*
X016699Y007158D01*
X016699Y006959D01*
X016775Y006775D01*
X016916Y006634D01*
X017099Y006558D01*
X016916Y006482D01*
X016775Y006341D01*
X016699Y006158D01*
X016699Y005959D01*
X016775Y005775D01*
X016916Y005634D01*
X017099Y005558D01*
X017298Y005558D01*
X017482Y005634D01*
X017623Y005775D01*
X017699Y005959D01*
X017699Y006158D01*
X017623Y006341D01*
X017482Y006482D01*
X017298Y006558D01*
X017099Y006558D01*
X017298Y006558D01*
X017482Y006634D01*
X017623Y006775D01*
X017699Y006959D01*
X017699Y007158D01*
X017623Y007341D01*
X017482Y007482D01*
X017298Y007558D01*
X017099Y007558D01*
X017298Y007558D01*
X017482Y007634D01*
X017623Y007775D01*
X017699Y007959D01*
X017699Y008158D01*
X017623Y008341D01*
X017482Y008482D01*
X017298Y008558D01*
X017099Y008558D01*
X017298Y008558D01*
X017482Y008634D01*
X017623Y008775D01*
X017699Y008959D01*
X017699Y009158D01*
X017623Y009341D01*
X017482Y009482D01*
X017298Y009558D01*
X017099Y009558D01*
X017298Y009558D01*
X017482Y009634D01*
X017623Y009775D01*
X017699Y009959D01*
X017699Y010158D01*
X017623Y010341D01*
X017482Y010482D01*
X017298Y010558D01*
X017099Y010558D01*
X016916Y010482D01*
X016739Y010254D02*
X016509Y010254D01*
X016509Y010095D02*
X016699Y010095D01*
X016708Y009937D02*
X016509Y009937D01*
X016509Y009778D02*
X016774Y009778D01*
X016951Y009620D02*
X016509Y009620D01*
X016509Y009461D02*
X016895Y009461D01*
X016759Y009303D02*
X016509Y009303D01*
X016509Y009144D02*
X016699Y009144D01*
X016699Y008985D02*
X016509Y008985D01*
X016509Y008827D02*
X016754Y008827D01*
X016882Y008668D02*
X016509Y008668D01*
X016509Y008510D02*
X016983Y008510D01*
X016785Y008351D02*
X016509Y008351D01*
X016509Y008193D02*
X016713Y008193D01*
X016699Y008034D02*
X016509Y008034D01*
X016509Y007876D02*
X016733Y007876D01*
X016833Y007717D02*
X016509Y007717D01*
X016509Y007559D02*
X017099Y007559D01*
X017299Y007559D02*
X018099Y007559D01*
X018299Y007559D02*
X018709Y007559D01*
X018709Y007717D02*
X018565Y007717D01*
X018664Y007876D02*
X018709Y007876D01*
X018699Y008034D02*
X018709Y008034D01*
X018709Y008193D02*
X018684Y008193D01*
X018709Y008351D02*
X018613Y008351D01*
X018709Y008510D02*
X018415Y008510D01*
X018516Y008668D02*
X018709Y008668D01*
X018709Y008827D02*
X018644Y008827D01*
X018699Y008985D02*
X018709Y008985D01*
X018699Y009144D02*
X018709Y009144D01*
X018709Y009303D02*
X018639Y009303D01*
X018663Y009461D02*
X018503Y009461D01*
X018504Y009620D02*
X018446Y009620D01*
X017951Y009620D02*
X017446Y009620D01*
X017503Y009461D02*
X017895Y009461D01*
X017759Y009303D02*
X017639Y009303D01*
X017699Y009144D02*
X017699Y009144D01*
X017699Y008985D02*
X017699Y008985D01*
X017644Y008827D02*
X017754Y008827D01*
X017882Y008668D02*
X017516Y008668D01*
X017415Y008510D02*
X017983Y008510D01*
X017785Y008351D02*
X017613Y008351D01*
X017684Y008193D02*
X017713Y008193D01*
X017699Y008034D02*
X017699Y008034D01*
X017664Y007876D02*
X017733Y007876D01*
X017833Y007717D02*
X017565Y007717D01*
X017564Y007400D02*
X017834Y007400D01*
X017734Y007241D02*
X017664Y007241D01*
X017699Y007083D02*
X017699Y007083D01*
X017685Y006924D02*
X017713Y006924D01*
X017784Y006766D02*
X017614Y006766D01*
X017417Y006607D02*
X017981Y006607D01*
X017882Y006449D02*
X017515Y006449D01*
X017644Y006290D02*
X017754Y006290D01*
X017699Y006132D02*
X017699Y006132D01*
X017699Y005973D02*
X017699Y005973D01*
X017639Y005815D02*
X017759Y005815D01*
X017894Y005656D02*
X017504Y005656D01*
X016894Y005656D02*
X016509Y005656D01*
X016509Y005497D02*
X018969Y005497D01*
X018969Y005339D02*
X016509Y005339D01*
X016509Y005180D02*
X018969Y005180D01*
X018969Y005022D02*
X016509Y005022D01*
X016509Y004863D02*
X018797Y004863D01*
X018821Y004229D02*
X003179Y004229D01*
X003179Y004071D02*
X019070Y004071D01*
X019328Y004071D02*
X020222Y004071D01*
X020222Y004153D02*
X020222Y003963D01*
X020294Y003788D01*
X020429Y003654D01*
X020604Y003581D01*
X020794Y003581D01*
X020969Y003654D01*
X021103Y003788D01*
X021176Y003963D01*
X021176Y004153D01*
X021103Y004329D01*
X020969Y004463D01*
X020794Y004535D01*
X020604Y004535D01*
X020429Y004463D01*
X020294Y004329D01*
X020222Y004153D01*
X020253Y004229D02*
X019577Y004229D01*
X019669Y004388D02*
X020354Y004388D01*
X020243Y003912D02*
X017052Y003912D01*
X016982Y003982D02*
X017123Y003841D01*
X017199Y003658D01*
X017199Y003459D01*
X017123Y003275D01*
X016982Y003134D01*
X016798Y003058D01*
X016599Y003058D01*
X016416Y003134D01*
X016275Y003275D01*
X016199Y003459D01*
X016199Y003658D01*
X016275Y003841D01*
X016416Y003982D01*
X016599Y004058D01*
X016798Y004058D01*
X016982Y003982D01*
X017159Y003754D02*
X020329Y003754D01*
X020570Y003595D02*
X017199Y003595D01*
X017190Y003436D02*
X029089Y003436D01*
X029089Y003278D02*
X017124Y003278D01*
X016946Y003119D02*
X029089Y003119D01*
X029089Y002961D02*
X008063Y002961D01*
X008195Y002802D02*
X029089Y002802D01*
X029089Y002644D02*
X008287Y002644D01*
X008346Y002485D02*
X029089Y002485D01*
X029089Y002327D02*
X008388Y002327D01*
X008399Y002168D02*
X029089Y002168D01*
X029089Y002010D02*
X028916Y002010D01*
X028482Y002010D02*
X027916Y002010D01*
X028113Y001851D02*
X028285Y001851D01*
X028213Y001692D02*
X028184Y001692D01*
X028199Y001534D02*
X028199Y001534D01*
X028164Y001375D02*
X028233Y001375D01*
X028333Y001217D02*
X028065Y001217D01*
X027798Y001058D02*
X027599Y001058D01*
X027333Y001217D02*
X027065Y001217D01*
X027164Y001375D02*
X027233Y001375D01*
X027199Y001534D02*
X027199Y001534D01*
X027184Y001692D02*
X027213Y001692D01*
X027285Y001851D02*
X027113Y001851D01*
X026916Y002010D02*
X027482Y002010D01*
X026482Y002010D02*
X025916Y002010D01*
X026113Y001851D02*
X026285Y001851D01*
X026213Y001692D02*
X026184Y001692D01*
X026199Y001534D02*
X026199Y001534D01*
X026164Y001375D02*
X026233Y001375D01*
X026333Y001217D02*
X026065Y001217D01*
X025798Y001058D02*
X025599Y001058D01*
X025333Y001217D02*
X025065Y001217D01*
X025164Y001375D02*
X025233Y001375D01*
X025199Y001534D02*
X025199Y001534D01*
X025184Y001692D02*
X025213Y001692D01*
X025285Y001851D02*
X025113Y001851D01*
X024916Y002010D02*
X025482Y002010D01*
X024482Y002010D02*
X023916Y002010D01*
X024113Y001851D02*
X024285Y001851D01*
X024213Y001692D02*
X024184Y001692D01*
X024199Y001534D02*
X024199Y001534D01*
X024164Y001375D02*
X024233Y001375D01*
X024333Y001217D02*
X024065Y001217D01*
X023798Y001058D02*
X023599Y001058D01*
X023333Y001217D02*
X022065Y001217D01*
X022164Y001375D02*
X023233Y001375D01*
X023199Y001534D02*
X022199Y001534D01*
X022184Y001692D02*
X023213Y001692D01*
X023285Y001851D02*
X022113Y001851D01*
X021916Y002010D02*
X023482Y002010D01*
X024599Y001058D02*
X024798Y001058D01*
X026599Y001058D02*
X026798Y001058D01*
X028599Y001058D02*
X028798Y001058D01*
X029089Y001058D01*
X029089Y001038D02*
X007711Y001038D01*
X007984Y001217D02*
X016333Y001217D01*
X016233Y001375D02*
X008143Y001375D01*
X008241Y001534D02*
X016199Y001534D01*
X016213Y001692D02*
X008324Y001692D01*
X008367Y001851D02*
X016285Y001851D01*
X016482Y002010D02*
X008399Y002010D01*
X007882Y003119D02*
X014452Y003119D01*
X014416Y003134D02*
X014599Y003058D01*
X014798Y003058D01*
X014982Y003134D01*
X015123Y003275D01*
X015199Y003459D01*
X015199Y003658D01*
X015123Y003841D01*
X014982Y003982D01*
X014798Y004058D01*
X014599Y004058D01*
X014416Y003982D01*
X014275Y003841D01*
X014199Y003658D01*
X014199Y003459D01*
X014275Y003275D01*
X014416Y003134D01*
X014274Y003278D02*
X007545Y003278D01*
X006853Y003278D02*
X003179Y003278D01*
X003179Y003436D02*
X014208Y003436D01*
X014199Y003595D02*
X003179Y003595D01*
X003179Y003754D02*
X014239Y003754D01*
X014346Y003912D02*
X003179Y003912D01*
X003179Y004388D02*
X016034Y004388D01*
X016009Y004546D02*
X008054Y004546D01*
X008199Y004691D02*
X007906Y004398D01*
X007492Y004398D01*
X007199Y004691D01*
X007199Y005105D01*
X007492Y005398D01*
X007906Y005398D01*
X008199Y005105D01*
X008199Y004691D01*
X008199Y004705D02*
X016009Y004705D01*
X016009Y004863D02*
X008199Y004863D01*
X008199Y005022D02*
X016009Y005022D01*
X016009Y005180D02*
X008124Y005180D01*
X007965Y005339D02*
X016009Y005339D01*
X016009Y005497D02*
X007925Y005497D01*
X007906Y005478D02*
X008199Y005771D01*
X008199Y006185D01*
X007906Y006478D01*
X007492Y006478D01*
X007199Y006185D01*
X007199Y005771D01*
X007492Y005478D01*
X007906Y005478D01*
X008084Y005656D02*
X016009Y005656D01*
X016009Y005815D02*
X008199Y005815D01*
X008199Y005973D02*
X016009Y005973D01*
X016009Y006132D02*
X008199Y006132D01*
X008094Y006290D02*
X016009Y006290D01*
X016009Y006449D02*
X007935Y006449D01*
X007906Y006558D02*
X008199Y006851D01*
X008199Y007265D01*
X007906Y007558D01*
X007492Y007558D01*
X007199Y007265D01*
X007199Y006851D01*
X007492Y006558D01*
X007906Y006558D01*
X007955Y006607D02*
X016009Y006607D01*
X016009Y006766D02*
X008114Y006766D01*
X008199Y006924D02*
X016009Y006924D01*
X016009Y007083D02*
X008199Y007083D01*
X008199Y007241D02*
X016009Y007241D01*
X016009Y007400D02*
X008064Y007400D01*
X007906Y007638D02*
X008199Y007931D01*
X008199Y008345D01*
X007906Y008638D01*
X007492Y008638D01*
X007199Y008345D01*
X007199Y007931D01*
X007492Y007638D01*
X007906Y007638D01*
X007985Y007717D02*
X016009Y007717D01*
X016009Y007559D02*
X007199Y007559D01*
X007199Y007717D02*
X007413Y007717D01*
X007254Y007876D02*
X007129Y007876D01*
X007199Y007805D02*
X006906Y008098D01*
X006492Y008098D01*
X006199Y007805D01*
X006199Y007391D01*
X006492Y007098D01*
X006906Y007098D01*
X007199Y007391D01*
X007199Y007805D01*
X007199Y008034D02*
X006970Y008034D01*
X006906Y008178D02*
X006492Y008178D01*
X006199Y008471D01*
X006199Y008885D01*
X006492Y009178D01*
X006906Y009178D01*
X007199Y008885D01*
X007199Y008471D01*
X006906Y008178D01*
X006920Y008193D02*
X007199Y008193D01*
X007205Y008351D02*
X007079Y008351D01*
X007199Y008510D02*
X007363Y008510D01*
X007199Y008668D02*
X016009Y008668D01*
X016009Y008510D02*
X008034Y008510D01*
X008193Y008351D02*
X016009Y008351D01*
X016009Y008193D02*
X008199Y008193D01*
X008199Y008034D02*
X016009Y008034D01*
X016009Y007876D02*
X008143Y007876D01*
X007334Y007400D02*
X007199Y007400D01*
X007199Y007241D02*
X007049Y007241D01*
X007199Y007083D02*
X003179Y007083D01*
X003179Y007241D02*
X006349Y007241D01*
X006199Y007400D02*
X003179Y007400D01*
X003179Y007559D02*
X006199Y007559D01*
X006199Y007717D02*
X003179Y007717D01*
X003179Y007876D02*
X006269Y007876D01*
X006428Y008034D02*
X003179Y008034D01*
X003179Y008193D02*
X006477Y008193D01*
X006319Y008351D02*
X003179Y008351D01*
X003179Y008510D02*
X006199Y008510D01*
X006199Y008668D02*
X003179Y008668D01*
X003179Y008827D02*
X006199Y008827D01*
X006299Y008985D02*
X003179Y008985D01*
X003179Y009144D02*
X006458Y009144D01*
X006940Y009144D02*
X007199Y009144D01*
X007199Y009011D02*
X007492Y008718D01*
X007906Y008718D01*
X008199Y009011D01*
X008199Y009425D01*
X007906Y009718D01*
X007492Y009718D01*
X007199Y009425D01*
X007199Y009011D01*
X007225Y008985D02*
X007099Y008985D01*
X007199Y008827D02*
X007383Y008827D01*
X007199Y009303D02*
X003179Y009303D01*
X003179Y009461D02*
X007235Y009461D01*
X007393Y009620D02*
X003179Y009620D01*
X003179Y009778D02*
X016009Y009778D01*
X016009Y009620D02*
X008005Y009620D01*
X008163Y009461D02*
X016009Y009461D01*
X016009Y009303D02*
X008199Y009303D01*
X008199Y009144D02*
X016009Y009144D01*
X016009Y008985D02*
X008173Y008985D01*
X008015Y008827D02*
X016009Y008827D01*
X016009Y009937D02*
X003179Y009937D01*
X003179Y010095D02*
X016009Y010095D01*
X016009Y010254D02*
X003179Y010254D01*
X003179Y010412D02*
X016009Y010412D01*
X016009Y010571D02*
X003179Y010571D01*
X003179Y010729D02*
X016009Y010729D01*
X016009Y010888D02*
X007693Y010888D01*
X007662Y010870D02*
X007936Y011028D01*
X008159Y011251D01*
X008317Y011525D01*
X008399Y011830D01*
X008399Y012146D01*
X008317Y012451D01*
X008159Y012725D01*
X007936Y012948D01*
X007662Y013106D01*
X007357Y013188D01*
X007041Y013188D01*
X006736Y013106D01*
X006462Y012948D01*
X006239Y012725D01*
X006081Y012451D01*
X005999Y012146D01*
X005999Y011830D01*
X006081Y011525D01*
X006239Y011251D01*
X006462Y011028D01*
X006736Y010870D01*
X007041Y010788D01*
X007357Y010788D01*
X007662Y010870D01*
X007954Y011046D02*
X016009Y011046D01*
X016009Y011205D02*
X008113Y011205D01*
X008224Y011364D02*
X016009Y011364D01*
X016009Y011522D02*
X008315Y011522D01*
X008359Y011681D02*
X016009Y011681D01*
X016009Y011839D02*
X008399Y011839D01*
X008399Y011998D02*
X016009Y011998D01*
X016009Y012156D02*
X008396Y012156D01*
X008354Y012315D02*
X016009Y012315D01*
X016009Y012473D02*
X008304Y012473D01*
X008213Y012632D02*
X016009Y012632D01*
X016009Y012790D02*
X008094Y012790D01*
X007935Y012949D02*
X016009Y012949D01*
X016009Y013108D02*
X007658Y013108D01*
X006740Y013108D02*
X003179Y013108D01*
X003179Y013266D02*
X016009Y013266D01*
X016009Y013425D02*
X003179Y013425D01*
X003179Y013583D02*
X016009Y013583D01*
X016009Y013742D02*
X003179Y013742D01*
X003422Y013900D02*
X003992Y013900D01*
X003717Y014059D02*
X003697Y014059D01*
X004406Y013900D02*
X016009Y013900D01*
X016009Y014059D02*
X006527Y014059D01*
X006524Y014056D02*
X006701Y014233D01*
X006797Y014464D01*
X006797Y014715D01*
X006701Y014947D01*
X006566Y015082D01*
X006701Y015217D01*
X006797Y015449D01*
X006797Y015699D01*
X006701Y015931D01*
X006627Y016005D01*
X006775Y016153D01*
X006884Y016416D01*
X006884Y016701D01*
X006775Y016964D01*
X006627Y017111D01*
X006701Y017186D01*
X006797Y017417D01*
X006797Y017668D01*
X006701Y017899D01*
X006566Y018035D01*
X006701Y018170D01*
X006797Y018401D01*
X006797Y018652D01*
X006701Y018884D01*
X006524Y019061D01*
X006293Y019157D01*
X006042Y019157D01*
X005811Y019061D01*
X005633Y018884D01*
X005537Y018652D01*
X005537Y018401D01*
X005633Y018170D01*
X005769Y018035D01*
X005633Y017899D01*
X005537Y017668D01*
X005537Y017417D01*
X005633Y017186D01*
X005708Y017111D01*
X005560Y016964D01*
X005451Y016701D01*
X005451Y016416D01*
X005560Y016153D01*
X005708Y016005D01*
X005633Y015931D01*
X005537Y015699D01*
X005537Y015449D01*
X005633Y015217D01*
X005769Y015082D01*
X005633Y014947D01*
X005537Y014715D01*
X005537Y014464D01*
X005633Y014233D01*
X005811Y014056D01*
X006042Y013960D01*
X006293Y013960D01*
X006524Y014056D01*
X006686Y014217D02*
X016009Y014217D01*
X016009Y014376D02*
X006761Y014376D01*
X006797Y014534D02*
X016009Y014534D01*
X016009Y014693D02*
X006797Y014693D01*
X006741Y014852D02*
X016009Y014852D01*
X016009Y015010D02*
X006638Y015010D01*
X006653Y015169D02*
X016009Y015169D01*
X016009Y015327D02*
X006747Y015327D01*
X006797Y015486D02*
X016009Y015486D01*
X016009Y015644D02*
X006797Y015644D01*
X006755Y015803D02*
X016009Y015803D01*
X016009Y015961D02*
X006671Y015961D01*
X006742Y016120D02*
X016009Y016120D01*
X016009Y016278D02*
X006827Y016278D01*
X006884Y016437D02*
X016009Y016437D01*
X016009Y016596D02*
X006884Y016596D01*
X006861Y016754D02*
X016009Y016754D01*
X016009Y016913D02*
X006796Y016913D01*
X006667Y017071D02*
X016009Y017071D01*
X016009Y017230D02*
X006720Y017230D01*
X006785Y017388D02*
X016009Y017388D01*
X016009Y017547D02*
X006797Y017547D01*
X006782Y017705D02*
X016009Y017705D01*
X016009Y017864D02*
X006716Y017864D01*
X006578Y018022D02*
X016009Y018022D01*
X016009Y018181D02*
X006706Y018181D01*
X006772Y018339D02*
X016009Y018339D01*
X016009Y018498D02*
X006797Y018498D01*
X006796Y018657D02*
X016009Y018657D01*
X016009Y018815D02*
X006730Y018815D01*
X006611Y018974D02*
X016009Y018974D01*
X016009Y019132D02*
X006352Y019132D01*
X005983Y019132D02*
X004606Y019132D01*
X004765Y018974D02*
X005723Y018974D01*
X005605Y018815D02*
X004855Y018815D01*
X004915Y018657D02*
X005539Y018657D01*
X005537Y018498D02*
X004915Y018498D01*
X004896Y018339D02*
X005563Y018339D01*
X005629Y018181D02*
X004831Y018181D01*
X004707Y018022D02*
X005756Y018022D01*
X005619Y017864D02*
X004470Y017864D01*
X003928Y017864D02*
X003486Y017864D01*
X003179Y017705D02*
X005553Y017705D01*
X005537Y017547D02*
X003179Y017547D01*
X003179Y017388D02*
X005549Y017388D01*
X005615Y017230D02*
X003179Y017230D01*
X003179Y017071D02*
X003821Y017071D01*
X003842Y017092D02*
X003665Y016915D01*
X003569Y016684D01*
X003569Y016433D01*
X003665Y016201D01*
X003842Y016024D01*
X004074Y015928D01*
X004324Y015928D01*
X004556Y016024D01*
X004733Y016201D01*
X004829Y016433D01*
X004829Y016684D01*
X004733Y016915D01*
X004556Y017092D01*
X004324Y017188D01*
X004074Y017188D01*
X003842Y017092D01*
X003664Y016913D02*
X003179Y016913D01*
X003179Y016754D02*
X003598Y016754D01*
X003569Y016596D02*
X003179Y016596D01*
X003179Y016437D02*
X003569Y016437D01*
X003633Y016278D02*
X003179Y016278D01*
X003179Y016120D02*
X003746Y016120D01*
X003994Y015961D02*
X003179Y015961D01*
X003179Y015803D02*
X005580Y015803D01*
X005537Y015644D02*
X003179Y015644D01*
X003179Y015486D02*
X005537Y015486D01*
X005588Y015327D02*
X003179Y015327D01*
X003649Y015169D02*
X003765Y015169D01*
X004633Y015169D02*
X005682Y015169D01*
X005697Y015010D02*
X004791Y015010D01*
X004866Y014852D02*
X005594Y014852D01*
X005537Y014693D02*
X004915Y014693D01*
X004915Y014534D02*
X005537Y014534D01*
X005574Y014376D02*
X004886Y014376D01*
X004820Y014217D02*
X005649Y014217D01*
X005807Y014059D02*
X004681Y014059D01*
X003179Y012949D02*
X006463Y012949D01*
X006304Y012790D02*
X003179Y012790D01*
X003179Y012632D02*
X006185Y012632D01*
X006093Y012473D02*
X003179Y012473D01*
X003179Y012315D02*
X006044Y012315D01*
X006002Y012156D02*
X003179Y012156D01*
X003179Y011998D02*
X005999Y011998D01*
X005999Y011839D02*
X003179Y011839D01*
X003179Y011681D02*
X006039Y011681D01*
X006082Y011522D02*
X003179Y011522D01*
X003179Y011364D02*
X006174Y011364D01*
X006285Y011205D02*
X003179Y011205D01*
X003179Y011046D02*
X006444Y011046D01*
X006705Y010888D02*
X003179Y010888D01*
X003179Y006924D02*
X006398Y006924D01*
X006492Y007018D02*
X006199Y006725D01*
X006199Y006311D01*
X006492Y006018D01*
X006906Y006018D01*
X007199Y006311D01*
X007199Y006725D01*
X006906Y007018D01*
X006492Y007018D01*
X006239Y006766D02*
X003179Y006766D01*
X003179Y006607D02*
X006199Y006607D01*
X006199Y006449D02*
X003179Y006449D01*
X003179Y006290D02*
X006220Y006290D01*
X006378Y006132D02*
X003179Y006132D01*
X003179Y005973D02*
X007199Y005973D01*
X007199Y005815D02*
X007030Y005815D01*
X006906Y005938D02*
X007199Y005645D01*
X007199Y005231D01*
X006906Y004938D01*
X006492Y004938D01*
X006199Y005231D01*
X006199Y005645D01*
X006492Y005938D01*
X006906Y005938D01*
X007019Y006132D02*
X007199Y006132D01*
X007178Y006290D02*
X007304Y006290D01*
X007199Y006449D02*
X007462Y006449D01*
X007443Y006607D02*
X007199Y006607D01*
X007158Y006766D02*
X007284Y006766D01*
X007199Y006924D02*
X007000Y006924D01*
X006368Y005815D02*
X003179Y005815D01*
X003179Y005656D02*
X006210Y005656D01*
X006199Y005497D02*
X003179Y005497D01*
X003179Y005339D02*
X006199Y005339D01*
X006250Y005180D02*
X003179Y005180D01*
X003179Y005022D02*
X006408Y005022D01*
X006990Y005022D02*
X007199Y005022D01*
X007199Y004863D02*
X003179Y004863D01*
X003179Y004705D02*
X007199Y004705D01*
X007344Y004546D02*
X003179Y004546D01*
X003179Y003119D02*
X006516Y003119D01*
X006334Y002961D02*
X003179Y002961D01*
X003179Y002802D02*
X006202Y002802D01*
X006111Y002644D02*
X003179Y002644D01*
X003179Y002485D02*
X006052Y002485D01*
X006010Y002327D02*
X003179Y002327D01*
X003179Y002168D02*
X005999Y002168D01*
X005999Y002010D02*
X003179Y002010D01*
X003179Y001851D02*
X006031Y001851D01*
X006073Y001692D02*
X003179Y001692D01*
X003179Y001534D02*
X006156Y001534D01*
X006255Y001375D02*
X003179Y001375D01*
X003179Y001217D02*
X006413Y001217D01*
X006652Y001058D02*
X003179Y001058D01*
X007148Y005180D02*
X007274Y005180D01*
X007199Y005339D02*
X007432Y005339D01*
X007473Y005497D02*
X007199Y005497D01*
X007188Y005656D02*
X007314Y005656D01*
X015052Y003912D02*
X015374Y003912D01*
X015386Y003924D02*
X015333Y003871D01*
X015288Y003810D01*
X015254Y003743D01*
X015231Y003671D01*
X015219Y003596D01*
X015219Y003578D01*
X015679Y003578D01*
X015679Y003538D01*
X015719Y003538D01*
X015719Y003078D01*
X015737Y003078D01*
X015811Y003090D01*
X015883Y003113D01*
X015950Y003148D01*
X016012Y003192D01*
X016065Y003246D01*
X016109Y003307D01*
X016144Y003374D01*
X016167Y003446D01*
X016179Y003520D01*
X016179Y003538D01*
X015719Y003538D01*
X015719Y003578D01*
X016179Y003578D01*
X016179Y003596D01*
X016167Y003671D01*
X016144Y003743D01*
X016109Y003810D01*
X016065Y003871D01*
X016012Y003924D01*
X015950Y003969D01*
X015883Y004003D01*
X015811Y004026D01*
X015737Y004038D01*
X015719Y004038D01*
X015719Y003579D01*
X015679Y003579D01*
X015679Y004038D01*
X015661Y004038D01*
X015586Y004026D01*
X015515Y004003D01*
X015447Y003969D01*
X015386Y003924D01*
X015260Y003754D02*
X015159Y003754D01*
X015199Y003595D02*
X015219Y003595D01*
X015219Y003538D02*
X015219Y003520D01*
X015231Y003446D01*
X015254Y003374D01*
X015288Y003307D01*
X015333Y003246D01*
X015386Y003192D01*
X015447Y003148D01*
X015515Y003113D01*
X015586Y003090D01*
X015661Y003078D01*
X015679Y003078D01*
X015679Y003538D01*
X015219Y003538D01*
X015234Y003436D02*
X015190Y003436D01*
X015124Y003278D02*
X015309Y003278D01*
X015503Y003119D02*
X014946Y003119D01*
X015679Y003119D02*
X015719Y003119D01*
X015719Y003278D02*
X015679Y003278D01*
X015679Y003436D02*
X015719Y003436D01*
X015719Y003595D02*
X015679Y003595D01*
X015679Y003754D02*
X015719Y003754D01*
X015719Y003912D02*
X015679Y003912D01*
X016024Y003912D02*
X016346Y003912D01*
X016239Y003754D02*
X016138Y003754D01*
X016179Y003595D02*
X016199Y003595D01*
X016208Y003436D02*
X016164Y003436D01*
X016088Y003278D02*
X016274Y003278D01*
X016452Y003119D02*
X015895Y003119D01*
X016916Y002010D02*
X017482Y002010D01*
X017285Y001851D02*
X017113Y001851D01*
X017184Y001692D02*
X017213Y001692D01*
X017199Y001534D02*
X017199Y001534D01*
X017164Y001375D02*
X017233Y001375D01*
X017333Y001217D02*
X017065Y001217D01*
X016798Y001058D02*
X016599Y001058D01*
X017599Y001058D02*
X017798Y001058D01*
X018065Y001217D02*
X018333Y001217D01*
X018233Y001375D02*
X018164Y001375D01*
X018199Y001534D02*
X018199Y001534D01*
X018184Y001692D02*
X018213Y001692D01*
X018285Y001851D02*
X018113Y001851D01*
X017916Y002010D02*
X018482Y002010D01*
X018916Y002010D02*
X019482Y002010D01*
X019285Y001851D02*
X019113Y001851D01*
X019184Y001692D02*
X019213Y001692D01*
X019199Y001534D02*
X019199Y001534D01*
X019164Y001375D02*
X019233Y001375D01*
X019333Y001217D02*
X019065Y001217D01*
X018798Y001058D02*
X018599Y001058D01*
X019599Y001058D02*
X019798Y001058D01*
X020065Y001217D02*
X020333Y001217D01*
X020233Y001375D02*
X020164Y001375D01*
X020199Y001534D02*
X020199Y001534D01*
X020184Y001692D02*
X020213Y001692D01*
X020285Y001851D02*
X020113Y001851D01*
X019916Y002010D02*
X020482Y002010D01*
X020916Y002010D02*
X021482Y002010D01*
X021285Y001851D02*
X021113Y001851D01*
X021184Y001692D02*
X021213Y001692D01*
X021199Y001534D02*
X021199Y001534D01*
X021164Y001375D02*
X021233Y001375D01*
X021333Y001217D02*
X021065Y001217D01*
X020798Y001058D02*
X020599Y001058D01*
X021599Y001058D02*
X021798Y001058D01*
X022570Y003595D02*
X020827Y003595D01*
X021069Y003754D02*
X022329Y003754D01*
X022243Y003912D02*
X021155Y003912D01*
X021176Y004071D02*
X022222Y004071D01*
X022253Y004229D02*
X021145Y004229D01*
X021044Y004388D02*
X022354Y004388D01*
X022469Y004546D02*
X019699Y004546D01*
X019679Y004705D02*
X022469Y004705D01*
X022469Y004863D02*
X019601Y004863D01*
X019469Y005022D02*
X022382Y005022D01*
X022223Y005180D02*
X019469Y005180D01*
X019469Y005339D02*
X022065Y005339D01*
X021906Y005497D02*
X019532Y005497D01*
X019872Y005656D02*
X021526Y005656D01*
X022138Y005973D02*
X023261Y005973D01*
X023261Y006132D02*
X022137Y006132D01*
X022077Y006290D02*
X023113Y006290D01*
X022955Y006449D02*
X021900Y006449D01*
X021859Y006671D02*
X021918Y006701D01*
X021971Y006740D01*
X022018Y006786D01*
X022056Y006839D01*
X022086Y006898D01*
X022106Y006960D01*
X022117Y007025D01*
X022117Y007058D01*
X021699Y007058D01*
X021699Y006640D01*
X021732Y006640D01*
X021797Y006651D01*
X021859Y006671D01*
X021699Y006640D02*
X021699Y007058D01*
X021699Y007058D01*
X021699Y007058D01*
X022117Y007058D01*
X022117Y007091D01*
X022106Y007156D01*
X022086Y007219D01*
X022056Y007277D01*
X022018Y007330D01*
X021971Y007377D01*
X021918Y007416D01*
X021859Y007445D01*
X021797Y007466D01*
X021732Y007476D01*
X021699Y007476D01*
X021699Y007059D01*
X021699Y007059D01*
X021699Y007476D01*
X021666Y007476D01*
X021601Y007466D01*
X021539Y007445D01*
X021480Y007416D01*
X021427Y007377D01*
X021380Y007330D01*
X021342Y007277D01*
X021312Y007219D01*
X021291Y007156D01*
X021281Y007091D01*
X021281Y007058D01*
X021281Y007025D01*
X021291Y006960D01*
X021312Y006898D01*
X021342Y006839D01*
X021380Y006786D01*
X021427Y006740D01*
X021480Y006701D01*
X021539Y006671D01*
X021601Y006651D01*
X021666Y006640D01*
X021699Y006640D01*
X021699Y006766D02*
X021699Y006766D01*
X021699Y006924D02*
X021699Y006924D01*
X021698Y007058D02*
X021281Y007058D01*
X021698Y007058D01*
X021698Y007058D01*
X021699Y007083D02*
X021699Y007083D01*
X021699Y007241D02*
X021699Y007241D01*
X021699Y007400D02*
X021699Y007400D01*
X021939Y007400D02*
X022394Y007400D01*
X022401Y007407D02*
X022350Y007356D01*
X022308Y007298D01*
X022275Y007234D01*
X022253Y007165D01*
X022242Y007094D01*
X022242Y007067D01*
X022690Y007067D01*
X022690Y007515D01*
X022663Y007515D01*
X022592Y007504D01*
X022523Y007482D01*
X022459Y007449D01*
X022401Y007407D01*
X022279Y007241D02*
X022074Y007241D01*
X022117Y007083D02*
X022242Y007083D01*
X022262Y006924D02*
X022095Y006924D01*
X021997Y006766D02*
X022346Y006766D01*
X022624Y006607D02*
X020774Y006607D01*
X020806Y006612D02*
X020874Y006635D01*
X020938Y006667D01*
X020997Y006710D01*
X021048Y006760D01*
X021090Y006819D01*
X021123Y006883D01*
X021145Y006951D01*
X021156Y007022D01*
X021156Y007050D01*
X020708Y007050D01*
X020708Y007067D01*
X021156Y007067D01*
X021156Y007094D01*
X021145Y007165D01*
X021123Y007234D01*
X021090Y007298D01*
X021048Y007356D01*
X020997Y007407D01*
X020938Y007449D01*
X020874Y007482D01*
X020806Y007504D01*
X020735Y007515D01*
X020707Y007515D01*
X020707Y007067D01*
X020690Y007067D01*
X020690Y007050D01*
X020242Y007050D01*
X020242Y007022D01*
X020253Y006951D01*
X020275Y006883D01*
X020308Y006819D01*
X020350Y006760D01*
X020401Y006710D01*
X020459Y006667D01*
X020523Y006635D01*
X020592Y006612D01*
X020663Y006601D01*
X020690Y006601D01*
X020690Y007049D01*
X020707Y007049D01*
X020707Y006601D01*
X020735Y006601D01*
X020806Y006612D01*
X020707Y006607D02*
X020690Y006607D01*
X020624Y006607D02*
X020303Y006607D01*
X020346Y006766D02*
X019997Y006766D01*
X020095Y006924D02*
X020262Y006924D01*
X020242Y007067D02*
X020690Y007067D01*
X020690Y007515D01*
X020663Y007515D01*
X020592Y007504D01*
X020523Y007482D01*
X020459Y007449D01*
X020401Y007407D01*
X020350Y007356D01*
X020308Y007298D01*
X020275Y007234D01*
X020253Y007165D01*
X020242Y007094D01*
X020242Y007067D01*
X020242Y007083D02*
X020117Y007083D01*
X020074Y007241D02*
X020279Y007241D01*
X020394Y007400D02*
X019939Y007400D01*
X019834Y007559D02*
X022805Y007559D01*
X022707Y007400D02*
X022690Y007400D01*
X022690Y007241D02*
X022707Y007241D01*
X022690Y007083D02*
X022707Y007083D01*
X022690Y006924D02*
X022707Y006924D01*
X022690Y006766D02*
X022707Y006766D01*
X022690Y006607D02*
X022707Y006607D01*
X022774Y006607D02*
X022869Y006607D01*
X023369Y006766D02*
X023400Y006766D01*
X023503Y006607D02*
X024624Y006607D01*
X024592Y006612D02*
X024663Y006601D01*
X024690Y006601D01*
X024690Y007049D01*
X024707Y007049D01*
X024707Y006601D01*
X024735Y006601D01*
X024806Y006612D01*
X024874Y006635D01*
X024938Y006667D01*
X024997Y006710D01*
X025048Y006760D01*
X025090Y006819D01*
X025123Y006883D01*
X025145Y006951D01*
X025156Y007022D01*
X025156Y007050D01*
X024708Y007050D01*
X024708Y007067D01*
X025156Y007067D01*
X025156Y007094D01*
X025145Y007165D01*
X025123Y007234D01*
X025090Y007298D01*
X025048Y007356D01*
X024997Y007407D01*
X024938Y007449D01*
X024874Y007482D01*
X024806Y007504D01*
X024735Y007515D01*
X024707Y007515D01*
X024707Y007067D01*
X024690Y007067D01*
X024690Y007050D01*
X024242Y007050D01*
X024242Y007022D01*
X024253Y006951D01*
X024275Y006883D01*
X024308Y006819D01*
X024350Y006760D01*
X024401Y006710D01*
X024459Y006667D01*
X024523Y006635D01*
X024592Y006612D01*
X024690Y006607D02*
X024707Y006607D01*
X024774Y006607D02*
X026624Y006607D01*
X026592Y006612D02*
X026663Y006601D01*
X026690Y006601D01*
X026690Y007049D01*
X026707Y007049D01*
X026707Y006601D01*
X026735Y006601D01*
X026806Y006612D01*
X026874Y006635D01*
X026938Y006667D01*
X026997Y006710D01*
X027048Y006760D01*
X027090Y006819D01*
X027123Y006883D01*
X027145Y006951D01*
X027156Y007022D01*
X027156Y007050D01*
X026708Y007050D01*
X026708Y007067D01*
X027156Y007067D01*
X027156Y007094D01*
X027145Y007165D01*
X027123Y007234D01*
X027090Y007298D01*
X027048Y007356D01*
X026997Y007407D01*
X026938Y007449D01*
X026874Y007482D01*
X026806Y007504D01*
X026735Y007515D01*
X026707Y007515D01*
X026707Y007067D01*
X026690Y007067D01*
X026690Y007050D01*
X026242Y007050D01*
X026242Y007022D01*
X026253Y006951D01*
X026275Y006883D01*
X026308Y006819D01*
X026350Y006760D01*
X026401Y006710D01*
X026459Y006667D01*
X026523Y006635D01*
X026592Y006612D01*
X026690Y006607D02*
X026707Y006607D01*
X026774Y006607D02*
X028624Y006607D01*
X028690Y006607D02*
X028707Y006607D01*
X028774Y006607D02*
X029089Y006607D01*
X029089Y006449D02*
X027900Y006449D01*
X027859Y006671D02*
X027918Y006701D01*
X027971Y006740D01*
X028018Y006786D01*
X028056Y006839D01*
X028086Y006898D01*
X028106Y006960D01*
X028117Y007025D01*
X028117Y007058D01*
X027699Y007058D01*
X027699Y006640D01*
X027732Y006640D01*
X027797Y006651D01*
X027859Y006671D01*
X027699Y006640D02*
X027699Y007058D01*
X027699Y007058D01*
X027699Y007058D01*
X028117Y007058D01*
X028117Y007091D01*
X028106Y007156D01*
X028086Y007219D01*
X028056Y007277D01*
X028018Y007330D01*
X027971Y007377D01*
X027918Y007416D01*
X027859Y007445D01*
X027797Y007466D01*
X027732Y007476D01*
X027699Y007476D01*
X027699Y007059D01*
X027699Y007059D01*
X027699Y007476D01*
X027666Y007476D01*
X027601Y007466D01*
X027539Y007445D01*
X027480Y007416D01*
X027427Y007377D01*
X027380Y007330D01*
X027342Y007277D01*
X027312Y007219D01*
X027291Y007156D01*
X027281Y007091D01*
X027281Y007058D01*
X027281Y007025D01*
X027291Y006960D01*
X027312Y006898D01*
X027342Y006839D01*
X027380Y006786D01*
X027427Y006740D01*
X027480Y006701D01*
X027539Y006671D01*
X027601Y006651D01*
X027666Y006640D01*
X027699Y006640D01*
X027699Y006766D02*
X027699Y006766D01*
X027699Y006924D02*
X027699Y006924D01*
X027698Y007058D02*
X027281Y007058D01*
X027698Y007058D01*
X027698Y007058D01*
X027699Y007083D02*
X027699Y007083D01*
X027699Y007241D02*
X027699Y007241D01*
X027699Y007400D02*
X027699Y007400D01*
X027939Y007400D02*
X028394Y007400D01*
X028401Y007407D02*
X028350Y007356D01*
X028308Y007298D01*
X028275Y007234D01*
X028253Y007165D01*
X028242Y007094D01*
X028242Y007067D01*
X028690Y007067D01*
X028690Y007515D01*
X028663Y007515D01*
X028592Y007504D01*
X028523Y007482D01*
X028459Y007449D01*
X028401Y007407D01*
X028279Y007241D02*
X028074Y007241D01*
X028117Y007083D02*
X028242Y007083D01*
X028262Y006924D02*
X028095Y006924D01*
X027997Y006766D02*
X028346Y006766D01*
X028690Y006766D02*
X028707Y006766D01*
X028690Y006924D02*
X028707Y006924D01*
X028690Y007083D02*
X028707Y007083D01*
X028690Y007241D02*
X028707Y007241D01*
X028690Y007400D02*
X028707Y007400D01*
X029004Y007400D02*
X029089Y007400D01*
X029089Y007559D02*
X023369Y007559D01*
X023369Y007400D02*
X023459Y007400D01*
X023699Y007400D02*
X023699Y007400D01*
X023699Y007241D02*
X023699Y007241D01*
X023699Y007083D02*
X023699Y007083D01*
X023699Y006924D02*
X023699Y006924D01*
X023699Y006766D02*
X023699Y006766D01*
X023997Y006766D02*
X024346Y006766D01*
X024262Y006924D02*
X024095Y006924D01*
X024117Y007083D02*
X024242Y007083D01*
X024242Y007094D02*
X024242Y007067D01*
X024690Y007067D01*
X024690Y007515D01*
X024663Y007515D01*
X024592Y007504D01*
X024523Y007482D01*
X024459Y007449D01*
X024401Y007407D01*
X024350Y007356D01*
X024308Y007298D01*
X024275Y007234D01*
X024253Y007165D01*
X024242Y007094D01*
X024279Y007241D02*
X024074Y007241D01*
X023939Y007400D02*
X024394Y007400D01*
X024690Y007400D02*
X024707Y007400D01*
X024690Y007241D02*
X024707Y007241D01*
X024690Y007083D02*
X024707Y007083D01*
X024690Y006924D02*
X024707Y006924D01*
X024690Y006766D02*
X024707Y006766D01*
X025051Y006766D02*
X025400Y006766D01*
X025380Y006786D02*
X025427Y006740D01*
X025480Y006701D01*
X025539Y006671D01*
X025601Y006651D01*
X025666Y006640D01*
X025699Y006640D01*
X025732Y006640D01*
X025797Y006651D01*
X025859Y006671D01*
X025918Y006701D01*
X025971Y006740D01*
X026018Y006786D01*
X026056Y006839D01*
X026086Y006898D01*
X026106Y006960D01*
X026117Y007025D01*
X026117Y007058D01*
X025699Y007058D01*
X025699Y006640D01*
X025699Y007058D01*
X025699Y007058D01*
X025699Y007058D01*
X026117Y007058D01*
X026117Y007091D01*
X026106Y007156D01*
X026086Y007219D01*
X026056Y007277D01*
X026018Y007330D01*
X025971Y007377D01*
X025918Y007416D01*
X025859Y007445D01*
X025797Y007466D01*
X025732Y007476D01*
X025699Y007476D01*
X025699Y007059D01*
X025699Y007059D01*
X025699Y007476D01*
X025666Y007476D01*
X025601Y007466D01*
X025539Y007445D01*
X025480Y007416D01*
X025427Y007377D01*
X025380Y007330D01*
X025342Y007277D01*
X025312Y007219D01*
X025291Y007156D01*
X025281Y007091D01*
X025281Y007058D01*
X025281Y007025D01*
X025291Y006960D01*
X025312Y006898D01*
X025342Y006839D01*
X025380Y006786D01*
X025303Y006924D02*
X025136Y006924D01*
X025156Y007083D02*
X025281Y007083D01*
X025281Y007058D02*
X025698Y007058D01*
X025281Y007058D01*
X025323Y007241D02*
X025119Y007241D01*
X025004Y007400D02*
X025459Y007400D01*
X025699Y007400D02*
X025699Y007400D01*
X025699Y007241D02*
X025699Y007241D01*
X025699Y007083D02*
X025699Y007083D01*
X025698Y007058D02*
X025698Y007058D01*
X025699Y006924D02*
X025699Y006924D01*
X025699Y006766D02*
X025699Y006766D01*
X025786Y006496D02*
X025612Y006496D01*
X025451Y006429D01*
X025328Y006306D01*
X025261Y006145D01*
X025261Y005971D01*
X025328Y005810D01*
X025451Y005687D01*
X025612Y005620D01*
X025783Y005620D01*
X026469Y004935D01*
X026469Y004479D01*
X026429Y004463D01*
X026294Y004329D01*
X026222Y004153D01*
X026222Y003963D01*
X026294Y003788D01*
X026429Y003654D01*
X026604Y003581D01*
X026794Y003581D01*
X026969Y003654D01*
X027103Y003788D01*
X027176Y003963D01*
X027176Y004153D01*
X027103Y004329D01*
X026969Y004463D01*
X026969Y004989D01*
X026969Y005088D01*
X026931Y005180D01*
X026137Y005974D01*
X026137Y006145D01*
X026070Y006306D01*
X025947Y006429D01*
X025786Y006496D01*
X025900Y006449D02*
X027498Y006449D01*
X027321Y006290D02*
X026077Y006290D01*
X026137Y006132D02*
X027261Y006132D01*
X027261Y005973D02*
X026138Y005973D01*
X026296Y005815D02*
X027326Y005815D01*
X027526Y005656D02*
X026455Y005656D01*
X026613Y005497D02*
X027906Y005497D01*
X028065Y005339D02*
X026772Y005339D01*
X026930Y005180D02*
X028223Y005180D01*
X028382Y005022D02*
X026969Y005022D01*
X026969Y004863D02*
X028469Y004863D01*
X028469Y004705D02*
X026969Y004705D01*
X026969Y004546D02*
X028469Y004546D01*
X028354Y004388D02*
X027044Y004388D01*
X026969Y004463D02*
X026969Y004463D01*
X027145Y004229D02*
X028253Y004229D01*
X028222Y004071D02*
X027176Y004071D01*
X027155Y003912D02*
X028243Y003912D01*
X028329Y003754D02*
X027069Y003754D01*
X026827Y003595D02*
X028570Y003595D01*
X028827Y003595D02*
X029089Y003595D01*
X029089Y003754D02*
X029069Y003754D01*
X029044Y004388D02*
X029089Y004388D01*
X028969Y004463D02*
X028969Y004463D01*
X028969Y004546D02*
X029089Y004546D01*
X029089Y004705D02*
X028969Y004705D01*
X028969Y004863D02*
X029089Y004863D01*
X029089Y005022D02*
X028969Y005022D01*
X028930Y005180D02*
X029089Y005180D01*
X029089Y005339D02*
X028772Y005339D01*
X028613Y005497D02*
X029089Y005497D01*
X029089Y005656D02*
X028455Y005656D01*
X028296Y005815D02*
X029089Y005815D01*
X029089Y005973D02*
X028138Y005973D01*
X028137Y006132D02*
X029089Y006132D01*
X029089Y006290D02*
X028077Y006290D01*
X027400Y006766D02*
X027051Y006766D01*
X027136Y006924D02*
X027303Y006924D01*
X027281Y007083D02*
X027156Y007083D01*
X027119Y007241D02*
X027323Y007241D01*
X027459Y007400D02*
X027004Y007400D01*
X026707Y007400D02*
X026690Y007400D01*
X026690Y007515D02*
X026690Y007067D01*
X026242Y007067D01*
X026242Y007094D01*
X026253Y007165D01*
X026275Y007234D01*
X026308Y007298D01*
X026350Y007356D01*
X026401Y007407D01*
X026459Y007449D01*
X026523Y007482D01*
X026592Y007504D01*
X026663Y007515D01*
X026690Y007515D01*
X026394Y007400D02*
X025939Y007400D01*
X026074Y007241D02*
X026279Y007241D01*
X026242Y007083D02*
X026117Y007083D01*
X026095Y006924D02*
X026262Y006924D01*
X026346Y006766D02*
X025997Y006766D01*
X025498Y006449D02*
X023900Y006449D01*
X024077Y006290D02*
X025321Y006290D01*
X025261Y006132D02*
X024137Y006132D01*
X024138Y005973D02*
X025261Y005973D01*
X025326Y005815D02*
X024296Y005815D01*
X024455Y005656D02*
X025526Y005656D01*
X025906Y005497D02*
X024613Y005497D01*
X024772Y005339D02*
X026065Y005339D01*
X026223Y005180D02*
X024930Y005180D01*
X024969Y005022D02*
X026382Y005022D01*
X026469Y004863D02*
X024969Y004863D01*
X024969Y004705D02*
X026469Y004705D01*
X026469Y004546D02*
X024969Y004546D01*
X024969Y004463D02*
X024969Y004463D01*
X025044Y004388D02*
X026354Y004388D01*
X026253Y004229D02*
X025145Y004229D01*
X025176Y004071D02*
X026222Y004071D01*
X026243Y003912D02*
X025155Y003912D01*
X025069Y003754D02*
X026329Y003754D01*
X026570Y003595D02*
X024827Y003595D01*
X024570Y003595D02*
X022827Y003595D01*
X023069Y003754D02*
X024329Y003754D01*
X024243Y003912D02*
X023155Y003912D01*
X023176Y004071D02*
X024222Y004071D01*
X024253Y004229D02*
X023145Y004229D01*
X023044Y004388D02*
X024354Y004388D01*
X024469Y004546D02*
X022969Y004546D01*
X022969Y004463D02*
X022969Y004463D01*
X022969Y004705D02*
X024469Y004705D01*
X024469Y004863D02*
X022969Y004863D01*
X022969Y005022D02*
X024382Y005022D01*
X024223Y005180D02*
X022930Y005180D01*
X022772Y005339D02*
X024065Y005339D01*
X023906Y005497D02*
X022613Y005497D01*
X022455Y005656D02*
X023526Y005656D01*
X023326Y005815D02*
X022296Y005815D01*
X021498Y006449D02*
X020462Y006449D01*
X020615Y006290D02*
X021321Y006290D01*
X021400Y006766D02*
X021051Y006766D01*
X021136Y006924D02*
X021303Y006924D01*
X021281Y007083D02*
X021156Y007083D01*
X021119Y007241D02*
X021323Y007241D01*
X021459Y007400D02*
X021004Y007400D01*
X020707Y007400D02*
X020690Y007400D01*
X020690Y007241D02*
X020707Y007241D01*
X020690Y007083D02*
X020707Y007083D01*
X020690Y006924D02*
X020707Y006924D01*
X020690Y006766D02*
X020707Y006766D01*
X020149Y005973D02*
X020137Y005973D01*
X020072Y005815D02*
X020229Y005815D01*
X019261Y005973D02*
X018699Y005973D01*
X018699Y006132D02*
X019261Y006132D01*
X019142Y005815D02*
X018639Y005815D01*
X018504Y005656D02*
X018997Y005656D01*
X018793Y006290D02*
X018644Y006290D01*
X018709Y006449D02*
X018515Y006449D01*
X018417Y006607D02*
X018709Y006607D01*
X018709Y006766D02*
X018614Y006766D01*
X018685Y006924D02*
X018709Y006924D01*
X018699Y007083D02*
X018709Y007083D01*
X018709Y007241D02*
X018664Y007241D01*
X018709Y007400D02*
X018564Y007400D01*
X019209Y007383D02*
X019232Y007359D01*
X019362Y007305D01*
X019342Y007277D01*
X019312Y007219D01*
X019291Y007156D01*
X019281Y007091D01*
X019281Y007058D01*
X019281Y007025D01*
X019291Y006960D01*
X019312Y006898D01*
X019342Y006839D01*
X019380Y006786D01*
X019427Y006740D01*
X019442Y006728D01*
X019209Y006728D01*
X019209Y007383D01*
X019209Y007241D02*
X019323Y007241D01*
X019281Y007083D02*
X019209Y007083D01*
X019281Y007058D02*
X019698Y007058D01*
X019281Y007058D01*
X019303Y006924D02*
X019209Y006924D01*
X019209Y006766D02*
X019400Y006766D01*
X019698Y007058D02*
X019698Y007058D01*
X019859Y007717D02*
X022647Y007717D01*
X022488Y007876D02*
X019818Y007876D01*
X019709Y008034D02*
X022329Y008034D01*
X022171Y008193D02*
X019709Y008193D01*
X019709Y008351D02*
X022012Y008351D01*
X021854Y008510D02*
X019709Y008510D01*
X019709Y008668D02*
X021695Y008668D01*
X021537Y008827D02*
X019709Y008827D01*
X019709Y008985D02*
X021166Y008985D01*
X021839Y009303D02*
X029089Y009303D01*
X029089Y009461D02*
X021796Y009461D01*
X021927Y009144D02*
X029089Y009144D01*
X029089Y008985D02*
X022085Y008985D01*
X022244Y008827D02*
X029089Y008827D01*
X029089Y008668D02*
X022402Y008668D01*
X022561Y008510D02*
X029089Y008510D01*
X029089Y008351D02*
X022719Y008351D01*
X022878Y008193D02*
X029089Y008193D01*
X029089Y008034D02*
X023036Y008034D01*
X023195Y007876D02*
X029089Y007876D01*
X029089Y007717D02*
X023340Y007717D01*
X026690Y007241D02*
X026707Y007241D01*
X026690Y007083D02*
X026707Y007083D01*
X026690Y006924D02*
X026707Y006924D01*
X026690Y006766D02*
X026707Y006766D01*
X029051Y006766D02*
X029089Y006766D01*
X029089Y001241D02*
X029089Y001038D01*
X028982Y001134D02*
X029089Y001241D01*
X029089Y001217D02*
X029064Y001217D01*
X028982Y001134D02*
X028798Y001058D01*
X019209Y008034D02*
X019209Y008034D01*
X019209Y008193D02*
X019209Y008193D01*
X019209Y008351D02*
X019209Y008351D01*
X019209Y008510D02*
X019209Y008510D01*
X019209Y008668D02*
X019209Y008668D01*
X019209Y008827D02*
X019209Y008827D01*
X019209Y008985D02*
X019209Y008985D01*
X019209Y009144D02*
X019209Y009144D01*
X019209Y009303D02*
X019209Y009303D01*
X019209Y009461D02*
X019209Y009461D01*
X019209Y009620D02*
X019187Y009620D01*
X019209Y009778D02*
X019052Y009778D01*
X019209Y009937D02*
X018894Y009937D01*
X018735Y010095D02*
X019209Y010095D01*
X019209Y010254D02*
X018659Y010254D01*
X018552Y010412D02*
X019209Y010412D01*
X017846Y010412D02*
X017552Y010412D01*
X017659Y010254D02*
X017739Y010254D01*
X017699Y010095D02*
X017699Y010095D01*
X017690Y009937D02*
X017708Y009937D01*
X017774Y009778D02*
X017624Y009778D01*
X016834Y007400D02*
X016509Y007400D01*
X016509Y007241D02*
X016734Y007241D01*
X016699Y007083D02*
X016509Y007083D01*
X016509Y006924D02*
X016713Y006924D01*
X016784Y006766D02*
X016509Y006766D01*
X016509Y006607D02*
X016981Y006607D01*
X016882Y006449D02*
X016509Y006449D01*
X016509Y006290D02*
X016754Y006290D01*
X016699Y006132D02*
X016509Y006132D01*
X016509Y005973D02*
X016699Y005973D01*
X016759Y005815D02*
X016509Y005815D01*
X019709Y013583D02*
X028630Y013583D01*
X028679Y013583D02*
X028719Y013583D01*
X028768Y013583D02*
X029089Y013583D01*
X029089Y013425D02*
X029040Y013425D01*
X029061Y013742D02*
X029089Y013742D01*
X028719Y013742D02*
X028679Y013742D01*
X028679Y013900D02*
X028719Y013900D01*
X029089Y015375D02*
X028982Y015482D01*
X028798Y015558D01*
X028599Y015558D01*
X028798Y015558D01*
X028982Y015634D01*
X029089Y015741D01*
X029089Y015375D01*
X029089Y015486D02*
X028973Y015486D01*
X028992Y015644D02*
X029089Y015644D01*
X027539Y020083D02*
X026859Y020083D01*
X027090Y020242D02*
X027308Y020242D01*
X027223Y020401D02*
X027175Y020401D01*
X027199Y020559D02*
X027199Y020559D01*
X027174Y020718D02*
X027224Y020718D01*
X027310Y020876D02*
X027088Y020876D01*
X026310Y020876D02*
X026088Y020876D01*
X026174Y020718D02*
X026224Y020718D01*
X026199Y020559D02*
X026199Y020559D01*
X026175Y020401D02*
X026223Y020401D01*
X026308Y020242D02*
X026090Y020242D01*
X025859Y020083D02*
X026539Y020083D01*
X025539Y020083D02*
X024859Y020083D01*
X025090Y020242D02*
X025308Y020242D01*
X025223Y020401D02*
X025175Y020401D01*
X025199Y020559D02*
X025199Y020559D01*
X025174Y020718D02*
X025224Y020718D01*
X025310Y020876D02*
X025088Y020876D01*
X024310Y020876D02*
X024088Y020876D01*
X024174Y020718D02*
X024224Y020718D01*
X024199Y020559D02*
X024199Y020559D01*
X024175Y020401D02*
X024223Y020401D01*
X024308Y020242D02*
X024090Y020242D01*
X023859Y020083D02*
X024539Y020083D01*
X023539Y020083D02*
X022859Y020083D01*
X023090Y020242D02*
X023308Y020242D01*
X023223Y020401D02*
X023175Y020401D01*
X023199Y020559D02*
X023199Y020559D01*
X023174Y020718D02*
X023224Y020718D01*
X023310Y020876D02*
X023088Y020876D01*
X022310Y020876D02*
X022088Y020876D01*
X022174Y020718D02*
X022224Y020718D01*
X022199Y020559D02*
X022199Y020559D01*
X022175Y020401D02*
X022223Y020401D01*
X022308Y020242D02*
X022090Y020242D01*
X021859Y020083D02*
X022539Y020083D01*
X019331Y020083D02*
X019259Y020083D01*
X016009Y019925D02*
X003179Y019925D01*
X003179Y020083D02*
X012939Y020083D01*
X012999Y020058D02*
X012816Y020134D01*
X012675Y020275D01*
X012599Y020459D01*
X012599Y020658D01*
X012675Y020841D01*
X012816Y020982D01*
X012999Y021058D01*
X013198Y021058D01*
X013382Y020982D01*
X013523Y020841D01*
X013599Y020658D01*
X013599Y020459D01*
X013675Y020275D01*
X013816Y020134D01*
X013999Y020058D01*
X014198Y020058D01*
X014382Y020134D01*
X014523Y020275D01*
X014599Y020459D01*
X014675Y020275D01*
X014816Y020134D01*
X014999Y020058D01*
X015198Y020058D01*
X015382Y020134D01*
X015523Y020275D01*
X015599Y020459D01*
X015599Y020658D01*
X015523Y020841D01*
X015382Y020982D01*
X015198Y021058D01*
X014999Y021058D01*
X014816Y020982D01*
X014675Y020841D01*
X014599Y020658D01*
X014599Y020459D01*
X014599Y020658D01*
X014523Y020841D01*
X014382Y020982D01*
X014198Y021058D01*
X013999Y021058D01*
X013816Y020982D01*
X013675Y020841D01*
X013599Y020658D01*
X013599Y020459D01*
X013523Y020275D01*
X013382Y020134D01*
X013198Y020058D01*
X012999Y020058D01*
X013259Y020083D02*
X013939Y020083D01*
X013708Y020242D02*
X013490Y020242D01*
X013575Y020401D02*
X013623Y020401D01*
X013599Y020559D02*
X013599Y020559D01*
X013574Y020718D02*
X013624Y020718D01*
X013710Y020876D02*
X013488Y020876D01*
X013255Y021035D02*
X013943Y021035D01*
X014255Y021035D02*
X014943Y021035D01*
X014710Y020876D02*
X014488Y020876D01*
X014574Y020718D02*
X014624Y020718D01*
X014599Y020559D02*
X014599Y020559D01*
X014575Y020401D02*
X014623Y020401D01*
X014708Y020242D02*
X014490Y020242D01*
X014259Y020083D02*
X014939Y020083D01*
X015259Y020083D02*
X015939Y020083D01*
X015708Y020242D02*
X015490Y020242D01*
X015575Y020401D02*
X015623Y020401D01*
X015599Y020559D02*
X015599Y020559D01*
X015574Y020718D02*
X015624Y020718D01*
X015710Y020876D02*
X015488Y020876D01*
X015255Y021035D02*
X015943Y021035D01*
X016009Y019766D02*
X003179Y019766D01*
X003179Y019608D02*
X016009Y019608D01*
X016009Y019449D02*
X003179Y019449D01*
X003179Y019291D02*
X016009Y019291D01*
X012943Y021035D02*
X003179Y021035D01*
X003179Y020876D02*
X012710Y020876D01*
X012624Y020718D02*
X003179Y020718D01*
X003179Y020559D02*
X012599Y020559D01*
X012623Y020401D02*
X003179Y020401D01*
X003179Y020242D02*
X012708Y020242D01*
X005667Y017071D02*
X004577Y017071D01*
X004734Y016913D02*
X005539Y016913D01*
X005473Y016754D02*
X004800Y016754D01*
X004829Y016596D02*
X005451Y016596D01*
X005451Y016437D02*
X004829Y016437D01*
X004765Y016278D02*
X005508Y016278D01*
X005593Y016120D02*
X004651Y016120D01*
X004404Y015961D02*
X005664Y015961D01*
X003791Y019132D02*
X003622Y019132D01*
M02*
