G75*
G70*
%OFA0B0*%
%FSLAX24Y24*%
%IPPOS*%
%LPD*%
%AMOC8*
5,1,8,0,0,1.08239X$1,22.5*
%
%ADD10OC8,0.0600*%
%ADD11C,0.2000*%
%ADD12C,0.0600*%
%ADD13C,0.0476*%
%ADD14C,0.0554*%
%ADD15C,0.0860*%
%ADD16C,0.0100*%
%ADD17C,0.0400*%
%ADD18C,0.0160*%
D10*
X006699Y005438D03*
X007699Y004898D03*
X007699Y005978D03*
X006699Y006518D03*
X007699Y007058D03*
X006699Y007598D03*
X007699Y008138D03*
X006699Y008678D03*
X007699Y009218D03*
D11*
X007199Y011988D03*
X007199Y002128D03*
D12*
X014699Y003558D03*
X015699Y003558D03*
X016699Y003558D03*
X016699Y001558D03*
X017699Y001558D03*
X018699Y001558D03*
X019699Y001558D03*
X020699Y001558D03*
X021699Y001558D03*
X023699Y001558D03*
X024699Y001558D03*
X025699Y001558D03*
X026699Y001558D03*
X027699Y001558D03*
X028699Y001558D03*
X019199Y004558D03*
X018199Y006058D03*
X017199Y006058D03*
X017199Y007058D03*
X018199Y007058D03*
X018199Y008058D03*
X017199Y008058D03*
X017199Y009058D03*
X018199Y009058D03*
X018199Y010058D03*
X017199Y010058D03*
X028699Y013058D03*
X028699Y014058D03*
X028699Y015058D03*
X028699Y016058D03*
X028699Y017058D03*
X028699Y018058D03*
X028699Y020558D03*
X027699Y020558D03*
X026699Y020558D03*
X025699Y020558D03*
X024699Y020558D03*
X023699Y020558D03*
X022699Y020558D03*
X021699Y020558D03*
X020099Y020558D03*
X019099Y020558D03*
X018099Y020558D03*
X017099Y020558D03*
X016099Y020558D03*
X015099Y020558D03*
X014099Y020558D03*
X013099Y020558D03*
D13*
X019699Y007058D03*
X019699Y006058D03*
X021699Y006058D03*
X021699Y007058D03*
X023699Y007058D03*
X023699Y006058D03*
X025699Y006058D03*
X025699Y007058D03*
X027699Y007058D03*
X027699Y006058D03*
D14*
X028699Y007058D03*
X026699Y007058D03*
X024699Y007058D03*
X022699Y007058D03*
X020699Y007058D03*
X020699Y004058D03*
X022699Y004058D03*
X024699Y004058D03*
X026699Y004058D03*
X028699Y004058D03*
D15*
X006167Y014590D03*
X006167Y015574D03*
X004199Y016558D03*
X006167Y017543D03*
X006167Y018527D03*
D16*
X006179Y018578D01*
X007139Y018578D01*
X007139Y015618D01*
X006179Y014658D01*
X006167Y014590D01*
X007139Y018578D02*
X014179Y018578D01*
X016099Y020498D01*
X016099Y020558D01*
X017099Y020558D02*
X017139Y020498D01*
X017139Y010738D01*
X009219Y010738D01*
X007699Y009218D01*
X008019Y008498D02*
X017619Y008498D01*
X018179Y009058D01*
X018199Y009058D01*
X018239Y009118D01*
X018319Y009118D01*
X018479Y009278D01*
X018879Y009278D01*
X021439Y009278D01*
X022099Y008558D02*
X022099Y017538D01*
X019139Y020498D01*
X019099Y020558D01*
X018879Y019838D02*
X018159Y020558D01*
X018099Y020558D01*
X018879Y019838D02*
X018879Y009278D01*
X018199Y010058D02*
X018179Y010098D01*
X017539Y010738D01*
X017139Y010738D01*
X018719Y008558D02*
X018239Y008078D01*
X018199Y008058D01*
X018179Y008018D01*
X018099Y007938D01*
X017699Y007938D01*
X017379Y007618D01*
X008259Y007618D01*
X007699Y007058D01*
X007699Y008138D02*
X007699Y008178D01*
X008019Y008498D01*
X007699Y005978D02*
X007699Y005938D01*
X008259Y005378D01*
X018499Y005378D01*
X018899Y005778D01*
X019299Y005378D01*
X027059Y005378D01*
X027699Y006018D01*
X027699Y006058D01*
X025699Y006058D02*
X025119Y006638D01*
X025119Y008558D01*
X022099Y008558D01*
X018719Y008558D01*
X019459Y007698D02*
X018899Y007138D01*
X018899Y006898D01*
X018499Y006898D01*
X018339Y007058D01*
X018199Y007058D01*
X018899Y006898D02*
X018899Y005778D01*
X019199Y004558D02*
X020159Y004558D01*
X020639Y004078D01*
X020699Y004058D01*
X018699Y001558D02*
X018639Y001598D01*
X016719Y003518D01*
X016699Y003558D01*
X028699Y017058D02*
X027839Y017918D01*
X027839Y020558D01*
X027699Y020558D01*
D17*
X021439Y009278D03*
X019459Y007698D03*
D18*
X003179Y013874D02*
X003179Y001038D01*
X006785Y001038D01*
X006751Y001047D01*
X006487Y001200D01*
X006271Y001416D01*
X006118Y001681D01*
X006039Y001976D01*
X006039Y002281D01*
X006118Y002576D01*
X006271Y002841D01*
X006487Y003056D01*
X006751Y003209D01*
X007046Y003288D01*
X007352Y003288D01*
X007647Y003209D01*
X007911Y003056D01*
X008127Y002841D01*
X008280Y002576D01*
X008359Y002281D01*
X008359Y001976D01*
X008280Y001681D01*
X008127Y001416D01*
X007911Y001200D01*
X007647Y001047D01*
X007613Y001038D01*
X029089Y001038D01*
X029089Y001298D01*
X029089Y001298D01*
X028959Y001168D01*
X028790Y001098D01*
X028607Y001098D01*
X028438Y001168D01*
X028309Y001298D01*
X028239Y001467D01*
X028239Y001650D01*
X028309Y001819D01*
X028438Y001948D01*
X028607Y002018D01*
X028790Y002018D01*
X028959Y001948D01*
X029089Y001819D01*
X029089Y001818D01*
X029089Y003858D01*
X029069Y003811D01*
X028946Y003688D01*
X028786Y003621D01*
X028612Y003621D01*
X028451Y003688D01*
X028328Y003811D01*
X028262Y003971D01*
X028262Y004145D01*
X028328Y004306D01*
X028451Y004429D01*
X028612Y004495D01*
X028786Y004495D01*
X028946Y004429D01*
X029069Y004306D01*
X029089Y004259D01*
X029089Y006858D01*
X029069Y006811D01*
X028946Y006688D01*
X028786Y006621D01*
X028612Y006621D01*
X028451Y006688D01*
X028328Y006811D01*
X028262Y006971D01*
X028262Y007145D01*
X028328Y007306D01*
X028451Y007429D01*
X028612Y007495D01*
X028786Y007495D01*
X028946Y007429D01*
X029069Y007306D01*
X029089Y007259D01*
X029089Y012798D01*
X029089Y012798D01*
X028959Y012668D01*
X028790Y012598D01*
X028607Y012598D01*
X028438Y012668D01*
X028309Y012798D01*
X028239Y012967D01*
X028239Y013150D01*
X028309Y013319D01*
X028438Y013448D01*
X028607Y013518D01*
X028790Y013518D01*
X028959Y013448D01*
X029089Y013319D01*
X029089Y013318D01*
X029089Y013798D01*
X029089Y013798D01*
X028959Y013668D01*
X028790Y013598D01*
X028607Y013598D01*
X028438Y013668D01*
X028309Y013798D01*
X028239Y013967D01*
X028239Y014150D01*
X028309Y014319D01*
X028438Y014448D01*
X028607Y014518D01*
X028790Y014518D01*
X028959Y014448D01*
X029089Y014319D01*
X029089Y014318D01*
X029089Y014779D01*
X029065Y014746D01*
X029012Y014692D01*
X028950Y014648D01*
X028883Y014613D01*
X028811Y014590D01*
X028737Y014578D01*
X028719Y014578D01*
X028719Y015038D01*
X028679Y015038D01*
X028679Y014578D01*
X028661Y014578D01*
X028586Y014590D01*
X028515Y014613D01*
X028447Y014648D01*
X028386Y014692D01*
X028333Y014746D01*
X028288Y014807D01*
X028254Y014874D01*
X028231Y014946D01*
X028219Y015020D01*
X028219Y015038D01*
X028679Y015038D01*
X028679Y015078D01*
X028219Y015078D01*
X028219Y015096D01*
X028231Y015171D01*
X028254Y015243D01*
X028288Y015310D01*
X028333Y015371D01*
X028386Y015424D01*
X028447Y015469D01*
X028515Y015503D01*
X028586Y015526D01*
X028661Y015538D01*
X028679Y015538D01*
X028679Y015079D01*
X028719Y015079D01*
X028719Y015538D01*
X028737Y015538D01*
X028811Y015526D01*
X028883Y015503D01*
X028950Y015469D01*
X029012Y015424D01*
X029065Y015371D01*
X029089Y015338D01*
X029089Y015798D01*
X029089Y015798D01*
X028959Y015668D01*
X028790Y015598D01*
X028607Y015598D01*
X028438Y015668D01*
X028309Y015798D01*
X028239Y015967D01*
X028239Y016150D01*
X028309Y016319D01*
X028438Y016448D01*
X028607Y016518D01*
X028790Y016518D01*
X028959Y016448D01*
X029089Y016319D01*
X029089Y016318D01*
X029089Y016798D01*
X029089Y016798D01*
X028959Y016668D01*
X028790Y016598D01*
X028607Y016598D01*
X028438Y016668D01*
X028309Y016798D01*
X028239Y016967D01*
X028239Y017150D01*
X028260Y017200D01*
X027629Y017831D01*
X027629Y018005D01*
X027629Y020098D01*
X027607Y020098D01*
X027438Y020168D01*
X027309Y020298D01*
X027239Y020467D01*
X027239Y020650D01*
X027309Y020819D01*
X027438Y020948D01*
X027607Y021018D01*
X027790Y021018D01*
X027959Y020948D01*
X028089Y020819D01*
X028159Y020650D01*
X028159Y020467D01*
X028089Y020298D01*
X028049Y020258D01*
X028049Y018005D01*
X028557Y017497D01*
X028607Y017518D01*
X028790Y017518D01*
X028959Y017448D01*
X029089Y017319D01*
X029089Y017318D01*
X029089Y017798D01*
X029089Y017798D01*
X028959Y017668D01*
X028790Y017598D01*
X028607Y017598D01*
X028438Y017668D01*
X028309Y017798D01*
X028239Y017967D01*
X028239Y018150D01*
X028309Y018319D01*
X028438Y018448D01*
X028607Y018518D01*
X028790Y018518D01*
X028959Y018448D01*
X029089Y018319D01*
X029089Y018318D01*
X029089Y020298D01*
X029089Y020298D01*
X028959Y020168D01*
X028790Y020098D01*
X028607Y020098D01*
X028438Y020168D01*
X028309Y020298D01*
X028239Y020467D01*
X028239Y020650D01*
X028309Y020819D01*
X028438Y020948D01*
X028607Y021018D01*
X028790Y021018D01*
X028959Y020948D01*
X029089Y020819D01*
X029089Y020818D01*
X029089Y021074D01*
X003179Y021074D01*
X003179Y019243D01*
X003357Y019243D01*
X003620Y019134D01*
X003707Y019047D01*
X003793Y019134D01*
X004056Y019243D01*
X004341Y019243D01*
X004605Y019134D01*
X004806Y018932D01*
X004915Y018669D01*
X004915Y018384D01*
X004806Y018121D01*
X004605Y017920D01*
X004341Y017811D01*
X004056Y017811D01*
X003793Y017920D01*
X003707Y018006D01*
X003620Y017920D01*
X003357Y017811D01*
X003179Y017811D01*
X003179Y015306D01*
X003357Y015306D01*
X003620Y015197D01*
X003707Y015110D01*
X003793Y015197D01*
X004056Y015306D01*
X004341Y015306D01*
X004605Y015197D01*
X004806Y014995D01*
X004915Y014732D01*
X004915Y014447D01*
X004806Y014184D01*
X004605Y013983D01*
X004341Y013874D01*
X004056Y013874D01*
X003793Y013983D01*
X003707Y014069D01*
X003620Y013983D01*
X003357Y013874D01*
X003179Y013874D01*
X003179Y013742D02*
X016929Y013742D01*
X016929Y013900D02*
X004406Y013900D01*
X004681Y014059D02*
X005907Y014059D01*
X005833Y014090D02*
X006050Y014000D01*
X006285Y014000D01*
X006502Y014090D01*
X006668Y014256D01*
X006757Y014472D01*
X006757Y014707D01*
X006689Y014872D01*
X007226Y015408D01*
X007349Y015531D01*
X007349Y018368D01*
X014266Y018368D01*
X014389Y018491D01*
X015999Y020102D01*
X016007Y020098D01*
X016190Y020098D01*
X016359Y020168D01*
X016489Y020298D01*
X016559Y020467D01*
X016559Y020650D01*
X016489Y020819D01*
X016359Y020948D01*
X016190Y021018D01*
X016007Y021018D01*
X015838Y020948D01*
X015709Y020819D01*
X015639Y020650D01*
X015639Y020467D01*
X015677Y020374D01*
X014092Y018788D01*
X007226Y018788D01*
X007052Y018788D01*
X006698Y018788D01*
X006668Y018861D01*
X006502Y019027D01*
X006285Y019117D01*
X006050Y019117D01*
X005833Y019027D01*
X005667Y018861D01*
X005577Y018644D01*
X005577Y018409D01*
X005667Y018193D01*
X005825Y018035D01*
X005667Y017877D01*
X005577Y017660D01*
X005577Y017425D01*
X005667Y017208D01*
X005736Y017140D01*
X005560Y016964D01*
X005451Y016701D01*
X005451Y016416D01*
X005560Y016153D01*
X005736Y015977D01*
X005667Y015908D01*
X005577Y015691D01*
X005577Y015457D01*
X005667Y015240D01*
X005825Y015082D01*
X005667Y014924D01*
X005577Y014707D01*
X005577Y014472D01*
X005667Y014256D01*
X005833Y014090D01*
X005705Y014217D02*
X004820Y014217D01*
X004886Y014376D02*
X005617Y014376D01*
X005577Y014534D02*
X004915Y014534D01*
X004915Y014693D02*
X005577Y014693D01*
X005637Y014852D02*
X004866Y014852D01*
X004791Y015010D02*
X005753Y015010D01*
X005738Y015169D02*
X004633Y015169D01*
X003765Y015169D02*
X003649Y015169D01*
X003179Y015327D02*
X005631Y015327D01*
X005577Y015486D02*
X003179Y015486D01*
X003179Y015644D02*
X005577Y015644D01*
X005624Y015803D02*
X003179Y015803D01*
X003179Y015961D02*
X004068Y015961D01*
X004056Y015963D02*
X004151Y015948D01*
X004151Y016510D01*
X004247Y016510D01*
X004247Y015948D01*
X004342Y015963D01*
X004433Y015993D01*
X004519Y016037D01*
X004596Y016093D01*
X004664Y016161D01*
X004721Y016239D01*
X004764Y016324D01*
X004794Y016415D01*
X004809Y016510D01*
X004247Y016510D01*
X004247Y016606D01*
X004809Y016606D01*
X004794Y016701D01*
X004764Y016792D01*
X004721Y016878D01*
X004664Y016956D01*
X004596Y017024D01*
X004519Y017080D01*
X004433Y017124D01*
X004342Y017153D01*
X004247Y017168D01*
X004247Y016606D01*
X004151Y016606D01*
X004151Y016510D01*
X003589Y016510D01*
X003604Y016415D01*
X003634Y016324D01*
X003677Y016239D01*
X003734Y016161D01*
X003801Y016093D01*
X003879Y016037D01*
X003965Y015993D01*
X004056Y015963D01*
X004151Y015961D02*
X004247Y015961D01*
X004330Y015961D02*
X005720Y015961D01*
X005593Y016120D02*
X004623Y016120D01*
X004741Y016278D02*
X005508Y016278D01*
X005451Y016437D02*
X004797Y016437D01*
X004777Y016754D02*
X005473Y016754D01*
X005451Y016596D02*
X004247Y016596D01*
X004151Y016596D02*
X003179Y016596D01*
X003179Y016754D02*
X003621Y016754D01*
X003634Y016792D02*
X003604Y016701D01*
X003589Y016606D01*
X004151Y016606D01*
X004151Y017168D01*
X004056Y017153D01*
X003965Y017124D01*
X003879Y017080D01*
X003801Y017024D01*
X003734Y016956D01*
X003677Y016878D01*
X003634Y016792D01*
X003702Y016913D02*
X003179Y016913D01*
X003179Y017071D02*
X003867Y017071D01*
X004151Y017071D02*
X004247Y017071D01*
X004247Y016913D02*
X004151Y016913D01*
X004151Y016754D02*
X004247Y016754D01*
X004247Y016437D02*
X004151Y016437D01*
X004151Y016278D02*
X004247Y016278D01*
X004247Y016120D02*
X004151Y016120D01*
X003775Y016120D02*
X003179Y016120D01*
X003179Y016278D02*
X003657Y016278D01*
X003600Y016437D02*
X003179Y016437D01*
X003179Y017230D02*
X005658Y017230D01*
X005667Y017071D02*
X004531Y017071D01*
X004695Y016913D02*
X005539Y016913D01*
X005593Y017388D02*
X003179Y017388D01*
X003179Y017547D02*
X005577Y017547D01*
X005596Y017705D02*
X003179Y017705D01*
X003486Y017864D02*
X003928Y017864D01*
X004470Y017864D02*
X005662Y017864D01*
X005813Y018022D02*
X004707Y018022D01*
X004831Y018181D02*
X005679Y018181D01*
X005606Y018339D02*
X004896Y018339D01*
X004915Y018498D02*
X005577Y018498D01*
X005583Y018657D02*
X004915Y018657D01*
X004855Y018815D02*
X005648Y018815D01*
X005780Y018974D02*
X004765Y018974D01*
X004606Y019132D02*
X014436Y019132D01*
X014277Y018974D02*
X006555Y018974D01*
X006687Y018815D02*
X014119Y018815D01*
X014554Y018657D02*
X016929Y018657D01*
X016929Y018815D02*
X014713Y018815D01*
X014871Y018974D02*
X016929Y018974D01*
X016929Y019132D02*
X015030Y019132D01*
X015188Y019291D02*
X016929Y019291D01*
X016929Y019449D02*
X015347Y019449D01*
X015505Y019608D02*
X016929Y019608D01*
X016929Y019766D02*
X015664Y019766D01*
X015822Y019925D02*
X016929Y019925D01*
X016929Y020083D02*
X015981Y020083D01*
X015666Y020401D02*
X015531Y020401D01*
X015559Y020467D02*
X015489Y020298D01*
X015359Y020168D01*
X015190Y020098D01*
X015007Y020098D01*
X014838Y020168D01*
X014709Y020298D01*
X014639Y020467D01*
X014639Y020650D01*
X014709Y020819D01*
X014838Y020948D01*
X015007Y021018D01*
X015190Y021018D01*
X015359Y020948D01*
X015489Y020819D01*
X015559Y020650D01*
X015559Y020467D01*
X015559Y020559D02*
X015639Y020559D01*
X015667Y020718D02*
X015531Y020718D01*
X015431Y020876D02*
X015766Y020876D01*
X016431Y020876D02*
X016766Y020876D01*
X016709Y020819D02*
X016838Y020948D01*
X017007Y021018D01*
X017190Y021018D01*
X017359Y020948D01*
X017489Y020819D01*
X017559Y020650D01*
X017559Y020467D01*
X017489Y020298D01*
X017359Y020168D01*
X017349Y020164D01*
X017349Y010948D01*
X017452Y010948D01*
X017626Y010948D01*
X018071Y010503D01*
X018107Y010518D01*
X018290Y010518D01*
X018459Y010448D01*
X018589Y010319D01*
X018659Y010150D01*
X018659Y009967D01*
X018589Y009798D01*
X018459Y009668D01*
X018290Y009598D01*
X018107Y009598D01*
X017938Y009668D01*
X017809Y009798D01*
X017739Y009967D01*
X017739Y010150D01*
X017766Y010214D01*
X017452Y010528D01*
X017226Y010528D01*
X017052Y010528D01*
X009306Y010528D01*
X008159Y009381D01*
X008159Y009028D01*
X007889Y008758D01*
X007508Y008758D01*
X007239Y009028D01*
X007239Y009409D01*
X007508Y009678D01*
X007862Y009678D01*
X009009Y010825D01*
X009132Y010948D01*
X016929Y010948D01*
X016929Y020131D01*
X016838Y020168D01*
X016709Y020298D01*
X016639Y020467D01*
X016639Y020650D01*
X016709Y020819D01*
X016667Y020718D02*
X016531Y020718D01*
X016559Y020559D02*
X016639Y020559D01*
X016666Y020401D02*
X016531Y020401D01*
X016433Y020242D02*
X016765Y020242D01*
X017349Y020083D02*
X018337Y020083D01*
X018283Y020137D02*
X018669Y019751D01*
X018669Y009488D01*
X018566Y009488D01*
X018392Y009488D01*
X018383Y009480D01*
X018290Y009518D01*
X018107Y009518D01*
X017938Y009448D01*
X017809Y009319D01*
X017739Y009150D01*
X017739Y008967D01*
X017754Y008930D01*
X017532Y008708D01*
X017499Y008708D01*
X017589Y008798D01*
X017659Y008967D01*
X017659Y009150D01*
X017589Y009319D01*
X017459Y009448D01*
X017290Y009518D01*
X017107Y009518D01*
X016938Y009448D01*
X016809Y009319D01*
X016739Y009150D01*
X016739Y008967D01*
X016809Y008798D01*
X016898Y008708D01*
X007932Y008708D01*
X007822Y008598D01*
X007508Y008598D01*
X007239Y008329D01*
X007239Y007948D01*
X007508Y007678D01*
X007889Y007678D01*
X008159Y007948D01*
X008159Y008288D01*
X016796Y008288D01*
X016739Y008150D01*
X016739Y007967D01*
X016796Y007828D01*
X008172Y007828D01*
X008049Y007705D01*
X007862Y007518D01*
X007508Y007518D01*
X007239Y007249D01*
X007239Y006868D01*
X007508Y006598D01*
X007889Y006598D01*
X008159Y006868D01*
X008159Y007221D01*
X008346Y007408D01*
X016870Y007408D01*
X016833Y007371D01*
X016788Y007310D01*
X016754Y007243D01*
X016731Y007171D01*
X016719Y007096D01*
X016719Y007078D01*
X017179Y007078D01*
X017179Y007038D01*
X017219Y007038D01*
X017219Y006578D01*
X017237Y006578D01*
X017311Y006590D01*
X017383Y006613D01*
X017450Y006648D01*
X017512Y006692D01*
X017565Y006746D01*
X017609Y006807D01*
X017644Y006874D01*
X017667Y006946D01*
X017679Y007020D01*
X017679Y007038D01*
X017219Y007038D01*
X017219Y007078D01*
X017679Y007078D01*
X017679Y007096D01*
X017667Y007171D01*
X017644Y007243D01*
X017609Y007310D01*
X017565Y007371D01*
X017512Y007424D01*
X017494Y007437D01*
X017786Y007728D01*
X017878Y007728D01*
X017938Y007668D01*
X018107Y007598D01*
X018290Y007598D01*
X018459Y007668D01*
X018589Y007798D01*
X018659Y007967D01*
X018659Y008150D01*
X018644Y008186D01*
X018806Y008348D01*
X022012Y008348D01*
X022186Y008348D01*
X024909Y008348D01*
X024909Y007444D01*
X024786Y007495D01*
X024612Y007495D01*
X024451Y007429D01*
X024328Y007306D01*
X024262Y007145D01*
X024262Y006971D01*
X024328Y006811D01*
X024451Y006688D01*
X024612Y006621D01*
X024786Y006621D01*
X024909Y006672D01*
X024909Y006551D01*
X025307Y006153D01*
X025301Y006137D01*
X025301Y005979D01*
X025362Y005833D01*
X025474Y005721D01*
X025620Y005660D01*
X025778Y005660D01*
X025924Y005721D01*
X026036Y005833D01*
X026097Y005979D01*
X026097Y006137D01*
X026036Y006284D01*
X025924Y006395D01*
X025778Y006456D01*
X025620Y006456D01*
X025604Y006450D01*
X025329Y006725D01*
X025329Y006912D01*
X025362Y006833D01*
X025474Y006721D01*
X025620Y006660D01*
X025778Y006660D01*
X025924Y006721D01*
X026036Y006833D01*
X026097Y006979D01*
X026097Y007137D01*
X026036Y007284D01*
X025924Y007395D01*
X025778Y007456D01*
X025620Y007456D01*
X025474Y007395D01*
X025362Y007284D01*
X025329Y007204D01*
X025329Y008471D01*
X025329Y008645D01*
X025206Y008768D01*
X022309Y008768D01*
X022309Y017625D01*
X022186Y017748D01*
X019532Y020402D01*
X019559Y020467D01*
X019559Y020650D01*
X019489Y020819D01*
X019359Y020948D01*
X019190Y021018D01*
X019007Y021018D01*
X018838Y020948D01*
X018709Y020819D01*
X018639Y020650D01*
X018639Y020467D01*
X018704Y020310D01*
X018555Y020459D01*
X018559Y020467D01*
X018559Y020650D01*
X018489Y020819D01*
X018359Y020948D01*
X018190Y021018D01*
X018007Y021018D01*
X017838Y020948D01*
X017709Y020819D01*
X017639Y020650D01*
X017639Y020467D01*
X017709Y020298D01*
X017838Y020168D01*
X018007Y020098D01*
X018190Y020098D01*
X018283Y020137D01*
X018495Y019925D02*
X017349Y019925D01*
X017349Y019766D02*
X018654Y019766D01*
X018669Y019608D02*
X017349Y019608D01*
X017349Y019449D02*
X018669Y019449D01*
X018669Y019291D02*
X017349Y019291D01*
X017349Y019132D02*
X018669Y019132D01*
X018669Y018974D02*
X017349Y018974D01*
X017349Y018815D02*
X018669Y018815D01*
X018669Y018657D02*
X017349Y018657D01*
X017349Y018498D02*
X018669Y018498D01*
X018669Y018339D02*
X017349Y018339D01*
X017349Y018181D02*
X018669Y018181D01*
X018669Y018022D02*
X017349Y018022D01*
X017349Y017864D02*
X018669Y017864D01*
X018669Y017705D02*
X017349Y017705D01*
X017349Y017547D02*
X018669Y017547D01*
X018669Y017388D02*
X017349Y017388D01*
X017349Y017230D02*
X018669Y017230D01*
X018669Y017071D02*
X017349Y017071D01*
X017349Y016913D02*
X018669Y016913D01*
X018669Y016754D02*
X017349Y016754D01*
X017349Y016596D02*
X018669Y016596D01*
X018669Y016437D02*
X017349Y016437D01*
X017349Y016278D02*
X018669Y016278D01*
X018669Y016120D02*
X017349Y016120D01*
X017349Y015961D02*
X018669Y015961D01*
X018669Y015803D02*
X017349Y015803D01*
X017349Y015644D02*
X018669Y015644D01*
X018669Y015486D02*
X017349Y015486D01*
X017349Y015327D02*
X018669Y015327D01*
X018669Y015169D02*
X017349Y015169D01*
X017349Y015010D02*
X018669Y015010D01*
X018669Y014852D02*
X017349Y014852D01*
X017349Y014693D02*
X018669Y014693D01*
X018669Y014534D02*
X017349Y014534D01*
X017349Y014376D02*
X018669Y014376D01*
X018669Y014217D02*
X017349Y014217D01*
X017349Y014059D02*
X018669Y014059D01*
X018669Y013900D02*
X017349Y013900D01*
X017349Y013742D02*
X018669Y013742D01*
X018669Y013583D02*
X017349Y013583D01*
X017349Y013425D02*
X018669Y013425D01*
X018669Y013266D02*
X017349Y013266D01*
X017349Y013108D02*
X018669Y013108D01*
X018669Y012949D02*
X017349Y012949D01*
X017349Y012790D02*
X018669Y012790D01*
X018669Y012632D02*
X017349Y012632D01*
X017349Y012473D02*
X018669Y012473D01*
X018669Y012315D02*
X017349Y012315D01*
X017349Y012156D02*
X018669Y012156D01*
X018669Y011998D02*
X017349Y011998D01*
X017349Y011839D02*
X018669Y011839D01*
X018669Y011681D02*
X017349Y011681D01*
X017349Y011522D02*
X018669Y011522D01*
X018669Y011364D02*
X017349Y011364D01*
X017349Y011205D02*
X018669Y011205D01*
X018669Y011046D02*
X017349Y011046D01*
X017686Y010888D02*
X018669Y010888D01*
X018669Y010729D02*
X017845Y010729D01*
X018003Y010571D02*
X018669Y010571D01*
X018669Y010412D02*
X018495Y010412D01*
X018616Y010254D02*
X018669Y010254D01*
X018659Y010095D02*
X018669Y010095D01*
X018669Y009937D02*
X018646Y009937D01*
X018669Y009778D02*
X018569Y009778D01*
X018669Y009620D02*
X018342Y009620D01*
X018056Y009620D02*
X017342Y009620D01*
X017290Y009598D02*
X017459Y009668D01*
X017589Y009798D01*
X017659Y009967D01*
X017659Y010150D01*
X017589Y010319D01*
X017459Y010448D01*
X017290Y010518D01*
X017107Y010518D01*
X016938Y010448D01*
X016809Y010319D01*
X016739Y010150D01*
X016739Y009967D01*
X016809Y009798D01*
X016938Y009668D01*
X017107Y009598D01*
X017290Y009598D01*
X017428Y009461D02*
X017969Y009461D01*
X017802Y009303D02*
X017596Y009303D01*
X017659Y009144D02*
X017739Y009144D01*
X017739Y008985D02*
X017659Y008985D01*
X017651Y008827D02*
X017601Y008827D01*
X016797Y008827D02*
X007958Y008827D01*
X007892Y008668D02*
X007159Y008668D01*
X007159Y008510D02*
X007420Y008510D01*
X007261Y008351D02*
X007022Y008351D01*
X006889Y008218D02*
X007159Y008488D01*
X007159Y008869D01*
X006889Y009138D01*
X006508Y009138D01*
X006239Y008869D01*
X006239Y008488D01*
X006508Y008218D01*
X006889Y008218D01*
X006889Y008058D02*
X006508Y008058D01*
X006239Y007789D01*
X006239Y007408D01*
X006508Y007138D01*
X006889Y007138D01*
X007159Y007408D01*
X007159Y007789D01*
X006889Y008058D01*
X006913Y008034D02*
X007239Y008034D01*
X007239Y008193D02*
X003179Y008193D01*
X003179Y008351D02*
X006375Y008351D01*
X006239Y008510D02*
X003179Y008510D01*
X003179Y008668D02*
X006239Y008668D01*
X006239Y008827D02*
X003179Y008827D01*
X003179Y008985D02*
X006356Y008985D01*
X007042Y008985D02*
X007281Y008985D01*
X007239Y009144D02*
X003179Y009144D01*
X003179Y009303D02*
X007239Y009303D01*
X007291Y009461D02*
X003179Y009461D01*
X003179Y009620D02*
X007450Y009620D01*
X007962Y009778D02*
X003179Y009778D01*
X003179Y009937D02*
X008120Y009937D01*
X008279Y010095D02*
X003179Y010095D01*
X003179Y010254D02*
X008437Y010254D01*
X008596Y010412D02*
X003179Y010412D01*
X003179Y010571D02*
X008755Y010571D01*
X008913Y010729D02*
X003179Y010729D01*
X003179Y010888D02*
X006823Y010888D01*
X006751Y010907D02*
X007046Y010828D01*
X007352Y010828D01*
X007647Y010907D01*
X007911Y011060D01*
X008127Y011276D01*
X008280Y011541D01*
X008359Y011836D01*
X008359Y012141D01*
X008280Y012436D01*
X008127Y012701D01*
X007911Y012916D01*
X007647Y013069D01*
X007352Y013148D01*
X007046Y013148D01*
X006751Y013069D01*
X006487Y012916D01*
X006271Y012701D01*
X006118Y012436D01*
X006039Y012141D01*
X006039Y011836D01*
X006118Y011541D01*
X006271Y011276D01*
X006487Y011060D01*
X006751Y010907D01*
X006510Y011046D02*
X003179Y011046D01*
X003179Y011205D02*
X006342Y011205D01*
X006220Y011364D02*
X003179Y011364D01*
X003179Y011522D02*
X006129Y011522D01*
X006080Y011681D02*
X003179Y011681D01*
X003179Y011839D02*
X006039Y011839D01*
X006039Y011998D02*
X003179Y011998D01*
X003179Y012156D02*
X006043Y012156D01*
X006086Y012315D02*
X003179Y012315D01*
X003179Y012473D02*
X006140Y012473D01*
X006231Y012632D02*
X003179Y012632D01*
X003179Y012790D02*
X006361Y012790D01*
X006543Y012949D02*
X003179Y012949D01*
X003179Y013108D02*
X006894Y013108D01*
X007503Y013108D02*
X016929Y013108D01*
X016929Y013266D02*
X003179Y013266D01*
X003179Y013425D02*
X016929Y013425D01*
X016929Y013583D02*
X003179Y013583D01*
X003422Y013900D02*
X003992Y013900D01*
X003717Y014059D02*
X003697Y014059D01*
X006427Y014059D02*
X016929Y014059D01*
X016929Y014217D02*
X006629Y014217D01*
X006717Y014376D02*
X016929Y014376D01*
X016929Y014534D02*
X006757Y014534D01*
X006757Y014693D02*
X016929Y014693D01*
X016929Y014852D02*
X006698Y014852D01*
X006828Y015010D02*
X016929Y015010D01*
X016929Y015169D02*
X006986Y015169D01*
X007145Y015327D02*
X016929Y015327D01*
X016929Y015486D02*
X007303Y015486D01*
X007349Y015644D02*
X016929Y015644D01*
X016929Y015803D02*
X007349Y015803D01*
X007349Y015961D02*
X016929Y015961D01*
X016929Y016120D02*
X007349Y016120D01*
X007349Y016278D02*
X016929Y016278D01*
X016929Y016437D02*
X007349Y016437D01*
X007349Y016596D02*
X016929Y016596D01*
X016929Y016754D02*
X007349Y016754D01*
X007349Y016913D02*
X016929Y016913D01*
X016929Y017071D02*
X007349Y017071D01*
X007349Y017230D02*
X016929Y017230D01*
X016929Y017388D02*
X007349Y017388D01*
X007349Y017547D02*
X016929Y017547D01*
X016929Y017705D02*
X007349Y017705D01*
X007349Y017864D02*
X016929Y017864D01*
X016929Y018022D02*
X007349Y018022D01*
X007349Y018181D02*
X016929Y018181D01*
X016929Y018339D02*
X007349Y018339D01*
X003791Y019132D02*
X003622Y019132D01*
X003179Y019291D02*
X014594Y019291D01*
X014753Y019449D02*
X003179Y019449D01*
X003179Y019608D02*
X014912Y019608D01*
X015070Y019766D02*
X003179Y019766D01*
X003179Y019925D02*
X015229Y019925D01*
X015387Y020083D02*
X014169Y020083D01*
X014137Y020078D02*
X014211Y020090D01*
X014283Y020113D01*
X014350Y020148D01*
X014412Y020192D01*
X014465Y020246D01*
X014509Y020307D01*
X014544Y020374D01*
X014567Y020446D01*
X014579Y020520D01*
X014579Y020538D01*
X014119Y020538D01*
X014119Y020078D01*
X014137Y020078D01*
X014119Y020083D02*
X014079Y020083D01*
X014079Y020078D02*
X014079Y020538D01*
X014119Y020538D01*
X014119Y020578D01*
X014579Y020578D01*
X014579Y020596D01*
X014567Y020671D01*
X014544Y020743D01*
X014509Y020810D01*
X014465Y020871D01*
X014412Y020924D01*
X014350Y020969D01*
X014283Y021003D01*
X014211Y021026D01*
X014137Y021038D01*
X014119Y021038D01*
X014119Y020579D01*
X014079Y020579D01*
X014079Y021038D01*
X014061Y021038D01*
X013986Y021026D01*
X013915Y021003D01*
X013847Y020969D01*
X013786Y020924D01*
X013733Y020871D01*
X013688Y020810D01*
X013654Y020743D01*
X013631Y020671D01*
X013619Y020596D01*
X013619Y020578D01*
X014079Y020578D01*
X014079Y020538D01*
X013619Y020538D01*
X013619Y020520D01*
X013631Y020446D01*
X013654Y020374D01*
X013688Y020307D01*
X013733Y020246D01*
X013786Y020192D01*
X013847Y020148D01*
X013915Y020113D01*
X013986Y020090D01*
X014061Y020078D01*
X014079Y020078D01*
X014028Y020083D02*
X003179Y020083D01*
X003179Y020242D02*
X012765Y020242D01*
X012709Y020298D02*
X012838Y020168D01*
X013007Y020098D01*
X013190Y020098D01*
X013359Y020168D01*
X013489Y020298D01*
X013559Y020467D01*
X013559Y020650D01*
X013489Y020819D01*
X013359Y020948D01*
X013190Y021018D01*
X013007Y021018D01*
X012838Y020948D01*
X012709Y020819D01*
X012639Y020650D01*
X012639Y020467D01*
X012709Y020298D01*
X012666Y020401D02*
X003179Y020401D01*
X003179Y020559D02*
X012639Y020559D01*
X012667Y020718D02*
X003179Y020718D01*
X003179Y020876D02*
X012766Y020876D01*
X013431Y020876D02*
X013738Y020876D01*
X013646Y020718D02*
X013531Y020718D01*
X013559Y020559D02*
X014079Y020559D01*
X014119Y020559D02*
X014639Y020559D01*
X014666Y020401D02*
X014552Y020401D01*
X014461Y020242D02*
X014765Y020242D01*
X014667Y020718D02*
X014552Y020718D01*
X014460Y020876D02*
X014766Y020876D01*
X014159Y021035D02*
X029089Y021035D01*
X029089Y020876D02*
X029031Y020876D01*
X028366Y020876D02*
X028031Y020876D01*
X028131Y020718D02*
X028267Y020718D01*
X028239Y020559D02*
X028159Y020559D01*
X028131Y020401D02*
X028266Y020401D01*
X028365Y020242D02*
X028049Y020242D01*
X028049Y020083D02*
X029089Y020083D01*
X029089Y019925D02*
X028049Y019925D01*
X028049Y019766D02*
X029089Y019766D01*
X029089Y019608D02*
X028049Y019608D01*
X028049Y019449D02*
X029089Y019449D01*
X029089Y019291D02*
X028049Y019291D01*
X028049Y019132D02*
X029089Y019132D01*
X029089Y018974D02*
X028049Y018974D01*
X028049Y018815D02*
X029089Y018815D01*
X029089Y018657D02*
X028049Y018657D01*
X028049Y018498D02*
X028559Y018498D01*
X028330Y018339D02*
X028049Y018339D01*
X028049Y018181D02*
X028252Y018181D01*
X028239Y018022D02*
X028049Y018022D01*
X028190Y017864D02*
X028281Y017864D01*
X028349Y017705D02*
X028401Y017705D01*
X028507Y017547D02*
X029089Y017547D01*
X029089Y017705D02*
X028996Y017705D01*
X029019Y017388D02*
X029089Y017388D01*
X028261Y016913D02*
X022309Y016913D01*
X022309Y017071D02*
X028239Y017071D01*
X028230Y017230D02*
X022309Y017230D01*
X022309Y017388D02*
X028072Y017388D01*
X027913Y017547D02*
X022309Y017547D01*
X022229Y017705D02*
X027755Y017705D01*
X027629Y017864D02*
X022070Y017864D01*
X021912Y018022D02*
X027629Y018022D01*
X027629Y018181D02*
X021753Y018181D01*
X021595Y018339D02*
X027629Y018339D01*
X027629Y018498D02*
X021436Y018498D01*
X021278Y018657D02*
X027629Y018657D01*
X027629Y018815D02*
X021119Y018815D01*
X020960Y018974D02*
X027629Y018974D01*
X027629Y019132D02*
X020802Y019132D01*
X020643Y019291D02*
X027629Y019291D01*
X027629Y019449D02*
X020485Y019449D01*
X020326Y019608D02*
X027629Y019608D01*
X027629Y019766D02*
X020168Y019766D01*
X020009Y019925D02*
X027629Y019925D01*
X027629Y020083D02*
X019851Y020083D01*
X019838Y020168D02*
X020007Y020098D01*
X020190Y020098D01*
X020359Y020168D01*
X020489Y020298D01*
X020559Y020467D01*
X020559Y020650D01*
X020489Y020819D01*
X020359Y020948D01*
X020190Y021018D01*
X020007Y021018D01*
X019838Y020948D01*
X019709Y020819D01*
X019639Y020650D01*
X019639Y020467D01*
X019709Y020298D01*
X019838Y020168D01*
X019765Y020242D02*
X019692Y020242D01*
X019666Y020401D02*
X019534Y020401D01*
X019559Y020559D02*
X019639Y020559D01*
X019667Y020718D02*
X019531Y020718D01*
X019431Y020876D02*
X019766Y020876D01*
X020431Y020876D02*
X021366Y020876D01*
X021309Y020819D02*
X021239Y020650D01*
X021239Y020467D01*
X021309Y020298D01*
X021438Y020168D01*
X021607Y020098D01*
X021790Y020098D01*
X021959Y020168D01*
X022089Y020298D01*
X022159Y020467D01*
X022159Y020650D01*
X022089Y020819D01*
X021959Y020948D01*
X021790Y021018D01*
X021607Y021018D01*
X021438Y020948D01*
X021309Y020819D01*
X021267Y020718D02*
X020531Y020718D01*
X020559Y020559D02*
X021239Y020559D01*
X021266Y020401D02*
X020531Y020401D01*
X020433Y020242D02*
X021365Y020242D01*
X022033Y020242D02*
X022365Y020242D01*
X022309Y020298D02*
X022438Y020168D01*
X022607Y020098D01*
X022790Y020098D01*
X022959Y020168D01*
X023089Y020298D01*
X023159Y020467D01*
X023159Y020650D01*
X023089Y020819D01*
X022959Y020948D01*
X022790Y021018D01*
X022607Y021018D01*
X022438Y020948D01*
X022309Y020819D01*
X022239Y020650D01*
X022239Y020467D01*
X022309Y020298D01*
X022266Y020401D02*
X022131Y020401D01*
X022159Y020559D02*
X022239Y020559D01*
X022267Y020718D02*
X022131Y020718D01*
X022031Y020876D02*
X022366Y020876D01*
X023031Y020876D02*
X023366Y020876D01*
X023309Y020819D02*
X023239Y020650D01*
X023239Y020467D01*
X023309Y020298D01*
X023438Y020168D01*
X023607Y020098D01*
X023790Y020098D01*
X023959Y020168D01*
X024089Y020298D01*
X024159Y020467D01*
X024159Y020650D01*
X024089Y020819D01*
X023959Y020948D01*
X023790Y021018D01*
X023607Y021018D01*
X023438Y020948D01*
X023309Y020819D01*
X023267Y020718D02*
X023131Y020718D01*
X023159Y020559D02*
X023239Y020559D01*
X023266Y020401D02*
X023131Y020401D01*
X023033Y020242D02*
X023365Y020242D01*
X024033Y020242D02*
X024365Y020242D01*
X024309Y020298D02*
X024438Y020168D01*
X024607Y020098D01*
X024790Y020098D01*
X024959Y020168D01*
X025089Y020298D01*
X025159Y020467D01*
X025159Y020650D01*
X025089Y020819D01*
X024959Y020948D01*
X024790Y021018D01*
X024607Y021018D01*
X024438Y020948D01*
X024309Y020819D01*
X024239Y020650D01*
X024239Y020467D01*
X024309Y020298D01*
X024266Y020401D02*
X024131Y020401D01*
X024159Y020559D02*
X024239Y020559D01*
X024267Y020718D02*
X024131Y020718D01*
X024031Y020876D02*
X024366Y020876D01*
X025031Y020876D02*
X025366Y020876D01*
X025309Y020819D02*
X025239Y020650D01*
X025239Y020467D01*
X025309Y020298D01*
X025438Y020168D01*
X025607Y020098D01*
X025790Y020098D01*
X025959Y020168D01*
X026089Y020298D01*
X026159Y020467D01*
X026159Y020650D01*
X026089Y020819D01*
X025959Y020948D01*
X025790Y021018D01*
X025607Y021018D01*
X025438Y020948D01*
X025309Y020819D01*
X025267Y020718D02*
X025131Y020718D01*
X025159Y020559D02*
X025239Y020559D01*
X025266Y020401D02*
X025131Y020401D01*
X025033Y020242D02*
X025365Y020242D01*
X026033Y020242D02*
X026365Y020242D01*
X026309Y020298D02*
X026438Y020168D01*
X026607Y020098D01*
X026790Y020098D01*
X026959Y020168D01*
X027089Y020298D01*
X027159Y020467D01*
X027159Y020650D01*
X027089Y020819D01*
X026959Y020948D01*
X026790Y021018D01*
X026607Y021018D01*
X026438Y020948D01*
X026309Y020819D01*
X026239Y020650D01*
X026239Y020467D01*
X026309Y020298D01*
X026266Y020401D02*
X026131Y020401D01*
X026159Y020559D02*
X026239Y020559D01*
X026267Y020718D02*
X026131Y020718D01*
X026031Y020876D02*
X026366Y020876D01*
X027031Y020876D02*
X027366Y020876D01*
X027267Y020718D02*
X027131Y020718D01*
X027159Y020559D02*
X027239Y020559D01*
X027266Y020401D02*
X027131Y020401D01*
X027033Y020242D02*
X027365Y020242D01*
X029033Y020242D02*
X029089Y020242D01*
X029089Y018498D02*
X028839Y018498D01*
X029068Y018339D02*
X029089Y018339D01*
X029045Y016754D02*
X029089Y016754D01*
X029089Y016596D02*
X022309Y016596D01*
X022309Y016754D02*
X028353Y016754D01*
X028427Y016437D02*
X022309Y016437D01*
X022309Y016278D02*
X028292Y016278D01*
X028239Y016120D02*
X022309Y016120D01*
X022309Y015961D02*
X028241Y015961D01*
X028307Y015803D02*
X022309Y015803D01*
X022309Y015644D02*
X028496Y015644D01*
X028481Y015486D02*
X022309Y015486D01*
X022309Y015327D02*
X028301Y015327D01*
X028230Y015169D02*
X022309Y015169D01*
X022309Y015010D02*
X028221Y015010D01*
X028265Y014852D02*
X022309Y014852D01*
X022309Y014693D02*
X028385Y014693D01*
X028679Y014693D02*
X028719Y014693D01*
X028719Y014852D02*
X028679Y014852D01*
X028679Y015010D02*
X028719Y015010D01*
X028719Y015169D02*
X028679Y015169D01*
X028679Y015327D02*
X028719Y015327D01*
X028719Y015486D02*
X028679Y015486D01*
X028917Y015486D02*
X029089Y015486D01*
X029089Y015644D02*
X028901Y015644D01*
X028971Y016437D02*
X029089Y016437D01*
X029089Y014693D02*
X029012Y014693D01*
X029089Y014534D02*
X022309Y014534D01*
X022309Y014376D02*
X028366Y014376D01*
X028267Y014217D02*
X022309Y014217D01*
X022309Y014059D02*
X028239Y014059D01*
X028266Y013900D02*
X022309Y013900D01*
X022309Y013742D02*
X028365Y013742D01*
X028415Y013425D02*
X022309Y013425D01*
X022309Y013583D02*
X029089Y013583D01*
X029089Y013425D02*
X028983Y013425D01*
X029033Y013742D02*
X029089Y013742D01*
X028287Y013266D02*
X022309Y013266D01*
X022309Y013108D02*
X028239Y013108D01*
X028246Y012949D02*
X022309Y012949D01*
X022309Y012790D02*
X028316Y012790D01*
X028526Y012632D02*
X022309Y012632D01*
X022309Y012473D02*
X029089Y012473D01*
X029089Y012315D02*
X022309Y012315D01*
X022309Y012156D02*
X029089Y012156D01*
X029089Y011998D02*
X022309Y011998D01*
X022309Y011839D02*
X029089Y011839D01*
X029089Y011681D02*
X022309Y011681D01*
X022309Y011522D02*
X029089Y011522D01*
X029089Y011364D02*
X022309Y011364D01*
X022309Y011205D02*
X029089Y011205D01*
X029089Y011046D02*
X022309Y011046D01*
X022309Y010888D02*
X029089Y010888D01*
X029089Y010729D02*
X022309Y010729D01*
X022309Y010571D02*
X029089Y010571D01*
X029089Y010412D02*
X022309Y010412D01*
X022309Y010254D02*
X029089Y010254D01*
X029089Y010095D02*
X022309Y010095D01*
X022309Y009937D02*
X029089Y009937D01*
X029089Y009778D02*
X022309Y009778D01*
X022309Y009620D02*
X029089Y009620D01*
X029089Y009461D02*
X022309Y009461D01*
X022309Y009303D02*
X029089Y009303D01*
X029089Y009144D02*
X022309Y009144D01*
X022309Y008985D02*
X029089Y008985D01*
X029089Y008827D02*
X022309Y008827D01*
X022612Y007495D02*
X022451Y007429D01*
X022328Y007306D01*
X022262Y007145D01*
X022262Y006971D01*
X022328Y006811D01*
X022451Y006688D01*
X022612Y006621D01*
X022786Y006621D01*
X022946Y006688D01*
X023069Y006811D01*
X023136Y006971D01*
X023136Y007145D01*
X023069Y007306D01*
X022946Y007429D01*
X022786Y007495D01*
X022612Y007495D01*
X022422Y007400D02*
X021913Y007400D01*
X021924Y007395D02*
X021778Y007456D01*
X021620Y007456D01*
X021474Y007395D01*
X021362Y007284D01*
X021301Y007137D01*
X021301Y006979D01*
X021362Y006833D01*
X021474Y006721D01*
X021620Y006660D01*
X021778Y006660D01*
X021924Y006721D01*
X022036Y006833D01*
X022097Y006979D01*
X022097Y007137D01*
X022036Y007284D01*
X021924Y007395D01*
X022054Y007241D02*
X022302Y007241D01*
X022262Y007083D02*
X022097Y007083D01*
X022074Y006924D02*
X022281Y006924D01*
X022373Y006766D02*
X021969Y006766D01*
X021796Y006449D02*
X023602Y006449D01*
X023620Y006456D02*
X023474Y006395D01*
X023362Y006284D01*
X023301Y006137D01*
X023301Y005979D01*
X023362Y005833D01*
X023474Y005721D01*
X023620Y005660D01*
X023778Y005660D01*
X023924Y005721D01*
X024036Y005833D01*
X024097Y005979D01*
X024097Y006137D01*
X024036Y006284D01*
X023924Y006395D01*
X023778Y006456D01*
X023620Y006456D01*
X023796Y006449D02*
X025011Y006449D01*
X024909Y006607D02*
X019109Y006607D01*
X019109Y006449D02*
X019602Y006449D01*
X019620Y006456D02*
X019474Y006395D01*
X019362Y006284D01*
X019301Y006137D01*
X019301Y005979D01*
X019362Y005833D01*
X019474Y005721D01*
X019620Y005660D01*
X019778Y005660D01*
X019924Y005721D01*
X020036Y005833D01*
X020097Y005979D01*
X020097Y006137D01*
X020036Y006284D01*
X019924Y006395D01*
X019778Y006456D01*
X019620Y006456D01*
X019796Y006449D02*
X021602Y006449D01*
X021620Y006456D02*
X021474Y006395D01*
X021362Y006284D01*
X021301Y006137D01*
X021301Y005979D01*
X021362Y005833D01*
X021474Y005721D01*
X021620Y005660D01*
X021778Y005660D01*
X021924Y005721D01*
X022036Y005833D01*
X022097Y005979D01*
X022097Y006137D01*
X022036Y006284D01*
X021924Y006395D01*
X021778Y006456D01*
X021620Y006456D01*
X021368Y006290D02*
X020029Y006290D01*
X020097Y006132D02*
X021301Y006132D01*
X021304Y005973D02*
X020094Y005973D01*
X020018Y005815D02*
X021380Y005815D01*
X022018Y005815D02*
X023380Y005815D01*
X023304Y005973D02*
X022094Y005973D01*
X022097Y006132D02*
X023301Y006132D01*
X023368Y006290D02*
X022029Y006290D01*
X021429Y006766D02*
X021025Y006766D01*
X021069Y006811D02*
X021136Y006971D01*
X021136Y007145D01*
X021069Y007306D01*
X020946Y007429D01*
X020786Y007495D01*
X020612Y007495D01*
X020451Y007429D01*
X020328Y007306D01*
X020262Y007145D01*
X020262Y006971D01*
X020328Y006811D01*
X020451Y006688D01*
X020612Y006621D01*
X020786Y006621D01*
X020946Y006688D01*
X021069Y006811D01*
X021117Y006924D02*
X021324Y006924D01*
X021301Y007083D02*
X021136Y007083D01*
X021096Y007241D02*
X021344Y007241D01*
X021484Y007400D02*
X020975Y007400D01*
X020422Y007400D02*
X019913Y007400D01*
X019924Y007395D02*
X019778Y007456D01*
X019726Y007456D01*
X019764Y007494D01*
X019819Y007627D01*
X019819Y007770D01*
X019764Y007902D01*
X019663Y008003D01*
X019531Y008058D01*
X019387Y008058D01*
X019255Y008003D01*
X019154Y007902D01*
X019099Y007770D01*
X019099Y007635D01*
X018812Y007348D01*
X018689Y007225D01*
X018689Y007108D01*
X018659Y007108D01*
X018659Y007150D01*
X018589Y007319D01*
X018459Y007448D01*
X018290Y007518D01*
X018107Y007518D01*
X017938Y007448D01*
X017809Y007319D01*
X017739Y007150D01*
X017739Y006967D01*
X017809Y006798D01*
X017938Y006668D01*
X018107Y006598D01*
X018290Y006598D01*
X018459Y006668D01*
X018479Y006688D01*
X018586Y006688D01*
X018689Y006688D01*
X018689Y005865D01*
X018412Y005588D01*
X008346Y005588D01*
X008153Y005781D01*
X008159Y005788D01*
X008159Y006169D01*
X007889Y006438D01*
X007508Y006438D01*
X007239Y006169D01*
X007239Y005788D01*
X007508Y005518D01*
X007822Y005518D01*
X008049Y005291D01*
X008172Y005168D01*
X018412Y005168D01*
X018586Y005168D01*
X018899Y005481D01*
X019212Y005168D01*
X019386Y005168D01*
X027146Y005168D01*
X027269Y005291D01*
X027638Y005660D01*
X027778Y005660D01*
X027924Y005721D01*
X028036Y005833D01*
X028097Y005979D01*
X028097Y006137D01*
X028036Y006284D01*
X027924Y006395D01*
X027778Y006456D01*
X027620Y006456D01*
X027474Y006395D01*
X027362Y006284D01*
X027301Y006137D01*
X027301Y005979D01*
X027319Y005935D01*
X026972Y005588D01*
X019386Y005588D01*
X019109Y005865D01*
X019109Y006811D01*
X019109Y007051D01*
X019396Y007338D01*
X019416Y007338D01*
X019362Y007284D01*
X019301Y007137D01*
X019301Y006979D01*
X019362Y006833D01*
X019474Y006721D01*
X019620Y006660D01*
X019778Y006660D01*
X019924Y006721D01*
X020036Y006833D01*
X020097Y006979D01*
X020097Y007137D01*
X020036Y007284D01*
X019924Y007395D01*
X020054Y007241D02*
X020302Y007241D01*
X020262Y007083D02*
X020097Y007083D01*
X020074Y006924D02*
X020281Y006924D01*
X020373Y006766D02*
X019969Y006766D01*
X019429Y006766D02*
X019109Y006766D01*
X019109Y006924D02*
X019324Y006924D01*
X019301Y007083D02*
X019141Y007083D01*
X019299Y007241D02*
X019344Y007241D01*
X018864Y007400D02*
X018508Y007400D01*
X018621Y007241D02*
X018705Y007241D01*
X019022Y007559D02*
X017616Y007559D01*
X017536Y007400D02*
X017890Y007400D01*
X017777Y007241D02*
X017644Y007241D01*
X017679Y007083D02*
X017739Y007083D01*
X017756Y006924D02*
X017660Y006924D01*
X017580Y006766D02*
X017841Y006766D01*
X018086Y006607D02*
X017364Y006607D01*
X017290Y006518D02*
X017459Y006448D01*
X017589Y006319D01*
X017659Y006150D01*
X017659Y005967D01*
X017589Y005798D01*
X017459Y005668D01*
X017290Y005598D01*
X017107Y005598D01*
X016938Y005668D01*
X016809Y005798D01*
X016739Y005967D01*
X016739Y006150D01*
X016809Y006319D01*
X016938Y006448D01*
X017107Y006518D01*
X017290Y006518D01*
X017219Y006607D02*
X017179Y006607D01*
X017179Y006578D02*
X017179Y007038D01*
X016719Y007038D01*
X016719Y007020D01*
X016731Y006946D01*
X016754Y006874D01*
X016788Y006807D01*
X016833Y006746D01*
X016886Y006692D01*
X016947Y006648D01*
X017015Y006613D01*
X017086Y006590D01*
X017161Y006578D01*
X017179Y006578D01*
X017034Y006607D02*
X007898Y006607D01*
X008057Y006766D02*
X016818Y006766D01*
X016738Y006924D02*
X008159Y006924D01*
X008159Y007083D02*
X016719Y007083D01*
X016754Y007241D02*
X008179Y007241D01*
X008338Y007400D02*
X016862Y007400D01*
X016777Y007876D02*
X008087Y007876D01*
X008061Y007717D02*
X007928Y007717D01*
X007902Y007559D02*
X007159Y007559D01*
X007159Y007717D02*
X007470Y007717D01*
X007311Y007876D02*
X007072Y007876D01*
X007151Y007400D02*
X007390Y007400D01*
X007239Y007241D02*
X006993Y007241D01*
X006898Y006998D02*
X006719Y006998D01*
X006719Y006539D01*
X006679Y006539D01*
X006679Y006998D01*
X006500Y006998D01*
X006219Y006717D01*
X006219Y006538D01*
X006679Y006538D01*
X006679Y006498D01*
X006719Y006498D01*
X006719Y006038D01*
X006898Y006038D01*
X007179Y006319D01*
X007179Y006498D01*
X006719Y006498D01*
X006719Y006538D01*
X007179Y006538D01*
X007179Y006717D01*
X006898Y006998D01*
X006972Y006924D02*
X007239Y006924D01*
X007239Y007083D02*
X003179Y007083D01*
X003179Y007241D02*
X006405Y007241D01*
X006247Y007400D02*
X003179Y007400D01*
X003179Y007559D02*
X006239Y007559D01*
X006239Y007717D02*
X003179Y007717D01*
X003179Y007876D02*
X006326Y007876D01*
X006484Y008034D02*
X003179Y008034D01*
X003179Y006924D02*
X006426Y006924D01*
X006268Y006766D02*
X003179Y006766D01*
X003179Y006607D02*
X006219Y006607D01*
X006219Y006498D02*
X006219Y006319D01*
X006500Y006038D01*
X006679Y006038D01*
X006679Y006498D01*
X006219Y006498D01*
X006219Y006449D02*
X003179Y006449D01*
X003179Y006290D02*
X006248Y006290D01*
X006407Y006132D02*
X003179Y006132D01*
X003179Y005973D02*
X007239Y005973D01*
X007239Y005815D02*
X006973Y005815D01*
X006889Y005898D02*
X006508Y005898D01*
X006239Y005629D01*
X006239Y005248D01*
X006508Y004978D01*
X006889Y004978D01*
X007159Y005248D01*
X007159Y005629D01*
X006889Y005898D01*
X006991Y006132D02*
X007239Y006132D01*
X007150Y006290D02*
X007360Y006290D01*
X007179Y006449D02*
X016940Y006449D01*
X016797Y006290D02*
X008037Y006290D01*
X008159Y006132D02*
X016739Y006132D01*
X016739Y005973D02*
X008159Y005973D01*
X008159Y005815D02*
X016802Y005815D01*
X016968Y005656D02*
X008278Y005656D01*
X008001Y005339D02*
X007909Y005339D01*
X007889Y005358D02*
X008159Y005089D01*
X008159Y004708D01*
X007889Y004438D01*
X007508Y004438D01*
X007239Y004708D01*
X007239Y005089D01*
X007508Y005358D01*
X007889Y005358D01*
X007843Y005497D02*
X007159Y005497D01*
X007159Y005339D02*
X007489Y005339D01*
X007331Y005180D02*
X007092Y005180D01*
X007239Y005022D02*
X006933Y005022D01*
X007239Y004863D02*
X003179Y004863D01*
X003179Y004705D02*
X007242Y004705D01*
X007400Y004546D02*
X003179Y004546D01*
X003179Y004388D02*
X018772Y004388D01*
X018739Y004467D02*
X018809Y004298D01*
X018938Y004168D01*
X019107Y004098D01*
X019290Y004098D01*
X019459Y004168D01*
X019589Y004298D01*
X019610Y004348D01*
X020072Y004348D01*
X020266Y004155D01*
X020262Y004145D01*
X020262Y003971D01*
X020328Y003811D01*
X020451Y003688D01*
X020612Y003621D01*
X020786Y003621D01*
X020946Y003688D01*
X021069Y003811D01*
X021136Y003971D01*
X021136Y004145D01*
X021069Y004306D01*
X020946Y004429D01*
X020786Y004495D01*
X020612Y004495D01*
X020546Y004468D01*
X020369Y004645D01*
X020246Y004768D01*
X019610Y004768D01*
X019589Y004819D01*
X019459Y004948D01*
X019290Y005018D01*
X019107Y005018D01*
X018938Y004948D01*
X018809Y004819D01*
X018739Y004650D01*
X018739Y004467D01*
X018739Y004546D02*
X007997Y004546D01*
X008156Y004705D02*
X018762Y004705D01*
X018853Y004863D02*
X008159Y004863D01*
X008159Y005022D02*
X029089Y005022D01*
X029089Y005180D02*
X027158Y005180D01*
X027317Y005339D02*
X029089Y005339D01*
X029089Y005497D02*
X027475Y005497D01*
X027634Y005656D02*
X029089Y005656D01*
X029089Y005815D02*
X028018Y005815D01*
X028094Y005973D02*
X029089Y005973D01*
X029089Y006132D02*
X028097Y006132D01*
X028029Y006290D02*
X029089Y006290D01*
X029089Y006449D02*
X027796Y006449D01*
X027602Y006449D02*
X025796Y006449D01*
X026029Y006290D02*
X027368Y006290D01*
X027301Y006132D02*
X026097Y006132D01*
X026094Y005973D02*
X027304Y005973D01*
X027198Y005815D02*
X026018Y005815D01*
X025380Y005815D02*
X024018Y005815D01*
X024094Y005973D02*
X025304Y005973D01*
X025301Y006132D02*
X024097Y006132D01*
X024029Y006290D02*
X025170Y006290D01*
X025447Y006607D02*
X029089Y006607D01*
X029089Y006766D02*
X029025Y006766D01*
X028373Y006766D02*
X027969Y006766D01*
X027924Y006721D02*
X028036Y006833D01*
X028097Y006979D01*
X028097Y007137D01*
X028036Y007284D01*
X027924Y007395D01*
X027778Y007456D01*
X027620Y007456D01*
X027474Y007395D01*
X027362Y007284D01*
X027301Y007137D01*
X027301Y006979D01*
X027362Y006833D01*
X027474Y006721D01*
X027620Y006660D01*
X027778Y006660D01*
X027924Y006721D01*
X028074Y006924D02*
X028281Y006924D01*
X028262Y007083D02*
X028097Y007083D01*
X028054Y007241D02*
X028302Y007241D01*
X028422Y007400D02*
X027913Y007400D01*
X027484Y007400D02*
X026975Y007400D01*
X026946Y007429D02*
X026786Y007495D01*
X026612Y007495D01*
X026451Y007429D01*
X026328Y007306D01*
X026262Y007145D01*
X026262Y006971D01*
X026328Y006811D01*
X026451Y006688D01*
X026612Y006621D01*
X026786Y006621D01*
X026946Y006688D01*
X027069Y006811D01*
X027136Y006971D01*
X027136Y007145D01*
X027069Y007306D01*
X026946Y007429D01*
X027096Y007241D02*
X027344Y007241D01*
X027301Y007083D02*
X027136Y007083D01*
X027117Y006924D02*
X027324Y006924D01*
X027429Y006766D02*
X027025Y006766D01*
X026373Y006766D02*
X025969Y006766D01*
X026074Y006924D02*
X026281Y006924D01*
X026262Y007083D02*
X026097Y007083D01*
X026054Y007241D02*
X026302Y007241D01*
X026422Y007400D02*
X025913Y007400D01*
X025484Y007400D02*
X025329Y007400D01*
X025329Y007241D02*
X025344Y007241D01*
X025329Y007559D02*
X029089Y007559D01*
X029089Y007717D02*
X025329Y007717D01*
X025329Y007876D02*
X029089Y007876D01*
X029089Y008034D02*
X025329Y008034D01*
X025329Y008193D02*
X029089Y008193D01*
X029089Y008351D02*
X025329Y008351D01*
X025329Y008510D02*
X029089Y008510D01*
X029089Y008668D02*
X025306Y008668D01*
X024909Y008193D02*
X018650Y008193D01*
X018659Y008034D02*
X019329Y008034D01*
X019143Y007876D02*
X018621Y007876D01*
X018508Y007717D02*
X019099Y007717D01*
X019589Y008034D02*
X024909Y008034D01*
X024909Y007876D02*
X019775Y007876D01*
X019819Y007717D02*
X024909Y007717D01*
X024909Y007559D02*
X019791Y007559D01*
X018689Y006607D02*
X018312Y006607D01*
X018290Y006518D02*
X018107Y006518D01*
X017938Y006448D01*
X017809Y006319D01*
X017739Y006150D01*
X017739Y005967D01*
X017809Y005798D01*
X017938Y005668D01*
X018107Y005598D01*
X018290Y005598D01*
X018459Y005668D01*
X018589Y005798D01*
X018659Y005967D01*
X018659Y006150D01*
X018589Y006319D01*
X018459Y006448D01*
X018290Y006518D01*
X018458Y006449D02*
X018689Y006449D01*
X018689Y006290D02*
X018601Y006290D01*
X018659Y006132D02*
X018689Y006132D01*
X018689Y005973D02*
X018659Y005973D01*
X018689Y005865D02*
X018689Y005865D01*
X018638Y005815D02*
X018596Y005815D01*
X018480Y005656D02*
X018430Y005656D01*
X018756Y005339D02*
X019041Y005339D01*
X019200Y005180D02*
X018598Y005180D01*
X017968Y005656D02*
X017430Y005656D01*
X017596Y005815D02*
X017802Y005815D01*
X017739Y005973D02*
X017659Y005973D01*
X017659Y006132D02*
X017739Y006132D01*
X017797Y006290D02*
X017601Y006290D01*
X017458Y006449D02*
X017940Y006449D01*
X017219Y006766D02*
X017179Y006766D01*
X017179Y006924D02*
X017219Y006924D01*
X017775Y007717D02*
X017890Y007717D01*
X016739Y008034D02*
X008159Y008034D01*
X008159Y008193D02*
X016757Y008193D01*
X016739Y008985D02*
X008117Y008985D01*
X008159Y009144D02*
X016739Y009144D01*
X016802Y009303D02*
X008159Y009303D01*
X008239Y009461D02*
X016969Y009461D01*
X017056Y009620D02*
X008397Y009620D01*
X008556Y009778D02*
X016828Y009778D01*
X016751Y009937D02*
X008714Y009937D01*
X008873Y010095D02*
X016739Y010095D01*
X016782Y010254D02*
X009031Y010254D01*
X009190Y010412D02*
X016902Y010412D01*
X017495Y010412D02*
X017568Y010412D01*
X017616Y010254D02*
X017726Y010254D01*
X017739Y010095D02*
X017659Y010095D01*
X017646Y009937D02*
X017751Y009937D01*
X017828Y009778D02*
X017569Y009778D01*
X016929Y011046D02*
X007888Y011046D01*
X008056Y011205D02*
X016929Y011205D01*
X016929Y011364D02*
X008178Y011364D01*
X008269Y011522D02*
X016929Y011522D01*
X016929Y011681D02*
X008317Y011681D01*
X008359Y011839D02*
X016929Y011839D01*
X016929Y011998D02*
X008359Y011998D01*
X008355Y012156D02*
X016929Y012156D01*
X016929Y012315D02*
X008312Y012315D01*
X008258Y012473D02*
X016929Y012473D01*
X016929Y012632D02*
X008167Y012632D01*
X008037Y012790D02*
X016929Y012790D01*
X016929Y012949D02*
X007855Y012949D01*
X007574Y010888D02*
X009072Y010888D01*
X007440Y008827D02*
X007159Y008827D01*
X006719Y006924D02*
X006679Y006924D01*
X006679Y006766D02*
X006719Y006766D01*
X006719Y006607D02*
X006679Y006607D01*
X006679Y006449D02*
X006719Y006449D01*
X006719Y006290D02*
X006679Y006290D01*
X006679Y006132D02*
X006719Y006132D01*
X006425Y005815D02*
X003179Y005815D01*
X003179Y005656D02*
X006266Y005656D01*
X006239Y005497D02*
X003179Y005497D01*
X003179Y005339D02*
X006239Y005339D01*
X006306Y005180D02*
X003179Y005180D01*
X003179Y005022D02*
X006465Y005022D01*
X007132Y005656D02*
X007371Y005656D01*
X008067Y005180D02*
X008160Y005180D01*
X007499Y006607D02*
X007179Y006607D01*
X007130Y006766D02*
X007341Y006766D01*
X003179Y004229D02*
X018877Y004229D01*
X019520Y004229D02*
X020191Y004229D01*
X020262Y004071D02*
X003179Y004071D01*
X003179Y003912D02*
X014402Y003912D01*
X014438Y003948D02*
X014309Y003819D01*
X014239Y003650D01*
X014239Y003467D01*
X014309Y003298D01*
X014438Y003168D01*
X014607Y003098D01*
X014790Y003098D01*
X014959Y003168D01*
X015089Y003298D01*
X015159Y003467D01*
X015159Y003650D01*
X015089Y003819D01*
X014959Y003948D01*
X014790Y004018D01*
X014607Y004018D01*
X014438Y003948D01*
X014282Y003754D02*
X003179Y003754D01*
X003179Y003595D02*
X014239Y003595D01*
X014251Y003436D02*
X003179Y003436D01*
X003179Y003278D02*
X007008Y003278D01*
X007390Y003278D02*
X014329Y003278D01*
X014556Y003119D02*
X007802Y003119D01*
X008007Y002961D02*
X016979Y002961D01*
X016827Y003113D02*
X018254Y001686D01*
X018239Y001650D01*
X018239Y001467D01*
X018309Y001298D01*
X018438Y001168D01*
X018607Y001098D01*
X018790Y001098D01*
X018959Y001168D01*
X019089Y001298D01*
X019159Y001467D01*
X019159Y001650D01*
X019089Y001819D01*
X018959Y001948D01*
X018790Y002018D01*
X018607Y002018D01*
X018543Y001991D01*
X017132Y003402D01*
X017159Y003467D01*
X017159Y003650D01*
X017089Y003819D01*
X016959Y003948D01*
X016790Y004018D01*
X016607Y004018D01*
X016438Y003948D01*
X016309Y003819D01*
X016239Y003650D01*
X016239Y003467D01*
X016309Y003298D01*
X016438Y003168D01*
X016607Y003098D01*
X016790Y003098D01*
X016827Y003113D01*
X016556Y003119D02*
X015841Y003119D01*
X015790Y003098D02*
X015959Y003168D01*
X016089Y003298D01*
X016159Y003467D01*
X016159Y003650D01*
X016089Y003819D01*
X015959Y003948D01*
X015790Y004018D01*
X015607Y004018D01*
X015438Y003948D01*
X015309Y003819D01*
X015239Y003650D01*
X015239Y003467D01*
X015309Y003298D01*
X015438Y003168D01*
X015607Y003098D01*
X015790Y003098D01*
X015556Y003119D02*
X014841Y003119D01*
X015069Y003278D02*
X015329Y003278D01*
X015251Y003436D02*
X015146Y003436D01*
X015159Y003595D02*
X015239Y003595D01*
X015282Y003754D02*
X015116Y003754D01*
X014996Y003912D02*
X015402Y003912D01*
X015996Y003912D02*
X016402Y003912D01*
X016282Y003754D02*
X016116Y003754D01*
X016159Y003595D02*
X016239Y003595D01*
X016251Y003436D02*
X016146Y003436D01*
X016069Y003278D02*
X016329Y003278D01*
X017146Y003436D02*
X029089Y003436D01*
X029089Y003278D02*
X017256Y003278D01*
X017415Y003119D02*
X029089Y003119D01*
X029089Y002961D02*
X017573Y002961D01*
X017732Y002802D02*
X029089Y002802D01*
X029089Y002644D02*
X017890Y002644D01*
X018049Y002485D02*
X029089Y002485D01*
X029089Y002327D02*
X018207Y002327D01*
X018366Y002168D02*
X029089Y002168D01*
X029089Y002010D02*
X028811Y002010D01*
X028586Y002010D02*
X027811Y002010D01*
X027790Y002018D02*
X027607Y002018D01*
X027438Y001948D01*
X027309Y001819D01*
X027239Y001650D01*
X027239Y001467D01*
X027309Y001298D01*
X027438Y001168D01*
X027607Y001098D01*
X027790Y001098D01*
X027959Y001168D01*
X028089Y001298D01*
X028159Y001467D01*
X028159Y001650D01*
X028089Y001819D01*
X027959Y001948D01*
X027790Y002018D01*
X027586Y002010D02*
X026811Y002010D01*
X026790Y002018D02*
X026607Y002018D01*
X026438Y001948D01*
X026309Y001819D01*
X026239Y001650D01*
X026239Y001467D01*
X026309Y001298D01*
X026438Y001168D01*
X026607Y001098D01*
X026790Y001098D01*
X026959Y001168D01*
X027089Y001298D01*
X027159Y001467D01*
X027159Y001650D01*
X027089Y001819D01*
X026959Y001948D01*
X026790Y002018D01*
X026586Y002010D02*
X025811Y002010D01*
X025790Y002018D02*
X025607Y002018D01*
X025438Y001948D01*
X025309Y001819D01*
X025239Y001650D01*
X025239Y001467D01*
X025309Y001298D01*
X025438Y001168D01*
X025607Y001098D01*
X025790Y001098D01*
X025959Y001168D01*
X026089Y001298D01*
X026159Y001467D01*
X026159Y001650D01*
X026089Y001819D01*
X025959Y001948D01*
X025790Y002018D01*
X025586Y002010D02*
X024811Y002010D01*
X024790Y002018D02*
X024607Y002018D01*
X024438Y001948D01*
X024309Y001819D01*
X024239Y001650D01*
X024239Y001467D01*
X024309Y001298D01*
X024438Y001168D01*
X024607Y001098D01*
X024790Y001098D01*
X024959Y001168D01*
X025089Y001298D01*
X025159Y001467D01*
X025159Y001650D01*
X025089Y001819D01*
X024959Y001948D01*
X024790Y002018D01*
X024586Y002010D02*
X023811Y002010D01*
X023790Y002018D02*
X023607Y002018D01*
X023438Y001948D01*
X023309Y001819D01*
X023239Y001650D01*
X023239Y001467D01*
X023309Y001298D01*
X023438Y001168D01*
X023607Y001098D01*
X023790Y001098D01*
X023959Y001168D01*
X024089Y001298D01*
X024159Y001467D01*
X024159Y001650D01*
X024089Y001819D01*
X023959Y001948D01*
X023790Y002018D01*
X023586Y002010D02*
X021811Y002010D01*
X021790Y002018D02*
X021607Y002018D01*
X021438Y001948D01*
X021309Y001819D01*
X021239Y001650D01*
X021239Y001467D01*
X021309Y001298D01*
X021438Y001168D01*
X021607Y001098D01*
X021790Y001098D01*
X021959Y001168D01*
X022089Y001298D01*
X022159Y001467D01*
X022159Y001650D01*
X022089Y001819D01*
X021959Y001948D01*
X021790Y002018D01*
X021586Y002010D02*
X020863Y002010D01*
X020883Y002003D02*
X020811Y002026D01*
X020737Y002038D01*
X020719Y002038D01*
X020719Y001579D01*
X020679Y001579D01*
X020679Y002038D01*
X020661Y002038D01*
X020586Y002026D01*
X020515Y002003D01*
X020447Y001969D01*
X020386Y001924D01*
X020333Y001871D01*
X020288Y001810D01*
X020254Y001743D01*
X020231Y001671D01*
X020219Y001596D01*
X020219Y001578D01*
X020679Y001578D01*
X020679Y001538D01*
X020719Y001538D01*
X020719Y001078D01*
X020737Y001078D01*
X020811Y001090D01*
X020883Y001113D01*
X020950Y001148D01*
X021012Y001192D01*
X021065Y001246D01*
X021109Y001307D01*
X021144Y001374D01*
X021167Y001446D01*
X021179Y001520D01*
X021179Y001538D01*
X020719Y001538D01*
X020719Y001578D01*
X021179Y001578D01*
X021179Y001596D01*
X021167Y001671D01*
X021144Y001743D01*
X021109Y001810D01*
X021065Y001871D01*
X021012Y001924D01*
X020950Y001969D01*
X020883Y002003D01*
X020719Y002010D02*
X020679Y002010D01*
X020534Y002010D02*
X019863Y002010D01*
X019883Y002003D02*
X019811Y002026D01*
X019737Y002038D01*
X019719Y002038D01*
X019719Y001579D01*
X019679Y001579D01*
X019679Y002038D01*
X019661Y002038D01*
X019586Y002026D01*
X019515Y002003D01*
X019447Y001969D01*
X019386Y001924D01*
X019333Y001871D01*
X019288Y001810D01*
X019254Y001743D01*
X019231Y001671D01*
X019219Y001596D01*
X019219Y001578D01*
X019679Y001578D01*
X019679Y001538D01*
X019719Y001538D01*
X019719Y001078D01*
X019737Y001078D01*
X019811Y001090D01*
X019883Y001113D01*
X019950Y001148D01*
X020012Y001192D01*
X020065Y001246D01*
X020109Y001307D01*
X020144Y001374D01*
X020167Y001446D01*
X020179Y001520D01*
X020179Y001538D01*
X019719Y001538D01*
X019719Y001578D01*
X020179Y001578D01*
X020179Y001596D01*
X020167Y001671D01*
X020144Y001743D01*
X020109Y001810D01*
X020065Y001871D01*
X020012Y001924D01*
X019950Y001969D01*
X019883Y002003D01*
X019719Y002010D02*
X019679Y002010D01*
X019534Y002010D02*
X018811Y002010D01*
X018586Y002010D02*
X018525Y002010D01*
X018089Y001851D02*
X018057Y001851D01*
X018089Y001819D02*
X017959Y001948D01*
X017790Y002018D01*
X017607Y002018D01*
X017438Y001948D01*
X017309Y001819D01*
X017239Y001650D01*
X017239Y001467D01*
X017309Y001298D01*
X017438Y001168D01*
X017607Y001098D01*
X017790Y001098D01*
X017959Y001168D01*
X018089Y001298D01*
X018159Y001467D01*
X018159Y001650D01*
X018089Y001819D01*
X018141Y001692D02*
X018248Y001692D01*
X018239Y001534D02*
X018159Y001534D01*
X018121Y001375D02*
X018277Y001375D01*
X018390Y001217D02*
X018008Y001217D01*
X017390Y001217D02*
X017008Y001217D01*
X016959Y001168D02*
X017089Y001298D01*
X017159Y001467D01*
X017159Y001650D01*
X017089Y001819D01*
X016959Y001948D01*
X016790Y002018D01*
X016607Y002018D01*
X016438Y001948D01*
X016309Y001819D01*
X016239Y001650D01*
X016239Y001467D01*
X016309Y001298D01*
X016438Y001168D01*
X016607Y001098D01*
X016790Y001098D01*
X016959Y001168D01*
X017121Y001375D02*
X017277Y001375D01*
X017239Y001534D02*
X017159Y001534D01*
X017141Y001692D02*
X017257Y001692D01*
X017341Y001851D02*
X017057Y001851D01*
X016811Y002010D02*
X017586Y002010D01*
X017811Y002010D02*
X017931Y002010D01*
X017772Y002168D02*
X008359Y002168D01*
X008359Y002010D02*
X016586Y002010D01*
X016341Y001851D02*
X008325Y001851D01*
X008283Y001692D02*
X016257Y001692D01*
X016239Y001534D02*
X008195Y001534D01*
X008086Y001375D02*
X016277Y001375D01*
X016390Y001217D02*
X007928Y001217D01*
X007666Y001058D02*
X029089Y001058D01*
X029089Y001217D02*
X029008Y001217D01*
X028390Y001217D02*
X028008Y001217D01*
X028121Y001375D02*
X028277Y001375D01*
X028239Y001534D02*
X028159Y001534D01*
X028141Y001692D02*
X028257Y001692D01*
X028341Y001851D02*
X028057Y001851D01*
X027341Y001851D02*
X027057Y001851D01*
X027141Y001692D02*
X027257Y001692D01*
X027239Y001534D02*
X027159Y001534D01*
X027121Y001375D02*
X027277Y001375D01*
X027390Y001217D02*
X027008Y001217D01*
X026390Y001217D02*
X026008Y001217D01*
X026121Y001375D02*
X026277Y001375D01*
X026239Y001534D02*
X026159Y001534D01*
X026141Y001692D02*
X026257Y001692D01*
X026341Y001851D02*
X026057Y001851D01*
X025341Y001851D02*
X025057Y001851D01*
X025141Y001692D02*
X025257Y001692D01*
X025239Y001534D02*
X025159Y001534D01*
X025121Y001375D02*
X025277Y001375D01*
X025390Y001217D02*
X025008Y001217D01*
X024390Y001217D02*
X024008Y001217D01*
X024121Y001375D02*
X024277Y001375D01*
X024239Y001534D02*
X024159Y001534D01*
X024141Y001692D02*
X024257Y001692D01*
X024341Y001851D02*
X024057Y001851D01*
X023341Y001851D02*
X022057Y001851D01*
X022141Y001692D02*
X023257Y001692D01*
X023239Y001534D02*
X022159Y001534D01*
X022121Y001375D02*
X023277Y001375D01*
X023390Y001217D02*
X022008Y001217D01*
X021390Y001217D02*
X021036Y001217D01*
X021144Y001375D02*
X021277Y001375D01*
X021239Y001534D02*
X021179Y001534D01*
X021160Y001692D02*
X021257Y001692D01*
X021341Y001851D02*
X021080Y001851D01*
X020719Y001851D02*
X020679Y001851D01*
X020679Y001692D02*
X020719Y001692D01*
X020719Y001534D02*
X020679Y001534D01*
X020679Y001538D02*
X020679Y001078D01*
X020661Y001078D01*
X020586Y001090D01*
X020515Y001113D01*
X020447Y001148D01*
X020386Y001192D01*
X020333Y001246D01*
X020288Y001307D01*
X020254Y001374D01*
X020231Y001446D01*
X020219Y001520D01*
X020219Y001538D01*
X020679Y001538D01*
X020679Y001375D02*
X020719Y001375D01*
X020719Y001217D02*
X020679Y001217D01*
X020361Y001217D02*
X020036Y001217D01*
X020144Y001375D02*
X020254Y001375D01*
X020219Y001534D02*
X020179Y001534D01*
X020160Y001692D02*
X020238Y001692D01*
X020318Y001851D02*
X020080Y001851D01*
X019719Y001851D02*
X019679Y001851D01*
X019679Y001692D02*
X019719Y001692D01*
X019719Y001534D02*
X019679Y001534D01*
X019679Y001538D02*
X019679Y001078D01*
X019661Y001078D01*
X019586Y001090D01*
X019515Y001113D01*
X019447Y001148D01*
X019386Y001192D01*
X019333Y001246D01*
X019288Y001307D01*
X019254Y001374D01*
X019231Y001446D01*
X019219Y001520D01*
X019219Y001538D01*
X019679Y001538D01*
X019679Y001375D02*
X019719Y001375D01*
X019719Y001217D02*
X019679Y001217D01*
X019361Y001217D02*
X019008Y001217D01*
X019121Y001375D02*
X019254Y001375D01*
X019219Y001534D02*
X019159Y001534D01*
X019141Y001692D02*
X019238Y001692D01*
X019318Y001851D02*
X019057Y001851D01*
X017614Y002327D02*
X008347Y002327D01*
X008304Y002485D02*
X017455Y002485D01*
X017296Y002644D02*
X008241Y002644D01*
X008149Y002802D02*
X017138Y002802D01*
X017159Y003595D02*
X029089Y003595D01*
X029089Y003754D02*
X029012Y003754D01*
X028385Y003754D02*
X027012Y003754D01*
X027069Y003811D02*
X026946Y003688D01*
X026786Y003621D01*
X026612Y003621D01*
X026451Y003688D01*
X026328Y003811D01*
X026262Y003971D01*
X026262Y004145D01*
X026328Y004306D01*
X026451Y004429D01*
X026612Y004495D01*
X026786Y004495D01*
X026946Y004429D01*
X027069Y004306D01*
X027136Y004145D01*
X027136Y003971D01*
X027069Y003811D01*
X027111Y003912D02*
X028286Y003912D01*
X028262Y004071D02*
X027136Y004071D01*
X027101Y004229D02*
X028296Y004229D01*
X028410Y004388D02*
X026988Y004388D01*
X026410Y004388D02*
X024988Y004388D01*
X024946Y004429D02*
X025069Y004306D01*
X025136Y004145D01*
X025136Y003971D01*
X025069Y003811D01*
X024946Y003688D01*
X024786Y003621D01*
X024612Y003621D01*
X024451Y003688D01*
X024328Y003811D01*
X024262Y003971D01*
X024262Y004145D01*
X024328Y004306D01*
X024451Y004429D01*
X024612Y004495D01*
X024786Y004495D01*
X024946Y004429D01*
X025101Y004229D02*
X026296Y004229D01*
X026262Y004071D02*
X025136Y004071D01*
X025111Y003912D02*
X026286Y003912D01*
X026385Y003754D02*
X025012Y003754D01*
X024385Y003754D02*
X023012Y003754D01*
X023069Y003811D02*
X023136Y003971D01*
X023136Y004145D01*
X023069Y004306D01*
X022946Y004429D01*
X022786Y004495D01*
X022612Y004495D01*
X022451Y004429D01*
X022328Y004306D01*
X022262Y004145D01*
X022262Y003971D01*
X022328Y003811D01*
X022451Y003688D01*
X022612Y003621D01*
X022786Y003621D01*
X022946Y003688D01*
X023069Y003811D01*
X023111Y003912D02*
X024286Y003912D01*
X024262Y004071D02*
X023136Y004071D01*
X023101Y004229D02*
X024296Y004229D01*
X024410Y004388D02*
X022988Y004388D01*
X022410Y004388D02*
X020988Y004388D01*
X021101Y004229D02*
X022296Y004229D01*
X022262Y004071D02*
X021136Y004071D01*
X021111Y003912D02*
X022286Y003912D01*
X022385Y003754D02*
X021012Y003754D01*
X020385Y003754D02*
X017116Y003754D01*
X016996Y003912D02*
X020286Y003912D01*
X020468Y004546D02*
X029089Y004546D01*
X029089Y004388D02*
X028988Y004388D01*
X029089Y004705D02*
X020309Y004705D01*
X019544Y004863D02*
X029089Y004863D01*
X027040Y005656D02*
X019318Y005656D01*
X019380Y005815D02*
X019160Y005815D01*
X019109Y005973D02*
X019304Y005973D01*
X019301Y006132D02*
X019109Y006132D01*
X019109Y006290D02*
X019368Y006290D01*
X023025Y006766D02*
X023429Y006766D01*
X023474Y006721D02*
X023620Y006660D01*
X023778Y006660D01*
X023924Y006721D01*
X024036Y006833D01*
X024097Y006979D01*
X024097Y007137D01*
X024036Y007284D01*
X023924Y007395D01*
X023778Y007456D01*
X023620Y007456D01*
X023474Y007395D01*
X023362Y007284D01*
X023301Y007137D01*
X023301Y006979D01*
X023362Y006833D01*
X023474Y006721D01*
X023324Y006924D02*
X023117Y006924D01*
X023136Y007083D02*
X023301Y007083D01*
X023344Y007241D02*
X023096Y007241D01*
X022975Y007400D02*
X023484Y007400D01*
X023913Y007400D02*
X024422Y007400D01*
X024302Y007241D02*
X024054Y007241D01*
X024097Y007083D02*
X024262Y007083D01*
X024281Y006924D02*
X024074Y006924D01*
X023969Y006766D02*
X024373Y006766D01*
X025329Y006766D02*
X025429Y006766D01*
X028975Y007400D02*
X029089Y007400D01*
X029089Y012632D02*
X028872Y012632D01*
X029082Y012790D02*
X029089Y012790D01*
X029089Y014376D02*
X029032Y014376D01*
X018666Y020401D02*
X018614Y020401D01*
X018639Y020559D02*
X018559Y020559D01*
X018531Y020718D02*
X018667Y020718D01*
X018766Y020876D02*
X018431Y020876D01*
X017766Y020876D02*
X017431Y020876D01*
X017531Y020718D02*
X017667Y020718D01*
X017639Y020559D02*
X017559Y020559D01*
X017531Y020401D02*
X017666Y020401D01*
X017765Y020242D02*
X017433Y020242D01*
X015546Y020242D02*
X015433Y020242D01*
X014119Y020242D02*
X014079Y020242D01*
X014079Y020401D02*
X014119Y020401D01*
X014119Y020718D02*
X014079Y020718D01*
X014079Y020876D02*
X014119Y020876D01*
X014119Y021035D02*
X014079Y021035D01*
X014039Y021035D02*
X003179Y021035D01*
X013433Y020242D02*
X013736Y020242D01*
X013645Y020401D02*
X013531Y020401D01*
X014396Y018498D02*
X016929Y018498D01*
X014389Y018491D02*
X014389Y018491D01*
X006596Y003119D02*
X003179Y003119D01*
X003179Y002961D02*
X006391Y002961D01*
X006249Y002802D02*
X003179Y002802D01*
X003179Y002644D02*
X006157Y002644D01*
X006094Y002485D02*
X003179Y002485D01*
X003179Y002327D02*
X006051Y002327D01*
X006039Y002168D02*
X003179Y002168D01*
X003179Y002010D02*
X006039Y002010D01*
X006072Y001851D02*
X003179Y001851D01*
X003179Y001692D02*
X006115Y001692D01*
X006203Y001534D02*
X003179Y001534D01*
X003179Y001375D02*
X006311Y001375D01*
X006470Y001217D02*
X003179Y001217D01*
X003179Y001058D02*
X006732Y001058D01*
X029057Y001851D02*
X029089Y001851D01*
M02*
