%
M48
M72
T01C0.0240
T02C0.0276
T03C0.0354
T04C0.0400
T05C0.0472
T06C0.0512
T07C0.1300
%
T01
X19459Y7698
X21439Y9278
T02
X21699Y7058
X21699Y6058
X23699Y6058
X23699Y7058
X25699Y7058
X25699Y6058
X27699Y6058
X27699Y7058
X19699Y7058
X19699Y6058
T03
X20699Y7058
X22699Y7058
X24699Y7058
X26699Y7058
X28699Y7058
X28699Y4058
X26699Y4058
X24699Y4058
X22699Y4058
X20699Y4058
T04
X19199Y4558
X18199Y6058
X17199Y6058
X17199Y7058
X18199Y7058
X18199Y8058
X17199Y8058
X17199Y9058
X18199Y9058
X18199Y10058
X17199Y10058
X16699Y3558
X15699Y3558
X14699Y3558
X16699Y1558
X17699Y1558
X18699Y1558
X19699Y1558
X20699Y1558
X21699Y1558
X23699Y1558
X24699Y1558
X25699Y1558
X26699Y1558
X27699Y1558
X28699Y1558
X28699Y13058
X28699Y14058
X28699Y15058
X28699Y16058
X28699Y17058
X28699Y18058
X28699Y20558
X27699Y20558
X26699Y20558
X25699Y20558
X24699Y20558
X23699Y20558
X22699Y20558
X21699Y20558
X20099Y20558
X19099Y20558
X18099Y20558
X17099Y20558
X16099Y20558
X15099Y20558
X14099Y20558
X13099Y20558
X7699Y9218
X6699Y8678
X7699Y8138
X6699Y7598
X7699Y7058
X6699Y6518
X7699Y5978
X6699Y5438
X7699Y4898
T05
X4199Y14590
X3215Y14590
X6167Y16558
X4199Y18527
X3215Y18527
T06
X4199Y16558
X6167Y15574
X6167Y14590
X6167Y17543
X6167Y18527
T07
X7199Y2128
X7199Y11988
M30
