G75*
G70*
%OFA0B0*%
%FSLAX24Y24*%
%IPPOS*%
%LPD*%
%AMOC8*
5,1,8,0,0,1.08239X$1,22.5*
%
%ADD10C,0.0030*%
%ADD11C,0.0080*%
%ADD12C,0.0050*%
D10*
X014014Y004835D02*
X014076Y004773D01*
X014199Y004773D01*
X014261Y004835D01*
X014261Y005082D01*
X014199Y005144D01*
X014076Y005144D01*
X014014Y005082D01*
X014014Y004835D01*
X014382Y004958D02*
X014506Y004958D01*
X014628Y004958D02*
X014751Y004958D01*
X014689Y005082D02*
X014689Y004773D01*
X014444Y004773D02*
X014444Y005082D01*
X014506Y005144D01*
X014689Y005082D02*
X014751Y005144D01*
X016814Y005082D02*
X016814Y004835D01*
X016876Y004773D01*
X016999Y004773D01*
X017061Y004835D01*
X017061Y005082D01*
X016999Y005144D01*
X016876Y005144D01*
X016814Y005082D01*
X017182Y005020D02*
X017367Y005020D01*
X017429Y004958D01*
X017429Y004773D01*
X017182Y004773D02*
X017182Y005020D01*
X019514Y003195D02*
X019514Y003010D01*
X019884Y003010D01*
X019884Y003195D01*
X019822Y003257D01*
X019575Y003257D01*
X019514Y003195D01*
X019514Y002888D02*
X019884Y002888D01*
X019514Y002642D01*
X019884Y002642D01*
X019822Y002520D02*
X019699Y002520D01*
X019699Y002397D01*
X019822Y002520D02*
X019884Y002458D01*
X019884Y002335D01*
X019822Y002273D01*
X019575Y002273D01*
X019514Y002335D01*
X019514Y002458D01*
X019575Y002520D01*
X018884Y002458D02*
X018884Y002335D01*
X018822Y002273D01*
X018699Y002273D02*
X018637Y002397D01*
X018637Y002458D01*
X018699Y002520D01*
X018822Y002520D01*
X018884Y002458D01*
X018760Y002642D02*
X018884Y002765D01*
X018760Y002888D01*
X018514Y002888D01*
X018514Y002642D02*
X018760Y002642D01*
X018514Y002520D02*
X018514Y002273D01*
X018699Y002273D01*
X020514Y002335D02*
X020575Y002273D01*
X020822Y002273D01*
X020884Y002335D01*
X020884Y002458D01*
X020822Y002520D01*
X020699Y002520D01*
X020699Y002397D01*
X020575Y002520D02*
X020514Y002458D01*
X020514Y002335D01*
X020514Y002642D02*
X020884Y002888D01*
X020514Y002888D01*
X020514Y003010D02*
X020514Y003195D01*
X020575Y003257D01*
X020822Y003257D01*
X020884Y003195D01*
X020884Y003010D01*
X020514Y003010D01*
X020514Y002642D02*
X020884Y002642D01*
X019099Y006873D02*
X019099Y007244D01*
X018914Y007058D01*
X019161Y007058D01*
X019099Y007873D02*
X018976Y007873D01*
X018914Y007935D01*
X019037Y008058D02*
X019099Y008058D01*
X019161Y007997D01*
X019161Y007935D01*
X019099Y007873D01*
X019099Y008058D02*
X019161Y008120D01*
X019161Y008182D01*
X019099Y008244D01*
X018976Y008244D01*
X018914Y008182D01*
X018914Y008873D02*
X019161Y009120D01*
X019161Y009182D01*
X019099Y009244D01*
X018976Y009244D01*
X018914Y009182D01*
X018914Y008873D02*
X019161Y008873D01*
X019161Y009873D02*
X018914Y009873D01*
X019037Y009873D02*
X019037Y010244D01*
X018914Y010120D01*
X018595Y010773D02*
X018471Y010773D01*
X018533Y010773D02*
X018533Y011144D01*
X018471Y011144D01*
X018288Y011020D02*
X018165Y011020D01*
X018288Y011020D02*
X018350Y010958D01*
X018350Y010773D01*
X018165Y010773D01*
X018103Y010835D01*
X018165Y010897D01*
X018350Y010897D01*
X017981Y010773D02*
X017857Y010773D01*
X017919Y010773D02*
X017919Y011020D01*
X017857Y011020D01*
X017736Y011020D02*
X017674Y011020D01*
X017551Y010897D01*
X017429Y010897D02*
X017182Y010897D01*
X017182Y010958D02*
X017244Y011020D01*
X017367Y011020D01*
X017429Y010958D01*
X017429Y010897D01*
X017367Y010773D02*
X017244Y010773D01*
X017182Y010835D01*
X017182Y010958D01*
X017061Y010897D02*
X017061Y010835D01*
X016999Y010773D01*
X016876Y010773D01*
X016814Y010835D01*
X016876Y010958D02*
X016999Y010958D01*
X017061Y010897D01*
X017061Y011082D02*
X016999Y011144D01*
X016876Y011144D01*
X016814Y011082D01*
X016814Y011020D01*
X016876Y010958D01*
X017551Y011020D02*
X017551Y010773D01*
X017919Y011144D02*
X017919Y011205D01*
X016436Y007244D02*
X016251Y007244D01*
X016251Y006873D01*
X016436Y006873D01*
X016497Y006935D01*
X016497Y007182D01*
X016436Y007244D01*
X016129Y007244D02*
X016129Y006873D01*
X015882Y007244D01*
X015882Y006873D01*
X015761Y006935D02*
X015761Y007058D01*
X015637Y007058D01*
X015514Y006935D02*
X015514Y007182D01*
X015576Y007244D01*
X015699Y007244D01*
X015761Y007182D01*
X015761Y006935D02*
X015699Y006873D01*
X015576Y006873D01*
X015514Y006935D01*
X026414Y011973D02*
X026599Y011973D01*
X026661Y012035D01*
X026661Y012097D01*
X026599Y012158D01*
X026414Y012158D01*
X026414Y011973D02*
X026414Y012344D01*
X026599Y012344D01*
X026661Y012282D01*
X026661Y012220D01*
X026599Y012158D01*
X026782Y011973D02*
X026906Y011973D01*
X026844Y011973D02*
X026844Y012344D01*
X026782Y012344D01*
X027028Y012220D02*
X027028Y012035D01*
X027089Y011973D01*
X027275Y011973D01*
X027275Y012220D01*
X027396Y012158D02*
X027396Y012035D01*
X027458Y011973D01*
X027581Y011973D01*
X027643Y012097D02*
X027396Y012097D01*
X027396Y012158D02*
X027458Y012220D01*
X027581Y012220D01*
X027643Y012158D01*
X027643Y012097D01*
X027764Y012220D02*
X027888Y012220D01*
X027826Y012282D02*
X027826Y012035D01*
X027888Y011973D01*
X028010Y012035D02*
X028010Y012158D01*
X028072Y012220D01*
X028195Y012220D01*
X028257Y012158D01*
X028257Y012035D01*
X028195Y011973D01*
X028072Y011973D01*
X028010Y012035D01*
X028378Y012035D02*
X028378Y012158D01*
X028440Y012220D01*
X028563Y012220D01*
X028625Y012158D01*
X028625Y012035D01*
X028563Y011973D01*
X028440Y011973D01*
X028378Y012035D01*
X028746Y012220D02*
X028870Y012220D01*
X028808Y012282D02*
X028808Y012035D01*
X028870Y011973D01*
X028992Y011973D02*
X028992Y012344D01*
X029054Y012220D02*
X029177Y012220D01*
X029239Y012158D01*
X029239Y011973D01*
X028992Y012158D02*
X029054Y012220D01*
X028011Y012873D02*
X027887Y012873D01*
X027949Y012873D02*
X027949Y013244D01*
X027887Y013244D02*
X028011Y013244D01*
X027766Y013058D02*
X027519Y013058D01*
X027397Y012997D02*
X027397Y012935D01*
X027336Y012873D01*
X027212Y012873D01*
X027151Y012935D01*
X027212Y013058D02*
X027336Y013058D01*
X027397Y012997D01*
X027397Y013182D02*
X027336Y013244D01*
X027212Y013244D01*
X027151Y013182D01*
X027151Y013120D01*
X027212Y013058D01*
X027029Y013244D02*
X026782Y013244D01*
X026906Y013244D02*
X026906Y012873D01*
X026661Y012935D02*
X026599Y012873D01*
X026476Y012873D01*
X026414Y012935D01*
X026414Y013182D01*
X026476Y013244D01*
X026599Y013244D01*
X026661Y013182D01*
X027137Y013873D02*
X027261Y013997D01*
X027261Y014244D01*
X027382Y014182D02*
X027382Y013935D01*
X027444Y013873D01*
X027567Y013873D01*
X027629Y013935D01*
X027751Y013935D02*
X027812Y013873D01*
X027936Y013873D01*
X027997Y013935D01*
X027751Y013935D02*
X027751Y014182D01*
X027812Y014244D01*
X027936Y014244D01*
X027997Y014182D01*
X027629Y014182D02*
X027567Y014244D01*
X027444Y014244D01*
X027382Y014182D01*
X027014Y014244D02*
X027014Y013997D01*
X027137Y013873D01*
X027076Y014873D02*
X027014Y014935D01*
X027014Y015182D01*
X027076Y015244D01*
X027199Y015244D01*
X027261Y015182D01*
X027261Y015058D02*
X027137Y015058D01*
X027261Y015058D02*
X027261Y014935D01*
X027199Y014873D01*
X027076Y014873D01*
X027382Y014873D02*
X027382Y015244D01*
X027629Y014873D01*
X027629Y015244D01*
X027751Y015244D02*
X027936Y015244D01*
X027997Y015182D01*
X027997Y014935D01*
X027936Y014873D01*
X027751Y014873D01*
X027751Y015244D01*
X027781Y015873D02*
X027904Y015873D01*
X027966Y015935D01*
X027966Y016182D01*
X027904Y016244D01*
X027781Y016244D01*
X027719Y016182D01*
X027719Y015935D01*
X027781Y015873D01*
X027597Y016058D02*
X027351Y016058D01*
X027229Y015873D02*
X026982Y016244D01*
X026861Y016244D02*
X026614Y016244D01*
X026737Y016244D02*
X026737Y015873D01*
X026982Y015873D02*
X027229Y016244D01*
X027329Y016873D02*
X027082Y017244D01*
X026961Y017182D02*
X026961Y017058D01*
X026899Y016997D01*
X026714Y016997D01*
X026837Y016997D02*
X026961Y016873D01*
X027082Y016873D02*
X027329Y017244D01*
X027451Y017058D02*
X027697Y017058D01*
X027819Y016873D02*
X027942Y016873D01*
X027881Y016873D02*
X027881Y017244D01*
X027942Y017244D02*
X027819Y017244D01*
X027872Y017873D02*
X027934Y017935D01*
X027934Y018182D01*
X027872Y018244D01*
X027749Y018244D01*
X027687Y018182D01*
X027687Y017935D01*
X027749Y017873D01*
X027872Y017873D01*
X027566Y018058D02*
X027319Y018058D01*
X027197Y017997D02*
X027197Y017935D01*
X027136Y017873D01*
X027012Y017873D01*
X026951Y017935D01*
X027012Y018058D02*
X027136Y018058D01*
X027197Y017997D01*
X027197Y018182D02*
X027136Y018244D01*
X027012Y018244D01*
X026951Y018182D01*
X026951Y018120D01*
X027012Y018058D01*
X026829Y018244D02*
X026582Y018244D01*
X026706Y018244D02*
X026706Y017873D01*
X026461Y017873D02*
X026337Y017997D01*
X026399Y017997D02*
X026214Y017997D01*
X026214Y017873D02*
X026214Y018244D01*
X026399Y018244D01*
X026461Y018182D01*
X026461Y018058D01*
X026399Y017997D01*
X026714Y017244D02*
X026899Y017244D01*
X026961Y017182D01*
X026714Y017244D02*
X026714Y016873D01*
X020284Y018873D02*
X020284Y019058D01*
X020222Y019120D01*
X019975Y019120D01*
X019914Y019058D01*
X019914Y018873D01*
X020284Y018873D01*
X020222Y019242D02*
X020160Y019242D01*
X020099Y019303D01*
X020099Y019427D01*
X020160Y019488D01*
X020222Y019488D01*
X020284Y019427D01*
X020284Y019303D01*
X020222Y019242D01*
X020099Y019303D02*
X020037Y019242D01*
X019975Y019242D01*
X019914Y019303D01*
X019914Y019427D01*
X019975Y019488D01*
X020037Y019488D01*
X020099Y019427D01*
X019284Y019427D02*
X019284Y019303D01*
X019222Y019242D01*
X019222Y019120D02*
X018975Y019120D01*
X018914Y019058D01*
X018914Y018873D01*
X019284Y018873D01*
X019284Y019058D01*
X019222Y019120D01*
X019099Y019303D02*
X019099Y019488D01*
X019222Y019488D02*
X018975Y019488D01*
X018914Y019427D01*
X018914Y019303D01*
X018975Y019242D01*
X019037Y019242D01*
X019099Y019303D01*
X019284Y019427D02*
X019222Y019488D01*
X018284Y019488D02*
X018284Y019242D01*
X018284Y019365D02*
X017914Y019365D01*
X018037Y019242D01*
X017975Y019120D02*
X017914Y019058D01*
X017914Y018873D01*
X018284Y018873D01*
X018284Y019058D01*
X018222Y019120D01*
X017975Y019120D01*
X017975Y019610D02*
X017914Y019672D01*
X017914Y019795D01*
X017975Y019857D01*
X018222Y019610D01*
X018284Y019672D01*
X018284Y019795D01*
X018222Y019857D01*
X017975Y019857D01*
X017975Y019610D02*
X018222Y019610D01*
X017284Y019610D02*
X017284Y019857D01*
X017284Y019733D02*
X016914Y019733D01*
X017037Y019610D01*
X016914Y019365D02*
X017284Y019365D01*
X017284Y019242D02*
X017284Y019488D01*
X017037Y019242D02*
X016914Y019365D01*
X016975Y019120D02*
X016914Y019058D01*
X016914Y018873D01*
X017284Y018873D01*
X017284Y019058D01*
X017222Y019120D01*
X016975Y019120D01*
X014284Y019058D02*
X014284Y018935D01*
X014222Y018873D01*
X013975Y018873D01*
X013914Y018935D01*
X013914Y019058D01*
X013975Y019120D01*
X014099Y019120D02*
X014099Y018997D01*
X014099Y019120D02*
X014222Y019120D01*
X014284Y019058D01*
X014284Y019242D02*
X013914Y019242D01*
X014284Y019488D01*
X013914Y019488D01*
X013914Y019610D02*
X013914Y019795D01*
X013975Y019857D01*
X014222Y019857D01*
X014284Y019795D01*
X014284Y019610D01*
X013914Y019610D01*
X013184Y019495D02*
X013184Y019310D01*
X012814Y019310D01*
X012814Y019495D01*
X012875Y019557D01*
X013122Y019557D01*
X013184Y019495D01*
X013184Y019188D02*
X012814Y019188D01*
X012814Y018942D02*
X013184Y019188D01*
X013184Y018942D02*
X012814Y018942D01*
X012875Y018820D02*
X012814Y018758D01*
X012814Y018635D01*
X012875Y018573D01*
X013122Y018573D01*
X013184Y018635D01*
X013184Y018758D01*
X013122Y018820D01*
X012999Y018820D01*
X012999Y018697D01*
X007398Y019635D02*
X007337Y019573D01*
X007213Y019573D01*
X007151Y019635D01*
X007398Y019882D01*
X007398Y019635D01*
X007151Y019635D02*
X007151Y019882D01*
X007213Y019944D01*
X007337Y019944D01*
X007398Y019882D01*
X007030Y019573D02*
X006783Y019573D01*
X006906Y019573D02*
X006906Y019944D01*
X006783Y019820D01*
X006662Y019882D02*
X006415Y019635D01*
X006476Y019573D01*
X006600Y019573D01*
X006662Y019635D01*
X006662Y019882D01*
X006600Y019944D01*
X006476Y019944D01*
X006415Y019882D01*
X006415Y019635D01*
X006293Y019573D02*
X006046Y019573D01*
X006293Y019820D01*
X006293Y019882D01*
X006232Y019944D01*
X006108Y019944D01*
X006046Y019882D01*
X005556Y019635D02*
X005494Y019635D01*
X005494Y019573D01*
X005556Y019573D01*
X005556Y019635D01*
X005556Y019573D02*
X005433Y019450D01*
X005249Y019573D02*
X005126Y019573D01*
X005064Y019635D01*
X005188Y019758D02*
X005249Y019758D01*
X005311Y019697D01*
X005311Y019635D01*
X005249Y019573D01*
X005249Y019758D02*
X005311Y019820D01*
X005311Y019882D01*
X005249Y019944D01*
X005126Y019944D01*
X005064Y019882D01*
X004574Y019820D02*
X004451Y019820D01*
X004512Y019882D02*
X004512Y019635D01*
X004574Y019573D01*
X004329Y019573D02*
X004144Y019573D01*
X004082Y019635D01*
X004082Y019758D01*
X004144Y019820D01*
X004329Y019820D01*
X003961Y019882D02*
X003899Y019944D01*
X003776Y019944D01*
X003714Y019882D01*
X003714Y019635D01*
X003776Y019573D01*
X003899Y019573D01*
X003961Y019635D01*
X003961Y019882D01*
X003837Y020573D02*
X003837Y020944D01*
X003714Y020944D02*
X003961Y020944D01*
X004144Y020820D02*
X004267Y020820D01*
X004329Y020758D01*
X004329Y020697D01*
X004082Y020697D01*
X004082Y020758D02*
X004082Y020635D01*
X004144Y020573D01*
X004267Y020573D01*
X004451Y020635D02*
X004512Y020573D01*
X004697Y020573D01*
X004819Y020573D02*
X004942Y020573D01*
X004881Y020573D02*
X004881Y020944D01*
X004819Y020944D01*
X004697Y020820D02*
X004512Y020820D01*
X004451Y020758D01*
X004451Y020635D01*
X004144Y020820D02*
X004082Y020758D01*
X005064Y020635D02*
X005126Y020697D01*
X005311Y020697D01*
X005311Y020758D02*
X005311Y020573D01*
X005126Y020573D01*
X005064Y020635D01*
X005126Y020820D02*
X005249Y020820D01*
X005311Y020758D01*
D11*
X005577Y018920D02*
X002821Y018920D01*
X002821Y014196D01*
X005577Y014196D01*
X006758Y014196D02*
X007152Y014196D01*
X007152Y018920D01*
X006758Y018920D01*
X012599Y020308D02*
X012849Y020058D01*
X013349Y020058D01*
X013599Y020308D01*
X013849Y020058D01*
X014349Y020058D01*
X014599Y020308D01*
X014849Y020058D01*
X015349Y020058D01*
X015599Y020308D01*
X015849Y020058D01*
X016349Y020058D01*
X016599Y020308D01*
X016849Y020058D01*
X017349Y020058D01*
X017599Y020308D01*
X017849Y020058D01*
X018349Y020058D01*
X018599Y020308D01*
X018849Y020058D01*
X019349Y020058D01*
X019599Y020308D01*
X019849Y020058D01*
X020349Y020058D01*
X020599Y020308D01*
X020599Y020808D01*
X020349Y021058D01*
X019849Y021058D01*
X019599Y020808D01*
X019349Y021058D01*
X018849Y021058D01*
X018599Y020808D01*
X018349Y021058D01*
X017849Y021058D01*
X017599Y020808D01*
X017349Y021058D01*
X016849Y021058D01*
X016599Y020808D01*
X016349Y021058D01*
X015849Y021058D01*
X015599Y020808D01*
X015349Y021058D01*
X014849Y021058D01*
X014599Y020808D01*
X014349Y021058D01*
X013849Y021058D01*
X013599Y020808D01*
X013349Y021058D01*
X012849Y021058D01*
X012599Y020808D01*
X012599Y020308D01*
X021199Y020308D02*
X021449Y020058D01*
X021949Y020058D01*
X022199Y020308D01*
X022449Y020058D01*
X022949Y020058D01*
X023199Y020308D01*
X023449Y020058D01*
X023949Y020058D01*
X024199Y020308D01*
X024449Y020058D01*
X024949Y020058D01*
X025199Y020308D01*
X025449Y020058D01*
X025949Y020058D01*
X026199Y020308D01*
X026449Y020058D01*
X026949Y020058D01*
X027199Y020308D01*
X027449Y020058D01*
X027949Y020058D01*
X028199Y020308D01*
X028449Y020058D01*
X028949Y020058D01*
X029199Y020308D01*
X029199Y020808D01*
X028949Y021058D01*
X028449Y021058D01*
X028199Y020808D01*
X027949Y021058D01*
X027449Y021058D01*
X027199Y020808D01*
X026949Y021058D01*
X026449Y021058D01*
X026199Y020808D01*
X025949Y021058D01*
X025449Y021058D01*
X025199Y020808D01*
X024949Y021058D01*
X024449Y021058D01*
X024199Y020808D01*
X023949Y021058D01*
X023449Y021058D01*
X023199Y020808D01*
X022949Y021058D01*
X022449Y021058D01*
X022199Y020808D01*
X021949Y021058D01*
X021449Y021058D01*
X021199Y020808D01*
X021199Y020308D01*
X028199Y018308D02*
X028199Y017808D01*
X028449Y017558D01*
X028199Y017308D01*
X028199Y016808D01*
X028449Y016558D01*
X028199Y016308D01*
X028199Y015808D01*
X028449Y015558D01*
X028199Y015308D01*
X028199Y014808D01*
X028449Y014558D01*
X028199Y014308D01*
X028199Y013808D01*
X028449Y013558D01*
X028199Y013308D01*
X028199Y012808D01*
X028449Y012558D01*
X028949Y012558D01*
X029199Y012808D01*
X029199Y013308D01*
X028949Y013558D01*
X029199Y013808D01*
X029199Y014308D01*
X028949Y014558D01*
X029199Y014808D01*
X029199Y015308D01*
X028949Y015558D01*
X029199Y015808D01*
X029199Y016308D01*
X028949Y016558D01*
X029199Y016808D01*
X029199Y017308D01*
X028949Y017558D01*
X029199Y017808D01*
X029199Y018308D01*
X028949Y018558D01*
X028449Y018558D01*
X028199Y018308D01*
X018699Y010308D02*
X018449Y010558D01*
X017949Y010558D01*
X017699Y010308D01*
X017449Y010558D01*
X016949Y010558D01*
X016699Y010308D01*
X016699Y009808D01*
X016949Y009558D01*
X016699Y009308D01*
X016699Y008808D01*
X016949Y008558D01*
X016699Y008308D01*
X016699Y007808D01*
X016949Y007558D01*
X016699Y007308D01*
X016699Y006808D01*
X016949Y006558D01*
X016699Y006308D01*
X016699Y005808D01*
X016949Y005558D01*
X017449Y005558D01*
X017699Y005808D01*
X017699Y006308D01*
X017449Y006558D01*
X017699Y006808D01*
X017699Y007308D01*
X017449Y007558D01*
X017699Y007808D01*
X017699Y008308D01*
X017449Y008558D01*
X017699Y008808D01*
X017699Y009308D01*
X017449Y009558D01*
X017699Y009808D01*
X017699Y010308D01*
X017699Y009808D01*
X017949Y009558D01*
X017699Y009308D01*
X017699Y008808D01*
X017949Y008558D01*
X017699Y008308D01*
X017699Y007808D01*
X017949Y007558D01*
X017699Y007308D01*
X017699Y006808D01*
X017949Y006558D01*
X017699Y006308D01*
X017699Y005808D01*
X017949Y005558D01*
X018449Y005558D01*
X018699Y005808D01*
X018699Y006308D01*
X018449Y006558D01*
X018699Y006808D01*
X018699Y007308D01*
X018449Y007558D01*
X018699Y007808D01*
X018699Y008308D01*
X018449Y008558D01*
X018699Y008808D01*
X018699Y009308D01*
X018449Y009558D01*
X018699Y009808D01*
X018699Y010308D01*
X020699Y006658D02*
X020699Y006558D01*
X020999Y006558D01*
X020999Y004558D01*
X020699Y004558D01*
X020699Y004458D01*
X020699Y004558D02*
X020399Y004558D01*
X020399Y006558D01*
X020699Y006558D01*
X021449Y006558D02*
X021949Y006558D01*
X022399Y006558D02*
X022699Y006558D01*
X022699Y006658D01*
X022699Y006558D02*
X022999Y006558D01*
X022999Y004558D01*
X022699Y004558D01*
X022699Y004458D01*
X022699Y004558D02*
X022399Y004558D01*
X022399Y006558D01*
X023449Y006558D02*
X023949Y006558D01*
X024399Y006558D02*
X024699Y006558D01*
X024699Y006658D01*
X024699Y006558D02*
X024999Y006558D01*
X024999Y004558D01*
X024699Y004558D01*
X024699Y004458D01*
X024699Y004558D02*
X024399Y004558D01*
X024399Y006558D01*
X025449Y006558D02*
X025949Y006558D01*
X026399Y006558D02*
X026699Y006558D01*
X026699Y006658D01*
X026699Y006558D02*
X026999Y006558D01*
X026999Y004558D01*
X026699Y004558D01*
X026699Y004458D01*
X026699Y004558D02*
X026399Y004558D01*
X026399Y006558D01*
X027449Y006558D02*
X027949Y006558D01*
X028399Y006558D02*
X028699Y006558D01*
X028699Y006658D01*
X028699Y006558D02*
X028999Y006558D01*
X028999Y004558D01*
X028699Y004558D01*
X028699Y004458D01*
X028699Y004558D02*
X028399Y004558D01*
X028399Y006558D01*
X028449Y002058D02*
X028949Y002058D01*
X029199Y001808D01*
X029199Y001308D01*
X028949Y001058D01*
X028449Y001058D01*
X028199Y001308D01*
X027949Y001058D01*
X027449Y001058D01*
X027199Y001308D01*
X026949Y001058D01*
X026449Y001058D01*
X026199Y001308D01*
X025949Y001058D01*
X025449Y001058D01*
X025199Y001308D01*
X024949Y001058D01*
X024449Y001058D01*
X024199Y001308D01*
X023949Y001058D01*
X023449Y001058D01*
X023199Y001308D01*
X023199Y001808D01*
X023449Y002058D01*
X023949Y002058D01*
X024199Y001808D01*
X024449Y002058D01*
X024949Y002058D01*
X025199Y001808D01*
X025449Y002058D01*
X025949Y002058D01*
X026199Y001808D01*
X026449Y002058D01*
X026949Y002058D01*
X027199Y001808D01*
X027449Y002058D01*
X027949Y002058D01*
X028199Y001808D01*
X028449Y002058D01*
X022199Y001808D02*
X022199Y001308D01*
X021949Y001058D01*
X021449Y001058D01*
X021199Y001308D01*
X020949Y001058D01*
X020449Y001058D01*
X020199Y001308D01*
X019949Y001058D01*
X019449Y001058D01*
X019199Y001308D01*
X018949Y001058D01*
X018449Y001058D01*
X018199Y001308D01*
X017949Y001058D01*
X017449Y001058D01*
X017199Y001308D01*
X016949Y001058D01*
X016449Y001058D01*
X016199Y001308D01*
X016199Y001808D01*
X016449Y002058D01*
X016949Y002058D01*
X017199Y001808D01*
X017449Y002058D01*
X017949Y002058D01*
X018199Y001808D01*
X018449Y002058D01*
X018949Y002058D01*
X019199Y001808D01*
X019449Y002058D01*
X019949Y002058D01*
X020199Y001808D01*
X020449Y002058D01*
X020949Y002058D01*
X021199Y001808D01*
X021449Y002058D01*
X021949Y002058D01*
X022199Y001808D01*
X019699Y004308D02*
X019449Y004058D01*
X018949Y004058D01*
X018699Y004308D01*
X018699Y004808D01*
X018949Y005058D01*
X019449Y005058D01*
X019699Y004808D01*
X019699Y004308D01*
X019949Y006558D02*
X019449Y006558D01*
D12*
X017988Y002702D02*
X013410Y002702D01*
X013410Y004415D01*
X017988Y004415D01*
X017988Y002702D01*
M02*
