%
M48
M72
T01C0.0240
T02C0.0335
T03C0.0400
T04C0.1300
%
T01
X12185Y3674
X14185Y5274
X15945Y5274
X18665Y5274
X20185Y6234
X21225Y5674
X21225Y8074
T02
X12295Y2554
X11114Y2554
T03
X6705Y5434
X7705Y4894
X7705Y5974
X6705Y6514
X7705Y7054
X6705Y7594
X7705Y8134
X6705Y8674
X7705Y9214
X10705Y9554
X11705Y9554
X11705Y10554
X10705Y10554
X10705Y8554
X11705Y8554
X11705Y7554
X10705Y7554
X10705Y6554
X11705Y6554
X15205Y9054
X15205Y1554
X16205Y1554
X17205Y1554
X18205Y1554
X19205Y1554
X20205Y1554
X22205Y1554
X23205Y1554
X24205Y1554
X25205Y1554
X26205Y1554
X27205Y1554
X27205Y13054
X27205Y14054
X27205Y15054
X27205Y16054
X27205Y17054
X27205Y18054
X27205Y20554
X26205Y20554
X25205Y20554
X24205Y20554
X23205Y20554
X22205Y20554
X21205Y20554
X20205Y20554
X18605Y20554
X17605Y20554
X16605Y20554
X15605Y20554
X14605Y20554
X13605Y20554
X12605Y20554
X11605Y20554
T04
X7205Y11984
X7205Y2124
M30
