G75*
G70*
%OFA0B0*%
%FSLAX24Y24*%
%IPPOS*%
%LPD*%
%AMOC8*
5,1,8,0,0,1.08239X$1,22.5*
%
%ADD10OC8,0.0600*%
%ADD11C,0.2000*%
%ADD12C,0.0600*%
%ADD13C,0.0100*%
%ADD14C,0.0400*%
%ADD15C,0.0160*%
D10*
X006705Y005434D03*
X007705Y004894D03*
X007705Y005974D03*
X006705Y006514D03*
X007705Y007054D03*
X006705Y007594D03*
X007705Y008134D03*
X006705Y008674D03*
X007705Y009214D03*
D11*
X007205Y011984D03*
X007205Y002124D03*
D12*
X010705Y006554D03*
X011705Y006554D03*
X011705Y007554D03*
X010705Y007554D03*
X010705Y008554D03*
X011705Y008554D03*
X011705Y009554D03*
X010705Y009554D03*
X010705Y010554D03*
X011705Y010554D03*
X015205Y009054D03*
X015205Y001554D03*
X016205Y001554D03*
X017205Y001554D03*
X018205Y001554D03*
X019205Y001554D03*
X020205Y001554D03*
X022205Y001554D03*
X023205Y001554D03*
X024205Y001554D03*
X025205Y001554D03*
X026205Y001554D03*
X027205Y001554D03*
X027205Y013054D03*
X027205Y014054D03*
X027205Y015054D03*
X027205Y016054D03*
X027205Y017054D03*
X027205Y018054D03*
X027205Y020554D03*
X026205Y020554D03*
X025205Y020554D03*
X024205Y020554D03*
X023205Y020554D03*
X022205Y020554D03*
X021205Y020554D03*
X020205Y020554D03*
X018605Y020554D03*
X017605Y020554D03*
X016605Y020554D03*
X015605Y020554D03*
X014605Y020554D03*
X013605Y020554D03*
X012605Y020554D03*
X011605Y020554D03*
D13*
X014605Y020554D02*
X014665Y020554D01*
X014665Y009194D01*
X014905Y009194D01*
X014985Y009114D01*
X015145Y009114D01*
X015205Y009054D01*
X017545Y008234D02*
X018185Y008234D01*
X020185Y006234D01*
X020585Y005834D02*
X020585Y018634D01*
X018665Y020554D01*
X018605Y020554D01*
X017605Y020554D02*
X017545Y020554D01*
X017545Y008234D01*
X012265Y008234D01*
X011945Y008554D01*
X011705Y008554D01*
X011545Y008714D01*
X011225Y008714D01*
X010905Y009034D01*
X009625Y009034D01*
X007705Y007114D01*
X007705Y007054D01*
X007705Y005974D02*
X007705Y005914D01*
X007865Y005754D01*
X012025Y005754D01*
X012905Y006634D01*
X013705Y005834D01*
X020585Y005834D01*
X021065Y005834D01*
X021225Y005674D01*
X018665Y005274D02*
X015945Y005274D01*
X014185Y005274D01*
X013785Y005274D01*
X012185Y003674D01*
X012905Y006634D02*
X011945Y007594D01*
X011705Y007594D01*
X011705Y007554D01*
X011705Y010554D02*
X011705Y010714D01*
X011065Y011354D01*
X009785Y011354D01*
X007705Y009274D01*
X007705Y009214D01*
X021225Y008074D02*
X027205Y014054D01*
X027205Y017054D02*
X026345Y017914D01*
X026345Y020554D01*
X026205Y020554D01*
D14*
X021225Y008074D03*
X020185Y006234D03*
X021225Y005674D03*
X018665Y005274D03*
X015945Y005274D03*
X014185Y005274D03*
X012185Y003674D03*
D15*
X006185Y002757D02*
X006185Y011351D01*
X006244Y011247D01*
X006468Y011024D01*
X006741Y010866D01*
X007047Y010784D01*
X007363Y010784D01*
X007668Y010866D01*
X007941Y011024D01*
X008165Y011247D01*
X008323Y011521D01*
X008405Y011826D01*
X008405Y012142D01*
X008323Y012447D01*
X008165Y012721D01*
X007941Y012945D01*
X007668Y013103D01*
X007363Y013184D01*
X007047Y013184D01*
X006741Y013103D01*
X006468Y012945D01*
X006244Y012721D01*
X006185Y012617D01*
X006185Y021070D01*
X027595Y021070D01*
X027595Y020871D01*
X027488Y020978D01*
X027304Y021054D01*
X027105Y021054D01*
X026921Y020978D01*
X026781Y020838D01*
X026705Y020654D01*
X026705Y020455D01*
X026781Y020271D01*
X026921Y020130D01*
X027105Y020054D01*
X027304Y020054D01*
X027488Y020130D01*
X027595Y020237D01*
X027595Y018371D01*
X027488Y018478D01*
X027304Y018554D01*
X027105Y018554D01*
X026921Y018478D01*
X026781Y018338D01*
X026705Y018154D01*
X026705Y017955D01*
X026738Y017874D01*
X026595Y018018D01*
X026595Y020237D01*
X026628Y020271D01*
X026705Y020455D01*
X026705Y020654D01*
X026628Y020838D01*
X026488Y020978D01*
X026304Y021054D01*
X026105Y021054D01*
X025921Y020978D01*
X025781Y020838D01*
X025705Y020654D01*
X025705Y020455D01*
X025781Y020271D01*
X025921Y020130D01*
X026095Y020059D01*
X026095Y017964D01*
X026095Y017865D01*
X026133Y017773D01*
X026718Y017187D01*
X026705Y017154D01*
X026705Y016955D01*
X026781Y016771D01*
X026921Y016630D01*
X027105Y016554D01*
X026921Y016478D01*
X026781Y016338D01*
X026705Y016154D01*
X026705Y015955D01*
X026781Y015771D01*
X026921Y015630D01*
X027105Y015554D01*
X027304Y015554D01*
X027488Y015630D01*
X027595Y015737D01*
X027595Y015334D01*
X027571Y015367D01*
X027517Y015420D01*
X027456Y015465D01*
X027389Y015499D01*
X027317Y015522D01*
X027242Y015534D01*
X027225Y015534D01*
X027225Y015075D01*
X027184Y015075D01*
X027184Y015534D01*
X027167Y015534D01*
X027092Y015522D01*
X027020Y015499D01*
X026953Y015465D01*
X026892Y015420D01*
X026838Y015367D01*
X026794Y015306D01*
X026760Y015239D01*
X026736Y015167D01*
X026725Y015092D01*
X026725Y015074D01*
X027184Y015074D01*
X027184Y015034D01*
X026725Y015034D01*
X026725Y015017D01*
X026736Y014942D01*
X026760Y014870D01*
X026794Y014803D01*
X026838Y014742D01*
X026892Y014688D01*
X026953Y014644D01*
X027020Y014609D01*
X027092Y014586D01*
X027167Y014574D01*
X027184Y014574D01*
X027184Y015034D01*
X027225Y015034D01*
X027225Y014574D01*
X027242Y014574D01*
X027317Y014586D01*
X027389Y014609D01*
X027456Y014644D01*
X027517Y014688D01*
X027571Y014742D01*
X027595Y014775D01*
X027595Y014371D01*
X027488Y014478D01*
X027304Y014554D01*
X027105Y014554D01*
X026921Y014478D01*
X026781Y014338D01*
X026705Y014154D01*
X026705Y013955D01*
X026718Y013922D01*
X021271Y008474D01*
X021145Y008474D01*
X020998Y008413D01*
X020885Y008301D01*
X020835Y008178D01*
X020835Y018684D01*
X020796Y018776D01*
X020726Y018846D01*
X019105Y020468D01*
X019105Y020654D01*
X019028Y020838D01*
X018888Y020978D01*
X018704Y021054D01*
X018505Y021054D01*
X018321Y020978D01*
X018181Y020838D01*
X018105Y020654D01*
X018105Y020455D01*
X018181Y020271D01*
X018321Y020130D01*
X018505Y020054D01*
X018704Y020054D01*
X018780Y020086D01*
X020335Y018531D01*
X020335Y006605D01*
X020264Y006634D01*
X020138Y006634D01*
X018396Y008376D01*
X018326Y008446D01*
X018234Y008484D01*
X017795Y008484D01*
X017795Y020092D01*
X017888Y020130D01*
X018028Y020271D01*
X018105Y020455D01*
X018105Y020654D01*
X018028Y020838D01*
X017888Y020978D01*
X017704Y021054D01*
X017505Y021054D01*
X017321Y020978D01*
X017181Y020838D01*
X017105Y020654D01*
X017105Y020455D01*
X017181Y020271D01*
X017295Y020157D01*
X017295Y008484D01*
X012368Y008484D01*
X012205Y008648D01*
X012205Y008654D01*
X012128Y008838D01*
X011988Y008978D01*
X011804Y009054D01*
X011605Y009054D01*
X011421Y008978D01*
X011407Y008964D01*
X011328Y008964D01*
X011075Y009218D01*
X011128Y009271D01*
X011205Y009455D01*
X011281Y009271D01*
X011421Y009130D01*
X011605Y009054D01*
X011804Y009054D01*
X011988Y009130D01*
X012128Y009271D01*
X012205Y009455D01*
X012205Y009654D01*
X012128Y009838D01*
X011988Y009978D01*
X011804Y010054D01*
X011605Y010054D01*
X011421Y009978D01*
X011281Y009838D01*
X011205Y009654D01*
X011205Y009455D01*
X011205Y009654D01*
X011128Y009838D01*
X010988Y009978D01*
X010804Y010054D01*
X010605Y010054D01*
X010421Y009978D01*
X010281Y009838D01*
X010205Y009654D01*
X010205Y009455D01*
X010275Y009284D01*
X009575Y009284D01*
X009483Y009246D01*
X009413Y009176D01*
X008205Y007968D01*
X008205Y008341D01*
X007912Y008634D01*
X007497Y008634D01*
X007205Y008341D01*
X007205Y007927D01*
X007497Y007634D01*
X007871Y007634D01*
X007791Y007554D01*
X007497Y007554D01*
X007205Y007261D01*
X007205Y006847D01*
X007497Y006554D01*
X007912Y006554D01*
X008205Y006847D01*
X008205Y007261D01*
X009728Y008784D01*
X010259Y008784D01*
X010205Y008654D01*
X010205Y008455D01*
X010281Y008271D01*
X010421Y008130D01*
X010605Y008054D01*
X010804Y008054D01*
X010988Y008130D01*
X011128Y008271D01*
X011205Y008455D01*
X011281Y008271D01*
X011421Y008130D01*
X011605Y008054D01*
X011421Y007978D01*
X011281Y007838D01*
X011205Y007654D01*
X011205Y007455D01*
X011281Y007271D01*
X011421Y007130D01*
X011605Y007054D01*
X011421Y006978D01*
X011281Y006838D01*
X011205Y006654D01*
X011205Y006455D01*
X011281Y006271D01*
X011421Y006130D01*
X011605Y006054D01*
X011804Y006054D01*
X011988Y006130D01*
X012128Y006271D01*
X012205Y006455D01*
X012205Y006654D01*
X012128Y006838D01*
X011988Y006978D01*
X011804Y007054D01*
X011605Y007054D01*
X011804Y007054D01*
X011988Y007130D01*
X012021Y007164D01*
X012551Y006634D01*
X011921Y006004D01*
X008205Y006004D01*
X008205Y006181D01*
X007912Y006474D01*
X007497Y006474D01*
X007205Y006181D01*
X007205Y005767D01*
X007497Y005474D01*
X007912Y005474D01*
X007942Y005504D01*
X011975Y005504D01*
X012074Y005504D01*
X012166Y005542D01*
X012905Y006281D01*
X013563Y005622D01*
X013655Y005584D01*
X013754Y005584D01*
X013929Y005584D01*
X013869Y005524D01*
X013735Y005524D01*
X013643Y005486D01*
X013573Y005416D01*
X012231Y004074D01*
X012105Y004074D01*
X011958Y004013D01*
X011845Y003901D01*
X011785Y003754D01*
X011785Y003595D01*
X011845Y003448D01*
X011958Y003335D01*
X012105Y003274D01*
X012264Y003274D01*
X012411Y003335D01*
X012524Y003448D01*
X012585Y003595D01*
X012585Y003721D01*
X013878Y005015D01*
X013958Y004935D01*
X014105Y004874D01*
X014264Y004874D01*
X014411Y004935D01*
X014500Y005024D01*
X015629Y005024D01*
X015718Y004935D01*
X015865Y004874D01*
X016024Y004874D01*
X016171Y004935D01*
X016260Y005024D01*
X018349Y005024D01*
X018438Y004935D01*
X018585Y004874D01*
X018744Y004874D01*
X018891Y004935D01*
X019004Y005048D01*
X019065Y005195D01*
X019065Y005354D01*
X019004Y005501D01*
X018920Y005584D01*
X020535Y005584D01*
X020634Y005584D01*
X020829Y005584D01*
X020885Y005448D01*
X020998Y005335D01*
X021145Y005274D01*
X021304Y005274D01*
X021451Y005335D01*
X021564Y005448D01*
X021625Y005595D01*
X021625Y005754D01*
X021564Y005901D01*
X021451Y006013D01*
X021304Y006074D01*
X021145Y006074D01*
X021142Y006073D01*
X021114Y006084D01*
X020835Y006084D01*
X020835Y007971D01*
X020885Y007848D01*
X020998Y007735D01*
X021145Y007674D01*
X021304Y007674D01*
X021451Y007735D01*
X021564Y007848D01*
X021625Y007995D01*
X021625Y008121D01*
X026738Y013234D01*
X026705Y013154D01*
X026705Y012955D01*
X026781Y012771D01*
X026921Y012630D01*
X027105Y012554D01*
X027304Y012554D01*
X027488Y012630D01*
X027595Y012737D01*
X027595Y001871D01*
X027488Y001978D01*
X027304Y002054D01*
X027105Y002054D01*
X026921Y001978D01*
X026781Y001838D01*
X026705Y001654D01*
X026705Y001455D01*
X026781Y001271D01*
X026921Y001130D01*
X027105Y001054D01*
X027304Y001054D01*
X027488Y001130D01*
X027595Y001237D01*
X027595Y001034D01*
X007716Y001034D01*
X007941Y001164D01*
X008165Y001387D01*
X008323Y001661D01*
X008405Y001966D01*
X008405Y002282D01*
X008323Y002587D01*
X008165Y002861D01*
X007941Y003085D01*
X007668Y003243D01*
X007363Y003324D01*
X007047Y003324D01*
X006741Y003243D01*
X006468Y003085D01*
X006244Y002861D01*
X006185Y002757D01*
X006185Y002774D02*
X006194Y002774D01*
X006185Y002932D02*
X006316Y002932D01*
X006185Y003091D02*
X006479Y003091D01*
X006768Y003250D02*
X006185Y003250D01*
X006185Y003408D02*
X011885Y003408D01*
X011796Y003567D02*
X006185Y003567D01*
X006185Y003725D02*
X011785Y003725D01*
X011838Y003884D02*
X006185Y003884D01*
X006185Y004042D02*
X012028Y004042D01*
X012358Y004201D02*
X006185Y004201D01*
X006185Y004359D02*
X012516Y004359D01*
X012675Y004518D02*
X008035Y004518D01*
X007912Y004394D02*
X007497Y004394D01*
X007205Y004687D01*
X007205Y005101D01*
X007497Y005394D01*
X007912Y005394D01*
X008205Y005101D01*
X008205Y004687D01*
X007912Y004394D01*
X008194Y004676D02*
X012833Y004676D01*
X012992Y004835D02*
X008205Y004835D01*
X008205Y004994D02*
X013150Y004994D01*
X013309Y005152D02*
X008154Y005152D01*
X007995Y005311D02*
X013467Y005311D01*
X013626Y005469D02*
X007205Y005469D01*
X007205Y005311D02*
X007414Y005311D01*
X007255Y005152D02*
X007129Y005152D01*
X007205Y005227D02*
X006912Y004934D01*
X006497Y004934D01*
X006205Y005227D01*
X006205Y005641D01*
X006497Y005934D01*
X006912Y005934D01*
X007205Y005641D01*
X007205Y005227D01*
X007205Y004994D02*
X006971Y004994D01*
X007205Y004835D02*
X006185Y004835D01*
X006185Y004676D02*
X007215Y004676D01*
X007374Y004518D02*
X006185Y004518D01*
X006185Y004994D02*
X006438Y004994D01*
X006280Y005152D02*
X006185Y005152D01*
X006185Y005311D02*
X006205Y005311D01*
X006205Y005469D02*
X006185Y005469D01*
X006185Y005628D02*
X006205Y005628D01*
X006185Y005786D02*
X006349Y005786D01*
X006185Y005945D02*
X007205Y005945D01*
X007205Y006103D02*
X006972Y006103D01*
X006903Y006034D02*
X007185Y006316D01*
X007185Y006494D01*
X006725Y006494D01*
X006725Y006534D01*
X007185Y006534D01*
X007185Y006713D01*
X006903Y006994D01*
X006725Y006994D01*
X006725Y006535D01*
X006684Y006535D01*
X006684Y006994D01*
X006506Y006994D01*
X006225Y006713D01*
X006225Y006534D01*
X006684Y006534D01*
X006684Y006494D01*
X006225Y006494D01*
X006225Y006316D01*
X006506Y006034D01*
X006684Y006034D01*
X006684Y006494D01*
X006725Y006494D01*
X006725Y006034D01*
X006903Y006034D01*
X006725Y006103D02*
X006684Y006103D01*
X006684Y006262D02*
X006725Y006262D01*
X006725Y006420D02*
X006684Y006420D01*
X006684Y006579D02*
X006725Y006579D01*
X006725Y006738D02*
X006684Y006738D01*
X006684Y006896D02*
X006725Y006896D01*
X006912Y007094D02*
X006497Y007094D01*
X006205Y007387D01*
X006205Y007801D01*
X006497Y008094D01*
X006912Y008094D01*
X007205Y007801D01*
X007205Y007387D01*
X006912Y007094D01*
X007030Y007213D02*
X007205Y007213D01*
X007205Y007055D02*
X006185Y007055D01*
X006185Y007213D02*
X006379Y007213D01*
X006220Y007372D02*
X006185Y007372D01*
X006185Y007530D02*
X006205Y007530D01*
X006205Y007689D02*
X006185Y007689D01*
X006185Y007847D02*
X006250Y007847D01*
X006185Y008006D02*
X006409Y008006D01*
X006497Y008174D02*
X006912Y008174D01*
X007205Y008467D01*
X007205Y008881D01*
X006912Y009174D01*
X006497Y009174D01*
X006205Y008881D01*
X006205Y008467D01*
X006497Y008174D01*
X006349Y008323D02*
X006185Y008323D01*
X006185Y008481D02*
X006205Y008481D01*
X006205Y008640D02*
X006185Y008640D01*
X006185Y008799D02*
X006205Y008799D01*
X006185Y008957D02*
X006280Y008957D01*
X006185Y009116D02*
X006439Y009116D01*
X006185Y009274D02*
X007205Y009274D01*
X007205Y009421D02*
X007205Y009007D01*
X007497Y008714D01*
X007912Y008714D01*
X008205Y009007D01*
X008205Y009421D01*
X009888Y011104D01*
X010961Y011104D01*
X011265Y010800D01*
X011205Y010654D01*
X011205Y010455D01*
X011281Y010271D01*
X011421Y010130D01*
X011605Y010054D01*
X011804Y010054D01*
X011988Y010130D01*
X012128Y010271D01*
X012205Y010455D01*
X012205Y010654D01*
X012128Y010838D01*
X011988Y010978D01*
X011804Y011054D01*
X011718Y011054D01*
X011206Y011566D01*
X011114Y011604D01*
X011015Y011604D01*
X009735Y011604D01*
X009643Y011566D01*
X009573Y011496D01*
X007791Y009714D01*
X007497Y009714D01*
X007205Y009421D01*
X007216Y009433D02*
X006185Y009433D01*
X006185Y009591D02*
X007374Y009591D01*
X007827Y009750D02*
X006185Y009750D01*
X006185Y009908D02*
X007985Y009908D01*
X008144Y010067D02*
X006185Y010067D01*
X006185Y010225D02*
X008302Y010225D01*
X008461Y010384D02*
X006185Y010384D01*
X006185Y010543D02*
X008619Y010543D01*
X008778Y010701D02*
X006185Y010701D01*
X006185Y010860D02*
X006765Y010860D01*
X006478Y011018D02*
X006185Y011018D01*
X006185Y011177D02*
X006315Y011177D01*
X006194Y011335D02*
X006185Y011335D01*
X007644Y010860D02*
X008936Y010860D01*
X009095Y011018D02*
X007931Y011018D01*
X008094Y011177D02*
X009253Y011177D01*
X009412Y011335D02*
X008215Y011335D01*
X008307Y011494D02*
X009571Y011494D01*
X009802Y011018D02*
X010518Y011018D01*
X010605Y011054D02*
X010421Y010978D01*
X010281Y010838D01*
X010205Y010654D01*
X010205Y010455D01*
X010281Y010271D01*
X010421Y010130D01*
X010605Y010054D01*
X010804Y010054D01*
X010988Y010130D01*
X011128Y010271D01*
X011205Y010455D01*
X011205Y010654D01*
X011128Y010838D01*
X010988Y010978D01*
X010804Y011054D01*
X010605Y011054D01*
X010891Y011018D02*
X011047Y011018D01*
X011106Y010860D02*
X011206Y010860D01*
X011185Y010701D02*
X011224Y010701D01*
X011205Y010543D02*
X011205Y010543D01*
X011175Y010384D02*
X011234Y010384D01*
X011326Y010225D02*
X011083Y010225D01*
X010834Y010067D02*
X011575Y010067D01*
X011834Y010067D02*
X014415Y010067D01*
X014415Y010225D02*
X012083Y010225D01*
X012175Y010384D02*
X014415Y010384D01*
X014415Y010543D02*
X012205Y010543D01*
X012185Y010701D02*
X014415Y010701D01*
X014415Y010860D02*
X012106Y010860D01*
X011891Y011018D02*
X014415Y011018D01*
X014415Y011177D02*
X011596Y011177D01*
X011437Y011335D02*
X014415Y011335D01*
X014415Y011494D02*
X011279Y011494D01*
X010303Y010860D02*
X009643Y010860D01*
X009485Y010701D02*
X010224Y010701D01*
X010205Y010543D02*
X009326Y010543D01*
X009168Y010384D02*
X010234Y010384D01*
X010326Y010225D02*
X009009Y010225D01*
X008851Y010067D02*
X010575Y010067D01*
X010352Y009908D02*
X008692Y009908D01*
X008534Y009750D02*
X010244Y009750D01*
X010205Y009591D02*
X008375Y009591D01*
X008216Y009433D02*
X010214Y009433D01*
X009551Y009274D02*
X008205Y009274D01*
X008205Y009116D02*
X009352Y009116D01*
X009194Y008957D02*
X008154Y008957D01*
X007996Y008799D02*
X009035Y008799D01*
X008877Y008640D02*
X007205Y008640D01*
X007205Y008481D02*
X007345Y008481D01*
X007205Y008323D02*
X007060Y008323D01*
X007205Y008164D02*
X006185Y008164D01*
X007000Y008006D02*
X007205Y008006D01*
X007159Y007847D02*
X007284Y007847D01*
X007205Y007689D02*
X007443Y007689D01*
X007473Y007530D02*
X007205Y007530D01*
X007189Y007372D02*
X007315Y007372D01*
X007205Y006896D02*
X007002Y006896D01*
X007160Y006738D02*
X007314Y006738D01*
X007185Y006579D02*
X007473Y006579D01*
X007444Y006420D02*
X007185Y006420D01*
X007131Y006262D02*
X007285Y006262D01*
X007205Y005786D02*
X007060Y005786D01*
X007205Y005628D02*
X007344Y005628D01*
X008205Y006103D02*
X010487Y006103D01*
X010421Y006130D02*
X010605Y006054D01*
X010804Y006054D01*
X010988Y006130D01*
X011128Y006271D01*
X011205Y006455D01*
X011205Y006654D01*
X011128Y006838D01*
X010988Y006978D01*
X010804Y007054D01*
X010605Y007054D01*
X010421Y006978D01*
X010281Y006838D01*
X010205Y006654D01*
X010205Y006455D01*
X010281Y006271D01*
X010421Y006130D01*
X010290Y006262D02*
X008124Y006262D01*
X007966Y006420D02*
X010219Y006420D01*
X010205Y006579D02*
X007936Y006579D01*
X008095Y006738D02*
X010239Y006738D01*
X010339Y006896D02*
X008205Y006896D01*
X008205Y007055D02*
X011604Y007055D01*
X011805Y007055D02*
X012131Y007055D01*
X012070Y006896D02*
X012289Y006896D01*
X012170Y006738D02*
X012448Y006738D01*
X012496Y006579D02*
X012205Y006579D01*
X012190Y006420D02*
X012337Y006420D01*
X012179Y006262D02*
X012119Y006262D01*
X012020Y006103D02*
X011922Y006103D01*
X011487Y006103D02*
X010922Y006103D01*
X011119Y006262D02*
X011290Y006262D01*
X011219Y006420D02*
X011190Y006420D01*
X011205Y006579D02*
X011205Y006579D01*
X011170Y006738D02*
X011239Y006738D01*
X011339Y006896D02*
X011070Y006896D01*
X010956Y007144D02*
X010889Y007109D01*
X010817Y007086D01*
X010742Y007074D01*
X010725Y007074D01*
X010725Y007534D01*
X010725Y007574D01*
X011185Y007574D01*
X011185Y007592D01*
X011173Y007667D01*
X011149Y007739D01*
X011115Y007806D01*
X011071Y007867D01*
X011017Y007920D01*
X010956Y007965D01*
X010889Y007999D01*
X010817Y008022D01*
X010742Y008034D01*
X010725Y008034D01*
X010725Y007575D01*
X010684Y007575D01*
X010684Y008034D01*
X010667Y008034D01*
X010592Y008022D01*
X010520Y007999D01*
X010453Y007965D01*
X010392Y007920D01*
X010338Y007867D01*
X010294Y007806D01*
X010260Y007739D01*
X010236Y007667D01*
X010225Y007592D01*
X010225Y007574D01*
X010684Y007574D01*
X010684Y007534D01*
X010225Y007534D01*
X010225Y007517D01*
X010236Y007442D01*
X010260Y007370D01*
X010294Y007303D01*
X010338Y007242D01*
X010392Y007188D01*
X010453Y007144D01*
X010520Y007109D01*
X010592Y007086D01*
X010667Y007074D01*
X010684Y007074D01*
X010684Y007534D01*
X010725Y007534D01*
X011185Y007534D01*
X011185Y007517D01*
X011173Y007442D01*
X011149Y007370D01*
X011115Y007303D01*
X011071Y007242D01*
X011017Y007188D01*
X010956Y007144D01*
X011042Y007213D02*
X011339Y007213D01*
X011239Y007372D02*
X011150Y007372D01*
X011185Y007530D02*
X011205Y007530D01*
X011219Y007689D02*
X011166Y007689D01*
X011085Y007847D02*
X011290Y007847D01*
X011488Y008006D02*
X010868Y008006D01*
X010725Y008006D02*
X010684Y008006D01*
X010541Y008006D02*
X008950Y008006D01*
X009108Y008164D02*
X010387Y008164D01*
X010259Y008323D02*
X009267Y008323D01*
X009425Y008481D02*
X010205Y008481D01*
X010205Y008640D02*
X009584Y008640D01*
X008718Y008481D02*
X008064Y008481D01*
X008205Y008323D02*
X008560Y008323D01*
X008401Y008164D02*
X008205Y008164D01*
X008205Y008006D02*
X008243Y008006D01*
X008633Y007689D02*
X010244Y007689D01*
X010225Y007530D02*
X008474Y007530D01*
X008315Y007372D02*
X010259Y007372D01*
X010367Y007213D02*
X008205Y007213D01*
X008791Y007847D02*
X010324Y007847D01*
X010684Y007847D02*
X010725Y007847D01*
X010725Y007689D02*
X010684Y007689D01*
X010684Y007530D02*
X010725Y007530D01*
X010725Y007372D02*
X010684Y007372D01*
X010684Y007213D02*
X010725Y007213D01*
X011605Y008054D02*
X011804Y008054D01*
X011988Y007978D01*
X012128Y007838D01*
X012180Y007712D01*
X013046Y006846D01*
X013046Y006846D01*
X013116Y006776D01*
X013808Y006084D01*
X019814Y006084D01*
X019785Y006155D01*
X019785Y006281D01*
X018081Y007984D01*
X017495Y007984D01*
X012314Y007984D01*
X012215Y007984D01*
X012123Y008022D01*
X012001Y008144D01*
X011988Y008130D01*
X011804Y008054D01*
X011605Y008054D01*
X011387Y008164D02*
X011022Y008164D01*
X011150Y008323D02*
X011259Y008323D01*
X011205Y008455D02*
X011205Y008464D01*
X011205Y008464D01*
X011205Y008455D01*
X011177Y009116D02*
X011457Y009116D01*
X011279Y009274D02*
X011130Y009274D01*
X011195Y009433D02*
X011214Y009433D01*
X011205Y009591D02*
X011205Y009591D01*
X011165Y009750D02*
X011244Y009750D01*
X011352Y009908D02*
X011058Y009908D01*
X012058Y009908D02*
X014415Y009908D01*
X014415Y009750D02*
X012165Y009750D01*
X012205Y009591D02*
X014415Y009591D01*
X014415Y009433D02*
X012195Y009433D01*
X012130Y009274D02*
X014415Y009274D01*
X014415Y009244D02*
X014415Y009145D01*
X014453Y009053D01*
X014523Y008982D01*
X014615Y008944D01*
X014709Y008944D01*
X014781Y008771D01*
X014921Y008630D01*
X015105Y008554D01*
X015304Y008554D01*
X015488Y008630D01*
X015628Y008771D01*
X015705Y008955D01*
X015705Y009154D01*
X015628Y009338D01*
X015488Y009478D01*
X015304Y009554D01*
X015105Y009554D01*
X014921Y009478D01*
X014915Y009471D01*
X014915Y020157D01*
X015028Y020271D01*
X015105Y020455D01*
X015181Y020271D01*
X015321Y020130D01*
X015505Y020054D01*
X015704Y020054D01*
X015888Y020130D01*
X016028Y020271D01*
X016105Y020455D01*
X016181Y020271D01*
X016321Y020130D01*
X016505Y020054D01*
X016704Y020054D01*
X016888Y020130D01*
X017028Y020271D01*
X017105Y020455D01*
X017105Y020654D01*
X017028Y020838D01*
X016888Y020978D01*
X016704Y021054D01*
X016505Y021054D01*
X016321Y020978D01*
X016181Y020838D01*
X016105Y020654D01*
X016105Y020455D01*
X016105Y020654D01*
X016028Y020838D01*
X015888Y020978D01*
X015704Y021054D01*
X015505Y021054D01*
X015321Y020978D01*
X015181Y020838D01*
X015105Y020654D01*
X015105Y020455D01*
X015105Y020654D01*
X015028Y020838D01*
X014888Y020978D01*
X014704Y021054D01*
X014505Y021054D01*
X014321Y020978D01*
X014181Y020838D01*
X014105Y020654D01*
X014105Y020455D01*
X014181Y020271D01*
X014321Y020130D01*
X014415Y020092D01*
X014415Y009244D01*
X014427Y009116D02*
X011952Y009116D01*
X012009Y008957D02*
X014584Y008957D01*
X014769Y008799D02*
X012145Y008799D01*
X012212Y008640D02*
X014912Y008640D01*
X015497Y008640D02*
X017295Y008640D01*
X017295Y008799D02*
X015640Y008799D01*
X015705Y008957D02*
X017295Y008957D01*
X017295Y009116D02*
X015705Y009116D01*
X015655Y009274D02*
X017295Y009274D01*
X017295Y009433D02*
X015533Y009433D01*
X014915Y009591D02*
X017295Y009591D01*
X017295Y009750D02*
X014915Y009750D01*
X014915Y009908D02*
X017295Y009908D01*
X017295Y010067D02*
X014915Y010067D01*
X014915Y010225D02*
X017295Y010225D01*
X017295Y010384D02*
X014915Y010384D01*
X014915Y010543D02*
X017295Y010543D01*
X017295Y010701D02*
X014915Y010701D01*
X014915Y010860D02*
X017295Y010860D01*
X017295Y011018D02*
X014915Y011018D01*
X014915Y011177D02*
X017295Y011177D01*
X017295Y011335D02*
X014915Y011335D01*
X014915Y011494D02*
X017295Y011494D01*
X017295Y011652D02*
X014915Y011652D01*
X014915Y011811D02*
X017295Y011811D01*
X017295Y011969D02*
X014915Y011969D01*
X014915Y012128D02*
X017295Y012128D01*
X017295Y012287D02*
X014915Y012287D01*
X014915Y012445D02*
X017295Y012445D01*
X017295Y012604D02*
X014915Y012604D01*
X014915Y012762D02*
X017295Y012762D01*
X017295Y012921D02*
X014915Y012921D01*
X014915Y013079D02*
X017295Y013079D01*
X017295Y013238D02*
X014915Y013238D01*
X014915Y013396D02*
X017295Y013396D01*
X017295Y013555D02*
X014915Y013555D01*
X014915Y013713D02*
X017295Y013713D01*
X017295Y013872D02*
X014915Y013872D01*
X014915Y014031D02*
X017295Y014031D01*
X017295Y014189D02*
X014915Y014189D01*
X014915Y014348D02*
X017295Y014348D01*
X017295Y014506D02*
X014915Y014506D01*
X014915Y014665D02*
X017295Y014665D01*
X017295Y014823D02*
X014915Y014823D01*
X014915Y014982D02*
X017295Y014982D01*
X017295Y015140D02*
X014915Y015140D01*
X014915Y015299D02*
X017295Y015299D01*
X017295Y015457D02*
X014915Y015457D01*
X014915Y015616D02*
X017295Y015616D01*
X017295Y015774D02*
X014915Y015774D01*
X014915Y015933D02*
X017295Y015933D01*
X017295Y016092D02*
X014915Y016092D01*
X014915Y016250D02*
X017295Y016250D01*
X017295Y016409D02*
X014915Y016409D01*
X014915Y016567D02*
X017295Y016567D01*
X017295Y016726D02*
X014915Y016726D01*
X014915Y016884D02*
X017295Y016884D01*
X017295Y017043D02*
X014915Y017043D01*
X014915Y017201D02*
X017295Y017201D01*
X017295Y017360D02*
X014915Y017360D01*
X014915Y017518D02*
X017295Y017518D01*
X017295Y017677D02*
X014915Y017677D01*
X014915Y017836D02*
X017295Y017836D01*
X017295Y017994D02*
X014915Y017994D01*
X014915Y018153D02*
X017295Y018153D01*
X017295Y018311D02*
X014915Y018311D01*
X014915Y018470D02*
X017295Y018470D01*
X017295Y018628D02*
X014915Y018628D01*
X014915Y018787D02*
X017295Y018787D01*
X017295Y018945D02*
X014915Y018945D01*
X014915Y019104D02*
X017295Y019104D01*
X017295Y019262D02*
X014915Y019262D01*
X014915Y019421D02*
X017295Y019421D01*
X017295Y019580D02*
X014915Y019580D01*
X014915Y019738D02*
X017295Y019738D01*
X017295Y019897D02*
X014915Y019897D01*
X014915Y020055D02*
X015503Y020055D01*
X015706Y020055D02*
X016503Y020055D01*
X016706Y020055D02*
X017295Y020055D01*
X017238Y020214D02*
X016971Y020214D01*
X017070Y020372D02*
X017139Y020372D01*
X017105Y020531D02*
X017105Y020531D01*
X017090Y020689D02*
X017119Y020689D01*
X017191Y020848D02*
X017018Y020848D01*
X016820Y021006D02*
X017390Y021006D01*
X017820Y021006D02*
X018390Y021006D01*
X018191Y020848D02*
X018018Y020848D01*
X018090Y020689D02*
X018119Y020689D01*
X018105Y020531D02*
X018105Y020531D01*
X018070Y020372D02*
X018139Y020372D01*
X018238Y020214D02*
X017971Y020214D01*
X017795Y020055D02*
X018503Y020055D01*
X018706Y020055D02*
X018810Y020055D01*
X018969Y019897D02*
X017795Y019897D01*
X017795Y019738D02*
X019127Y019738D01*
X019286Y019580D02*
X017795Y019580D01*
X017795Y019421D02*
X019444Y019421D01*
X019603Y019262D02*
X017795Y019262D01*
X017795Y019104D02*
X019761Y019104D01*
X019920Y018945D02*
X017795Y018945D01*
X017795Y018787D02*
X020079Y018787D01*
X020237Y018628D02*
X017795Y018628D01*
X017795Y018470D02*
X020335Y018470D01*
X020335Y018311D02*
X017795Y018311D01*
X017795Y018153D02*
X020335Y018153D01*
X020335Y017994D02*
X017795Y017994D01*
X017795Y017836D02*
X020335Y017836D01*
X020335Y017677D02*
X017795Y017677D01*
X017795Y017518D02*
X020335Y017518D01*
X020335Y017360D02*
X017795Y017360D01*
X017795Y017201D02*
X020335Y017201D01*
X020335Y017043D02*
X017795Y017043D01*
X017795Y016884D02*
X020335Y016884D01*
X020335Y016726D02*
X017795Y016726D01*
X017795Y016567D02*
X020335Y016567D01*
X020335Y016409D02*
X017795Y016409D01*
X017795Y016250D02*
X020335Y016250D01*
X020335Y016092D02*
X017795Y016092D01*
X017795Y015933D02*
X020335Y015933D01*
X020335Y015774D02*
X017795Y015774D01*
X017795Y015616D02*
X020335Y015616D01*
X020335Y015457D02*
X017795Y015457D01*
X017795Y015299D02*
X020335Y015299D01*
X020335Y015140D02*
X017795Y015140D01*
X017795Y014982D02*
X020335Y014982D01*
X020335Y014823D02*
X017795Y014823D01*
X017795Y014665D02*
X020335Y014665D01*
X020335Y014506D02*
X017795Y014506D01*
X017795Y014348D02*
X020335Y014348D01*
X020335Y014189D02*
X017795Y014189D01*
X017795Y014031D02*
X020335Y014031D01*
X020335Y013872D02*
X017795Y013872D01*
X017795Y013713D02*
X020335Y013713D01*
X020335Y013555D02*
X017795Y013555D01*
X017795Y013396D02*
X020335Y013396D01*
X020335Y013238D02*
X017795Y013238D01*
X017795Y013079D02*
X020335Y013079D01*
X020335Y012921D02*
X017795Y012921D01*
X017795Y012762D02*
X020335Y012762D01*
X020335Y012604D02*
X017795Y012604D01*
X017795Y012445D02*
X020335Y012445D01*
X020335Y012287D02*
X017795Y012287D01*
X017795Y012128D02*
X020335Y012128D01*
X020335Y011969D02*
X017795Y011969D01*
X017795Y011811D02*
X020335Y011811D01*
X020335Y011652D02*
X017795Y011652D01*
X017795Y011494D02*
X020335Y011494D01*
X020335Y011335D02*
X017795Y011335D01*
X017795Y011177D02*
X020335Y011177D01*
X020335Y011018D02*
X017795Y011018D01*
X017795Y010860D02*
X020335Y010860D01*
X020335Y010701D02*
X017795Y010701D01*
X017795Y010543D02*
X020335Y010543D01*
X020335Y010384D02*
X017795Y010384D01*
X017795Y010225D02*
X020335Y010225D01*
X020335Y010067D02*
X017795Y010067D01*
X017795Y009908D02*
X020335Y009908D01*
X020335Y009750D02*
X017795Y009750D01*
X017795Y009591D02*
X020335Y009591D01*
X020335Y009433D02*
X017795Y009433D01*
X017795Y009274D02*
X020335Y009274D01*
X020335Y009116D02*
X017795Y009116D01*
X017795Y008957D02*
X020335Y008957D01*
X020335Y008799D02*
X017795Y008799D01*
X017795Y008640D02*
X020335Y008640D01*
X020335Y008481D02*
X018241Y008481D01*
X018449Y008323D02*
X020335Y008323D01*
X020335Y008164D02*
X018608Y008164D01*
X018766Y008006D02*
X020335Y008006D01*
X020335Y007847D02*
X018925Y007847D01*
X019084Y007689D02*
X020335Y007689D01*
X020335Y007530D02*
X019242Y007530D01*
X019401Y007372D02*
X020335Y007372D01*
X020335Y007213D02*
X019559Y007213D01*
X019718Y007055D02*
X020335Y007055D01*
X020335Y006896D02*
X019876Y006896D01*
X020035Y006738D02*
X020335Y006738D01*
X020835Y006738D02*
X027595Y006738D01*
X027595Y006896D02*
X020835Y006896D01*
X020835Y007055D02*
X027595Y007055D01*
X027595Y007213D02*
X020835Y007213D01*
X020835Y007372D02*
X027595Y007372D01*
X027595Y007530D02*
X020835Y007530D01*
X020835Y007689D02*
X021110Y007689D01*
X021339Y007689D02*
X027595Y007689D01*
X027595Y007847D02*
X021563Y007847D01*
X021625Y008006D02*
X027595Y008006D01*
X027595Y008164D02*
X021668Y008164D01*
X021827Y008323D02*
X027595Y008323D01*
X027595Y008481D02*
X021985Y008481D01*
X022144Y008640D02*
X027595Y008640D01*
X027595Y008799D02*
X022302Y008799D01*
X022461Y008957D02*
X027595Y008957D01*
X027595Y009116D02*
X022619Y009116D01*
X022778Y009274D02*
X027595Y009274D01*
X027595Y009433D02*
X022936Y009433D01*
X023095Y009591D02*
X027595Y009591D01*
X027595Y009750D02*
X023254Y009750D01*
X023412Y009908D02*
X027595Y009908D01*
X027595Y010067D02*
X023571Y010067D01*
X023729Y010225D02*
X027595Y010225D01*
X027595Y010384D02*
X023888Y010384D01*
X024046Y010543D02*
X027595Y010543D01*
X027595Y010701D02*
X024205Y010701D01*
X024363Y010860D02*
X027595Y010860D01*
X027595Y011018D02*
X024522Y011018D01*
X024680Y011177D02*
X027595Y011177D01*
X027595Y011335D02*
X024839Y011335D01*
X024998Y011494D02*
X027595Y011494D01*
X027595Y011652D02*
X025156Y011652D01*
X025315Y011811D02*
X027595Y011811D01*
X027595Y011969D02*
X025473Y011969D01*
X025632Y012128D02*
X027595Y012128D01*
X027595Y012287D02*
X025790Y012287D01*
X025949Y012445D02*
X027595Y012445D01*
X027595Y012604D02*
X027423Y012604D01*
X026986Y012604D02*
X026107Y012604D01*
X026266Y012762D02*
X026790Y012762D01*
X026719Y012921D02*
X026424Y012921D01*
X026583Y013079D02*
X026705Y013079D01*
X026193Y013396D02*
X020835Y013396D01*
X020835Y013238D02*
X026035Y013238D01*
X025876Y013079D02*
X020835Y013079D01*
X020835Y012921D02*
X025717Y012921D01*
X025559Y012762D02*
X020835Y012762D01*
X020835Y012604D02*
X025400Y012604D01*
X025242Y012445D02*
X020835Y012445D01*
X020835Y012287D02*
X025083Y012287D01*
X024925Y012128D02*
X020835Y012128D01*
X020835Y011969D02*
X024766Y011969D01*
X024608Y011811D02*
X020835Y011811D01*
X020835Y011652D02*
X024449Y011652D01*
X024291Y011494D02*
X020835Y011494D01*
X020835Y011335D02*
X024132Y011335D01*
X023973Y011177D02*
X020835Y011177D01*
X020835Y011018D02*
X023815Y011018D01*
X023656Y010860D02*
X020835Y010860D01*
X020835Y010701D02*
X023498Y010701D01*
X023339Y010543D02*
X020835Y010543D01*
X020835Y010384D02*
X023181Y010384D01*
X023022Y010225D02*
X020835Y010225D01*
X020835Y010067D02*
X022864Y010067D01*
X022705Y009908D02*
X020835Y009908D01*
X020835Y009750D02*
X022547Y009750D01*
X022388Y009591D02*
X020835Y009591D01*
X020835Y009433D02*
X022229Y009433D01*
X022071Y009274D02*
X020835Y009274D01*
X020835Y009116D02*
X021912Y009116D01*
X021754Y008957D02*
X020835Y008957D01*
X020835Y008799D02*
X021595Y008799D01*
X021437Y008640D02*
X020835Y008640D01*
X020835Y008481D02*
X021278Y008481D01*
X020908Y008323D02*
X020835Y008323D01*
X020835Y007847D02*
X020886Y007847D01*
X019328Y006738D02*
X013155Y006738D01*
X012996Y006896D02*
X019169Y006896D01*
X019011Y007055D02*
X012838Y007055D01*
X012679Y007213D02*
X018852Y007213D01*
X018694Y007372D02*
X012521Y007372D01*
X012362Y007530D02*
X018535Y007530D01*
X018377Y007689D02*
X012204Y007689D01*
X012119Y007847D02*
X018218Y007847D01*
X019486Y006579D02*
X013313Y006579D01*
X013472Y006420D02*
X019645Y006420D01*
X019785Y006262D02*
X013630Y006262D01*
X013789Y006103D02*
X019806Y006103D01*
X019017Y005469D02*
X020877Y005469D01*
X021057Y005311D02*
X019065Y005311D01*
X019047Y005152D02*
X027595Y005152D01*
X027595Y004994D02*
X018949Y004994D01*
X018380Y004994D02*
X016229Y004994D01*
X015660Y004994D02*
X014469Y004994D01*
X013900Y004994D02*
X013857Y004994D01*
X013699Y004835D02*
X027595Y004835D01*
X027595Y004676D02*
X013540Y004676D01*
X013382Y004518D02*
X027595Y004518D01*
X027595Y004359D02*
X013223Y004359D01*
X013065Y004201D02*
X027595Y004201D01*
X027595Y004042D02*
X012906Y004042D01*
X012747Y003884D02*
X027595Y003884D01*
X027595Y003725D02*
X012589Y003725D01*
X012573Y003567D02*
X027595Y003567D01*
X027595Y003408D02*
X012484Y003408D01*
X012424Y003202D02*
X012166Y003202D01*
X011928Y003103D01*
X011746Y002921D01*
X011705Y002820D01*
X011663Y002921D01*
X011481Y003103D01*
X011243Y003202D01*
X010985Y003202D01*
X010747Y003103D01*
X010565Y002921D01*
X010467Y002683D01*
X010467Y002426D01*
X010565Y002188D01*
X010747Y002006D01*
X010985Y001907D01*
X011243Y001907D01*
X011481Y002006D01*
X011663Y002188D01*
X011705Y002289D01*
X011746Y002188D01*
X011928Y002006D01*
X012166Y001907D01*
X012424Y001907D01*
X012662Y002006D01*
X012844Y002188D01*
X012942Y002426D01*
X012942Y002683D01*
X012844Y002921D01*
X012662Y003103D01*
X012424Y003202D01*
X012674Y003091D02*
X027595Y003091D01*
X027595Y002932D02*
X012832Y002932D01*
X012905Y002774D02*
X027595Y002774D01*
X027595Y002615D02*
X012942Y002615D01*
X012942Y002457D02*
X027595Y002457D01*
X027595Y002298D02*
X012890Y002298D01*
X012796Y002140D02*
X027595Y002140D01*
X027595Y001981D02*
X027480Y001981D01*
X026929Y001981D02*
X026480Y001981D01*
X026488Y001978D02*
X026304Y002054D01*
X026105Y002054D01*
X025921Y001978D01*
X025781Y001838D01*
X025705Y001654D01*
X025705Y001455D01*
X025781Y001271D01*
X025921Y001130D01*
X026105Y001054D01*
X026304Y001054D01*
X026488Y001130D01*
X026628Y001271D01*
X026705Y001455D01*
X026705Y001654D01*
X026628Y001838D01*
X026488Y001978D01*
X026635Y001823D02*
X026775Y001823D01*
X026709Y001664D02*
X026700Y001664D01*
X026705Y001506D02*
X026705Y001506D01*
X026749Y001347D02*
X026660Y001347D01*
X026546Y001189D02*
X026863Y001189D01*
X027546Y001189D02*
X027595Y001189D01*
X025929Y001981D02*
X025480Y001981D01*
X025488Y001978D02*
X025304Y002054D01*
X025105Y002054D01*
X024921Y001978D01*
X024781Y001838D01*
X024705Y001654D01*
X024705Y001455D01*
X024781Y001271D01*
X024921Y001130D01*
X025105Y001054D01*
X025304Y001054D01*
X025488Y001130D01*
X025628Y001271D01*
X025705Y001455D01*
X025705Y001654D01*
X025628Y001838D01*
X025488Y001978D01*
X025635Y001823D02*
X025775Y001823D01*
X025709Y001664D02*
X025700Y001664D01*
X025705Y001506D02*
X025705Y001506D01*
X025749Y001347D02*
X025660Y001347D01*
X025546Y001189D02*
X025863Y001189D01*
X024863Y001189D02*
X024546Y001189D01*
X024488Y001130D02*
X024628Y001271D01*
X024705Y001455D01*
X024705Y001654D01*
X024628Y001838D01*
X024488Y001978D01*
X024304Y002054D01*
X024105Y002054D01*
X023921Y001978D01*
X023781Y001838D01*
X023705Y001654D01*
X023705Y001455D01*
X023781Y001271D01*
X023921Y001130D01*
X024105Y001054D01*
X024304Y001054D01*
X024488Y001130D01*
X024660Y001347D02*
X024749Y001347D01*
X024705Y001506D02*
X024705Y001506D01*
X024700Y001664D02*
X024709Y001664D01*
X024775Y001823D02*
X024635Y001823D01*
X024480Y001981D02*
X024929Y001981D01*
X023929Y001981D02*
X023480Y001981D01*
X023488Y001978D02*
X023304Y002054D01*
X023105Y002054D01*
X022921Y001978D01*
X022781Y001838D01*
X022705Y001654D01*
X022705Y001455D01*
X022781Y001271D01*
X022921Y001130D01*
X023105Y001054D01*
X023304Y001054D01*
X023488Y001130D01*
X023628Y001271D01*
X023705Y001455D01*
X023705Y001654D01*
X023628Y001838D01*
X023488Y001978D01*
X023635Y001823D02*
X023775Y001823D01*
X023709Y001664D02*
X023700Y001664D01*
X023705Y001506D02*
X023705Y001506D01*
X023749Y001347D02*
X023660Y001347D01*
X023546Y001189D02*
X023863Y001189D01*
X022863Y001189D02*
X022546Y001189D01*
X022488Y001130D02*
X022628Y001271D01*
X022705Y001455D01*
X022705Y001654D01*
X022628Y001838D01*
X022488Y001978D01*
X022304Y002054D01*
X022105Y002054D01*
X021921Y001978D01*
X021781Y001838D01*
X021705Y001654D01*
X021705Y001455D01*
X021781Y001271D01*
X021921Y001130D01*
X022105Y001054D01*
X022304Y001054D01*
X022488Y001130D01*
X022660Y001347D02*
X022749Y001347D01*
X022705Y001506D02*
X022705Y001506D01*
X022700Y001664D02*
X022709Y001664D01*
X022775Y001823D02*
X022635Y001823D01*
X022480Y001981D02*
X022929Y001981D01*
X021929Y001981D02*
X020480Y001981D01*
X020488Y001978D02*
X020304Y002054D01*
X020105Y002054D01*
X019921Y001978D01*
X019781Y001838D01*
X019705Y001654D01*
X019705Y001455D01*
X019781Y001271D01*
X019921Y001130D01*
X020105Y001054D01*
X020304Y001054D01*
X020488Y001130D01*
X020628Y001271D01*
X020705Y001455D01*
X020705Y001654D01*
X020628Y001838D01*
X020488Y001978D01*
X020635Y001823D02*
X021775Y001823D01*
X021709Y001664D02*
X020700Y001664D01*
X020705Y001506D02*
X021705Y001506D01*
X021749Y001347D02*
X020660Y001347D01*
X020546Y001189D02*
X021863Y001189D01*
X019863Y001189D02*
X019518Y001189D01*
X019517Y001188D02*
X019571Y001242D01*
X019615Y001303D01*
X019649Y001370D01*
X019673Y001442D01*
X019685Y001517D01*
X019685Y001534D01*
X019225Y001534D01*
X019225Y001574D01*
X019685Y001574D01*
X019685Y001592D01*
X019673Y001667D01*
X019649Y001739D01*
X019615Y001806D01*
X019571Y001867D01*
X019517Y001920D01*
X019456Y001965D01*
X019389Y001999D01*
X019317Y002022D01*
X019242Y002034D01*
X019225Y002034D01*
X019225Y001575D01*
X019184Y001575D01*
X019184Y002034D01*
X019167Y002034D01*
X019092Y002022D01*
X019020Y001999D01*
X018953Y001965D01*
X018892Y001920D01*
X018838Y001867D01*
X018794Y001806D01*
X018760Y001739D01*
X018736Y001667D01*
X018725Y001592D01*
X018725Y001574D01*
X019184Y001574D01*
X019184Y001534D01*
X018725Y001534D01*
X018725Y001517D01*
X018736Y001442D01*
X018760Y001370D01*
X018794Y001303D01*
X018838Y001242D01*
X018892Y001188D01*
X018953Y001144D01*
X019020Y001109D01*
X019092Y001086D01*
X019167Y001074D01*
X019184Y001074D01*
X019184Y001534D01*
X019225Y001534D01*
X019225Y001074D01*
X019242Y001074D01*
X019317Y001086D01*
X019389Y001109D01*
X019456Y001144D01*
X019517Y001188D01*
X019638Y001347D02*
X019749Y001347D01*
X019705Y001506D02*
X019683Y001506D01*
X019673Y001664D02*
X019709Y001664D01*
X019775Y001823D02*
X019603Y001823D01*
X019424Y001981D02*
X019929Y001981D01*
X019225Y001981D02*
X019184Y001981D01*
X019184Y001823D02*
X019225Y001823D01*
X019225Y001664D02*
X019184Y001664D01*
X019184Y001506D02*
X019225Y001506D01*
X019225Y001347D02*
X019184Y001347D01*
X019184Y001189D02*
X019225Y001189D01*
X018892Y001189D02*
X018518Y001189D01*
X018517Y001188D02*
X018571Y001242D01*
X018615Y001303D01*
X018649Y001370D01*
X018673Y001442D01*
X018685Y001517D01*
X018685Y001534D01*
X018225Y001534D01*
X018225Y001574D01*
X018685Y001574D01*
X018685Y001592D01*
X018673Y001667D01*
X018649Y001739D01*
X018615Y001806D01*
X018571Y001867D01*
X018517Y001920D01*
X018456Y001965D01*
X018389Y001999D01*
X018317Y002022D01*
X018242Y002034D01*
X018225Y002034D01*
X018225Y001575D01*
X018184Y001575D01*
X018184Y002034D01*
X018167Y002034D01*
X018092Y002022D01*
X018020Y001999D01*
X017953Y001965D01*
X017892Y001920D01*
X017838Y001867D01*
X017794Y001806D01*
X017760Y001739D01*
X017736Y001667D01*
X017725Y001592D01*
X017725Y001574D01*
X018184Y001574D01*
X018184Y001534D01*
X017725Y001534D01*
X017725Y001517D01*
X017736Y001442D01*
X017760Y001370D01*
X017794Y001303D01*
X017838Y001242D01*
X017892Y001188D01*
X017953Y001144D01*
X018020Y001109D01*
X018092Y001086D01*
X018167Y001074D01*
X018184Y001074D01*
X018184Y001534D01*
X018225Y001534D01*
X018225Y001074D01*
X018242Y001074D01*
X018317Y001086D01*
X018389Y001109D01*
X018456Y001144D01*
X018517Y001188D01*
X018638Y001347D02*
X018771Y001347D01*
X018726Y001506D02*
X018683Y001506D01*
X018673Y001664D02*
X018736Y001664D01*
X018806Y001823D02*
X018603Y001823D01*
X018424Y001981D02*
X018985Y001981D01*
X018225Y001981D02*
X018184Y001981D01*
X018184Y001823D02*
X018225Y001823D01*
X018225Y001664D02*
X018184Y001664D01*
X018184Y001506D02*
X018225Y001506D01*
X018225Y001347D02*
X018184Y001347D01*
X018184Y001189D02*
X018225Y001189D01*
X017892Y001189D02*
X017546Y001189D01*
X017488Y001130D02*
X017628Y001271D01*
X017705Y001455D01*
X017705Y001654D01*
X017628Y001838D01*
X017488Y001978D01*
X017304Y002054D01*
X017105Y002054D01*
X016921Y001978D01*
X016781Y001838D01*
X016705Y001654D01*
X016705Y001455D01*
X016781Y001271D01*
X016921Y001130D01*
X017105Y001054D01*
X017304Y001054D01*
X017488Y001130D01*
X017660Y001347D02*
X017771Y001347D01*
X017726Y001506D02*
X017705Y001506D01*
X017700Y001664D02*
X017736Y001664D01*
X017806Y001823D02*
X017635Y001823D01*
X017480Y001981D02*
X017985Y001981D01*
X016929Y001981D02*
X016480Y001981D01*
X016488Y001978D02*
X016304Y002054D01*
X016105Y002054D01*
X015921Y001978D01*
X015781Y001838D01*
X015705Y001654D01*
X015705Y001455D01*
X015781Y001271D01*
X015921Y001130D01*
X016105Y001054D01*
X016304Y001054D01*
X016488Y001130D01*
X016628Y001271D01*
X016705Y001455D01*
X016705Y001654D01*
X016628Y001838D01*
X016488Y001978D01*
X016635Y001823D02*
X016775Y001823D01*
X016709Y001664D02*
X016700Y001664D01*
X016705Y001506D02*
X016705Y001506D01*
X016749Y001347D02*
X016660Y001347D01*
X016546Y001189D02*
X016863Y001189D01*
X015863Y001189D02*
X015546Y001189D01*
X015488Y001130D02*
X015628Y001271D01*
X015705Y001455D01*
X015705Y001654D01*
X015628Y001838D01*
X015488Y001978D01*
X015304Y002054D01*
X015105Y002054D01*
X014921Y001978D01*
X014781Y001838D01*
X014705Y001654D01*
X014705Y001455D01*
X014781Y001271D01*
X014921Y001130D01*
X015105Y001054D01*
X015304Y001054D01*
X015488Y001130D01*
X015660Y001347D02*
X015749Y001347D01*
X015705Y001506D02*
X015705Y001506D01*
X015700Y001664D02*
X015709Y001664D01*
X015775Y001823D02*
X015635Y001823D01*
X015480Y001981D02*
X015929Y001981D01*
X014929Y001981D02*
X012603Y001981D01*
X011987Y001981D02*
X011422Y001981D01*
X011615Y002140D02*
X011794Y002140D01*
X011758Y002932D02*
X011651Y002932D01*
X011493Y003091D02*
X011916Y003091D01*
X010735Y003091D02*
X007930Y003091D01*
X008093Y002932D02*
X010577Y002932D01*
X010504Y002774D02*
X008215Y002774D01*
X008307Y002615D02*
X010467Y002615D01*
X010467Y002457D02*
X008358Y002457D01*
X008400Y002298D02*
X010519Y002298D01*
X010613Y002140D02*
X008405Y002140D01*
X008405Y001981D02*
X010806Y001981D01*
X008366Y001823D02*
X014775Y001823D01*
X014709Y001664D02*
X008324Y001664D01*
X008233Y001506D02*
X014705Y001506D01*
X014749Y001347D02*
X008124Y001347D01*
X007966Y001189D02*
X014863Y001189D01*
X013558Y005628D02*
X012251Y005628D01*
X012410Y005786D02*
X013399Y005786D01*
X013241Y005945D02*
X012569Y005945D01*
X012727Y006103D02*
X013082Y006103D01*
X012923Y006262D02*
X012886Y006262D01*
X012163Y008006D02*
X011921Y008006D01*
X014415Y011652D02*
X008358Y011652D01*
X008400Y011811D02*
X014415Y011811D01*
X014415Y011969D02*
X008405Y011969D01*
X008405Y012128D02*
X014415Y012128D01*
X014415Y012287D02*
X008366Y012287D01*
X008323Y012445D02*
X014415Y012445D01*
X014415Y012604D02*
X008233Y012604D01*
X008124Y012762D02*
X014415Y012762D01*
X014415Y012921D02*
X007965Y012921D01*
X007708Y013079D02*
X014415Y013079D01*
X014415Y013238D02*
X006185Y013238D01*
X006185Y013396D02*
X014415Y013396D01*
X014415Y013555D02*
X006185Y013555D01*
X006185Y013713D02*
X014415Y013713D01*
X014415Y013872D02*
X006185Y013872D01*
X006185Y014031D02*
X014415Y014031D01*
X014415Y014189D02*
X006185Y014189D01*
X006185Y014348D02*
X014415Y014348D01*
X014415Y014506D02*
X006185Y014506D01*
X006185Y014665D02*
X014415Y014665D01*
X014415Y014823D02*
X006185Y014823D01*
X006185Y014982D02*
X014415Y014982D01*
X014415Y015140D02*
X006185Y015140D01*
X006185Y015299D02*
X014415Y015299D01*
X014415Y015457D02*
X006185Y015457D01*
X006185Y015616D02*
X014415Y015616D01*
X014415Y015774D02*
X006185Y015774D01*
X006185Y015933D02*
X014415Y015933D01*
X014415Y016092D02*
X006185Y016092D01*
X006185Y016250D02*
X014415Y016250D01*
X014415Y016409D02*
X006185Y016409D01*
X006185Y016567D02*
X014415Y016567D01*
X014415Y016726D02*
X006185Y016726D01*
X006185Y016884D02*
X014415Y016884D01*
X014415Y017043D02*
X006185Y017043D01*
X006185Y017201D02*
X014415Y017201D01*
X014415Y017360D02*
X006185Y017360D01*
X006185Y017518D02*
X014415Y017518D01*
X014415Y017677D02*
X006185Y017677D01*
X006185Y017836D02*
X014415Y017836D01*
X014415Y017994D02*
X006185Y017994D01*
X006185Y018153D02*
X014415Y018153D01*
X014415Y018311D02*
X006185Y018311D01*
X006185Y018470D02*
X014415Y018470D01*
X014415Y018628D02*
X006185Y018628D01*
X006185Y018787D02*
X014415Y018787D01*
X014415Y018945D02*
X006185Y018945D01*
X006185Y019104D02*
X014415Y019104D01*
X014415Y019262D02*
X006185Y019262D01*
X006185Y019421D02*
X014415Y019421D01*
X014415Y019580D02*
X006185Y019580D01*
X006185Y019738D02*
X014415Y019738D01*
X014415Y019897D02*
X006185Y019897D01*
X006185Y020055D02*
X011503Y020055D01*
X011505Y020054D02*
X011704Y020054D01*
X011888Y020130D01*
X012028Y020271D01*
X012105Y020455D01*
X012105Y020654D01*
X012028Y020838D01*
X011888Y020978D01*
X011704Y021054D01*
X011505Y021054D01*
X011321Y020978D01*
X011181Y020838D01*
X011105Y020654D01*
X011105Y020455D01*
X011181Y020271D01*
X011321Y020130D01*
X011505Y020054D01*
X011706Y020055D02*
X013503Y020055D01*
X013505Y020054D02*
X013704Y020054D01*
X013888Y020130D01*
X014028Y020271D01*
X014105Y020455D01*
X014105Y020654D01*
X014028Y020838D01*
X013888Y020978D01*
X013704Y021054D01*
X013505Y021054D01*
X013321Y020978D01*
X013181Y020838D01*
X013105Y020654D01*
X013105Y020455D01*
X013181Y020271D01*
X013321Y020130D01*
X013505Y020054D01*
X013706Y020055D02*
X014415Y020055D01*
X014238Y020214D02*
X013971Y020214D01*
X014070Y020372D02*
X014139Y020372D01*
X014105Y020531D02*
X014105Y020531D01*
X014090Y020689D02*
X014119Y020689D01*
X014191Y020848D02*
X014018Y020848D01*
X013820Y021006D02*
X014390Y021006D01*
X014820Y021006D02*
X015390Y021006D01*
X015191Y020848D02*
X015018Y020848D01*
X015090Y020689D02*
X015119Y020689D01*
X015105Y020531D02*
X015105Y020531D01*
X015070Y020372D02*
X015139Y020372D01*
X015238Y020214D02*
X014971Y020214D01*
X015971Y020214D02*
X016238Y020214D01*
X016139Y020372D02*
X016070Y020372D01*
X016105Y020531D02*
X016105Y020531D01*
X016090Y020689D02*
X016119Y020689D01*
X016191Y020848D02*
X016018Y020848D01*
X015820Y021006D02*
X016390Y021006D01*
X018820Y021006D02*
X019990Y021006D01*
X019921Y020978D02*
X019781Y020838D01*
X019705Y020654D01*
X019705Y020455D01*
X019781Y020271D01*
X019921Y020130D01*
X020105Y020054D01*
X020304Y020054D01*
X020488Y020130D01*
X020628Y020271D01*
X020705Y020455D01*
X020781Y020271D01*
X020921Y020130D01*
X021105Y020054D01*
X021304Y020054D01*
X021488Y020130D01*
X021628Y020271D01*
X021705Y020455D01*
X021781Y020271D01*
X021921Y020130D01*
X022105Y020054D01*
X022304Y020054D01*
X022488Y020130D01*
X022628Y020271D01*
X022705Y020455D01*
X022781Y020271D01*
X022921Y020130D01*
X023105Y020054D01*
X023304Y020054D01*
X023488Y020130D01*
X023628Y020271D01*
X023705Y020455D01*
X023781Y020271D01*
X023921Y020130D01*
X024105Y020054D01*
X024304Y020054D01*
X024488Y020130D01*
X024628Y020271D01*
X024705Y020455D01*
X024781Y020271D01*
X024921Y020130D01*
X025105Y020054D01*
X025304Y020054D01*
X025488Y020130D01*
X025628Y020271D01*
X025705Y020455D01*
X025705Y020654D01*
X025628Y020838D01*
X025488Y020978D01*
X025304Y021054D01*
X025105Y021054D01*
X024921Y020978D01*
X024781Y020838D01*
X024705Y020654D01*
X024705Y020455D01*
X024705Y020654D01*
X024628Y020838D01*
X024488Y020978D01*
X024304Y021054D01*
X024105Y021054D01*
X023921Y020978D01*
X023781Y020838D01*
X023705Y020654D01*
X023705Y020455D01*
X023705Y020654D01*
X023628Y020838D01*
X023488Y020978D01*
X023304Y021054D01*
X023105Y021054D01*
X022921Y020978D01*
X022781Y020838D01*
X022705Y020654D01*
X022705Y020455D01*
X022705Y020654D01*
X022628Y020838D01*
X022488Y020978D01*
X022304Y021054D01*
X022105Y021054D01*
X021921Y020978D01*
X021781Y020838D01*
X021705Y020654D01*
X021705Y020455D01*
X021705Y020654D01*
X021628Y020838D01*
X021488Y020978D01*
X021304Y021054D01*
X021105Y021054D01*
X020921Y020978D01*
X020781Y020838D01*
X020705Y020654D01*
X020705Y020455D01*
X020705Y020654D01*
X020628Y020838D01*
X020488Y020978D01*
X020304Y021054D01*
X020105Y021054D01*
X019921Y020978D01*
X019791Y020848D02*
X019018Y020848D01*
X019090Y020689D02*
X019719Y020689D01*
X019705Y020531D02*
X019105Y020531D01*
X019200Y020372D02*
X019739Y020372D01*
X019838Y020214D02*
X019359Y020214D01*
X019517Y020055D02*
X020103Y020055D01*
X020306Y020055D02*
X021103Y020055D01*
X021306Y020055D02*
X022103Y020055D01*
X022306Y020055D02*
X023103Y020055D01*
X023306Y020055D02*
X024103Y020055D01*
X024306Y020055D02*
X025103Y020055D01*
X025306Y020055D02*
X026095Y020055D01*
X026095Y019897D02*
X019676Y019897D01*
X019834Y019738D02*
X026095Y019738D01*
X026095Y019580D02*
X019993Y019580D01*
X020151Y019421D02*
X026095Y019421D01*
X026095Y019262D02*
X020310Y019262D01*
X020468Y019104D02*
X026095Y019104D01*
X026095Y018945D02*
X020627Y018945D01*
X020786Y018787D02*
X026095Y018787D01*
X026095Y018628D02*
X020835Y018628D01*
X020835Y018470D02*
X026095Y018470D01*
X026095Y018311D02*
X020835Y018311D01*
X020835Y018153D02*
X026095Y018153D01*
X026095Y017994D02*
X020835Y017994D01*
X020835Y017836D02*
X026107Y017836D01*
X026228Y017677D02*
X020835Y017677D01*
X020835Y017518D02*
X026387Y017518D01*
X026545Y017360D02*
X020835Y017360D01*
X020835Y017201D02*
X026704Y017201D01*
X026705Y017043D02*
X020835Y017043D01*
X020835Y016884D02*
X026734Y016884D01*
X026826Y016726D02*
X020835Y016726D01*
X020835Y016567D02*
X027074Y016567D01*
X027105Y016554D02*
X027304Y016554D01*
X027488Y016478D01*
X027595Y016371D01*
X027595Y016737D01*
X027488Y016630D01*
X027304Y016554D01*
X027105Y016554D01*
X027335Y016567D02*
X027595Y016567D01*
X027595Y016409D02*
X027557Y016409D01*
X027583Y016726D02*
X027595Y016726D01*
X026852Y016409D02*
X020835Y016409D01*
X020835Y016250D02*
X026744Y016250D01*
X026705Y016092D02*
X020835Y016092D01*
X020835Y015933D02*
X026714Y015933D01*
X026779Y015774D02*
X020835Y015774D01*
X020835Y015616D02*
X026956Y015616D01*
X026943Y015457D02*
X020835Y015457D01*
X020835Y015299D02*
X026790Y015299D01*
X026732Y015140D02*
X020835Y015140D01*
X020835Y014982D02*
X026730Y014982D01*
X026784Y014823D02*
X020835Y014823D01*
X020835Y014665D02*
X026924Y014665D01*
X026989Y014506D02*
X020835Y014506D01*
X020835Y014348D02*
X026791Y014348D01*
X026719Y014189D02*
X020835Y014189D01*
X020835Y014031D02*
X026705Y014031D01*
X026669Y013872D02*
X020835Y013872D01*
X020835Y013713D02*
X026510Y013713D01*
X026352Y013555D02*
X020835Y013555D01*
X026618Y017994D02*
X026705Y017994D01*
X026705Y018153D02*
X026595Y018153D01*
X026595Y018311D02*
X026770Y018311D01*
X026913Y018470D02*
X026595Y018470D01*
X026595Y018628D02*
X027595Y018628D01*
X027595Y018470D02*
X027496Y018470D01*
X027595Y018787D02*
X026595Y018787D01*
X026595Y018945D02*
X027595Y018945D01*
X027595Y019104D02*
X026595Y019104D01*
X026595Y019262D02*
X027595Y019262D01*
X027595Y019421D02*
X026595Y019421D01*
X026595Y019580D02*
X027595Y019580D01*
X027595Y019738D02*
X026595Y019738D01*
X026595Y019897D02*
X027595Y019897D01*
X027595Y020055D02*
X027306Y020055D01*
X027103Y020055D02*
X026595Y020055D01*
X026595Y020214D02*
X026838Y020214D01*
X026739Y020372D02*
X026670Y020372D01*
X026705Y020531D02*
X026705Y020531D01*
X026690Y020689D02*
X026719Y020689D01*
X026791Y020848D02*
X026618Y020848D01*
X026420Y021006D02*
X026990Y021006D01*
X027420Y021006D02*
X027595Y021006D01*
X027571Y020214D02*
X027595Y020214D01*
X025990Y021006D02*
X025420Y021006D01*
X025618Y020848D02*
X025791Y020848D01*
X025719Y020689D02*
X025690Y020689D01*
X025705Y020531D02*
X025705Y020531D01*
X025670Y020372D02*
X025739Y020372D01*
X025838Y020214D02*
X025571Y020214D01*
X024838Y020214D02*
X024571Y020214D01*
X024670Y020372D02*
X024739Y020372D01*
X024705Y020531D02*
X024705Y020531D01*
X024690Y020689D02*
X024719Y020689D01*
X024791Y020848D02*
X024618Y020848D01*
X024420Y021006D02*
X024990Y021006D01*
X023990Y021006D02*
X023420Y021006D01*
X023618Y020848D02*
X023791Y020848D01*
X023719Y020689D02*
X023690Y020689D01*
X023705Y020531D02*
X023705Y020531D01*
X023670Y020372D02*
X023739Y020372D01*
X023838Y020214D02*
X023571Y020214D01*
X022838Y020214D02*
X022571Y020214D01*
X022670Y020372D02*
X022739Y020372D01*
X022705Y020531D02*
X022705Y020531D01*
X022690Y020689D02*
X022719Y020689D01*
X022791Y020848D02*
X022618Y020848D01*
X022420Y021006D02*
X022990Y021006D01*
X021990Y021006D02*
X021420Y021006D01*
X021618Y020848D02*
X021791Y020848D01*
X021719Y020689D02*
X021690Y020689D01*
X021705Y020531D02*
X021705Y020531D01*
X021670Y020372D02*
X021739Y020372D01*
X021838Y020214D02*
X021571Y020214D01*
X020838Y020214D02*
X020571Y020214D01*
X020670Y020372D02*
X020739Y020372D01*
X020705Y020531D02*
X020705Y020531D01*
X020690Y020689D02*
X020719Y020689D01*
X020791Y020848D02*
X020618Y020848D01*
X020420Y021006D02*
X020990Y021006D01*
X027184Y015457D02*
X027225Y015457D01*
X027225Y015299D02*
X027184Y015299D01*
X027184Y015140D02*
X027225Y015140D01*
X027225Y014982D02*
X027184Y014982D01*
X027184Y014823D02*
X027225Y014823D01*
X027225Y014665D02*
X027184Y014665D01*
X027420Y014506D02*
X027595Y014506D01*
X027595Y014665D02*
X027485Y014665D01*
X027466Y015457D02*
X027595Y015457D01*
X027595Y015616D02*
X027453Y015616D01*
X027595Y006579D02*
X020835Y006579D01*
X020835Y006420D02*
X027595Y006420D01*
X027595Y006262D02*
X020835Y006262D01*
X020835Y006103D02*
X027595Y006103D01*
X027595Y005945D02*
X021520Y005945D01*
X021611Y005786D02*
X027595Y005786D01*
X027595Y005628D02*
X021625Y005628D01*
X021572Y005469D02*
X027595Y005469D01*
X027595Y005311D02*
X021392Y005311D01*
X027595Y003250D02*
X007641Y003250D01*
X006437Y006103D02*
X006185Y006103D01*
X006185Y006262D02*
X006278Y006262D01*
X006225Y006420D02*
X006185Y006420D01*
X006185Y006579D02*
X006225Y006579D01*
X006249Y006738D02*
X006185Y006738D01*
X006185Y006896D02*
X006408Y006896D01*
X007205Y008799D02*
X007413Y008799D01*
X007255Y008957D02*
X007129Y008957D01*
X007205Y009116D02*
X006970Y009116D01*
X006285Y012762D02*
X006185Y012762D01*
X006185Y012921D02*
X006444Y012921D01*
X006701Y013079D02*
X006185Y013079D01*
X006185Y020214D02*
X011238Y020214D01*
X011139Y020372D02*
X006185Y020372D01*
X006185Y020531D02*
X011105Y020531D01*
X011119Y020689D02*
X006185Y020689D01*
X006185Y020848D02*
X011191Y020848D01*
X011390Y021006D02*
X006185Y021006D01*
X011820Y021006D02*
X012443Y021006D01*
X012420Y020999D02*
X012353Y020965D01*
X012292Y020920D01*
X012238Y020867D01*
X012194Y020806D01*
X012160Y020739D01*
X012136Y020667D01*
X012125Y020592D01*
X012125Y020574D01*
X012584Y020574D01*
X012584Y020534D01*
X012125Y020534D01*
X012125Y020517D01*
X012136Y020442D01*
X012160Y020370D01*
X012194Y020303D01*
X012238Y020242D01*
X012292Y020188D01*
X012353Y020144D01*
X012420Y020109D01*
X012492Y020086D01*
X012567Y020074D01*
X012584Y020074D01*
X012584Y020534D01*
X012625Y020534D01*
X012625Y020574D01*
X013085Y020574D01*
X013085Y020592D01*
X013073Y020667D01*
X013049Y020739D01*
X013015Y020806D01*
X012971Y020867D01*
X012917Y020920D01*
X012856Y020965D01*
X012789Y020999D01*
X012717Y021022D01*
X012642Y021034D01*
X012625Y021034D01*
X012625Y020575D01*
X012584Y020575D01*
X012584Y021034D01*
X012567Y021034D01*
X012492Y021022D01*
X012420Y020999D01*
X012584Y021006D02*
X012625Y021006D01*
X012766Y021006D02*
X013390Y021006D01*
X013191Y020848D02*
X012985Y020848D01*
X013065Y020689D02*
X013119Y020689D01*
X013085Y020534D02*
X012625Y020534D01*
X012625Y020074D01*
X012642Y020074D01*
X012717Y020086D01*
X012789Y020109D01*
X012856Y020144D01*
X012917Y020188D01*
X012971Y020242D01*
X013015Y020303D01*
X013049Y020370D01*
X013073Y020442D01*
X013085Y020517D01*
X013085Y020534D01*
X013085Y020531D02*
X013105Y020531D01*
X013139Y020372D02*
X013050Y020372D01*
X012943Y020214D02*
X013238Y020214D01*
X012625Y020214D02*
X012584Y020214D01*
X012584Y020372D02*
X012625Y020372D01*
X012625Y020531D02*
X012584Y020531D01*
X012584Y020689D02*
X012625Y020689D01*
X012625Y020848D02*
X012584Y020848D01*
X012225Y020848D02*
X012018Y020848D01*
X012090Y020689D02*
X012144Y020689D01*
X012125Y020531D02*
X012105Y020531D01*
X012070Y020372D02*
X012159Y020372D01*
X012266Y020214D02*
X011971Y020214D01*
M02*
