G75*
G70*
%OFA0B0*%
%FSLAX24Y24*%
%IPPOS*%
%LPD*%
%AMOC8*
5,1,8,0,0,1.08239X$1,22.5*
%
%ADD10C,0.0030*%
%ADD11C,0.0080*%
%ADD12C,0.0220*%
%ADD13R,0.0300X0.0180*%
D10*
X009020Y002831D02*
X009081Y002769D01*
X009205Y002769D01*
X009266Y002831D01*
X009266Y003078D01*
X009205Y003140D01*
X009081Y003140D01*
X009020Y003078D01*
X009020Y002831D01*
X009388Y002954D02*
X009511Y002954D01*
X009633Y002954D02*
X009757Y002954D01*
X009695Y003078D02*
X009757Y003140D01*
X009695Y003078D02*
X009695Y002769D01*
X009450Y002769D02*
X009450Y003078D01*
X009511Y003140D01*
X013820Y003078D02*
X013820Y002831D01*
X013881Y002769D01*
X014005Y002769D01*
X014066Y002831D01*
X014066Y003078D01*
X014005Y003140D01*
X013881Y003140D01*
X013820Y003078D01*
X014188Y003016D02*
X014188Y002769D01*
X014435Y002769D02*
X014435Y002954D01*
X014373Y003016D01*
X014188Y003016D01*
X017019Y002884D02*
X017266Y002884D01*
X017390Y002761D01*
X017266Y002638D01*
X017019Y002638D01*
X017019Y002516D02*
X017019Y002269D01*
X017204Y002269D01*
X017143Y002393D01*
X017143Y002454D01*
X017204Y002516D01*
X017328Y002516D01*
X017390Y002454D01*
X017390Y002331D01*
X017328Y002269D01*
X018019Y002331D02*
X018081Y002269D01*
X018328Y002269D01*
X018390Y002331D01*
X018390Y002454D01*
X018328Y002516D01*
X018204Y002516D01*
X018204Y002393D01*
X018081Y002516D02*
X018019Y002454D01*
X018019Y002331D01*
X018019Y002638D02*
X018390Y002884D01*
X018019Y002884D01*
X018019Y003006D02*
X018019Y003191D01*
X018081Y003253D01*
X018328Y003253D01*
X018390Y003191D01*
X018390Y003006D01*
X018019Y003006D01*
X018019Y002638D02*
X018390Y002638D01*
X019019Y002638D02*
X019390Y002884D01*
X019019Y002884D01*
X019019Y003006D02*
X019019Y003191D01*
X019081Y003253D01*
X019328Y003253D01*
X019390Y003191D01*
X019390Y003006D01*
X019019Y003006D01*
X019019Y002638D02*
X019390Y002638D01*
X019328Y002516D02*
X019204Y002516D01*
X019204Y002393D01*
X019081Y002516D02*
X019019Y002454D01*
X019019Y002331D01*
X019081Y002269D01*
X019328Y002269D01*
X019390Y002331D01*
X019390Y002454D01*
X019328Y002516D01*
X012666Y007554D02*
X012420Y007554D01*
X012605Y007740D01*
X012605Y007369D01*
X012605Y008369D02*
X012481Y008369D01*
X012420Y008431D01*
X012543Y008554D02*
X012605Y008554D01*
X012666Y008493D01*
X012666Y008431D01*
X012605Y008369D01*
X012605Y008554D02*
X012666Y008616D01*
X012666Y008678D01*
X012605Y008740D01*
X012481Y008740D01*
X012420Y008678D01*
X012420Y009369D02*
X012666Y009616D01*
X012666Y009678D01*
X012605Y009740D01*
X012481Y009740D01*
X012420Y009678D01*
X012420Y009369D02*
X012666Y009369D01*
X012666Y010369D02*
X012420Y010369D01*
X012543Y010369D02*
X012543Y010740D01*
X012420Y010616D01*
X012100Y011769D02*
X011977Y011769D01*
X012039Y011769D02*
X012039Y012140D01*
X011977Y012140D01*
X011794Y012016D02*
X011670Y012016D01*
X011670Y011893D02*
X011855Y011893D01*
X011855Y011954D02*
X011855Y011769D01*
X011670Y011769D01*
X011609Y011831D01*
X011670Y011893D01*
X011794Y012016D02*
X011855Y011954D01*
X011486Y011769D02*
X011363Y011769D01*
X011425Y011769D02*
X011425Y012016D01*
X011363Y012016D01*
X011241Y012016D02*
X011180Y012016D01*
X011056Y011893D01*
X010935Y011893D02*
X010688Y011893D01*
X010688Y011954D02*
X010688Y011831D01*
X010750Y011769D01*
X010873Y011769D01*
X010935Y011893D02*
X010935Y011954D01*
X010873Y012016D01*
X010750Y012016D01*
X010688Y011954D01*
X010566Y011893D02*
X010566Y011831D01*
X010505Y011769D01*
X010381Y011769D01*
X010320Y011831D01*
X010381Y011954D02*
X010320Y012016D01*
X010320Y012078D01*
X010381Y012140D01*
X010505Y012140D01*
X010566Y012078D01*
X010505Y011954D02*
X010566Y011893D01*
X010505Y011954D02*
X010381Y011954D01*
X011056Y012016D02*
X011056Y011769D01*
X011425Y012140D02*
X011425Y012201D01*
X014720Y010440D02*
X014720Y010069D01*
X014966Y010069D01*
X015088Y010069D02*
X015335Y010316D01*
X015456Y010316D02*
X015580Y010316D01*
X015518Y010378D02*
X015518Y010131D01*
X015580Y010069D01*
X015702Y010069D02*
X015702Y010316D01*
X015702Y010193D02*
X015825Y010316D01*
X015887Y010316D01*
X016070Y010316D02*
X016194Y010316D01*
X016255Y010254D01*
X016255Y010069D01*
X016070Y010069D01*
X016009Y010131D01*
X016070Y010193D01*
X016255Y010193D01*
X015335Y010069D02*
X015088Y010316D01*
X014966Y010440D02*
X014720Y010440D01*
X014720Y010254D02*
X014843Y010254D01*
X010003Y007678D02*
X010003Y007431D01*
X009941Y007369D01*
X009756Y007369D01*
X009756Y007740D01*
X009941Y007740D01*
X010003Y007678D01*
X009635Y007740D02*
X009635Y007369D01*
X009388Y007740D01*
X009388Y007369D01*
X009266Y007431D02*
X009266Y007554D01*
X009143Y007554D01*
X009020Y007431D02*
X009020Y007678D01*
X009081Y007740D01*
X009205Y007740D01*
X009266Y007678D01*
X009266Y007431D02*
X009205Y007369D01*
X009081Y007369D01*
X009020Y007431D01*
X011381Y018569D02*
X011628Y018569D01*
X011690Y018631D01*
X011690Y018754D01*
X011628Y018816D01*
X011504Y018816D01*
X011504Y018693D01*
X011381Y018816D02*
X011319Y018754D01*
X011319Y018631D01*
X011381Y018569D01*
X011319Y018938D02*
X011690Y019184D01*
X011319Y019184D01*
X011319Y019306D02*
X011319Y019491D01*
X011381Y019553D01*
X011628Y019553D01*
X011690Y019491D01*
X011690Y019306D01*
X011319Y019306D01*
X011319Y018938D02*
X011690Y018938D01*
X012419Y018931D02*
X012481Y018869D01*
X012728Y018869D01*
X012790Y018931D01*
X012790Y019054D01*
X012728Y019116D01*
X012604Y019116D01*
X012604Y018993D01*
X012481Y019116D02*
X012419Y019054D01*
X012419Y018931D01*
X012419Y019238D02*
X012790Y019484D01*
X012419Y019484D01*
X012419Y019606D02*
X012419Y019791D01*
X012481Y019853D01*
X012728Y019853D01*
X012790Y019791D01*
X012790Y019606D01*
X012419Y019606D01*
X012419Y019238D02*
X012790Y019238D01*
X010649Y019631D02*
X010588Y019569D01*
X010464Y019569D01*
X010403Y019631D01*
X010649Y019878D01*
X010649Y019631D01*
X010403Y019631D02*
X010403Y019878D01*
X010464Y019940D01*
X010588Y019940D01*
X010649Y019878D01*
X010281Y019569D02*
X010034Y019569D01*
X010158Y019569D02*
X010158Y019940D01*
X010034Y019816D01*
X009913Y019878D02*
X009913Y019631D01*
X009851Y019569D01*
X009728Y019569D01*
X009666Y019631D01*
X009913Y019878D01*
X009851Y019940D01*
X009728Y019940D01*
X009666Y019878D01*
X009666Y019631D01*
X009545Y019569D02*
X009298Y019569D01*
X009545Y019816D01*
X009545Y019878D01*
X009483Y019940D01*
X009359Y019940D01*
X009298Y019878D01*
X008808Y019940D02*
X008561Y019940D01*
X008561Y019754D01*
X008685Y019816D01*
X008746Y019816D01*
X008808Y019754D01*
X008808Y019631D01*
X008746Y019569D01*
X008623Y019569D01*
X008561Y019631D01*
X008440Y019569D02*
X008193Y019569D01*
X008440Y019816D01*
X008440Y019878D01*
X008378Y019940D01*
X008254Y019940D01*
X008193Y019878D01*
X007703Y019754D02*
X007703Y019569D01*
X007703Y019754D02*
X007641Y019816D01*
X007456Y019816D01*
X007456Y019569D01*
X007335Y019569D02*
X007335Y019816D01*
X007335Y019569D02*
X007150Y019569D01*
X007088Y019631D01*
X007088Y019816D01*
X006966Y019940D02*
X006843Y019940D01*
X006905Y019940D02*
X006905Y019631D01*
X006843Y019569D01*
X006781Y019569D01*
X006720Y019631D01*
X006843Y020569D02*
X006843Y020940D01*
X006720Y020940D02*
X006966Y020940D01*
X007150Y020816D02*
X007273Y020816D01*
X007335Y020754D01*
X007335Y020693D01*
X007088Y020693D01*
X007088Y020754D02*
X007088Y020631D01*
X007150Y020569D01*
X007273Y020569D01*
X007456Y020631D02*
X007518Y020569D01*
X007703Y020569D01*
X007824Y020569D02*
X007948Y020569D01*
X007886Y020569D02*
X007886Y020940D01*
X007824Y020940D01*
X007703Y020816D02*
X007518Y020816D01*
X007456Y020754D01*
X007456Y020631D01*
X007150Y020816D02*
X007088Y020754D01*
X008070Y020631D02*
X008132Y020693D01*
X008317Y020693D01*
X008317Y020754D02*
X008317Y020569D01*
X008132Y020569D01*
X008070Y020631D01*
X008132Y020816D02*
X008255Y020816D01*
X008317Y020754D01*
X008807Y020693D02*
X008930Y020569D01*
X009053Y020693D01*
X009053Y020940D01*
X009175Y020878D02*
X009237Y020940D01*
X009360Y020940D01*
X009422Y020878D01*
X009422Y020816D01*
X009175Y020569D01*
X009422Y020569D01*
X008807Y020693D02*
X008807Y020940D01*
X015419Y019729D02*
X015790Y019729D01*
X015790Y019606D02*
X015790Y019853D01*
X015543Y019606D02*
X015419Y019729D01*
X015790Y019484D02*
X015790Y019238D01*
X015790Y019361D02*
X015419Y019361D01*
X015543Y019238D01*
X015481Y019116D02*
X015419Y019054D01*
X015419Y018869D01*
X015790Y018869D01*
X015790Y019054D01*
X015728Y019116D01*
X015481Y019116D01*
X016419Y019054D02*
X016419Y018869D01*
X016790Y018869D01*
X016790Y019054D01*
X016728Y019116D01*
X016481Y019116D01*
X016419Y019054D01*
X016543Y019238D02*
X016419Y019361D01*
X016790Y019361D01*
X016790Y019238D02*
X016790Y019484D01*
X016728Y019606D02*
X016481Y019853D01*
X016728Y019853D01*
X016790Y019791D01*
X016790Y019668D01*
X016728Y019606D01*
X016481Y019606D01*
X016419Y019668D01*
X016419Y019791D01*
X016481Y019853D01*
X017419Y019423D02*
X017419Y019299D01*
X017481Y019238D01*
X017543Y019238D01*
X017604Y019299D01*
X017604Y019484D01*
X017481Y019484D02*
X017728Y019484D01*
X017790Y019423D01*
X017790Y019299D01*
X017728Y019238D01*
X017728Y019116D02*
X017481Y019116D01*
X017419Y019054D01*
X017419Y018869D01*
X017790Y018869D01*
X017790Y019054D01*
X017728Y019116D01*
X017419Y019423D02*
X017481Y019484D01*
X018419Y019423D02*
X018419Y019299D01*
X018481Y019238D01*
X018543Y019238D01*
X018604Y019299D01*
X018604Y019423D01*
X018666Y019484D01*
X018728Y019484D01*
X018790Y019423D01*
X018790Y019299D01*
X018728Y019238D01*
X018666Y019238D01*
X018604Y019299D01*
X018604Y019423D02*
X018543Y019484D01*
X018481Y019484D01*
X018419Y019423D01*
X018481Y019116D02*
X018419Y019054D01*
X018419Y018869D01*
X018790Y018869D01*
X018790Y019054D01*
X018728Y019116D01*
X018481Y019116D01*
X024720Y018240D02*
X024720Y017869D01*
X024720Y017993D02*
X024905Y017993D01*
X024966Y018054D01*
X024966Y018178D01*
X024905Y018240D01*
X024720Y018240D01*
X024843Y017993D02*
X024966Y017869D01*
X025211Y017869D02*
X025211Y018240D01*
X025088Y018240D02*
X025335Y018240D01*
X025456Y018178D02*
X025456Y018116D01*
X025518Y018054D01*
X025641Y018054D01*
X025703Y017993D01*
X025703Y017931D01*
X025641Y017869D01*
X025518Y017869D01*
X025456Y017931D01*
X025456Y018178D02*
X025518Y018240D01*
X025641Y018240D01*
X025703Y018178D01*
X025824Y018054D02*
X026071Y018054D01*
X026193Y018178D02*
X026193Y017931D01*
X026254Y017869D01*
X026378Y017869D01*
X026440Y017931D01*
X026440Y018178D01*
X026378Y018240D01*
X026254Y018240D01*
X026193Y018178D01*
X026324Y017240D02*
X026448Y017240D01*
X026386Y017240D02*
X026386Y016869D01*
X026324Y016869D02*
X026448Y016869D01*
X026203Y017054D02*
X025956Y017054D01*
X025835Y016869D02*
X025588Y017240D01*
X025466Y017178D02*
X025405Y017240D01*
X025220Y017240D01*
X025220Y016869D01*
X025220Y016993D02*
X025405Y016993D01*
X025466Y017054D01*
X025466Y017178D01*
X025343Y016993D02*
X025466Y016869D01*
X025588Y016869D02*
X025835Y017240D01*
X025735Y016240D02*
X025488Y015869D01*
X025243Y015869D02*
X025243Y016240D01*
X025120Y016240D02*
X025366Y016240D01*
X025488Y016240D02*
X025735Y015869D01*
X025856Y016054D02*
X026103Y016054D01*
X026224Y015931D02*
X026286Y015869D01*
X026410Y015869D01*
X026471Y015931D01*
X026471Y016178D01*
X026410Y016240D01*
X026286Y016240D01*
X026224Y016178D01*
X026224Y015931D01*
X026256Y015240D02*
X026441Y015240D01*
X026503Y015178D01*
X026503Y014931D01*
X026441Y014869D01*
X026256Y014869D01*
X026256Y015240D01*
X026135Y015240D02*
X026135Y014869D01*
X025888Y015240D01*
X025888Y014869D01*
X025766Y014931D02*
X025766Y015054D01*
X025643Y015054D01*
X025520Y014931D02*
X025581Y014869D01*
X025705Y014869D01*
X025766Y014931D01*
X025520Y014931D02*
X025520Y015178D01*
X025581Y015240D01*
X025705Y015240D01*
X025766Y015178D01*
X025766Y014240D02*
X025766Y013993D01*
X025643Y013869D01*
X025520Y013993D01*
X025520Y014240D01*
X025888Y014178D02*
X025888Y013931D01*
X025950Y013869D01*
X026073Y013869D01*
X026135Y013931D01*
X026256Y013931D02*
X026318Y013869D01*
X026441Y013869D01*
X026503Y013931D01*
X026256Y013931D02*
X026256Y014178D01*
X026318Y014240D01*
X026441Y014240D01*
X026503Y014178D01*
X026135Y014178D02*
X026073Y014240D01*
X025950Y014240D01*
X025888Y014178D01*
X025841Y013240D02*
X025718Y013240D01*
X025656Y013178D01*
X025656Y013116D01*
X025718Y013054D01*
X025841Y013054D01*
X025903Y012993D01*
X025903Y012931D01*
X025841Y012869D01*
X025718Y012869D01*
X025656Y012931D01*
X025411Y012869D02*
X025411Y013240D01*
X025288Y013240D02*
X025535Y013240D01*
X025841Y013240D02*
X025903Y013178D01*
X026024Y013054D02*
X026271Y013054D01*
X026393Y012869D02*
X026516Y012869D01*
X026454Y012869D02*
X026454Y013240D01*
X026393Y013240D02*
X026516Y013240D01*
X026332Y012278D02*
X026332Y012031D01*
X026393Y011969D01*
X026516Y012031D02*
X026516Y012154D01*
X026577Y012216D01*
X026701Y012216D01*
X026762Y012154D01*
X026762Y012031D01*
X026701Y011969D01*
X026577Y011969D01*
X026516Y012031D01*
X026393Y012216D02*
X026270Y012216D01*
X026149Y012154D02*
X026149Y012093D01*
X025902Y012093D01*
X025902Y012154D02*
X025902Y012031D01*
X025963Y011969D01*
X026087Y011969D01*
X026149Y012154D02*
X026087Y012216D01*
X025963Y012216D01*
X025902Y012154D01*
X025780Y012216D02*
X025780Y011969D01*
X025595Y011969D01*
X025533Y012031D01*
X025533Y012216D01*
X025350Y012340D02*
X025350Y011969D01*
X025411Y011969D02*
X025288Y011969D01*
X025166Y012031D02*
X025105Y011969D01*
X024920Y011969D01*
X024920Y012340D01*
X025105Y012340D01*
X025166Y012278D01*
X025166Y012216D01*
X025105Y012154D01*
X024920Y012154D01*
X025105Y012154D02*
X025166Y012093D01*
X025166Y012031D01*
X025288Y012340D02*
X025350Y012340D01*
X025105Y012869D02*
X024981Y012869D01*
X024920Y012931D01*
X024920Y013178D01*
X024981Y013240D01*
X025105Y013240D01*
X025166Y013178D01*
X025166Y012931D02*
X025105Y012869D01*
X026884Y012154D02*
X026884Y012031D01*
X026946Y011969D01*
X027069Y011969D01*
X027131Y012031D01*
X027131Y012154D01*
X027069Y012216D01*
X026946Y012216D01*
X026884Y012154D01*
X027252Y012216D02*
X027376Y012216D01*
X027314Y012278D02*
X027314Y012031D01*
X027376Y011969D01*
X027498Y011969D02*
X027498Y012340D01*
X027559Y012216D02*
X027683Y012216D01*
X027744Y012154D01*
X027744Y011969D01*
X027498Y012154D02*
X027559Y012216D01*
D11*
X027455Y012554D02*
X027705Y012804D01*
X027705Y013304D01*
X027455Y013554D01*
X027705Y013804D01*
X027705Y014304D01*
X027455Y014554D01*
X027705Y014804D01*
X027705Y015304D01*
X027455Y015554D01*
X027705Y015804D01*
X027705Y016304D01*
X027455Y016554D01*
X027705Y016804D01*
X027705Y017304D01*
X027455Y017554D01*
X027705Y017804D01*
X027705Y018304D01*
X027455Y018554D01*
X026955Y018554D01*
X026705Y018304D01*
X026705Y017804D01*
X026955Y017554D01*
X026705Y017304D01*
X026705Y016804D01*
X026955Y016554D01*
X026705Y016304D01*
X026705Y015804D01*
X026955Y015554D01*
X026705Y015304D01*
X026705Y014804D01*
X026955Y014554D01*
X026705Y014304D01*
X026705Y013804D01*
X026955Y013554D01*
X026705Y013304D01*
X026705Y012804D01*
X026955Y012554D01*
X027455Y012554D01*
X027455Y020054D02*
X026955Y020054D01*
X026705Y020304D01*
X026455Y020054D01*
X025955Y020054D01*
X025705Y020304D01*
X025455Y020054D01*
X024955Y020054D01*
X024705Y020304D01*
X024455Y020054D01*
X023955Y020054D01*
X023705Y020304D01*
X023455Y020054D01*
X022955Y020054D01*
X022705Y020304D01*
X022455Y020054D01*
X021955Y020054D01*
X021705Y020304D01*
X021455Y020054D01*
X020955Y020054D01*
X020705Y020304D01*
X020455Y020054D01*
X019955Y020054D01*
X019705Y020304D01*
X019705Y020804D01*
X019955Y021054D01*
X020455Y021054D01*
X020705Y020804D01*
X020955Y021054D01*
X021455Y021054D01*
X021705Y020804D01*
X021955Y021054D01*
X022455Y021054D01*
X022705Y020804D01*
X022955Y021054D01*
X023455Y021054D01*
X023705Y020804D01*
X023955Y021054D01*
X024455Y021054D01*
X024705Y020804D01*
X024955Y021054D01*
X025455Y021054D01*
X025705Y020804D01*
X025955Y021054D01*
X026455Y021054D01*
X026705Y020804D01*
X026955Y021054D01*
X027455Y021054D01*
X027705Y020804D01*
X027705Y020304D01*
X027455Y020054D01*
X019105Y020304D02*
X018855Y020054D01*
X018355Y020054D01*
X018105Y020304D01*
X017855Y020054D01*
X017355Y020054D01*
X017105Y020304D01*
X016855Y020054D01*
X016355Y020054D01*
X016105Y020304D01*
X015855Y020054D01*
X015355Y020054D01*
X015105Y020304D01*
X014855Y020054D01*
X014355Y020054D01*
X014105Y020304D01*
X013855Y020054D01*
X013355Y020054D01*
X013105Y020304D01*
X012855Y020054D01*
X012355Y020054D01*
X012105Y020304D01*
X011855Y020054D01*
X011355Y020054D01*
X011105Y020304D01*
X011105Y020804D01*
X011355Y021054D01*
X011855Y021054D01*
X012105Y020804D01*
X012355Y021054D01*
X012855Y021054D01*
X013105Y020804D01*
X013355Y021054D01*
X013855Y021054D01*
X014105Y020804D01*
X014355Y021054D01*
X014855Y021054D01*
X015105Y020804D01*
X015355Y021054D01*
X015855Y021054D01*
X016105Y020804D01*
X016355Y021054D01*
X016855Y021054D01*
X017105Y020804D01*
X017355Y021054D01*
X017855Y021054D01*
X018105Y020804D01*
X018355Y021054D01*
X018855Y021054D01*
X019105Y020804D01*
X019105Y020304D01*
X011955Y011054D02*
X011455Y011054D01*
X011205Y010804D01*
X010955Y011054D01*
X010455Y011054D01*
X010205Y010804D01*
X010205Y010304D01*
X010455Y010054D01*
X010205Y009804D01*
X010205Y009304D01*
X010455Y009054D01*
X010205Y008804D01*
X010205Y008304D01*
X010455Y008054D01*
X010205Y007804D01*
X010205Y007304D01*
X010455Y007054D01*
X010205Y006804D01*
X010205Y006304D01*
X010455Y006054D01*
X010955Y006054D01*
X011205Y006304D01*
X011205Y006804D01*
X010955Y007054D01*
X011205Y007304D01*
X011205Y007804D01*
X010955Y008054D01*
X011205Y008304D01*
X011205Y008804D01*
X010955Y009054D01*
X011205Y009304D01*
X011205Y009804D01*
X010955Y010054D01*
X011205Y010304D01*
X011205Y010804D01*
X011205Y010304D01*
X011455Y010054D01*
X011205Y009804D01*
X011205Y009304D01*
X011455Y009054D01*
X011205Y008804D01*
X011205Y008304D01*
X011455Y008054D01*
X011205Y007804D01*
X011205Y007304D01*
X011455Y007054D01*
X011205Y006804D01*
X011205Y006304D01*
X011455Y006054D01*
X011955Y006054D01*
X012205Y006304D01*
X012205Y006804D01*
X011955Y007054D01*
X012205Y007304D01*
X012205Y007804D01*
X011955Y008054D01*
X012205Y008304D01*
X012205Y008804D01*
X011955Y009054D01*
X012205Y009304D01*
X012205Y009804D01*
X011955Y010054D01*
X012205Y010304D01*
X012205Y010804D01*
X011955Y011054D01*
X014705Y009304D02*
X014955Y009554D01*
X015455Y009554D01*
X015705Y009304D01*
X015705Y008804D01*
X015455Y008554D01*
X014955Y008554D01*
X014705Y008804D01*
X014705Y009304D01*
X013122Y003243D02*
X010287Y003243D01*
X010287Y001865D01*
X013122Y001865D01*
X013122Y003243D01*
X014705Y001804D02*
X014955Y002054D01*
X015455Y002054D01*
X015705Y001804D01*
X015955Y002054D01*
X016455Y002054D01*
X016705Y001804D01*
X016955Y002054D01*
X017455Y002054D01*
X017705Y001804D01*
X017955Y002054D01*
X018455Y002054D01*
X018705Y001804D01*
X018955Y002054D01*
X019455Y002054D01*
X019705Y001804D01*
X019955Y002054D01*
X020455Y002054D01*
X020705Y001804D01*
X020705Y001304D01*
X020455Y001054D01*
X019955Y001054D01*
X019705Y001304D01*
X019455Y001054D01*
X018955Y001054D01*
X018705Y001304D01*
X018455Y001054D01*
X017955Y001054D01*
X017705Y001304D01*
X017455Y001054D01*
X016955Y001054D01*
X016705Y001304D01*
X016455Y001054D01*
X015955Y001054D01*
X015705Y001304D01*
X015455Y001054D01*
X014955Y001054D01*
X014705Y001304D01*
X014705Y001804D01*
X021705Y001804D02*
X021705Y001304D01*
X021955Y001054D01*
X022455Y001054D01*
X022705Y001304D01*
X022955Y001054D01*
X023455Y001054D01*
X023705Y001304D01*
X023955Y001054D01*
X024455Y001054D01*
X024705Y001304D01*
X024955Y001054D01*
X025455Y001054D01*
X025705Y001304D01*
X025955Y001054D01*
X026455Y001054D01*
X026705Y001304D01*
X026955Y001054D01*
X027455Y001054D01*
X027705Y001304D01*
X027705Y001804D01*
X027455Y002054D01*
X026955Y002054D01*
X026705Y001804D01*
X026455Y002054D01*
X025955Y002054D01*
X025705Y001804D01*
X025455Y002054D01*
X024955Y002054D01*
X024705Y001804D01*
X024455Y002054D01*
X023955Y002054D01*
X023705Y001804D01*
X023455Y002054D01*
X022955Y002054D01*
X022705Y001804D01*
X022455Y002054D01*
X021955Y002054D01*
X021705Y001804D01*
D12*
X021217Y004554D02*
X021193Y004554D01*
X019717Y004554D02*
X019693Y004554D01*
X018217Y004554D02*
X018193Y004554D01*
X016717Y004554D02*
X016693Y004554D01*
X015217Y004554D02*
X015193Y004554D01*
D13*
X015205Y006554D03*
X016705Y006554D03*
X018205Y006554D03*
X019705Y006554D03*
X021205Y006554D03*
M02*
