G75*
G70*
%OFA0B0*%
%FSLAX24Y24*%
%IPPOS*%
%LPD*%
%AMOC8*
5,1,8,0,0,1.08239X$1,22.5*
%
%ADD10C,0.0000*%
%ADD11OC8,0.0600*%
%ADD12C,0.2000*%
%ADD13C,0.0600*%
%ADD14C,0.0476*%
%ADD15C,0.0554*%
%ADD16C,0.0860*%
%ADD17C,0.0100*%
%ADD18C,0.0400*%
%ADD19C,0.0160*%
D10*
X002701Y000554D02*
X002701Y021550D01*
X025071Y021550D01*
X025071Y000554D01*
X002701Y000554D01*
X002981Y014586D02*
X002983Y014616D01*
X002989Y014646D01*
X002998Y014675D01*
X003011Y014702D01*
X003028Y014727D01*
X003047Y014750D01*
X003070Y014771D01*
X003095Y014788D01*
X003121Y014802D01*
X003150Y014812D01*
X003179Y014819D01*
X003209Y014822D01*
X003240Y014821D01*
X003270Y014816D01*
X003299Y014807D01*
X003326Y014795D01*
X003352Y014780D01*
X003376Y014761D01*
X003397Y014739D01*
X003415Y014715D01*
X003430Y014688D01*
X003441Y014660D01*
X003449Y014631D01*
X003453Y014601D01*
X003453Y014571D01*
X003449Y014541D01*
X003441Y014512D01*
X003430Y014484D01*
X003415Y014457D01*
X003397Y014433D01*
X003376Y014411D01*
X003352Y014392D01*
X003326Y014377D01*
X003299Y014365D01*
X003270Y014356D01*
X003240Y014351D01*
X003209Y014350D01*
X003179Y014353D01*
X003150Y014360D01*
X003121Y014370D01*
X003095Y014384D01*
X003070Y014401D01*
X003047Y014422D01*
X003028Y014445D01*
X003011Y014470D01*
X002998Y014497D01*
X002989Y014526D01*
X002983Y014556D01*
X002981Y014586D01*
X003965Y014586D02*
X003967Y014616D01*
X003973Y014646D01*
X003982Y014675D01*
X003995Y014702D01*
X004012Y014727D01*
X004031Y014750D01*
X004054Y014771D01*
X004079Y014788D01*
X004105Y014802D01*
X004134Y014812D01*
X004163Y014819D01*
X004193Y014822D01*
X004224Y014821D01*
X004254Y014816D01*
X004283Y014807D01*
X004310Y014795D01*
X004336Y014780D01*
X004360Y014761D01*
X004381Y014739D01*
X004399Y014715D01*
X004414Y014688D01*
X004425Y014660D01*
X004433Y014631D01*
X004437Y014601D01*
X004437Y014571D01*
X004433Y014541D01*
X004425Y014512D01*
X004414Y014484D01*
X004399Y014457D01*
X004381Y014433D01*
X004360Y014411D01*
X004336Y014392D01*
X004310Y014377D01*
X004283Y014365D01*
X004254Y014356D01*
X004224Y014351D01*
X004193Y014350D01*
X004163Y014353D01*
X004134Y014360D01*
X004105Y014370D01*
X004079Y014384D01*
X004054Y014401D01*
X004031Y014422D01*
X004012Y014445D01*
X003995Y014470D01*
X003982Y014497D01*
X003973Y014526D01*
X003967Y014556D01*
X003965Y014586D01*
X005934Y016554D02*
X005936Y016584D01*
X005942Y016614D01*
X005951Y016643D01*
X005964Y016670D01*
X005981Y016695D01*
X006000Y016718D01*
X006023Y016739D01*
X006048Y016756D01*
X006074Y016770D01*
X006103Y016780D01*
X006132Y016787D01*
X006162Y016790D01*
X006193Y016789D01*
X006223Y016784D01*
X006252Y016775D01*
X006279Y016763D01*
X006305Y016748D01*
X006329Y016729D01*
X006350Y016707D01*
X006368Y016683D01*
X006383Y016656D01*
X006394Y016628D01*
X006402Y016599D01*
X006406Y016569D01*
X006406Y016539D01*
X006402Y016509D01*
X006394Y016480D01*
X006383Y016452D01*
X006368Y016425D01*
X006350Y016401D01*
X006329Y016379D01*
X006305Y016360D01*
X006279Y016345D01*
X006252Y016333D01*
X006223Y016324D01*
X006193Y016319D01*
X006162Y016318D01*
X006132Y016321D01*
X006103Y016328D01*
X006074Y016338D01*
X006048Y016352D01*
X006023Y016369D01*
X006000Y016390D01*
X005981Y016413D01*
X005964Y016438D01*
X005951Y016465D01*
X005942Y016494D01*
X005936Y016524D01*
X005934Y016554D01*
X003965Y018523D02*
X003967Y018553D01*
X003973Y018583D01*
X003982Y018612D01*
X003995Y018639D01*
X004012Y018664D01*
X004031Y018687D01*
X004054Y018708D01*
X004079Y018725D01*
X004105Y018739D01*
X004134Y018749D01*
X004163Y018756D01*
X004193Y018759D01*
X004224Y018758D01*
X004254Y018753D01*
X004283Y018744D01*
X004310Y018732D01*
X004336Y018717D01*
X004360Y018698D01*
X004381Y018676D01*
X004399Y018652D01*
X004414Y018625D01*
X004425Y018597D01*
X004433Y018568D01*
X004437Y018538D01*
X004437Y018508D01*
X004433Y018478D01*
X004425Y018449D01*
X004414Y018421D01*
X004399Y018394D01*
X004381Y018370D01*
X004360Y018348D01*
X004336Y018329D01*
X004310Y018314D01*
X004283Y018302D01*
X004254Y018293D01*
X004224Y018288D01*
X004193Y018287D01*
X004163Y018290D01*
X004134Y018297D01*
X004105Y018307D01*
X004079Y018321D01*
X004054Y018338D01*
X004031Y018359D01*
X004012Y018382D01*
X003995Y018407D01*
X003982Y018434D01*
X003973Y018463D01*
X003967Y018493D01*
X003965Y018523D01*
X002981Y018523D02*
X002983Y018553D01*
X002989Y018583D01*
X002998Y018612D01*
X003011Y018639D01*
X003028Y018664D01*
X003047Y018687D01*
X003070Y018708D01*
X003095Y018725D01*
X003121Y018739D01*
X003150Y018749D01*
X003179Y018756D01*
X003209Y018759D01*
X003240Y018758D01*
X003270Y018753D01*
X003299Y018744D01*
X003326Y018732D01*
X003352Y018717D01*
X003376Y018698D01*
X003397Y018676D01*
X003415Y018652D01*
X003430Y018625D01*
X003441Y018597D01*
X003449Y018568D01*
X003453Y018538D01*
X003453Y018508D01*
X003449Y018478D01*
X003441Y018449D01*
X003430Y018421D01*
X003415Y018394D01*
X003397Y018370D01*
X003376Y018348D01*
X003352Y018329D01*
X003326Y018314D01*
X003299Y018302D01*
X003270Y018293D01*
X003240Y018288D01*
X003209Y018287D01*
X003179Y018290D01*
X003150Y018297D01*
X003121Y018307D01*
X003095Y018321D01*
X003070Y018338D01*
X003047Y018359D01*
X003028Y018382D01*
X003011Y018407D01*
X002998Y018434D01*
X002989Y018463D01*
X002983Y018493D01*
X002981Y018523D01*
D11*
X007701Y009214D03*
X006701Y008674D03*
X007701Y008134D03*
X006701Y007594D03*
X007701Y007054D03*
X007701Y005974D03*
X006701Y005434D03*
X007701Y004894D03*
X006701Y006514D03*
D12*
X007201Y002124D03*
X007201Y011984D03*
D13*
X012701Y010054D03*
X013701Y010054D03*
X013701Y009054D03*
X012701Y009054D03*
X012701Y008054D03*
X013701Y008054D03*
X013701Y007054D03*
X012701Y007054D03*
X012701Y006054D03*
X013701Y006054D03*
X014701Y004554D03*
X012201Y003554D03*
X011201Y003554D03*
X010201Y003554D03*
X012201Y001554D03*
X013201Y001554D03*
X014201Y001554D03*
X015201Y001554D03*
X016201Y001554D03*
X017201Y001554D03*
X019201Y001554D03*
X020201Y001554D03*
X021201Y001554D03*
X022201Y001554D03*
X023201Y001554D03*
X024201Y001554D03*
X024201Y013054D03*
X024201Y014054D03*
X024201Y015054D03*
X024201Y016054D03*
X024201Y017054D03*
X024201Y018054D03*
X024201Y020554D03*
X023201Y020554D03*
X022201Y020554D03*
X021201Y020554D03*
X020201Y020554D03*
X019201Y020554D03*
X018201Y020554D03*
X017201Y020554D03*
X015601Y020554D03*
X014601Y020554D03*
X013601Y020554D03*
X012601Y020554D03*
X011601Y020554D03*
X010601Y020554D03*
X009601Y020554D03*
X008601Y020554D03*
D14*
X015201Y007054D03*
X015201Y006054D03*
X017201Y006054D03*
X017201Y007054D03*
X019201Y007054D03*
X019201Y006054D03*
X021201Y006054D03*
X021201Y007054D03*
X023201Y007054D03*
X023201Y006054D03*
D15*
X022201Y007054D03*
X020201Y007054D03*
X018201Y007054D03*
X016201Y007054D03*
X016201Y004054D03*
X018201Y004054D03*
X020201Y004054D03*
X022201Y004054D03*
X024201Y004054D03*
X024201Y007054D03*
D16*
X006170Y014586D03*
X006170Y015570D03*
X004201Y016554D03*
X006170Y017539D03*
X006170Y018523D03*
D17*
X006221Y014634D02*
X006170Y014586D01*
X006221Y014634D02*
X006621Y014634D01*
X008701Y012554D01*
X008701Y004714D01*
X014701Y004714D01*
X014701Y004554D01*
X014701Y004714D02*
X014701Y005514D01*
X015181Y005994D01*
X015201Y006054D01*
X015581Y006474D02*
X014461Y006474D01*
X014461Y009514D01*
X013981Y009994D01*
X013741Y009994D01*
X013701Y010054D01*
X011901Y010394D02*
X011901Y008714D01*
X011901Y010394D02*
X014461Y012954D01*
X014461Y020474D01*
X014541Y020554D01*
X014601Y020554D01*
X015261Y020234D02*
X015261Y008074D01*
X015581Y006474D02*
X015901Y006154D01*
X015901Y005994D01*
X017181Y005994D01*
X017201Y006054D01*
X018221Y005034D01*
X018221Y004074D01*
X018201Y004054D01*
X020201Y004054D02*
X020221Y004074D01*
X020221Y005034D01*
X019201Y006054D01*
X018621Y006634D01*
X018621Y007594D01*
X016941Y009274D01*
X021201Y006054D02*
X022221Y005034D01*
X022221Y004074D01*
X022201Y004054D01*
X024201Y004054D02*
X024221Y004074D01*
X024221Y005034D01*
X023201Y006054D01*
X024201Y016054D02*
X024141Y016074D01*
X023421Y016794D01*
X023421Y019594D01*
X024141Y020314D01*
X024141Y020554D01*
X024201Y020554D01*
X015601Y020554D02*
X015581Y020554D01*
X015261Y020234D01*
D18*
X016941Y009274D03*
X015261Y008074D03*
X011901Y008714D03*
D19*
X012201Y008980D02*
X012151Y009030D01*
X012151Y010291D01*
X014673Y012813D01*
X014711Y012905D01*
X014711Y013004D01*
X014711Y020059D01*
X014884Y020130D01*
X015011Y020257D01*
X015011Y020185D01*
X015011Y008390D01*
X014922Y008301D01*
X014861Y008154D01*
X014861Y007995D01*
X014922Y007848D01*
X015034Y007735D01*
X015181Y007674D01*
X015341Y007674D01*
X015488Y007735D01*
X015600Y007848D01*
X015661Y007995D01*
X015661Y008154D01*
X015600Y008301D01*
X015511Y008390D01*
X015511Y020054D01*
X015701Y020054D01*
X015884Y020130D01*
X016025Y020271D01*
X016101Y020455D01*
X016101Y020654D01*
X016025Y020838D01*
X015884Y020978D01*
X015701Y021054D01*
X015502Y021054D01*
X015318Y020978D01*
X015177Y020838D01*
X015101Y020654D01*
X015025Y020838D01*
X014884Y020978D01*
X014701Y021054D01*
X014502Y021054D01*
X014318Y020978D01*
X014177Y020838D01*
X014101Y020654D01*
X014025Y020838D01*
X013884Y020978D01*
X013701Y021054D01*
X013502Y021054D01*
X013318Y020978D01*
X013177Y020838D01*
X013101Y020654D01*
X013025Y020838D01*
X012884Y020978D01*
X012701Y021054D01*
X012502Y021054D01*
X012318Y020978D01*
X012177Y020838D01*
X012101Y020654D01*
X012025Y020838D01*
X011884Y020978D01*
X011701Y021054D01*
X011502Y021054D01*
X011318Y020978D01*
X011177Y020838D01*
X011101Y020654D01*
X011025Y020838D01*
X010884Y020978D01*
X010701Y021054D01*
X010502Y021054D01*
X010318Y020978D01*
X010177Y020838D01*
X010101Y020654D01*
X010025Y020838D01*
X009884Y020978D01*
X009701Y021054D01*
X009502Y021054D01*
X009318Y020978D01*
X009177Y020838D01*
X009101Y020654D01*
X009025Y020838D01*
X008884Y020978D01*
X008701Y021054D01*
X008502Y021054D01*
X008318Y020978D01*
X008177Y020838D01*
X008101Y020654D01*
X008101Y020455D01*
X008177Y020271D01*
X008318Y020130D01*
X008502Y020054D01*
X008701Y020054D01*
X008884Y020130D01*
X009025Y020271D01*
X009101Y020455D01*
X009101Y020654D01*
X009101Y020455D01*
X009177Y020271D01*
X009318Y020130D01*
X009502Y020054D01*
X009701Y020054D01*
X009884Y020130D01*
X010025Y020271D01*
X010101Y020455D01*
X010101Y020654D01*
X010101Y020455D01*
X010177Y020271D01*
X010318Y020130D01*
X010502Y020054D01*
X010701Y020054D01*
X010884Y020130D01*
X011025Y020271D01*
X011101Y020455D01*
X011101Y020654D01*
X011101Y020455D01*
X011177Y020271D01*
X011318Y020130D01*
X011502Y020054D01*
X011701Y020054D01*
X011884Y020130D01*
X012025Y020271D01*
X012101Y020455D01*
X012101Y020654D01*
X012101Y020455D01*
X012177Y020271D01*
X012318Y020130D01*
X012502Y020054D01*
X012701Y020054D01*
X012884Y020130D01*
X013025Y020271D01*
X013101Y020455D01*
X013101Y020654D01*
X013101Y020455D01*
X013177Y020271D01*
X013318Y020130D01*
X013502Y020054D01*
X013701Y020054D01*
X013884Y020130D01*
X014025Y020271D01*
X014101Y020455D01*
X014101Y020654D01*
X014101Y020455D01*
X014177Y020271D01*
X014211Y020237D01*
X014211Y013058D01*
X011759Y010606D01*
X011689Y010536D01*
X011651Y010444D01*
X011651Y009030D01*
X011562Y008941D01*
X011501Y008794D01*
X011501Y008635D01*
X011562Y008488D01*
X011674Y008375D01*
X011821Y008314D01*
X011981Y008314D01*
X012128Y008375D01*
X012240Y008488D01*
X012301Y008635D01*
X012301Y008747D01*
X012418Y008630D01*
X012602Y008554D01*
X012801Y008554D01*
X012984Y008630D01*
X013125Y008771D01*
X013201Y008955D01*
X013201Y009154D01*
X013125Y009338D01*
X012984Y009478D01*
X012801Y009554D01*
X012602Y009554D01*
X012418Y009478D01*
X012277Y009338D01*
X012201Y009154D01*
X012201Y008980D01*
X012201Y009116D02*
X012151Y009116D01*
X012151Y009274D02*
X012251Y009274D01*
X012151Y009433D02*
X012372Y009433D01*
X012418Y009630D02*
X012602Y009554D01*
X012801Y009554D01*
X012984Y009630D01*
X013125Y009771D01*
X013201Y009955D01*
X013201Y010154D01*
X013201Y009955D01*
X013277Y009771D01*
X013418Y009630D01*
X013602Y009554D01*
X013801Y009554D01*
X013984Y009630D01*
X013988Y009634D01*
X014211Y009411D01*
X014211Y006425D01*
X014249Y006333D01*
X014319Y006262D01*
X014411Y006224D01*
X014511Y006224D01*
X014798Y006224D01*
X014763Y006141D01*
X014763Y005967D01*
X014774Y005941D01*
X014560Y005726D01*
X014559Y005726D01*
X014489Y005656D01*
X014451Y005564D01*
X014451Y004992D01*
X014418Y004978D01*
X014404Y004964D01*
X008951Y004964D01*
X008951Y012505D01*
X008951Y012604D01*
X008913Y012696D01*
X006833Y014776D01*
X006763Y014846D01*
X006740Y014856D01*
X006704Y014943D01*
X006568Y015078D01*
X006704Y015213D01*
X006800Y015445D01*
X006800Y015695D01*
X006704Y015927D01*
X006629Y016001D01*
X006777Y016149D01*
X006886Y016412D01*
X006886Y016697D01*
X006777Y016960D01*
X006629Y017107D01*
X006704Y017182D01*
X006800Y017413D01*
X006800Y017664D01*
X006704Y017895D01*
X006568Y018031D01*
X006704Y018166D01*
X006800Y018397D01*
X006800Y018648D01*
X006704Y018880D01*
X006526Y019057D01*
X006295Y019153D01*
X006044Y019153D01*
X005813Y019057D01*
X005636Y018880D01*
X005540Y018648D01*
X005540Y018397D01*
X005636Y018166D01*
X005771Y018031D01*
X005636Y017895D01*
X005540Y017664D01*
X005540Y017413D01*
X005636Y017182D01*
X005710Y017107D01*
X005562Y016960D01*
X005453Y016697D01*
X005453Y016412D01*
X005562Y016149D01*
X005710Y016001D01*
X005636Y015927D01*
X005540Y015695D01*
X005540Y015445D01*
X005636Y015213D01*
X005771Y015078D01*
X005636Y014943D01*
X005540Y014711D01*
X005540Y014460D01*
X005636Y014229D01*
X005813Y014052D01*
X006044Y013956D01*
X006295Y013956D01*
X006526Y014052D01*
X006688Y014214D01*
X008451Y012451D01*
X008451Y004665D01*
X008489Y004573D01*
X008559Y004502D01*
X008651Y004464D01*
X008751Y004464D01*
X014201Y004464D01*
X014201Y004455D01*
X014277Y004271D01*
X014418Y004130D01*
X014602Y004054D01*
X014801Y004054D01*
X014984Y004130D01*
X015125Y004271D01*
X015201Y004455D01*
X015201Y004654D01*
X015125Y004838D01*
X014984Y004978D01*
X014951Y004992D01*
X014951Y005411D01*
X015157Y005617D01*
X015288Y005617D01*
X015449Y005683D01*
X015572Y005806D01*
X015639Y005967D01*
X015639Y006063D01*
X015651Y006051D01*
X015651Y005945D01*
X015630Y005945D01*
X015651Y005945D02*
X015689Y005853D01*
X015759Y005782D01*
X015851Y005744D01*
X015951Y005744D01*
X016892Y005744D01*
X016953Y005683D01*
X017114Y005617D01*
X017285Y005617D01*
X017971Y004931D01*
X017971Y004476D01*
X017931Y004459D01*
X017797Y004325D01*
X017724Y004149D01*
X017724Y003959D01*
X017797Y003784D01*
X017931Y003650D01*
X018106Y003577D01*
X018296Y003577D01*
X018471Y003650D01*
X018606Y003784D01*
X018678Y003959D01*
X018678Y004149D01*
X018606Y004325D01*
X018471Y004459D01*
X018471Y004985D01*
X018471Y005084D01*
X018433Y005176D01*
X017639Y005970D01*
X017639Y006141D01*
X017572Y006302D01*
X017449Y006425D01*
X017288Y006492D01*
X017114Y006492D01*
X016953Y006425D01*
X016830Y006302D01*
X016806Y006244D01*
X016134Y006244D01*
X016113Y006296D01*
X015793Y006616D01*
X015723Y006686D01*
X015631Y006724D01*
X015458Y006724D01*
X015473Y006736D01*
X015520Y006782D01*
X015558Y006835D01*
X015588Y006894D01*
X015609Y006956D01*
X015619Y007021D01*
X015619Y007054D01*
X015201Y007054D01*
X014783Y007054D01*
X014783Y007021D01*
X014794Y006956D01*
X014814Y006894D01*
X014844Y006835D01*
X014882Y006782D01*
X014929Y006736D01*
X014945Y006724D01*
X014711Y006724D01*
X014711Y009465D01*
X014711Y009564D01*
X014673Y009656D01*
X014201Y010128D01*
X014201Y010154D01*
X014125Y010338D01*
X013984Y010478D01*
X013801Y010554D01*
X013602Y010554D01*
X013418Y010478D01*
X013277Y010338D01*
X013201Y010154D01*
X013125Y010338D01*
X012984Y010478D01*
X012801Y010554D01*
X012602Y010554D01*
X012418Y010478D01*
X012277Y010338D01*
X012201Y010154D01*
X012201Y009955D01*
X012277Y009771D01*
X012418Y009630D01*
X012512Y009591D02*
X012151Y009591D01*
X012151Y009750D02*
X012298Y009750D01*
X012220Y009908D02*
X012151Y009908D01*
X012151Y010067D02*
X012201Y010067D01*
X012231Y010225D02*
X012151Y010225D01*
X012244Y010384D02*
X012324Y010384D01*
X012403Y010543D02*
X012573Y010543D01*
X012561Y010701D02*
X015011Y010701D01*
X015011Y010543D02*
X013829Y010543D01*
X013573Y010543D02*
X012829Y010543D01*
X013078Y010384D02*
X013324Y010384D01*
X013231Y010225D02*
X013171Y010225D01*
X013201Y010067D02*
X013201Y010067D01*
X013182Y009908D02*
X013220Y009908D01*
X013298Y009750D02*
X013104Y009750D01*
X012890Y009591D02*
X013512Y009591D01*
X013602Y009554D02*
X013418Y009478D01*
X013277Y009338D01*
X013201Y009154D01*
X013201Y008955D01*
X013277Y008771D01*
X013418Y008630D01*
X013602Y008554D01*
X013801Y008554D01*
X013984Y008630D01*
X014125Y008771D01*
X014201Y008955D01*
X014201Y009154D01*
X014125Y009338D01*
X013984Y009478D01*
X013801Y009554D01*
X013602Y009554D01*
X013372Y009433D02*
X013030Y009433D01*
X013151Y009274D02*
X013251Y009274D01*
X013201Y009116D02*
X013201Y009116D01*
X013201Y008957D02*
X013201Y008957D01*
X013136Y008799D02*
X013266Y008799D01*
X013408Y008640D02*
X012994Y008640D01*
X012976Y008481D02*
X013426Y008481D01*
X013418Y008478D02*
X013277Y008338D01*
X013201Y008154D01*
X013201Y007955D01*
X013125Y007771D01*
X012984Y007630D01*
X012801Y007554D01*
X012602Y007554D01*
X012418Y007630D01*
X012277Y007771D01*
X012201Y007955D01*
X012201Y008154D01*
X012277Y008338D01*
X012418Y008478D01*
X012602Y008554D01*
X012801Y008554D01*
X012984Y008478D01*
X013125Y008338D01*
X013201Y008154D01*
X013201Y007955D01*
X013277Y007771D01*
X013418Y007630D01*
X013602Y007554D01*
X013801Y007554D01*
X013984Y007630D01*
X014125Y007771D01*
X014201Y007955D01*
X014201Y008154D01*
X014125Y008338D01*
X013984Y008478D01*
X013801Y008554D01*
X013602Y008554D01*
X013418Y008478D01*
X013271Y008323D02*
X013131Y008323D01*
X013197Y008164D02*
X013206Y008164D01*
X013201Y008006D02*
X013201Y008006D01*
X013156Y007847D02*
X013246Y007847D01*
X013360Y007689D02*
X013043Y007689D01*
X012984Y007478D02*
X012801Y007554D01*
X012602Y007554D01*
X012418Y007478D01*
X012277Y007338D01*
X012201Y007154D01*
X012201Y006955D01*
X012277Y006771D01*
X012418Y006630D01*
X012602Y006554D01*
X012801Y006554D01*
X012984Y006630D01*
X013125Y006771D01*
X013201Y006955D01*
X013201Y007154D01*
X013201Y006955D01*
X013277Y006771D01*
X013418Y006630D01*
X013602Y006554D01*
X013801Y006554D01*
X013984Y006630D01*
X014125Y006771D01*
X014201Y006955D01*
X014201Y007154D01*
X014125Y007338D01*
X013984Y007478D01*
X013801Y007554D01*
X013602Y007554D01*
X013418Y007478D01*
X013277Y007338D01*
X013201Y007154D01*
X013125Y007338D01*
X012984Y007478D01*
X012859Y007530D02*
X013544Y007530D01*
X013311Y007372D02*
X013091Y007372D01*
X013176Y007213D02*
X013226Y007213D01*
X013201Y007055D02*
X013201Y007055D01*
X013177Y006896D02*
X013225Y006896D01*
X013311Y006738D02*
X013091Y006738D01*
X012860Y006579D02*
X013542Y006579D01*
X013602Y006554D02*
X013418Y006478D01*
X013277Y006338D01*
X013201Y006154D01*
X013201Y005955D01*
X013125Y005771D01*
X012984Y005630D01*
X012801Y005554D01*
X012602Y005554D01*
X012418Y005630D01*
X012277Y005771D01*
X012201Y005955D01*
X012201Y006154D01*
X012277Y006338D01*
X012418Y006478D01*
X012602Y006554D01*
X012801Y006554D01*
X012984Y006478D01*
X013125Y006338D01*
X013201Y006154D01*
X013201Y005955D01*
X013277Y005771D01*
X013418Y005630D01*
X013602Y005554D01*
X013801Y005554D01*
X013984Y005630D01*
X014125Y005771D01*
X014201Y005955D01*
X014201Y006154D01*
X014125Y006338D01*
X013984Y006478D01*
X013801Y006554D01*
X013602Y006554D01*
X013860Y006579D02*
X014211Y006579D01*
X014211Y006738D02*
X014091Y006738D01*
X014177Y006896D02*
X014211Y006896D01*
X014201Y007055D02*
X014211Y007055D01*
X014211Y007213D02*
X014176Y007213D01*
X014211Y007372D02*
X014091Y007372D01*
X014211Y007530D02*
X013859Y007530D01*
X014043Y007689D02*
X014211Y007689D01*
X014211Y007847D02*
X014156Y007847D01*
X014201Y008006D02*
X014211Y008006D01*
X014197Y008164D02*
X014211Y008164D01*
X014211Y008323D02*
X014131Y008323D01*
X014211Y008481D02*
X013976Y008481D01*
X013994Y008640D02*
X014211Y008640D01*
X014211Y008799D02*
X014136Y008799D01*
X014201Y008957D02*
X014211Y008957D01*
X014201Y009116D02*
X014211Y009116D01*
X014211Y009274D02*
X014151Y009274D01*
X014189Y009433D02*
X014030Y009433D01*
X014031Y009591D02*
X013890Y009591D01*
X014262Y010067D02*
X015011Y010067D01*
X015011Y010225D02*
X014171Y010225D01*
X014078Y010384D02*
X015011Y010384D01*
X015011Y010860D02*
X012720Y010860D01*
X012878Y011018D02*
X015011Y011018D01*
X015011Y011177D02*
X013037Y011177D01*
X013196Y011335D02*
X015011Y011335D01*
X015011Y011494D02*
X013354Y011494D01*
X013513Y011652D02*
X015011Y011652D01*
X015011Y011811D02*
X013671Y011811D01*
X013830Y011969D02*
X015011Y011969D01*
X015011Y012128D02*
X013988Y012128D01*
X014147Y012287D02*
X015011Y012287D01*
X015011Y012445D02*
X014305Y012445D01*
X014464Y012604D02*
X015011Y012604D01*
X015011Y012762D02*
X014622Y012762D01*
X014711Y012921D02*
X015011Y012921D01*
X015011Y013079D02*
X014711Y013079D01*
X014711Y013238D02*
X015011Y013238D01*
X015011Y013396D02*
X014711Y013396D01*
X014711Y013555D02*
X015011Y013555D01*
X015011Y013713D02*
X014711Y013713D01*
X014711Y013872D02*
X015011Y013872D01*
X015011Y014031D02*
X014711Y014031D01*
X014711Y014189D02*
X015011Y014189D01*
X015011Y014348D02*
X014711Y014348D01*
X014711Y014506D02*
X015011Y014506D01*
X015011Y014665D02*
X014711Y014665D01*
X014711Y014823D02*
X015011Y014823D01*
X015011Y014982D02*
X014711Y014982D01*
X014711Y015140D02*
X015011Y015140D01*
X015011Y015299D02*
X014711Y015299D01*
X014711Y015457D02*
X015011Y015457D01*
X015011Y015616D02*
X014711Y015616D01*
X014711Y015774D02*
X015011Y015774D01*
X015011Y015933D02*
X014711Y015933D01*
X014711Y016092D02*
X015011Y016092D01*
X015011Y016250D02*
X014711Y016250D01*
X014711Y016409D02*
X015011Y016409D01*
X015011Y016567D02*
X014711Y016567D01*
X014711Y016726D02*
X015011Y016726D01*
X015011Y016884D02*
X014711Y016884D01*
X014711Y017043D02*
X015011Y017043D01*
X015011Y017201D02*
X014711Y017201D01*
X014711Y017360D02*
X015011Y017360D01*
X015011Y017518D02*
X014711Y017518D01*
X014711Y017677D02*
X015011Y017677D01*
X015011Y017836D02*
X014711Y017836D01*
X014711Y017994D02*
X015011Y017994D01*
X015011Y018153D02*
X014711Y018153D01*
X014711Y018311D02*
X015011Y018311D01*
X015011Y018470D02*
X014711Y018470D01*
X014711Y018628D02*
X015011Y018628D01*
X015011Y018787D02*
X014711Y018787D01*
X014711Y018945D02*
X015011Y018945D01*
X015011Y019104D02*
X014711Y019104D01*
X014711Y019262D02*
X015011Y019262D01*
X015011Y019421D02*
X014711Y019421D01*
X014711Y019580D02*
X015011Y019580D01*
X015011Y019738D02*
X014711Y019738D01*
X014711Y019897D02*
X015011Y019897D01*
X015011Y020055D02*
X014711Y020055D01*
X014968Y020214D02*
X015011Y020214D01*
X015082Y020409D02*
X015101Y020455D01*
X015101Y020654D01*
X015101Y020455D01*
X015109Y020436D01*
X015082Y020409D01*
X015101Y020531D02*
X015101Y020531D01*
X015086Y020689D02*
X015116Y020689D01*
X015188Y020848D02*
X015015Y020848D01*
X014816Y021006D02*
X015386Y021006D01*
X015816Y021006D02*
X016986Y021006D01*
X016918Y020978D02*
X016777Y020838D01*
X016701Y020654D01*
X016701Y020455D01*
X016777Y020271D01*
X016918Y020130D01*
X017102Y020054D01*
X017301Y020054D01*
X017484Y020130D01*
X017625Y020271D01*
X017701Y020455D01*
X017701Y020654D01*
X017625Y020838D01*
X017484Y020978D01*
X017301Y021054D01*
X017102Y021054D01*
X016918Y020978D01*
X016788Y020848D02*
X016015Y020848D01*
X016086Y020689D02*
X016716Y020689D01*
X016701Y020531D02*
X016101Y020531D01*
X016067Y020372D02*
X016735Y020372D01*
X016835Y020214D02*
X015968Y020214D01*
X015703Y020055D02*
X017100Y020055D01*
X017303Y020055D02*
X018100Y020055D01*
X018102Y020054D02*
X018301Y020054D01*
X018484Y020130D01*
X018625Y020271D01*
X018701Y020455D01*
X018701Y020654D01*
X018625Y020838D01*
X018484Y020978D01*
X018301Y021054D01*
X018102Y021054D01*
X017918Y020978D01*
X017777Y020838D01*
X017701Y020654D01*
X017701Y020455D01*
X017777Y020271D01*
X017918Y020130D01*
X018102Y020054D01*
X018303Y020055D02*
X019100Y020055D01*
X019102Y020054D02*
X019301Y020054D01*
X019484Y020130D01*
X019625Y020271D01*
X019701Y020455D01*
X019701Y020654D01*
X019625Y020838D01*
X019484Y020978D01*
X019301Y021054D01*
X019102Y021054D01*
X018918Y020978D01*
X018777Y020838D01*
X018701Y020654D01*
X018701Y020455D01*
X018777Y020271D01*
X018918Y020130D01*
X019102Y020054D01*
X019303Y020055D02*
X020100Y020055D01*
X020102Y020054D02*
X020301Y020054D01*
X020484Y020130D01*
X020625Y020271D01*
X020701Y020455D01*
X020701Y020654D01*
X020625Y020838D01*
X020484Y020978D01*
X020301Y021054D01*
X020102Y021054D01*
X019918Y020978D01*
X019777Y020838D01*
X019701Y020654D01*
X019701Y020455D01*
X019777Y020271D01*
X019918Y020130D01*
X020102Y020054D01*
X020303Y020055D02*
X021100Y020055D01*
X021102Y020054D02*
X021301Y020054D01*
X021484Y020130D01*
X021625Y020271D01*
X021701Y020455D01*
X021701Y020654D01*
X021625Y020838D01*
X021484Y020978D01*
X021301Y021054D01*
X021102Y021054D01*
X020918Y020978D01*
X020777Y020838D01*
X020701Y020654D01*
X020701Y020455D01*
X020777Y020271D01*
X020918Y020130D01*
X021102Y020054D01*
X021303Y020055D02*
X022100Y020055D01*
X022102Y020054D02*
X022301Y020054D01*
X022484Y020130D01*
X022625Y020271D01*
X022701Y020455D01*
X022701Y020654D01*
X022625Y020838D01*
X022484Y020978D01*
X022301Y021054D01*
X022102Y021054D01*
X021918Y020978D01*
X021777Y020838D01*
X021701Y020654D01*
X021701Y020455D01*
X021777Y020271D01*
X021918Y020130D01*
X022102Y020054D01*
X022303Y020055D02*
X023100Y020055D01*
X023102Y020054D02*
X023301Y020054D01*
X023484Y020130D01*
X023625Y020271D01*
X023701Y020455D01*
X023701Y020654D01*
X023625Y020838D01*
X023484Y020978D01*
X023301Y021054D01*
X023102Y021054D01*
X022918Y020978D01*
X022777Y020838D01*
X022701Y020654D01*
X022701Y020455D01*
X022777Y020271D01*
X022918Y020130D01*
X023102Y020054D01*
X023303Y020055D02*
X023528Y020055D01*
X023568Y020214D02*
X023687Y020214D01*
X023768Y020294D02*
X023209Y019736D01*
X023171Y019644D01*
X023171Y019545D01*
X023171Y016745D01*
X023209Y016653D01*
X023279Y016582D01*
X023703Y016159D01*
X023701Y016154D01*
X023701Y015955D01*
X023777Y015771D01*
X023918Y015630D01*
X024102Y015554D01*
X023918Y015478D01*
X023777Y015338D01*
X023701Y015154D01*
X023701Y014955D01*
X023777Y014771D01*
X023918Y014630D01*
X024102Y014554D01*
X024301Y014554D01*
X024484Y014630D01*
X024591Y014737D01*
X024591Y014334D01*
X024567Y014367D01*
X024514Y014420D01*
X024453Y014465D01*
X024385Y014499D01*
X024314Y014522D01*
X024239Y014534D01*
X024221Y014534D01*
X024221Y014075D01*
X024181Y014075D01*
X024181Y014534D01*
X024163Y014534D01*
X024089Y014522D01*
X024017Y014499D01*
X023950Y014465D01*
X023888Y014420D01*
X023835Y014367D01*
X023791Y014306D01*
X023756Y014239D01*
X023733Y014167D01*
X023721Y014092D01*
X023721Y014074D01*
X024181Y014074D01*
X024181Y014034D01*
X024221Y014034D01*
X024221Y013574D01*
X024239Y013574D01*
X024314Y013586D01*
X024385Y013609D01*
X024453Y013644D01*
X024514Y013688D01*
X024567Y013742D01*
X024591Y013775D01*
X024591Y013371D01*
X024484Y013478D01*
X024301Y013554D01*
X024102Y013554D01*
X023918Y013478D01*
X023777Y013338D01*
X023701Y013154D01*
X023701Y012955D01*
X023777Y012771D01*
X023918Y012630D01*
X024102Y012554D01*
X024301Y012554D01*
X024484Y012630D01*
X024591Y012737D01*
X024591Y007295D01*
X024550Y007352D01*
X024499Y007403D01*
X024441Y007445D01*
X024377Y007478D01*
X024308Y007500D01*
X024237Y007511D01*
X024210Y007511D01*
X024210Y007063D01*
X024192Y007063D01*
X024192Y007046D01*
X023744Y007046D01*
X023744Y007018D01*
X023755Y006947D01*
X023777Y006879D01*
X023810Y006815D01*
X023852Y006756D01*
X023903Y006706D01*
X023961Y006663D01*
X024026Y006631D01*
X024094Y006608D01*
X024165Y006597D01*
X024192Y006597D01*
X024192Y007045D01*
X024210Y007045D01*
X024210Y006597D01*
X024237Y006597D01*
X024308Y006608D01*
X024377Y006631D01*
X024441Y006663D01*
X024499Y006706D01*
X024550Y006756D01*
X024591Y006814D01*
X024591Y004339D01*
X024471Y004459D01*
X024471Y004985D01*
X024471Y005084D01*
X024433Y005176D01*
X023639Y005970D01*
X023639Y006141D01*
X023572Y006302D01*
X023449Y006425D01*
X023288Y006492D01*
X023114Y006492D01*
X022953Y006425D01*
X022830Y006302D01*
X022763Y006141D01*
X022763Y005967D01*
X022830Y005806D01*
X022953Y005683D01*
X023114Y005617D01*
X023285Y005617D01*
X023971Y004931D01*
X023971Y004476D01*
X023931Y004459D01*
X023797Y004325D01*
X023724Y004149D01*
X023724Y003959D01*
X023797Y003784D01*
X023931Y003650D01*
X024106Y003577D01*
X024296Y003577D01*
X024471Y003650D01*
X024591Y003770D01*
X024591Y001871D01*
X024484Y001978D01*
X024301Y002054D01*
X024102Y002054D01*
X023918Y001978D01*
X023777Y001838D01*
X023701Y001654D01*
X023625Y001838D01*
X023484Y001978D01*
X023301Y002054D01*
X023102Y002054D01*
X022918Y001978D01*
X022777Y001838D01*
X022701Y001654D01*
X022701Y001455D01*
X022625Y001271D01*
X022484Y001130D01*
X022301Y001054D01*
X022102Y001054D01*
X021918Y001130D01*
X021777Y001271D01*
X021701Y001455D01*
X021625Y001271D01*
X021484Y001130D01*
X021301Y001054D01*
X021102Y001054D01*
X020918Y001130D01*
X020777Y001271D01*
X020701Y001455D01*
X020625Y001271D01*
X020484Y001130D01*
X020301Y001054D01*
X020102Y001054D01*
X019918Y001130D01*
X019777Y001271D01*
X019701Y001455D01*
X019625Y001271D01*
X019484Y001130D01*
X019301Y001054D01*
X019102Y001054D01*
X018918Y001130D01*
X018777Y001271D01*
X018701Y001455D01*
X018701Y001654D01*
X018777Y001838D01*
X018918Y001978D01*
X019102Y002054D01*
X019301Y002054D01*
X019484Y001978D01*
X019625Y001838D01*
X019701Y001654D01*
X019701Y001455D01*
X019701Y001654D01*
X019777Y001838D01*
X019918Y001978D01*
X020102Y002054D01*
X020301Y002054D01*
X020484Y001978D01*
X020625Y001838D01*
X020701Y001654D01*
X020701Y001455D01*
X020701Y001654D01*
X020777Y001838D01*
X020918Y001978D01*
X021102Y002054D01*
X021301Y002054D01*
X021484Y001978D01*
X021625Y001838D01*
X021701Y001654D01*
X021701Y001455D01*
X021701Y001654D01*
X021777Y001838D01*
X021918Y001978D01*
X022102Y002054D01*
X022301Y002054D01*
X022484Y001978D01*
X022625Y001838D01*
X022701Y001654D01*
X022701Y001455D01*
X022777Y001271D01*
X022918Y001130D01*
X023102Y001054D01*
X023301Y001054D01*
X023484Y001130D01*
X023625Y001271D01*
X023701Y001455D01*
X023701Y001654D01*
X023701Y001455D01*
X023777Y001271D01*
X023918Y001130D01*
X024102Y001054D01*
X024301Y001054D01*
X024484Y001130D01*
X024591Y001237D01*
X024591Y001034D01*
X007713Y001034D01*
X007938Y001164D01*
X008161Y001387D01*
X008319Y001661D01*
X008401Y001966D01*
X008401Y002282D01*
X008319Y002587D01*
X008161Y002861D01*
X007938Y003085D01*
X007664Y003243D01*
X007359Y003324D01*
X007043Y003324D01*
X006738Y003243D01*
X006464Y003085D01*
X006241Y002861D01*
X006083Y002587D01*
X006001Y002282D01*
X006001Y001966D01*
X006083Y001661D01*
X006241Y001387D01*
X006464Y001164D01*
X006689Y001034D01*
X003181Y001034D01*
X003181Y013870D01*
X003359Y013870D01*
X003623Y013979D01*
X003709Y014065D01*
X003795Y013979D01*
X004059Y013870D01*
X004344Y013870D01*
X004607Y013979D01*
X004808Y014180D01*
X004917Y014443D01*
X004917Y014728D01*
X004808Y014991D01*
X004607Y015193D01*
X004344Y015302D01*
X004059Y015302D01*
X003795Y015193D01*
X003709Y015107D01*
X003623Y015193D01*
X003359Y015302D01*
X003181Y015302D01*
X003181Y017807D01*
X003359Y017807D01*
X003623Y017916D01*
X003709Y018002D01*
X003795Y017916D01*
X004059Y017807D01*
X004344Y017807D01*
X004607Y017916D01*
X004808Y018117D01*
X004917Y018380D01*
X004917Y018665D01*
X004808Y018929D01*
X004607Y019130D01*
X004344Y019239D01*
X004059Y019239D01*
X003795Y019130D01*
X003709Y019044D01*
X003623Y019130D01*
X003359Y019239D01*
X003181Y019239D01*
X003181Y021070D01*
X024591Y021070D01*
X024591Y020871D01*
X024484Y020978D01*
X024301Y021054D01*
X024102Y021054D01*
X023918Y020978D01*
X023777Y020838D01*
X023701Y020654D01*
X023701Y020455D01*
X023768Y020294D01*
X023735Y020372D02*
X023667Y020372D01*
X023701Y020531D02*
X023701Y020531D01*
X023686Y020689D02*
X023716Y020689D01*
X023788Y020848D02*
X023615Y020848D01*
X023416Y021006D02*
X023986Y021006D01*
X024416Y021006D02*
X024591Y021006D01*
X023370Y019897D02*
X015511Y019897D01*
X015511Y019738D02*
X023211Y019738D01*
X023171Y019580D02*
X015511Y019580D01*
X015511Y019421D02*
X023171Y019421D01*
X023171Y019262D02*
X015511Y019262D01*
X015511Y019104D02*
X023171Y019104D01*
X023171Y018945D02*
X015511Y018945D01*
X015511Y018787D02*
X023171Y018787D01*
X023171Y018628D02*
X015511Y018628D01*
X015511Y018470D02*
X023171Y018470D01*
X023171Y018311D02*
X015511Y018311D01*
X015511Y018153D02*
X023171Y018153D01*
X023171Y017994D02*
X015511Y017994D01*
X015511Y017836D02*
X023171Y017836D01*
X023171Y017677D02*
X015511Y017677D01*
X015511Y017518D02*
X023171Y017518D01*
X023171Y017360D02*
X015511Y017360D01*
X015511Y017201D02*
X023171Y017201D01*
X023171Y017043D02*
X015511Y017043D01*
X015511Y016884D02*
X023171Y016884D01*
X023179Y016726D02*
X015511Y016726D01*
X015511Y016567D02*
X023295Y016567D01*
X023453Y016409D02*
X015511Y016409D01*
X015511Y016250D02*
X023612Y016250D01*
X023701Y016092D02*
X015511Y016092D01*
X015511Y015933D02*
X023710Y015933D01*
X023776Y015774D02*
X015511Y015774D01*
X015511Y015616D02*
X023953Y015616D01*
X024102Y015554D02*
X024301Y015554D01*
X024102Y015554D01*
X024301Y015554D02*
X024484Y015478D01*
X024591Y015371D01*
X024591Y015737D01*
X024484Y015630D01*
X024301Y015554D01*
X024449Y015616D02*
X024591Y015616D01*
X024591Y015457D02*
X024505Y015457D01*
X023897Y015457D02*
X015511Y015457D01*
X015511Y015299D02*
X023761Y015299D01*
X023701Y015140D02*
X015511Y015140D01*
X015511Y014982D02*
X023701Y014982D01*
X023756Y014823D02*
X015511Y014823D01*
X015511Y014665D02*
X023884Y014665D01*
X024038Y014506D02*
X015511Y014506D01*
X015511Y014348D02*
X023821Y014348D01*
X023740Y014189D02*
X015511Y014189D01*
X015511Y014031D02*
X023721Y014031D01*
X023721Y014034D02*
X023721Y014017D01*
X023733Y013942D01*
X023756Y013870D01*
X023791Y013803D01*
X023835Y013742D01*
X023888Y013688D01*
X023950Y013644D01*
X024017Y013609D01*
X024089Y013586D01*
X024163Y013574D01*
X024181Y013574D01*
X024181Y014034D01*
X023721Y014034D01*
X023756Y013872D02*
X015511Y013872D01*
X015511Y013713D02*
X023863Y013713D01*
X024181Y013713D02*
X024221Y013713D01*
X024221Y013872D02*
X024181Y013872D01*
X024181Y014031D02*
X024221Y014031D01*
X024221Y014189D02*
X024181Y014189D01*
X024181Y014348D02*
X024221Y014348D01*
X024221Y014506D02*
X024181Y014506D01*
X024364Y014506D02*
X024591Y014506D01*
X024581Y014348D02*
X024591Y014348D01*
X024591Y014665D02*
X024519Y014665D01*
X024539Y013713D02*
X024591Y013713D01*
X024591Y013555D02*
X015511Y013555D01*
X015511Y013396D02*
X023836Y013396D01*
X023736Y013238D02*
X015511Y013238D01*
X015511Y013079D02*
X023701Y013079D01*
X023715Y012921D02*
X015511Y012921D01*
X015511Y012762D02*
X023786Y012762D01*
X023983Y012604D02*
X015511Y012604D01*
X015511Y012445D02*
X024591Y012445D01*
X024591Y012287D02*
X015511Y012287D01*
X015511Y012128D02*
X024591Y012128D01*
X024591Y011969D02*
X015511Y011969D01*
X015511Y011811D02*
X024591Y011811D01*
X024591Y011652D02*
X015511Y011652D01*
X015511Y011494D02*
X024591Y011494D01*
X024591Y011335D02*
X015511Y011335D01*
X015511Y011177D02*
X024591Y011177D01*
X024591Y011018D02*
X015511Y011018D01*
X015511Y010860D02*
X024591Y010860D01*
X024591Y010701D02*
X015511Y010701D01*
X015511Y010543D02*
X024591Y010543D01*
X024591Y010384D02*
X015511Y010384D01*
X015511Y010225D02*
X024591Y010225D01*
X024591Y010067D02*
X015511Y010067D01*
X015511Y009908D02*
X024591Y009908D01*
X024591Y009750D02*
X015511Y009750D01*
X015511Y009591D02*
X016692Y009591D01*
X016714Y009613D02*
X016602Y009501D01*
X016541Y009354D01*
X016541Y009195D01*
X016602Y009048D01*
X016714Y008935D01*
X016861Y008874D01*
X016988Y008874D01*
X018371Y007491D01*
X018371Y007480D01*
X018308Y007500D01*
X018237Y007511D01*
X018210Y007511D01*
X018210Y007063D01*
X018192Y007063D01*
X018192Y007046D01*
X017744Y007046D01*
X017744Y007018D01*
X017755Y006947D01*
X017777Y006879D01*
X017810Y006815D01*
X017852Y006756D01*
X017903Y006706D01*
X017961Y006663D01*
X018026Y006631D01*
X018094Y006608D01*
X018165Y006597D01*
X018192Y006597D01*
X018192Y007045D01*
X018210Y007045D01*
X018210Y006597D01*
X018237Y006597D01*
X018308Y006608D01*
X018371Y006629D01*
X018371Y006585D01*
X018409Y006493D01*
X018763Y006139D01*
X018763Y005967D01*
X018830Y005806D01*
X018953Y005683D01*
X019114Y005617D01*
X019285Y005617D01*
X019971Y004931D01*
X019971Y004476D01*
X019931Y004459D01*
X019797Y004325D01*
X019724Y004149D01*
X019724Y003959D01*
X019797Y003784D01*
X019931Y003650D01*
X020106Y003577D01*
X020296Y003577D01*
X020471Y003650D01*
X020606Y003784D01*
X020678Y003959D01*
X020678Y004149D01*
X020606Y004325D01*
X020471Y004459D01*
X020471Y004985D01*
X020471Y005084D01*
X020433Y005176D01*
X019639Y005970D01*
X019639Y006141D01*
X019572Y006302D01*
X019449Y006425D01*
X019288Y006492D01*
X019117Y006492D01*
X018871Y006738D01*
X018871Y006798D01*
X018882Y006782D01*
X018929Y006736D01*
X018982Y006697D01*
X019041Y006667D01*
X019103Y006647D01*
X019168Y006637D01*
X019201Y006637D01*
X019201Y007054D01*
X019201Y007054D01*
X019201Y006637D01*
X019234Y006637D01*
X019299Y006647D01*
X019361Y006667D01*
X019420Y006697D01*
X019473Y006736D01*
X019520Y006782D01*
X019558Y006835D01*
X019588Y006894D01*
X019609Y006956D01*
X019619Y007021D01*
X019619Y007054D01*
X019201Y007054D01*
X019201Y007054D01*
X019619Y007054D01*
X019619Y007087D01*
X019609Y007152D01*
X019588Y007215D01*
X019558Y007273D01*
X019520Y007326D01*
X019473Y007373D01*
X019420Y007412D01*
X019361Y007441D01*
X019299Y007462D01*
X019234Y007472D01*
X019201Y007472D01*
X019168Y007472D01*
X019103Y007462D01*
X019041Y007441D01*
X018982Y007412D01*
X018929Y007373D01*
X018882Y007326D01*
X018871Y007311D01*
X018871Y007545D01*
X018871Y007644D01*
X018833Y007736D01*
X017341Y009228D01*
X017341Y009354D01*
X017280Y009501D01*
X017168Y009613D01*
X017021Y009674D01*
X016861Y009674D01*
X016714Y009613D01*
X016574Y009433D02*
X015511Y009433D01*
X015511Y009274D02*
X016541Y009274D01*
X016574Y009116D02*
X015511Y009116D01*
X015511Y008957D02*
X016693Y008957D01*
X017063Y008799D02*
X015511Y008799D01*
X015511Y008640D02*
X017222Y008640D01*
X017380Y008481D02*
X015511Y008481D01*
X015578Y008323D02*
X017539Y008323D01*
X017697Y008164D02*
X015657Y008164D01*
X015661Y008006D02*
X017856Y008006D01*
X018015Y007847D02*
X015600Y007847D01*
X015376Y007689D02*
X018173Y007689D01*
X018165Y007511D02*
X018094Y007500D01*
X018026Y007478D01*
X017961Y007445D01*
X017903Y007403D01*
X017852Y007352D01*
X017810Y007294D01*
X017777Y007230D01*
X017755Y007161D01*
X017744Y007090D01*
X017744Y007063D01*
X018192Y007063D01*
X018192Y007511D01*
X018165Y007511D01*
X018192Y007372D02*
X018210Y007372D01*
X018210Y007213D02*
X018192Y007213D01*
X018192Y007055D02*
X017619Y007055D01*
X017619Y007054D02*
X017619Y007087D01*
X017609Y007152D01*
X017588Y007215D01*
X017558Y007273D01*
X017520Y007326D01*
X017473Y007373D01*
X017420Y007412D01*
X017361Y007441D01*
X017299Y007462D01*
X017234Y007472D01*
X017201Y007472D01*
X017168Y007472D01*
X017103Y007462D01*
X017041Y007441D01*
X016982Y007412D01*
X016929Y007373D01*
X016882Y007326D01*
X016844Y007273D01*
X016814Y007215D01*
X016794Y007152D01*
X016783Y007087D01*
X016783Y007054D01*
X016783Y007021D01*
X016794Y006956D01*
X016814Y006894D01*
X016844Y006835D01*
X016882Y006782D01*
X016929Y006736D01*
X016982Y006697D01*
X017041Y006667D01*
X017103Y006647D01*
X017168Y006637D01*
X017201Y006637D01*
X017201Y007054D01*
X017201Y007054D01*
X017201Y006637D01*
X017234Y006637D01*
X017299Y006647D01*
X017361Y006667D01*
X017420Y006697D01*
X017473Y006736D01*
X017520Y006782D01*
X017558Y006835D01*
X017588Y006894D01*
X017609Y006956D01*
X017619Y007021D01*
X017619Y007054D01*
X017201Y007054D01*
X016783Y007054D01*
X017201Y007054D01*
X017201Y007054D01*
X017201Y007054D01*
X017619Y007054D01*
X017589Y006896D02*
X017772Y006896D01*
X017871Y006738D02*
X017475Y006738D01*
X017201Y006738D02*
X017201Y006738D01*
X017201Y006896D02*
X017201Y006896D01*
X017201Y007055D02*
X017201Y007472D01*
X017201Y007055D01*
X017201Y007055D01*
X017201Y007213D02*
X017201Y007213D01*
X017201Y007372D02*
X017201Y007372D01*
X016928Y007372D02*
X016530Y007372D01*
X016550Y007352D02*
X016499Y007403D01*
X016441Y007445D01*
X016377Y007478D01*
X016308Y007500D01*
X016237Y007511D01*
X016210Y007511D01*
X016210Y007063D01*
X016658Y007063D01*
X016658Y007090D01*
X016647Y007161D01*
X016625Y007230D01*
X016592Y007294D01*
X016550Y007352D01*
X016630Y007213D02*
X016813Y007213D01*
X016783Y007055D02*
X016210Y007055D01*
X016210Y007063D02*
X016210Y007046D01*
X016658Y007046D01*
X016658Y007018D01*
X016647Y006947D01*
X016625Y006879D01*
X016592Y006815D01*
X016550Y006756D01*
X016499Y006706D01*
X016441Y006663D01*
X016377Y006631D01*
X016308Y006608D01*
X016237Y006597D01*
X016210Y006597D01*
X016210Y007045D01*
X016192Y007045D01*
X016192Y006597D01*
X016165Y006597D01*
X016094Y006608D01*
X016026Y006631D01*
X015961Y006663D01*
X015903Y006706D01*
X015852Y006756D01*
X015810Y006815D01*
X015777Y006879D01*
X015755Y006947D01*
X015744Y007018D01*
X015744Y007046D01*
X016192Y007046D01*
X016192Y007063D01*
X015744Y007063D01*
X015744Y007090D01*
X015755Y007161D01*
X015777Y007230D01*
X015810Y007294D01*
X015852Y007352D01*
X015903Y007403D01*
X015961Y007445D01*
X016026Y007478D01*
X016094Y007500D01*
X016165Y007511D01*
X016192Y007511D01*
X016192Y007063D01*
X016210Y007063D01*
X016192Y007055D02*
X015619Y007055D01*
X015619Y007054D02*
X015619Y007087D01*
X015609Y007152D01*
X015588Y007215D01*
X015558Y007273D01*
X015520Y007326D01*
X015473Y007373D01*
X015420Y007412D01*
X015361Y007441D01*
X015299Y007462D01*
X015234Y007472D01*
X015201Y007472D01*
X015168Y007472D01*
X015103Y007462D01*
X015041Y007441D01*
X014982Y007412D01*
X014929Y007373D01*
X014882Y007326D01*
X014844Y007273D01*
X014814Y007215D01*
X014794Y007152D01*
X014783Y007087D01*
X014783Y007054D01*
X015201Y007054D01*
X015201Y007054D01*
X015201Y007054D01*
X015619Y007054D01*
X015589Y006896D02*
X015772Y006896D01*
X015871Y006738D02*
X015475Y006738D01*
X015201Y007055D02*
X015201Y007055D01*
X015201Y007472D01*
X015201Y007055D01*
X015201Y007213D02*
X015201Y007213D01*
X015201Y007372D02*
X015201Y007372D01*
X014928Y007372D02*
X014711Y007372D01*
X014711Y007530D02*
X018332Y007530D01*
X017872Y007372D02*
X017475Y007372D01*
X017589Y007213D02*
X017772Y007213D01*
X018192Y006896D02*
X018210Y006896D01*
X018210Y006738D02*
X018192Y006738D01*
X018373Y006579D02*
X015830Y006579D01*
X015988Y006420D02*
X016948Y006420D01*
X016813Y006262D02*
X016127Y006262D01*
X016192Y006738D02*
X016210Y006738D01*
X016210Y006896D02*
X016192Y006896D01*
X016192Y007213D02*
X016210Y007213D01*
X016210Y007372D02*
X016192Y007372D01*
X015872Y007372D02*
X015475Y007372D01*
X015589Y007213D02*
X015772Y007213D01*
X015147Y007689D02*
X014711Y007689D01*
X014711Y007847D02*
X014922Y007847D01*
X014861Y008006D02*
X014711Y008006D01*
X014711Y008164D02*
X014865Y008164D01*
X014944Y008323D02*
X014711Y008323D01*
X014711Y008481D02*
X015011Y008481D01*
X015011Y008640D02*
X014711Y008640D01*
X014711Y008799D02*
X015011Y008799D01*
X015011Y008957D02*
X014711Y008957D01*
X014711Y009116D02*
X015011Y009116D01*
X015011Y009274D02*
X014711Y009274D01*
X014711Y009433D02*
X015011Y009433D01*
X015011Y009591D02*
X014700Y009591D01*
X014579Y009750D02*
X015011Y009750D01*
X015011Y009908D02*
X014421Y009908D01*
X012489Y011335D02*
X008951Y011335D01*
X008951Y011177D02*
X012330Y011177D01*
X012171Y011018D02*
X008951Y011018D01*
X008951Y010860D02*
X012013Y010860D01*
X011854Y010701D02*
X008951Y010701D01*
X008951Y010543D02*
X011696Y010543D01*
X011651Y010384D02*
X008951Y010384D01*
X008951Y010225D02*
X011651Y010225D01*
X011651Y010067D02*
X008951Y010067D01*
X008951Y009908D02*
X011651Y009908D01*
X011651Y009750D02*
X008951Y009750D01*
X008951Y009591D02*
X011651Y009591D01*
X011651Y009433D02*
X008951Y009433D01*
X008951Y009274D02*
X011651Y009274D01*
X011651Y009116D02*
X008951Y009116D01*
X008951Y008957D02*
X011578Y008957D01*
X011503Y008799D02*
X008951Y008799D01*
X008951Y008640D02*
X011501Y008640D01*
X011568Y008481D02*
X008951Y008481D01*
X008951Y008323D02*
X011801Y008323D01*
X012001Y008323D02*
X012271Y008323D01*
X012234Y008481D02*
X012426Y008481D01*
X012408Y008640D02*
X012301Y008640D01*
X012206Y008164D02*
X008951Y008164D01*
X008951Y008006D02*
X012201Y008006D01*
X012246Y007847D02*
X008951Y007847D01*
X008951Y007689D02*
X012360Y007689D01*
X012544Y007530D02*
X008951Y007530D01*
X008951Y007372D02*
X012311Y007372D01*
X012226Y007213D02*
X008951Y007213D01*
X008951Y007055D02*
X012201Y007055D01*
X012225Y006896D02*
X008951Y006896D01*
X008951Y006738D02*
X012311Y006738D01*
X012542Y006579D02*
X008951Y006579D01*
X008951Y006420D02*
X012360Y006420D01*
X012246Y006262D02*
X008951Y006262D01*
X008951Y006103D02*
X012201Y006103D01*
X012205Y005945D02*
X008951Y005945D01*
X008951Y005786D02*
X012271Y005786D01*
X012424Y005628D02*
X008951Y005628D01*
X008951Y005469D02*
X014451Y005469D01*
X014451Y005311D02*
X008951Y005311D01*
X008951Y005152D02*
X014451Y005152D01*
X014451Y004994D02*
X008951Y004994D01*
X008451Y004994D02*
X008201Y004994D01*
X008201Y005101D02*
X008201Y004687D01*
X007908Y004394D01*
X007494Y004394D01*
X007201Y004687D01*
X007201Y005101D01*
X007494Y005394D01*
X007908Y005394D01*
X008201Y005101D01*
X008150Y005152D02*
X008451Y005152D01*
X008451Y005311D02*
X007992Y005311D01*
X007908Y005474D02*
X008201Y005767D01*
X008201Y006181D01*
X007908Y006474D01*
X007494Y006474D01*
X007201Y006181D01*
X007201Y005767D01*
X007494Y005474D01*
X007908Y005474D01*
X008062Y005628D02*
X008451Y005628D01*
X008451Y005786D02*
X008201Y005786D01*
X008201Y005945D02*
X008451Y005945D01*
X008451Y006103D02*
X008201Y006103D01*
X008121Y006262D02*
X008451Y006262D01*
X008451Y006420D02*
X007962Y006420D01*
X007908Y006554D02*
X008201Y006847D01*
X008201Y007261D01*
X007908Y007554D01*
X007494Y007554D01*
X007201Y007261D01*
X007201Y006847D01*
X007494Y006554D01*
X007908Y006554D01*
X007933Y006579D02*
X008451Y006579D01*
X008451Y006738D02*
X008091Y006738D01*
X008201Y006896D02*
X008451Y006896D01*
X008451Y007055D02*
X008201Y007055D01*
X008201Y007213D02*
X008451Y007213D01*
X008451Y007372D02*
X008091Y007372D01*
X007932Y007530D02*
X008451Y007530D01*
X008451Y007689D02*
X007963Y007689D01*
X007908Y007634D02*
X008201Y007927D01*
X008201Y008341D01*
X007908Y008634D01*
X007494Y008634D01*
X007201Y008341D01*
X007201Y007927D01*
X007494Y007634D01*
X007908Y007634D01*
X008121Y007847D02*
X008451Y007847D01*
X008451Y008006D02*
X008201Y008006D01*
X008201Y008164D02*
X008451Y008164D01*
X008451Y008323D02*
X008201Y008323D01*
X008061Y008481D02*
X008451Y008481D01*
X008451Y008640D02*
X007201Y008640D01*
X007201Y008481D02*
X007341Y008481D01*
X007201Y008467D02*
X006908Y008174D01*
X006494Y008174D01*
X006201Y008467D01*
X006201Y008881D01*
X006494Y009174D01*
X006908Y009174D01*
X007201Y008881D01*
X007201Y008467D01*
X007201Y008323D02*
X007057Y008323D01*
X007201Y008164D02*
X003181Y008164D01*
X003181Y008006D02*
X006406Y008006D01*
X006494Y008094D02*
X006201Y007801D01*
X006201Y007387D01*
X006494Y007094D01*
X006908Y007094D01*
X007201Y007387D01*
X007201Y007801D01*
X006908Y008094D01*
X006494Y008094D01*
X006345Y008323D02*
X003181Y008323D01*
X003181Y008481D02*
X006201Y008481D01*
X006201Y008640D02*
X003181Y008640D01*
X003181Y008799D02*
X006201Y008799D01*
X006277Y008957D02*
X003181Y008957D01*
X003181Y009116D02*
X006435Y009116D01*
X006967Y009116D02*
X007201Y009116D01*
X007201Y009007D02*
X007494Y008714D01*
X007908Y008714D01*
X008201Y009007D01*
X008201Y009421D01*
X007908Y009714D01*
X007494Y009714D01*
X007201Y009421D01*
X007201Y009007D01*
X007251Y008957D02*
X007125Y008957D01*
X007201Y008799D02*
X007410Y008799D01*
X007992Y008799D02*
X008451Y008799D01*
X008451Y008957D02*
X008151Y008957D01*
X008201Y009116D02*
X008451Y009116D01*
X008451Y009274D02*
X008201Y009274D01*
X008190Y009433D02*
X008451Y009433D01*
X008451Y009591D02*
X008031Y009591D01*
X008451Y009750D02*
X003181Y009750D01*
X003181Y009908D02*
X008451Y009908D01*
X008451Y010067D02*
X003181Y010067D01*
X003181Y010225D02*
X008451Y010225D01*
X008451Y010384D02*
X003181Y010384D01*
X003181Y010543D02*
X008451Y010543D01*
X008451Y010701D02*
X003181Y010701D01*
X003181Y010860D02*
X006762Y010860D01*
X006738Y010866D02*
X007043Y010784D01*
X007359Y010784D01*
X007664Y010866D01*
X007938Y011024D01*
X008161Y011247D01*
X008319Y011521D01*
X008401Y011826D01*
X008401Y012142D01*
X008319Y012447D01*
X008161Y012721D01*
X007938Y012945D01*
X007664Y013103D01*
X007359Y013184D01*
X007043Y013184D01*
X006738Y013103D01*
X006464Y012945D01*
X006241Y012721D01*
X006083Y012447D01*
X006001Y012142D01*
X006001Y011826D01*
X006083Y011521D01*
X006241Y011247D01*
X006464Y011024D01*
X006738Y010866D01*
X006474Y011018D02*
X003181Y011018D01*
X003181Y011177D02*
X006312Y011177D01*
X006190Y011335D02*
X003181Y011335D01*
X003181Y011494D02*
X006099Y011494D01*
X006048Y011652D02*
X003181Y011652D01*
X003181Y011811D02*
X006005Y011811D01*
X006001Y011969D02*
X003181Y011969D01*
X003181Y012128D02*
X006001Y012128D01*
X006040Y012287D02*
X003181Y012287D01*
X003181Y012445D02*
X006082Y012445D01*
X006173Y012604D02*
X003181Y012604D01*
X003181Y012762D02*
X006282Y012762D01*
X006440Y012921D02*
X003181Y012921D01*
X003181Y013079D02*
X006698Y013079D01*
X007188Y013713D02*
X003181Y013713D01*
X003181Y013555D02*
X007347Y013555D01*
X007506Y013396D02*
X003181Y013396D01*
X003181Y013238D02*
X007664Y013238D01*
X007705Y013079D02*
X007823Y013079D01*
X007962Y012921D02*
X007981Y012921D01*
X008120Y012762D02*
X008140Y012762D01*
X008229Y012604D02*
X008298Y012604D01*
X008320Y012445D02*
X008451Y012445D01*
X008451Y012287D02*
X008362Y012287D01*
X008401Y012128D02*
X008451Y012128D01*
X008451Y011969D02*
X008401Y011969D01*
X008397Y011811D02*
X008451Y011811D01*
X008451Y011652D02*
X008354Y011652D01*
X008304Y011494D02*
X008451Y011494D01*
X008451Y011335D02*
X008212Y011335D01*
X008091Y011177D02*
X008451Y011177D01*
X008451Y011018D02*
X007928Y011018D01*
X007640Y010860D02*
X008451Y010860D01*
X008951Y011494D02*
X012647Y011494D01*
X012806Y011652D02*
X008951Y011652D01*
X008951Y011811D02*
X012964Y011811D01*
X013123Y011969D02*
X008951Y011969D01*
X008951Y012128D02*
X013281Y012128D01*
X013440Y012287D02*
X008951Y012287D01*
X008951Y012445D02*
X013598Y012445D01*
X013757Y012604D02*
X008951Y012604D01*
X008847Y012762D02*
X013915Y012762D01*
X014074Y012921D02*
X008688Y012921D01*
X008530Y013079D02*
X014211Y013079D01*
X014211Y013238D02*
X008371Y013238D01*
X008213Y013396D02*
X014211Y013396D01*
X014211Y013555D02*
X008054Y013555D01*
X007895Y013713D02*
X014211Y013713D01*
X014211Y013872D02*
X007737Y013872D01*
X007578Y014031D02*
X014211Y014031D01*
X014211Y014189D02*
X007420Y014189D01*
X007261Y014348D02*
X014211Y014348D01*
X014211Y014506D02*
X007103Y014506D01*
X006944Y014665D02*
X014211Y014665D01*
X014211Y014823D02*
X006786Y014823D01*
X006665Y014982D02*
X014211Y014982D01*
X014211Y015140D02*
X006631Y015140D01*
X006739Y015299D02*
X014211Y015299D01*
X014211Y015457D02*
X006800Y015457D01*
X006800Y015616D02*
X014211Y015616D01*
X014211Y015774D02*
X006767Y015774D01*
X006698Y015933D02*
X014211Y015933D01*
X014211Y016092D02*
X006720Y016092D01*
X006819Y016250D02*
X014211Y016250D01*
X014211Y016409D02*
X006884Y016409D01*
X006886Y016567D02*
X014211Y016567D01*
X014211Y016726D02*
X006874Y016726D01*
X006808Y016884D02*
X014211Y016884D01*
X014211Y017043D02*
X006694Y017043D01*
X006712Y017201D02*
X014211Y017201D01*
X014211Y017360D02*
X006777Y017360D01*
X006800Y017518D02*
X014211Y017518D01*
X014211Y017677D02*
X006794Y017677D01*
X006729Y017836D02*
X014211Y017836D01*
X014211Y017994D02*
X006605Y017994D01*
X006690Y018153D02*
X014211Y018153D01*
X014211Y018311D02*
X006764Y018311D01*
X006800Y018470D02*
X014211Y018470D01*
X014211Y018628D02*
X006800Y018628D01*
X006742Y018787D02*
X014211Y018787D01*
X014211Y018945D02*
X006638Y018945D01*
X006413Y019104D02*
X014211Y019104D01*
X014211Y019262D02*
X003181Y019262D01*
X003181Y019421D02*
X014211Y019421D01*
X014211Y019580D02*
X003181Y019580D01*
X003181Y019738D02*
X014211Y019738D01*
X014211Y019897D02*
X003181Y019897D01*
X003181Y020055D02*
X008500Y020055D01*
X008703Y020055D02*
X009500Y020055D01*
X009703Y020055D02*
X010500Y020055D01*
X010703Y020055D02*
X011500Y020055D01*
X011703Y020055D02*
X012500Y020055D01*
X012703Y020055D02*
X013500Y020055D01*
X013703Y020055D02*
X014211Y020055D01*
X014211Y020214D02*
X013968Y020214D01*
X014067Y020372D02*
X014135Y020372D01*
X014101Y020531D02*
X014101Y020531D01*
X014086Y020689D02*
X014116Y020689D01*
X014188Y020848D02*
X014015Y020848D01*
X013816Y021006D02*
X014386Y021006D01*
X013386Y021006D02*
X012816Y021006D01*
X013015Y020848D02*
X013188Y020848D01*
X013116Y020689D02*
X013086Y020689D01*
X013101Y020531D02*
X013101Y020531D01*
X013067Y020372D02*
X013135Y020372D01*
X013235Y020214D02*
X012968Y020214D01*
X012235Y020214D02*
X011968Y020214D01*
X012067Y020372D02*
X012135Y020372D01*
X012101Y020531D02*
X012101Y020531D01*
X012086Y020689D02*
X012116Y020689D01*
X012188Y020848D02*
X012015Y020848D01*
X011816Y021006D02*
X012386Y021006D01*
X011386Y021006D02*
X010816Y021006D01*
X011015Y020848D02*
X011188Y020848D01*
X011116Y020689D02*
X011086Y020689D01*
X011101Y020531D02*
X011101Y020531D01*
X011067Y020372D02*
X011135Y020372D01*
X011235Y020214D02*
X010968Y020214D01*
X010235Y020214D02*
X009968Y020214D01*
X010067Y020372D02*
X010135Y020372D01*
X010101Y020531D02*
X010101Y020531D01*
X010086Y020689D02*
X010116Y020689D01*
X010188Y020848D02*
X010015Y020848D01*
X009816Y021006D02*
X010386Y021006D01*
X009386Y021006D02*
X008816Y021006D01*
X009015Y020848D02*
X009188Y020848D01*
X009116Y020689D02*
X009086Y020689D01*
X009101Y020531D02*
X009101Y020531D01*
X009067Y020372D02*
X009135Y020372D01*
X009235Y020214D02*
X008968Y020214D01*
X008235Y020214D02*
X003181Y020214D01*
X003181Y020372D02*
X008135Y020372D01*
X008101Y020531D02*
X003181Y020531D01*
X003181Y020689D02*
X008116Y020689D01*
X008188Y020848D02*
X003181Y020848D01*
X003181Y021006D02*
X008386Y021006D01*
X005926Y019104D02*
X004633Y019104D01*
X004791Y018945D02*
X005701Y018945D01*
X005597Y018787D02*
X004867Y018787D01*
X004917Y018628D02*
X005540Y018628D01*
X005540Y018470D02*
X004917Y018470D01*
X004889Y018311D02*
X005575Y018311D01*
X005649Y018153D02*
X004823Y018153D01*
X004685Y017994D02*
X005734Y017994D01*
X005611Y017836D02*
X004413Y017836D01*
X003989Y017836D02*
X003429Y017836D01*
X003181Y017677D02*
X005545Y017677D01*
X005540Y017518D02*
X003181Y017518D01*
X003181Y017360D02*
X005562Y017360D01*
X005627Y017201D02*
X003181Y017201D01*
X003181Y017043D02*
X003799Y017043D01*
X003844Y017088D02*
X003667Y016911D01*
X003571Y016680D01*
X003571Y016429D01*
X003667Y016197D01*
X003844Y016020D01*
X004076Y015924D01*
X004326Y015924D01*
X004558Y016020D01*
X004735Y016197D01*
X004831Y016429D01*
X004831Y016680D01*
X004735Y016911D01*
X004558Y017088D01*
X004326Y017184D01*
X004076Y017184D01*
X003844Y017088D01*
X003656Y016884D02*
X003181Y016884D01*
X003181Y016726D02*
X003590Y016726D01*
X003571Y016567D02*
X003181Y016567D01*
X003181Y016409D02*
X003579Y016409D01*
X003645Y016250D02*
X003181Y016250D01*
X003181Y016092D02*
X003773Y016092D01*
X004055Y015933D02*
X003181Y015933D01*
X003181Y015774D02*
X005572Y015774D01*
X005540Y015616D02*
X003181Y015616D01*
X003181Y015457D02*
X005540Y015457D01*
X005600Y015299D02*
X004351Y015299D01*
X004051Y015299D02*
X003367Y015299D01*
X003675Y015140D02*
X003743Y015140D01*
X004659Y015140D02*
X005708Y015140D01*
X005675Y014982D02*
X004812Y014982D01*
X004878Y014823D02*
X005586Y014823D01*
X005540Y014665D02*
X004917Y014665D01*
X004917Y014506D02*
X005540Y014506D01*
X005586Y014348D02*
X004878Y014348D01*
X004812Y014189D02*
X005675Y014189D01*
X005864Y014031D02*
X004659Y014031D01*
X004349Y013872D02*
X007030Y013872D01*
X006871Y014031D02*
X006475Y014031D01*
X006664Y014189D02*
X006713Y014189D01*
X005642Y015933D02*
X004347Y015933D01*
X004629Y016092D02*
X005619Y016092D01*
X005520Y016250D02*
X004757Y016250D01*
X004823Y016409D02*
X005455Y016409D01*
X005453Y016567D02*
X004831Y016567D01*
X004812Y016726D02*
X005465Y016726D01*
X005531Y016884D02*
X004746Y016884D01*
X004604Y017043D02*
X005645Y017043D01*
X003717Y017994D02*
X003701Y017994D01*
X003649Y019104D02*
X003769Y019104D01*
X003674Y014031D02*
X003744Y014031D01*
X004053Y013872D02*
X003365Y013872D01*
X003181Y009591D02*
X007371Y009591D01*
X007212Y009433D02*
X003181Y009433D01*
X003181Y009274D02*
X007201Y009274D01*
X007201Y008006D02*
X006997Y008006D01*
X007155Y007847D02*
X007281Y007847D01*
X007201Y007689D02*
X007440Y007689D01*
X007470Y007530D02*
X007201Y007530D01*
X007186Y007372D02*
X007311Y007372D01*
X007201Y007213D02*
X007027Y007213D01*
X006908Y007014D02*
X006494Y007014D01*
X006201Y006721D01*
X006201Y006307D01*
X006494Y006014D01*
X006908Y006014D01*
X007201Y006307D01*
X007201Y006721D01*
X006908Y007014D01*
X007026Y006896D02*
X007201Y006896D01*
X007201Y007055D02*
X003181Y007055D01*
X003181Y007213D02*
X006375Y007213D01*
X006217Y007372D02*
X003181Y007372D01*
X003181Y007530D02*
X006201Y007530D01*
X006201Y007689D02*
X003181Y007689D01*
X003181Y007847D02*
X006247Y007847D01*
X006376Y006896D02*
X003181Y006896D01*
X003181Y006738D02*
X006217Y006738D01*
X006201Y006579D02*
X003181Y006579D01*
X003181Y006420D02*
X006201Y006420D01*
X006246Y006262D02*
X003181Y006262D01*
X003181Y006103D02*
X006405Y006103D01*
X006494Y005934D02*
X006201Y005641D01*
X006201Y005227D01*
X006494Y004934D01*
X006908Y004934D01*
X007201Y005227D01*
X007201Y005641D01*
X006908Y005934D01*
X006494Y005934D01*
X006346Y005786D02*
X003181Y005786D01*
X003181Y005628D02*
X006201Y005628D01*
X006201Y005469D02*
X003181Y005469D01*
X003181Y005311D02*
X006201Y005311D01*
X006276Y005152D02*
X003181Y005152D01*
X003181Y004994D02*
X006435Y004994D01*
X006967Y004994D02*
X007201Y004994D01*
X007201Y004835D02*
X003181Y004835D01*
X003181Y004676D02*
X007212Y004676D01*
X007370Y004518D02*
X003181Y004518D01*
X003181Y004359D02*
X014241Y004359D01*
X014347Y004201D02*
X003181Y004201D01*
X003181Y004042D02*
X010073Y004042D01*
X010102Y004054D02*
X009918Y003978D01*
X009777Y003838D01*
X009701Y003654D01*
X009701Y003455D01*
X009777Y003271D01*
X009918Y003130D01*
X010102Y003054D01*
X010301Y003054D01*
X010484Y003130D01*
X010625Y003271D01*
X010701Y003455D01*
X010701Y003654D01*
X010625Y003838D01*
X010484Y003978D01*
X010301Y004054D01*
X010102Y004054D01*
X010330Y004042D02*
X012073Y004042D01*
X012102Y004054D02*
X011918Y003978D01*
X011777Y003838D01*
X011701Y003654D01*
X011701Y003455D01*
X011777Y003271D01*
X011918Y003130D01*
X012102Y003054D01*
X012301Y003054D01*
X012484Y003130D01*
X012625Y003271D01*
X012701Y003455D01*
X012701Y003654D01*
X012625Y003838D01*
X012484Y003978D01*
X012301Y004054D01*
X012102Y004054D01*
X012330Y004042D02*
X015724Y004042D01*
X015724Y003959D02*
X015724Y004149D01*
X015797Y004325D01*
X015931Y004459D01*
X016106Y004531D01*
X016296Y004531D01*
X016471Y004459D01*
X016606Y004325D01*
X016678Y004149D01*
X016678Y003959D01*
X016606Y003784D01*
X016471Y003650D01*
X016296Y003577D01*
X016106Y003577D01*
X015931Y003650D01*
X015797Y003784D01*
X015724Y003959D01*
X015755Y003884D02*
X012579Y003884D01*
X012671Y003725D02*
X015855Y003725D01*
X016547Y003725D02*
X017855Y003725D01*
X017755Y003884D02*
X016647Y003884D01*
X016678Y004042D02*
X017724Y004042D01*
X017745Y004201D02*
X016657Y004201D01*
X016571Y004359D02*
X017831Y004359D01*
X017971Y004518D02*
X016329Y004518D01*
X016073Y004518D02*
X015201Y004518D01*
X015192Y004676D02*
X017971Y004676D01*
X017971Y004835D02*
X015126Y004835D01*
X014951Y004994D02*
X017908Y004994D01*
X017750Y005152D02*
X014951Y005152D01*
X014951Y005311D02*
X017591Y005311D01*
X017433Y005469D02*
X015009Y005469D01*
X015315Y005628D02*
X017087Y005628D01*
X017664Y005945D02*
X018773Y005945D01*
X018763Y006103D02*
X017639Y006103D01*
X017589Y006262D02*
X018640Y006262D01*
X018481Y006420D02*
X017454Y006420D01*
X016927Y006738D02*
X016531Y006738D01*
X016630Y006896D02*
X016813Y006896D01*
X017823Y005786D02*
X018850Y005786D01*
X019087Y005628D02*
X017981Y005628D01*
X018140Y005469D02*
X019433Y005469D01*
X019591Y005311D02*
X018298Y005311D01*
X018443Y005152D02*
X019750Y005152D01*
X019908Y004994D02*
X018471Y004994D01*
X018471Y004835D02*
X019971Y004835D01*
X019971Y004676D02*
X018471Y004676D01*
X018471Y004518D02*
X019971Y004518D01*
X019831Y004359D02*
X018571Y004359D01*
X018471Y004459D02*
X018471Y004459D01*
X018657Y004201D02*
X019745Y004201D01*
X019724Y004042D02*
X018678Y004042D01*
X018647Y003884D02*
X019755Y003884D01*
X019855Y003725D02*
X018547Y003725D01*
X017484Y001978D02*
X017301Y002054D01*
X017102Y002054D01*
X016918Y001978D01*
X016777Y001838D01*
X016701Y001654D01*
X016625Y001838D01*
X016484Y001978D01*
X016301Y002054D01*
X016102Y002054D01*
X015918Y001978D01*
X015777Y001838D01*
X015701Y001654D01*
X015625Y001838D01*
X015484Y001978D01*
X015301Y002054D01*
X015102Y002054D01*
X014918Y001978D01*
X014777Y001838D01*
X014701Y001654D01*
X014625Y001838D01*
X014484Y001978D01*
X014301Y002054D01*
X014102Y002054D01*
X013918Y001978D01*
X013777Y001838D01*
X013701Y001654D01*
X013625Y001838D01*
X013484Y001978D01*
X013301Y002054D01*
X013102Y002054D01*
X012918Y001978D01*
X012777Y001838D01*
X012701Y001654D01*
X012625Y001838D01*
X012484Y001978D01*
X012301Y002054D01*
X012102Y002054D01*
X011918Y001978D01*
X011777Y001838D01*
X011701Y001654D01*
X011701Y001455D01*
X011777Y001271D01*
X011918Y001130D01*
X012102Y001054D01*
X012301Y001054D01*
X012484Y001130D01*
X012625Y001271D01*
X012701Y001455D01*
X012701Y001654D01*
X012701Y001455D01*
X012777Y001271D01*
X012918Y001130D01*
X013102Y001054D01*
X013301Y001054D01*
X013484Y001130D01*
X013625Y001271D01*
X013701Y001455D01*
X013701Y001654D01*
X013701Y001455D01*
X013777Y001271D01*
X013918Y001130D01*
X014102Y001054D01*
X014301Y001054D01*
X014484Y001130D01*
X014625Y001271D01*
X014701Y001455D01*
X014701Y001654D01*
X014701Y001455D01*
X014777Y001271D01*
X014918Y001130D01*
X015102Y001054D01*
X015301Y001054D01*
X015484Y001130D01*
X015625Y001271D01*
X015701Y001455D01*
X015701Y001654D01*
X015701Y001455D01*
X015777Y001271D01*
X015918Y001130D01*
X016102Y001054D01*
X016301Y001054D01*
X016484Y001130D01*
X016625Y001271D01*
X016701Y001455D01*
X016701Y001654D01*
X016701Y001455D01*
X016777Y001271D01*
X016918Y001130D01*
X017102Y001054D01*
X017301Y001054D01*
X017484Y001130D01*
X017625Y001271D01*
X017701Y001455D01*
X017701Y001654D01*
X017625Y001838D01*
X017484Y001978D01*
X017477Y001981D02*
X018925Y001981D01*
X018771Y001823D02*
X017631Y001823D01*
X017697Y001664D02*
X018705Y001664D01*
X018701Y001506D02*
X017701Y001506D01*
X017656Y001347D02*
X018746Y001347D01*
X018860Y001189D02*
X017542Y001189D01*
X016860Y001189D02*
X016542Y001189D01*
X016656Y001347D02*
X016746Y001347D01*
X016701Y001506D02*
X016701Y001506D01*
X016697Y001664D02*
X016705Y001664D01*
X016771Y001823D02*
X016631Y001823D01*
X016477Y001981D02*
X016925Y001981D01*
X015925Y001981D02*
X015477Y001981D01*
X015631Y001823D02*
X015771Y001823D01*
X015705Y001664D02*
X015697Y001664D01*
X015701Y001506D02*
X015701Y001506D01*
X015656Y001347D02*
X015746Y001347D01*
X015860Y001189D02*
X015542Y001189D01*
X014860Y001189D02*
X014542Y001189D01*
X014656Y001347D02*
X014746Y001347D01*
X014701Y001506D02*
X014701Y001506D01*
X014697Y001664D02*
X014705Y001664D01*
X014771Y001823D02*
X014631Y001823D01*
X014477Y001981D02*
X014925Y001981D01*
X013925Y001981D02*
X013477Y001981D01*
X013631Y001823D02*
X013771Y001823D01*
X013705Y001664D02*
X013697Y001664D01*
X013701Y001506D02*
X013701Y001506D01*
X013656Y001347D02*
X013746Y001347D01*
X013860Y001189D02*
X013542Y001189D01*
X012860Y001189D02*
X012542Y001189D01*
X012656Y001347D02*
X012746Y001347D01*
X012701Y001506D02*
X012701Y001506D01*
X012697Y001664D02*
X012705Y001664D01*
X012771Y001823D02*
X012631Y001823D01*
X012477Y001981D02*
X012925Y001981D01*
X011925Y001981D02*
X008401Y001981D01*
X008401Y002140D02*
X024591Y002140D01*
X024591Y002298D02*
X008397Y002298D01*
X008354Y002457D02*
X024591Y002457D01*
X024591Y002615D02*
X008303Y002615D01*
X008212Y002774D02*
X024591Y002774D01*
X024591Y002932D02*
X008090Y002932D01*
X007927Y003091D02*
X010013Y003091D01*
X009799Y003250D02*
X007638Y003250D01*
X006764Y003250D02*
X003181Y003250D01*
X003181Y003408D02*
X009720Y003408D01*
X009701Y003567D02*
X003181Y003567D01*
X003181Y003725D02*
X009731Y003725D01*
X009823Y003884D02*
X003181Y003884D01*
X003181Y003091D02*
X006476Y003091D01*
X006312Y002932D02*
X003181Y002932D01*
X003181Y002774D02*
X006191Y002774D01*
X006099Y002615D02*
X003181Y002615D01*
X003181Y002457D02*
X006048Y002457D01*
X006005Y002298D02*
X003181Y002298D01*
X003181Y002140D02*
X006001Y002140D01*
X006001Y001981D02*
X003181Y001981D01*
X003181Y001823D02*
X006040Y001823D01*
X006082Y001664D02*
X003181Y001664D01*
X003181Y001506D02*
X006173Y001506D01*
X006281Y001347D02*
X003181Y001347D01*
X003181Y001189D02*
X006440Y001189D01*
X007962Y001189D02*
X011860Y001189D01*
X011746Y001347D02*
X008121Y001347D01*
X008229Y001506D02*
X011701Y001506D01*
X011705Y001664D02*
X008320Y001664D01*
X008363Y001823D02*
X011771Y001823D01*
X011385Y003109D02*
X011314Y003086D01*
X011239Y003074D01*
X011221Y003074D01*
X011221Y003534D01*
X011181Y003534D01*
X011181Y003074D01*
X011163Y003074D01*
X011089Y003086D01*
X011017Y003109D01*
X010950Y003144D01*
X010888Y003188D01*
X010835Y003242D01*
X010791Y003303D01*
X010756Y003370D01*
X010733Y003442D01*
X010721Y003517D01*
X010721Y003534D01*
X011181Y003534D01*
X011181Y003574D01*
X010721Y003574D01*
X010721Y003592D01*
X010733Y003667D01*
X010756Y003739D01*
X010791Y003806D01*
X010835Y003867D01*
X010888Y003920D01*
X010950Y003965D01*
X011017Y003999D01*
X011089Y004022D01*
X011163Y004034D01*
X011181Y004034D01*
X011181Y003575D01*
X011221Y003575D01*
X011221Y004034D01*
X011239Y004034D01*
X011314Y004022D01*
X011385Y003999D01*
X011453Y003965D01*
X011514Y003920D01*
X011567Y003867D01*
X011612Y003806D01*
X011646Y003739D01*
X011669Y003667D01*
X011681Y003592D01*
X011681Y003574D01*
X011221Y003574D01*
X011221Y003534D01*
X011681Y003534D01*
X011681Y003517D01*
X011669Y003442D01*
X011646Y003370D01*
X011612Y003303D01*
X011567Y003242D01*
X011514Y003188D01*
X011453Y003144D01*
X011385Y003109D01*
X011329Y003091D02*
X012013Y003091D01*
X011799Y003250D02*
X011573Y003250D01*
X011658Y003408D02*
X011720Y003408D01*
X011701Y003567D02*
X011221Y003567D01*
X011181Y003567D02*
X010701Y003567D01*
X010682Y003408D02*
X010744Y003408D01*
X010829Y003250D02*
X010603Y003250D01*
X010389Y003091D02*
X011074Y003091D01*
X011181Y003091D02*
X011221Y003091D01*
X011221Y003250D02*
X011181Y003250D01*
X011181Y003408D02*
X011221Y003408D01*
X011221Y003725D02*
X011181Y003725D01*
X011181Y003884D02*
X011221Y003884D01*
X011550Y003884D02*
X011823Y003884D01*
X011731Y003725D02*
X011650Y003725D01*
X012389Y003091D02*
X024591Y003091D01*
X024591Y003250D02*
X012603Y003250D01*
X012682Y003408D02*
X024591Y003408D01*
X024591Y003567D02*
X012701Y003567D01*
X010852Y003884D02*
X010579Y003884D01*
X010671Y003725D02*
X010752Y003725D01*
X008544Y004518D02*
X008032Y004518D01*
X008190Y004676D02*
X008451Y004676D01*
X008451Y004835D02*
X008201Y004835D01*
X008451Y005469D02*
X007201Y005469D01*
X007201Y005311D02*
X007410Y005311D01*
X007252Y005152D02*
X007126Y005152D01*
X007201Y005628D02*
X007341Y005628D01*
X007201Y005786D02*
X007056Y005786D01*
X007201Y005945D02*
X003181Y005945D01*
X006997Y006103D02*
X007201Y006103D01*
X007156Y006262D02*
X007282Y006262D01*
X007201Y006420D02*
X007440Y006420D01*
X007469Y006579D02*
X007201Y006579D01*
X007185Y006738D02*
X007311Y006738D01*
X013042Y006420D02*
X013360Y006420D01*
X013246Y006262D02*
X013156Y006262D01*
X013201Y006103D02*
X013201Y006103D01*
X013197Y005945D02*
X013205Y005945D01*
X013271Y005786D02*
X013131Y005786D01*
X012978Y005628D02*
X013424Y005628D01*
X013978Y005628D02*
X014478Y005628D01*
X014620Y005786D02*
X014131Y005786D01*
X014197Y005945D02*
X014773Y005945D01*
X014763Y006103D02*
X014201Y006103D01*
X014156Y006262D02*
X014321Y006262D01*
X014213Y006420D02*
X014042Y006420D01*
X014711Y006738D02*
X014927Y006738D01*
X014813Y006896D02*
X014711Y006896D01*
X014711Y007055D02*
X014783Y007055D01*
X014813Y007213D02*
X014711Y007213D01*
X015552Y005786D02*
X015756Y005786D01*
X015831Y004359D02*
X015161Y004359D01*
X015055Y004201D02*
X015745Y004201D01*
X018871Y006738D02*
X018927Y006738D01*
X019030Y006579D02*
X024591Y006579D01*
X024591Y006738D02*
X024531Y006738D01*
X024210Y006738D02*
X024192Y006738D01*
X024192Y006896D02*
X024210Y006896D01*
X024192Y007055D02*
X023619Y007055D01*
X023619Y007054D02*
X023619Y007087D01*
X023609Y007152D01*
X023588Y007215D01*
X023558Y007273D01*
X023520Y007326D01*
X023473Y007373D01*
X023420Y007412D01*
X023361Y007441D01*
X023299Y007462D01*
X023234Y007472D01*
X023201Y007472D01*
X023168Y007472D01*
X023103Y007462D01*
X023041Y007441D01*
X022982Y007412D01*
X022929Y007373D01*
X022882Y007326D01*
X022844Y007273D01*
X022814Y007215D01*
X022794Y007152D01*
X022783Y007087D01*
X022783Y007054D01*
X022783Y007021D01*
X022794Y006956D01*
X022814Y006894D01*
X022844Y006835D01*
X022882Y006782D01*
X022929Y006736D01*
X022982Y006697D01*
X023041Y006667D01*
X023103Y006647D01*
X023168Y006637D01*
X023201Y006637D01*
X023201Y007054D01*
X023201Y007054D01*
X023201Y006637D01*
X023234Y006637D01*
X023299Y006647D01*
X023361Y006667D01*
X023420Y006697D01*
X023473Y006736D01*
X023520Y006782D01*
X023558Y006835D01*
X023588Y006894D01*
X023609Y006956D01*
X023619Y007021D01*
X023619Y007054D01*
X023201Y007054D01*
X022783Y007054D01*
X023201Y007054D01*
X023201Y007054D01*
X023201Y007054D01*
X023619Y007054D01*
X023744Y007063D02*
X024192Y007063D01*
X024192Y007511D01*
X024165Y007511D01*
X024094Y007500D01*
X024026Y007478D01*
X023961Y007445D01*
X023903Y007403D01*
X023852Y007352D01*
X023810Y007294D01*
X023777Y007230D01*
X023755Y007161D01*
X023744Y007090D01*
X023744Y007063D01*
X023772Y007213D02*
X023589Y007213D01*
X023475Y007372D02*
X023872Y007372D01*
X024192Y007372D02*
X024210Y007372D01*
X024210Y007213D02*
X024192Y007213D01*
X024530Y007372D02*
X024591Y007372D01*
X024591Y007530D02*
X018871Y007530D01*
X018871Y007372D02*
X018928Y007372D01*
X019201Y007372D02*
X019201Y007372D01*
X019201Y007472D02*
X019201Y007055D01*
X019201Y007055D01*
X019201Y007472D01*
X019201Y007213D02*
X019201Y007213D01*
X019475Y007372D02*
X019872Y007372D01*
X019852Y007352D02*
X019810Y007294D01*
X019777Y007230D01*
X019755Y007161D01*
X019744Y007090D01*
X019744Y007063D01*
X020192Y007063D01*
X020192Y007046D01*
X019744Y007046D01*
X019744Y007018D01*
X019755Y006947D01*
X019777Y006879D01*
X019810Y006815D01*
X019852Y006756D01*
X019903Y006706D01*
X019961Y006663D01*
X020026Y006631D01*
X020094Y006608D01*
X020165Y006597D01*
X020192Y006597D01*
X020192Y007045D01*
X020210Y007045D01*
X020210Y006597D01*
X020237Y006597D01*
X020308Y006608D01*
X020377Y006631D01*
X020441Y006663D01*
X020499Y006706D01*
X020550Y006756D01*
X020592Y006815D01*
X020625Y006879D01*
X020647Y006947D01*
X020658Y007018D01*
X020658Y007046D01*
X020210Y007046D01*
X020210Y007063D01*
X020658Y007063D01*
X020658Y007090D01*
X020647Y007161D01*
X020625Y007230D01*
X020592Y007294D01*
X020550Y007352D01*
X020499Y007403D01*
X020441Y007445D01*
X020377Y007478D01*
X020308Y007500D01*
X020237Y007511D01*
X020210Y007511D01*
X020210Y007063D01*
X020192Y007063D01*
X020192Y007511D01*
X020165Y007511D01*
X020094Y007500D01*
X020026Y007478D01*
X019961Y007445D01*
X019903Y007403D01*
X019852Y007352D01*
X019772Y007213D02*
X019589Y007213D01*
X019619Y007055D02*
X020192Y007055D01*
X020210Y007055D02*
X020783Y007055D01*
X020783Y007054D02*
X021201Y007054D01*
X021201Y007054D01*
X021201Y006637D01*
X021168Y006637D01*
X021103Y006647D01*
X021041Y006667D01*
X020982Y006697D01*
X020929Y006736D01*
X020882Y006782D01*
X020844Y006835D01*
X020814Y006894D01*
X020794Y006956D01*
X020783Y007021D01*
X020783Y007054D01*
X021201Y007054D01*
X021201Y006637D01*
X021234Y006637D01*
X021299Y006647D01*
X021361Y006667D01*
X021420Y006697D01*
X021473Y006736D01*
X021520Y006782D01*
X021558Y006835D01*
X021588Y006894D01*
X021609Y006956D01*
X021619Y007021D01*
X021619Y007054D01*
X021201Y007054D01*
X021201Y007054D01*
X021201Y007054D01*
X021619Y007054D01*
X021619Y007087D01*
X021609Y007152D01*
X021588Y007215D01*
X021558Y007273D01*
X021520Y007326D01*
X021473Y007373D01*
X021420Y007412D01*
X021361Y007441D01*
X021299Y007462D01*
X021234Y007472D01*
X021201Y007472D01*
X021168Y007472D01*
X021103Y007462D01*
X021041Y007441D01*
X020982Y007412D01*
X020929Y007373D01*
X020882Y007326D01*
X020844Y007273D01*
X020814Y007215D01*
X020794Y007152D01*
X020783Y007087D01*
X020783Y007054D01*
X020813Y006896D02*
X020630Y006896D01*
X020531Y006738D02*
X020927Y006738D01*
X021201Y006738D02*
X021201Y006738D01*
X021201Y006896D02*
X021201Y006896D01*
X021201Y007055D02*
X021201Y007472D01*
X021201Y007055D01*
X021201Y007055D01*
X021201Y007213D02*
X021201Y007213D01*
X021201Y007372D02*
X021201Y007372D01*
X020928Y007372D02*
X020530Y007372D01*
X020630Y007213D02*
X020813Y007213D01*
X020210Y007213D02*
X020192Y007213D01*
X020192Y007372D02*
X020210Y007372D01*
X020192Y006896D02*
X020210Y006896D01*
X020210Y006738D02*
X020192Y006738D01*
X019871Y006738D02*
X019475Y006738D01*
X019589Y006896D02*
X019772Y006896D01*
X019201Y006896D02*
X019201Y006896D01*
X019201Y006738D02*
X019201Y006738D01*
X019454Y006420D02*
X020948Y006420D01*
X020953Y006425D02*
X020830Y006302D01*
X020763Y006141D01*
X020763Y005967D01*
X020830Y005806D01*
X020953Y005683D01*
X021114Y005617D01*
X021285Y005617D01*
X021971Y004931D01*
X021971Y004476D01*
X021931Y004459D01*
X021797Y004325D01*
X021724Y004149D01*
X021724Y003959D01*
X021797Y003784D01*
X021931Y003650D01*
X022106Y003577D01*
X022296Y003577D01*
X022471Y003650D01*
X022606Y003784D01*
X022678Y003959D01*
X022678Y004149D01*
X022606Y004325D01*
X022471Y004459D01*
X022471Y004985D01*
X022471Y005084D01*
X022433Y005176D01*
X021639Y005970D01*
X021639Y006141D01*
X021572Y006302D01*
X021449Y006425D01*
X021288Y006492D01*
X021114Y006492D01*
X020953Y006425D01*
X020813Y006262D02*
X019589Y006262D01*
X019639Y006103D02*
X020763Y006103D01*
X020773Y005945D02*
X019664Y005945D01*
X019823Y005786D02*
X020850Y005786D01*
X021087Y005628D02*
X019981Y005628D01*
X020140Y005469D02*
X021433Y005469D01*
X021591Y005311D02*
X020298Y005311D01*
X020443Y005152D02*
X021750Y005152D01*
X021908Y004994D02*
X020471Y004994D01*
X020471Y004835D02*
X021971Y004835D01*
X021971Y004676D02*
X020471Y004676D01*
X020471Y004518D02*
X021971Y004518D01*
X021831Y004359D02*
X020571Y004359D01*
X020471Y004459D02*
X020471Y004459D01*
X020657Y004201D02*
X021745Y004201D01*
X021724Y004042D02*
X020678Y004042D01*
X020647Y003884D02*
X021755Y003884D01*
X021855Y003725D02*
X020547Y003725D01*
X022471Y004459D02*
X022471Y004459D01*
X022471Y004518D02*
X023971Y004518D01*
X023971Y004676D02*
X022471Y004676D01*
X022471Y004835D02*
X023971Y004835D01*
X023908Y004994D02*
X022471Y004994D01*
X022443Y005152D02*
X023750Y005152D01*
X023591Y005311D02*
X022298Y005311D01*
X022140Y005469D02*
X023433Y005469D01*
X023087Y005628D02*
X021981Y005628D01*
X021823Y005786D02*
X022850Y005786D01*
X022773Y005945D02*
X021664Y005945D01*
X021639Y006103D02*
X022763Y006103D01*
X022813Y006262D02*
X021589Y006262D01*
X021454Y006420D02*
X022948Y006420D01*
X022927Y006738D02*
X022531Y006738D01*
X022550Y006756D02*
X022592Y006815D01*
X022625Y006879D01*
X022647Y006947D01*
X022658Y007018D01*
X022658Y007046D01*
X022210Y007046D01*
X022210Y007063D01*
X022658Y007063D01*
X022658Y007090D01*
X022647Y007161D01*
X022625Y007230D01*
X022592Y007294D01*
X022550Y007352D01*
X022499Y007403D01*
X022441Y007445D01*
X022377Y007478D01*
X022308Y007500D01*
X022237Y007511D01*
X022210Y007511D01*
X022210Y007063D01*
X022192Y007063D01*
X022192Y007046D01*
X021744Y007046D01*
X021744Y007018D01*
X021755Y006947D01*
X021777Y006879D01*
X021810Y006815D01*
X021852Y006756D01*
X021903Y006706D01*
X021961Y006663D01*
X022026Y006631D01*
X022094Y006608D01*
X022165Y006597D01*
X022192Y006597D01*
X022192Y007045D01*
X022210Y007045D01*
X022210Y006597D01*
X022237Y006597D01*
X022308Y006608D01*
X022377Y006631D01*
X022441Y006663D01*
X022499Y006706D01*
X022550Y006756D01*
X022630Y006896D02*
X022813Y006896D01*
X022783Y007055D02*
X022210Y007055D01*
X022192Y007055D02*
X021619Y007055D01*
X021744Y007063D02*
X022192Y007063D01*
X022192Y007511D01*
X022165Y007511D01*
X022094Y007500D01*
X022026Y007478D01*
X021961Y007445D01*
X021903Y007403D01*
X021852Y007352D01*
X021810Y007294D01*
X021777Y007230D01*
X021755Y007161D01*
X021744Y007090D01*
X021744Y007063D01*
X021772Y007213D02*
X021589Y007213D01*
X021475Y007372D02*
X021872Y007372D01*
X022192Y007372D02*
X022210Y007372D01*
X022210Y007213D02*
X022192Y007213D01*
X022192Y006896D02*
X022210Y006896D01*
X022210Y006738D02*
X022192Y006738D01*
X021871Y006738D02*
X021475Y006738D01*
X021589Y006896D02*
X021772Y006896D01*
X022530Y007372D02*
X022928Y007372D01*
X022813Y007213D02*
X022630Y007213D01*
X023201Y007213D02*
X023201Y007213D01*
X023201Y007055D02*
X023201Y007472D01*
X023201Y007055D01*
X023201Y007055D01*
X023201Y006896D02*
X023201Y006896D01*
X023201Y006738D02*
X023201Y006738D01*
X023475Y006738D02*
X023871Y006738D01*
X023772Y006896D02*
X023589Y006896D01*
X023454Y006420D02*
X024591Y006420D01*
X024591Y006262D02*
X023589Y006262D01*
X023639Y006103D02*
X024591Y006103D01*
X024591Y005945D02*
X023664Y005945D01*
X023823Y005786D02*
X024591Y005786D01*
X024591Y005628D02*
X023981Y005628D01*
X024140Y005469D02*
X024591Y005469D01*
X024591Y005311D02*
X024298Y005311D01*
X024443Y005152D02*
X024591Y005152D01*
X024591Y004994D02*
X024471Y004994D01*
X024471Y004835D02*
X024591Y004835D01*
X024591Y004676D02*
X024471Y004676D01*
X024471Y004518D02*
X024591Y004518D01*
X024471Y004459D02*
X024471Y004459D01*
X024571Y004359D02*
X024591Y004359D01*
X024591Y003725D02*
X024547Y003725D01*
X023855Y003725D02*
X022547Y003725D01*
X022647Y003884D02*
X023755Y003884D01*
X023724Y004042D02*
X022678Y004042D01*
X022657Y004201D02*
X023745Y004201D01*
X023831Y004359D02*
X022571Y004359D01*
X022477Y001981D02*
X022925Y001981D01*
X022771Y001823D02*
X022631Y001823D01*
X022697Y001664D02*
X022705Y001664D01*
X022701Y001506D02*
X022701Y001506D01*
X022656Y001347D02*
X022746Y001347D01*
X022860Y001189D02*
X022542Y001189D01*
X021860Y001189D02*
X021542Y001189D01*
X021656Y001347D02*
X021746Y001347D01*
X021701Y001506D02*
X021701Y001506D01*
X021697Y001664D02*
X021705Y001664D01*
X021771Y001823D02*
X021631Y001823D01*
X021477Y001981D02*
X021925Y001981D01*
X020925Y001981D02*
X020477Y001981D01*
X020631Y001823D02*
X020771Y001823D01*
X020705Y001664D02*
X020697Y001664D01*
X020701Y001506D02*
X020701Y001506D01*
X020656Y001347D02*
X020746Y001347D01*
X020860Y001189D02*
X020542Y001189D01*
X019860Y001189D02*
X019542Y001189D01*
X019656Y001347D02*
X019746Y001347D01*
X019701Y001506D02*
X019701Y001506D01*
X019697Y001664D02*
X019705Y001664D01*
X019771Y001823D02*
X019631Y001823D01*
X019477Y001981D02*
X019925Y001981D01*
X023477Y001981D02*
X023925Y001981D01*
X023771Y001823D02*
X023631Y001823D01*
X023697Y001664D02*
X023705Y001664D01*
X023701Y001506D02*
X023701Y001506D01*
X023656Y001347D02*
X023746Y001347D01*
X023860Y001189D02*
X023542Y001189D01*
X024542Y001189D02*
X024591Y001189D01*
X024591Y001981D02*
X024477Y001981D01*
X023201Y007372D02*
X023201Y007372D01*
X024591Y007689D02*
X018853Y007689D01*
X018722Y007847D02*
X024591Y007847D01*
X024591Y008006D02*
X018563Y008006D01*
X018404Y008164D02*
X024591Y008164D01*
X024591Y008323D02*
X018246Y008323D01*
X018087Y008481D02*
X024591Y008481D01*
X024591Y008640D02*
X017929Y008640D01*
X017770Y008799D02*
X024591Y008799D01*
X024591Y008957D02*
X017612Y008957D01*
X017453Y009116D02*
X024591Y009116D01*
X024591Y009274D02*
X017341Y009274D01*
X017308Y009433D02*
X024591Y009433D01*
X024591Y009591D02*
X017190Y009591D01*
X024420Y012604D02*
X024591Y012604D01*
X024566Y013396D02*
X024591Y013396D01*
X022835Y020214D02*
X022568Y020214D01*
X022667Y020372D02*
X022735Y020372D01*
X022701Y020531D02*
X022701Y020531D01*
X022686Y020689D02*
X022716Y020689D01*
X022788Y020848D02*
X022615Y020848D01*
X022416Y021006D02*
X022986Y021006D01*
X021986Y021006D02*
X021416Y021006D01*
X021615Y020848D02*
X021788Y020848D01*
X021716Y020689D02*
X021686Y020689D01*
X021701Y020531D02*
X021701Y020531D01*
X021667Y020372D02*
X021735Y020372D01*
X021835Y020214D02*
X021568Y020214D01*
X020835Y020214D02*
X020568Y020214D01*
X020667Y020372D02*
X020735Y020372D01*
X020701Y020531D02*
X020701Y020531D01*
X020686Y020689D02*
X020716Y020689D01*
X020788Y020848D02*
X020615Y020848D01*
X020416Y021006D02*
X020986Y021006D01*
X019986Y021006D02*
X019416Y021006D01*
X019615Y020848D02*
X019788Y020848D01*
X019716Y020689D02*
X019686Y020689D01*
X019701Y020531D02*
X019701Y020531D01*
X019667Y020372D02*
X019735Y020372D01*
X019835Y020214D02*
X019568Y020214D01*
X018835Y020214D02*
X018568Y020214D01*
X018667Y020372D02*
X018735Y020372D01*
X018701Y020531D02*
X018701Y020531D01*
X018686Y020689D02*
X018716Y020689D01*
X018788Y020848D02*
X018615Y020848D01*
X018416Y021006D02*
X018986Y021006D01*
X017986Y021006D02*
X017416Y021006D01*
X017615Y020848D02*
X017788Y020848D01*
X017716Y020689D02*
X017686Y020689D01*
X017701Y020531D02*
X017701Y020531D01*
X017667Y020372D02*
X017735Y020372D01*
X017835Y020214D02*
X017568Y020214D01*
M02*
