%
M48
M72
T01C0.0240
T02C0.0276
T03C0.0354
T04C0.0400
T05C0.0472
T06C0.0512
T07C0.1300
%
T01
X11901Y8714
X15261Y8074
X16941Y9274
T02
X17201Y7054
X17201Y6054
X15201Y6054
X15201Y7054
X19201Y7054
X19201Y6054
X21201Y6054
X21201Y7054
X23201Y7054
X23201Y6054
T03
X22201Y7054
X20201Y7054
X18201Y7054
X16201Y7054
X16201Y4054
X18201Y4054
X20201Y4054
X22201Y4054
X24201Y4054
X24201Y7054
T04
X6701Y5434
X7701Y4894
X7701Y5974
X7701Y7054
X6701Y6514
X6701Y7594
X7701Y8134
X6701Y8674
X7701Y9214
X12701Y9054
X13701Y9054
X13701Y10054
X12701Y10054
X12701Y8054
X13701Y8054
X13701Y7054
X12701Y7054
X12701Y6054
X13701Y6054
X14701Y4554
X12201Y3554
X11201Y3554
X10201Y3554
X12201Y1554
X13201Y1554
X14201Y1554
X15201Y1554
X16201Y1554
X17201Y1554
X19201Y1554
X20201Y1554
X21201Y1554
X22201Y1554
X23201Y1554
X24201Y1554
X24201Y13054
X24201Y14054
X24201Y15054
X24201Y16054
X24201Y17054
X24201Y18054
X24201Y20554
X23201Y20554
X22201Y20554
X21201Y20554
X20201Y20554
X19201Y20554
X18201Y20554
X17201Y20554
X15601Y20554
X14601Y20554
X13601Y20554
X12601Y20554
X11601Y20554
X10601Y20554
X9601Y20554
X8601Y20554
T05
X4201Y18523
X3217Y18523
X6170Y16554
X4201Y14586
X3217Y14586
T06
X4201Y16554
X6170Y15570
X6170Y14586
X6170Y17539
X6170Y18523
T07
X7201Y11984
X7201Y2124
M30
