%
M48
M72
T01C0.0240
T02C0.0335
T03C0.0400
T04C0.0472
T05C0.0512
T06C0.1300
%
T01
X22239Y8049
X24879Y6449
X26719Y5889
X28179Y5829
T02
X15789Y7189
X14608Y7189
T03
X18199Y7189
X19199Y7189
X19199Y8189
X18199Y8189
X18199Y6189
X19199Y6189
X19199Y5189
X18199Y5189
X18199Y4189
X19199Y4189
X21199Y4189
X21699Y1689
X20699Y1689
X19699Y1689
X18699Y1689
X17699Y1689
X16699Y1689
X23699Y1689
X24699Y1689
X25699Y1689
X26699Y1689
X27699Y1689
X28699Y1689
X28699Y13189
X28699Y14189
X28699Y15189
X28699Y16189
X28699Y17189
X28699Y18189
X28699Y20689
X27699Y20689
X26699Y20689
X25699Y20689
X24699Y20689
X23699Y20689
X22699Y20689
X21699Y20689
X20099Y20689
X19099Y20689
X18099Y20689
X17099Y20689
X16099Y20689
X15099Y20689
X14099Y20689
X13099Y20689
X7699Y9349
X6699Y8809
X7699Y8269
X6699Y7729
X7699Y7189
X6699Y6649
X7699Y6109
X6699Y5569
X7699Y5029
T04
X4199Y14221
X3215Y14221
X6167Y16189
X4199Y18158
X3215Y18158
T05
X4199Y16189
X6167Y15205
X6167Y14221
X6167Y17174
X6167Y18158
T06
X7199Y2259
X7199Y12119
M30
