G75*
G70*
%OFA0B0*%
%FSLAX24Y24*%
%IPPOS*%
%LPD*%
%AMOC8*
5,1,8,0,0,1.08239X$1,22.5*
%
%ADD10OC8,0.0680*%
%ADD11C,0.2080*%
%ADD12C,0.0680*%
%ADD13R,0.0474X0.0513*%
%ADD14R,0.0474X0.0533*%
%ADD15C,0.0415*%
%ADD16C,0.0552*%
%ADD17C,0.0940*%
%ADD18C,0.0480*%
D10*
X006699Y005569D03*
X007699Y005029D03*
X007699Y006109D03*
X006699Y006649D03*
X007699Y007189D03*
X006699Y007729D03*
X007699Y008269D03*
X006699Y008809D03*
X007699Y009349D03*
D11*
X007199Y002259D03*
X007199Y012119D03*
D12*
X018199Y008189D03*
X019199Y008189D03*
X019199Y007189D03*
X018199Y007189D03*
X018199Y006189D03*
X019199Y006189D03*
X019199Y005189D03*
X018199Y005189D03*
X018199Y004189D03*
X019199Y004189D03*
X021199Y004189D03*
X021699Y001689D03*
X020699Y001689D03*
X019699Y001689D03*
X018699Y001689D03*
X017699Y001689D03*
X016699Y001689D03*
X023699Y001689D03*
X024699Y001689D03*
X025699Y001689D03*
X026699Y001689D03*
X027699Y001689D03*
X028699Y001689D03*
X028699Y013189D03*
X028699Y014189D03*
X028699Y015189D03*
X028699Y016189D03*
X028699Y017189D03*
X028699Y018189D03*
X028699Y020689D03*
X027699Y020689D03*
X026699Y020689D03*
X025699Y020689D03*
X024699Y020689D03*
X023699Y020689D03*
X022699Y020689D03*
X021699Y020689D03*
X020099Y020689D03*
X019099Y020689D03*
X018099Y020689D03*
X017099Y020689D03*
X016099Y020689D03*
X015099Y020689D03*
X014099Y020689D03*
X013099Y020689D03*
D13*
X022699Y006524D03*
X022699Y005855D03*
X024199Y005855D03*
X024199Y006524D03*
X025699Y006524D03*
X025699Y005855D03*
X027199Y005855D03*
X027199Y006524D03*
X028699Y006524D03*
X028699Y005855D03*
X028699Y004524D03*
X028699Y003855D03*
X027199Y003855D03*
X027199Y004524D03*
X025699Y004524D03*
X025699Y003855D03*
X024199Y003855D03*
X024199Y004524D03*
X022699Y004524D03*
X022699Y003855D03*
D14*
X016183Y006077D03*
X015199Y006077D03*
X014215Y006077D03*
X014215Y008301D03*
X015199Y008301D03*
X016183Y008301D03*
D15*
X015789Y007189D03*
X014608Y007189D03*
D16*
X004199Y014221D03*
X003215Y014221D03*
X006167Y016189D03*
X004199Y018158D03*
X003215Y018158D03*
D17*
X004199Y016189D03*
X006167Y015205D03*
X006167Y014221D03*
X006167Y017174D03*
X006167Y018158D03*
D18*
X022239Y008049D03*
X024879Y006449D03*
X026719Y005889D03*
X028179Y005829D03*
M02*
