G75*
G70*
%OFA0B0*%
%FSLAX24Y24*%
%IPPOS*%
%LPD*%
%AMOC8*
5,1,8,0,0,1.08239X$1,22.5*
%
%ADD10C,0.0060*%
%ADD11C,0.0080*%
D10*
X006551Y002255D02*
X006553Y002305D01*
X006559Y002355D01*
X006569Y002405D01*
X006582Y002453D01*
X006599Y002501D01*
X006620Y002547D01*
X006644Y002591D01*
X006672Y002633D01*
X006703Y002673D01*
X006737Y002710D01*
X006774Y002745D01*
X006813Y002776D01*
X006854Y002805D01*
X006898Y002830D01*
X006944Y002852D01*
X006991Y002870D01*
X007039Y002884D01*
X007088Y002895D01*
X007138Y002902D01*
X007188Y002905D01*
X007239Y002904D01*
X007289Y002899D01*
X007339Y002890D01*
X007387Y002878D01*
X007435Y002861D01*
X007481Y002841D01*
X007526Y002818D01*
X007569Y002791D01*
X007609Y002761D01*
X007647Y002728D01*
X007682Y002692D01*
X007715Y002653D01*
X007744Y002612D01*
X007770Y002569D01*
X007793Y002524D01*
X007812Y002477D01*
X007827Y002429D01*
X007839Y002380D01*
X007847Y002330D01*
X007851Y002280D01*
X007851Y002230D01*
X007847Y002180D01*
X007839Y002130D01*
X007827Y002081D01*
X007812Y002033D01*
X007793Y001986D01*
X007770Y001941D01*
X007744Y001898D01*
X007715Y001857D01*
X007682Y001818D01*
X007647Y001782D01*
X007609Y001749D01*
X007569Y001719D01*
X007526Y001692D01*
X007481Y001669D01*
X007435Y001649D01*
X007387Y001632D01*
X007339Y001620D01*
X007289Y001611D01*
X007239Y001606D01*
X007188Y001605D01*
X007138Y001608D01*
X007088Y001615D01*
X007039Y001626D01*
X006991Y001640D01*
X006944Y001658D01*
X006898Y001680D01*
X006854Y001705D01*
X006813Y001734D01*
X006774Y001765D01*
X006737Y001800D01*
X006703Y001837D01*
X006672Y001877D01*
X006644Y001919D01*
X006620Y001963D01*
X006599Y002009D01*
X006582Y002057D01*
X006569Y002105D01*
X006559Y002155D01*
X006553Y002205D01*
X006551Y002255D01*
X006551Y012115D02*
X006553Y012165D01*
X006559Y012215D01*
X006569Y012265D01*
X006582Y012313D01*
X006599Y012361D01*
X006620Y012407D01*
X006644Y012451D01*
X006672Y012493D01*
X006703Y012533D01*
X006737Y012570D01*
X006774Y012605D01*
X006813Y012636D01*
X006854Y012665D01*
X006898Y012690D01*
X006944Y012712D01*
X006991Y012730D01*
X007039Y012744D01*
X007088Y012755D01*
X007138Y012762D01*
X007188Y012765D01*
X007239Y012764D01*
X007289Y012759D01*
X007339Y012750D01*
X007387Y012738D01*
X007435Y012721D01*
X007481Y012701D01*
X007526Y012678D01*
X007569Y012651D01*
X007609Y012621D01*
X007647Y012588D01*
X007682Y012552D01*
X007715Y012513D01*
X007744Y012472D01*
X007770Y012429D01*
X007793Y012384D01*
X007812Y012337D01*
X007827Y012289D01*
X007839Y012240D01*
X007847Y012190D01*
X007851Y012140D01*
X007851Y012090D01*
X007847Y012040D01*
X007839Y011990D01*
X007827Y011941D01*
X007812Y011893D01*
X007793Y011846D01*
X007770Y011801D01*
X007744Y011758D01*
X007715Y011717D01*
X007682Y011678D01*
X007647Y011642D01*
X007609Y011609D01*
X007569Y011579D01*
X007526Y011552D01*
X007481Y011529D01*
X007435Y011509D01*
X007387Y011492D01*
X007339Y011480D01*
X007289Y011471D01*
X007239Y011466D01*
X007188Y011465D01*
X007138Y011468D01*
X007088Y011475D01*
X007039Y011486D01*
X006991Y011500D01*
X006944Y011518D01*
X006898Y011540D01*
X006854Y011565D01*
X006813Y011594D01*
X006774Y011625D01*
X006737Y011660D01*
X006703Y011697D01*
X006672Y011737D01*
X006644Y011779D01*
X006620Y011823D01*
X006599Y011869D01*
X006582Y011917D01*
X006569Y011965D01*
X006559Y012015D01*
X006553Y012065D01*
X006551Y012115D01*
D11*
X002601Y013285D02*
X002601Y001085D01*
X008251Y001085D01*
X008264Y001083D02*
X008461Y001280D01*
X008461Y013051D01*
X008451Y013055D02*
X008201Y013285D01*
X002601Y013285D01*
M02*
