G75*
G70*
%OFA0B0*%
%FSLAX24Y24*%
%IPPOS*%
%LPD*%
%AMOC8*
5,1,8,0,0,1.08239X$1,22.5*
%
%ADD10OC8,0.0600*%
%ADD11C,0.2000*%
%ADD12C,0.0600*%
%ADD13C,0.0860*%
%ADD14C,0.0100*%
%ADD15C,0.0400*%
%ADD16C,0.0160*%
D10*
X006699Y005569D03*
X007699Y005029D03*
X007699Y006109D03*
X006699Y006649D03*
X007699Y007189D03*
X006699Y007729D03*
X007699Y008269D03*
X006699Y008809D03*
X007699Y009349D03*
D11*
X007199Y012119D03*
X007199Y002259D03*
D12*
X016699Y001689D03*
X017699Y001689D03*
X018699Y001689D03*
X019699Y001689D03*
X020699Y001689D03*
X021699Y001689D03*
X023699Y001689D03*
X024699Y001689D03*
X025699Y001689D03*
X026699Y001689D03*
X027699Y001689D03*
X028699Y001689D03*
X021199Y004189D03*
X019199Y004189D03*
X018199Y004189D03*
X018199Y005189D03*
X019199Y005189D03*
X019199Y006189D03*
X018199Y006189D03*
X018199Y007189D03*
X019199Y007189D03*
X019199Y008189D03*
X018199Y008189D03*
X028699Y013189D03*
X028699Y014189D03*
X028699Y015189D03*
X028699Y016189D03*
X028699Y017189D03*
X028699Y018189D03*
X028699Y020689D03*
X027699Y020689D03*
X026699Y020689D03*
X025699Y020689D03*
X024699Y020689D03*
X023699Y020689D03*
X022699Y020689D03*
X021699Y020689D03*
X020099Y020689D03*
X019099Y020689D03*
X018099Y020689D03*
X017099Y020689D03*
X016099Y020689D03*
X015099Y020689D03*
X014099Y020689D03*
X013099Y020689D03*
D13*
X006167Y018158D03*
X006167Y017174D03*
X004199Y016189D03*
X006167Y015205D03*
X006167Y014221D03*
D14*
X006167Y018158D02*
X006179Y018229D01*
X013699Y018229D01*
X016099Y020629D01*
X016099Y020689D01*
X017099Y020689D02*
X017139Y020629D01*
X017139Y008949D01*
X008099Y008949D01*
X007699Y009349D01*
X007699Y008269D02*
X007699Y008229D01*
X007779Y008149D01*
X017139Y008149D01*
X017619Y007669D01*
X018339Y007669D01*
X018659Y007349D01*
X018899Y007349D01*
X019059Y007189D01*
X019199Y007189D01*
X019199Y007169D01*
X024159Y007169D01*
X024879Y006449D01*
X025539Y006049D02*
X025539Y012949D01*
X019139Y019349D01*
X019139Y020629D01*
X019099Y020689D01*
X020099Y020689D02*
X020099Y020629D01*
X028179Y012549D01*
X028179Y005829D01*
X027539Y005189D01*
X020019Y005189D01*
X020019Y003909D01*
X019539Y003429D01*
X010339Y003429D01*
X007699Y006069D01*
X007699Y006109D01*
X008659Y006229D02*
X017139Y006229D01*
X017539Y006629D01*
X018419Y006629D01*
X018739Y006309D01*
X019059Y006309D01*
X019139Y006229D01*
X019199Y006189D01*
X019199Y006129D01*
X019439Y006129D01*
X019519Y006049D01*
X025539Y006049D01*
X026559Y006049D01*
X026719Y005889D01*
X022239Y008049D02*
X019519Y008049D01*
X019439Y008129D01*
X019199Y008129D01*
X019199Y008189D01*
X019459Y008149D01*
X018659Y008949D01*
X017139Y008949D01*
X019199Y005189D02*
X020019Y005189D01*
X008659Y006229D02*
X007699Y007189D01*
X027699Y020689D02*
X027839Y020689D01*
X027839Y018049D01*
X028699Y017189D01*
D15*
X022239Y008049D03*
X024879Y006449D03*
X026719Y005889D03*
X028179Y005829D03*
D16*
X003179Y001169D02*
X003179Y013505D01*
X003357Y013505D01*
X003620Y013614D01*
X003707Y013700D01*
X003793Y013614D01*
X004056Y013505D01*
X004341Y013505D01*
X004605Y013614D01*
X004806Y013815D01*
X004915Y014078D01*
X004915Y014363D01*
X004806Y014626D01*
X004605Y014828D01*
X004341Y014937D01*
X004056Y014937D01*
X003793Y014828D01*
X003707Y014741D01*
X003620Y014828D01*
X003357Y014937D01*
X003179Y014937D01*
X003179Y017442D01*
X003357Y017442D01*
X003620Y017551D01*
X003707Y017637D01*
X003793Y017551D01*
X004056Y017442D01*
X004341Y017442D01*
X004605Y017551D01*
X004806Y017752D01*
X004915Y018015D01*
X004915Y018300D01*
X004806Y018563D01*
X004605Y018765D01*
X004341Y018874D01*
X004056Y018874D01*
X003793Y018765D01*
X003707Y018679D01*
X003620Y018765D01*
X003357Y018874D01*
X003179Y018874D01*
X003179Y021205D01*
X029089Y021205D01*
X029089Y021006D01*
X028982Y021113D01*
X028798Y021189D01*
X028599Y021189D01*
X028416Y021113D01*
X028275Y020972D01*
X028199Y020789D01*
X028199Y020590D01*
X028275Y020406D01*
X028416Y020265D01*
X028599Y020189D01*
X028798Y020189D01*
X028982Y020265D01*
X029089Y020372D01*
X029089Y018506D01*
X028982Y018613D01*
X028798Y018689D01*
X028599Y018689D01*
X028416Y018613D01*
X028275Y018472D01*
X028199Y018289D01*
X028199Y018090D01*
X028232Y018009D01*
X028089Y018153D01*
X028089Y020372D01*
X028123Y020406D01*
X028199Y020590D01*
X028199Y020789D01*
X028123Y020972D01*
X027982Y021113D01*
X027798Y021189D01*
X027599Y021189D01*
X027416Y021113D01*
X027275Y020972D01*
X027199Y020789D01*
X027199Y020590D01*
X027275Y020406D01*
X027416Y020265D01*
X027589Y020194D01*
X027589Y018099D01*
X027589Y018000D01*
X027627Y017908D01*
X028213Y017322D01*
X028199Y017289D01*
X028199Y017090D01*
X028275Y016906D01*
X028416Y016765D01*
X028599Y016689D01*
X028416Y016613D01*
X028275Y016472D01*
X028199Y016289D01*
X028199Y016090D01*
X028275Y015906D01*
X028416Y015765D01*
X028599Y015689D01*
X028798Y015689D01*
X028982Y015765D01*
X029089Y015872D01*
X029089Y015469D01*
X029065Y015502D01*
X029012Y015555D01*
X028950Y015600D01*
X028883Y015634D01*
X028811Y015657D01*
X028737Y015669D01*
X028719Y015669D01*
X028719Y015210D01*
X028679Y015210D01*
X028679Y015669D01*
X028661Y015669D01*
X028586Y015657D01*
X028515Y015634D01*
X028447Y015600D01*
X028386Y015555D01*
X028333Y015502D01*
X028288Y015441D01*
X028254Y015374D01*
X028231Y015302D01*
X028219Y015227D01*
X028219Y015209D01*
X028679Y015209D01*
X028679Y015169D01*
X028719Y015169D01*
X028719Y014709D01*
X028737Y014709D01*
X028811Y014721D01*
X028883Y014744D01*
X028950Y014779D01*
X029012Y014823D01*
X029065Y014877D01*
X029089Y014910D01*
X029089Y014506D01*
X028982Y014613D01*
X028798Y014689D01*
X028599Y014689D01*
X028416Y014613D01*
X028275Y014472D01*
X028199Y014289D01*
X028199Y014090D01*
X028275Y013906D01*
X028416Y013765D01*
X028599Y013689D01*
X028416Y013613D01*
X028275Y013472D01*
X028199Y013289D01*
X028199Y013090D01*
X028275Y012906D01*
X028416Y012765D01*
X028599Y012689D01*
X028798Y012689D01*
X028982Y012765D01*
X029089Y012872D01*
X029089Y002006D01*
X028982Y002113D01*
X028798Y002189D01*
X028599Y002189D01*
X028416Y002113D01*
X028275Y001972D01*
X028199Y001789D01*
X028199Y001590D01*
X028275Y001406D01*
X028416Y001265D01*
X028599Y001189D01*
X027798Y001189D01*
X027982Y001265D01*
X028123Y001406D01*
X028199Y001590D01*
X028199Y001789D01*
X028123Y001972D01*
X027982Y002113D01*
X027798Y002189D01*
X027599Y002189D01*
X027416Y002113D01*
X027275Y001972D01*
X027199Y001789D01*
X027199Y001590D01*
X027275Y001406D01*
X027416Y001265D01*
X027599Y001189D01*
X026798Y001189D01*
X026982Y001265D01*
X027123Y001406D01*
X027199Y001590D01*
X027199Y001789D01*
X027123Y001972D01*
X026982Y002113D01*
X026798Y002189D01*
X026599Y002189D01*
X026416Y002113D01*
X026275Y001972D01*
X026199Y001789D01*
X026199Y001590D01*
X026275Y001406D01*
X026416Y001265D01*
X026599Y001189D01*
X025798Y001189D01*
X025982Y001265D01*
X026123Y001406D01*
X026199Y001590D01*
X026199Y001789D01*
X026123Y001972D01*
X025982Y002113D01*
X025798Y002189D01*
X025599Y002189D01*
X025416Y002113D01*
X025275Y001972D01*
X025199Y001789D01*
X025199Y001590D01*
X025275Y001406D01*
X025416Y001265D01*
X025599Y001189D01*
X024798Y001189D01*
X024982Y001265D01*
X025123Y001406D01*
X025199Y001590D01*
X025199Y001789D01*
X025123Y001972D01*
X024982Y002113D01*
X024798Y002189D01*
X024599Y002189D01*
X024416Y002113D01*
X024275Y001972D01*
X024199Y001789D01*
X024199Y001590D01*
X024275Y001406D01*
X024416Y001265D01*
X024599Y001189D01*
X023798Y001189D01*
X023982Y001265D01*
X024123Y001406D01*
X024199Y001590D01*
X024199Y001789D01*
X024123Y001972D01*
X023982Y002113D01*
X023798Y002189D01*
X023599Y002189D01*
X023416Y002113D01*
X023275Y001972D01*
X023199Y001789D01*
X023199Y001590D01*
X023275Y001406D01*
X023416Y001265D01*
X023599Y001189D01*
X021798Y001189D01*
X021982Y001265D01*
X022123Y001406D01*
X022199Y001590D01*
X022199Y001789D01*
X022123Y001972D01*
X021982Y002113D01*
X021798Y002189D01*
X021599Y002189D01*
X021416Y002113D01*
X021275Y001972D01*
X021199Y001789D01*
X021199Y001590D01*
X021275Y001406D01*
X021416Y001265D01*
X021599Y001189D01*
X018798Y001189D01*
X018982Y001265D01*
X019123Y001406D01*
X019199Y001590D01*
X019199Y001789D01*
X019123Y001972D01*
X018982Y002113D01*
X018798Y002189D01*
X018599Y002189D01*
X018416Y002113D01*
X018275Y001972D01*
X018199Y001789D01*
X018199Y001590D01*
X018275Y001406D01*
X018416Y001265D01*
X018599Y001189D01*
X017798Y001189D01*
X017982Y001265D01*
X018123Y001406D01*
X018199Y001590D01*
X018199Y001789D01*
X018123Y001972D01*
X017982Y002113D01*
X017798Y002189D01*
X017599Y002189D01*
X017416Y002113D01*
X017275Y001972D01*
X017199Y001789D01*
X017199Y001590D01*
X017275Y001406D01*
X017416Y001265D01*
X017599Y001189D01*
X016798Y001189D01*
X016982Y001265D01*
X017123Y001406D01*
X017199Y001590D01*
X017199Y001789D01*
X017123Y001972D01*
X016982Y002113D01*
X016798Y002189D01*
X016599Y002189D01*
X016416Y002113D01*
X016275Y001972D01*
X016199Y001789D01*
X016199Y001590D01*
X016275Y001406D01*
X016416Y001265D01*
X016599Y001189D01*
X007745Y001189D01*
X007711Y001169D02*
X007936Y001299D01*
X008159Y001522D01*
X008317Y001796D01*
X008399Y002101D01*
X008399Y002417D01*
X008317Y002722D01*
X008159Y002996D01*
X007936Y003219D01*
X007662Y003377D01*
X007357Y003459D01*
X007041Y003459D01*
X006736Y003377D01*
X006462Y003219D01*
X006239Y002996D01*
X006081Y002722D01*
X005999Y002417D01*
X005999Y002101D01*
X006081Y001796D01*
X006239Y001522D01*
X006462Y001299D01*
X006687Y001169D01*
X003179Y001169D01*
X003179Y001189D02*
X006652Y001189D01*
X006413Y001348D02*
X003179Y001348D01*
X003179Y001506D02*
X006255Y001506D01*
X006156Y001665D02*
X003179Y001665D01*
X003179Y001823D02*
X006073Y001823D01*
X006031Y001982D02*
X003179Y001982D01*
X003179Y002141D02*
X005999Y002141D01*
X005999Y002299D02*
X003179Y002299D01*
X003179Y002458D02*
X006010Y002458D01*
X006052Y002616D02*
X003179Y002616D01*
X003179Y002775D02*
X006111Y002775D01*
X006202Y002933D02*
X003179Y002933D01*
X003179Y003092D02*
X006334Y003092D01*
X006516Y003250D02*
X003179Y003250D01*
X003179Y003409D02*
X006853Y003409D01*
X007545Y003409D02*
X010006Y003409D01*
X010127Y003288D02*
X010197Y003217D01*
X010289Y003179D01*
X019489Y003179D01*
X019589Y003179D01*
X019680Y003217D01*
X020160Y003697D01*
X020231Y003768D01*
X020269Y003860D01*
X020269Y004939D01*
X027589Y004939D01*
X027680Y004977D01*
X027751Y005048D01*
X028132Y005429D01*
X028258Y005429D01*
X028405Y005490D01*
X028518Y005603D01*
X028579Y005750D01*
X028579Y005909D01*
X028518Y006056D01*
X028429Y006145D01*
X028429Y012500D01*
X028429Y012599D01*
X028391Y012691D01*
X020567Y020514D01*
X020599Y020590D01*
X020599Y020789D01*
X020523Y020972D01*
X020382Y021113D01*
X020198Y021189D01*
X019999Y021189D01*
X019816Y021113D01*
X019675Y020972D01*
X019599Y020789D01*
X019599Y020590D01*
X019675Y020406D01*
X019816Y020265D01*
X019999Y020189D01*
X020185Y020189D01*
X027929Y012446D01*
X025789Y012446D01*
X025789Y012604D02*
X027770Y012604D01*
X027929Y012446D02*
X027929Y006145D01*
X027840Y006056D01*
X027779Y005909D01*
X027779Y005783D01*
X027435Y005439D01*
X020069Y005439D01*
X019969Y005439D01*
X019636Y005439D01*
X019623Y005472D01*
X019482Y005613D01*
X019298Y005689D01*
X019099Y005689D01*
X018916Y005613D01*
X018775Y005472D01*
X018699Y005289D01*
X018699Y005090D01*
X018775Y004906D01*
X018916Y004765D01*
X019099Y004689D01*
X018916Y004613D01*
X018775Y004472D01*
X018699Y004289D01*
X018699Y004090D01*
X018775Y003906D01*
X018916Y003765D01*
X019099Y003689D01*
X019298Y003689D01*
X019482Y003765D01*
X019623Y003906D01*
X019699Y004090D01*
X019699Y004289D01*
X019623Y004472D01*
X019482Y004613D01*
X019298Y004689D01*
X019099Y004689D01*
X019298Y004689D01*
X019482Y004765D01*
X019623Y004906D01*
X019636Y004939D01*
X019769Y004939D01*
X019769Y004013D01*
X019435Y003679D01*
X010442Y003679D01*
X008199Y005923D01*
X008199Y006316D01*
X007906Y006609D01*
X007492Y006609D01*
X007199Y006316D01*
X007199Y005902D01*
X007492Y005609D01*
X007805Y005609D01*
X007885Y005529D01*
X007492Y005529D01*
X007199Y005236D01*
X007199Y004822D01*
X007492Y004529D01*
X007906Y004529D01*
X008199Y004822D01*
X008199Y005216D01*
X010127Y003288D01*
X010164Y003250D02*
X007882Y003250D01*
X008063Y003092D02*
X029089Y003092D01*
X029089Y003250D02*
X019713Y003250D01*
X019872Y003409D02*
X029089Y003409D01*
X029089Y003567D02*
X020031Y003567D01*
X020189Y003726D02*
X021011Y003726D01*
X021099Y003689D02*
X021298Y003689D01*
X021482Y003765D01*
X021623Y003906D01*
X021699Y004090D01*
X021699Y004289D01*
X021623Y004472D01*
X021482Y004613D01*
X021298Y004689D01*
X021099Y004689D01*
X020916Y004613D01*
X020775Y004472D01*
X020699Y004289D01*
X020699Y004090D01*
X020775Y003906D01*
X020916Y003765D01*
X021099Y003689D01*
X021387Y003726D02*
X029089Y003726D01*
X029089Y003885D02*
X021601Y003885D01*
X021679Y004043D02*
X029089Y004043D01*
X029089Y004202D02*
X021699Y004202D01*
X021669Y004360D02*
X029089Y004360D01*
X029089Y004519D02*
X021577Y004519D01*
X021327Y004677D02*
X029089Y004677D01*
X029089Y004836D02*
X020269Y004836D01*
X020269Y004677D02*
X021070Y004677D01*
X020821Y004519D02*
X020269Y004519D01*
X020269Y004360D02*
X020729Y004360D01*
X020699Y004202D02*
X020269Y004202D01*
X020269Y004043D02*
X020718Y004043D01*
X020797Y003885D02*
X020269Y003885D01*
X019769Y004043D02*
X019679Y004043D01*
X019699Y004202D02*
X019769Y004202D01*
X019769Y004360D02*
X019669Y004360D01*
X019577Y004519D02*
X019769Y004519D01*
X019769Y004677D02*
X019327Y004677D01*
X019070Y004677D02*
X018327Y004677D01*
X018298Y004689D02*
X018099Y004689D01*
X017916Y004613D01*
X017775Y004472D01*
X017699Y004289D01*
X017699Y004090D01*
X017775Y003906D01*
X017916Y003765D01*
X018099Y003689D01*
X018298Y003689D01*
X018482Y003765D01*
X018623Y003906D01*
X018699Y004090D01*
X018699Y004289D01*
X018623Y004472D01*
X018482Y004613D01*
X018298Y004689D01*
X018311Y004721D02*
X018383Y004744D01*
X018450Y004779D01*
X018512Y004823D01*
X018565Y004877D01*
X018609Y004938D01*
X018644Y005005D01*
X018667Y005077D01*
X018679Y005151D01*
X018679Y005169D01*
X018219Y005169D01*
X018219Y004709D01*
X018237Y004709D01*
X018311Y004721D01*
X018179Y004709D02*
X018179Y005169D01*
X018219Y005169D01*
X018219Y005209D01*
X018679Y005209D01*
X018679Y005227D01*
X018667Y005302D01*
X018644Y005374D01*
X018609Y005441D01*
X018565Y005502D01*
X018512Y005555D01*
X018450Y005600D01*
X018383Y005634D01*
X018311Y005657D01*
X018237Y005669D01*
X018219Y005669D01*
X018219Y005210D01*
X018179Y005210D01*
X018179Y005669D01*
X018161Y005669D01*
X018086Y005657D01*
X018015Y005634D01*
X017947Y005600D01*
X017886Y005555D01*
X017833Y005502D01*
X017788Y005441D01*
X017754Y005374D01*
X017731Y005302D01*
X017719Y005227D01*
X017719Y005209D01*
X018179Y005209D01*
X018179Y005169D01*
X017719Y005169D01*
X017719Y005151D01*
X017731Y005077D01*
X017754Y005005D01*
X017788Y004938D01*
X017833Y004877D01*
X017886Y004823D01*
X017947Y004779D01*
X018015Y004744D01*
X018086Y004721D01*
X018161Y004709D01*
X018179Y004709D01*
X018070Y004677D02*
X009444Y004677D01*
X009286Y004836D02*
X017874Y004836D01*
X017759Y004994D02*
X009127Y004994D01*
X008969Y005153D02*
X017719Y005153D01*
X017734Y005311D02*
X008810Y005311D01*
X008652Y005470D02*
X017810Y005470D01*
X018004Y005629D02*
X008493Y005629D01*
X008335Y005787D02*
X017894Y005787D01*
X017916Y005765D02*
X018099Y005689D01*
X018298Y005689D01*
X018482Y005765D01*
X018623Y005906D01*
X018687Y006060D01*
X018689Y006059D01*
X018712Y006059D01*
X018775Y005906D01*
X018916Y005765D01*
X019099Y005689D01*
X019298Y005689D01*
X019482Y005765D01*
X019516Y005799D01*
X019569Y005799D01*
X025489Y005799D01*
X025589Y005799D01*
X026323Y005799D01*
X026380Y005663D01*
X026492Y005550D01*
X026639Y005489D01*
X026798Y005489D01*
X026945Y005550D01*
X027058Y005663D01*
X027119Y005810D01*
X027119Y005969D01*
X027058Y006116D01*
X026945Y006228D01*
X026798Y006289D01*
X026639Y006289D01*
X026636Y006288D01*
X026609Y006299D01*
X026509Y006299D01*
X025789Y006299D01*
X025789Y012999D01*
X025751Y013091D01*
X025680Y013161D01*
X019389Y019453D01*
X019389Y020272D01*
X019523Y020406D01*
X019599Y020590D01*
X019599Y020789D01*
X019523Y020972D01*
X019382Y021113D01*
X019198Y021189D01*
X018999Y021189D01*
X018816Y021113D01*
X018675Y020972D01*
X018599Y020789D01*
X018599Y020590D01*
X018675Y020406D01*
X018816Y020265D01*
X018889Y020235D01*
X018889Y019399D01*
X018889Y019300D01*
X018927Y019208D01*
X025289Y012846D01*
X025289Y006299D01*
X025250Y006299D01*
X025279Y006370D01*
X025279Y006529D01*
X025218Y006676D01*
X025105Y006788D01*
X024958Y006849D01*
X024832Y006849D01*
X024371Y007311D01*
X024300Y007381D01*
X024209Y007419D01*
X019645Y007419D01*
X019623Y007472D01*
X019482Y007613D01*
X019298Y007689D01*
X019099Y007689D01*
X018916Y007613D01*
X018902Y007599D01*
X018849Y007599D01*
X018762Y007599D01*
X018539Y007822D01*
X018623Y007906D01*
X018699Y008090D01*
X018775Y007906D01*
X018916Y007765D01*
X019099Y007689D01*
X019298Y007689D01*
X019482Y007765D01*
X019516Y007799D01*
X019569Y007799D01*
X021923Y007799D01*
X022012Y007710D01*
X022159Y007649D01*
X022318Y007649D01*
X022465Y007710D01*
X022578Y007823D01*
X022639Y007970D01*
X022639Y008129D01*
X022578Y008276D01*
X022465Y008388D01*
X022318Y008449D01*
X022159Y008449D01*
X022012Y008388D01*
X021923Y008299D01*
X019694Y008299D01*
X019623Y008472D01*
X019482Y008613D01*
X019298Y008689D01*
X019272Y008689D01*
X018800Y009161D01*
X018709Y009199D01*
X018609Y009199D01*
X017389Y009199D01*
X017389Y020272D01*
X017523Y020406D01*
X017599Y020590D01*
X017675Y020406D01*
X017816Y020265D01*
X017999Y020189D01*
X018198Y020189D01*
X018382Y020265D01*
X018523Y020406D01*
X018599Y020590D01*
X018599Y020789D01*
X018523Y020972D01*
X018382Y021113D01*
X018198Y021189D01*
X017999Y021189D01*
X017816Y021113D01*
X017675Y020972D01*
X017599Y020789D01*
X017599Y020590D01*
X017599Y020789D01*
X017523Y020972D01*
X017382Y021113D01*
X017198Y021189D01*
X016999Y021189D01*
X016816Y021113D01*
X016675Y020972D01*
X016599Y020789D01*
X016599Y020590D01*
X016675Y020406D01*
X016816Y020265D01*
X016889Y020235D01*
X016889Y009199D01*
X008202Y009199D01*
X008199Y009203D01*
X008199Y009556D01*
X007906Y009849D01*
X007492Y009849D01*
X007199Y009556D01*
X007199Y009142D01*
X007492Y008849D01*
X007845Y008849D01*
X007887Y008808D01*
X007957Y008737D01*
X008049Y008699D01*
X017089Y008699D01*
X017189Y008699D01*
X018555Y008699D01*
X018779Y008476D01*
X018775Y008472D01*
X018699Y008289D01*
X018699Y008090D01*
X018699Y008289D01*
X018623Y008472D01*
X018482Y008613D01*
X018298Y008689D01*
X018099Y008689D01*
X017916Y008613D01*
X017775Y008472D01*
X017699Y008289D01*
X017699Y008090D01*
X017770Y007919D01*
X017722Y007919D01*
X017280Y008361D01*
X017189Y008399D01*
X017089Y008399D01*
X008199Y008399D01*
X008199Y008476D01*
X007906Y008769D01*
X007492Y008769D01*
X007199Y008476D01*
X007199Y008062D01*
X007492Y007769D01*
X007906Y007769D01*
X008036Y007899D01*
X017035Y007899D01*
X017407Y007528D01*
X017477Y007457D01*
X017569Y007419D01*
X017753Y007419D01*
X017699Y007289D01*
X017699Y007090D01*
X017775Y006906D01*
X017802Y006879D01*
X017489Y006879D01*
X017397Y006841D01*
X017327Y006771D01*
X017035Y006479D01*
X008762Y006479D01*
X008199Y007043D01*
X008199Y007396D01*
X007906Y007689D01*
X007492Y007689D01*
X007199Y007396D01*
X007199Y006982D01*
X007492Y006689D01*
X007845Y006689D01*
X008447Y006088D01*
X008517Y006017D01*
X008609Y005979D01*
X017089Y005979D01*
X017189Y005979D01*
X017280Y006017D01*
X017642Y006379D01*
X017736Y006379D01*
X017699Y006289D01*
X017699Y006090D01*
X017775Y005906D01*
X017916Y005765D01*
X017759Y005946D02*
X008199Y005946D01*
X008199Y006104D02*
X008431Y006104D01*
X008272Y006263D02*
X008199Y006263D01*
X008113Y006421D02*
X008094Y006421D01*
X007955Y006580D02*
X007935Y006580D01*
X007462Y006580D02*
X007179Y006580D01*
X007179Y006629D02*
X006719Y006629D01*
X006719Y006169D01*
X006898Y006169D01*
X007179Y006450D01*
X007179Y006629D01*
X007179Y006669D02*
X006719Y006669D01*
X006719Y006629D01*
X006679Y006629D01*
X006679Y006169D01*
X006500Y006169D01*
X006219Y006450D01*
X006219Y006629D01*
X006679Y006629D01*
X006679Y006669D01*
X006219Y006669D01*
X006219Y006848D01*
X006500Y007129D01*
X006679Y007129D01*
X006679Y006670D01*
X006719Y006670D01*
X006719Y007129D01*
X006898Y007129D01*
X007179Y006848D01*
X007179Y006669D01*
X007179Y006738D02*
X007443Y006738D01*
X007284Y006897D02*
X007130Y006897D01*
X007199Y007055D02*
X006972Y007055D01*
X006906Y007229D02*
X007199Y007522D01*
X007199Y007936D01*
X006906Y008229D01*
X006492Y008229D01*
X006199Y007936D01*
X006199Y007522D01*
X006492Y007229D01*
X006906Y007229D01*
X007049Y007372D02*
X007199Y007372D01*
X007199Y007214D02*
X003179Y007214D01*
X003179Y007372D02*
X006349Y007372D01*
X006199Y007531D02*
X003179Y007531D01*
X003179Y007690D02*
X006199Y007690D01*
X006199Y007848D02*
X003179Y007848D01*
X003179Y008007D02*
X006269Y008007D01*
X006428Y008165D02*
X003179Y008165D01*
X003179Y008324D02*
X006477Y008324D01*
X006492Y008309D02*
X006906Y008309D01*
X007199Y008602D01*
X007199Y009016D01*
X006906Y009309D01*
X006492Y009309D01*
X006199Y009016D01*
X006199Y008602D01*
X006492Y008309D01*
X006319Y008482D02*
X003179Y008482D01*
X003179Y008641D02*
X006199Y008641D01*
X006199Y008799D02*
X003179Y008799D01*
X003179Y008958D02*
X006199Y008958D01*
X006299Y009116D02*
X003179Y009116D01*
X003179Y009275D02*
X006458Y009275D01*
X006940Y009275D02*
X007199Y009275D01*
X007199Y009434D02*
X003179Y009434D01*
X003179Y009592D02*
X007235Y009592D01*
X007393Y009751D02*
X003179Y009751D01*
X003179Y009909D02*
X016889Y009909D01*
X016889Y009751D02*
X008005Y009751D01*
X008163Y009592D02*
X016889Y009592D01*
X016889Y009434D02*
X008199Y009434D01*
X008199Y009275D02*
X016889Y009275D01*
X017389Y009275D02*
X025289Y009275D01*
X025289Y009116D02*
X018845Y009116D01*
X019004Y008958D02*
X025289Y008958D01*
X025289Y008799D02*
X019162Y008799D01*
X019415Y008641D02*
X025289Y008641D01*
X025289Y008482D02*
X019613Y008482D01*
X019684Y008324D02*
X021948Y008324D01*
X022530Y008324D02*
X025289Y008324D01*
X025289Y008165D02*
X022624Y008165D01*
X022639Y008007D02*
X025289Y008007D01*
X025289Y007848D02*
X022588Y007848D01*
X022416Y007690D02*
X025289Y007690D01*
X025289Y007531D02*
X019564Y007531D01*
X019299Y007690D02*
X022062Y007690D01*
X024309Y007372D02*
X025289Y007372D01*
X025289Y007214D02*
X024468Y007214D01*
X024626Y007055D02*
X025289Y007055D01*
X025289Y006897D02*
X024785Y006897D01*
X025156Y006738D02*
X025289Y006738D01*
X025289Y006580D02*
X025258Y006580D01*
X025279Y006421D02*
X025289Y006421D01*
X025789Y006421D02*
X027929Y006421D01*
X027929Y006263D02*
X026863Y006263D01*
X027063Y006104D02*
X027888Y006104D01*
X027794Y005946D02*
X027119Y005946D01*
X027109Y005787D02*
X027779Y005787D01*
X027625Y005629D02*
X027024Y005629D01*
X027466Y005470D02*
X019624Y005470D01*
X019445Y005629D02*
X026414Y005629D01*
X026328Y005787D02*
X019504Y005787D01*
X018953Y005629D02*
X018394Y005629D01*
X018219Y005629D02*
X018179Y005629D01*
X018179Y005470D02*
X018219Y005470D01*
X018219Y005311D02*
X018179Y005311D01*
X018179Y005153D02*
X018219Y005153D01*
X018219Y004994D02*
X018179Y004994D01*
X018179Y004836D02*
X018219Y004836D01*
X018524Y004836D02*
X018845Y004836D01*
X018738Y004994D02*
X018638Y004994D01*
X018679Y005153D02*
X018699Y005153D01*
X018708Y005311D02*
X018664Y005311D01*
X018588Y005470D02*
X018774Y005470D01*
X018894Y005787D02*
X018504Y005787D01*
X018639Y005946D02*
X018759Y005946D01*
X017699Y006104D02*
X017367Y006104D01*
X017526Y006263D02*
X017699Y006263D01*
X017294Y006738D02*
X016254Y006738D01*
X016338Y006823D02*
X016156Y006641D01*
X015918Y006542D01*
X015661Y006542D01*
X015423Y006641D01*
X015241Y006823D01*
X015199Y006924D01*
X015157Y006823D01*
X014975Y006641D01*
X014737Y006542D01*
X014480Y006542D01*
X014242Y006641D01*
X014060Y006823D01*
X013961Y007061D01*
X013961Y007318D01*
X014060Y007556D01*
X014242Y007738D01*
X014480Y007837D01*
X014737Y007837D01*
X014975Y007738D01*
X015157Y007556D01*
X015199Y007455D01*
X015241Y007556D01*
X015423Y007738D01*
X015661Y007837D01*
X015918Y007837D01*
X016156Y007738D01*
X016338Y007556D01*
X016437Y007318D01*
X016437Y007061D01*
X016338Y006823D01*
X016369Y006897D02*
X017784Y006897D01*
X017713Y007055D02*
X016435Y007055D01*
X016437Y007214D02*
X017699Y007214D01*
X017734Y007372D02*
X016414Y007372D01*
X016349Y007531D02*
X017404Y007531D01*
X017245Y007690D02*
X016205Y007690D01*
X015374Y007690D02*
X015023Y007690D01*
X015167Y007531D02*
X015230Y007531D01*
X015210Y006897D02*
X015188Y006897D01*
X015073Y006738D02*
X015325Y006738D01*
X015569Y006580D02*
X014828Y006580D01*
X014388Y006580D02*
X008662Y006580D01*
X008503Y006738D02*
X014144Y006738D01*
X014029Y006897D02*
X008345Y006897D01*
X008199Y007055D02*
X013963Y007055D01*
X013961Y007214D02*
X008199Y007214D01*
X008199Y007372D02*
X013984Y007372D01*
X014049Y007531D02*
X008064Y007531D01*
X007985Y007848D02*
X017087Y007848D01*
X017476Y008165D02*
X017699Y008165D01*
X017713Y008324D02*
X017318Y008324D01*
X017635Y008007D02*
X017733Y008007D01*
X017785Y008482D02*
X008193Y008482D01*
X008034Y008641D02*
X017983Y008641D01*
X018415Y008641D02*
X018614Y008641D01*
X018613Y008482D02*
X018772Y008482D01*
X018713Y008324D02*
X018684Y008324D01*
X018699Y008165D02*
X018699Y008165D01*
X018664Y008007D02*
X018733Y008007D01*
X018833Y007848D02*
X018565Y007848D01*
X018672Y007690D02*
X019099Y007690D01*
X017136Y006580D02*
X016009Y006580D01*
X014193Y007690D02*
X007199Y007690D01*
X007199Y007848D02*
X007413Y007848D01*
X007254Y008007D02*
X007129Y008007D01*
X007199Y008165D02*
X006970Y008165D01*
X006920Y008324D02*
X007199Y008324D01*
X007205Y008482D02*
X007079Y008482D01*
X007199Y008641D02*
X007363Y008641D01*
X007199Y008799D02*
X007895Y008799D01*
X007383Y008958D02*
X007199Y008958D01*
X007225Y009116D02*
X007099Y009116D01*
X007199Y007531D02*
X007334Y007531D01*
X006719Y007055D02*
X006679Y007055D01*
X006679Y006897D02*
X006719Y006897D01*
X006719Y006738D02*
X006679Y006738D01*
X006679Y006580D02*
X006719Y006580D01*
X006719Y006421D02*
X006679Y006421D01*
X006679Y006263D02*
X006719Y006263D01*
X006906Y006069D02*
X006492Y006069D01*
X006199Y005776D01*
X006199Y005362D01*
X006492Y005069D01*
X006906Y005069D01*
X007199Y005362D01*
X007199Y005776D01*
X006906Y006069D01*
X007030Y005946D02*
X007199Y005946D01*
X007199Y006104D02*
X003179Y006104D01*
X003179Y005946D02*
X006368Y005946D01*
X006210Y005787D02*
X003179Y005787D01*
X003179Y005629D02*
X006199Y005629D01*
X006199Y005470D02*
X003179Y005470D01*
X003179Y005311D02*
X006250Y005311D01*
X006408Y005153D02*
X003179Y005153D01*
X003179Y004994D02*
X007199Y004994D01*
X007199Y004836D02*
X003179Y004836D01*
X003179Y004677D02*
X007344Y004677D01*
X007199Y005153D02*
X006990Y005153D01*
X007148Y005311D02*
X007274Y005311D01*
X007199Y005470D02*
X007432Y005470D01*
X007473Y005629D02*
X007199Y005629D01*
X007188Y005787D02*
X007314Y005787D01*
X007199Y006263D02*
X006991Y006263D01*
X007150Y006421D02*
X007304Y006421D01*
X006407Y006263D02*
X003179Y006263D01*
X003179Y006421D02*
X006248Y006421D01*
X006219Y006580D02*
X003179Y006580D01*
X003179Y006738D02*
X006219Y006738D01*
X006268Y006897D02*
X003179Y006897D01*
X003179Y007055D02*
X006426Y007055D01*
X008199Y005153D02*
X008262Y005153D01*
X008199Y004994D02*
X008420Y004994D01*
X008579Y004836D02*
X008199Y004836D01*
X008054Y004677D02*
X008737Y004677D01*
X008896Y004519D02*
X003179Y004519D01*
X003179Y004360D02*
X009054Y004360D01*
X009213Y004202D02*
X003179Y004202D01*
X003179Y004043D02*
X009372Y004043D01*
X009530Y003885D02*
X003179Y003885D01*
X003179Y003726D02*
X009689Y003726D01*
X009847Y003567D02*
X003179Y003567D01*
X007711Y001169D02*
X029089Y001169D01*
X029089Y001372D01*
X028982Y001265D01*
X028798Y001189D01*
X029089Y001189D01*
X029089Y001348D02*
X029064Y001348D01*
X028798Y001189D02*
X028599Y001189D01*
X028333Y001348D02*
X028065Y001348D01*
X028164Y001506D02*
X028233Y001506D01*
X028199Y001665D02*
X028199Y001665D01*
X028184Y001823D02*
X028213Y001823D01*
X028285Y001982D02*
X028113Y001982D01*
X027916Y002141D02*
X028482Y002141D01*
X028916Y002141D02*
X029089Y002141D01*
X029089Y002299D02*
X008399Y002299D01*
X008399Y002141D02*
X016482Y002141D01*
X016285Y001982D02*
X008367Y001982D01*
X008324Y001823D02*
X016213Y001823D01*
X016199Y001665D02*
X008241Y001665D01*
X008143Y001506D02*
X016233Y001506D01*
X016333Y001348D02*
X007984Y001348D01*
X008388Y002458D02*
X029089Y002458D01*
X029089Y002616D02*
X008346Y002616D01*
X008287Y002775D02*
X029089Y002775D01*
X029089Y002933D02*
X008195Y002933D01*
X009920Y004202D02*
X017699Y004202D01*
X017718Y004043D02*
X010079Y004043D01*
X010237Y003885D02*
X017797Y003885D01*
X018011Y003726D02*
X010396Y003726D01*
X009761Y004360D02*
X017729Y004360D01*
X017821Y004519D02*
X009603Y004519D01*
X016599Y001189D02*
X016798Y001189D01*
X017065Y001348D02*
X017333Y001348D01*
X017233Y001506D02*
X017164Y001506D01*
X017199Y001665D02*
X017199Y001665D01*
X017184Y001823D02*
X017213Y001823D01*
X017285Y001982D02*
X017113Y001982D01*
X016916Y002141D02*
X017482Y002141D01*
X017916Y002141D02*
X018482Y002141D01*
X018285Y001982D02*
X018113Y001982D01*
X018184Y001823D02*
X018213Y001823D01*
X018199Y001665D02*
X018199Y001665D01*
X018164Y001506D02*
X018233Y001506D01*
X018333Y001348D02*
X018065Y001348D01*
X017798Y001189D02*
X017599Y001189D01*
X018599Y001189D02*
X018798Y001189D01*
X019065Y001348D02*
X019361Y001348D01*
X019386Y001323D02*
X019333Y001377D01*
X019288Y001438D01*
X019254Y001505D01*
X019231Y001577D01*
X019219Y001651D01*
X019219Y001669D01*
X019679Y001669D01*
X019719Y001669D01*
X019719Y001209D01*
X019737Y001209D01*
X019811Y001221D01*
X019883Y001244D01*
X019950Y001279D01*
X020012Y001323D01*
X020065Y001377D01*
X020109Y001438D01*
X020144Y001505D01*
X020167Y001577D01*
X020179Y001651D01*
X020179Y001669D01*
X019719Y001669D01*
X019719Y001709D01*
X020179Y001709D01*
X020179Y001727D01*
X020167Y001802D01*
X020144Y001874D01*
X020109Y001941D01*
X020065Y002002D01*
X020012Y002055D01*
X019950Y002100D01*
X019883Y002134D01*
X019811Y002157D01*
X019737Y002169D01*
X019719Y002169D01*
X019719Y001710D01*
X019679Y001710D01*
X019679Y002169D01*
X019661Y002169D01*
X019586Y002157D01*
X019515Y002134D01*
X019447Y002100D01*
X019386Y002055D01*
X019333Y002002D01*
X019288Y001941D01*
X019254Y001874D01*
X019231Y001802D01*
X019219Y001727D01*
X019219Y001709D01*
X019679Y001709D01*
X019679Y001669D01*
X019679Y001209D01*
X019661Y001209D01*
X019586Y001221D01*
X019515Y001244D01*
X019447Y001279D01*
X019386Y001323D01*
X019254Y001506D02*
X019164Y001506D01*
X019199Y001665D02*
X019219Y001665D01*
X019238Y001823D02*
X019184Y001823D01*
X019113Y001982D02*
X019318Y001982D01*
X019534Y002141D02*
X018916Y002141D01*
X019679Y002141D02*
X019719Y002141D01*
X019863Y002141D02*
X020534Y002141D01*
X020515Y002134D02*
X020447Y002100D01*
X020386Y002055D01*
X020333Y002002D01*
X020288Y001941D01*
X020254Y001874D01*
X020231Y001802D01*
X020219Y001727D01*
X020219Y001709D01*
X020679Y001709D01*
X020679Y001669D01*
X020719Y001669D01*
X020719Y001209D01*
X020737Y001209D01*
X020811Y001221D01*
X020883Y001244D01*
X020950Y001279D01*
X021012Y001323D01*
X021065Y001377D01*
X021109Y001438D01*
X021144Y001505D01*
X021167Y001577D01*
X021179Y001651D01*
X021179Y001669D01*
X020719Y001669D01*
X020719Y001709D01*
X021179Y001709D01*
X021179Y001727D01*
X021167Y001802D01*
X021144Y001874D01*
X021109Y001941D01*
X021065Y002002D01*
X021012Y002055D01*
X020950Y002100D01*
X020883Y002134D01*
X020811Y002157D01*
X020737Y002169D01*
X020719Y002169D01*
X020719Y001710D01*
X020679Y001710D01*
X020679Y002169D01*
X020661Y002169D01*
X020586Y002157D01*
X020515Y002134D01*
X020679Y002141D02*
X020719Y002141D01*
X020863Y002141D02*
X021482Y002141D01*
X021285Y001982D02*
X021080Y001982D01*
X021160Y001823D02*
X021213Y001823D01*
X021199Y001665D02*
X021179Y001665D01*
X021144Y001506D02*
X021233Y001506D01*
X021333Y001348D02*
X021036Y001348D01*
X020719Y001348D02*
X020679Y001348D01*
X020679Y001209D02*
X020679Y001669D01*
X020219Y001669D01*
X020219Y001651D01*
X020231Y001577D01*
X020254Y001505D01*
X020288Y001438D01*
X020333Y001377D01*
X020386Y001323D01*
X020447Y001279D01*
X020515Y001244D01*
X020586Y001221D01*
X020661Y001209D01*
X020679Y001209D01*
X020679Y001506D02*
X020719Y001506D01*
X020719Y001665D02*
X020679Y001665D01*
X020679Y001823D02*
X020719Y001823D01*
X020719Y001982D02*
X020679Y001982D01*
X020318Y001982D02*
X020080Y001982D01*
X020160Y001823D02*
X020238Y001823D01*
X020219Y001665D02*
X020179Y001665D01*
X020144Y001506D02*
X020254Y001506D01*
X020361Y001348D02*
X020036Y001348D01*
X019719Y001348D02*
X019679Y001348D01*
X019679Y001506D02*
X019719Y001506D01*
X019719Y001665D02*
X019679Y001665D01*
X019679Y001823D02*
X019719Y001823D01*
X019719Y001982D02*
X019679Y001982D01*
X021599Y001189D02*
X021798Y001189D01*
X022065Y001348D02*
X023333Y001348D01*
X023233Y001506D02*
X022164Y001506D01*
X022199Y001665D02*
X023199Y001665D01*
X023213Y001823D02*
X022184Y001823D01*
X022113Y001982D02*
X023285Y001982D01*
X023482Y002141D02*
X021916Y002141D01*
X023599Y001189D02*
X023798Y001189D01*
X024065Y001348D02*
X024333Y001348D01*
X024233Y001506D02*
X024164Y001506D01*
X024199Y001665D02*
X024199Y001665D01*
X024184Y001823D02*
X024213Y001823D01*
X024285Y001982D02*
X024113Y001982D01*
X023916Y002141D02*
X024482Y002141D01*
X024916Y002141D02*
X025482Y002141D01*
X025285Y001982D02*
X025113Y001982D01*
X025184Y001823D02*
X025213Y001823D01*
X025199Y001665D02*
X025199Y001665D01*
X025164Y001506D02*
X025233Y001506D01*
X025333Y001348D02*
X025065Y001348D01*
X024798Y001189D02*
X024599Y001189D01*
X025599Y001189D02*
X025798Y001189D01*
X026065Y001348D02*
X026333Y001348D01*
X026233Y001506D02*
X026164Y001506D01*
X026199Y001665D02*
X026199Y001665D01*
X026184Y001823D02*
X026213Y001823D01*
X026285Y001982D02*
X026113Y001982D01*
X025916Y002141D02*
X026482Y002141D01*
X026916Y002141D02*
X027482Y002141D01*
X027285Y001982D02*
X027113Y001982D01*
X027184Y001823D02*
X027213Y001823D01*
X027199Y001665D02*
X027199Y001665D01*
X027164Y001506D02*
X027233Y001506D01*
X027333Y001348D02*
X027065Y001348D01*
X026798Y001189D02*
X026599Y001189D01*
X027599Y001189D02*
X027798Y001189D01*
X027697Y004994D02*
X029089Y004994D01*
X029089Y005153D02*
X027856Y005153D01*
X028015Y005311D02*
X029089Y005311D01*
X029089Y005470D02*
X028357Y005470D01*
X028529Y005629D02*
X029089Y005629D01*
X029089Y005787D02*
X028579Y005787D01*
X028564Y005946D02*
X029089Y005946D01*
X029089Y006104D02*
X028470Y006104D01*
X028429Y006263D02*
X029089Y006263D01*
X029089Y006421D02*
X028429Y006421D01*
X028429Y006580D02*
X029089Y006580D01*
X029089Y006738D02*
X028429Y006738D01*
X028429Y006897D02*
X029089Y006897D01*
X029089Y007055D02*
X028429Y007055D01*
X028429Y007214D02*
X029089Y007214D01*
X029089Y007372D02*
X028429Y007372D01*
X028429Y007531D02*
X029089Y007531D01*
X029089Y007690D02*
X028429Y007690D01*
X028429Y007848D02*
X029089Y007848D01*
X029089Y008007D02*
X028429Y008007D01*
X028429Y008165D02*
X029089Y008165D01*
X029089Y008324D02*
X028429Y008324D01*
X028429Y008482D02*
X029089Y008482D01*
X029089Y008641D02*
X028429Y008641D01*
X028429Y008799D02*
X029089Y008799D01*
X029089Y008958D02*
X028429Y008958D01*
X028429Y009116D02*
X029089Y009116D01*
X029089Y009275D02*
X028429Y009275D01*
X028429Y009434D02*
X029089Y009434D01*
X029089Y009592D02*
X028429Y009592D01*
X028429Y009751D02*
X029089Y009751D01*
X029089Y009909D02*
X028429Y009909D01*
X028429Y010068D02*
X029089Y010068D01*
X029089Y010226D02*
X028429Y010226D01*
X028429Y010385D02*
X029089Y010385D01*
X029089Y010543D02*
X028429Y010543D01*
X028429Y010702D02*
X029089Y010702D01*
X029089Y010860D02*
X028429Y010860D01*
X028429Y011019D02*
X029089Y011019D01*
X029089Y011178D02*
X028429Y011178D01*
X028429Y011336D02*
X029089Y011336D01*
X029089Y011495D02*
X028429Y011495D01*
X028429Y011653D02*
X029089Y011653D01*
X029089Y011812D02*
X028429Y011812D01*
X028429Y011970D02*
X029089Y011970D01*
X029089Y012129D02*
X028429Y012129D01*
X028429Y012287D02*
X029089Y012287D01*
X029089Y012446D02*
X028429Y012446D01*
X028427Y012604D02*
X029089Y012604D01*
X029089Y012763D02*
X028976Y012763D01*
X028422Y012763D02*
X028319Y012763D01*
X028269Y012921D02*
X028160Y012921D01*
X028203Y013080D02*
X028002Y013080D01*
X027843Y013239D02*
X028199Y013239D01*
X028244Y013397D02*
X027685Y013397D01*
X027526Y013556D02*
X028358Y013556D01*
X028539Y013714D02*
X027367Y013714D01*
X027209Y013873D02*
X028308Y013873D01*
X028223Y014031D02*
X027050Y014031D01*
X026892Y014190D02*
X028199Y014190D01*
X028224Y014348D02*
X026733Y014348D01*
X026575Y014507D02*
X028309Y014507D01*
X028542Y014665D02*
X026416Y014665D01*
X026258Y014824D02*
X028385Y014824D01*
X028386Y014823D02*
X028447Y014779D01*
X028515Y014744D01*
X028586Y014721D01*
X028661Y014709D01*
X028679Y014709D01*
X028679Y015169D01*
X028219Y015169D01*
X028219Y015151D01*
X028231Y015077D01*
X028254Y015005D01*
X028288Y014938D01*
X028333Y014877D01*
X028386Y014823D01*
X028265Y014983D02*
X026099Y014983D01*
X025941Y015141D02*
X028221Y015141D01*
X028230Y015300D02*
X025782Y015300D01*
X025623Y015458D02*
X028301Y015458D01*
X028481Y015617D02*
X025465Y015617D01*
X025306Y015775D02*
X028406Y015775D01*
X028263Y015934D02*
X025148Y015934D01*
X024989Y016092D02*
X028199Y016092D01*
X028199Y016251D02*
X024831Y016251D01*
X024672Y016409D02*
X028249Y016409D01*
X028371Y016568D02*
X024514Y016568D01*
X024355Y016727D02*
X028509Y016727D01*
X028599Y016689D02*
X028798Y016689D01*
X028599Y016689D01*
X028798Y016689D02*
X028982Y016613D01*
X029089Y016506D01*
X029089Y016872D01*
X028982Y016765D01*
X028798Y016689D01*
X028888Y016727D02*
X029089Y016727D01*
X029089Y016568D02*
X029027Y016568D01*
X028296Y016885D02*
X024197Y016885D01*
X024038Y017044D02*
X028218Y017044D01*
X028199Y017202D02*
X023879Y017202D01*
X023721Y017361D02*
X028174Y017361D01*
X028015Y017519D02*
X023562Y017519D01*
X023404Y017678D02*
X027857Y017678D01*
X027698Y017836D02*
X023245Y017836D01*
X023087Y017995D02*
X027591Y017995D01*
X027589Y018153D02*
X022928Y018153D01*
X022770Y018312D02*
X027589Y018312D01*
X027589Y018471D02*
X022611Y018471D01*
X022453Y018629D02*
X027589Y018629D01*
X027589Y018788D02*
X022294Y018788D01*
X022136Y018946D02*
X027589Y018946D01*
X027589Y019105D02*
X021977Y019105D01*
X021818Y019263D02*
X027589Y019263D01*
X027589Y019422D02*
X021660Y019422D01*
X021501Y019580D02*
X027589Y019580D01*
X027589Y019739D02*
X021343Y019739D01*
X021184Y019897D02*
X027589Y019897D01*
X027589Y020056D02*
X021026Y020056D01*
X020867Y020214D02*
X021539Y020214D01*
X021599Y020189D02*
X021798Y020189D01*
X021982Y020265D01*
X022123Y020406D01*
X022199Y020590D01*
X022275Y020406D01*
X022416Y020265D01*
X022599Y020189D01*
X022798Y020189D01*
X022982Y020265D01*
X023123Y020406D01*
X023199Y020590D01*
X023275Y020406D01*
X023416Y020265D01*
X023599Y020189D01*
X023798Y020189D01*
X023982Y020265D01*
X024123Y020406D01*
X024199Y020590D01*
X024275Y020406D01*
X024416Y020265D01*
X024599Y020189D01*
X024798Y020189D01*
X024982Y020265D01*
X025123Y020406D01*
X025199Y020590D01*
X025275Y020406D01*
X025416Y020265D01*
X025599Y020189D01*
X025798Y020189D01*
X025982Y020265D01*
X026123Y020406D01*
X026199Y020590D01*
X026275Y020406D01*
X026416Y020265D01*
X026599Y020189D01*
X026798Y020189D01*
X026982Y020265D01*
X027123Y020406D01*
X027199Y020590D01*
X027199Y020789D01*
X027123Y020972D01*
X026982Y021113D01*
X026798Y021189D01*
X026599Y021189D01*
X026416Y021113D01*
X026275Y020972D01*
X026199Y020789D01*
X026199Y020590D01*
X026199Y020789D01*
X026123Y020972D01*
X025982Y021113D01*
X025798Y021189D01*
X025599Y021189D01*
X025416Y021113D01*
X025275Y020972D01*
X025199Y020789D01*
X025199Y020590D01*
X025199Y020789D01*
X025123Y020972D01*
X024982Y021113D01*
X024798Y021189D01*
X024599Y021189D01*
X024416Y021113D01*
X024275Y020972D01*
X024199Y020789D01*
X024199Y020590D01*
X024199Y020789D01*
X024123Y020972D01*
X023982Y021113D01*
X023798Y021189D01*
X023599Y021189D01*
X023416Y021113D01*
X023275Y020972D01*
X023199Y020789D01*
X023199Y020590D01*
X023199Y020789D01*
X023123Y020972D01*
X022982Y021113D01*
X022798Y021189D01*
X022599Y021189D01*
X022416Y021113D01*
X022275Y020972D01*
X022199Y020789D01*
X022199Y020590D01*
X022199Y020789D01*
X022123Y020972D01*
X021982Y021113D01*
X021798Y021189D01*
X021599Y021189D01*
X021416Y021113D01*
X021275Y020972D01*
X021199Y020789D01*
X021199Y020590D01*
X021275Y020406D01*
X021416Y020265D01*
X021599Y020189D01*
X021859Y020214D02*
X022539Y020214D01*
X022308Y020373D02*
X022090Y020373D01*
X022175Y020532D02*
X022223Y020532D01*
X022199Y020690D02*
X022199Y020690D01*
X022174Y020849D02*
X022224Y020849D01*
X022310Y021007D02*
X022088Y021007D01*
X021855Y021166D02*
X022543Y021166D01*
X022855Y021166D02*
X023543Y021166D01*
X023310Y021007D02*
X023088Y021007D01*
X023174Y020849D02*
X023224Y020849D01*
X023199Y020690D02*
X023199Y020690D01*
X023175Y020532D02*
X023223Y020532D01*
X023308Y020373D02*
X023090Y020373D01*
X022859Y020214D02*
X023539Y020214D01*
X023859Y020214D02*
X024539Y020214D01*
X024308Y020373D02*
X024090Y020373D01*
X024175Y020532D02*
X024223Y020532D01*
X024199Y020690D02*
X024199Y020690D01*
X024174Y020849D02*
X024224Y020849D01*
X024310Y021007D02*
X024088Y021007D01*
X023855Y021166D02*
X024543Y021166D01*
X024855Y021166D02*
X025543Y021166D01*
X025310Y021007D02*
X025088Y021007D01*
X025174Y020849D02*
X025224Y020849D01*
X025199Y020690D02*
X025199Y020690D01*
X025175Y020532D02*
X025223Y020532D01*
X025308Y020373D02*
X025090Y020373D01*
X024859Y020214D02*
X025539Y020214D01*
X025859Y020214D02*
X026539Y020214D01*
X026308Y020373D02*
X026090Y020373D01*
X026175Y020532D02*
X026223Y020532D01*
X026199Y020690D02*
X026199Y020690D01*
X026174Y020849D02*
X026224Y020849D01*
X026310Y021007D02*
X026088Y021007D01*
X025855Y021166D02*
X026543Y021166D01*
X026855Y021166D02*
X027543Y021166D01*
X027310Y021007D02*
X027088Y021007D01*
X027174Y020849D02*
X027224Y020849D01*
X027199Y020690D02*
X027199Y020690D01*
X027175Y020532D02*
X027223Y020532D01*
X027308Y020373D02*
X027090Y020373D01*
X026859Y020214D02*
X027539Y020214D01*
X028089Y020214D02*
X028539Y020214D01*
X028308Y020373D02*
X028090Y020373D01*
X028175Y020532D02*
X028223Y020532D01*
X028199Y020690D02*
X028199Y020690D01*
X028174Y020849D02*
X028224Y020849D01*
X028310Y021007D02*
X028088Y021007D01*
X027855Y021166D02*
X028543Y021166D01*
X028855Y021166D02*
X029089Y021166D01*
X029088Y021007D02*
X029089Y021007D01*
X029089Y020214D02*
X028859Y020214D01*
X029089Y020056D02*
X028089Y020056D01*
X028089Y019897D02*
X029089Y019897D01*
X029089Y019739D02*
X028089Y019739D01*
X028089Y019580D02*
X029089Y019580D01*
X029089Y019422D02*
X028089Y019422D01*
X028089Y019263D02*
X029089Y019263D01*
X029089Y019105D02*
X028089Y019105D01*
X028089Y018946D02*
X029089Y018946D01*
X029089Y018788D02*
X028089Y018788D01*
X028089Y018629D02*
X028454Y018629D01*
X028274Y018471D02*
X028089Y018471D01*
X028089Y018312D02*
X028209Y018312D01*
X028199Y018153D02*
X028089Y018153D01*
X028944Y018629D02*
X029089Y018629D01*
X029089Y015775D02*
X028992Y015775D01*
X028917Y015617D02*
X029089Y015617D01*
X028719Y015617D02*
X028679Y015617D01*
X028679Y015458D02*
X028719Y015458D01*
X028719Y015300D02*
X028679Y015300D01*
X028679Y015141D02*
X028719Y015141D01*
X028719Y014983D02*
X028679Y014983D01*
X028679Y014824D02*
X028719Y014824D01*
X028856Y014665D02*
X029089Y014665D01*
X029088Y014507D02*
X029089Y014507D01*
X029089Y014824D02*
X029012Y014824D01*
X029089Y013872D02*
X028982Y013765D01*
X028798Y013689D01*
X028599Y013689D01*
X028798Y013689D01*
X028982Y013613D01*
X029089Y013506D01*
X029089Y013872D01*
X029089Y013714D02*
X028859Y013714D01*
X029040Y013556D02*
X029089Y013556D01*
X027612Y012763D02*
X025789Y012763D01*
X025789Y012921D02*
X027453Y012921D01*
X027295Y013080D02*
X025755Y013080D01*
X025603Y013239D02*
X027136Y013239D01*
X026978Y013397D02*
X025445Y013397D01*
X025286Y013556D02*
X026819Y013556D01*
X026660Y013714D02*
X025127Y013714D01*
X024969Y013873D02*
X026502Y013873D01*
X026343Y014031D02*
X024810Y014031D01*
X024652Y014190D02*
X026185Y014190D01*
X026026Y014348D02*
X024493Y014348D01*
X024335Y014507D02*
X025868Y014507D01*
X025709Y014665D02*
X024176Y014665D01*
X024018Y014824D02*
X025551Y014824D01*
X025392Y014983D02*
X023859Y014983D01*
X023701Y015141D02*
X025234Y015141D01*
X025075Y015300D02*
X023542Y015300D01*
X023383Y015458D02*
X024916Y015458D01*
X024758Y015617D02*
X023225Y015617D01*
X023066Y015775D02*
X024599Y015775D01*
X024441Y015934D02*
X022908Y015934D01*
X022749Y016092D02*
X024282Y016092D01*
X024124Y016251D02*
X022591Y016251D01*
X022432Y016409D02*
X023965Y016409D01*
X023807Y016568D02*
X022274Y016568D01*
X022115Y016727D02*
X023648Y016727D01*
X023490Y016885D02*
X021957Y016885D01*
X021798Y017044D02*
X023331Y017044D01*
X023172Y017202D02*
X021639Y017202D01*
X021481Y017361D02*
X023014Y017361D01*
X022855Y017519D02*
X021322Y017519D01*
X021164Y017678D02*
X022697Y017678D01*
X022538Y017836D02*
X021005Y017836D01*
X020847Y017995D02*
X022380Y017995D01*
X022221Y018153D02*
X020688Y018153D01*
X020530Y018312D02*
X022063Y018312D01*
X021904Y018471D02*
X020371Y018471D01*
X020213Y018629D02*
X021746Y018629D01*
X021587Y018788D02*
X020054Y018788D01*
X019896Y018946D02*
X021429Y018946D01*
X021270Y019105D02*
X019737Y019105D01*
X019578Y019263D02*
X021111Y019263D01*
X020953Y019422D02*
X019420Y019422D01*
X019389Y019580D02*
X020794Y019580D01*
X020636Y019739D02*
X019389Y019739D01*
X019389Y019897D02*
X020477Y019897D01*
X020319Y020056D02*
X019389Y020056D01*
X019389Y020214D02*
X019939Y020214D01*
X019708Y020373D02*
X019490Y020373D01*
X019575Y020532D02*
X019623Y020532D01*
X019599Y020690D02*
X019599Y020690D01*
X019574Y020849D02*
X019624Y020849D01*
X019710Y021007D02*
X019488Y021007D01*
X019255Y021166D02*
X019943Y021166D01*
X020255Y021166D02*
X021543Y021166D01*
X021310Y021007D02*
X020488Y021007D01*
X020574Y020849D02*
X021224Y020849D01*
X021199Y020690D02*
X020599Y020690D01*
X020575Y020532D02*
X021223Y020532D01*
X021308Y020373D02*
X020709Y020373D01*
X018889Y020214D02*
X018259Y020214D01*
X018490Y020373D02*
X018708Y020373D01*
X018623Y020532D02*
X018575Y020532D01*
X018599Y020690D02*
X018599Y020690D01*
X018574Y020849D02*
X018624Y020849D01*
X018710Y021007D02*
X018488Y021007D01*
X018255Y021166D02*
X018943Y021166D01*
X017943Y021166D02*
X017255Y021166D01*
X017488Y021007D02*
X017710Y021007D01*
X017624Y020849D02*
X017574Y020849D01*
X017599Y020690D02*
X017599Y020690D01*
X017575Y020532D02*
X017623Y020532D01*
X017708Y020373D02*
X017490Y020373D01*
X017389Y020214D02*
X017939Y020214D01*
X017389Y020056D02*
X018889Y020056D01*
X018889Y019897D02*
X017389Y019897D01*
X017389Y019739D02*
X018889Y019739D01*
X018889Y019580D02*
X017389Y019580D01*
X017389Y019422D02*
X018889Y019422D01*
X018904Y019263D02*
X017389Y019263D01*
X017389Y019105D02*
X019030Y019105D01*
X019189Y018946D02*
X017389Y018946D01*
X017389Y018788D02*
X019347Y018788D01*
X019506Y018629D02*
X017389Y018629D01*
X017389Y018471D02*
X019664Y018471D01*
X019823Y018312D02*
X017389Y018312D01*
X017389Y018153D02*
X019981Y018153D01*
X020140Y017995D02*
X017389Y017995D01*
X017389Y017836D02*
X020298Y017836D01*
X020457Y017678D02*
X017389Y017678D01*
X017389Y017519D02*
X020615Y017519D01*
X020774Y017361D02*
X017389Y017361D01*
X017389Y017202D02*
X020932Y017202D01*
X021091Y017044D02*
X017389Y017044D01*
X017389Y016885D02*
X021250Y016885D01*
X021408Y016727D02*
X017389Y016727D01*
X017389Y016568D02*
X021567Y016568D01*
X021725Y016409D02*
X017389Y016409D01*
X017389Y016251D02*
X021884Y016251D01*
X022042Y016092D02*
X017389Y016092D01*
X017389Y015934D02*
X022201Y015934D01*
X022359Y015775D02*
X017389Y015775D01*
X017389Y015617D02*
X022518Y015617D01*
X022676Y015458D02*
X017389Y015458D01*
X017389Y015300D02*
X022835Y015300D01*
X022994Y015141D02*
X017389Y015141D01*
X017389Y014983D02*
X023152Y014983D01*
X023311Y014824D02*
X017389Y014824D01*
X017389Y014665D02*
X023469Y014665D01*
X023628Y014507D02*
X017389Y014507D01*
X017389Y014348D02*
X023786Y014348D01*
X023945Y014190D02*
X017389Y014190D01*
X017389Y014031D02*
X024103Y014031D01*
X024262Y013873D02*
X017389Y013873D01*
X017389Y013714D02*
X024420Y013714D01*
X024579Y013556D02*
X017389Y013556D01*
X017389Y013397D02*
X024738Y013397D01*
X024896Y013239D02*
X017389Y013239D01*
X017389Y013080D02*
X025055Y013080D01*
X025213Y012921D02*
X017389Y012921D01*
X017389Y012763D02*
X025289Y012763D01*
X025289Y012604D02*
X017389Y012604D01*
X017389Y012446D02*
X025289Y012446D01*
X025289Y012287D02*
X017389Y012287D01*
X017389Y012129D02*
X025289Y012129D01*
X025289Y011970D02*
X017389Y011970D01*
X017389Y011812D02*
X025289Y011812D01*
X025289Y011653D02*
X017389Y011653D01*
X017389Y011495D02*
X025289Y011495D01*
X025289Y011336D02*
X017389Y011336D01*
X017389Y011178D02*
X025289Y011178D01*
X025289Y011019D02*
X017389Y011019D01*
X017389Y010860D02*
X025289Y010860D01*
X025289Y010702D02*
X017389Y010702D01*
X017389Y010543D02*
X025289Y010543D01*
X025289Y010385D02*
X017389Y010385D01*
X017389Y010226D02*
X025289Y010226D01*
X025289Y010068D02*
X017389Y010068D01*
X017389Y009909D02*
X025289Y009909D01*
X025289Y009751D02*
X017389Y009751D01*
X017389Y009592D02*
X025289Y009592D01*
X025289Y009434D02*
X017389Y009434D01*
X016889Y010068D02*
X003179Y010068D01*
X003179Y010226D02*
X016889Y010226D01*
X016889Y010385D02*
X003179Y010385D01*
X003179Y010543D02*
X016889Y010543D01*
X016889Y010702D02*
X003179Y010702D01*
X003179Y010860D02*
X016889Y010860D01*
X016889Y011019D02*
X007693Y011019D01*
X007662Y011001D02*
X007936Y011159D01*
X008159Y011382D01*
X008317Y011656D01*
X008399Y011961D01*
X008399Y012277D01*
X008317Y012582D01*
X008159Y012856D01*
X007936Y013079D01*
X007662Y013237D01*
X007357Y013319D01*
X007041Y013319D01*
X006736Y013237D01*
X006462Y013079D01*
X006239Y012856D01*
X006081Y012582D01*
X005999Y012277D01*
X005999Y011961D01*
X006081Y011656D01*
X006239Y011382D01*
X006462Y011159D01*
X006736Y011001D01*
X007041Y010919D01*
X007357Y010919D01*
X007662Y011001D01*
X007954Y011178D02*
X016889Y011178D01*
X016889Y011336D02*
X008113Y011336D01*
X008224Y011495D02*
X016889Y011495D01*
X016889Y011653D02*
X008315Y011653D01*
X008359Y011812D02*
X016889Y011812D01*
X016889Y011970D02*
X008399Y011970D01*
X008399Y012129D02*
X016889Y012129D01*
X016889Y012287D02*
X008396Y012287D01*
X008354Y012446D02*
X016889Y012446D01*
X016889Y012604D02*
X008304Y012604D01*
X008213Y012763D02*
X016889Y012763D01*
X016889Y012921D02*
X008094Y012921D01*
X007935Y013080D02*
X016889Y013080D01*
X016889Y013239D02*
X007658Y013239D01*
X006740Y013239D02*
X003179Y013239D01*
X003179Y013397D02*
X016889Y013397D01*
X016889Y013556D02*
X004465Y013556D01*
X004705Y013714D02*
X005783Y013714D01*
X005811Y013687D02*
X006042Y013591D01*
X006293Y013591D01*
X006524Y013687D01*
X006701Y013864D01*
X006797Y014095D01*
X006797Y014346D01*
X006701Y014578D01*
X006566Y014713D01*
X006701Y014848D01*
X006797Y015080D01*
X006797Y015330D01*
X006701Y015562D01*
X006627Y015636D01*
X006775Y015784D01*
X006884Y016047D01*
X006884Y016332D01*
X006775Y016595D01*
X006627Y016742D01*
X006701Y016817D01*
X006797Y017048D01*
X006797Y017299D01*
X006701Y017530D01*
X006566Y017666D01*
X006701Y017801D01*
X006775Y017979D01*
X013749Y017979D01*
X013840Y018017D01*
X013911Y018088D01*
X016012Y020189D01*
X016198Y020189D01*
X016382Y020265D01*
X016523Y020406D01*
X016599Y020590D01*
X016599Y020789D01*
X016523Y020972D01*
X016382Y021113D01*
X016198Y021189D01*
X015999Y021189D01*
X015816Y021113D01*
X015675Y020972D01*
X015599Y020789D01*
X015599Y020590D01*
X015630Y020514D01*
X015523Y020407D01*
X015599Y020590D01*
X015599Y020789D01*
X015523Y020972D01*
X015382Y021113D01*
X015198Y021189D01*
X014999Y021189D01*
X014816Y021113D01*
X014675Y020972D01*
X014599Y020789D01*
X014599Y020590D01*
X014675Y020406D01*
X014816Y020265D01*
X014999Y020189D01*
X015198Y020189D01*
X015381Y020265D01*
X013595Y018479D01*
X006716Y018479D01*
X006701Y018515D01*
X006524Y018692D01*
X006293Y018788D01*
X006042Y018788D01*
X005811Y018692D01*
X005633Y018515D01*
X005537Y018283D01*
X005537Y018032D01*
X005633Y017801D01*
X005769Y017666D01*
X005633Y017530D01*
X005537Y017299D01*
X005537Y017048D01*
X005633Y016817D01*
X005708Y016742D01*
X005560Y016595D01*
X005451Y016332D01*
X005451Y016047D01*
X005560Y015784D01*
X005708Y015636D01*
X005633Y015562D01*
X005537Y015330D01*
X005537Y015080D01*
X005633Y014848D01*
X005769Y014713D01*
X005633Y014578D01*
X005537Y014346D01*
X005537Y014095D01*
X005633Y013864D01*
X005811Y013687D01*
X005630Y013873D02*
X004830Y013873D01*
X004896Y014031D02*
X005564Y014031D01*
X005537Y014190D02*
X004915Y014190D01*
X004915Y014348D02*
X005538Y014348D01*
X005604Y014507D02*
X004856Y014507D01*
X004767Y014665D02*
X005721Y014665D01*
X005657Y014824D02*
X004609Y014824D01*
X003789Y014824D02*
X003624Y014824D01*
X003179Y014983D02*
X005578Y014983D01*
X005537Y015141D02*
X003179Y015141D01*
X003179Y015300D02*
X005537Y015300D01*
X005590Y015458D02*
X003179Y015458D01*
X003179Y015617D02*
X003987Y015617D01*
X003965Y015624D02*
X004056Y015594D01*
X004151Y015579D01*
X004151Y016141D01*
X004247Y016141D01*
X004247Y015579D01*
X004342Y015594D01*
X004433Y015624D01*
X004519Y015668D01*
X004596Y015724D01*
X004664Y015792D01*
X004721Y015870D01*
X004764Y015955D01*
X004794Y016046D01*
X004809Y016141D01*
X004247Y016141D01*
X004247Y016237D01*
X004809Y016237D01*
X004794Y016332D01*
X004764Y016423D01*
X004721Y016509D01*
X004664Y016587D01*
X004596Y016655D01*
X004519Y016711D01*
X004433Y016755D01*
X004342Y016784D01*
X004247Y016799D01*
X004247Y016237D01*
X004151Y016237D01*
X004151Y016141D01*
X003589Y016141D01*
X003604Y016046D01*
X003634Y015955D01*
X003677Y015870D01*
X003734Y015792D01*
X003801Y015724D01*
X003879Y015668D01*
X003965Y015624D01*
X004151Y015617D02*
X004247Y015617D01*
X004247Y015775D02*
X004151Y015775D01*
X004151Y015934D02*
X004247Y015934D01*
X004247Y016092D02*
X004151Y016092D01*
X004151Y016237D02*
X003589Y016237D01*
X003604Y016332D01*
X003634Y016423D01*
X003677Y016509D01*
X003734Y016587D01*
X003801Y016655D01*
X003879Y016711D01*
X003965Y016755D01*
X004056Y016784D01*
X004151Y016799D01*
X004151Y016237D01*
X004151Y016251D02*
X004247Y016251D01*
X004247Y016409D02*
X004151Y016409D01*
X004151Y016568D02*
X004247Y016568D01*
X004247Y016727D02*
X004151Y016727D01*
X003910Y016727D02*
X003179Y016727D01*
X003179Y016885D02*
X005605Y016885D01*
X005539Y017044D02*
X003179Y017044D01*
X003179Y017202D02*
X005537Y017202D01*
X005563Y017361D02*
X003179Y017361D01*
X003545Y017519D02*
X003869Y017519D01*
X004529Y017519D02*
X005629Y017519D01*
X005756Y017678D02*
X004732Y017678D01*
X004841Y017836D02*
X005619Y017836D01*
X005553Y017995D02*
X004907Y017995D01*
X004915Y018153D02*
X005537Y018153D01*
X005549Y018312D02*
X004910Y018312D01*
X004845Y018471D02*
X005615Y018471D01*
X005748Y018629D02*
X004740Y018629D01*
X004550Y018788D02*
X006042Y018788D01*
X006293Y018788D02*
X013904Y018788D01*
X014062Y018946D02*
X003179Y018946D01*
X003179Y019105D02*
X014221Y019105D01*
X014379Y019263D02*
X003179Y019263D01*
X003179Y019422D02*
X014538Y019422D01*
X014696Y019580D02*
X003179Y019580D01*
X003179Y019739D02*
X014855Y019739D01*
X015014Y019897D02*
X003179Y019897D01*
X003179Y020056D02*
X015172Y020056D01*
X015259Y020214D02*
X015331Y020214D01*
X014939Y020214D02*
X014169Y020214D01*
X014137Y020209D02*
X014211Y020221D01*
X014283Y020244D01*
X014350Y020279D01*
X014412Y020323D01*
X014465Y020377D01*
X014509Y020438D01*
X014544Y020505D01*
X014567Y020577D01*
X014579Y020651D01*
X014579Y020669D01*
X014119Y020669D01*
X014119Y020209D01*
X014137Y020209D01*
X014119Y020214D02*
X014079Y020214D01*
X014079Y020209D02*
X014079Y020669D01*
X014119Y020669D01*
X014119Y020709D01*
X014579Y020709D01*
X014579Y020727D01*
X014567Y020802D01*
X014544Y020874D01*
X014509Y020941D01*
X014465Y021002D01*
X014412Y021055D01*
X014350Y021100D01*
X014283Y021134D01*
X014211Y021157D01*
X014137Y021169D01*
X014119Y021169D01*
X014119Y020710D01*
X014079Y020710D01*
X014079Y021169D01*
X014061Y021169D01*
X013986Y021157D01*
X013915Y021134D01*
X013847Y021100D01*
X013786Y021055D01*
X013733Y021002D01*
X013688Y020941D01*
X013654Y020874D01*
X013631Y020802D01*
X013619Y020727D01*
X013619Y020709D01*
X014079Y020709D01*
X014079Y020669D01*
X013619Y020669D01*
X013619Y020651D01*
X013631Y020577D01*
X013654Y020505D01*
X013688Y020438D01*
X013733Y020377D01*
X013786Y020323D01*
X013847Y020279D01*
X013915Y020244D01*
X013986Y020221D01*
X014061Y020209D01*
X014079Y020209D01*
X014028Y020214D02*
X013259Y020214D01*
X013198Y020189D02*
X013382Y020265D01*
X013523Y020406D01*
X013599Y020590D01*
X013599Y020789D01*
X013523Y020972D01*
X013382Y021113D01*
X013198Y021189D01*
X012999Y021189D01*
X012816Y021113D01*
X012675Y020972D01*
X012599Y020789D01*
X012599Y020590D01*
X012675Y020406D01*
X012816Y020265D01*
X012999Y020189D01*
X013198Y020189D01*
X012939Y020214D02*
X003179Y020214D01*
X003179Y020373D02*
X012708Y020373D01*
X012623Y020532D02*
X003179Y020532D01*
X003179Y020690D02*
X012599Y020690D01*
X012624Y020849D02*
X003179Y020849D01*
X003179Y021007D02*
X012710Y021007D01*
X012943Y021166D02*
X003179Y021166D01*
X003566Y018788D02*
X003848Y018788D01*
X004488Y016727D02*
X005692Y016727D01*
X005549Y016568D02*
X004678Y016568D01*
X004769Y016409D02*
X005483Y016409D01*
X005451Y016251D02*
X004807Y016251D01*
X004801Y016092D02*
X005451Y016092D01*
X005498Y015934D02*
X004753Y015934D01*
X004648Y015775D02*
X005569Y015775D01*
X005688Y015617D02*
X004411Y015617D01*
X003750Y015775D02*
X003179Y015775D01*
X003179Y015934D02*
X003644Y015934D01*
X003597Y016092D02*
X003179Y016092D01*
X003179Y016251D02*
X003591Y016251D01*
X003629Y016409D02*
X003179Y016409D01*
X003179Y016568D02*
X003720Y016568D01*
X006643Y016727D02*
X016889Y016727D01*
X016889Y016885D02*
X006730Y016885D01*
X006795Y017044D02*
X016889Y017044D01*
X016889Y017202D02*
X006797Y017202D01*
X006772Y017361D02*
X016889Y017361D01*
X016889Y017519D02*
X006706Y017519D01*
X006578Y017678D02*
X016889Y017678D01*
X016889Y017836D02*
X006716Y017836D01*
X006587Y018629D02*
X013745Y018629D01*
X014135Y018312D02*
X016889Y018312D01*
X016889Y018471D02*
X014294Y018471D01*
X014452Y018629D02*
X016889Y018629D01*
X016889Y018788D02*
X014611Y018788D01*
X014769Y018946D02*
X016889Y018946D01*
X016889Y019105D02*
X014928Y019105D01*
X015086Y019263D02*
X016889Y019263D01*
X016889Y019422D02*
X015245Y019422D01*
X015403Y019580D02*
X016889Y019580D01*
X016889Y019739D02*
X015562Y019739D01*
X015721Y019897D02*
X016889Y019897D01*
X016889Y020056D02*
X015879Y020056D01*
X016259Y020214D02*
X016889Y020214D01*
X016708Y020373D02*
X016490Y020373D01*
X016575Y020532D02*
X016623Y020532D01*
X016599Y020690D02*
X016599Y020690D01*
X016574Y020849D02*
X016624Y020849D01*
X016710Y021007D02*
X016488Y021007D01*
X016255Y021166D02*
X016943Y021166D01*
X015943Y021166D02*
X015255Y021166D01*
X015488Y021007D02*
X015710Y021007D01*
X015624Y020849D02*
X015574Y020849D01*
X015599Y020690D02*
X015599Y020690D01*
X015575Y020532D02*
X015623Y020532D01*
X014708Y020373D02*
X014461Y020373D01*
X014552Y020532D02*
X014623Y020532D01*
X014599Y020690D02*
X014119Y020690D01*
X014079Y020690D02*
X013599Y020690D01*
X013575Y020532D02*
X013645Y020532D01*
X013736Y020373D02*
X013490Y020373D01*
X013574Y020849D02*
X013646Y020849D01*
X013738Y021007D02*
X013488Y021007D01*
X013255Y021166D02*
X014039Y021166D01*
X014079Y021166D02*
X014119Y021166D01*
X014159Y021166D02*
X014943Y021166D01*
X014710Y021007D02*
X014460Y021007D01*
X014552Y020849D02*
X014624Y020849D01*
X014119Y020849D02*
X014079Y020849D01*
X014079Y021007D02*
X014119Y021007D01*
X014119Y020532D02*
X014079Y020532D01*
X014079Y020373D02*
X014119Y020373D01*
X013977Y018153D02*
X016889Y018153D01*
X016889Y017995D02*
X013786Y017995D01*
X016889Y016568D02*
X006786Y016568D01*
X006851Y016409D02*
X016889Y016409D01*
X016889Y016251D02*
X006884Y016251D01*
X006884Y016092D02*
X016889Y016092D01*
X016889Y015934D02*
X006837Y015934D01*
X006766Y015775D02*
X016889Y015775D01*
X016889Y015617D02*
X006647Y015617D01*
X006744Y015458D02*
X016889Y015458D01*
X016889Y015300D02*
X006797Y015300D01*
X006797Y015141D02*
X016889Y015141D01*
X016889Y014983D02*
X006757Y014983D01*
X006677Y014824D02*
X016889Y014824D01*
X016889Y014665D02*
X006614Y014665D01*
X006731Y014507D02*
X016889Y014507D01*
X016889Y014348D02*
X006796Y014348D01*
X006797Y014190D02*
X016889Y014190D01*
X016889Y014031D02*
X006771Y014031D01*
X006705Y013873D02*
X016889Y013873D01*
X016889Y013714D02*
X006552Y013714D01*
X006463Y013080D02*
X003179Y013080D01*
X003179Y012921D02*
X006304Y012921D01*
X006185Y012763D02*
X003179Y012763D01*
X003179Y012604D02*
X006093Y012604D01*
X006044Y012446D02*
X003179Y012446D01*
X003179Y012287D02*
X006002Y012287D01*
X005999Y012129D02*
X003179Y012129D01*
X003179Y011970D02*
X005999Y011970D01*
X006039Y011812D02*
X003179Y011812D01*
X003179Y011653D02*
X006082Y011653D01*
X006174Y011495D02*
X003179Y011495D01*
X003179Y011336D02*
X006285Y011336D01*
X006444Y011178D02*
X003179Y011178D01*
X003179Y011019D02*
X006705Y011019D01*
X003933Y013556D02*
X003480Y013556D01*
X018387Y003726D02*
X019011Y003726D01*
X018797Y003885D02*
X018601Y003885D01*
X018679Y004043D02*
X018718Y004043D01*
X018699Y004202D02*
X018699Y004202D01*
X018669Y004360D02*
X018729Y004360D01*
X018821Y004519D02*
X018577Y004519D01*
X019552Y004836D02*
X019769Y004836D01*
X019641Y003885D02*
X019601Y003885D01*
X019482Y003726D02*
X019387Y003726D01*
X025789Y006580D02*
X027929Y006580D01*
X027929Y006738D02*
X025789Y006738D01*
X025789Y006897D02*
X027929Y006897D01*
X027929Y007055D02*
X025789Y007055D01*
X025789Y007214D02*
X027929Y007214D01*
X027929Y007372D02*
X025789Y007372D01*
X025789Y007531D02*
X027929Y007531D01*
X027929Y007690D02*
X025789Y007690D01*
X025789Y007848D02*
X027929Y007848D01*
X027929Y008007D02*
X025789Y008007D01*
X025789Y008165D02*
X027929Y008165D01*
X027929Y008324D02*
X025789Y008324D01*
X025789Y008482D02*
X027929Y008482D01*
X027929Y008641D02*
X025789Y008641D01*
X025789Y008799D02*
X027929Y008799D01*
X027929Y008958D02*
X025789Y008958D01*
X025789Y009116D02*
X027929Y009116D01*
X027929Y009275D02*
X025789Y009275D01*
X025789Y009434D02*
X027929Y009434D01*
X027929Y009592D02*
X025789Y009592D01*
X025789Y009751D02*
X027929Y009751D01*
X027929Y009909D02*
X025789Y009909D01*
X025789Y010068D02*
X027929Y010068D01*
X027929Y010226D02*
X025789Y010226D01*
X025789Y010385D02*
X027929Y010385D01*
X027929Y010543D02*
X025789Y010543D01*
X025789Y010702D02*
X027929Y010702D01*
X027929Y010860D02*
X025789Y010860D01*
X025789Y011019D02*
X027929Y011019D01*
X027929Y011178D02*
X025789Y011178D01*
X025789Y011336D02*
X027929Y011336D01*
X027929Y011495D02*
X025789Y011495D01*
X025789Y011653D02*
X027929Y011653D01*
X027929Y011812D02*
X025789Y011812D01*
X025789Y011970D02*
X027929Y011970D01*
X027929Y012129D02*
X025789Y012129D01*
X025789Y012287D02*
X027929Y012287D01*
M02*
