G75*
G70*
%OFA0B0*%
%FSLAX24Y24*%
%IPPOS*%
%LPD*%
%AMOC8*
5,1,8,0,0,1.08239X$1,22.5*
%
%ADD10OC8,0.0600*%
%ADD11C,0.2000*%
%ADD12C,0.0600*%
%ADD13C,0.0860*%
%ADD14C,0.0100*%
%ADD15C,0.0160*%
%ADD16C,0.0400*%
D10*
X006701Y005565D03*
X007701Y005025D03*
X007701Y006105D03*
X006701Y006645D03*
X007701Y007185D03*
X006701Y007725D03*
X007701Y008265D03*
X006701Y008805D03*
X007701Y009345D03*
D11*
X007201Y012115D03*
X007201Y002255D03*
D12*
X012201Y001685D03*
X013201Y001685D03*
X014201Y001685D03*
X015201Y001685D03*
X016201Y001685D03*
X017201Y001685D03*
X019201Y001685D03*
X020201Y001685D03*
X021201Y001685D03*
X022201Y001685D03*
X023201Y001685D03*
X024201Y001685D03*
X016701Y004185D03*
X014701Y004185D03*
X013701Y004185D03*
X013701Y005185D03*
X014701Y005185D03*
X014701Y006185D03*
X013701Y006185D03*
X013701Y007185D03*
X014701Y007185D03*
X014701Y008185D03*
X013701Y008185D03*
X024201Y013185D03*
X024201Y014185D03*
X024201Y015185D03*
X024201Y016185D03*
X024201Y017185D03*
X024201Y018185D03*
X024201Y020685D03*
X023201Y020685D03*
X022201Y020685D03*
X021201Y020685D03*
X020201Y020685D03*
X019201Y020685D03*
X018201Y020685D03*
X017201Y020685D03*
X015601Y020685D03*
X014601Y020685D03*
X013601Y020685D03*
X012601Y020685D03*
X011601Y020685D03*
X010601Y020685D03*
X009601Y020685D03*
X008601Y020685D03*
D13*
X006170Y018154D03*
X006170Y017170D03*
X004201Y016185D03*
X006170Y015201D03*
X006170Y014217D03*
D14*
X007701Y009345D02*
X007741Y009325D01*
X008061Y009005D01*
X012541Y009005D01*
X012541Y020685D01*
X012601Y020685D01*
X023201Y020685D02*
X023341Y020685D01*
X023341Y018045D01*
X024201Y017185D01*
X014701Y008365D02*
X014061Y009005D01*
X012541Y009005D01*
X012701Y008125D02*
X013181Y007645D01*
X013901Y007645D01*
X014221Y007325D01*
X014381Y007325D01*
X014461Y007245D01*
X014701Y007245D01*
X014701Y007185D01*
X014701Y007165D01*
X019661Y007165D01*
X020381Y006445D01*
X022061Y006045D02*
X015021Y006045D01*
X014941Y006125D01*
X014701Y006125D01*
X014701Y006185D01*
X014701Y006205D01*
X014461Y006205D01*
X014381Y006285D01*
X014221Y006285D01*
X013821Y006685D01*
X013101Y006685D01*
X012701Y006285D01*
X008621Y006285D01*
X007741Y007165D01*
X007701Y007185D01*
X007821Y008125D02*
X012701Y008125D01*
X014701Y008185D02*
X014701Y008125D01*
X014941Y008125D01*
X015021Y008045D01*
X017741Y008045D01*
X014701Y008185D02*
X014701Y008365D01*
X014701Y005185D02*
X014701Y005165D01*
X014941Y004925D01*
X015501Y004925D01*
X015501Y003885D01*
X015021Y003405D01*
X010381Y003405D01*
X007741Y006045D01*
X007701Y006105D01*
X007821Y008125D02*
X007741Y008205D01*
X007701Y008265D01*
X022061Y006045D02*
X022221Y005885D01*
D15*
X003181Y001165D02*
X003181Y013501D01*
X003359Y013501D01*
X003623Y013610D01*
X003709Y013696D01*
X003795Y013610D01*
X004059Y013501D01*
X004344Y013501D01*
X004607Y013610D01*
X004808Y013811D01*
X004917Y014074D01*
X004917Y014359D01*
X004808Y014623D01*
X004607Y014824D01*
X004344Y014933D01*
X004059Y014933D01*
X003795Y014824D01*
X003709Y014738D01*
X003623Y014824D01*
X003359Y014933D01*
X003181Y014933D01*
X003181Y017438D01*
X003359Y017438D01*
X003623Y017547D01*
X003709Y017633D01*
X003795Y017547D01*
X004059Y017438D01*
X004344Y017438D01*
X004607Y017547D01*
X004808Y017748D01*
X004917Y018011D01*
X004917Y018296D01*
X004808Y018560D01*
X004607Y018761D01*
X004344Y018870D01*
X004059Y018870D01*
X003795Y018761D01*
X003709Y018675D01*
X003623Y018761D01*
X003359Y018870D01*
X003181Y018870D01*
X003181Y021201D01*
X024591Y021201D01*
X024591Y021002D01*
X024484Y021109D01*
X024301Y021185D01*
X024102Y021185D01*
X023918Y021109D01*
X023777Y020969D01*
X023701Y020785D01*
X023625Y020969D01*
X023484Y021109D01*
X023301Y021185D01*
X023102Y021185D01*
X022918Y021109D01*
X022777Y020969D01*
X022701Y020785D01*
X022625Y020969D01*
X022484Y021109D01*
X022301Y021185D01*
X022102Y021185D01*
X021918Y021109D01*
X021777Y020969D01*
X021701Y020785D01*
X021625Y020969D01*
X021484Y021109D01*
X021301Y021185D01*
X021102Y021185D01*
X020918Y021109D01*
X020777Y020969D01*
X020701Y020785D01*
X020625Y020969D01*
X020484Y021109D01*
X020301Y021185D01*
X020102Y021185D01*
X019918Y021109D01*
X019777Y020969D01*
X019701Y020785D01*
X019625Y020969D01*
X019484Y021109D01*
X019301Y021185D01*
X019102Y021185D01*
X018918Y021109D01*
X018777Y020969D01*
X018701Y020785D01*
X018625Y020969D01*
X018484Y021109D01*
X018301Y021185D01*
X018102Y021185D01*
X017918Y021109D01*
X017777Y020969D01*
X017701Y020785D01*
X017625Y020969D01*
X017484Y021109D01*
X017301Y021185D01*
X017102Y021185D01*
X016918Y021109D01*
X016777Y020969D01*
X016701Y020785D01*
X016701Y020586D01*
X016777Y020402D01*
X016918Y020261D01*
X017102Y020185D01*
X017301Y020185D01*
X017484Y020261D01*
X017625Y020402D01*
X017701Y020586D01*
X017701Y020785D01*
X017701Y020586D01*
X017777Y020402D01*
X017918Y020261D01*
X018102Y020185D01*
X018301Y020185D01*
X018484Y020261D01*
X018625Y020402D01*
X018701Y020586D01*
X018701Y020785D01*
X018701Y020586D01*
X018777Y020402D01*
X018918Y020261D01*
X019102Y020185D01*
X019301Y020185D01*
X019484Y020261D01*
X019625Y020402D01*
X019701Y020586D01*
X019701Y020785D01*
X019701Y020586D01*
X019777Y020402D01*
X019918Y020261D01*
X020102Y020185D01*
X020301Y020185D01*
X020484Y020261D01*
X020625Y020402D01*
X020701Y020586D01*
X020701Y020785D01*
X020701Y020586D01*
X020777Y020402D01*
X020918Y020261D01*
X021102Y020185D01*
X021301Y020185D01*
X021484Y020261D01*
X021625Y020402D01*
X021701Y020586D01*
X021701Y020785D01*
X021701Y020586D01*
X021777Y020402D01*
X021918Y020261D01*
X022102Y020185D01*
X022301Y020185D01*
X022484Y020261D01*
X022625Y020402D01*
X022701Y020586D01*
X022701Y020785D01*
X022701Y020586D01*
X022777Y020402D01*
X022918Y020261D01*
X023091Y020190D01*
X023091Y017996D01*
X023129Y017904D01*
X023199Y017833D01*
X023200Y017833D01*
X023715Y017318D01*
X023701Y017285D01*
X023701Y017086D01*
X023777Y016902D01*
X023918Y016761D01*
X024102Y016685D01*
X023918Y016609D01*
X023777Y016469D01*
X023701Y016285D01*
X023701Y016086D01*
X023777Y015902D01*
X023918Y015761D01*
X024102Y015685D01*
X024301Y015685D01*
X024484Y015761D01*
X024591Y015868D01*
X024591Y015465D01*
X024567Y015498D01*
X024514Y015551D01*
X024453Y015596D01*
X024385Y015630D01*
X024314Y015654D01*
X024239Y015665D01*
X024221Y015665D01*
X024221Y015206D01*
X024181Y015206D01*
X024181Y015665D01*
X024163Y015665D01*
X024089Y015654D01*
X024017Y015630D01*
X023950Y015596D01*
X023888Y015551D01*
X023835Y015498D01*
X023791Y015437D01*
X023756Y015370D01*
X023733Y015298D01*
X023721Y015223D01*
X023721Y015205D01*
X024181Y015205D01*
X024181Y015165D01*
X024221Y015165D01*
X024221Y014705D01*
X024239Y014705D01*
X024314Y014717D01*
X024385Y014741D01*
X024453Y014775D01*
X024514Y014819D01*
X024567Y014873D01*
X024591Y014906D01*
X024591Y014502D01*
X024484Y014609D01*
X024301Y014685D01*
X024102Y014685D01*
X023918Y014609D01*
X023777Y014469D01*
X023701Y014285D01*
X023701Y014086D01*
X023777Y013902D01*
X023918Y013761D01*
X024102Y013685D01*
X023918Y013609D01*
X023777Y013469D01*
X023701Y013285D01*
X023701Y013086D01*
X023777Y012902D01*
X023918Y012761D01*
X024102Y012685D01*
X024301Y012685D01*
X024484Y012761D01*
X024591Y012868D01*
X024591Y002002D01*
X024484Y002109D01*
X024301Y002185D01*
X024102Y002185D01*
X023918Y002109D01*
X023777Y001969D01*
X023701Y001785D01*
X023625Y001969D01*
X023484Y002109D01*
X023301Y002185D01*
X023102Y002185D01*
X022918Y002109D01*
X022777Y001969D01*
X022701Y001785D01*
X022701Y001586D01*
X022625Y001402D01*
X022484Y001261D01*
X022301Y001185D01*
X022102Y001185D01*
X021918Y001261D01*
X021777Y001402D01*
X021701Y001586D01*
X021625Y001402D01*
X021484Y001261D01*
X021301Y001185D01*
X021102Y001185D01*
X020918Y001261D01*
X020777Y001402D01*
X020701Y001586D01*
X020625Y001402D01*
X020484Y001261D01*
X020301Y001185D01*
X020102Y001185D01*
X019918Y001261D01*
X019777Y001402D01*
X019701Y001586D01*
X019625Y001402D01*
X019484Y001261D01*
X019301Y001185D01*
X019102Y001185D01*
X018918Y001261D01*
X018777Y001402D01*
X018701Y001586D01*
X018701Y001785D01*
X018777Y001969D01*
X018918Y002109D01*
X019102Y002185D01*
X019301Y002185D01*
X019484Y002109D01*
X019625Y001969D01*
X019701Y001785D01*
X019701Y001586D01*
X019701Y001785D01*
X019777Y001969D01*
X019918Y002109D01*
X020102Y002185D01*
X020301Y002185D01*
X020484Y002109D01*
X020625Y001969D01*
X020701Y001785D01*
X020701Y001586D01*
X020701Y001785D01*
X020777Y001969D01*
X020918Y002109D01*
X021102Y002185D01*
X021301Y002185D01*
X021484Y002109D01*
X021625Y001969D01*
X021701Y001785D01*
X021701Y001586D01*
X021701Y001785D01*
X021777Y001969D01*
X021918Y002109D01*
X022102Y002185D01*
X022301Y002185D01*
X022484Y002109D01*
X022625Y001969D01*
X022701Y001785D01*
X022701Y001586D01*
X022777Y001402D01*
X022918Y001261D01*
X023102Y001185D01*
X023301Y001185D01*
X023484Y001261D01*
X023625Y001402D01*
X023701Y001586D01*
X023701Y001785D01*
X023701Y001586D01*
X023777Y001402D01*
X023918Y001261D01*
X024102Y001185D01*
X024301Y001185D01*
X024484Y001261D01*
X024591Y001368D01*
X024591Y001165D01*
X007713Y001165D01*
X007938Y001295D01*
X008161Y001519D01*
X008319Y001792D01*
X008401Y002097D01*
X008401Y002413D01*
X008319Y002719D01*
X008161Y002992D01*
X007938Y003216D01*
X007664Y003374D01*
X007359Y003455D01*
X007043Y003455D01*
X006738Y003374D01*
X006464Y003216D01*
X006241Y002992D01*
X006083Y002719D01*
X006001Y002413D01*
X006001Y002097D01*
X006083Y001792D01*
X006241Y001519D01*
X006464Y001295D01*
X006689Y001165D01*
X003181Y001165D01*
X003181Y001320D02*
X006440Y001320D01*
X006281Y001478D02*
X003181Y001478D01*
X003181Y001637D02*
X006173Y001637D01*
X006082Y001795D02*
X003181Y001795D01*
X003181Y001954D02*
X006040Y001954D01*
X006001Y002112D02*
X003181Y002112D01*
X003181Y002271D02*
X006001Y002271D01*
X006005Y002429D02*
X003181Y002429D01*
X003181Y002588D02*
X006048Y002588D01*
X006099Y002746D02*
X003181Y002746D01*
X003181Y002905D02*
X006191Y002905D01*
X006312Y003064D02*
X003181Y003064D01*
X003181Y003222D02*
X006476Y003222D01*
X006764Y003381D02*
X003181Y003381D01*
X003181Y003539D02*
X009894Y003539D01*
X010052Y003381D02*
X007638Y003381D01*
X007927Y003222D02*
X010211Y003222D01*
X010239Y003193D02*
X010331Y003155D01*
X014971Y003155D01*
X015071Y003155D01*
X015163Y003193D01*
X015643Y003673D01*
X015713Y003744D01*
X015751Y003836D01*
X015751Y004876D01*
X015751Y004975D01*
X015713Y005067D01*
X015643Y005137D01*
X015551Y005175D01*
X015201Y005175D01*
X015201Y005285D01*
X015125Y005469D01*
X014984Y005609D01*
X014801Y005685D01*
X014602Y005685D01*
X014418Y005609D01*
X014277Y005469D01*
X014201Y005285D01*
X014201Y005086D01*
X014277Y004902D01*
X014418Y004761D01*
X014602Y004685D01*
X014418Y004609D01*
X014277Y004469D01*
X014201Y004285D01*
X014125Y004469D01*
X013984Y004609D01*
X013801Y004685D01*
X013602Y004685D01*
X013418Y004609D01*
X013277Y004469D01*
X013201Y004285D01*
X013201Y004086D01*
X013277Y003902D01*
X013418Y003761D01*
X013602Y003685D01*
X013801Y003685D01*
X013984Y003761D01*
X014125Y003902D01*
X014201Y004086D01*
X014201Y004285D01*
X014201Y004086D01*
X014277Y003902D01*
X014418Y003761D01*
X014602Y003685D01*
X014801Y003685D01*
X014984Y003761D01*
X015125Y003902D01*
X015201Y004086D01*
X015201Y004285D01*
X015125Y004469D01*
X014984Y004609D01*
X014801Y004685D01*
X014602Y004685D01*
X014801Y004685D01*
X014834Y004699D01*
X014891Y004675D01*
X014991Y004675D01*
X015251Y004675D01*
X015251Y003989D01*
X014918Y003655D01*
X010485Y003655D01*
X008201Y005939D01*
X008201Y006312D01*
X007908Y006605D01*
X007494Y006605D01*
X007201Y006312D01*
X007201Y005898D01*
X007494Y005605D01*
X007828Y005605D01*
X007908Y005525D01*
X007494Y005525D01*
X007201Y005232D01*
X007201Y004818D01*
X007494Y004525D01*
X007908Y004525D01*
X008201Y004818D01*
X008201Y005232D01*
X010169Y003264D01*
X010239Y003193D01*
X010442Y003698D02*
X013572Y003698D01*
X013830Y003698D02*
X014572Y003698D01*
X014830Y003698D02*
X014960Y003698D01*
X015079Y003856D02*
X015118Y003856D01*
X015172Y004015D02*
X015251Y004015D01*
X015251Y004173D02*
X015201Y004173D01*
X015182Y004332D02*
X015251Y004332D01*
X015251Y004490D02*
X015103Y004490D01*
X015251Y004649D02*
X014888Y004649D01*
X014514Y004649D02*
X013888Y004649D01*
X013885Y004741D02*
X013953Y004775D01*
X014014Y004819D01*
X014067Y004873D01*
X014112Y004934D01*
X014146Y005001D01*
X014169Y005073D01*
X014181Y005148D01*
X014181Y005165D01*
X013721Y005165D01*
X013721Y004705D01*
X013739Y004705D01*
X013814Y004717D01*
X013885Y004741D01*
X013998Y004807D02*
X014372Y004807D01*
X014251Y004966D02*
X014128Y004966D01*
X014177Y005125D02*
X014201Y005125D01*
X014181Y005205D02*
X014181Y005223D01*
X014169Y005298D01*
X014146Y005370D01*
X014112Y005437D01*
X014067Y005498D01*
X014014Y005551D01*
X013953Y005596D01*
X013885Y005630D01*
X013814Y005654D01*
X013739Y005665D01*
X013721Y005665D01*
X013721Y005206D01*
X013681Y005206D01*
X013681Y005665D01*
X013663Y005665D01*
X013589Y005654D01*
X013517Y005630D01*
X013450Y005596D01*
X013388Y005551D01*
X013335Y005498D01*
X013291Y005437D01*
X013256Y005370D01*
X013233Y005298D01*
X013221Y005223D01*
X013221Y005205D01*
X013681Y005205D01*
X013681Y005165D01*
X013721Y005165D01*
X013721Y005205D01*
X014181Y005205D01*
X014172Y005283D02*
X014201Y005283D01*
X014266Y005442D02*
X014108Y005442D01*
X013944Y005600D02*
X014409Y005600D01*
X014424Y005759D02*
X013978Y005759D01*
X013984Y005761D02*
X014125Y005902D01*
X014180Y006035D01*
X014222Y006035D01*
X014277Y005902D01*
X014418Y005761D01*
X014602Y005685D01*
X014801Y005685D01*
X014984Y005761D01*
X015018Y005795D01*
X015071Y005795D01*
X021825Y005795D01*
X021882Y005659D01*
X021994Y005546D01*
X022141Y005485D01*
X022301Y005485D01*
X022448Y005546D01*
X022560Y005659D01*
X022621Y005806D01*
X022621Y005965D01*
X022560Y006112D01*
X022448Y006224D01*
X022301Y006285D01*
X022141Y006285D01*
X022138Y006284D01*
X022111Y006295D01*
X020752Y006295D01*
X020781Y006366D01*
X020781Y006525D01*
X020720Y006672D01*
X020608Y006784D01*
X020461Y006845D01*
X020335Y006845D01*
X019873Y007307D01*
X019803Y007377D01*
X019711Y007415D01*
X015147Y007415D01*
X015125Y007469D01*
X014984Y007609D01*
X014801Y007685D01*
X014602Y007685D01*
X014418Y007609D01*
X014384Y007575D01*
X014331Y007575D01*
X014325Y007575D01*
X014061Y007839D01*
X014125Y007902D01*
X014201Y008086D01*
X014201Y008285D01*
X014125Y008469D01*
X013984Y008609D01*
X013801Y008685D01*
X013602Y008685D01*
X013418Y008609D01*
X013277Y008469D01*
X013201Y008285D01*
X013201Y008086D01*
X013277Y007903D01*
X012843Y008337D01*
X012751Y008375D01*
X012651Y008375D01*
X008201Y008375D01*
X008201Y008472D01*
X007908Y008765D01*
X007494Y008765D01*
X007201Y008472D01*
X007201Y008058D01*
X007494Y007765D01*
X007908Y007765D01*
X008018Y007875D01*
X012598Y007875D01*
X012969Y007504D01*
X013039Y007433D01*
X013131Y007395D01*
X013247Y007395D01*
X013201Y007285D01*
X013201Y007086D01*
X013264Y006935D01*
X013051Y006935D01*
X012959Y006897D01*
X012889Y006827D01*
X012598Y006535D01*
X008725Y006535D01*
X008201Y007059D01*
X008201Y007392D01*
X007908Y007685D01*
X007494Y007685D01*
X007201Y007392D01*
X007201Y006978D01*
X007494Y006685D01*
X007868Y006685D01*
X008409Y006144D01*
X008479Y006073D01*
X008571Y006035D01*
X012651Y006035D01*
X012751Y006035D01*
X012843Y006073D01*
X013205Y006435D01*
X013264Y006435D01*
X013201Y006285D01*
X013201Y006086D01*
X013277Y005902D01*
X013418Y005761D01*
X013602Y005685D01*
X013801Y005685D01*
X013984Y005761D01*
X014131Y005917D02*
X014271Y005917D01*
X013721Y005600D02*
X013681Y005600D01*
X013681Y005442D02*
X013721Y005442D01*
X013721Y005283D02*
X013681Y005283D01*
X013681Y005165D02*
X013221Y005165D01*
X013221Y005148D01*
X013233Y005073D01*
X013256Y005001D01*
X013291Y004934D01*
X013335Y004873D01*
X013388Y004819D01*
X013450Y004775D01*
X013517Y004741D01*
X013589Y004717D01*
X013663Y004705D01*
X013681Y004705D01*
X013681Y005165D01*
X013681Y005125D02*
X013721Y005125D01*
X013721Y004966D02*
X013681Y004966D01*
X013681Y004807D02*
X013721Y004807D01*
X013514Y004649D02*
X009491Y004649D01*
X009332Y004807D02*
X013405Y004807D01*
X013274Y004966D02*
X009174Y004966D01*
X009015Y005125D02*
X013225Y005125D01*
X013231Y005283D02*
X008857Y005283D01*
X008698Y005442D02*
X013294Y005442D01*
X013458Y005600D02*
X008540Y005600D01*
X008381Y005759D02*
X013424Y005759D01*
X013271Y005917D02*
X008223Y005917D01*
X008201Y006076D02*
X008477Y006076D01*
X008319Y006234D02*
X008201Y006234D01*
X008160Y006393D02*
X008121Y006393D01*
X008001Y006551D02*
X007962Y006551D01*
X007469Y006710D02*
X007181Y006710D01*
X007181Y006665D02*
X007181Y006844D01*
X006900Y007125D01*
X006721Y007125D01*
X006721Y006666D01*
X006681Y006666D01*
X006681Y007125D01*
X006502Y007125D01*
X006221Y006844D01*
X006221Y006665D01*
X006681Y006665D01*
X006681Y006625D01*
X006721Y006625D01*
X006721Y006165D01*
X006900Y006165D01*
X007181Y006447D01*
X007181Y006625D01*
X006721Y006625D01*
X006721Y006665D01*
X007181Y006665D01*
X007181Y006551D02*
X007440Y006551D01*
X007282Y006393D02*
X007127Y006393D01*
X007201Y006234D02*
X006969Y006234D01*
X006908Y006065D02*
X006494Y006065D01*
X006201Y005772D01*
X006201Y005358D01*
X006494Y005065D01*
X006908Y005065D01*
X007201Y005358D01*
X007201Y005772D01*
X006908Y006065D01*
X007056Y005917D02*
X007201Y005917D01*
X007201Y005759D02*
X007341Y005759D01*
X007201Y005600D02*
X007833Y005600D01*
X007410Y005442D02*
X007201Y005442D01*
X007252Y005283D02*
X007126Y005283D01*
X007201Y005125D02*
X006967Y005125D01*
X007201Y004966D02*
X003181Y004966D01*
X003181Y004807D02*
X007212Y004807D01*
X007370Y004649D02*
X003181Y004649D01*
X003181Y004490D02*
X008943Y004490D01*
X009101Y004332D02*
X003181Y004332D01*
X003181Y004173D02*
X009260Y004173D01*
X009418Y004015D02*
X003181Y004015D01*
X003181Y003856D02*
X009577Y003856D01*
X009735Y003698D02*
X003181Y003698D01*
X003181Y005125D02*
X006435Y005125D01*
X006276Y005283D02*
X003181Y005283D01*
X003181Y005442D02*
X006201Y005442D01*
X006201Y005600D02*
X003181Y005600D01*
X003181Y005759D02*
X006201Y005759D01*
X006346Y005917D02*
X003181Y005917D01*
X003181Y006076D02*
X007201Y006076D01*
X006721Y006234D02*
X006681Y006234D01*
X006681Y006165D02*
X006681Y006625D01*
X006221Y006625D01*
X006221Y006447D01*
X006502Y006165D01*
X006681Y006165D01*
X006681Y006393D02*
X006721Y006393D01*
X006721Y006551D02*
X006681Y006551D01*
X006681Y006710D02*
X006721Y006710D01*
X006721Y006869D02*
X006681Y006869D01*
X006681Y007027D02*
X006721Y007027D01*
X006908Y007225D02*
X006494Y007225D01*
X006201Y007518D01*
X006201Y007932D01*
X006494Y008225D01*
X006908Y008225D01*
X007201Y007932D01*
X007201Y007518D01*
X006908Y007225D01*
X007027Y007344D02*
X007201Y007344D01*
X007201Y007186D02*
X003181Y007186D01*
X003181Y007344D02*
X006375Y007344D01*
X006217Y007503D02*
X003181Y007503D01*
X003181Y007661D02*
X006201Y007661D01*
X006201Y007820D02*
X003181Y007820D01*
X003181Y007978D02*
X006247Y007978D01*
X006406Y008137D02*
X003181Y008137D01*
X003181Y008295D02*
X007201Y008295D01*
X007201Y008137D02*
X006997Y008137D01*
X006908Y008305D02*
X007201Y008598D01*
X007201Y009012D01*
X006908Y009305D01*
X006494Y009305D01*
X006201Y009012D01*
X006201Y008598D01*
X006494Y008305D01*
X006908Y008305D01*
X007057Y008454D02*
X007201Y008454D01*
X007201Y008613D02*
X007341Y008613D01*
X007201Y008771D02*
X007973Y008771D01*
X008011Y008755D02*
X007919Y008793D01*
X007868Y008845D01*
X007494Y008845D01*
X007201Y009138D01*
X007201Y009552D01*
X007494Y009845D01*
X007908Y009845D01*
X008201Y009552D01*
X008201Y009255D01*
X012291Y009255D01*
X012291Y020288D01*
X012177Y020402D01*
X012101Y020586D01*
X012025Y020402D01*
X011884Y020261D01*
X011701Y020185D01*
X011502Y020185D01*
X011318Y020261D01*
X011177Y020402D01*
X011101Y020586D01*
X011025Y020402D01*
X010884Y020261D01*
X010701Y020185D01*
X010502Y020185D01*
X010318Y020261D01*
X010177Y020402D01*
X010101Y020586D01*
X010101Y020785D01*
X010177Y020969D01*
X010318Y021109D01*
X010502Y021185D01*
X010701Y021185D01*
X010884Y021109D01*
X011025Y020969D01*
X011101Y020785D01*
X011101Y020586D01*
X011101Y020785D01*
X011177Y020969D01*
X011318Y021109D01*
X011502Y021185D01*
X011701Y021185D01*
X011884Y021109D01*
X012025Y020969D01*
X012101Y020785D01*
X012101Y020586D01*
X012101Y020785D01*
X012177Y020969D01*
X012318Y021109D01*
X012502Y021185D01*
X012701Y021185D01*
X012884Y021109D01*
X013025Y020969D01*
X013101Y020785D01*
X013101Y020586D01*
X013025Y020402D01*
X012884Y020261D01*
X012791Y020223D01*
X012791Y009255D01*
X014011Y009255D01*
X014111Y009255D01*
X014203Y009217D01*
X014735Y008685D01*
X014801Y008685D01*
X014984Y008609D01*
X015125Y008469D01*
X015197Y008295D01*
X017425Y008295D01*
X017514Y008384D01*
X017661Y008445D01*
X017821Y008445D01*
X017968Y008384D01*
X018080Y008272D01*
X018141Y008125D01*
X018141Y007966D01*
X018080Y007819D01*
X017968Y007706D01*
X017821Y007645D01*
X017661Y007645D01*
X017514Y007706D01*
X017425Y007795D01*
X015071Y007795D01*
X015018Y007795D01*
X014984Y007761D01*
X014801Y007685D01*
X014602Y007685D01*
X014418Y007761D01*
X014277Y007902D01*
X014201Y008086D01*
X014201Y008285D01*
X014268Y008445D01*
X013958Y008755D01*
X012591Y008755D01*
X012491Y008755D01*
X008011Y008755D01*
X008061Y008613D02*
X013426Y008613D01*
X013271Y008454D02*
X008201Y008454D01*
X007963Y007820D02*
X009951Y007820D01*
X009982Y007833D02*
X009744Y007734D01*
X009562Y007552D01*
X009463Y007314D01*
X009463Y007057D01*
X009562Y006819D01*
X009744Y006637D01*
X009982Y006538D01*
X010239Y006538D01*
X010477Y006637D01*
X010659Y006819D01*
X010701Y006920D01*
X010743Y006819D01*
X010925Y006637D01*
X011163Y006538D01*
X011420Y006538D01*
X011658Y006637D01*
X011840Y006819D01*
X011939Y007057D01*
X011939Y007314D01*
X011840Y007552D01*
X011658Y007734D01*
X011420Y007833D01*
X011163Y007833D01*
X010925Y007734D01*
X010743Y007552D01*
X010701Y007451D01*
X010659Y007552D01*
X010477Y007734D01*
X010239Y007833D01*
X009982Y007833D01*
X010270Y007820D02*
X011132Y007820D01*
X011451Y007820D02*
X012653Y007820D01*
X012812Y007661D02*
X011731Y007661D01*
X011861Y007503D02*
X012970Y007503D01*
X013226Y007344D02*
X011926Y007344D01*
X011939Y007186D02*
X013201Y007186D01*
X013225Y007027D02*
X011927Y007027D01*
X011861Y006869D02*
X012931Y006869D01*
X012772Y006710D02*
X011732Y006710D01*
X011453Y006551D02*
X012614Y006551D01*
X013004Y006234D02*
X013201Y006234D01*
X013205Y006076D02*
X012845Y006076D01*
X013162Y006393D02*
X013246Y006393D01*
X014239Y007661D02*
X014544Y007661D01*
X014360Y007820D02*
X014080Y007820D01*
X014156Y007978D02*
X014246Y007978D01*
X014201Y008137D02*
X014201Y008137D01*
X014197Y008295D02*
X014206Y008295D01*
X014259Y008454D02*
X014131Y008454D01*
X014100Y008613D02*
X013976Y008613D01*
X014332Y009088D02*
X024591Y009088D01*
X024591Y008930D02*
X014490Y008930D01*
X014649Y008771D02*
X024591Y008771D01*
X024591Y008613D02*
X014976Y008613D01*
X015131Y008454D02*
X024591Y008454D01*
X024591Y008295D02*
X018057Y008295D01*
X018136Y008137D02*
X024591Y008137D01*
X024591Y007978D02*
X018141Y007978D01*
X018081Y007820D02*
X024591Y007820D01*
X024591Y007661D02*
X017859Y007661D01*
X017623Y007661D02*
X014859Y007661D01*
X015091Y007503D02*
X024591Y007503D01*
X024591Y007344D02*
X019836Y007344D01*
X019994Y007186D02*
X024591Y007186D01*
X024591Y007027D02*
X020153Y007027D01*
X020311Y006869D02*
X024591Y006869D01*
X024591Y006710D02*
X020682Y006710D01*
X020770Y006551D02*
X024591Y006551D01*
X024591Y006393D02*
X020781Y006393D01*
X021841Y005759D02*
X014978Y005759D01*
X014993Y005600D02*
X021941Y005600D01*
X022502Y005600D02*
X024591Y005600D01*
X024591Y005442D02*
X015136Y005442D01*
X015201Y005283D02*
X024591Y005283D01*
X024591Y005125D02*
X015655Y005125D01*
X015751Y004966D02*
X024591Y004966D01*
X024591Y004807D02*
X015751Y004807D01*
X015751Y004649D02*
X016514Y004649D01*
X016602Y004685D02*
X016418Y004609D01*
X016277Y004469D01*
X016201Y004285D01*
X016201Y004086D01*
X016277Y003902D01*
X016418Y003761D01*
X016602Y003685D01*
X016801Y003685D01*
X016984Y003761D01*
X017125Y003902D01*
X017201Y004086D01*
X017201Y004285D01*
X017125Y004469D01*
X016984Y004609D01*
X016801Y004685D01*
X016602Y004685D01*
X016888Y004649D02*
X024591Y004649D01*
X024591Y004490D02*
X017103Y004490D01*
X017182Y004332D02*
X024591Y004332D01*
X024591Y004173D02*
X017201Y004173D01*
X017172Y004015D02*
X024591Y004015D01*
X024591Y003856D02*
X017079Y003856D01*
X016830Y003698D02*
X024591Y003698D01*
X024591Y003539D02*
X015508Y003539D01*
X015350Y003381D02*
X024591Y003381D01*
X024591Y003222D02*
X015191Y003222D01*
X015667Y003698D02*
X016572Y003698D01*
X016323Y003856D02*
X015751Y003856D01*
X015751Y004015D02*
X016231Y004015D01*
X016201Y004173D02*
X015751Y004173D01*
X015751Y004332D02*
X016221Y004332D01*
X016299Y004490D02*
X015751Y004490D01*
X014299Y004490D02*
X014103Y004490D01*
X014182Y004332D02*
X014221Y004332D01*
X014201Y004173D02*
X014201Y004173D01*
X014172Y004015D02*
X014231Y004015D01*
X014323Y003856D02*
X014079Y003856D01*
X013323Y003856D02*
X010284Y003856D01*
X010125Y004015D02*
X013231Y004015D01*
X013201Y004173D02*
X009967Y004173D01*
X009808Y004332D02*
X013221Y004332D01*
X013299Y004490D02*
X009650Y004490D01*
X008784Y004649D02*
X008032Y004649D01*
X008190Y004807D02*
X008625Y004807D01*
X008467Y004966D02*
X008201Y004966D01*
X008201Y005125D02*
X008308Y005125D01*
X008708Y006551D02*
X009949Y006551D01*
X009670Y006710D02*
X008550Y006710D01*
X008391Y006869D02*
X009541Y006869D01*
X009475Y007027D02*
X008233Y007027D01*
X008201Y007186D02*
X009463Y007186D01*
X009476Y007344D02*
X008201Y007344D01*
X008091Y007503D02*
X009541Y007503D01*
X009671Y007661D02*
X007932Y007661D01*
X007470Y007661D02*
X007201Y007661D01*
X007201Y007820D02*
X007440Y007820D01*
X007281Y007978D02*
X007155Y007978D01*
X007186Y007503D02*
X007311Y007503D01*
X007201Y007027D02*
X006998Y007027D01*
X007157Y006869D02*
X007311Y006869D01*
X006404Y007027D02*
X003181Y007027D01*
X003181Y006869D02*
X006246Y006869D01*
X006221Y006710D02*
X003181Y006710D01*
X003181Y006551D02*
X006221Y006551D01*
X006275Y006393D02*
X003181Y006393D01*
X003181Y006234D02*
X006433Y006234D01*
X006345Y008454D02*
X003181Y008454D01*
X003181Y008613D02*
X006201Y008613D01*
X006201Y008771D02*
X003181Y008771D01*
X003181Y008930D02*
X006201Y008930D01*
X006277Y009088D02*
X003181Y009088D01*
X003181Y009247D02*
X006435Y009247D01*
X006967Y009247D02*
X007201Y009247D01*
X007201Y009405D02*
X003181Y009405D01*
X003181Y009564D02*
X007212Y009564D01*
X007371Y009722D02*
X003181Y009722D01*
X003181Y009881D02*
X012291Y009881D01*
X012291Y010039D02*
X003181Y010039D01*
X003181Y010198D02*
X012291Y010198D01*
X012291Y010356D02*
X003181Y010356D01*
X003181Y010515D02*
X012291Y010515D01*
X012291Y010674D02*
X003181Y010674D01*
X003181Y010832D02*
X012291Y010832D01*
X012291Y010991D02*
X007640Y010991D01*
X007664Y010997D02*
X007938Y011155D01*
X008161Y011379D01*
X008319Y011652D01*
X008401Y011957D01*
X008401Y012273D01*
X008319Y012579D01*
X008161Y012852D01*
X007938Y013076D01*
X007664Y013234D01*
X007359Y013315D01*
X007043Y013315D01*
X006738Y013234D01*
X006464Y013076D01*
X006241Y012852D01*
X006083Y012579D01*
X006001Y012273D01*
X006001Y011957D01*
X006083Y011652D01*
X006241Y011379D01*
X006464Y011155D01*
X006738Y010997D01*
X007043Y010915D01*
X007359Y010915D01*
X007664Y010997D01*
X007928Y011149D02*
X012291Y011149D01*
X012291Y011308D02*
X008091Y011308D01*
X008212Y011466D02*
X012291Y011466D01*
X012291Y011625D02*
X008304Y011625D01*
X008354Y011783D02*
X012291Y011783D01*
X012291Y011942D02*
X008397Y011942D01*
X008401Y012100D02*
X012291Y012100D01*
X012291Y012259D02*
X008401Y012259D01*
X008362Y012418D02*
X012291Y012418D01*
X012291Y012576D02*
X008320Y012576D01*
X008229Y012735D02*
X012291Y012735D01*
X012291Y012893D02*
X008120Y012893D01*
X007962Y013052D02*
X012291Y013052D01*
X012291Y013210D02*
X007705Y013210D01*
X006698Y013210D02*
X003181Y013210D01*
X003181Y013052D02*
X006440Y013052D01*
X006282Y012893D02*
X003181Y012893D01*
X003181Y012735D02*
X006173Y012735D01*
X006082Y012576D02*
X003181Y012576D01*
X003181Y012418D02*
X006040Y012418D01*
X006001Y012259D02*
X003181Y012259D01*
X003181Y012100D02*
X006001Y012100D01*
X006005Y011942D02*
X003181Y011942D01*
X003181Y011783D02*
X006048Y011783D01*
X006099Y011625D02*
X003181Y011625D01*
X003181Y011466D02*
X006190Y011466D01*
X006312Y011308D02*
X003181Y011308D01*
X003181Y011149D02*
X006474Y011149D01*
X006762Y010991D02*
X003181Y010991D01*
X003181Y013369D02*
X012291Y013369D01*
X012291Y013527D02*
X004408Y013527D01*
X004683Y013686D02*
X005810Y013686D01*
X005813Y013683D02*
X006044Y013587D01*
X006295Y013587D01*
X006526Y013683D01*
X006704Y013860D01*
X006800Y014091D01*
X006800Y014342D01*
X006704Y014574D01*
X006568Y014709D01*
X006704Y014844D01*
X006800Y015076D01*
X006800Y015326D01*
X006704Y015558D01*
X006629Y015632D01*
X006777Y015780D01*
X006886Y016043D01*
X006886Y016328D01*
X006777Y016591D01*
X006629Y016738D01*
X006704Y016813D01*
X006800Y017044D01*
X006800Y017295D01*
X006704Y017526D01*
X006568Y017662D01*
X006704Y017797D01*
X006800Y018029D01*
X006800Y018279D01*
X006704Y018511D01*
X006526Y018688D01*
X006295Y018784D01*
X006044Y018784D01*
X005813Y018688D01*
X005636Y018511D01*
X005540Y018279D01*
X005540Y018029D01*
X005636Y017797D01*
X005771Y017662D01*
X005636Y017526D01*
X005540Y017295D01*
X005540Y017044D01*
X005636Y016813D01*
X005710Y016738D01*
X005562Y016591D01*
X005453Y016328D01*
X005453Y016043D01*
X005562Y015780D01*
X005710Y015632D01*
X005636Y015558D01*
X005540Y015326D01*
X005540Y015076D01*
X005636Y014844D01*
X005771Y014709D01*
X005636Y014574D01*
X005540Y014342D01*
X005540Y014091D01*
X005636Y013860D01*
X005813Y013683D01*
X005651Y013844D02*
X004822Y013844D01*
X004888Y014003D02*
X005576Y014003D01*
X005540Y014162D02*
X004917Y014162D01*
X004917Y014320D02*
X005540Y014320D01*
X005596Y014479D02*
X004868Y014479D01*
X004794Y014637D02*
X005699Y014637D01*
X005684Y014796D02*
X004635Y014796D01*
X003767Y014796D02*
X003651Y014796D01*
X003181Y014954D02*
X005590Y014954D01*
X005540Y015113D02*
X003181Y015113D01*
X003181Y015271D02*
X005540Y015271D01*
X005582Y015430D02*
X003181Y015430D01*
X003181Y015588D02*
X004070Y015588D01*
X004058Y015590D02*
X004153Y015575D01*
X004153Y016137D01*
X004249Y016137D01*
X004249Y015575D01*
X004344Y015590D01*
X004435Y015620D01*
X004521Y015664D01*
X004598Y015720D01*
X004666Y015788D01*
X004723Y015866D01*
X004766Y015951D01*
X004796Y016042D01*
X004811Y016137D01*
X004249Y016137D01*
X004249Y016233D01*
X004811Y016233D01*
X004796Y016328D01*
X004766Y016419D01*
X004723Y016505D01*
X004666Y016583D01*
X004598Y016651D01*
X004521Y016707D01*
X004435Y016751D01*
X004344Y016780D01*
X004249Y016795D01*
X004249Y016234D01*
X004153Y016234D01*
X004153Y016795D01*
X004058Y016780D01*
X003967Y016751D01*
X003881Y016707D01*
X003804Y016651D01*
X003736Y016583D01*
X003679Y016505D01*
X003636Y016419D01*
X003606Y016328D01*
X003591Y016233D01*
X004153Y016233D01*
X004153Y016137D01*
X003591Y016137D01*
X003606Y016042D01*
X003636Y015951D01*
X003679Y015866D01*
X003736Y015788D01*
X003804Y015720D01*
X003881Y015664D01*
X003967Y015620D01*
X004058Y015590D01*
X004153Y015588D02*
X004249Y015588D01*
X004332Y015588D02*
X005666Y015588D01*
X005595Y015747D02*
X004625Y015747D01*
X004743Y015906D02*
X005510Y015906D01*
X005453Y016064D02*
X004799Y016064D01*
X004779Y016381D02*
X005476Y016381D01*
X005453Y016223D02*
X004249Y016223D01*
X004153Y016223D02*
X003181Y016223D01*
X003181Y016381D02*
X003623Y016381D01*
X003705Y016540D02*
X003181Y016540D01*
X003181Y016698D02*
X003869Y016698D01*
X004153Y016698D02*
X004249Y016698D01*
X004249Y016540D02*
X004153Y016540D01*
X004153Y016381D02*
X004249Y016381D01*
X004249Y016064D02*
X004153Y016064D01*
X004153Y015906D02*
X004249Y015906D01*
X004249Y015747D02*
X004153Y015747D01*
X003777Y015747D02*
X003181Y015747D01*
X003181Y015906D02*
X003659Y015906D01*
X003603Y016064D02*
X003181Y016064D01*
X003181Y016857D02*
X005617Y016857D01*
X005670Y016698D02*
X004533Y016698D01*
X004698Y016540D02*
X005541Y016540D01*
X005552Y017015D02*
X003181Y017015D01*
X003181Y017174D02*
X005540Y017174D01*
X005555Y017332D02*
X003181Y017332D01*
X003488Y017491D02*
X003930Y017491D01*
X004472Y017491D02*
X005621Y017491D01*
X005759Y017649D02*
X004710Y017649D01*
X004833Y017808D02*
X005631Y017808D01*
X005565Y017967D02*
X004899Y017967D01*
X004917Y018125D02*
X005540Y018125D01*
X005541Y018284D02*
X004917Y018284D01*
X004857Y018442D02*
X005607Y018442D01*
X005726Y018601D02*
X004767Y018601D01*
X004609Y018759D02*
X005985Y018759D01*
X006354Y018759D02*
X012291Y018759D01*
X012291Y018601D02*
X006614Y018601D01*
X006732Y018442D02*
X012291Y018442D01*
X012291Y018284D02*
X006798Y018284D01*
X006800Y018125D02*
X012291Y018125D01*
X012291Y017967D02*
X006774Y017967D01*
X006708Y017808D02*
X012291Y017808D01*
X012291Y017649D02*
X006581Y017649D01*
X006718Y017491D02*
X012291Y017491D01*
X012291Y017332D02*
X006784Y017332D01*
X006800Y017174D02*
X012291Y017174D01*
X012291Y017015D02*
X006788Y017015D01*
X006722Y016857D02*
X012291Y016857D01*
X012291Y016698D02*
X006670Y016698D01*
X006798Y016540D02*
X012291Y016540D01*
X012291Y016381D02*
X006864Y016381D01*
X006886Y016223D02*
X012291Y016223D01*
X012291Y016064D02*
X006886Y016064D01*
X006829Y015906D02*
X012291Y015906D01*
X012291Y015747D02*
X006744Y015747D01*
X006673Y015588D02*
X012291Y015588D01*
X012291Y015430D02*
X006757Y015430D01*
X006800Y015271D02*
X012291Y015271D01*
X012291Y015113D02*
X006800Y015113D01*
X006749Y014954D02*
X012291Y014954D01*
X012291Y014796D02*
X006655Y014796D01*
X006640Y014637D02*
X012291Y014637D01*
X012291Y014479D02*
X006743Y014479D01*
X006800Y014320D02*
X012291Y014320D01*
X012291Y014162D02*
X006800Y014162D01*
X006763Y014003D02*
X012291Y014003D01*
X012291Y013844D02*
X006688Y013844D01*
X006530Y013686D02*
X012291Y013686D01*
X012791Y013686D02*
X024100Y013686D01*
X024102Y013685D02*
X024301Y013685D01*
X024484Y013609D01*
X024591Y013502D01*
X024591Y013868D01*
X024484Y013761D01*
X024301Y013685D01*
X024102Y013685D01*
X024302Y013686D02*
X024591Y013686D01*
X024591Y013844D02*
X024567Y013844D01*
X024566Y013527D02*
X024591Y013527D01*
X023836Y013527D02*
X012791Y013527D01*
X012791Y013369D02*
X023736Y013369D01*
X023701Y013210D02*
X012791Y013210D01*
X012791Y013052D02*
X023715Y013052D01*
X023786Y012893D02*
X012791Y012893D01*
X012791Y012735D02*
X023983Y012735D01*
X024420Y012735D02*
X024591Y012735D01*
X024591Y012576D02*
X012791Y012576D01*
X012791Y012418D02*
X024591Y012418D01*
X024591Y012259D02*
X012791Y012259D01*
X012791Y012100D02*
X024591Y012100D01*
X024591Y011942D02*
X012791Y011942D01*
X012791Y011783D02*
X024591Y011783D01*
X024591Y011625D02*
X012791Y011625D01*
X012791Y011466D02*
X024591Y011466D01*
X024591Y011308D02*
X012791Y011308D01*
X012791Y011149D02*
X024591Y011149D01*
X024591Y010991D02*
X012791Y010991D01*
X012791Y010832D02*
X024591Y010832D01*
X024591Y010674D02*
X012791Y010674D01*
X012791Y010515D02*
X024591Y010515D01*
X024591Y010356D02*
X012791Y010356D01*
X012791Y010198D02*
X024591Y010198D01*
X024591Y010039D02*
X012791Y010039D01*
X012791Y009881D02*
X024591Y009881D01*
X024591Y009722D02*
X012791Y009722D01*
X012791Y009564D02*
X024591Y009564D01*
X024591Y009405D02*
X012791Y009405D01*
X012291Y009405D02*
X008201Y009405D01*
X008190Y009564D02*
X012291Y009564D01*
X012291Y009722D02*
X008031Y009722D01*
X007251Y009088D02*
X007125Y009088D01*
X007201Y008930D02*
X007410Y008930D01*
X010272Y006551D02*
X011130Y006551D01*
X010852Y006710D02*
X010551Y006710D01*
X010680Y006869D02*
X010722Y006869D01*
X010722Y007503D02*
X010680Y007503D01*
X010550Y007661D02*
X010852Y007661D01*
X012884Y008295D02*
X013206Y008295D01*
X013201Y008137D02*
X013043Y008137D01*
X013202Y007978D02*
X013246Y007978D01*
X014132Y009247D02*
X024591Y009247D01*
X024591Y006234D02*
X022424Y006234D01*
X022575Y006076D02*
X024591Y006076D01*
X024591Y005917D02*
X022621Y005917D01*
X022602Y005759D02*
X024591Y005759D01*
X024591Y003064D02*
X008090Y003064D01*
X008212Y002905D02*
X024591Y002905D01*
X024591Y002746D02*
X008303Y002746D01*
X008354Y002588D02*
X024591Y002588D01*
X024591Y002429D02*
X008397Y002429D01*
X008401Y002271D02*
X024591Y002271D01*
X024591Y002112D02*
X024477Y002112D01*
X023925Y002112D02*
X023477Y002112D01*
X023631Y001954D02*
X023771Y001954D01*
X023705Y001795D02*
X023697Y001795D01*
X023701Y001637D02*
X023701Y001637D01*
X023656Y001478D02*
X023746Y001478D01*
X023860Y001320D02*
X023542Y001320D01*
X022860Y001320D02*
X022542Y001320D01*
X022656Y001478D02*
X022746Y001478D01*
X022701Y001637D02*
X022701Y001637D01*
X022697Y001795D02*
X022705Y001795D01*
X022771Y001954D02*
X022631Y001954D01*
X022477Y002112D02*
X022925Y002112D01*
X021925Y002112D02*
X021477Y002112D01*
X021631Y001954D02*
X021771Y001954D01*
X021705Y001795D02*
X021697Y001795D01*
X021701Y001637D02*
X021701Y001637D01*
X021656Y001478D02*
X021746Y001478D01*
X021860Y001320D02*
X021542Y001320D01*
X020860Y001320D02*
X020542Y001320D01*
X020656Y001478D02*
X020746Y001478D01*
X020701Y001637D02*
X020701Y001637D01*
X020697Y001795D02*
X020705Y001795D01*
X020771Y001954D02*
X020631Y001954D01*
X020477Y002112D02*
X020925Y002112D01*
X019925Y002112D02*
X019477Y002112D01*
X019631Y001954D02*
X019771Y001954D01*
X019705Y001795D02*
X019697Y001795D01*
X019701Y001637D02*
X019701Y001637D01*
X019656Y001478D02*
X019746Y001478D01*
X019860Y001320D02*
X019542Y001320D01*
X018860Y001320D02*
X017542Y001320D01*
X017484Y001261D02*
X017625Y001402D01*
X017701Y001586D01*
X017701Y001785D01*
X017625Y001969D01*
X017484Y002109D01*
X017301Y002185D01*
X017102Y002185D01*
X016918Y002109D01*
X016777Y001969D01*
X016701Y001785D01*
X016701Y001586D01*
X016777Y001402D01*
X016918Y001261D01*
X017102Y001185D01*
X017301Y001185D01*
X017484Y001261D01*
X017656Y001478D02*
X018746Y001478D01*
X018701Y001637D02*
X017701Y001637D01*
X017697Y001795D02*
X018705Y001795D01*
X018771Y001954D02*
X017631Y001954D01*
X017477Y002112D02*
X018925Y002112D01*
X016925Y002112D02*
X016421Y002112D01*
X016453Y002096D02*
X016385Y002130D01*
X016314Y002154D01*
X016239Y002165D01*
X016221Y002165D01*
X016221Y001706D01*
X016181Y001706D01*
X016181Y002165D01*
X016163Y002165D01*
X016089Y002154D01*
X016017Y002130D01*
X015950Y002096D01*
X015888Y002051D01*
X015835Y001998D01*
X015791Y001937D01*
X015756Y001870D01*
X015733Y001798D01*
X015721Y001723D01*
X015721Y001705D01*
X016181Y001705D01*
X016181Y001665D01*
X016221Y001665D01*
X016221Y001205D01*
X016239Y001205D01*
X016314Y001217D01*
X016385Y001241D01*
X016453Y001275D01*
X016514Y001319D01*
X016567Y001373D01*
X016612Y001434D01*
X016646Y001501D01*
X016669Y001573D01*
X016681Y001648D01*
X016681Y001665D01*
X016221Y001665D01*
X016221Y001705D01*
X016681Y001705D01*
X016681Y001723D01*
X016669Y001798D01*
X016646Y001870D01*
X016612Y001937D01*
X016567Y001998D01*
X016514Y002051D01*
X016453Y002096D01*
X016599Y001954D02*
X016771Y001954D01*
X016705Y001795D02*
X016670Y001795D01*
X016679Y001637D02*
X016701Y001637D01*
X016746Y001478D02*
X016634Y001478D01*
X016514Y001320D02*
X016860Y001320D01*
X016221Y001320D02*
X016181Y001320D01*
X016181Y001205D02*
X016181Y001665D01*
X015721Y001665D01*
X015721Y001648D01*
X015733Y001573D01*
X015756Y001501D01*
X015791Y001434D01*
X015835Y001373D01*
X015888Y001319D01*
X015950Y001275D01*
X016017Y001241D01*
X016089Y001217D01*
X016163Y001205D01*
X016181Y001205D01*
X016181Y001478D02*
X016221Y001478D01*
X016221Y001637D02*
X016181Y001637D01*
X016181Y001795D02*
X016221Y001795D01*
X016221Y001954D02*
X016181Y001954D01*
X016181Y002112D02*
X016221Y002112D01*
X015982Y002112D02*
X015421Y002112D01*
X015453Y002096D02*
X015385Y002130D01*
X015314Y002154D01*
X015239Y002165D01*
X015221Y002165D01*
X015221Y001706D01*
X015181Y001706D01*
X015181Y002165D01*
X015163Y002165D01*
X015089Y002154D01*
X015017Y002130D01*
X014950Y002096D01*
X014888Y002051D01*
X014835Y001998D01*
X014791Y001937D01*
X014756Y001870D01*
X014733Y001798D01*
X014721Y001723D01*
X014721Y001705D01*
X015181Y001705D01*
X015181Y001665D01*
X015221Y001665D01*
X015221Y001205D01*
X015239Y001205D01*
X015314Y001217D01*
X015385Y001241D01*
X015453Y001275D01*
X015514Y001319D01*
X015567Y001373D01*
X015612Y001434D01*
X015646Y001501D01*
X015669Y001573D01*
X015681Y001648D01*
X015681Y001665D01*
X015221Y001665D01*
X015221Y001705D01*
X015681Y001705D01*
X015681Y001723D01*
X015669Y001798D01*
X015646Y001870D01*
X015612Y001937D01*
X015567Y001998D01*
X015514Y002051D01*
X015453Y002096D01*
X015599Y001954D02*
X015803Y001954D01*
X015733Y001795D02*
X015670Y001795D01*
X015679Y001637D02*
X015723Y001637D01*
X015768Y001478D02*
X015634Y001478D01*
X015514Y001320D02*
X015888Y001320D01*
X015221Y001320D02*
X015181Y001320D01*
X015181Y001205D02*
X015181Y001665D01*
X014721Y001665D01*
X014721Y001648D01*
X014733Y001573D01*
X014756Y001501D01*
X014791Y001434D01*
X014835Y001373D01*
X014888Y001319D01*
X014950Y001275D01*
X015017Y001241D01*
X015089Y001217D01*
X015163Y001205D01*
X015181Y001205D01*
X015181Y001478D02*
X015221Y001478D01*
X015221Y001637D02*
X015181Y001637D01*
X015181Y001795D02*
X015221Y001795D01*
X015221Y001954D02*
X015181Y001954D01*
X015181Y002112D02*
X015221Y002112D01*
X014982Y002112D02*
X014477Y002112D01*
X014484Y002109D02*
X014301Y002185D01*
X014102Y002185D01*
X013918Y002109D01*
X013777Y001969D01*
X013701Y001785D01*
X013625Y001969D01*
X013484Y002109D01*
X013301Y002185D01*
X013102Y002185D01*
X012918Y002109D01*
X012777Y001969D01*
X012701Y001785D01*
X012625Y001969D01*
X012484Y002109D01*
X012301Y002185D01*
X012102Y002185D01*
X011918Y002109D01*
X011777Y001969D01*
X011701Y001785D01*
X011701Y001586D01*
X011777Y001402D01*
X011918Y001261D01*
X012102Y001185D01*
X012301Y001185D01*
X012484Y001261D01*
X012625Y001402D01*
X012701Y001586D01*
X012701Y001785D01*
X012701Y001586D01*
X012777Y001402D01*
X012918Y001261D01*
X013102Y001185D01*
X013301Y001185D01*
X013484Y001261D01*
X013625Y001402D01*
X013701Y001586D01*
X013701Y001785D01*
X013701Y001586D01*
X013777Y001402D01*
X013918Y001261D01*
X014102Y001185D01*
X014301Y001185D01*
X014484Y001261D01*
X014625Y001402D01*
X014701Y001586D01*
X014701Y001785D01*
X014625Y001969D01*
X014484Y002109D01*
X014631Y001954D02*
X014803Y001954D01*
X014733Y001795D02*
X014697Y001795D01*
X014701Y001637D02*
X014723Y001637D01*
X014768Y001478D02*
X014656Y001478D01*
X014542Y001320D02*
X014888Y001320D01*
X013860Y001320D02*
X013542Y001320D01*
X013656Y001478D02*
X013746Y001478D01*
X013701Y001637D02*
X013701Y001637D01*
X013697Y001795D02*
X013705Y001795D01*
X013771Y001954D02*
X013631Y001954D01*
X013477Y002112D02*
X013925Y002112D01*
X012925Y002112D02*
X012477Y002112D01*
X012631Y001954D02*
X012771Y001954D01*
X012705Y001795D02*
X012697Y001795D01*
X012701Y001637D02*
X012701Y001637D01*
X012656Y001478D02*
X012746Y001478D01*
X012860Y001320D02*
X012542Y001320D01*
X011860Y001320D02*
X007962Y001320D01*
X008121Y001478D02*
X011746Y001478D01*
X011701Y001637D02*
X008229Y001637D01*
X008320Y001795D02*
X011705Y001795D01*
X011771Y001954D02*
X008363Y001954D01*
X008401Y002112D02*
X011925Y002112D01*
X015197Y008295D02*
X017426Y008295D01*
X012791Y013844D02*
X023835Y013844D01*
X023735Y014003D02*
X012791Y014003D01*
X012791Y014162D02*
X023701Y014162D01*
X023716Y014320D02*
X012791Y014320D01*
X012791Y014479D02*
X023787Y014479D01*
X023985Y014637D02*
X012791Y014637D01*
X012791Y014796D02*
X023921Y014796D01*
X023950Y014775D02*
X024017Y014741D01*
X024089Y014717D01*
X024163Y014705D01*
X024181Y014705D01*
X024181Y015165D01*
X023721Y015165D01*
X023721Y015148D01*
X023733Y015073D01*
X023756Y015001D01*
X023791Y014934D01*
X023835Y014873D01*
X023888Y014819D01*
X023950Y014775D01*
X024181Y014796D02*
X024221Y014796D01*
X024221Y014954D02*
X024181Y014954D01*
X024181Y015113D02*
X024221Y015113D01*
X024221Y015271D02*
X024181Y015271D01*
X024181Y015430D02*
X024221Y015430D01*
X024221Y015588D02*
X024181Y015588D01*
X023939Y015588D02*
X012791Y015588D01*
X012791Y015430D02*
X023787Y015430D01*
X023729Y015271D02*
X012791Y015271D01*
X012791Y015113D02*
X023727Y015113D01*
X023780Y014954D02*
X012791Y014954D01*
X012791Y015747D02*
X023953Y015747D01*
X023776Y015906D02*
X012791Y015906D01*
X012791Y016064D02*
X023710Y016064D01*
X023701Y016223D02*
X012791Y016223D01*
X012791Y016381D02*
X023741Y016381D01*
X023848Y016540D02*
X012791Y016540D01*
X012791Y016698D02*
X024071Y016698D01*
X024102Y016685D02*
X024301Y016685D01*
X024102Y016685D01*
X024301Y016685D02*
X024484Y016609D01*
X024591Y016502D01*
X024591Y016868D01*
X024484Y016761D01*
X024301Y016685D01*
X024332Y016698D02*
X024591Y016698D01*
X024591Y016540D02*
X024554Y016540D01*
X024580Y016857D02*
X024591Y016857D01*
X023823Y016857D02*
X012791Y016857D01*
X012791Y017015D02*
X023730Y017015D01*
X023701Y017174D02*
X012791Y017174D01*
X012791Y017332D02*
X023701Y017332D01*
X023542Y017491D02*
X012791Y017491D01*
X012791Y017649D02*
X023383Y017649D01*
X023225Y017808D02*
X012791Y017808D01*
X012791Y017967D02*
X023103Y017967D01*
X023091Y018125D02*
X012791Y018125D01*
X012791Y018284D02*
X023091Y018284D01*
X023091Y018442D02*
X012791Y018442D01*
X012791Y018601D02*
X023091Y018601D01*
X023091Y018759D02*
X012791Y018759D01*
X012791Y018918D02*
X023091Y018918D01*
X023091Y019076D02*
X012791Y019076D01*
X012791Y019235D02*
X023091Y019235D01*
X023091Y019393D02*
X012791Y019393D01*
X012791Y019552D02*
X023091Y019552D01*
X023091Y019711D02*
X012791Y019711D01*
X012791Y019869D02*
X023091Y019869D01*
X023091Y020028D02*
X012791Y020028D01*
X012791Y020186D02*
X013500Y020186D01*
X013502Y020185D02*
X013701Y020185D01*
X013884Y020261D01*
X014025Y020402D01*
X014101Y020586D01*
X014101Y020785D01*
X014025Y020969D01*
X013884Y021109D01*
X013701Y021185D01*
X013502Y021185D01*
X013318Y021109D01*
X013177Y020969D01*
X013101Y020785D01*
X013101Y020586D01*
X013177Y020402D01*
X013318Y020261D01*
X013502Y020185D01*
X013703Y020186D02*
X014500Y020186D01*
X014502Y020185D02*
X014701Y020185D01*
X014884Y020261D01*
X015025Y020402D01*
X015101Y020586D01*
X015101Y020785D01*
X015025Y020969D01*
X014884Y021109D01*
X014701Y021185D01*
X014502Y021185D01*
X014318Y021109D01*
X014177Y020969D01*
X014101Y020785D01*
X014101Y020586D01*
X014177Y020402D01*
X014318Y020261D01*
X014502Y020185D01*
X014703Y020186D02*
X015500Y020186D01*
X015502Y020185D02*
X015701Y020185D01*
X015884Y020261D01*
X016025Y020402D01*
X016101Y020586D01*
X016101Y020785D01*
X016025Y020969D01*
X015884Y021109D01*
X015701Y021185D01*
X015502Y021185D01*
X015318Y021109D01*
X015177Y020969D01*
X015101Y020785D01*
X015101Y020586D01*
X015177Y020402D01*
X015318Y020261D01*
X015502Y020185D01*
X015703Y020186D02*
X017100Y020186D01*
X017303Y020186D02*
X018100Y020186D01*
X018303Y020186D02*
X019100Y020186D01*
X019303Y020186D02*
X020100Y020186D01*
X020303Y020186D02*
X021100Y020186D01*
X021303Y020186D02*
X022100Y020186D01*
X022303Y020186D02*
X023091Y020186D01*
X022835Y020345D02*
X022568Y020345D01*
X022667Y020503D02*
X022735Y020503D01*
X022701Y020662D02*
X022701Y020662D01*
X022686Y020820D02*
X022716Y020820D01*
X022788Y020979D02*
X022615Y020979D01*
X022416Y021137D02*
X022986Y021137D01*
X023416Y021137D02*
X023986Y021137D01*
X023788Y020979D02*
X023615Y020979D01*
X023686Y020820D02*
X023716Y020820D01*
X023701Y020785D02*
X023701Y020586D01*
X023701Y020785D01*
X023701Y020662D02*
X023701Y020662D01*
X023701Y020586D02*
X023625Y020402D01*
X023591Y020368D01*
X023591Y018149D01*
X023734Y018005D01*
X023701Y018086D01*
X023701Y018285D01*
X023777Y018469D01*
X023918Y018609D01*
X024102Y018685D01*
X024301Y018685D01*
X024484Y018609D01*
X024591Y018502D01*
X024591Y020368D01*
X024484Y020261D01*
X024301Y020185D01*
X024102Y020185D01*
X023918Y020261D01*
X023777Y020402D01*
X023701Y020586D01*
X023667Y020503D02*
X023735Y020503D01*
X023835Y020345D02*
X023591Y020345D01*
X023591Y020186D02*
X024100Y020186D01*
X024303Y020186D02*
X024591Y020186D01*
X024591Y020028D02*
X023591Y020028D01*
X023591Y019869D02*
X024591Y019869D01*
X024591Y019711D02*
X023591Y019711D01*
X023591Y019552D02*
X024591Y019552D01*
X024591Y019393D02*
X023591Y019393D01*
X023591Y019235D02*
X024591Y019235D01*
X024591Y019076D02*
X023591Y019076D01*
X023591Y018918D02*
X024591Y018918D01*
X024591Y018759D02*
X023591Y018759D01*
X023591Y018601D02*
X023909Y018601D01*
X023766Y018442D02*
X023591Y018442D01*
X023591Y018284D02*
X023701Y018284D01*
X023701Y018125D02*
X023615Y018125D01*
X024493Y018601D02*
X024591Y018601D01*
X024568Y020345D02*
X024591Y020345D01*
X024591Y021137D02*
X024416Y021137D01*
X021986Y021137D02*
X021416Y021137D01*
X021615Y020979D02*
X021788Y020979D01*
X021716Y020820D02*
X021686Y020820D01*
X021701Y020662D02*
X021701Y020662D01*
X021667Y020503D02*
X021735Y020503D01*
X021835Y020345D02*
X021568Y020345D01*
X020835Y020345D02*
X020568Y020345D01*
X020667Y020503D02*
X020735Y020503D01*
X020701Y020662D02*
X020701Y020662D01*
X020686Y020820D02*
X020716Y020820D01*
X020788Y020979D02*
X020615Y020979D01*
X020416Y021137D02*
X020986Y021137D01*
X019986Y021137D02*
X019416Y021137D01*
X019615Y020979D02*
X019788Y020979D01*
X019716Y020820D02*
X019686Y020820D01*
X019701Y020662D02*
X019701Y020662D01*
X019667Y020503D02*
X019735Y020503D01*
X019835Y020345D02*
X019568Y020345D01*
X018835Y020345D02*
X018568Y020345D01*
X018667Y020503D02*
X018735Y020503D01*
X018701Y020662D02*
X018701Y020662D01*
X018686Y020820D02*
X018716Y020820D01*
X018788Y020979D02*
X018615Y020979D01*
X018416Y021137D02*
X018986Y021137D01*
X017986Y021137D02*
X017416Y021137D01*
X017615Y020979D02*
X017788Y020979D01*
X017716Y020820D02*
X017686Y020820D01*
X017701Y020662D02*
X017701Y020662D01*
X017667Y020503D02*
X017735Y020503D01*
X017835Y020345D02*
X017568Y020345D01*
X016835Y020345D02*
X015968Y020345D01*
X016067Y020503D02*
X016735Y020503D01*
X016701Y020662D02*
X016101Y020662D01*
X016086Y020820D02*
X016716Y020820D01*
X016788Y020979D02*
X016015Y020979D01*
X015816Y021137D02*
X016986Y021137D01*
X015386Y021137D02*
X014816Y021137D01*
X015015Y020979D02*
X015188Y020979D01*
X015116Y020820D02*
X015086Y020820D01*
X015101Y020662D02*
X015101Y020662D01*
X015067Y020503D02*
X015135Y020503D01*
X015235Y020345D02*
X014968Y020345D01*
X014235Y020345D02*
X013968Y020345D01*
X014067Y020503D02*
X014135Y020503D01*
X014101Y020662D02*
X014101Y020662D01*
X014086Y020820D02*
X014116Y020820D01*
X014188Y020979D02*
X014015Y020979D01*
X013816Y021137D02*
X014386Y021137D01*
X013386Y021137D02*
X012816Y021137D01*
X013015Y020979D02*
X013188Y020979D01*
X013116Y020820D02*
X013086Y020820D01*
X013101Y020662D02*
X013101Y020662D01*
X013067Y020503D02*
X013135Y020503D01*
X013235Y020345D02*
X012968Y020345D01*
X012291Y020186D02*
X011703Y020186D01*
X011500Y020186D02*
X010703Y020186D01*
X010500Y020186D02*
X008703Y020186D01*
X008701Y020185D02*
X008884Y020261D01*
X009025Y020402D01*
X009101Y020586D01*
X009101Y020785D01*
X009025Y020969D01*
X008884Y021109D01*
X008701Y021185D01*
X008502Y021185D01*
X008318Y021109D01*
X008177Y020969D01*
X008101Y020785D01*
X008101Y020586D01*
X008177Y020402D01*
X008318Y020261D01*
X008502Y020185D01*
X008701Y020185D01*
X008500Y020186D02*
X003181Y020186D01*
X003181Y020028D02*
X012291Y020028D01*
X012291Y019869D02*
X003181Y019869D01*
X003181Y019711D02*
X012291Y019711D01*
X012291Y019552D02*
X003181Y019552D01*
X003181Y019393D02*
X012291Y019393D01*
X012291Y019235D02*
X003181Y019235D01*
X003181Y019076D02*
X012291Y019076D01*
X012291Y018918D02*
X003181Y018918D01*
X003624Y018759D02*
X003794Y018759D01*
X003181Y020345D02*
X008235Y020345D01*
X008135Y020503D02*
X003181Y020503D01*
X003181Y020662D02*
X008101Y020662D01*
X008116Y020820D02*
X003181Y020820D01*
X003181Y020979D02*
X008188Y020979D01*
X008386Y021137D02*
X003181Y021137D01*
X008816Y021137D02*
X009439Y021137D01*
X009417Y021130D02*
X009350Y021096D01*
X009288Y021051D01*
X009235Y020998D01*
X009191Y020937D01*
X009156Y020870D01*
X009133Y020798D01*
X009121Y020723D01*
X009121Y020705D01*
X009581Y020705D01*
X009581Y020665D01*
X009621Y020665D01*
X009621Y020205D01*
X009639Y020205D01*
X009714Y020217D01*
X009785Y020241D01*
X009853Y020275D01*
X009914Y020319D01*
X009967Y020373D01*
X010012Y020434D01*
X010046Y020501D01*
X010069Y020573D01*
X010081Y020648D01*
X010081Y020665D01*
X009621Y020665D01*
X009621Y020705D01*
X010081Y020705D01*
X010081Y020723D01*
X010069Y020798D01*
X010046Y020870D01*
X010012Y020937D01*
X009967Y020998D01*
X009914Y021051D01*
X009853Y021096D01*
X009785Y021130D01*
X009714Y021154D01*
X009639Y021165D01*
X009621Y021165D01*
X009621Y020706D01*
X009581Y020706D01*
X009581Y021165D01*
X009563Y021165D01*
X009489Y021154D01*
X009417Y021130D01*
X009581Y021137D02*
X009621Y021137D01*
X009763Y021137D02*
X010386Y021137D01*
X010188Y020979D02*
X009981Y020979D01*
X010062Y020820D02*
X010116Y020820D01*
X010101Y020662D02*
X010081Y020662D01*
X010047Y020503D02*
X010135Y020503D01*
X010235Y020345D02*
X009939Y020345D01*
X009621Y020345D02*
X009581Y020345D01*
X009581Y020205D02*
X009581Y020665D01*
X009121Y020665D01*
X009121Y020648D01*
X009133Y020573D01*
X009156Y020501D01*
X009191Y020434D01*
X009235Y020373D01*
X009288Y020319D01*
X009350Y020275D01*
X009417Y020241D01*
X009489Y020217D01*
X009563Y020205D01*
X009581Y020205D01*
X009581Y020503D02*
X009621Y020503D01*
X009621Y020662D02*
X009581Y020662D01*
X009581Y020820D02*
X009621Y020820D01*
X009621Y020979D02*
X009581Y020979D01*
X009221Y020979D02*
X009015Y020979D01*
X009086Y020820D02*
X009140Y020820D01*
X009121Y020662D02*
X009101Y020662D01*
X009067Y020503D02*
X009156Y020503D01*
X009263Y020345D02*
X008968Y020345D01*
X010816Y021137D02*
X011386Y021137D01*
X011188Y020979D02*
X011015Y020979D01*
X011086Y020820D02*
X011116Y020820D01*
X011101Y020662D02*
X011101Y020662D01*
X011067Y020503D02*
X011135Y020503D01*
X011235Y020345D02*
X010968Y020345D01*
X011968Y020345D02*
X012235Y020345D01*
X012135Y020503D02*
X012067Y020503D01*
X012101Y020662D02*
X012101Y020662D01*
X012086Y020820D02*
X012116Y020820D01*
X012188Y020979D02*
X012015Y020979D01*
X011816Y021137D02*
X012386Y021137D01*
X003719Y013686D02*
X003699Y013686D01*
X003424Y013527D02*
X003994Y013527D01*
X024417Y014637D02*
X024591Y014637D01*
X024591Y014796D02*
X024481Y014796D01*
X024463Y015588D02*
X024591Y015588D01*
X024591Y015747D02*
X024449Y015747D01*
X024542Y001320D02*
X024591Y001320D01*
D16*
X022221Y005885D03*
X020381Y006445D03*
X017741Y008045D03*
M02*
