G75*
G70*
%OFA0B0*%
%FSLAX24Y24*%
%IPPOS*%
%LPD*%
%AMOC8*
5,1,8,0,0,1.08239X$1,22.5*
%
%ADD10C,0.0000*%
%ADD11OC8,0.0600*%
%ADD12C,0.2000*%
%ADD13C,0.0600*%
%ADD14R,0.0394X0.0433*%
%ADD15R,0.0394X0.0453*%
%ADD16C,0.0860*%
%ADD17C,0.0100*%
%ADD18C,0.0160*%
%ADD19C,0.0400*%
D10*
X002701Y000685D02*
X002701Y021681D01*
X025071Y021681D01*
X025071Y000685D01*
X002701Y000685D01*
X009944Y007185D02*
X009946Y007210D01*
X009952Y007235D01*
X009961Y007259D01*
X009974Y007281D01*
X009991Y007301D01*
X010010Y007318D01*
X010031Y007332D01*
X010055Y007342D01*
X010079Y007349D01*
X010105Y007352D01*
X010130Y007351D01*
X010155Y007346D01*
X010179Y007337D01*
X010202Y007325D01*
X010222Y007310D01*
X010240Y007291D01*
X010255Y007270D01*
X010266Y007247D01*
X010274Y007223D01*
X010278Y007198D01*
X010278Y007172D01*
X010274Y007147D01*
X010266Y007123D01*
X010255Y007100D01*
X010240Y007079D01*
X010222Y007060D01*
X010202Y007045D01*
X010179Y007033D01*
X010155Y007024D01*
X010130Y007019D01*
X010105Y007018D01*
X010079Y007021D01*
X010055Y007028D01*
X010031Y007038D01*
X010010Y007052D01*
X009991Y007069D01*
X009974Y007089D01*
X009961Y007111D01*
X009952Y007135D01*
X009946Y007160D01*
X009944Y007185D01*
X011125Y007185D02*
X011127Y007210D01*
X011133Y007235D01*
X011142Y007259D01*
X011155Y007281D01*
X011172Y007301D01*
X011191Y007318D01*
X011212Y007332D01*
X011236Y007342D01*
X011260Y007349D01*
X011286Y007352D01*
X011311Y007351D01*
X011336Y007346D01*
X011360Y007337D01*
X011383Y007325D01*
X011403Y007310D01*
X011421Y007291D01*
X011436Y007270D01*
X011447Y007247D01*
X011455Y007223D01*
X011459Y007198D01*
X011459Y007172D01*
X011455Y007147D01*
X011447Y007123D01*
X011436Y007100D01*
X011421Y007079D01*
X011403Y007060D01*
X011383Y007045D01*
X011360Y007033D01*
X011336Y007024D01*
X011311Y007019D01*
X011286Y007018D01*
X011260Y007021D01*
X011236Y007028D01*
X011212Y007038D01*
X011191Y007052D01*
X011172Y007069D01*
X011155Y007089D01*
X011142Y007111D01*
X011133Y007135D01*
X011127Y007160D01*
X011125Y007185D01*
X003965Y014217D02*
X003967Y014247D01*
X003973Y014277D01*
X003982Y014306D01*
X003995Y014333D01*
X004012Y014358D01*
X004031Y014381D01*
X004054Y014402D01*
X004079Y014419D01*
X004105Y014433D01*
X004134Y014443D01*
X004163Y014450D01*
X004193Y014453D01*
X004224Y014452D01*
X004254Y014447D01*
X004283Y014438D01*
X004310Y014426D01*
X004336Y014411D01*
X004360Y014392D01*
X004381Y014370D01*
X004399Y014346D01*
X004414Y014319D01*
X004425Y014291D01*
X004433Y014262D01*
X004437Y014232D01*
X004437Y014202D01*
X004433Y014172D01*
X004425Y014143D01*
X004414Y014115D01*
X004399Y014088D01*
X004381Y014064D01*
X004360Y014042D01*
X004336Y014023D01*
X004310Y014008D01*
X004283Y013996D01*
X004254Y013987D01*
X004224Y013982D01*
X004193Y013981D01*
X004163Y013984D01*
X004134Y013991D01*
X004105Y014001D01*
X004079Y014015D01*
X004054Y014032D01*
X004031Y014053D01*
X004012Y014076D01*
X003995Y014101D01*
X003982Y014128D01*
X003973Y014157D01*
X003967Y014187D01*
X003965Y014217D01*
X002981Y014217D02*
X002983Y014247D01*
X002989Y014277D01*
X002998Y014306D01*
X003011Y014333D01*
X003028Y014358D01*
X003047Y014381D01*
X003070Y014402D01*
X003095Y014419D01*
X003121Y014433D01*
X003150Y014443D01*
X003179Y014450D01*
X003209Y014453D01*
X003240Y014452D01*
X003270Y014447D01*
X003299Y014438D01*
X003326Y014426D01*
X003352Y014411D01*
X003376Y014392D01*
X003397Y014370D01*
X003415Y014346D01*
X003430Y014319D01*
X003441Y014291D01*
X003449Y014262D01*
X003453Y014232D01*
X003453Y014202D01*
X003449Y014172D01*
X003441Y014143D01*
X003430Y014115D01*
X003415Y014088D01*
X003397Y014064D01*
X003376Y014042D01*
X003352Y014023D01*
X003326Y014008D01*
X003299Y013996D01*
X003270Y013987D01*
X003240Y013982D01*
X003209Y013981D01*
X003179Y013984D01*
X003150Y013991D01*
X003121Y014001D01*
X003095Y014015D01*
X003070Y014032D01*
X003047Y014053D01*
X003028Y014076D01*
X003011Y014101D01*
X002998Y014128D01*
X002989Y014157D01*
X002983Y014187D01*
X002981Y014217D01*
X005934Y016185D02*
X005936Y016215D01*
X005942Y016245D01*
X005951Y016274D01*
X005964Y016301D01*
X005981Y016326D01*
X006000Y016349D01*
X006023Y016370D01*
X006048Y016387D01*
X006074Y016401D01*
X006103Y016411D01*
X006132Y016418D01*
X006162Y016421D01*
X006193Y016420D01*
X006223Y016415D01*
X006252Y016406D01*
X006279Y016394D01*
X006305Y016379D01*
X006329Y016360D01*
X006350Y016338D01*
X006368Y016314D01*
X006383Y016287D01*
X006394Y016259D01*
X006402Y016230D01*
X006406Y016200D01*
X006406Y016170D01*
X006402Y016140D01*
X006394Y016111D01*
X006383Y016083D01*
X006368Y016056D01*
X006350Y016032D01*
X006329Y016010D01*
X006305Y015991D01*
X006279Y015976D01*
X006252Y015964D01*
X006223Y015955D01*
X006193Y015950D01*
X006162Y015949D01*
X006132Y015952D01*
X006103Y015959D01*
X006074Y015969D01*
X006048Y015983D01*
X006023Y016000D01*
X006000Y016021D01*
X005981Y016044D01*
X005964Y016069D01*
X005951Y016096D01*
X005942Y016125D01*
X005936Y016155D01*
X005934Y016185D01*
X003965Y018154D02*
X003967Y018184D01*
X003973Y018214D01*
X003982Y018243D01*
X003995Y018270D01*
X004012Y018295D01*
X004031Y018318D01*
X004054Y018339D01*
X004079Y018356D01*
X004105Y018370D01*
X004134Y018380D01*
X004163Y018387D01*
X004193Y018390D01*
X004224Y018389D01*
X004254Y018384D01*
X004283Y018375D01*
X004310Y018363D01*
X004336Y018348D01*
X004360Y018329D01*
X004381Y018307D01*
X004399Y018283D01*
X004414Y018256D01*
X004425Y018228D01*
X004433Y018199D01*
X004437Y018169D01*
X004437Y018139D01*
X004433Y018109D01*
X004425Y018080D01*
X004414Y018052D01*
X004399Y018025D01*
X004381Y018001D01*
X004360Y017979D01*
X004336Y017960D01*
X004310Y017945D01*
X004283Y017933D01*
X004254Y017924D01*
X004224Y017919D01*
X004193Y017918D01*
X004163Y017921D01*
X004134Y017928D01*
X004105Y017938D01*
X004079Y017952D01*
X004054Y017969D01*
X004031Y017990D01*
X004012Y018013D01*
X003995Y018038D01*
X003982Y018065D01*
X003973Y018094D01*
X003967Y018124D01*
X003965Y018154D01*
X002981Y018154D02*
X002983Y018184D01*
X002989Y018214D01*
X002998Y018243D01*
X003011Y018270D01*
X003028Y018295D01*
X003047Y018318D01*
X003070Y018339D01*
X003095Y018356D01*
X003121Y018370D01*
X003150Y018380D01*
X003179Y018387D01*
X003209Y018390D01*
X003240Y018389D01*
X003270Y018384D01*
X003299Y018375D01*
X003326Y018363D01*
X003352Y018348D01*
X003376Y018329D01*
X003397Y018307D01*
X003415Y018283D01*
X003430Y018256D01*
X003441Y018228D01*
X003449Y018199D01*
X003453Y018169D01*
X003453Y018139D01*
X003449Y018109D01*
X003441Y018080D01*
X003430Y018052D01*
X003415Y018025D01*
X003397Y018001D01*
X003376Y017979D01*
X003352Y017960D01*
X003326Y017945D01*
X003299Y017933D01*
X003270Y017924D01*
X003240Y017919D01*
X003209Y017918D01*
X003179Y017921D01*
X003150Y017928D01*
X003121Y017938D01*
X003095Y017952D01*
X003070Y017969D01*
X003047Y017990D01*
X003028Y018013D01*
X003011Y018038D01*
X002998Y018065D01*
X002989Y018094D01*
X002983Y018124D01*
X002981Y018154D01*
D11*
X007701Y009345D03*
X006701Y008805D03*
X007701Y008265D03*
X006701Y007725D03*
X007701Y007185D03*
X006701Y006645D03*
X007701Y006105D03*
X006701Y005565D03*
X007701Y005025D03*
D12*
X007201Y002255D03*
X007201Y012115D03*
D13*
X013701Y008185D03*
X013701Y007185D03*
X014701Y007185D03*
X014701Y008185D03*
X014701Y006185D03*
X014701Y005185D03*
X013701Y005185D03*
X013701Y006185D03*
X013701Y004185D03*
X014701Y004185D03*
X016701Y004185D03*
X016201Y001685D03*
X015201Y001685D03*
X014201Y001685D03*
X013201Y001685D03*
X012201Y001685D03*
X017201Y001685D03*
X019201Y001685D03*
X020201Y001685D03*
X021201Y001685D03*
X022201Y001685D03*
X023201Y001685D03*
X024201Y001685D03*
X024201Y013185D03*
X024201Y014185D03*
X024201Y015185D03*
X024201Y016185D03*
X024201Y017185D03*
X024201Y018185D03*
X024201Y020685D03*
X023201Y020685D03*
X022201Y020685D03*
X021201Y020685D03*
X020201Y020685D03*
X019201Y020685D03*
X018201Y020685D03*
X017201Y020685D03*
X015601Y020685D03*
X014601Y020685D03*
X013601Y020685D03*
X012601Y020685D03*
X011601Y020685D03*
X010601Y020685D03*
X009601Y020685D03*
X008601Y020685D03*
D14*
X018201Y006520D03*
X018201Y005851D03*
X018201Y004520D03*
X018201Y003851D03*
X019701Y003851D03*
X019701Y004520D03*
X019701Y005851D03*
X019701Y006520D03*
X021201Y006520D03*
X021201Y005851D03*
X021201Y004520D03*
X021201Y003851D03*
X022701Y003851D03*
X022701Y004520D03*
X024201Y004520D03*
X024201Y003851D03*
X024201Y005851D03*
X024201Y006520D03*
X022701Y006520D03*
X022701Y005851D03*
D15*
X011685Y006073D03*
X010701Y006073D03*
X009717Y006073D03*
X009717Y008298D03*
X010701Y008298D03*
X011685Y008298D03*
D16*
X006170Y014217D03*
X006170Y015201D03*
X004201Y016185D03*
X006170Y017170D03*
X006170Y018154D03*
D17*
X006221Y018125D01*
X007581Y016765D01*
X007581Y016685D01*
X011581Y020685D01*
X011601Y020685D01*
X013601Y020685D02*
X013661Y020685D01*
X013741Y020605D01*
X013741Y010285D01*
X015261Y008765D01*
X015261Y007645D01*
X014861Y007245D01*
X014701Y007245D01*
X014701Y007185D01*
X015501Y006765D02*
X014941Y006205D01*
X014701Y006205D01*
X014701Y006185D01*
X015501Y006765D02*
X015501Y019805D01*
X014621Y020685D01*
X014601Y020685D01*
X015601Y020685D02*
X015661Y020685D01*
X015741Y020605D01*
X015741Y008445D01*
X021821Y008445D01*
X023421Y006845D01*
X023421Y005565D01*
X023821Y005165D01*
X023581Y004925D01*
X023581Y003885D01*
X024141Y003885D01*
X024201Y003851D01*
X023341Y003885D02*
X023341Y004925D01*
X022701Y005565D01*
X022701Y005851D01*
X022701Y005885D01*
X022221Y005885D01*
X021261Y005805D02*
X021261Y005485D01*
X021901Y004845D01*
X021901Y003885D01*
X021261Y003885D01*
X021201Y003851D01*
X020381Y003885D02*
X020381Y004925D01*
X019741Y005565D01*
X019741Y005805D01*
X019701Y005851D01*
X019661Y005885D01*
X018861Y005885D01*
X018861Y006925D01*
X017741Y008045D01*
X015741Y008445D02*
X015741Y006045D01*
X014941Y005245D01*
X014701Y005245D01*
X014701Y005185D01*
X016701Y004185D02*
X016701Y004125D01*
X016701Y004185D02*
X016701Y004045D01*
X016061Y003405D01*
X012461Y003405D01*
X012461Y009805D01*
X007021Y015245D01*
X007181Y015405D01*
X007181Y016285D01*
X007581Y016685D01*
X007021Y015245D02*
X006221Y014445D01*
X006221Y014285D01*
X006170Y014217D01*
X009717Y006073D02*
X009741Y006045D01*
X010061Y005725D01*
X010061Y005485D01*
X013101Y002445D01*
X014061Y002445D01*
X014061Y001805D01*
X014141Y001725D01*
X014201Y001685D01*
X016701Y004045D02*
X016861Y003885D01*
X017501Y003885D01*
X017501Y005165D01*
X018141Y005805D01*
X018201Y005851D01*
X018141Y003885D02*
X017501Y003885D01*
X018141Y003885D02*
X018201Y003851D01*
X019701Y003851D02*
X019741Y003885D01*
X020381Y003885D01*
X020381Y005885D02*
X020381Y006445D01*
X020381Y005885D02*
X021181Y005885D01*
X021201Y005851D01*
X021261Y005805D01*
X022701Y003885D02*
X022701Y003851D01*
X022701Y003885D02*
X023341Y003885D01*
X023821Y005165D02*
X024141Y005485D01*
X024141Y005805D01*
X024201Y005851D01*
X024591Y006157D02*
X024621Y006125D01*
X024621Y005565D01*
X024591Y005545D01*
X024201Y016185D02*
X024141Y016205D01*
X023421Y016925D01*
X023421Y019725D01*
X024141Y020445D01*
X024141Y020685D01*
X024201Y020685D01*
D18*
X023735Y020503D02*
X023667Y020503D01*
X023701Y020586D02*
X023625Y020402D01*
X023484Y020261D01*
X023301Y020185D01*
X023102Y020185D01*
X022918Y020261D01*
X022777Y020402D01*
X022701Y020586D01*
X022625Y020402D01*
X022484Y020261D01*
X022301Y020185D01*
X022102Y020185D01*
X021918Y020261D01*
X021777Y020402D01*
X021701Y020586D01*
X021625Y020402D01*
X021484Y020261D01*
X021301Y020185D01*
X021102Y020185D01*
X020918Y020261D01*
X020777Y020402D01*
X020701Y020586D01*
X020625Y020402D01*
X020484Y020261D01*
X020301Y020185D01*
X020102Y020185D01*
X019918Y020261D01*
X019777Y020402D01*
X019701Y020586D01*
X019625Y020402D01*
X019484Y020261D01*
X019301Y020185D01*
X019102Y020185D01*
X018918Y020261D01*
X018777Y020402D01*
X018701Y020586D01*
X018625Y020402D01*
X018484Y020261D01*
X018301Y020185D01*
X018102Y020185D01*
X017918Y020261D01*
X017777Y020402D01*
X017701Y020586D01*
X017625Y020402D01*
X017484Y020261D01*
X017301Y020185D01*
X017102Y020185D01*
X016918Y020261D01*
X016777Y020402D01*
X016701Y020586D01*
X016701Y020785D01*
X016777Y020969D01*
X016918Y021109D01*
X017102Y021185D01*
X017301Y021185D01*
X017484Y021109D01*
X017625Y020969D01*
X017701Y020785D01*
X017701Y020586D01*
X017701Y020785D01*
X017777Y020969D01*
X017918Y021109D01*
X018102Y021185D01*
X018301Y021185D01*
X018484Y021109D01*
X018625Y020969D01*
X018701Y020785D01*
X018701Y020586D01*
X018701Y020785D01*
X018777Y020969D01*
X018918Y021109D01*
X019102Y021185D01*
X019301Y021185D01*
X019484Y021109D01*
X019625Y020969D01*
X019701Y020785D01*
X019701Y020586D01*
X019701Y020785D01*
X019777Y020969D01*
X019918Y021109D01*
X020102Y021185D01*
X020301Y021185D01*
X020484Y021109D01*
X020625Y020969D01*
X020701Y020785D01*
X020701Y020586D01*
X020701Y020785D01*
X020777Y020969D01*
X020918Y021109D01*
X021102Y021185D01*
X021301Y021185D01*
X021484Y021109D01*
X021625Y020969D01*
X021701Y020785D01*
X021701Y020586D01*
X021701Y020785D01*
X021777Y020969D01*
X021918Y021109D01*
X022102Y021185D01*
X022301Y021185D01*
X022484Y021109D01*
X022625Y020969D01*
X022701Y020785D01*
X022701Y020586D01*
X022701Y020785D01*
X022777Y020969D01*
X022918Y021109D01*
X023102Y021185D01*
X023301Y021185D01*
X023484Y021109D01*
X023625Y020969D01*
X023701Y020785D01*
X023701Y020586D01*
X023768Y020425D01*
X023209Y019867D01*
X023171Y019775D01*
X023171Y019676D01*
X023171Y016876D01*
X023209Y016784D01*
X023279Y016713D01*
X023703Y016290D01*
X023701Y016285D01*
X023701Y016086D01*
X023777Y015902D01*
X023918Y015761D01*
X024102Y015685D01*
X023918Y015609D01*
X023777Y015469D01*
X023701Y015285D01*
X023701Y015086D01*
X023777Y014902D01*
X023918Y014761D01*
X024102Y014685D01*
X024301Y014685D01*
X024484Y014761D01*
X024591Y014868D01*
X024591Y014465D01*
X024567Y014498D01*
X024514Y014551D01*
X024453Y014596D01*
X024385Y014630D01*
X024314Y014654D01*
X024239Y014665D01*
X024221Y014665D01*
X024221Y014206D01*
X024181Y014206D01*
X024181Y014665D01*
X024163Y014665D01*
X024089Y014654D01*
X024017Y014630D01*
X023950Y014596D01*
X023888Y014551D01*
X023835Y014498D01*
X023791Y014437D01*
X023756Y014370D01*
X023733Y014298D01*
X023721Y014223D01*
X023721Y014205D01*
X024181Y014205D01*
X024181Y014165D01*
X024221Y014165D01*
X024221Y013705D01*
X024239Y013705D01*
X024314Y013717D01*
X024385Y013741D01*
X024453Y013775D01*
X024514Y013819D01*
X024567Y013873D01*
X024591Y013906D01*
X024591Y013502D01*
X024484Y013609D01*
X024301Y013685D01*
X024102Y013685D01*
X023918Y013609D01*
X023777Y013469D01*
X023701Y013285D01*
X023701Y013086D01*
X023777Y012902D01*
X023918Y012761D01*
X024102Y012685D01*
X024301Y012685D01*
X024484Y012761D01*
X024591Y012868D01*
X024591Y006157D01*
X024547Y006201D01*
X024566Y006234D01*
X024578Y006280D01*
X024578Y006501D01*
X024220Y006501D01*
X024220Y006538D01*
X024578Y006538D01*
X024578Y006760D01*
X024566Y006806D01*
X024542Y006847D01*
X024508Y006881D01*
X024467Y006904D01*
X024422Y006916D01*
X024220Y006916D01*
X024220Y006539D01*
X024183Y006539D01*
X024183Y006916D01*
X023981Y006916D01*
X023935Y006904D01*
X023894Y006881D01*
X023860Y006847D01*
X023837Y006806D01*
X023824Y006760D01*
X023824Y006538D01*
X024182Y006538D01*
X024182Y006501D01*
X023824Y006501D01*
X023824Y006280D01*
X023837Y006234D01*
X023855Y006201D01*
X023804Y006150D01*
X023804Y005551D01*
X023829Y005527D01*
X023821Y005519D01*
X023671Y005669D01*
X023671Y006796D01*
X023671Y006895D01*
X023633Y006987D01*
X022033Y008587D01*
X021963Y008657D01*
X021871Y008695D01*
X015991Y008695D01*
X015991Y020368D01*
X016025Y020402D01*
X016101Y020586D01*
X016101Y020785D01*
X016025Y020969D01*
X015884Y021109D01*
X015701Y021185D01*
X015502Y021185D01*
X015318Y021109D01*
X015177Y020969D01*
X015101Y020785D01*
X015025Y020969D01*
X014884Y021109D01*
X014701Y021185D01*
X014502Y021185D01*
X014318Y021109D01*
X014177Y020969D01*
X014101Y020785D01*
X014025Y020969D01*
X013884Y021109D01*
X013701Y021185D01*
X013502Y021185D01*
X013318Y021109D01*
X013177Y020969D01*
X013101Y020785D01*
X013025Y020969D01*
X012884Y021109D01*
X012701Y021185D01*
X012502Y021185D01*
X012318Y021109D01*
X012177Y020969D01*
X012101Y020785D01*
X012025Y020969D01*
X011884Y021109D01*
X011701Y021185D01*
X011502Y021185D01*
X011318Y021109D01*
X011177Y020969D01*
X011101Y020785D01*
X011025Y020969D01*
X010884Y021109D01*
X010701Y021185D01*
X010502Y021185D01*
X010318Y021109D01*
X010177Y020969D01*
X010101Y020785D01*
X010101Y020586D01*
X010025Y020402D01*
X009884Y020261D01*
X009701Y020185D01*
X009502Y020185D01*
X009318Y020261D01*
X009177Y020402D01*
X009101Y020586D01*
X009025Y020402D01*
X008884Y020261D01*
X008701Y020185D01*
X008502Y020185D01*
X008318Y020261D01*
X008177Y020402D01*
X008101Y020586D01*
X008101Y020785D01*
X008177Y020969D01*
X008318Y021109D01*
X008502Y021185D01*
X008701Y021185D01*
X008884Y021109D01*
X009025Y020969D01*
X009101Y020785D01*
X009101Y020586D01*
X009101Y020785D01*
X009177Y020969D01*
X009318Y021109D01*
X009502Y021185D01*
X009701Y021185D01*
X009884Y021109D01*
X010025Y020969D01*
X010101Y020785D01*
X010101Y020586D01*
X010177Y020402D01*
X010318Y020261D01*
X010502Y020185D01*
X010701Y020185D01*
X010747Y020205D01*
X007621Y017079D01*
X006762Y017938D01*
X006800Y018029D01*
X006800Y018279D01*
X006704Y018511D01*
X006526Y018688D01*
X006295Y018784D01*
X006044Y018784D01*
X005813Y018688D01*
X005636Y018511D01*
X005540Y018279D01*
X005540Y018029D01*
X005636Y017797D01*
X005771Y017662D01*
X005636Y017526D01*
X005540Y017295D01*
X005540Y017044D01*
X005636Y016813D01*
X005710Y016738D01*
X005562Y016591D01*
X005453Y016328D01*
X005453Y016043D01*
X005562Y015780D01*
X005710Y015632D01*
X005636Y015558D01*
X005540Y015326D01*
X005540Y015076D01*
X005636Y014844D01*
X005771Y014709D01*
X005636Y014574D01*
X005540Y014342D01*
X005540Y014091D01*
X005636Y013860D01*
X005813Y013683D01*
X006044Y013587D01*
X006295Y013587D01*
X006526Y013683D01*
X006704Y013860D01*
X006800Y014091D01*
X006800Y014342D01*
X006704Y014574D01*
X006703Y014574D01*
X007021Y014892D01*
X012211Y009702D01*
X012211Y003689D01*
X010311Y005589D01*
X010311Y005775D01*
X010273Y005867D01*
X010203Y005937D01*
X010114Y006026D01*
X010114Y006382D01*
X009997Y006499D01*
X009437Y006499D01*
X009320Y006382D01*
X009320Y005764D01*
X009437Y005647D01*
X009786Y005647D01*
X009811Y005622D01*
X009811Y005535D01*
X009811Y005436D01*
X009849Y005344D01*
X012889Y002304D01*
X012959Y002233D01*
X013051Y002195D01*
X013811Y002195D01*
X013811Y002002D01*
X013777Y001969D01*
X013701Y001785D01*
X013701Y001586D01*
X013625Y001402D01*
X013484Y001261D01*
X013301Y001185D01*
X013102Y001185D01*
X012918Y001261D01*
X012777Y001402D01*
X012701Y001586D01*
X012625Y001402D01*
X012484Y001261D01*
X012301Y001185D01*
X012102Y001185D01*
X011918Y001261D01*
X011777Y001402D01*
X011701Y001586D01*
X011701Y001785D01*
X011777Y001969D01*
X011918Y002109D01*
X012102Y002185D01*
X012301Y002185D01*
X012484Y002109D01*
X012625Y001969D01*
X012701Y001785D01*
X012701Y001586D01*
X012701Y001785D01*
X012777Y001969D01*
X012918Y002109D01*
X013102Y002185D01*
X013301Y002185D01*
X013484Y002109D01*
X013625Y001969D01*
X013701Y001785D01*
X013701Y001586D01*
X013777Y001402D01*
X013918Y001261D01*
X014102Y001185D01*
X014301Y001185D01*
X014484Y001261D01*
X014625Y001402D01*
X014701Y001586D01*
X014701Y001785D01*
X014625Y001969D01*
X014484Y002109D01*
X014311Y002181D01*
X014311Y002495D01*
X014273Y002587D01*
X014203Y002657D01*
X014111Y002695D01*
X014011Y002695D01*
X013205Y002695D01*
X012745Y003155D01*
X016111Y003155D01*
X016203Y003193D01*
X016273Y003264D01*
X016695Y003685D01*
X016708Y003685D01*
X016719Y003673D01*
X016811Y003635D01*
X016911Y003635D01*
X017451Y003635D01*
X017551Y003635D01*
X017804Y003635D01*
X017804Y003551D01*
X017921Y003434D01*
X018481Y003434D01*
X018598Y003551D01*
X018598Y004150D01*
X018547Y004201D01*
X018566Y004234D01*
X018578Y004280D01*
X018578Y004501D01*
X018220Y004501D01*
X018220Y004538D01*
X018578Y004538D01*
X018578Y004760D01*
X018566Y004806D01*
X018542Y004847D01*
X018508Y004881D01*
X018467Y004904D01*
X018422Y004916D01*
X018220Y004916D01*
X018220Y004539D01*
X018183Y004539D01*
X018183Y004916D01*
X017981Y004916D01*
X017935Y004904D01*
X017894Y004881D01*
X017860Y004847D01*
X017837Y004806D01*
X017824Y004760D01*
X017824Y004538D01*
X018182Y004538D01*
X018182Y004501D01*
X017824Y004501D01*
X017824Y004280D01*
X017837Y004234D01*
X017855Y004201D01*
X017804Y004150D01*
X017804Y004135D01*
X017751Y004135D01*
X017751Y005062D01*
X018123Y005434D01*
X018481Y005434D01*
X018598Y005551D01*
X018598Y006150D01*
X018547Y006201D01*
X018566Y006234D01*
X018578Y006280D01*
X018578Y006501D01*
X018220Y006501D01*
X018220Y006538D01*
X018578Y006538D01*
X018578Y006760D01*
X018566Y006806D01*
X018542Y006847D01*
X018508Y006881D01*
X018467Y006904D01*
X018422Y006916D01*
X018220Y006916D01*
X018220Y006539D01*
X018183Y006539D01*
X018183Y006916D01*
X017981Y006916D01*
X017935Y006904D01*
X017894Y006881D01*
X017860Y006847D01*
X017837Y006806D01*
X017824Y006760D01*
X017824Y006538D01*
X018182Y006538D01*
X018182Y006501D01*
X017824Y006501D01*
X017824Y006280D01*
X017837Y006234D01*
X017855Y006201D01*
X017804Y006150D01*
X017804Y005822D01*
X017359Y005377D01*
X017289Y005307D01*
X017251Y005215D01*
X017251Y004135D01*
X017201Y004135D01*
X017201Y004285D01*
X017125Y004469D01*
X016984Y004609D01*
X016801Y004685D01*
X016602Y004685D01*
X016418Y004609D01*
X016277Y004469D01*
X016201Y004285D01*
X016201Y004086D01*
X016256Y003954D01*
X015958Y003655D01*
X012711Y003655D01*
X012711Y009756D01*
X012711Y009855D01*
X012673Y009947D01*
X007375Y015245D01*
X007393Y015264D01*
X007431Y015356D01*
X007431Y015455D01*
X007431Y016182D01*
X007723Y016473D01*
X011454Y020205D01*
X011502Y020185D01*
X011701Y020185D01*
X011884Y020261D01*
X012025Y020402D01*
X012101Y020586D01*
X012101Y020785D01*
X012101Y020586D01*
X012177Y020402D01*
X012318Y020261D01*
X012502Y020185D01*
X012701Y020185D01*
X012884Y020261D01*
X013025Y020402D01*
X013101Y020586D01*
X013101Y020785D01*
X013101Y020586D01*
X013177Y020402D01*
X013318Y020261D01*
X013491Y020190D01*
X013491Y010335D01*
X013491Y010236D01*
X013529Y010144D01*
X015011Y008662D01*
X015011Y008582D01*
X014984Y008609D01*
X014801Y008685D01*
X014602Y008685D01*
X014418Y008609D01*
X014277Y008469D01*
X014201Y008285D01*
X014125Y008469D01*
X013984Y008609D01*
X013801Y008685D01*
X013602Y008685D01*
X013418Y008609D01*
X013277Y008469D01*
X013201Y008285D01*
X013201Y008086D01*
X013277Y007902D01*
X013418Y007761D01*
X013602Y007685D01*
X013418Y007609D01*
X013277Y007469D01*
X013201Y007285D01*
X013201Y007086D01*
X013277Y006902D01*
X013418Y006761D01*
X013602Y006685D01*
X013418Y006609D01*
X013277Y006469D01*
X013201Y006285D01*
X013201Y006086D01*
X013277Y005902D01*
X013418Y005761D01*
X013602Y005685D01*
X013418Y005609D01*
X013277Y005469D01*
X013201Y005285D01*
X013201Y005086D01*
X013277Y004902D01*
X013418Y004761D01*
X013602Y004685D01*
X013418Y004609D01*
X013277Y004469D01*
X013201Y004285D01*
X013201Y004086D01*
X013277Y003902D01*
X013418Y003761D01*
X013602Y003685D01*
X013801Y003685D01*
X013984Y003761D01*
X014125Y003902D01*
X014201Y004086D01*
X014201Y004285D01*
X014201Y004086D01*
X014277Y003902D01*
X014418Y003761D01*
X014602Y003685D01*
X014801Y003685D01*
X014984Y003761D01*
X015125Y003902D01*
X015201Y004086D01*
X015201Y004285D01*
X015125Y004469D01*
X014984Y004609D01*
X014801Y004685D01*
X014602Y004685D01*
X014418Y004609D01*
X014277Y004469D01*
X014201Y004285D01*
X014125Y004469D01*
X013984Y004609D01*
X013801Y004685D01*
X013602Y004685D01*
X013801Y004685D01*
X013984Y004761D01*
X014125Y004902D01*
X014201Y005086D01*
X014201Y005285D01*
X014125Y005469D01*
X013984Y005609D01*
X013801Y005685D01*
X013602Y005685D01*
X013801Y005685D01*
X013984Y005761D01*
X014125Y005902D01*
X014201Y006086D01*
X014201Y006285D01*
X014125Y006469D01*
X013984Y006609D01*
X013801Y006685D01*
X013602Y006685D01*
X013801Y006685D01*
X013984Y006761D01*
X014125Y006902D01*
X014201Y007086D01*
X014201Y007285D01*
X014125Y007469D01*
X013984Y007609D01*
X013801Y007685D01*
X013602Y007685D01*
X013801Y007685D01*
X013984Y007761D01*
X014125Y007902D01*
X014201Y008086D01*
X014201Y008285D01*
X014201Y008086D01*
X014277Y007902D01*
X014418Y007761D01*
X014602Y007685D01*
X014418Y007609D01*
X014277Y007469D01*
X014201Y007285D01*
X014201Y007086D01*
X014277Y006902D01*
X014418Y006761D01*
X014602Y006685D01*
X014418Y006609D01*
X014277Y006469D01*
X014201Y006285D01*
X014201Y006086D01*
X014277Y005902D01*
X014418Y005761D01*
X014602Y005685D01*
X014418Y005609D01*
X014277Y005469D01*
X014201Y005285D01*
X014201Y005086D01*
X014277Y004902D01*
X014418Y004761D01*
X014602Y004685D01*
X014801Y004685D01*
X014984Y004761D01*
X015125Y004902D01*
X015201Y005086D01*
X015201Y005152D01*
X015953Y005904D01*
X015991Y005996D01*
X015991Y006095D01*
X015991Y008195D01*
X017370Y008195D01*
X017341Y008125D01*
X017341Y007966D01*
X017402Y007819D01*
X017514Y007706D01*
X017661Y007645D01*
X017788Y007645D01*
X018611Y006822D01*
X018611Y005836D01*
X018649Y005744D01*
X018719Y005673D01*
X018811Y005635D01*
X018911Y005635D01*
X019304Y005635D01*
X019304Y005551D01*
X019421Y005434D01*
X019525Y005434D01*
X019529Y005424D01*
X019599Y005353D01*
X020131Y004822D01*
X020131Y004135D01*
X020098Y004135D01*
X020098Y004150D01*
X020047Y004201D01*
X020066Y004234D01*
X020078Y004280D01*
X020078Y004501D01*
X019720Y004501D01*
X019720Y004538D01*
X020078Y004538D01*
X020078Y004760D01*
X020066Y004806D01*
X020042Y004847D01*
X020008Y004881D01*
X019967Y004904D01*
X019922Y004916D01*
X019720Y004916D01*
X019720Y004539D01*
X019683Y004539D01*
X019683Y004916D01*
X019481Y004916D01*
X019435Y004904D01*
X019394Y004881D01*
X019360Y004847D01*
X019337Y004806D01*
X019324Y004760D01*
X019324Y004538D01*
X019682Y004538D01*
X019682Y004501D01*
X019324Y004501D01*
X019324Y004280D01*
X019337Y004234D01*
X019355Y004201D01*
X019304Y004150D01*
X019304Y003551D01*
X019421Y003434D01*
X019981Y003434D01*
X020098Y003551D01*
X020098Y003635D01*
X020331Y003635D01*
X020431Y003635D01*
X020523Y003673D01*
X020593Y003744D01*
X020631Y003836D01*
X020631Y004876D01*
X020631Y004975D01*
X020593Y005067D01*
X020098Y005562D01*
X020098Y006150D01*
X020047Y006201D01*
X020051Y006209D01*
X020131Y006130D01*
X020131Y005836D01*
X020169Y005744D01*
X020239Y005673D01*
X020331Y005635D01*
X020431Y005635D01*
X020804Y005635D01*
X020804Y005551D01*
X020921Y005434D01*
X021012Y005434D01*
X021049Y005344D01*
X021119Y005273D01*
X021651Y004742D01*
X021651Y004135D01*
X021598Y004135D01*
X021598Y004150D01*
X021547Y004201D01*
X021566Y004234D01*
X021578Y004280D01*
X021578Y004501D01*
X021220Y004501D01*
X021220Y004538D01*
X021578Y004538D01*
X021578Y004760D01*
X021566Y004806D01*
X021542Y004847D01*
X021508Y004881D01*
X021467Y004904D01*
X021422Y004916D01*
X021220Y004916D01*
X021220Y004539D01*
X021183Y004539D01*
X021183Y004916D01*
X020981Y004916D01*
X020935Y004904D01*
X020894Y004881D01*
X020860Y004847D01*
X020837Y004806D01*
X020824Y004760D01*
X020824Y004538D01*
X021182Y004538D01*
X021182Y004501D01*
X020824Y004501D01*
X020824Y004280D01*
X020837Y004234D01*
X020855Y004201D01*
X020804Y004150D01*
X020804Y003551D01*
X020921Y003434D01*
X021481Y003434D01*
X021598Y003551D01*
X021598Y003635D01*
X021851Y003635D01*
X021951Y003635D01*
X022043Y003673D01*
X022113Y003744D01*
X022151Y003836D01*
X022151Y004796D01*
X022151Y004895D01*
X022113Y004987D01*
X021573Y005527D01*
X021598Y005551D01*
X021598Y006150D01*
X021547Y006201D01*
X021566Y006234D01*
X021578Y006280D01*
X021578Y006501D01*
X021220Y006501D01*
X021220Y006538D01*
X021578Y006538D01*
X021578Y006760D01*
X021566Y006806D01*
X021542Y006847D01*
X021508Y006881D01*
X021467Y006904D01*
X021422Y006916D01*
X021220Y006916D01*
X021220Y006539D01*
X021183Y006539D01*
X021183Y006916D01*
X020981Y006916D01*
X020935Y006904D01*
X020894Y006881D01*
X020860Y006847D01*
X020837Y006806D01*
X020824Y006760D01*
X020824Y006538D01*
X021182Y006538D01*
X021182Y006501D01*
X020824Y006501D01*
X020824Y006280D01*
X020837Y006234D01*
X020855Y006201D01*
X020804Y006150D01*
X020804Y006135D01*
X020637Y006135D01*
X020720Y006219D01*
X020781Y006366D01*
X020781Y006525D01*
X020720Y006672D01*
X020608Y006784D01*
X020461Y006845D01*
X020301Y006845D01*
X020154Y006784D01*
X020078Y006708D01*
X020078Y006760D01*
X020066Y006806D01*
X020042Y006847D01*
X020008Y006881D01*
X019967Y006904D01*
X019922Y006916D01*
X019720Y006916D01*
X019720Y006539D01*
X019683Y006539D01*
X019683Y006916D01*
X019481Y006916D01*
X019435Y006904D01*
X019394Y006881D01*
X019360Y006847D01*
X019337Y006806D01*
X019324Y006760D01*
X019324Y006538D01*
X019682Y006538D01*
X019682Y006501D01*
X019324Y006501D01*
X019324Y006280D01*
X019337Y006234D01*
X019355Y006201D01*
X019304Y006150D01*
X019304Y006135D01*
X019111Y006135D01*
X019111Y006876D01*
X019111Y006975D01*
X019073Y007067D01*
X018141Y007999D01*
X018141Y008125D01*
X018112Y008195D01*
X021718Y008195D01*
X023171Y006742D01*
X023171Y005516D01*
X023209Y005424D01*
X023279Y005353D01*
X023468Y005165D01*
X023461Y005159D01*
X023083Y005537D01*
X023098Y005551D01*
X023098Y006150D01*
X023047Y006201D01*
X023066Y006234D01*
X023078Y006280D01*
X023078Y006501D01*
X022720Y006501D01*
X022720Y006538D01*
X023078Y006538D01*
X023078Y006760D01*
X023066Y006806D01*
X023042Y006847D01*
X023008Y006881D01*
X022967Y006904D01*
X022922Y006916D01*
X022720Y006916D01*
X022720Y006539D01*
X022683Y006539D01*
X022683Y006916D01*
X022481Y006916D01*
X022435Y006904D01*
X022394Y006881D01*
X022360Y006847D01*
X022337Y006806D01*
X022324Y006760D01*
X022324Y006538D01*
X022682Y006538D01*
X022682Y006501D01*
X022324Y006501D01*
X022324Y006280D01*
X022326Y006275D01*
X022301Y006285D01*
X022141Y006285D01*
X021994Y006224D01*
X021882Y006112D01*
X021821Y005965D01*
X021821Y005806D01*
X021882Y005659D01*
X021994Y005546D01*
X022141Y005485D01*
X022301Y005485D01*
X022350Y005506D01*
X022421Y005434D01*
X022485Y005434D01*
X022489Y005424D01*
X022559Y005353D01*
X023091Y004822D01*
X023091Y004157D01*
X023047Y004201D01*
X023066Y004234D01*
X023078Y004280D01*
X023078Y004501D01*
X022720Y004501D01*
X022720Y004538D01*
X023078Y004538D01*
X023078Y004760D01*
X023066Y004806D01*
X023042Y004847D01*
X023008Y004881D01*
X022967Y004904D01*
X022922Y004916D01*
X022720Y004916D01*
X022720Y004539D01*
X022683Y004539D01*
X022683Y004916D01*
X022481Y004916D01*
X022435Y004904D01*
X022394Y004881D01*
X022360Y004847D01*
X022337Y004806D01*
X022324Y004760D01*
X022324Y004538D01*
X022682Y004538D01*
X022682Y004501D01*
X022324Y004501D01*
X022324Y004280D01*
X022337Y004234D01*
X022355Y004201D01*
X022304Y004150D01*
X022304Y003551D01*
X022421Y003434D01*
X022981Y003434D01*
X023098Y003551D01*
X023098Y003635D01*
X023291Y003635D01*
X023391Y003635D01*
X023461Y003664D01*
X023531Y003635D01*
X023631Y003635D01*
X023804Y003635D01*
X023804Y003551D01*
X023921Y003434D01*
X024481Y003434D01*
X024591Y003545D01*
X024591Y002002D01*
X024484Y002109D01*
X024301Y002185D01*
X024102Y002185D01*
X023918Y002109D01*
X023777Y001969D01*
X023701Y001785D01*
X023625Y001969D01*
X023484Y002109D01*
X023301Y002185D01*
X023102Y002185D01*
X022918Y002109D01*
X022777Y001969D01*
X022701Y001785D01*
X022701Y001586D01*
X022625Y001402D01*
X022484Y001261D01*
X022301Y001185D01*
X022102Y001185D01*
X021918Y001261D01*
X021777Y001402D01*
X021701Y001586D01*
X021625Y001402D01*
X021484Y001261D01*
X021301Y001185D01*
X021102Y001185D01*
X020918Y001261D01*
X020777Y001402D01*
X020701Y001586D01*
X020625Y001402D01*
X020484Y001261D01*
X020301Y001185D01*
X020102Y001185D01*
X019918Y001261D01*
X019777Y001402D01*
X019701Y001586D01*
X019625Y001402D01*
X019484Y001261D01*
X019301Y001185D01*
X019102Y001185D01*
X018918Y001261D01*
X018777Y001402D01*
X018701Y001586D01*
X018701Y001785D01*
X018777Y001969D01*
X018918Y002109D01*
X019102Y002185D01*
X019301Y002185D01*
X019484Y002109D01*
X019625Y001969D01*
X019701Y001785D01*
X019701Y001586D01*
X019701Y001785D01*
X019777Y001969D01*
X019918Y002109D01*
X020102Y002185D01*
X020301Y002185D01*
X020484Y002109D01*
X020625Y001969D01*
X020701Y001785D01*
X020701Y001586D01*
X020701Y001785D01*
X020777Y001969D01*
X020918Y002109D01*
X021102Y002185D01*
X021301Y002185D01*
X021484Y002109D01*
X021625Y001969D01*
X021701Y001785D01*
X021701Y001586D01*
X021701Y001785D01*
X021777Y001969D01*
X021918Y002109D01*
X022102Y002185D01*
X022301Y002185D01*
X022484Y002109D01*
X022625Y001969D01*
X022701Y001785D01*
X022701Y001586D01*
X022777Y001402D01*
X022918Y001261D01*
X023102Y001185D01*
X023301Y001185D01*
X023484Y001261D01*
X023625Y001402D01*
X023701Y001586D01*
X023701Y001785D01*
X023701Y001586D01*
X023777Y001402D01*
X023918Y001261D01*
X024102Y001185D01*
X024301Y001185D01*
X024484Y001261D01*
X024591Y001368D01*
X024591Y001165D01*
X007713Y001165D01*
X007938Y001295D01*
X008161Y001519D01*
X008319Y001792D01*
X008401Y002097D01*
X008401Y002413D01*
X008319Y002719D01*
X008161Y002992D01*
X007938Y003216D01*
X007664Y003374D01*
X007359Y003455D01*
X007043Y003455D01*
X006738Y003374D01*
X006464Y003216D01*
X006241Y002992D01*
X006083Y002719D01*
X006001Y002413D01*
X006001Y002097D01*
X006083Y001792D01*
X006241Y001519D01*
X006464Y001295D01*
X006689Y001165D01*
X003181Y001165D01*
X003181Y013501D01*
X003359Y013501D01*
X003623Y013610D01*
X003709Y013696D01*
X003795Y013610D01*
X004059Y013501D01*
X004344Y013501D01*
X004607Y013610D01*
X004808Y013811D01*
X004917Y014074D01*
X004917Y014359D01*
X004808Y014623D01*
X004607Y014824D01*
X004344Y014933D01*
X004059Y014933D01*
X003795Y014824D01*
X003709Y014738D01*
X003623Y014824D01*
X003359Y014933D01*
X003181Y014933D01*
X003181Y017438D01*
X003359Y017438D01*
X003623Y017547D01*
X003709Y017633D01*
X003795Y017547D01*
X004059Y017438D01*
X004344Y017438D01*
X004607Y017547D01*
X004808Y017748D01*
X004917Y018011D01*
X004917Y018296D01*
X004808Y018560D01*
X004607Y018761D01*
X004344Y018870D01*
X004059Y018870D01*
X003795Y018761D01*
X003709Y018675D01*
X003623Y018761D01*
X003359Y018870D01*
X003181Y018870D01*
X003181Y021201D01*
X024591Y021201D01*
X024591Y021002D01*
X024484Y021109D01*
X024301Y021185D01*
X024102Y021185D01*
X023918Y021109D01*
X023777Y020969D01*
X023701Y020785D01*
X023701Y020586D01*
X023701Y020662D02*
X023701Y020662D01*
X023686Y020820D02*
X023716Y020820D01*
X023788Y020979D02*
X023615Y020979D01*
X023416Y021137D02*
X023986Y021137D01*
X024416Y021137D02*
X024591Y021137D01*
X023687Y020345D02*
X023568Y020345D01*
X023528Y020186D02*
X023303Y020186D01*
X023370Y020028D02*
X015991Y020028D01*
X015991Y020186D02*
X017100Y020186D01*
X017303Y020186D02*
X018100Y020186D01*
X018303Y020186D02*
X019100Y020186D01*
X019303Y020186D02*
X020100Y020186D01*
X020303Y020186D02*
X021100Y020186D01*
X021303Y020186D02*
X022100Y020186D01*
X022303Y020186D02*
X023100Y020186D01*
X022835Y020345D02*
X022568Y020345D01*
X022667Y020503D02*
X022735Y020503D01*
X022701Y020662D02*
X022701Y020662D01*
X022686Y020820D02*
X022716Y020820D01*
X022788Y020979D02*
X022615Y020979D01*
X022416Y021137D02*
X022986Y021137D01*
X021986Y021137D02*
X021416Y021137D01*
X021615Y020979D02*
X021788Y020979D01*
X021716Y020820D02*
X021686Y020820D01*
X021701Y020662D02*
X021701Y020662D01*
X021667Y020503D02*
X021735Y020503D01*
X021835Y020345D02*
X021568Y020345D01*
X020835Y020345D02*
X020568Y020345D01*
X020667Y020503D02*
X020735Y020503D01*
X020701Y020662D02*
X020701Y020662D01*
X020686Y020820D02*
X020716Y020820D01*
X020788Y020979D02*
X020615Y020979D01*
X020416Y021137D02*
X020986Y021137D01*
X019986Y021137D02*
X019416Y021137D01*
X019615Y020979D02*
X019788Y020979D01*
X019716Y020820D02*
X019686Y020820D01*
X019701Y020662D02*
X019701Y020662D01*
X019667Y020503D02*
X019735Y020503D01*
X019835Y020345D02*
X019568Y020345D01*
X018835Y020345D02*
X018568Y020345D01*
X018667Y020503D02*
X018735Y020503D01*
X018701Y020662D02*
X018701Y020662D01*
X018686Y020820D02*
X018716Y020820D01*
X018788Y020979D02*
X018615Y020979D01*
X018416Y021137D02*
X018986Y021137D01*
X017986Y021137D02*
X017416Y021137D01*
X017615Y020979D02*
X017788Y020979D01*
X017716Y020820D02*
X017686Y020820D01*
X017701Y020662D02*
X017701Y020662D01*
X017667Y020503D02*
X017735Y020503D01*
X017835Y020345D02*
X017568Y020345D01*
X016835Y020345D02*
X015991Y020345D01*
X016067Y020503D02*
X016735Y020503D01*
X016701Y020662D02*
X016101Y020662D01*
X016086Y020820D02*
X016716Y020820D01*
X016788Y020979D02*
X016015Y020979D01*
X015816Y021137D02*
X016986Y021137D01*
X015386Y021137D02*
X014816Y021137D01*
X015015Y020979D02*
X015188Y020979D01*
X015116Y020820D02*
X015086Y020820D01*
X015101Y020785D02*
X015101Y020586D01*
X015093Y020567D01*
X015120Y020540D01*
X015101Y020586D01*
X015101Y020785D01*
X015101Y020662D02*
X015101Y020662D01*
X014748Y020205D02*
X015251Y019702D01*
X015251Y009129D01*
X013991Y010389D01*
X013991Y020368D01*
X014025Y020402D01*
X014101Y020586D01*
X014101Y020785D01*
X014101Y020586D01*
X014177Y020402D01*
X014318Y020261D01*
X014502Y020185D01*
X014701Y020185D01*
X014748Y020205D01*
X014767Y020186D02*
X014703Y020186D01*
X014500Y020186D02*
X013991Y020186D01*
X013991Y020028D02*
X014925Y020028D01*
X015084Y019869D02*
X013991Y019869D01*
X013991Y019711D02*
X015242Y019711D01*
X015251Y019552D02*
X013991Y019552D01*
X013991Y019393D02*
X015251Y019393D01*
X015251Y019235D02*
X013991Y019235D01*
X013991Y019076D02*
X015251Y019076D01*
X015251Y018918D02*
X013991Y018918D01*
X013991Y018759D02*
X015251Y018759D01*
X015251Y018601D02*
X013991Y018601D01*
X013991Y018442D02*
X015251Y018442D01*
X015251Y018284D02*
X013991Y018284D01*
X013991Y018125D02*
X015251Y018125D01*
X015251Y017967D02*
X013991Y017967D01*
X013991Y017808D02*
X015251Y017808D01*
X015251Y017649D02*
X013991Y017649D01*
X013991Y017491D02*
X015251Y017491D01*
X015251Y017332D02*
X013991Y017332D01*
X013991Y017174D02*
X015251Y017174D01*
X015251Y017015D02*
X013991Y017015D01*
X013991Y016857D02*
X015251Y016857D01*
X015251Y016698D02*
X013991Y016698D01*
X013991Y016540D02*
X015251Y016540D01*
X015251Y016381D02*
X013991Y016381D01*
X013991Y016223D02*
X015251Y016223D01*
X015251Y016064D02*
X013991Y016064D01*
X013991Y015906D02*
X015251Y015906D01*
X015251Y015747D02*
X013991Y015747D01*
X013991Y015588D02*
X015251Y015588D01*
X015251Y015430D02*
X013991Y015430D01*
X013991Y015271D02*
X015251Y015271D01*
X015251Y015113D02*
X013991Y015113D01*
X013991Y014954D02*
X015251Y014954D01*
X015251Y014796D02*
X013991Y014796D01*
X013991Y014637D02*
X015251Y014637D01*
X015251Y014479D02*
X013991Y014479D01*
X013991Y014320D02*
X015251Y014320D01*
X015251Y014162D02*
X013991Y014162D01*
X013991Y014003D02*
X015251Y014003D01*
X015251Y013844D02*
X013991Y013844D01*
X013991Y013686D02*
X015251Y013686D01*
X015251Y013527D02*
X013991Y013527D01*
X013991Y013369D02*
X015251Y013369D01*
X015251Y013210D02*
X013991Y013210D01*
X013991Y013052D02*
X015251Y013052D01*
X015251Y012893D02*
X013991Y012893D01*
X013991Y012735D02*
X015251Y012735D01*
X015251Y012576D02*
X013991Y012576D01*
X013991Y012418D02*
X015251Y012418D01*
X015251Y012259D02*
X013991Y012259D01*
X013991Y012100D02*
X015251Y012100D01*
X015251Y011942D02*
X013991Y011942D01*
X013991Y011783D02*
X015251Y011783D01*
X015251Y011625D02*
X013991Y011625D01*
X013991Y011466D02*
X015251Y011466D01*
X015251Y011308D02*
X013991Y011308D01*
X013991Y011149D02*
X015251Y011149D01*
X015251Y010991D02*
X013991Y010991D01*
X013991Y010832D02*
X015251Y010832D01*
X015251Y010674D02*
X013991Y010674D01*
X013991Y010515D02*
X015251Y010515D01*
X015251Y010356D02*
X014023Y010356D01*
X014182Y010198D02*
X015251Y010198D01*
X015251Y010039D02*
X014341Y010039D01*
X014499Y009881D02*
X015251Y009881D01*
X015251Y009722D02*
X014658Y009722D01*
X014816Y009564D02*
X015251Y009564D01*
X015251Y009405D02*
X014975Y009405D01*
X015133Y009247D02*
X015251Y009247D01*
X014902Y008771D02*
X012711Y008771D01*
X012711Y008613D02*
X013426Y008613D01*
X013271Y008454D02*
X012711Y008454D01*
X012711Y008295D02*
X013206Y008295D01*
X013201Y008137D02*
X012711Y008137D01*
X012711Y007978D02*
X013246Y007978D01*
X013360Y007820D02*
X012711Y007820D01*
X012711Y007661D02*
X013544Y007661D01*
X013311Y007503D02*
X012711Y007503D01*
X012711Y007344D02*
X013226Y007344D01*
X013201Y007186D02*
X012711Y007186D01*
X012711Y007027D02*
X013225Y007027D01*
X013311Y006869D02*
X012711Y006869D01*
X012711Y006710D02*
X013542Y006710D01*
X013360Y006551D02*
X012711Y006551D01*
X012711Y006393D02*
X013246Y006393D01*
X013201Y006234D02*
X012711Y006234D01*
X012711Y006076D02*
X013205Y006076D01*
X013271Y005917D02*
X012711Y005917D01*
X012711Y005759D02*
X013424Y005759D01*
X013409Y005600D02*
X012711Y005600D01*
X012711Y005442D02*
X013266Y005442D01*
X013201Y005283D02*
X012711Y005283D01*
X012711Y005125D02*
X013201Y005125D01*
X013251Y004966D02*
X012711Y004966D01*
X012711Y004807D02*
X013372Y004807D01*
X013514Y004649D02*
X012711Y004649D01*
X012711Y004490D02*
X013299Y004490D01*
X013221Y004332D02*
X012711Y004332D01*
X012711Y004173D02*
X013201Y004173D01*
X013231Y004015D02*
X012711Y004015D01*
X012711Y003856D02*
X013323Y003856D01*
X013572Y003698D02*
X012711Y003698D01*
X012211Y003698D02*
X012202Y003698D01*
X012211Y003856D02*
X012044Y003856D01*
X011885Y004015D02*
X012211Y004015D01*
X012211Y004173D02*
X011727Y004173D01*
X011568Y004332D02*
X012211Y004332D01*
X012211Y004490D02*
X011410Y004490D01*
X011251Y004649D02*
X012211Y004649D01*
X012211Y004807D02*
X011092Y004807D01*
X010934Y004966D02*
X012211Y004966D01*
X012211Y005125D02*
X010775Y005125D01*
X010617Y005283D02*
X012211Y005283D01*
X012211Y005442D02*
X010458Y005442D01*
X010311Y005600D02*
X012211Y005600D01*
X012211Y005759D02*
X012077Y005759D01*
X012082Y005764D02*
X012082Y006382D01*
X011965Y006499D01*
X011406Y006499D01*
X011289Y006382D01*
X011289Y005764D01*
X011406Y005647D01*
X011965Y005647D01*
X012082Y005764D01*
X012082Y005917D02*
X012211Y005917D01*
X012211Y006076D02*
X012082Y006076D01*
X012082Y006234D02*
X012211Y006234D01*
X012211Y006393D02*
X012072Y006393D01*
X012211Y006551D02*
X011453Y006551D01*
X011420Y006538D02*
X011658Y006637D01*
X011840Y006819D01*
X011939Y007057D01*
X011939Y007314D01*
X011840Y007552D01*
X011658Y007734D01*
X011420Y007833D01*
X011163Y007833D01*
X010925Y007734D01*
X010743Y007552D01*
X010701Y007451D01*
X010659Y007552D01*
X010477Y007734D01*
X010239Y007833D01*
X009982Y007833D01*
X009744Y007734D01*
X009562Y007552D01*
X009463Y007314D01*
X009463Y007057D01*
X009562Y006819D01*
X009744Y006637D01*
X009982Y006538D01*
X010239Y006538D01*
X010477Y006637D01*
X010659Y006819D01*
X010701Y006920D01*
X010743Y006819D01*
X010925Y006637D01*
X011163Y006538D01*
X011420Y006538D01*
X011299Y006393D02*
X011052Y006393D01*
X011042Y006410D02*
X011008Y006444D01*
X010967Y006467D01*
X010922Y006479D01*
X010720Y006479D01*
X010720Y006092D01*
X011078Y006092D01*
X011078Y006323D01*
X011066Y006369D01*
X011042Y006410D01*
X011130Y006551D02*
X010272Y006551D01*
X010394Y006444D02*
X010360Y006410D01*
X010337Y006369D01*
X010324Y006323D01*
X010324Y006092D01*
X010682Y006092D01*
X010682Y006055D01*
X010324Y006055D01*
X010324Y005823D01*
X010337Y005777D01*
X010360Y005736D01*
X010394Y005703D01*
X010435Y005679D01*
X010481Y005667D01*
X010683Y005667D01*
X010683Y006054D01*
X010720Y006054D01*
X010720Y005667D01*
X010922Y005667D01*
X010967Y005679D01*
X011008Y005703D01*
X011042Y005736D01*
X011066Y005777D01*
X011078Y005823D01*
X011078Y006055D01*
X010720Y006055D01*
X010720Y006092D01*
X010683Y006092D01*
X010683Y006479D01*
X010481Y006479D01*
X010435Y006467D01*
X010394Y006444D01*
X010350Y006393D02*
X010103Y006393D01*
X010114Y006234D02*
X010324Y006234D01*
X010114Y006076D02*
X010682Y006076D01*
X010720Y006076D02*
X011289Y006076D01*
X011289Y006234D02*
X011078Y006234D01*
X011078Y005917D02*
X011289Y005917D01*
X011294Y005759D02*
X011055Y005759D01*
X010720Y005759D02*
X010683Y005759D01*
X010683Y005917D02*
X010720Y005917D01*
X010324Y005917D02*
X010223Y005917D01*
X010311Y005759D02*
X010347Y005759D01*
X009811Y005600D02*
X007201Y005600D01*
X007201Y005442D02*
X007410Y005442D01*
X007494Y005525D02*
X007201Y005232D01*
X007201Y004818D01*
X007494Y004525D01*
X007908Y004525D01*
X008201Y004818D01*
X008201Y005232D01*
X007908Y005525D01*
X007494Y005525D01*
X007494Y005605D02*
X007908Y005605D01*
X008201Y005898D01*
X008201Y006312D01*
X007908Y006605D01*
X007494Y006605D01*
X007201Y006312D01*
X007201Y005898D01*
X007494Y005605D01*
X007341Y005759D02*
X007201Y005759D01*
X007201Y005772D02*
X007201Y005358D01*
X006908Y005065D01*
X006494Y005065D01*
X006201Y005358D01*
X006201Y005772D01*
X006494Y006065D01*
X006908Y006065D01*
X007201Y005772D01*
X007201Y005917D02*
X007056Y005917D01*
X007201Y006076D02*
X003181Y006076D01*
X003181Y006234D02*
X006405Y006234D01*
X006494Y006145D02*
X006201Y006438D01*
X006201Y006852D01*
X006494Y007145D01*
X006908Y007145D01*
X007201Y006852D01*
X007201Y006438D01*
X006908Y006145D01*
X006494Y006145D01*
X006346Y005917D02*
X003181Y005917D01*
X003181Y005759D02*
X006201Y005759D01*
X006201Y005600D02*
X003181Y005600D01*
X003181Y005442D02*
X006201Y005442D01*
X006276Y005283D02*
X003181Y005283D01*
X003181Y005125D02*
X006435Y005125D01*
X006967Y005125D02*
X007201Y005125D01*
X007201Y004966D02*
X003181Y004966D01*
X003181Y004807D02*
X007212Y004807D01*
X007370Y004649D02*
X003181Y004649D01*
X003181Y004490D02*
X010703Y004490D01*
X010861Y004332D02*
X003181Y004332D01*
X003181Y004173D02*
X011020Y004173D01*
X011178Y004015D02*
X003181Y004015D01*
X003181Y003856D02*
X011337Y003856D01*
X011495Y003698D02*
X003181Y003698D01*
X003181Y003539D02*
X011654Y003539D01*
X011812Y003381D02*
X007638Y003381D01*
X007927Y003222D02*
X011971Y003222D01*
X012129Y003064D02*
X008090Y003064D01*
X008212Y002905D02*
X012288Y002905D01*
X012446Y002746D02*
X008303Y002746D01*
X008354Y002588D02*
X012605Y002588D01*
X012764Y002429D02*
X008397Y002429D01*
X008401Y002271D02*
X012922Y002271D01*
X012925Y002112D02*
X012477Y002112D01*
X012631Y001954D02*
X012771Y001954D01*
X012705Y001795D02*
X012697Y001795D01*
X012701Y001637D02*
X012701Y001637D01*
X012656Y001478D02*
X012746Y001478D01*
X012860Y001320D02*
X012542Y001320D01*
X011860Y001320D02*
X007962Y001320D01*
X008121Y001478D02*
X011746Y001478D01*
X011701Y001637D02*
X008229Y001637D01*
X008320Y001795D02*
X011705Y001795D01*
X011771Y001954D02*
X008363Y001954D01*
X008401Y002112D02*
X011925Y002112D01*
X012836Y003064D02*
X024591Y003064D01*
X024591Y003222D02*
X016231Y003222D01*
X016390Y003381D02*
X024591Y003381D01*
X024586Y003539D02*
X024591Y003539D01*
X024591Y002905D02*
X012995Y002905D01*
X013154Y002746D02*
X024591Y002746D01*
X024591Y002588D02*
X014272Y002588D01*
X014311Y002429D02*
X024591Y002429D01*
X024591Y002271D02*
X014311Y002271D01*
X014477Y002112D02*
X014925Y002112D01*
X014918Y002109D02*
X014777Y001969D01*
X014701Y001785D01*
X014701Y001586D01*
X014777Y001402D01*
X014918Y001261D01*
X015102Y001185D01*
X015301Y001185D01*
X015484Y001261D01*
X015625Y001402D01*
X015701Y001586D01*
X015701Y001785D01*
X015625Y001969D01*
X015484Y002109D01*
X015301Y002185D01*
X015102Y002185D01*
X014918Y002109D01*
X014771Y001954D02*
X014631Y001954D01*
X014697Y001795D02*
X014705Y001795D01*
X014701Y001637D02*
X014701Y001637D01*
X014656Y001478D02*
X014746Y001478D01*
X014860Y001320D02*
X014542Y001320D01*
X013860Y001320D02*
X013542Y001320D01*
X013656Y001478D02*
X013746Y001478D01*
X013701Y001637D02*
X013701Y001637D01*
X013697Y001795D02*
X013705Y001795D01*
X013771Y001954D02*
X013631Y001954D01*
X013477Y002112D02*
X013811Y002112D01*
X013830Y003698D02*
X014572Y003698D01*
X014830Y003698D02*
X016000Y003698D01*
X016159Y003856D02*
X015079Y003856D01*
X015172Y004015D02*
X016231Y004015D01*
X016201Y004173D02*
X015201Y004173D01*
X015182Y004332D02*
X016221Y004332D01*
X016299Y004490D02*
X015103Y004490D01*
X014888Y004649D02*
X016514Y004649D01*
X016888Y004649D02*
X017251Y004649D01*
X017251Y004807D02*
X015030Y004807D01*
X015151Y004966D02*
X017251Y004966D01*
X017251Y005125D02*
X015201Y005125D01*
X015332Y005283D02*
X017279Y005283D01*
X017424Y005442D02*
X015491Y005442D01*
X015649Y005600D02*
X017582Y005600D01*
X017741Y005759D02*
X015808Y005759D01*
X015959Y005917D02*
X017804Y005917D01*
X017804Y006076D02*
X015991Y006076D01*
X015991Y006234D02*
X017836Y006234D01*
X017824Y006393D02*
X015991Y006393D01*
X015991Y006551D02*
X017824Y006551D01*
X017824Y006710D02*
X015991Y006710D01*
X015991Y006869D02*
X017882Y006869D01*
X018183Y006869D02*
X018220Y006869D01*
X018220Y006710D02*
X018183Y006710D01*
X018183Y006551D02*
X018220Y006551D01*
X018520Y006869D02*
X018564Y006869D01*
X018578Y006710D02*
X018611Y006710D01*
X018611Y006551D02*
X018578Y006551D01*
X018578Y006393D02*
X018611Y006393D01*
X018611Y006234D02*
X018566Y006234D01*
X018598Y006076D02*
X018611Y006076D01*
X018598Y005917D02*
X018611Y005917D01*
X018598Y005759D02*
X018643Y005759D01*
X018598Y005600D02*
X019304Y005600D01*
X019414Y005442D02*
X018488Y005442D01*
X017972Y005283D02*
X019670Y005283D01*
X019828Y005125D02*
X017814Y005125D01*
X017751Y004966D02*
X019987Y004966D01*
X020065Y004807D02*
X020131Y004807D01*
X020131Y004649D02*
X020078Y004649D01*
X020078Y004490D02*
X020131Y004490D01*
X020131Y004332D02*
X020078Y004332D01*
X020075Y004173D02*
X020131Y004173D01*
X020631Y004173D02*
X020828Y004173D01*
X020824Y004332D02*
X020631Y004332D01*
X020631Y004490D02*
X020824Y004490D01*
X020824Y004649D02*
X020631Y004649D01*
X020631Y004807D02*
X020837Y004807D01*
X020631Y004966D02*
X021427Y004966D01*
X021565Y004807D02*
X021585Y004807D01*
X021578Y004649D02*
X021651Y004649D01*
X021651Y004490D02*
X021578Y004490D01*
X021578Y004332D02*
X021651Y004332D01*
X021651Y004173D02*
X021575Y004173D01*
X022151Y004173D02*
X022328Y004173D01*
X022324Y004332D02*
X022151Y004332D01*
X022151Y004490D02*
X022324Y004490D01*
X022324Y004649D02*
X022151Y004649D01*
X022151Y004807D02*
X022337Y004807D01*
X022122Y004966D02*
X022947Y004966D01*
X023065Y004807D02*
X023091Y004807D01*
X023078Y004649D02*
X023091Y004649D01*
X023078Y004490D02*
X023091Y004490D01*
X023078Y004332D02*
X023091Y004332D01*
X023075Y004173D02*
X023091Y004173D01*
X022720Y004649D02*
X022683Y004649D01*
X022683Y004807D02*
X022720Y004807D01*
X022788Y005125D02*
X021975Y005125D01*
X021817Y005283D02*
X022630Y005283D01*
X022414Y005442D02*
X021658Y005442D01*
X021598Y005600D02*
X021941Y005600D01*
X021841Y005759D02*
X021598Y005759D01*
X021598Y005917D02*
X021821Y005917D01*
X021867Y006076D02*
X021598Y006076D01*
X021566Y006234D02*
X022019Y006234D01*
X022324Y006393D02*
X021578Y006393D01*
X021578Y006551D02*
X022324Y006551D01*
X022324Y006710D02*
X021578Y006710D01*
X021520Y006869D02*
X022382Y006869D01*
X022683Y006869D02*
X022720Y006869D01*
X022720Y006710D02*
X022683Y006710D01*
X022683Y006551D02*
X022720Y006551D01*
X023078Y006551D02*
X023171Y006551D01*
X023171Y006393D02*
X023078Y006393D01*
X023066Y006234D02*
X023171Y006234D01*
X023171Y006076D02*
X023098Y006076D01*
X023098Y005917D02*
X023171Y005917D01*
X023171Y005759D02*
X023098Y005759D01*
X023098Y005600D02*
X023171Y005600D01*
X023178Y005442D02*
X023202Y005442D01*
X023337Y005283D02*
X023350Y005283D01*
X023740Y005600D02*
X023804Y005600D01*
X023804Y005759D02*
X023671Y005759D01*
X023671Y005917D02*
X023804Y005917D01*
X023804Y006076D02*
X023671Y006076D01*
X023671Y006234D02*
X023836Y006234D01*
X023824Y006393D02*
X023671Y006393D01*
X023671Y006551D02*
X023824Y006551D01*
X023824Y006710D02*
X023671Y006710D01*
X023671Y006869D02*
X023882Y006869D01*
X024183Y006869D02*
X024220Y006869D01*
X024220Y006710D02*
X024183Y006710D01*
X024183Y006551D02*
X024220Y006551D01*
X024578Y006551D02*
X024591Y006551D01*
X024578Y006393D02*
X024591Y006393D01*
X024591Y006234D02*
X024566Y006234D01*
X024578Y006710D02*
X024591Y006710D01*
X024591Y006869D02*
X024520Y006869D01*
X024591Y007027D02*
X023593Y007027D01*
X023434Y007186D02*
X024591Y007186D01*
X024591Y007344D02*
X023276Y007344D01*
X023117Y007503D02*
X024591Y007503D01*
X024591Y007661D02*
X022959Y007661D01*
X022800Y007820D02*
X024591Y007820D01*
X024591Y007978D02*
X022642Y007978D01*
X022483Y008137D02*
X024591Y008137D01*
X024591Y008295D02*
X022324Y008295D01*
X022166Y008454D02*
X024591Y008454D01*
X024591Y008613D02*
X022007Y008613D01*
X021776Y008137D02*
X018136Y008137D01*
X018162Y007978D02*
X021935Y007978D01*
X022093Y007820D02*
X018320Y007820D01*
X018479Y007661D02*
X022252Y007661D01*
X022410Y007503D02*
X018637Y007503D01*
X018796Y007344D02*
X022569Y007344D01*
X022727Y007186D02*
X018954Y007186D01*
X019090Y007027D02*
X022886Y007027D01*
X023020Y006869D02*
X023044Y006869D01*
X023078Y006710D02*
X023171Y006710D01*
X024390Y005434D02*
X024481Y005434D01*
X024591Y005545D01*
X024591Y004157D01*
X024547Y004201D01*
X024566Y004234D01*
X024578Y004280D01*
X024578Y004501D01*
X024220Y004501D01*
X024220Y004538D01*
X024578Y004538D01*
X024578Y004760D01*
X024566Y004806D01*
X024542Y004847D01*
X024508Y004881D01*
X024467Y004904D01*
X024422Y004916D01*
X024220Y004916D01*
X024220Y004539D01*
X024183Y004539D01*
X024183Y004916D01*
X023981Y004916D01*
X023935Y004904D01*
X023894Y004881D01*
X023860Y004847D01*
X023837Y004806D01*
X023831Y004785D01*
X023831Y004822D01*
X023963Y004953D01*
X024033Y005024D01*
X024283Y005273D01*
X024353Y005344D01*
X024390Y005434D01*
X024488Y005442D02*
X024591Y005442D01*
X024591Y005283D02*
X024292Y005283D01*
X024283Y005273D02*
X024283Y005273D01*
X024134Y005125D02*
X024591Y005125D01*
X024591Y004966D02*
X023975Y004966D01*
X023963Y004953D02*
X023963Y004953D01*
X024033Y005024D02*
X024033Y005024D01*
X024183Y004807D02*
X024220Y004807D01*
X024220Y004649D02*
X024183Y004649D01*
X023837Y004807D02*
X023831Y004807D01*
X024565Y004807D02*
X024591Y004807D01*
X024578Y004649D02*
X024591Y004649D01*
X024578Y004490D02*
X024591Y004490D01*
X024578Y004332D02*
X024591Y004332D01*
X024575Y004173D02*
X024591Y004173D01*
X023816Y003539D02*
X023086Y003539D01*
X022316Y003539D02*
X021586Y003539D01*
X022067Y003698D02*
X022304Y003698D01*
X022304Y003856D02*
X022151Y003856D01*
X022151Y004015D02*
X022304Y004015D01*
X021220Y004649D02*
X021183Y004649D01*
X021183Y004807D02*
X021220Y004807D01*
X021268Y005125D02*
X020535Y005125D01*
X020377Y005283D02*
X021110Y005283D01*
X020914Y005442D02*
X020218Y005442D01*
X020098Y005600D02*
X020804Y005600D01*
X020163Y005759D02*
X020098Y005759D01*
X020098Y005917D02*
X020131Y005917D01*
X020131Y006076D02*
X020098Y006076D01*
X019720Y006551D02*
X019683Y006551D01*
X019683Y006710D02*
X019720Y006710D01*
X019720Y006869D02*
X019683Y006869D01*
X019382Y006869D02*
X019111Y006869D01*
X019111Y006710D02*
X019324Y006710D01*
X019324Y006551D02*
X019111Y006551D01*
X019111Y006393D02*
X019324Y006393D01*
X019336Y006234D02*
X019111Y006234D01*
X018406Y007027D02*
X015991Y007027D01*
X015991Y007186D02*
X018247Y007186D01*
X018089Y007344D02*
X015991Y007344D01*
X015991Y007503D02*
X017930Y007503D01*
X017623Y007661D02*
X015991Y007661D01*
X015991Y007820D02*
X017402Y007820D01*
X017341Y007978D02*
X015991Y007978D01*
X015991Y008137D02*
X017346Y008137D01*
X015991Y008771D02*
X024591Y008771D01*
X024591Y008930D02*
X015991Y008930D01*
X015991Y009088D02*
X024591Y009088D01*
X024591Y009247D02*
X015991Y009247D01*
X015991Y009405D02*
X024591Y009405D01*
X024591Y009564D02*
X015991Y009564D01*
X015991Y009722D02*
X024591Y009722D01*
X024591Y009881D02*
X015991Y009881D01*
X015991Y010039D02*
X024591Y010039D01*
X024591Y010198D02*
X015991Y010198D01*
X015991Y010356D02*
X024591Y010356D01*
X024591Y010515D02*
X015991Y010515D01*
X015991Y010674D02*
X024591Y010674D01*
X024591Y010832D02*
X015991Y010832D01*
X015991Y010991D02*
X024591Y010991D01*
X024591Y011149D02*
X015991Y011149D01*
X015991Y011308D02*
X024591Y011308D01*
X024591Y011466D02*
X015991Y011466D01*
X015991Y011625D02*
X024591Y011625D01*
X024591Y011783D02*
X015991Y011783D01*
X015991Y011942D02*
X024591Y011942D01*
X024591Y012100D02*
X015991Y012100D01*
X015991Y012259D02*
X024591Y012259D01*
X024591Y012418D02*
X015991Y012418D01*
X015991Y012576D02*
X024591Y012576D01*
X024591Y012735D02*
X024420Y012735D01*
X023983Y012735D02*
X015991Y012735D01*
X015991Y012893D02*
X023786Y012893D01*
X023715Y013052D02*
X015991Y013052D01*
X015991Y013210D02*
X023701Y013210D01*
X023736Y013369D02*
X015991Y013369D01*
X015991Y013527D02*
X023836Y013527D01*
X023950Y013775D02*
X024017Y013741D01*
X024089Y013717D01*
X024163Y013705D01*
X024181Y013705D01*
X024181Y014165D01*
X023721Y014165D01*
X023721Y014148D01*
X023733Y014073D01*
X023756Y014001D01*
X023791Y013934D01*
X023835Y013873D01*
X023888Y013819D01*
X023950Y013775D01*
X023863Y013844D02*
X015991Y013844D01*
X015991Y013686D02*
X024591Y013686D01*
X024591Y013844D02*
X024539Y013844D01*
X024221Y013844D02*
X024181Y013844D01*
X024181Y014003D02*
X024221Y014003D01*
X024221Y014162D02*
X024181Y014162D01*
X024181Y014320D02*
X024221Y014320D01*
X024221Y014479D02*
X024181Y014479D01*
X024181Y014637D02*
X024221Y014637D01*
X024364Y014637D02*
X024591Y014637D01*
X024581Y014479D02*
X024591Y014479D01*
X024591Y014796D02*
X024519Y014796D01*
X024038Y014637D02*
X015991Y014637D01*
X015991Y014479D02*
X023821Y014479D01*
X023740Y014320D02*
X015991Y014320D01*
X015991Y014162D02*
X023721Y014162D01*
X023756Y014003D02*
X015991Y014003D01*
X015991Y014796D02*
X023884Y014796D01*
X023756Y014954D02*
X015991Y014954D01*
X015991Y015113D02*
X023701Y015113D01*
X023701Y015271D02*
X015991Y015271D01*
X015991Y015430D02*
X023761Y015430D01*
X023897Y015588D02*
X015991Y015588D01*
X015991Y015747D02*
X023953Y015747D01*
X024102Y015685D02*
X024301Y015685D01*
X024102Y015685D01*
X024301Y015685D02*
X024484Y015609D01*
X024591Y015502D01*
X024591Y015868D01*
X024484Y015761D01*
X024301Y015685D01*
X024449Y015747D02*
X024591Y015747D01*
X024591Y015588D02*
X024505Y015588D01*
X023776Y015906D02*
X015991Y015906D01*
X015991Y016064D02*
X023710Y016064D01*
X023701Y016223D02*
X015991Y016223D01*
X015991Y016381D02*
X023612Y016381D01*
X023453Y016540D02*
X015991Y016540D01*
X015991Y016698D02*
X023295Y016698D01*
X023179Y016857D02*
X015991Y016857D01*
X015991Y017015D02*
X023171Y017015D01*
X023171Y017174D02*
X015991Y017174D01*
X015991Y017332D02*
X023171Y017332D01*
X023171Y017491D02*
X015991Y017491D01*
X015991Y017649D02*
X023171Y017649D01*
X023171Y017808D02*
X015991Y017808D01*
X015991Y017967D02*
X023171Y017967D01*
X023171Y018125D02*
X015991Y018125D01*
X015991Y018284D02*
X023171Y018284D01*
X023171Y018442D02*
X015991Y018442D01*
X015991Y018601D02*
X023171Y018601D01*
X023171Y018759D02*
X015991Y018759D01*
X015991Y018918D02*
X023171Y018918D01*
X023171Y019076D02*
X015991Y019076D01*
X015991Y019235D02*
X023171Y019235D01*
X023171Y019393D02*
X015991Y019393D01*
X015991Y019552D02*
X023171Y019552D01*
X023171Y019711D02*
X015991Y019711D01*
X015991Y019869D02*
X023211Y019869D01*
X024566Y013527D02*
X024591Y013527D01*
X021220Y006869D02*
X021183Y006869D01*
X021183Y006710D02*
X021220Y006710D01*
X021220Y006551D02*
X021183Y006551D01*
X020882Y006869D02*
X020020Y006869D01*
X020078Y006710D02*
X020080Y006710D01*
X020682Y006710D02*
X020824Y006710D01*
X020824Y006551D02*
X020770Y006551D01*
X020781Y006393D02*
X020824Y006393D01*
X020836Y006234D02*
X020727Y006234D01*
X019720Y004807D02*
X019683Y004807D01*
X019683Y004649D02*
X019720Y004649D01*
X019324Y004649D02*
X018578Y004649D01*
X018578Y004490D02*
X019324Y004490D01*
X019324Y004332D02*
X018578Y004332D01*
X018575Y004173D02*
X019328Y004173D01*
X019304Y004015D02*
X018598Y004015D01*
X018598Y003856D02*
X019304Y003856D01*
X019304Y003698D02*
X018598Y003698D01*
X018586Y003539D02*
X019316Y003539D01*
X020086Y003539D02*
X020816Y003539D01*
X020804Y003698D02*
X020547Y003698D01*
X020631Y003856D02*
X020804Y003856D01*
X020804Y004015D02*
X020631Y004015D01*
X019337Y004807D02*
X018565Y004807D01*
X018220Y004807D02*
X018183Y004807D01*
X018183Y004649D02*
X018220Y004649D01*
X017824Y004649D02*
X017751Y004649D01*
X017751Y004807D02*
X017837Y004807D01*
X017824Y004490D02*
X017751Y004490D01*
X017751Y004332D02*
X017824Y004332D01*
X017828Y004173D02*
X017751Y004173D01*
X017251Y004173D02*
X017201Y004173D01*
X017182Y004332D02*
X017251Y004332D01*
X017251Y004490D02*
X017103Y004490D01*
X016548Y003539D02*
X017816Y003539D01*
X017301Y002185D02*
X017102Y002185D01*
X016918Y002109D01*
X016777Y001969D01*
X016701Y001785D01*
X016625Y001969D01*
X016484Y002109D01*
X016301Y002185D01*
X016102Y002185D01*
X015918Y002109D01*
X015777Y001969D01*
X015701Y001785D01*
X015701Y001586D01*
X015777Y001402D01*
X015918Y001261D01*
X016102Y001185D01*
X016301Y001185D01*
X016484Y001261D01*
X016625Y001402D01*
X016701Y001586D01*
X016701Y001785D01*
X016701Y001586D01*
X016777Y001402D01*
X016918Y001261D01*
X017102Y001185D01*
X017301Y001185D01*
X017484Y001261D01*
X017625Y001402D01*
X017701Y001586D01*
X017701Y001785D01*
X017625Y001969D01*
X017484Y002109D01*
X017301Y002185D01*
X017477Y002112D02*
X018925Y002112D01*
X018771Y001954D02*
X017631Y001954D01*
X017697Y001795D02*
X018705Y001795D01*
X018701Y001637D02*
X017701Y001637D01*
X017656Y001478D02*
X018746Y001478D01*
X018860Y001320D02*
X017542Y001320D01*
X016860Y001320D02*
X016542Y001320D01*
X016656Y001478D02*
X016746Y001478D01*
X016701Y001637D02*
X016701Y001637D01*
X016697Y001795D02*
X016705Y001795D01*
X016771Y001954D02*
X016631Y001954D01*
X016477Y002112D02*
X016925Y002112D01*
X015925Y002112D02*
X015477Y002112D01*
X015631Y001954D02*
X015771Y001954D01*
X015705Y001795D02*
X015697Y001795D01*
X015701Y001637D02*
X015701Y001637D01*
X015656Y001478D02*
X015746Y001478D01*
X015860Y001320D02*
X015542Y001320D01*
X014323Y003856D02*
X014079Y003856D01*
X014172Y004015D02*
X014231Y004015D01*
X014201Y004173D02*
X014201Y004173D01*
X014182Y004332D02*
X014221Y004332D01*
X014299Y004490D02*
X014103Y004490D01*
X013888Y004649D02*
X014514Y004649D01*
X014372Y004807D02*
X014030Y004807D01*
X014151Y004966D02*
X014251Y004966D01*
X014201Y005125D02*
X014201Y005125D01*
X014201Y005283D02*
X014201Y005283D01*
X014136Y005442D02*
X014266Y005442D01*
X014409Y005600D02*
X013993Y005600D01*
X013978Y005759D02*
X014424Y005759D01*
X014602Y005685D02*
X014801Y005685D01*
X014602Y005685D01*
X014801Y005685D02*
X014961Y005619D01*
X015491Y006149D01*
X015491Y006402D01*
X015201Y006112D01*
X015201Y006086D01*
X015125Y005902D01*
X014984Y005761D01*
X014801Y005685D01*
X014978Y005759D02*
X015101Y005759D01*
X015131Y005917D02*
X015260Y005917D01*
X015197Y006076D02*
X015418Y006076D01*
X015491Y006234D02*
X015324Y006234D01*
X015482Y006393D02*
X015491Y006393D01*
X015092Y006710D02*
X014860Y006710D01*
X014801Y006685D02*
X014984Y006761D01*
X015125Y006902D01*
X015201Y007086D01*
X015201Y007232D01*
X015251Y007282D01*
X015251Y006869D01*
X014988Y006606D01*
X014984Y006609D01*
X014801Y006685D01*
X014602Y006685D01*
X014801Y006685D01*
X014542Y006710D02*
X013860Y006710D01*
X014042Y006551D02*
X014360Y006551D01*
X014246Y006393D02*
X014156Y006393D01*
X014201Y006234D02*
X014201Y006234D01*
X014197Y006076D02*
X014205Y006076D01*
X014271Y005917D02*
X014131Y005917D01*
X014091Y006869D02*
X014311Y006869D01*
X014225Y007027D02*
X014177Y007027D01*
X014201Y007186D02*
X014201Y007186D01*
X014176Y007344D02*
X014226Y007344D01*
X014311Y007503D02*
X014091Y007503D01*
X013859Y007661D02*
X014544Y007661D01*
X014602Y007685D02*
X014801Y007685D01*
X014904Y007642D01*
X015011Y007749D01*
X015011Y007788D01*
X014984Y007761D01*
X014801Y007685D01*
X014602Y007685D01*
X014859Y007661D02*
X014924Y007661D01*
X015201Y007186D02*
X015251Y007186D01*
X015251Y007027D02*
X015177Y007027D01*
X015251Y006869D02*
X015091Y006869D01*
X014360Y007820D02*
X014043Y007820D01*
X014156Y007978D02*
X014246Y007978D01*
X014201Y008137D02*
X014201Y008137D01*
X014197Y008295D02*
X014206Y008295D01*
X014271Y008454D02*
X014131Y008454D01*
X013976Y008613D02*
X014426Y008613D01*
X014743Y008930D02*
X012711Y008930D01*
X012711Y009088D02*
X014585Y009088D01*
X014426Y009247D02*
X012711Y009247D01*
X012711Y009405D02*
X014268Y009405D01*
X014109Y009564D02*
X012711Y009564D01*
X012711Y009722D02*
X013951Y009722D01*
X013792Y009881D02*
X012700Y009881D01*
X012581Y010039D02*
X013634Y010039D01*
X013507Y010198D02*
X012422Y010198D01*
X012263Y010356D02*
X013491Y010356D01*
X013491Y010515D02*
X012105Y010515D01*
X011946Y010674D02*
X013491Y010674D01*
X013491Y010832D02*
X011788Y010832D01*
X011629Y010991D02*
X013491Y010991D01*
X013491Y011149D02*
X011471Y011149D01*
X011312Y011308D02*
X013491Y011308D01*
X013491Y011466D02*
X011154Y011466D01*
X010995Y011625D02*
X013491Y011625D01*
X013491Y011783D02*
X010837Y011783D01*
X010678Y011942D02*
X013491Y011942D01*
X013491Y012100D02*
X010519Y012100D01*
X010361Y012259D02*
X013491Y012259D01*
X013491Y012418D02*
X010202Y012418D01*
X010044Y012576D02*
X013491Y012576D01*
X013491Y012735D02*
X009885Y012735D01*
X009727Y012893D02*
X013491Y012893D01*
X013491Y013052D02*
X009568Y013052D01*
X009410Y013210D02*
X013491Y013210D01*
X013491Y013369D02*
X009251Y013369D01*
X009093Y013527D02*
X013491Y013527D01*
X013491Y013686D02*
X008934Y013686D01*
X008775Y013844D02*
X013491Y013844D01*
X013491Y014003D02*
X008617Y014003D01*
X008458Y014162D02*
X013491Y014162D01*
X013491Y014320D02*
X008300Y014320D01*
X008141Y014479D02*
X013491Y014479D01*
X013491Y014637D02*
X007983Y014637D01*
X007824Y014796D02*
X013491Y014796D01*
X013491Y014954D02*
X007666Y014954D01*
X007507Y015113D02*
X013491Y015113D01*
X013491Y015271D02*
X007396Y015271D01*
X007431Y015430D02*
X013491Y015430D01*
X013491Y015588D02*
X007431Y015588D01*
X007431Y015747D02*
X013491Y015747D01*
X013491Y015906D02*
X007431Y015906D01*
X007431Y016064D02*
X013491Y016064D01*
X013491Y016223D02*
X007472Y016223D01*
X007630Y016381D02*
X013491Y016381D01*
X013491Y016540D02*
X007789Y016540D01*
X007947Y016698D02*
X013491Y016698D01*
X013491Y016857D02*
X008106Y016857D01*
X008265Y017015D02*
X013491Y017015D01*
X013491Y017174D02*
X008423Y017174D01*
X008582Y017332D02*
X013491Y017332D01*
X013491Y017491D02*
X008740Y017491D01*
X008899Y017649D02*
X013491Y017649D01*
X013491Y017808D02*
X009057Y017808D01*
X009216Y017967D02*
X013491Y017967D01*
X013491Y018125D02*
X009374Y018125D01*
X009533Y018284D02*
X013491Y018284D01*
X013491Y018442D02*
X009691Y018442D01*
X009850Y018601D02*
X013491Y018601D01*
X013491Y018759D02*
X010009Y018759D01*
X010167Y018918D02*
X013491Y018918D01*
X013491Y019076D02*
X010326Y019076D01*
X010484Y019235D02*
X013491Y019235D01*
X013491Y019393D02*
X010643Y019393D01*
X010801Y019552D02*
X013491Y019552D01*
X013491Y019711D02*
X010960Y019711D01*
X011118Y019869D02*
X013491Y019869D01*
X013491Y020028D02*
X011277Y020028D01*
X011435Y020186D02*
X011500Y020186D01*
X011703Y020186D02*
X012500Y020186D01*
X012703Y020186D02*
X013491Y020186D01*
X013235Y020345D02*
X012968Y020345D01*
X013067Y020503D02*
X013135Y020503D01*
X013101Y020662D02*
X013101Y020662D01*
X013086Y020820D02*
X013116Y020820D01*
X013188Y020979D02*
X013015Y020979D01*
X012816Y021137D02*
X013386Y021137D01*
X013816Y021137D02*
X014386Y021137D01*
X014188Y020979D02*
X014015Y020979D01*
X014086Y020820D02*
X014116Y020820D01*
X014101Y020662D02*
X014101Y020662D01*
X014067Y020503D02*
X014135Y020503D01*
X014235Y020345D02*
X013991Y020345D01*
X012386Y021137D02*
X011816Y021137D01*
X012015Y020979D02*
X012188Y020979D01*
X012116Y020820D02*
X012086Y020820D01*
X012101Y020662D02*
X012101Y020662D01*
X012067Y020503D02*
X012135Y020503D01*
X012235Y020345D02*
X011968Y020345D01*
X011109Y020567D02*
X011082Y020540D01*
X011101Y020586D01*
X011101Y020785D01*
X011101Y020586D01*
X011109Y020567D01*
X011101Y020662D02*
X011101Y020662D01*
X011086Y020820D02*
X011116Y020820D01*
X011188Y020979D02*
X011015Y020979D01*
X010816Y021137D02*
X011386Y021137D01*
X010386Y021137D02*
X009816Y021137D01*
X010015Y020979D02*
X010188Y020979D01*
X010116Y020820D02*
X010086Y020820D01*
X010101Y020662D02*
X010101Y020662D01*
X010067Y020503D02*
X010135Y020503D01*
X010235Y020345D02*
X009968Y020345D01*
X009703Y020186D02*
X010500Y020186D01*
X010570Y020028D02*
X003181Y020028D01*
X003181Y020186D02*
X008500Y020186D01*
X008703Y020186D02*
X009500Y020186D01*
X009235Y020345D02*
X008968Y020345D01*
X009067Y020503D02*
X009135Y020503D01*
X009101Y020662D02*
X009101Y020662D01*
X009086Y020820D02*
X009116Y020820D01*
X009188Y020979D02*
X009015Y020979D01*
X008816Y021137D02*
X009386Y021137D01*
X008386Y021137D02*
X003181Y021137D01*
X003181Y020979D02*
X008188Y020979D01*
X008116Y020820D02*
X003181Y020820D01*
X003181Y020662D02*
X008101Y020662D01*
X008135Y020503D02*
X003181Y020503D01*
X003181Y020345D02*
X008235Y020345D01*
X009619Y019076D02*
X003181Y019076D01*
X003181Y018918D02*
X009460Y018918D01*
X009302Y018759D02*
X006354Y018759D01*
X006614Y018601D02*
X009143Y018601D01*
X008984Y018442D02*
X006732Y018442D01*
X006798Y018284D02*
X008826Y018284D01*
X008667Y018125D02*
X006800Y018125D01*
X006774Y017967D02*
X008509Y017967D01*
X008350Y017808D02*
X006892Y017808D01*
X007050Y017649D02*
X008192Y017649D01*
X008033Y017491D02*
X007209Y017491D01*
X007367Y017332D02*
X007875Y017332D01*
X007716Y017174D02*
X007526Y017174D01*
X005759Y017649D02*
X004710Y017649D01*
X004833Y017808D02*
X005631Y017808D01*
X005565Y017967D02*
X004899Y017967D01*
X004917Y018125D02*
X005540Y018125D01*
X005541Y018284D02*
X004917Y018284D01*
X004857Y018442D02*
X005607Y018442D01*
X005726Y018601D02*
X004767Y018601D01*
X004609Y018759D02*
X005985Y018759D01*
X005621Y017491D02*
X004472Y017491D01*
X003930Y017491D02*
X003488Y017491D01*
X003181Y017332D02*
X005555Y017332D01*
X005540Y017174D02*
X003181Y017174D01*
X003181Y017015D02*
X005552Y017015D01*
X005617Y016857D02*
X003181Y016857D01*
X003181Y016698D02*
X003823Y016698D01*
X003844Y016719D02*
X003667Y016542D01*
X003571Y016311D01*
X003571Y016060D01*
X003667Y015828D01*
X003844Y015651D01*
X004076Y015555D01*
X004326Y015555D01*
X004558Y015651D01*
X004735Y015828D01*
X004831Y016060D01*
X004831Y016311D01*
X004735Y016542D01*
X004558Y016719D01*
X004326Y016815D01*
X004076Y016815D01*
X003844Y016719D01*
X003666Y016540D02*
X003181Y016540D01*
X003181Y016381D02*
X003600Y016381D01*
X003571Y016223D02*
X003181Y016223D01*
X003181Y016064D02*
X003571Y016064D01*
X003635Y015906D02*
X003181Y015906D01*
X003181Y015747D02*
X003749Y015747D01*
X003996Y015588D02*
X003181Y015588D01*
X003181Y015430D02*
X005582Y015430D01*
X005540Y015271D02*
X003181Y015271D01*
X003181Y015113D02*
X005540Y015113D01*
X005590Y014954D02*
X003181Y014954D01*
X003651Y014796D02*
X003767Y014796D01*
X004635Y014796D02*
X005684Y014796D01*
X005699Y014637D02*
X004794Y014637D01*
X004868Y014479D02*
X005596Y014479D01*
X005540Y014320D02*
X004917Y014320D01*
X004917Y014162D02*
X005540Y014162D01*
X005576Y014003D02*
X004888Y014003D01*
X004822Y013844D02*
X005651Y013844D01*
X005810Y013686D02*
X004683Y013686D01*
X004408Y013527D02*
X008386Y013527D01*
X008544Y013369D02*
X003181Y013369D01*
X003181Y013210D02*
X006698Y013210D01*
X006738Y013234D02*
X006464Y013076D01*
X006241Y012852D01*
X006083Y012579D01*
X006001Y012273D01*
X006001Y011957D01*
X006083Y011652D01*
X006241Y011379D01*
X006464Y011155D01*
X006738Y010997D01*
X007043Y010915D01*
X007359Y010915D01*
X007664Y010997D01*
X007938Y011155D01*
X008161Y011379D01*
X008319Y011652D01*
X008401Y011957D01*
X008401Y012273D01*
X008319Y012579D01*
X008161Y012852D01*
X007938Y013076D01*
X007664Y013234D01*
X007359Y013315D01*
X007043Y013315D01*
X006738Y013234D01*
X006440Y013052D02*
X003181Y013052D01*
X003181Y012893D02*
X006282Y012893D01*
X006173Y012735D02*
X003181Y012735D01*
X003181Y012576D02*
X006082Y012576D01*
X006040Y012418D02*
X003181Y012418D01*
X003181Y012259D02*
X006001Y012259D01*
X006001Y012100D02*
X003181Y012100D01*
X003181Y011942D02*
X006005Y011942D01*
X006048Y011783D02*
X003181Y011783D01*
X003181Y011625D02*
X006099Y011625D01*
X006190Y011466D02*
X003181Y011466D01*
X003181Y011308D02*
X006312Y011308D01*
X006474Y011149D02*
X003181Y011149D01*
X003181Y010991D02*
X006762Y010991D01*
X007640Y010991D02*
X010922Y010991D01*
X010764Y011149D02*
X007928Y011149D01*
X008091Y011308D02*
X010605Y011308D01*
X010447Y011466D02*
X008212Y011466D01*
X008304Y011625D02*
X010288Y011625D01*
X010130Y011783D02*
X008354Y011783D01*
X008397Y011942D02*
X009971Y011942D01*
X009812Y012100D02*
X008401Y012100D01*
X008401Y012259D02*
X009654Y012259D01*
X009495Y012418D02*
X008362Y012418D01*
X008320Y012576D02*
X009337Y012576D01*
X009178Y012735D02*
X008229Y012735D01*
X008120Y012893D02*
X009020Y012893D01*
X008861Y013052D02*
X007962Y013052D01*
X007705Y013210D02*
X008703Y013210D01*
X008227Y013686D02*
X006530Y013686D01*
X006688Y013844D02*
X008068Y013844D01*
X007910Y014003D02*
X006763Y014003D01*
X006800Y014162D02*
X007751Y014162D01*
X007593Y014320D02*
X006800Y014320D01*
X006743Y014479D02*
X007434Y014479D01*
X007276Y014637D02*
X006766Y014637D01*
X006925Y014796D02*
X007117Y014796D01*
X005666Y015588D02*
X004406Y015588D01*
X004654Y015747D02*
X005595Y015747D01*
X005510Y015906D02*
X004767Y015906D01*
X004831Y016064D02*
X005453Y016064D01*
X005453Y016223D02*
X004831Y016223D01*
X004802Y016381D02*
X005476Y016381D01*
X005541Y016540D02*
X004736Y016540D01*
X004579Y016698D02*
X005670Y016698D01*
X003794Y018759D02*
X003624Y018759D01*
X003181Y019235D02*
X009777Y019235D01*
X009936Y019393D02*
X003181Y019393D01*
X003181Y019552D02*
X010094Y019552D01*
X010253Y019711D02*
X003181Y019711D01*
X003181Y019869D02*
X010411Y019869D01*
X010703Y020186D02*
X010728Y020186D01*
X003719Y013686D02*
X003699Y013686D01*
X003424Y013527D02*
X003994Y013527D01*
X003181Y010832D02*
X011081Y010832D01*
X011239Y010674D02*
X003181Y010674D01*
X003181Y010515D02*
X011398Y010515D01*
X011556Y010356D02*
X003181Y010356D01*
X003181Y010198D02*
X011715Y010198D01*
X011874Y010039D02*
X003181Y010039D01*
X003181Y009881D02*
X012032Y009881D01*
X012191Y009722D02*
X008031Y009722D01*
X007908Y009845D02*
X008201Y009552D01*
X008201Y009138D01*
X007908Y008845D01*
X007494Y008845D01*
X007201Y009138D01*
X007201Y009552D01*
X007494Y009845D01*
X007908Y009845D01*
X008190Y009564D02*
X012211Y009564D01*
X012211Y009405D02*
X008201Y009405D01*
X008201Y009247D02*
X012211Y009247D01*
X012211Y009088D02*
X008151Y009088D01*
X007992Y008930D02*
X012211Y008930D01*
X012211Y008771D02*
X007201Y008771D01*
X007201Y008613D02*
X007341Y008613D01*
X007201Y008598D02*
X006908Y008305D01*
X006494Y008305D01*
X006201Y008598D01*
X006201Y009012D01*
X006494Y009305D01*
X006908Y009305D01*
X007201Y009012D01*
X007201Y008598D01*
X007201Y008472D02*
X007201Y008058D01*
X007494Y007765D01*
X007908Y007765D01*
X008201Y008058D01*
X008201Y008472D01*
X007908Y008765D01*
X007494Y008765D01*
X007201Y008472D01*
X007201Y008454D02*
X007057Y008454D01*
X007201Y008295D02*
X003181Y008295D01*
X003181Y008137D02*
X006406Y008137D01*
X006494Y008225D02*
X006201Y007932D01*
X006201Y007518D01*
X006494Y007225D01*
X006908Y007225D01*
X007201Y007518D01*
X007201Y007932D01*
X006908Y008225D01*
X006494Y008225D01*
X006345Y008454D02*
X003181Y008454D01*
X003181Y008613D02*
X006201Y008613D01*
X006201Y008771D02*
X003181Y008771D01*
X003181Y008930D02*
X006201Y008930D01*
X006277Y009088D02*
X003181Y009088D01*
X003181Y009247D02*
X006435Y009247D01*
X006967Y009247D02*
X007201Y009247D01*
X007201Y009405D02*
X003181Y009405D01*
X003181Y009564D02*
X007212Y009564D01*
X007371Y009722D02*
X003181Y009722D01*
X003181Y007978D02*
X006247Y007978D01*
X006201Y007820D02*
X003181Y007820D01*
X003181Y007661D02*
X006201Y007661D01*
X006217Y007503D02*
X003181Y007503D01*
X003181Y007344D02*
X006375Y007344D01*
X006376Y007027D02*
X003181Y007027D01*
X003181Y006869D02*
X006217Y006869D01*
X006201Y006710D02*
X003181Y006710D01*
X003181Y006551D02*
X006201Y006551D01*
X006246Y006393D02*
X003181Y006393D01*
X003181Y007186D02*
X007201Y007186D01*
X007201Y007344D02*
X007027Y007344D01*
X007201Y007392D02*
X007201Y006978D01*
X007494Y006685D01*
X007908Y006685D01*
X008201Y006978D01*
X008201Y007392D01*
X007908Y007685D01*
X007494Y007685D01*
X007201Y007392D01*
X007186Y007503D02*
X007311Y007503D01*
X007201Y007661D02*
X007470Y007661D01*
X007440Y007820D02*
X007201Y007820D01*
X007155Y007978D02*
X007281Y007978D01*
X007201Y008137D02*
X006997Y008137D01*
X007963Y007820D02*
X009951Y007820D01*
X009997Y007871D02*
X010114Y007988D01*
X010114Y008607D01*
X009997Y008724D01*
X009437Y008724D01*
X009320Y008607D01*
X009320Y007988D01*
X009437Y007871D01*
X009997Y007871D01*
X010104Y007978D02*
X010314Y007978D01*
X010304Y007988D02*
X010421Y007871D01*
X010981Y007871D01*
X011098Y007988D01*
X011098Y008607D01*
X010981Y008724D01*
X010421Y008724D01*
X010304Y008607D01*
X010304Y007988D01*
X010304Y008137D02*
X010114Y008137D01*
X010114Y008295D02*
X010304Y008295D01*
X010304Y008454D02*
X010114Y008454D01*
X010108Y008613D02*
X010310Y008613D01*
X011092Y008613D02*
X011294Y008613D01*
X011289Y008607D02*
X011406Y008724D01*
X011965Y008724D01*
X012082Y008607D01*
X012082Y007988D01*
X011965Y007871D01*
X011406Y007871D01*
X011289Y007988D01*
X011289Y008607D01*
X011289Y008454D02*
X011098Y008454D01*
X011098Y008295D02*
X011289Y008295D01*
X011289Y008137D02*
X011098Y008137D01*
X011088Y007978D02*
X011298Y007978D01*
X011451Y007820D02*
X012211Y007820D01*
X012211Y007978D02*
X012072Y007978D01*
X012082Y008137D02*
X012211Y008137D01*
X012211Y008295D02*
X012082Y008295D01*
X012082Y008454D02*
X012211Y008454D01*
X012211Y008613D02*
X012076Y008613D01*
X011132Y007820D02*
X010270Y007820D01*
X010550Y007661D02*
X010852Y007661D01*
X010722Y007503D02*
X010680Y007503D01*
X010680Y006869D02*
X010722Y006869D01*
X010852Y006710D02*
X010551Y006710D01*
X010683Y006393D02*
X010720Y006393D01*
X010720Y006234D02*
X010683Y006234D01*
X009949Y006551D02*
X007962Y006551D01*
X007933Y006710D02*
X009670Y006710D01*
X009541Y006869D02*
X008091Y006869D01*
X008201Y007027D02*
X009475Y007027D01*
X009463Y007186D02*
X008201Y007186D01*
X008201Y007344D02*
X009476Y007344D01*
X009541Y007503D02*
X008091Y007503D01*
X007932Y007661D02*
X009671Y007661D01*
X009330Y007978D02*
X008121Y007978D01*
X008201Y008137D02*
X009320Y008137D01*
X009320Y008295D02*
X008201Y008295D01*
X008201Y008454D02*
X009320Y008454D01*
X009326Y008613D02*
X008061Y008613D01*
X007410Y008930D02*
X007201Y008930D01*
X007251Y009088D02*
X007125Y009088D01*
X007201Y007027D02*
X007026Y007027D01*
X007185Y006869D02*
X007311Y006869D01*
X007201Y006710D02*
X007469Y006710D01*
X007440Y006551D02*
X007201Y006551D01*
X007156Y006393D02*
X007282Y006393D01*
X007201Y006234D02*
X006997Y006234D01*
X008121Y006393D02*
X009331Y006393D01*
X009320Y006234D02*
X008201Y006234D01*
X008201Y006076D02*
X009320Y006076D01*
X009320Y005917D02*
X008201Y005917D01*
X008062Y005759D02*
X009325Y005759D01*
X009811Y005442D02*
X007992Y005442D01*
X008150Y005283D02*
X009910Y005283D01*
X010068Y005125D02*
X008201Y005125D01*
X008201Y004966D02*
X010227Y004966D01*
X010385Y004807D02*
X008190Y004807D01*
X008032Y004649D02*
X010544Y004649D01*
X011732Y006710D02*
X012211Y006710D01*
X012211Y006869D02*
X011861Y006869D01*
X011927Y007027D02*
X012211Y007027D01*
X012211Y007186D02*
X011939Y007186D01*
X011926Y007344D02*
X012211Y007344D01*
X012211Y007503D02*
X011861Y007503D01*
X011731Y007661D02*
X012211Y007661D01*
X014976Y008613D02*
X015011Y008613D01*
X019477Y002112D02*
X019925Y002112D01*
X019771Y001954D02*
X019631Y001954D01*
X019697Y001795D02*
X019705Y001795D01*
X019701Y001637D02*
X019701Y001637D01*
X019656Y001478D02*
X019746Y001478D01*
X019860Y001320D02*
X019542Y001320D01*
X020542Y001320D02*
X020860Y001320D01*
X020746Y001478D02*
X020656Y001478D01*
X020701Y001637D02*
X020701Y001637D01*
X020697Y001795D02*
X020705Y001795D01*
X020771Y001954D02*
X020631Y001954D01*
X020477Y002112D02*
X020925Y002112D01*
X021477Y002112D02*
X021925Y002112D01*
X021771Y001954D02*
X021631Y001954D01*
X021697Y001795D02*
X021705Y001795D01*
X021701Y001637D02*
X021701Y001637D01*
X021656Y001478D02*
X021746Y001478D01*
X021860Y001320D02*
X021542Y001320D01*
X022542Y001320D02*
X022860Y001320D01*
X022746Y001478D02*
X022656Y001478D01*
X022701Y001637D02*
X022701Y001637D01*
X022697Y001795D02*
X022705Y001795D01*
X022771Y001954D02*
X022631Y001954D01*
X022477Y002112D02*
X022925Y002112D01*
X023477Y002112D02*
X023925Y002112D01*
X023771Y001954D02*
X023631Y001954D01*
X023697Y001795D02*
X023705Y001795D01*
X023701Y001637D02*
X023701Y001637D01*
X023656Y001478D02*
X023746Y001478D01*
X023860Y001320D02*
X023542Y001320D01*
X024542Y001320D02*
X024591Y001320D01*
X024591Y002112D02*
X024477Y002112D01*
X007252Y005283D02*
X007126Y005283D01*
X006764Y003381D02*
X003181Y003381D01*
X003181Y003222D02*
X006476Y003222D01*
X006312Y003064D02*
X003181Y003064D01*
X003181Y002905D02*
X006191Y002905D01*
X006099Y002746D02*
X003181Y002746D01*
X003181Y002588D02*
X006048Y002588D01*
X006005Y002429D02*
X003181Y002429D01*
X003181Y002271D02*
X006001Y002271D01*
X006001Y002112D02*
X003181Y002112D01*
X003181Y001954D02*
X006040Y001954D01*
X006082Y001795D02*
X003181Y001795D01*
X003181Y001637D02*
X006173Y001637D01*
X006281Y001478D02*
X003181Y001478D01*
X003181Y001320D02*
X006440Y001320D01*
D19*
X017741Y008045D03*
X020381Y006445D03*
X022221Y005885D03*
M02*
