%
M48
M72
T01C0.0240
T02C0.0335
T03C0.0400
T04C0.0472
T05C0.0512
T06C0.1300
%
T01
X17741Y8045
X20381Y6445
X22221Y5885
T02
X11292Y7185
X10111Y7185
T03
X6701Y5565
X7701Y5025
X7701Y6105
X6701Y6645
X7701Y7185
X6701Y7725
X7701Y8265
X6701Y8805
X7701Y9345
X13701Y8185
X13701Y7185
X14701Y7185
X14701Y8185
X14701Y6185
X14701Y5185
X13701Y5185
X13701Y6185
X13701Y4185
X14701Y4185
X16701Y4185
X16201Y1685
X15201Y1685
X14201Y1685
X13201Y1685
X12201Y1685
X17201Y1685
X19201Y1685
X20201Y1685
X21201Y1685
X22201Y1685
X23201Y1685
X24201Y1685
X24201Y13185
X24201Y14185
X24201Y15185
X24201Y16185
X24201Y17185
X24201Y18185
X24201Y20685
X23201Y20685
X22201Y20685
X21201Y20685
X20201Y20685
X19201Y20685
X18201Y20685
X17201Y20685
X15601Y20685
X14601Y20685
X13601Y20685
X12601Y20685
X11601Y20685
X10601Y20685
X9601Y20685
X8601Y20685
T04
X4201Y18154
X3217Y18154
X6170Y16185
X4201Y14217
X3217Y14217
T05
X4201Y16185
X6170Y15201
X6170Y14217
X6170Y17170
X6170Y18154
T06
X7201Y12115
X7201Y2255
M30
