G75*
G70*
%OFA0B0*%
%FSLAX24Y24*%
%IPPOS*%
%LPD*%
%AMOC8*
5,1,8,0,0,1.08239X$1,22.5*
%
%ADD10C,0.0030*%
%ADD11C,0.0080*%
%ADD12C,0.0050*%
D10*
X009020Y005213D02*
X009081Y005152D01*
X009205Y005152D01*
X009266Y005213D01*
X009266Y005337D01*
X009143Y005337D01*
X009020Y005460D02*
X009020Y005213D01*
X009020Y005460D02*
X009081Y005522D01*
X009205Y005522D01*
X009266Y005460D01*
X009388Y005522D02*
X009635Y005152D01*
X009635Y005522D01*
X009756Y005522D02*
X009941Y005522D01*
X010003Y005460D01*
X010003Y005213D01*
X009941Y005152D01*
X009756Y005152D01*
X009756Y005522D01*
X009388Y005522D02*
X009388Y005152D01*
X009581Y003422D02*
X009520Y003360D01*
X009520Y003113D01*
X009581Y003052D01*
X009705Y003052D01*
X009766Y003113D01*
X009766Y003360D01*
X009705Y003422D01*
X009581Y003422D01*
X009888Y003237D02*
X010011Y003237D01*
X010133Y003237D02*
X010257Y003237D01*
X010195Y003360D02*
X010195Y003052D01*
X009950Y003052D02*
X009950Y003360D01*
X010011Y003422D01*
X010195Y003360D02*
X010257Y003422D01*
X012420Y005337D02*
X012666Y005337D01*
X012605Y005522D02*
X012420Y005337D01*
X012605Y005152D02*
X012605Y005522D01*
X012605Y006152D02*
X012481Y006152D01*
X012420Y006213D01*
X012543Y006337D02*
X012605Y006337D01*
X012666Y006275D01*
X012666Y006213D01*
X012605Y006152D01*
X012605Y006337D02*
X012666Y006398D01*
X012666Y006460D01*
X012605Y006522D01*
X012481Y006522D01*
X012420Y006460D01*
X012420Y007152D02*
X012666Y007398D01*
X012666Y007460D01*
X012605Y007522D01*
X012481Y007522D01*
X012420Y007460D01*
X012420Y007152D02*
X012666Y007152D01*
X012666Y008152D02*
X012420Y008152D01*
X012543Y008152D02*
X012543Y008522D01*
X012420Y008398D01*
X012100Y009052D02*
X011977Y009052D01*
X012039Y009052D02*
X012039Y009422D01*
X011977Y009422D01*
X011794Y009298D02*
X011670Y009298D01*
X011670Y009175D02*
X011855Y009175D01*
X011855Y009237D02*
X011855Y009052D01*
X011670Y009052D01*
X011609Y009113D01*
X011670Y009175D01*
X011794Y009298D02*
X011855Y009237D01*
X011486Y009052D02*
X011363Y009052D01*
X011425Y009052D02*
X011425Y009298D01*
X011363Y009298D01*
X011241Y009298D02*
X011180Y009298D01*
X011056Y009175D01*
X010935Y009175D02*
X010688Y009175D01*
X010688Y009237D02*
X010750Y009298D01*
X010873Y009298D01*
X010935Y009237D01*
X010935Y009175D01*
X010873Y009052D02*
X010750Y009052D01*
X010688Y009113D01*
X010688Y009237D01*
X010566Y009175D02*
X010566Y009113D01*
X010505Y009052D01*
X010381Y009052D01*
X010320Y009113D01*
X010381Y009237D02*
X010320Y009298D01*
X010320Y009360D01*
X010381Y009422D01*
X010505Y009422D01*
X010566Y009360D01*
X010505Y009237D02*
X010566Y009175D01*
X010505Y009237D02*
X010381Y009237D01*
X011056Y009298D02*
X011056Y009052D01*
X011425Y009422D02*
X011425Y009484D01*
X013381Y003422D02*
X013320Y003360D01*
X013320Y003113D01*
X013381Y003052D01*
X013505Y003052D01*
X013566Y003113D01*
X013566Y003360D01*
X013505Y003422D01*
X013381Y003422D01*
X013688Y003298D02*
X013873Y003298D01*
X013935Y003237D01*
X013935Y003052D01*
X013688Y003052D02*
X013688Y003298D01*
X017019Y003167D02*
X017266Y003167D01*
X017390Y003043D01*
X017266Y002920D01*
X017019Y002920D01*
X017019Y002798D02*
X017019Y002552D01*
X017204Y002552D01*
X017143Y002675D01*
X017143Y002737D01*
X017204Y002798D01*
X017328Y002798D01*
X017390Y002737D01*
X017390Y002613D01*
X017328Y002552D01*
X018019Y002613D02*
X018081Y002552D01*
X018328Y002552D01*
X018390Y002613D01*
X018390Y002737D01*
X018328Y002798D01*
X018204Y002798D01*
X018204Y002675D01*
X018081Y002798D02*
X018019Y002737D01*
X018019Y002613D01*
X018019Y002920D02*
X018390Y003167D01*
X018019Y003167D01*
X018019Y003288D02*
X018019Y003473D01*
X018081Y003535D01*
X018328Y003535D01*
X018390Y003473D01*
X018390Y003288D01*
X018019Y003288D01*
X018019Y002920D02*
X018390Y002920D01*
X019019Y002920D02*
X019390Y003167D01*
X019019Y003167D01*
X019019Y003288D02*
X019019Y003473D01*
X019081Y003535D01*
X019328Y003535D01*
X019390Y003473D01*
X019390Y003288D01*
X019019Y003288D01*
X019019Y002920D02*
X019390Y002920D01*
X019328Y002798D02*
X019204Y002798D01*
X019204Y002675D01*
X019081Y002798D02*
X019019Y002737D01*
X019019Y002613D01*
X019081Y002552D01*
X019328Y002552D01*
X019390Y002613D01*
X019390Y002737D01*
X019328Y002798D01*
X024920Y012252D02*
X025105Y012252D01*
X025166Y012313D01*
X025166Y012375D01*
X025105Y012437D01*
X024920Y012437D01*
X025105Y012437D02*
X025166Y012498D01*
X025166Y012560D01*
X025105Y012622D01*
X024920Y012622D01*
X024920Y012252D01*
X025288Y012252D02*
X025411Y012252D01*
X025350Y012252D02*
X025350Y012622D01*
X025288Y012622D01*
X025533Y012498D02*
X025533Y012313D01*
X025595Y012252D01*
X025780Y012252D01*
X025780Y012498D01*
X025902Y012437D02*
X025963Y012498D01*
X026087Y012498D01*
X026149Y012437D01*
X026149Y012375D01*
X025902Y012375D01*
X025902Y012313D02*
X025902Y012437D01*
X025902Y012313D02*
X025963Y012252D01*
X026087Y012252D01*
X026332Y012313D02*
X026393Y012252D01*
X026332Y012313D02*
X026332Y012560D01*
X026393Y012498D02*
X026270Y012498D01*
X026516Y012437D02*
X026516Y012313D01*
X026577Y012252D01*
X026701Y012252D01*
X026762Y012313D01*
X026762Y012437D01*
X026701Y012498D01*
X026577Y012498D01*
X026516Y012437D01*
X026884Y012437D02*
X026884Y012313D01*
X026946Y012252D01*
X027069Y012252D01*
X027131Y012313D01*
X027131Y012437D01*
X027069Y012498D01*
X026946Y012498D01*
X026884Y012437D01*
X027252Y012498D02*
X027376Y012498D01*
X027314Y012560D02*
X027314Y012313D01*
X027376Y012252D01*
X027498Y012252D02*
X027498Y012622D01*
X027559Y012498D02*
X027683Y012498D01*
X027744Y012437D01*
X027744Y012252D01*
X027498Y012437D02*
X027559Y012498D01*
X026516Y013152D02*
X026393Y013152D01*
X026454Y013152D02*
X026454Y013522D01*
X026393Y013522D02*
X026516Y013522D01*
X026271Y013337D02*
X026024Y013337D01*
X025903Y013275D02*
X025903Y013213D01*
X025841Y013152D01*
X025718Y013152D01*
X025656Y013213D01*
X025718Y013337D02*
X025841Y013337D01*
X025903Y013275D01*
X025903Y013460D02*
X025841Y013522D01*
X025718Y013522D01*
X025656Y013460D01*
X025656Y013398D01*
X025718Y013337D01*
X025535Y013522D02*
X025288Y013522D01*
X025411Y013522D02*
X025411Y013152D01*
X025166Y013213D02*
X025105Y013152D01*
X024981Y013152D01*
X024920Y013213D01*
X024920Y013460D01*
X024981Y013522D01*
X025105Y013522D01*
X025166Y013460D01*
X025643Y014152D02*
X025520Y014275D01*
X025520Y014522D01*
X025766Y014522D02*
X025766Y014275D01*
X025643Y014152D01*
X025888Y014213D02*
X025888Y014460D01*
X025950Y014522D01*
X026073Y014522D01*
X026135Y014460D01*
X026256Y014460D02*
X026256Y014213D01*
X026318Y014152D01*
X026441Y014152D01*
X026503Y014213D01*
X026503Y014460D02*
X026441Y014522D01*
X026318Y014522D01*
X026256Y014460D01*
X026135Y014213D02*
X026073Y014152D01*
X025950Y014152D01*
X025888Y014213D01*
X025888Y015152D02*
X025888Y015522D01*
X026135Y015152D01*
X026135Y015522D01*
X026256Y015522D02*
X026441Y015522D01*
X026503Y015460D01*
X026503Y015213D01*
X026441Y015152D01*
X026256Y015152D01*
X026256Y015522D01*
X025766Y015460D02*
X025705Y015522D01*
X025581Y015522D01*
X025520Y015460D01*
X025520Y015213D01*
X025581Y015152D01*
X025705Y015152D01*
X025766Y015213D01*
X025766Y015337D01*
X025643Y015337D01*
X025735Y016152D02*
X025488Y016522D01*
X025366Y016522D02*
X025120Y016522D01*
X025243Y016522D02*
X025243Y016152D01*
X025488Y016152D02*
X025735Y016522D01*
X025856Y016337D02*
X026103Y016337D01*
X026224Y016460D02*
X026224Y016213D01*
X026286Y016152D01*
X026410Y016152D01*
X026471Y016213D01*
X026471Y016460D01*
X026410Y016522D01*
X026286Y016522D01*
X026224Y016460D01*
X026324Y017152D02*
X026448Y017152D01*
X026386Y017152D02*
X026386Y017522D01*
X026324Y017522D02*
X026448Y017522D01*
X026203Y017337D02*
X025956Y017337D01*
X025835Y017522D02*
X025588Y017152D01*
X025466Y017152D02*
X025343Y017275D01*
X025405Y017275D02*
X025220Y017275D01*
X025220Y017152D02*
X025220Y017522D01*
X025405Y017522D01*
X025466Y017460D01*
X025466Y017337D01*
X025405Y017275D01*
X025588Y017522D02*
X025835Y017152D01*
X025641Y018152D02*
X025518Y018152D01*
X025456Y018213D01*
X025518Y018337D02*
X025641Y018337D01*
X025703Y018275D01*
X025703Y018213D01*
X025641Y018152D01*
X025518Y018337D02*
X025456Y018398D01*
X025456Y018460D01*
X025518Y018522D01*
X025641Y018522D01*
X025703Y018460D01*
X025824Y018337D02*
X026071Y018337D01*
X026193Y018460D02*
X026193Y018213D01*
X026254Y018152D01*
X026378Y018152D01*
X026440Y018213D01*
X026440Y018460D01*
X026378Y018522D01*
X026254Y018522D01*
X026193Y018460D01*
X025335Y018522D02*
X025088Y018522D01*
X025211Y018522D02*
X025211Y018152D01*
X024966Y018152D02*
X024843Y018275D01*
X024905Y018275D02*
X024720Y018275D01*
X024720Y018152D02*
X024720Y018522D01*
X024905Y018522D01*
X024966Y018460D01*
X024966Y018337D01*
X024905Y018275D01*
X018790Y019152D02*
X018790Y019337D01*
X018728Y019398D01*
X018481Y019398D01*
X018419Y019337D01*
X018419Y019152D01*
X018790Y019152D01*
X018728Y019520D02*
X018666Y019520D01*
X018604Y019582D01*
X018604Y019705D01*
X018666Y019767D01*
X018728Y019767D01*
X018790Y019705D01*
X018790Y019582D01*
X018728Y019520D01*
X018604Y019582D02*
X018543Y019520D01*
X018481Y019520D01*
X018419Y019582D01*
X018419Y019705D01*
X018481Y019767D01*
X018543Y019767D01*
X018604Y019705D01*
X017790Y019705D02*
X017790Y019582D01*
X017728Y019520D01*
X017728Y019398D02*
X017481Y019398D01*
X017419Y019337D01*
X017419Y019152D01*
X017790Y019152D01*
X017790Y019337D01*
X017728Y019398D01*
X017543Y019520D02*
X017604Y019582D01*
X017604Y019767D01*
X017481Y019767D02*
X017728Y019767D01*
X017790Y019705D01*
X017543Y019520D02*
X017481Y019520D01*
X017419Y019582D01*
X017419Y019705D01*
X017481Y019767D01*
X016790Y019767D02*
X016790Y019520D01*
X016790Y019643D02*
X016419Y019643D01*
X016543Y019520D01*
X016481Y019398D02*
X016419Y019337D01*
X016419Y019152D01*
X016790Y019152D01*
X016790Y019337D01*
X016728Y019398D01*
X016481Y019398D01*
X016481Y019888D02*
X016419Y019950D01*
X016419Y020073D01*
X016481Y020135D01*
X016728Y019888D01*
X016790Y019950D01*
X016790Y020073D01*
X016728Y020135D01*
X016481Y020135D01*
X016481Y019888D02*
X016728Y019888D01*
X015790Y019888D02*
X015790Y020135D01*
X015790Y020012D02*
X015419Y020012D01*
X015543Y019888D01*
X015790Y019767D02*
X015790Y019520D01*
X015790Y019643D02*
X015419Y019643D01*
X015543Y019520D01*
X015481Y019398D02*
X015419Y019337D01*
X015419Y019152D01*
X015790Y019152D01*
X015790Y019337D01*
X015728Y019398D01*
X015481Y019398D01*
X012790Y019337D02*
X012728Y019398D01*
X012604Y019398D01*
X012604Y019275D01*
X012481Y019398D02*
X012419Y019337D01*
X012419Y019213D01*
X012481Y019152D01*
X012728Y019152D01*
X012790Y019213D01*
X012790Y019337D01*
X012790Y019520D02*
X012419Y019520D01*
X012790Y019767D01*
X012419Y019767D01*
X012419Y019888D02*
X012419Y020073D01*
X012481Y020135D01*
X012728Y020135D01*
X012790Y020073D01*
X012790Y019888D01*
X012419Y019888D01*
X011690Y019773D02*
X011690Y019588D01*
X011319Y019588D01*
X011319Y019773D01*
X011381Y019835D01*
X011628Y019835D01*
X011690Y019773D01*
X011690Y019467D02*
X011319Y019467D01*
X011319Y019220D02*
X011690Y019467D01*
X011690Y019220D02*
X011319Y019220D01*
X011381Y019098D02*
X011319Y019037D01*
X011319Y018913D01*
X011381Y018852D01*
X011628Y018852D01*
X011690Y018913D01*
X011690Y019037D01*
X011628Y019098D01*
X011504Y019098D01*
X011504Y018975D01*
X010588Y019852D02*
X010464Y019852D01*
X010403Y019913D01*
X010649Y020160D01*
X010649Y019913D01*
X010588Y019852D01*
X010403Y019913D02*
X010403Y020160D01*
X010464Y020222D01*
X010588Y020222D01*
X010649Y020160D01*
X010281Y019852D02*
X010034Y019852D01*
X010158Y019852D02*
X010158Y020222D01*
X010034Y020098D01*
X009913Y020160D02*
X009666Y019913D01*
X009728Y019852D01*
X009851Y019852D01*
X009913Y019913D01*
X009913Y020160D01*
X009851Y020222D01*
X009728Y020222D01*
X009666Y020160D01*
X009666Y019913D01*
X009545Y019852D02*
X009298Y019852D01*
X009545Y020098D01*
X009545Y020160D01*
X009483Y020222D01*
X009359Y020222D01*
X009298Y020160D01*
X008808Y020160D02*
X008808Y020098D01*
X008746Y020037D01*
X008623Y020037D01*
X008561Y020098D01*
X008561Y020160D01*
X008623Y020222D01*
X008746Y020222D01*
X008808Y020160D01*
X008746Y020037D02*
X008808Y019975D01*
X008808Y019913D01*
X008746Y019852D01*
X008623Y019852D01*
X008561Y019913D01*
X008561Y019975D01*
X008623Y020037D01*
X008440Y019852D02*
X008193Y019852D01*
X008316Y019852D02*
X008316Y020222D01*
X008193Y020098D01*
X007703Y020037D02*
X007703Y019852D01*
X007703Y020037D02*
X007641Y020098D01*
X007456Y020098D01*
X007456Y019852D01*
X007335Y019852D02*
X007335Y020098D01*
X007088Y020098D02*
X007088Y019913D01*
X007150Y019852D01*
X007335Y019852D01*
X006905Y019913D02*
X006905Y020222D01*
X006966Y020222D02*
X006843Y020222D01*
X006905Y019913D02*
X006843Y019852D01*
X006781Y019852D01*
X006720Y019913D01*
X006720Y020852D02*
X006720Y021098D01*
X006781Y021098D01*
X006843Y021037D01*
X006905Y021098D01*
X006966Y021037D01*
X006966Y020852D01*
X007088Y020852D02*
X007335Y020852D01*
X007456Y020852D02*
X007456Y021098D01*
X007580Y021222D01*
X007703Y021098D01*
X007703Y020852D01*
X007824Y020852D02*
X008010Y020852D01*
X008071Y020913D01*
X008071Y021160D01*
X008010Y021222D01*
X007824Y021222D01*
X007824Y020852D01*
X007703Y021037D02*
X007456Y021037D01*
X007335Y021222D02*
X007088Y021222D01*
X007088Y020852D01*
X007088Y021037D02*
X007211Y021037D01*
X006843Y021037D02*
X006843Y020852D01*
X008193Y020852D02*
X008440Y020852D01*
X008193Y020852D02*
X008193Y021222D01*
X008929Y021222D02*
X008929Y020975D01*
X009053Y020852D01*
X009176Y020975D01*
X009176Y021222D01*
X009298Y021098D02*
X009421Y021222D01*
X009421Y020852D01*
X009298Y020852D02*
X009545Y020852D01*
D11*
X011105Y021087D02*
X011105Y020587D01*
X011355Y020337D01*
X011855Y020337D01*
X012105Y020587D01*
X012355Y020337D01*
X012855Y020337D01*
X013105Y020587D01*
X013355Y020337D01*
X013855Y020337D01*
X014105Y020587D01*
X014355Y020337D01*
X014855Y020337D01*
X015105Y020587D01*
X015355Y020337D01*
X015855Y020337D01*
X016105Y020587D01*
X016355Y020337D01*
X016855Y020337D01*
X017105Y020587D01*
X017355Y020337D01*
X017855Y020337D01*
X018105Y020587D01*
X018355Y020337D01*
X018855Y020337D01*
X019105Y020587D01*
X019105Y021087D01*
X018855Y021337D01*
X018355Y021337D01*
X018105Y021087D01*
X017855Y021337D01*
X017355Y021337D01*
X017105Y021087D01*
X016855Y021337D01*
X016355Y021337D01*
X016105Y021087D01*
X015855Y021337D01*
X015355Y021337D01*
X015105Y021087D01*
X014855Y021337D01*
X014355Y021337D01*
X014105Y021087D01*
X013855Y021337D01*
X013355Y021337D01*
X013105Y021087D01*
X012855Y021337D01*
X012355Y021337D01*
X012105Y021087D01*
X011855Y021337D01*
X011355Y021337D01*
X011105Y021087D01*
X019705Y021087D02*
X019705Y020587D01*
X019955Y020337D01*
X020455Y020337D01*
X020705Y020587D01*
X020955Y020337D01*
X021455Y020337D01*
X021705Y020587D01*
X021955Y020337D01*
X022455Y020337D01*
X022705Y020587D01*
X022955Y020337D01*
X023455Y020337D01*
X023705Y020587D01*
X023955Y020337D01*
X024455Y020337D01*
X024705Y020587D01*
X024955Y020337D01*
X025455Y020337D01*
X025705Y020587D01*
X025955Y020337D01*
X026455Y020337D01*
X026705Y020587D01*
X026955Y020337D01*
X027455Y020337D01*
X027705Y020587D01*
X027705Y021087D01*
X027455Y021337D01*
X026955Y021337D01*
X026705Y021087D01*
X026455Y021337D01*
X025955Y021337D01*
X025705Y021087D01*
X025455Y021337D01*
X024955Y021337D01*
X024705Y021087D01*
X024455Y021337D01*
X023955Y021337D01*
X023705Y021087D01*
X023455Y021337D01*
X022955Y021337D01*
X022705Y021087D01*
X022455Y021337D01*
X021955Y021337D01*
X021705Y021087D01*
X021455Y021337D01*
X020955Y021337D01*
X020705Y021087D01*
X020455Y021337D01*
X019955Y021337D01*
X019705Y021087D01*
X026705Y018587D02*
X026705Y018087D01*
X026955Y017837D01*
X026705Y017587D01*
X026705Y017087D01*
X026955Y016837D01*
X026705Y016587D01*
X026705Y016087D01*
X026955Y015837D01*
X026705Y015587D01*
X026705Y015087D01*
X026955Y014837D01*
X026705Y014587D01*
X026705Y014087D01*
X026955Y013837D01*
X026705Y013587D01*
X026705Y013087D01*
X026955Y012837D01*
X027455Y012837D01*
X027705Y013087D01*
X027705Y013587D01*
X027455Y013837D01*
X027705Y014087D01*
X027705Y014587D01*
X027455Y014837D01*
X027705Y015087D01*
X027705Y015587D01*
X027455Y015837D01*
X027705Y016087D01*
X027705Y016587D01*
X027455Y016837D01*
X027705Y017087D01*
X027705Y017587D01*
X027455Y017837D01*
X027705Y018087D01*
X027705Y018587D01*
X027455Y018837D01*
X026955Y018837D01*
X026705Y018587D01*
X015705Y009587D02*
X015455Y009837D01*
X014955Y009837D01*
X014705Y009587D01*
X014705Y009087D01*
X014955Y008837D01*
X015455Y008837D01*
X015705Y009087D01*
X015705Y009587D01*
X015205Y006937D02*
X015205Y006837D01*
X015505Y006837D01*
X015505Y004837D01*
X015205Y004837D01*
X015205Y004737D01*
X015205Y004837D02*
X014905Y004837D01*
X014905Y006837D01*
X015205Y006837D01*
X013955Y005837D02*
X013455Y005837D01*
X012205Y006087D02*
X011955Y005837D01*
X012205Y005587D01*
X012205Y005087D01*
X011955Y004837D01*
X012205Y004587D01*
X012205Y004087D01*
X011955Y003837D01*
X011455Y003837D01*
X011205Y004087D01*
X010955Y003837D01*
X010455Y003837D01*
X010205Y004087D01*
X010205Y004587D01*
X010455Y004837D01*
X010205Y005087D01*
X010205Y005587D01*
X010455Y005837D01*
X010205Y006087D01*
X010205Y006587D01*
X010455Y006837D01*
X010205Y007087D01*
X010205Y007587D01*
X010455Y007837D01*
X010205Y008087D01*
X010205Y008587D01*
X010455Y008837D01*
X010955Y008837D01*
X011205Y008587D01*
X011205Y008087D01*
X010955Y007837D01*
X011205Y007587D01*
X011205Y007087D01*
X010955Y006837D01*
X011205Y006587D01*
X011205Y006087D01*
X010955Y005837D01*
X011205Y005587D01*
X011205Y005087D01*
X010955Y004837D01*
X011205Y004587D01*
X011205Y004087D01*
X011205Y004587D01*
X011455Y004837D01*
X011205Y005087D01*
X011205Y005587D01*
X011455Y005837D01*
X011205Y006087D01*
X011205Y006587D01*
X011455Y006837D01*
X011205Y007087D01*
X011205Y007587D01*
X011455Y007837D01*
X011205Y008087D01*
X011205Y008587D01*
X011455Y008837D01*
X011955Y008837D01*
X012205Y008587D01*
X012205Y008087D01*
X011955Y007837D01*
X012205Y007587D01*
X012205Y007087D01*
X011955Y006837D01*
X012205Y006587D01*
X012205Y006087D01*
X016455Y005837D02*
X016955Y005837D01*
X017905Y006837D02*
X018205Y006837D01*
X018205Y006937D01*
X018205Y006837D02*
X018505Y006837D01*
X018505Y004837D01*
X018205Y004837D01*
X018205Y004737D01*
X018205Y004837D02*
X017905Y004837D01*
X017905Y006837D01*
X019455Y005837D02*
X019955Y005837D01*
X020905Y006837D02*
X021205Y006837D01*
X021205Y006937D01*
X021205Y006837D02*
X021505Y006837D01*
X021505Y004837D01*
X021205Y004837D01*
X021205Y004737D01*
X021205Y004837D02*
X020905Y004837D01*
X020905Y006837D01*
X022455Y005837D02*
X022955Y005837D01*
X023905Y006837D02*
X024205Y006837D01*
X024205Y006937D01*
X024205Y006837D02*
X024505Y006837D01*
X024505Y004837D01*
X024205Y004837D01*
X024205Y004737D01*
X024205Y004837D02*
X023905Y004837D01*
X023905Y006837D01*
X025455Y005837D02*
X025955Y005837D01*
X026905Y006837D02*
X027205Y006837D01*
X027205Y006937D01*
X027205Y006837D02*
X027505Y006837D01*
X027505Y004837D01*
X027205Y004837D01*
X027205Y004737D01*
X027205Y004837D02*
X026905Y004837D01*
X026905Y006837D01*
X026955Y002337D02*
X027455Y002337D01*
X027705Y002087D01*
X027705Y001587D01*
X027455Y001337D01*
X026955Y001337D01*
X026705Y001587D01*
X026455Y001337D01*
X025955Y001337D01*
X025705Y001587D01*
X025455Y001337D01*
X024955Y001337D01*
X024705Y001587D01*
X024455Y001337D01*
X023955Y001337D01*
X023705Y001587D01*
X023455Y001337D01*
X022955Y001337D01*
X022705Y001587D01*
X022455Y001337D01*
X021955Y001337D01*
X021705Y001587D01*
X021705Y002087D01*
X021955Y002337D01*
X022455Y002337D01*
X022705Y002087D01*
X022955Y002337D01*
X023455Y002337D01*
X023705Y002087D01*
X023955Y002337D01*
X024455Y002337D01*
X024705Y002087D01*
X024955Y002337D01*
X025455Y002337D01*
X025705Y002087D01*
X025955Y002337D01*
X026455Y002337D01*
X026705Y002087D01*
X026955Y002337D01*
X020705Y002087D02*
X020705Y001587D01*
X020455Y001337D01*
X019955Y001337D01*
X019705Y001587D01*
X019455Y001337D01*
X018955Y001337D01*
X018705Y001587D01*
X018455Y001337D01*
X017955Y001337D01*
X017705Y001587D01*
X017455Y001337D01*
X016955Y001337D01*
X016705Y001587D01*
X016455Y001337D01*
X015955Y001337D01*
X015705Y001587D01*
X015455Y001337D01*
X014955Y001337D01*
X014705Y001587D01*
X014705Y002087D01*
X014955Y002337D01*
X015455Y002337D01*
X015705Y002087D01*
X015955Y002337D01*
X016455Y002337D01*
X016705Y002087D01*
X016955Y002337D01*
X017455Y002337D01*
X017705Y002087D01*
X017955Y002337D01*
X018455Y002337D01*
X018705Y002087D01*
X018955Y002337D01*
X019455Y002337D01*
X019705Y002087D01*
X019955Y002337D01*
X020455Y002337D01*
X020705Y002087D01*
D12*
X013994Y002693D02*
X013994Y000980D01*
X009415Y000980D01*
X009415Y002693D01*
X013994Y002693D01*
M02*
