%
M48
M72
T01C0.0276
T02C0.0354
T03C0.0400
T04C0.1300
%
T01
X13705Y5337
X13705Y6337
X16705Y6337
X16705Y5337
X19705Y5337
X19705Y6337
X22705Y6337
X22705Y5337
X25705Y5337
X25705Y6337
T02
X27205Y7337
X24205Y7337
X21205Y7337
X18205Y7337
X15205Y7337
X15205Y4337
X18205Y4337
X21205Y4337
X24205Y4337
X27205Y4337
T03
X27205Y1837
X26205Y1837
X25205Y1837
X24205Y1837
X23205Y1837
X22205Y1837
X20205Y1837
X19205Y1837
X18205Y1837
X17205Y1837
X16205Y1837
X15205Y1837
X12705Y1837
X11705Y1837
X10705Y1837
X10705Y4337
X11705Y4337
X11705Y5337
X10705Y5337
X10705Y6337
X11705Y6337
X11705Y7337
X10705Y7337
X10705Y8337
X11705Y8337
X15205Y9337
X7705Y9497
X6705Y8957
X7705Y8417
X6705Y7877
X7705Y7337
X6705Y6797
X7705Y6257
X6705Y5717
X7705Y5177
X27205Y13337
X27205Y14337
X27205Y15337
X27205Y16337
X27205Y17337
X27205Y18337
X27205Y20837
X26205Y20837
X25205Y20837
X24205Y20837
X23205Y20837
X22205Y20837
X21205Y20837
X20205Y20837
X18605Y20837
X17605Y20837
X16605Y20837
X15605Y20837
X14605Y20837
X13605Y20837
X12605Y20837
X11605Y20837
T04
X7205Y2407
X7205Y12267
M30
