999
dxflib 2.0.4.8
  0
SECTION
  2
HEADER
  9
$ACADVER
  1
AC1015
  9
$HANDSEED
  5
FFFF
  9
$CLAYER
  8
0
  9
$DIMASZ
 40
2.5
  9
$DIMGAP
 40
0.625
  9
$DIMEXO
 40
0.625
  9
$INSUNITS
 70
4
  9
$DIMTXT
 40
2.5
  9
$DIMSTYLE
  2
Standard
  9
$PLIMMAX
 10
210.0
 20
297.0
  9
$PLIMMIN
 10
0.0
 20
0.0
  9
$DIMEXE
 40
1.25
  0
ENDSEC
  0
SECTION
  2
TABLES
  0
TABLE
  2
VPORT
  5
8
100
AcDbSymbolTable
 70
1
  0
VPORT
  5
30
100
AcDbSymbolTableRecord
100
AcDbViewportTableRecord
  2
*Active
 70
0
 10
0.0
 20
0.0
 11
1.0
 21
1.0
 12
286.3055555555554861
 22
148.5
 13
0.0
 23
0.0
 14
10.0
 24
10.0
 15
10.0
 25
10.0
 16
0.0
 26
0.0
 36
1.0
 17
0.0
 27
0.0
 37
0.0
 40
297.0
 41
1.92798353909465
 42
50.0
 43
0.0
 44
0.0
 50
0.0
 51
0.0
 71
0
 72
100
 73
1
 74
3
 75
1
 76
1
 77
0
 78
0
281
0
 65
1
110
0.0
120
0.0
130
0.0
111
1.0
121
0.0
131
0.0
112
0.0
122
1.0
132
0.0
 79
0
146
0.0
  0
ENDTAB
  0
TABLE
  2
LTYPE
  5
5
100
AcDbSymbolTable
 70
21
  0
LTYPE
  5
14
100
AcDbSymbolTableRecord
100
AcDbLinetypeTableRecord
  2
ByBlock
 70
0
  3

 72
65
 73
0
 40
0.0
  0
LTYPE
  5
15
100
AcDbSymbolTableRecord
100
AcDbLinetypeTableRecord
  2
ByLayer
 70
0
  3

 72
65
 73
0
 40
0.0
  0
LTYPE
  5
16
100
AcDbSymbolTableRecord
100
AcDbLinetypeTableRecord
  2
CONTINUOUS
 70
0
  3
Solid line
 72
65
 73
0
 40
0.0
  0
LTYPE
  5
31
100
AcDbSymbolTableRecord
100
AcDbLinetypeTableRecord
  2
DOT
 70
0
  3
Dot . . . . . . . . . . . . . . . . . . . . . .
 72
65
 73
2
 40
6.3499999999999996
 49
0.0
 74
0
 49
-6.3499999999999996
 74
0
  0
LTYPE
  5
32
100
AcDbSymbolTableRecord
100
AcDbLinetypeTableRecord
  2
DOT2
 70
0
  3
Dot (.5x) .....................................
 72
65
 73
2
 40
3.1749999999999998
 49
0.0
 74
0
 49
-3.1749999999999998
 74
0
  0
LTYPE
  5
33
100
AcDbSymbolTableRecord
100
AcDbLinetypeTableRecord
  2
DOTX2
 70
0
  3
Dot (2x) .  .  .  .  .  .  .  .  .  .  .  .  .
 72
65
 73
2
 40
12.6999999999999993
 49
0.0
 74
0
 49
-12.6999999999999993
 74
0
  0
LTYPE
  5
34
100
AcDbSymbolTableRecord
100
AcDbLinetypeTableRecord
  2
DASHED
 70
0
  3
Dashed __ __ __ __ __ __ __ __ __ __ __ __ __ _
 72
65
 73
2
 40
19.0500000000000007
 49
12.6999999999999993
 74
0
 49
-6.3499999999999996
 74
0
  0
LTYPE
  5
35
100
AcDbSymbolTableRecord
100
AcDbLinetypeTableRecord
  2
DASHED2
 70
0
  3
Dashed (.5x) _ _ _ _ _ _ _ _ _ _ _ _ _ _ _ _ _
 72
65
 73
2
 40
9.5250000000000004
 49
6.3499999999999996
 74
0
 49
-3.1749999999999998
 74
0
  0
LTYPE
  5
36
100
AcDbSymbolTableRecord
100
AcDbLinetypeTableRecord
  2
DASHEDX2
 70
0
  3
Dashed (2x) ____  ____  ____  ____  ____  ___
 72
65
 73
2
 40
38.1000000000000014
 49
25.3999999999999986
 74
0
 49
-12.6999999999999993
 74
0
  0
LTYPE
  5
37
100
AcDbSymbolTableRecord
100
AcDbLinetypeTableRecord
  2
DASHDOT
 70
0
  3
Dash dot __ . __ . __ . __ . __ . __ . __ . __
 72
65
 73
4
 40
25.3999999999999986
 49
12.6999999999999993
 74
0
 49
-6.3499999999999996
 74
0
 49
0.0
 74
0
 49
-6.3499999999999996
 74
0
  0
LTYPE
  5
38
100
AcDbSymbolTableRecord
100
AcDbLinetypeTableRecord
  2
DASHDOT2
 70
0
  3
Dash dot (.5x) _._._._._._._._._._._._._._._.
 72
65
 73
4
 40
12.6999999999999993
 49
6.3499999999999996
 74
0
 49
-3.1749999999999998
 74
0
 49
0.0
 74
0
 49
-3.1749999999999998
 74
0
  0
LTYPE
  5
39
100
AcDbSymbolTableRecord
100
AcDbLinetypeTableRecord
  2
DASHDOTX2
 70
0
  3
Dash dot (2x) ____  .  ____  .  ____  .  ___
 72
65
 73
4
 40
50.7999999999999972
 49
25.3999999999999986
 74
0
 49
-12.6999999999999993
 74
0
 49
0.0
 74
0
 49
-12.6999999999999993
 74
0
  0
LTYPE
  5
3A
100
AcDbSymbolTableRecord
100
AcDbLinetypeTableRecord
  2
DIVIDE
 70
0
  3
Divide ____ . . ____ . . ____ . . ____ . . ____
 72
65
 73
6
 40
31.75
 49
12.6999999999999993
 74
0
 49
-6.3499999999999996
 74
0
 49
0.0
 74
0
 49
-6.3499999999999996
 74
0
 49
0.0
 74
0
 49
-6.3499999999999996
 74
0
  0
LTYPE
  5
3B
100
AcDbSymbolTableRecord
100
AcDbLinetypeTableRecord
  2
DIVIDE2
 70
0
  3
Divide (.5x) __..__..__..__..__..__..__..__.._
 72
65
 73
6
 40
15.875
 49
6.3499999999999996
 74
0
 49
-3.1749999999999998
 74
0
 49
0.0
 74
0
 49
-3.1749999999999998
 74
0
 49
0.0
 74
0
 49
-3.1749999999999998
 74
0
  0
LTYPE
  5
3C
100
AcDbSymbolTableRecord
100
AcDbLinetypeTableRecord
  2
DIVIDEX2
 70
0
  3
Divide (2x) ________  .  .  ________  .  .  _
 72
65
 73
6
 40
63.5
 49
25.3999999999999986
 74
0
 49
-12.6999999999999993
 74
0
 49
0.0
 74
0
 49
-12.6999999999999993
 74
0
 49
0.0
 74
0
 49
-12.6999999999999993
 74
0
  0
LTYPE
  5
3D
100
AcDbSymbolTableRecord
100
AcDbLinetypeTableRecord
  2
CENTER
 70
0
  3
Center ____ _ ____ _ ____ _ ____ _ ____ _ ____
 72
65
 73
4
 40
50.7999999999999972
 49
31.75
 74
0
 49
-6.3499999999999996
 74
0
 49
6.3499999999999996
 74
0
 49
-6.3499999999999996
 74
0
  0
LTYPE
  5
3E
100
AcDbSymbolTableRecord
100
AcDbLinetypeTableRecord
  2
CENTER2
 70
0
  3
Center (.5x) ___ _ ___ _ ___ _ ___ _ ___ _ ___
 72
65
 73
4
 40
28.5749999999999993
 49
19.0500000000000007
 74
0
 49
-3.1749999999999998
 74
0
 49
3.1749999999999998
 74
0
 49
-3.1749999999999998
 74
0
  0
LTYPE
  5
3F
100
AcDbSymbolTableRecord
100
AcDbLinetypeTableRecord
  2
CENTERX2
 70
0
  3
Center (2x) ________  __  ________  __  _____
 72
65
 73
4
 40
101.5999999999999943
 49
63.5
 74
0
 49
-12.6999999999999993
 74
0
 49
12.6999999999999993
 74
0
 49
-12.6999999999999993
 74
0
  0
LTYPE
  5
40
100
AcDbSymbolTableRecord
100
AcDbLinetypeTableRecord
  2
BORDER
 70
0
  3
Border __ __ . __ __ . __ __ . __ __ . __ __ .
 72
65
 73
6
 40
44.4500000000000028
 49
12.6999999999999993
 74
0
 49
-6.3499999999999996
 74
0
 49
12.6999999999999993
 74
0
 49
-6.3499999999999996
 74
0
 49
0.0
 74
0
 49
-6.3499999999999996
 74
0
  0
LTYPE
  5
41
100
AcDbSymbolTableRecord
100
AcDbLinetypeTableRecord
  2
BORDER2
 70
0
  3
Border (.5x) __.__.__.__.__.__.__.__.__.__.__.
 72
65
 73
6
 40
22.2250000000000014
 49
6.3499999999999996
 74
0
 49
-3.1749999999999998
 74
0
 49
6.3499999999999996
 74
0
 49
-3.1749999999999998
 74
0
 49
0.0
 74
0
 49
-3.1749999999999998
 74
0
  0
LTYPE
  5
42
100
AcDbSymbolTableRecord
100
AcDbLinetypeTableRecord
  2
BORDERX2
 70
0
  3
Border (2x) ____  ____  .  ____  ____  .  ___
 72
65
 73
6
 40
88.9000000000000057
 49
25.3999999999999986
 74
0
 49
-12.6999999999999993
 74
0
 49
25.3999999999999986
 74
0
 49
-12.6999999999999993
 74
0
 49
0.0
 74
0
 49
-12.6999999999999993
 74
0
  0
ENDTAB
  0
TABLE
  2
LAYER
  5
2
100
AcDbSymbolTable
 70
3
  0
LAYER
  5
10
100
AcDbSymbolTableRecord
100
AcDbLayerTableRecord
  2
0
 70
0
 62
7
  6
CONTINUOUS
370
25
390
F
  0
LAYER
  5
43
100
AcDbSymbolTableRecord
100
AcDbLayerTableRecord
  2
Perimeter
 70
0
 62
3
  6
CONTINUOUS
370
-3
390
F
  0
LAYER
  5
44
100
AcDbSymbolTableRecord
100
AcDbLayerTableRecord
  2
Interior
 70
0
 62
1
  6
CONTINUOUS
370
0
390
F
  0
ENDTAB
  0
TABLE
  2
STYLE
  5
3
100
AcDbSymbolTable
 70
1
  0
STYLE
  5
11
100
AcDbSymbolTableRecord
100
AcDbTextStyleTableRecord
  2
Standard
 70
0
 40
0.0
 41
0.75
 50
0.0
 71
0
 42
2.5
  3
txt
  4

  0
ENDTAB
  0
TABLE
  2
VIEW
  5
6
100
AcDbSymbolTable
 70
0
  0
ENDTAB
  0
TABLE
  2
UCS
  5
7
100
AcDbSymbolTable
 70
0
  0
ENDTAB
  0
TABLE
  2
APPID
  5
9
100
AcDbSymbolTable
 70
1
  0
APPID
  5
12
100
AcDbSymbolTableRecord
100
AcDbRegAppTableRecord
  2
ACAD
 70
0
  0
ENDTAB
  0
TABLE
  2
DIMSTYLE
  5
A
100
AcDbSymbolTable
 70
1
100
AcDbDimStyleTable
 71
0
  0
DIMSTYLE
105
27
100
AcDbSymbolTableRecord
100
AcDbDimStyleTableRecord
  2
Standard
 41
2.5
 42
0.625
 43
3.75
 44
1.25
 70
0
 73
0
 74
0
 77
1
 78
8
140
2.5
141
2.5
143
0.03937007874016
147
0.625
171
3
172
1
271
2
272
2
274
3
278
44
283
0
284
8
340
11
  0
ENDTAB
  0
TABLE
  2
BLOCK_RECORD
  5
1
100
AcDbSymbolTable
 70
1
  0
BLOCK_RECORD
  5
1F
100
AcDbSymbolTableRecord
100
AcDbBlockTableRecord
  2
*Model_Space
340
22
  0
BLOCK_RECORD
  5
1B
100
AcDbSymbolTableRecord
100
AcDbBlockTableRecord
  2
*Paper_Space
340
1E
  0
BLOCK_RECORD
  5
23
100
AcDbSymbolTableRecord
100
AcDbBlockTableRecord
  2
*Paper_Space0
340
26
  0
ENDTAB
  0
ENDSEC
  0
SECTION
  2
BLOCKS
  0
BLOCK
  5
20
100
AcDbEntity
  8
0
100
AcDbBlockBegin
  2
*Model_Space
 70
0
 10
0.0
 20
0.0
 30
0.0
  3
*Model_Space
  1

  0
ENDBLK
  5
21
100
AcDbEntity
  8
0
100
AcDbBlockEnd
  0
BLOCK
  5
1C
100
AcDbEntity
 67
1
  8
0
100
AcDbBlockBegin
  2
*Paper_Space
 70
0
 10
0.0
 20
0.0
 30
0.0
  3
*Paper_Space
  1

  0
ENDBLK
  5
1D
100
AcDbEntity
 67
1
  8
0
100
AcDbBlockEnd
  0
BLOCK
  5
24
100
AcDbEntity
  8
0
100
AcDbBlockBegin
  2
*Paper_Space0
 70
0
 10
0.0
 20
0.0
 30
0.0
  3
*Paper_Space0
  1

  0
ENDBLK
  5
25
100
AcDbEntity
  8
0
100
AcDbBlockEnd
  0
ENDSEC
  0
SECTION
  2
ENTITIES
  0
LINE
  5
45
100
AcDbEntity
100
AcDbLine
  8
Perimeter
 62
256
370
-1
  6
ByLayer
 10
1.5
 20
176.5980762113529181
 30
0.0
 11
2.2235428646930018
 21
176.8977774788668853
 31
0.0
  0
LINE
  5
46
100
AcDbEntity
100
AcDbLine
  8
Perimeter
 62
256
370
-1
  6
ByLayer
 10
3.0
 20
176.9999999999998863
 30
0.0
 11
2.2235428646930018
 21
176.8977774788668853
 31
0.0
  0
LINE
  5
47
100
AcDbEntity
100
AcDbLine
  8
Perimeter
 62
256
370
-1
  6
ByLayer
 10
71.8403308421970053
 20
176.8977774788668853
 30
0.0
 11
71.0638737068890123
 21
176.9999999999998863
 31
0.0
  0
LINE
  5
48
100
AcDbEntity
100
AcDbLine
  8
Perimeter
 62
256
370
-1
  6
ByLayer
 10
72.5638737068890123
 20
176.5980762113529181
 30
0.0
 11
71.8403308421970053
 21
176.8977774788668853
 31
0.0
  0
LINE
  5
49
100
AcDbEntity
100
AcDbLine
  8
Perimeter
 62
256
370
-1
  6
ByLayer
 10
73.185194050449013
 20
176.1213203435598871
 30
0.0
 11
72.5638737068890123
 21
176.5980762113529181
 31
0.0
  0
LINE
  5
4A
100
AcDbEntity
100
AcDbLine
  8
Perimeter
 62
256
370
-1
  6
ByLayer
 10
73.6619499182430104
 20
175.4999999999998863
 30
0.0
 11
73.185194050449013
 21
176.1213203435598871
 31
0.0
  0
LINE
  5
4B
100
AcDbEntity
100
AcDbLine
  8
Perimeter
 62
256
370
-1
  6
ByLayer
 10
73.961651185757006
 20
174.7764571353079077
 30
0.0
 11
73.6619499182430104
 21
175.4999999999998863
 31
0.0
  0
LINE
  5
4C
100
AcDbEntity
100
AcDbLine
  8
Perimeter
 62
256
370
-1
  6
ByLayer
 10
74.0638737068890123
 20
173.9999999999998863
 30
0.0
 11
73.961651185757006
 21
174.7764571353079077
 31
0.0
  0
LINE
  5
4D
100
AcDbEntity
100
AcDbLine
  8
Perimeter
 62
256
370
-1
  6
ByLayer
 10
74.0638737068890123
 20
173.9999999999998863
 30
0.0
 11
74.0638737068890123
 21
91.4999999999999005
 31
0.0
  0
LINE
  5
4E
100
AcDbEntity
100
AcDbLine
  8
Perimeter
 62
256
370
-1
  6
ByLayer
 10
73.961651185757006
 20
90.7235428646923907
 30
0.0
 11
74.0638737068890123
 21
91.4999999999999005
 31
0.0
  0
LINE
  5
4F
100
AcDbEntity
100
AcDbLine
  8
Perimeter
 62
256
370
-1
  6
ByLayer
 10
73.6619499182430104
 20
89.9999999999999005
 30
0.0
 11
73.961651185757006
 21
90.7235428646923907
 31
0.0
  0
LINE
  5
50
100
AcDbEntity
100
AcDbLine
  8
Perimeter
 62
256
370
-1
  6
ByLayer
 10
73.185194050449013
 20
89.3786796564402977
 30
0.0
 11
73.6619499182430104
 21
89.9999999999999005
 31
0.0
  0
LINE
  5
51
100
AcDbEntity
100
AcDbLine
  8
Perimeter
 62
256
370
-1
  6
ByLayer
 10
72.5638737068890123
 20
88.9019237886465987
 30
0.0
 11
73.185194050449013
 21
89.3786796564402977
 31
0.0
  0
LINE
  5
52
100
AcDbEntity
100
AcDbLine
  8
Perimeter
 62
256
370
-1
  6
ByLayer
 10
71.8403308421970053
 20
88.6022225211327026
 30
0.0
 11
72.5638737068890123
 21
88.9019237886465987
 31
0.0
  0
LINE
  5
53
100
AcDbEntity
100
AcDbLine
  8
Perimeter
 62
256
370
-1
  6
ByLayer
 10
71.0638737068890123
 20
88.5
 30
0.0
 11
71.8403308421970053
 21
88.6022225211327026
 31
0.0
  0
LINE
  5
54
100
AcDbEntity
100
AcDbLine
  8
Perimeter
 62
256
370
-1
  6
ByLayer
 10
2.2235428646930018
 20
88.6022225211329015
 30
0.0
 11
3.0
 21
88.5
 31
0.0
  0
LINE
  5
55
100
AcDbEntity
100
AcDbLine
  8
Perimeter
 62
256
370
-1
  6
ByLayer
 10
1.5
 20
88.9019237886465987
 30
0.0
 11
2.2235428646930018
 21
88.6022225211329015
 31
0.0
  0
LINE
  5
56
100
AcDbEntity
100
AcDbLine
  8
Perimeter
 62
256
370
-1
  6
ByLayer
 10
0.8786796564409656
 20
89.3786796564401982
 30
0.0
 11
1.5
 21
88.9019237886465987
 31
0.0
  0
LINE
  5
57
100
AcDbEntity
100
AcDbLine
  8
Perimeter
 62
256
370
-1
  6
ByLayer
 10
0.401923788647025
 20
90.0
 30
0.0
 11
0.8786796564409656
 21
89.3786796564401982
 31
0.0
  0
LINE
  5
58
100
AcDbEntity
100
AcDbLine
  8
Perimeter
 62
256
370
-1
  6
ByLayer
 10
0.102222521133001
 20
90.7235428646923907
 30
0.0
 11
0.401923788647025
 21
90.0
 31
0.0
  0
LINE
  5
59
100
AcDbEntity
100
AcDbLine
  8
Perimeter
 62
256
370
-1
  6
ByLayer
 10
0.0
 20
91.5
 30
0.0
 11
0.102222521133001
 21
90.7235428646923907
 31
0.0
  0
LINE
  5
5A
100
AcDbEntity
100
AcDbLine
  8
Perimeter
 62
256
370
-1
  6
ByLayer
 10
0.0
 20
91.5
 30
0.0
 11
0.0
 21
173.9999999999998863
 31
0.0
  0
LINE
  5
5B
100
AcDbEntity
100
AcDbLine
  8
Perimeter
 62
256
370
-1
  6
ByLayer
 10
0.102222521133001
 20
174.7764571353079077
 30
0.0
 11
0.0
 21
173.9999999999998863
 31
0.0
  0
LINE
  5
5C
100
AcDbEntity
100
AcDbLine
  8
Perimeter
 62
256
370
-1
  6
ByLayer
 10
0.401923788647025
 20
175.4999999999998863
 30
0.0
 11
0.102222521133001
 21
174.7764571353079077
 31
0.0
  0
LINE
  5
5D
100
AcDbEntity
100
AcDbLine
  8
Perimeter
 62
256
370
-1
  6
ByLayer
 10
0.8786796564409656
 20
176.1213203435598871
 30
0.0
 11
0.401923788647025
 21
175.4999999999998863
 31
0.0
  0
LINE
  5
5E
100
AcDbEntity
100
AcDbLine
  8
Perimeter
 62
256
370
-1
  6
ByLayer
 10
1.5
 20
176.5980762113529181
 30
0.0
 11
0.8786796564409656
 21
176.1213203435598871
 31
0.0
  0
LINE
  5
5F
100
AcDbEntity
100
AcDbLine
  8
Perimeter
 62
256
370
-1
  6
ByLayer
 10
15.4011501534771469
 20
179.9999999999998863
 30
0.0
 11
0.4011501534771469
 21
179.9999999999998863
 31
0.0
  0
LINE
  5
60
100
AcDbEntity
100
AcDbLine
  8
Perimeter
 62
256
370
-1
  6
ByLayer
 10
0.4011501534771469
 20
207.995183534872865
 30
0.0
 11
0.4011501534771469
 21
218.0951835348728878
 31
0.0
  0
LINE
  5
61
100
AcDbEntity
100
AcDbLine
  8
Perimeter
 62
256
370
-1
  6
ByLayer
 10
0.4011501534771469
 20
218.0951835348728878
 30
0.0
 11
15.4011501534771469
 21
218.0951835348728878
 31
0.0
  0
LINE
  5
62
100
AcDbEntity
100
AcDbLine
  8
Perimeter
 62
256
370
-1
  6
ByLayer
 10
15.4011501534771469
 20
218.0951835348728878
 30
0.0
 11
15.4011501534771469
 21
221.0951835348728878
 31
0.0
  0
LINE
  5
63
100
AcDbEntity
100
AcDbLine
  8
Perimeter
 62
256
370
-1
  6
ByLayer
 10
62.4011501534771469
 20
218.0951835348728878
 30
0.0
 11
47.4011501534771469
 21
218.0951835348728878
 31
0.0
  0
LINE
  5
64
100
AcDbEntity
100
AcDbLine
  8
Perimeter
 62
256
370
-1
  6
ByLayer
 10
62.4011501534771469
 20
207.995183534872865
 30
0.0
 11
62.4011501534771469
 21
218.0951835348728878
 31
0.0
  0
LINE
  5
65
100
AcDbEntity
100
AcDbLine
  8
Perimeter
 62
256
370
-1
  6
ByLayer
 10
62.4011501534771469
 20
179.9999999999998863
 30
0.0
 11
47.4011501534771469
 21
179.9999999999998863
 31
0.0
  0
LINE
  5
66
100
AcDbEntity
100
AcDbLine
  8
Perimeter
 62
256
370
-1
  6
ByLayer
 10
47.4011501534771469
 20
179.9999999999998863
 30
0.0
 11
47.4011501534771469
 21
176.9999999999998863
 31
0.0
  0
LINE
  5
67
100
AcDbEntity
100
AcDbLine
  8
Perimeter
 62
256
370
-1
  6
ByLayer
 10
15.4011501534771469
 20
179.9999999999998863
 30
0.0
 11
15.4011501534771469
 21
176.9999999999998863
 31
0.0
  0
LINE
  5
68
100
AcDbEntity
100
AcDbLine
  8
Perimeter
 62
256
370
-1
  6
ByLayer
 10
62.4011501534771469
 20
179.9999999999998863
 30
0.0
 11
62.4011501534771469
 21
190.0999999999998522
 31
0.0
  0
LINE
  5
69
100
AcDbEntity
100
AcDbLine
  8
Perimeter
 62
256
370
-1
  6
ByLayer
 10
0.4011501534771469
 20
179.9999999999998863
 30
0.0
 11
0.4011501534771469
 21
190.0999999999998522
 31
0.0
  0
LINE
  5
6A
100
AcDbEntity
100
AcDbLine
  8
Perimeter
 62
256
370
-1
  6
ByLayer
 10
15.4011501534771469
 20
221.0951835348728878
 30
0.0
 11
47.4011501534771469
 21
221.0951835348728878
 31
0.0
  0
LINE
  5
6B
100
AcDbEntity
100
AcDbLine
  8
Perimeter
 62
256
370
-1
  6
ByLayer
 10
47.4011501534771469
 20
221.0951835348728878
 30
0.0
 11
47.4011501534771469
 21
218.0951835348728878
 31
0.0
  0
LINE
  5
6C
100
AcDbEntity
100
AcDbLine
  8
Perimeter
 62
256
370
-1
  6
ByLayer
 10
0.4011501534771469
 20
190.0999999999998522
 30
0.0
 11
3.4011501534771469
 21
190.0999999999998522
 31
0.0
  0
LINE
  5
6D
100
AcDbEntity
100
AcDbLine
  8
Perimeter
 62
256
370
-1
  6
ByLayer
 10
0.4011501534771469
 20
207.995183534872865
 30
0.0
 11
3.4011501534771469
 21
207.995183534872865
 31
0.0
  0
LINE
  5
6E
100
AcDbEntity
100
AcDbLine
  8
Perimeter
 62
256
370
-1
  6
ByLayer
 10
3.4011501534771469
 20
207.995183534872865
 30
0.0
 11
3.4011501534771469
 21
190.0999999999998522
 31
0.0
  0
LINE
  5
6F
100
AcDbEntity
100
AcDbLine
  8
Perimeter
 62
256
370
-1
  6
ByLayer
 10
62.4011501534771469
 20
190.0999999999998522
 30
0.0
 11
59.4011501534771469
 21
190.0999999999998522
 31
0.0
  0
LINE
  5
70
100
AcDbEntity
100
AcDbLine
  8
Perimeter
 62
256
370
-1
  6
ByLayer
 10
59.4011501534771469
 20
190.0999999999998522
 30
0.0
 11
59.4011501534771469
 21
207.995183534872865
 31
0.0
  0
LINE
  5
71
100
AcDbEntity
100
AcDbLine
  8
Perimeter
 62
256
370
-1
  6
ByLayer
 10
62.4011501534771469
 20
207.995183534872865
 30
0.0
 11
59.4011501534771469
 21
207.995183534872865
 31
0.0
  0
LINE
  5
72
100
AcDbEntity
100
AcDbLine
  8
Perimeter
 62
256
370
-1
  6
ByLayer
 10
2.9997082489338016
 20
176.9997589227681658
 30
0.0
 11
71.0639082489337994
 21
176.9997589227681658
 31
0.0
  0
LINE
  5
73
100
AcDbEntity
100
AcDbLine
  8
Perimeter
 62
256
370
-1
  6
ByLayer
 10
2.9257082489338018
 20
88.5
 30
0.0
 11
70.9895819558228141
 21
88.4999999999999005
 31
0.0
  0
LINE
  5
74
100
AcDbEntity
100
AcDbLine
  8
Perimeter
 62
256
370
-1
  6
ByLayer
 10
77.0638737068890123
 20
96.5
 30
0.0
 11
74.0638737068890123
 21
96.5
 31
0.0
  0
LINE
  5
75
100
AcDbEntity
100
AcDbLine
  8
Perimeter
 62
256
370
-1
  6
ByLayer
 10
77.0638737068890123
 20
132.9999999999999716
 30
0.0
 11
74.0638737068890123
 21
132.9999999999999716
 31
0.0
  0
LINE
  5
76
100
AcDbEntity
100
AcDbLine
  8
Perimeter
 62
256
370
-1
  6
ByLayer
 10
77.0638737068890123
 20
149.9999999999999716
 30
0.0
 11
77.0638737068890123
 21
132.9999999999999716
 31
0.0
  0
LINE
  5
77
100
AcDbEntity
100
AcDbLine
  8
Perimeter
 62
256
370
-1
  6
ByLayer
 10
115.1590572417620137
 20
149.9999999999999716
 30
0.0
 11
105.1590572417620137
 21
149.9999999999999716
 31
0.0
  0
LINE
  5
78
100
AcDbEntity
100
AcDbLine
  8
Perimeter
 62
256
370
-1
  6
ByLayer
 10
115.1590572417620137
 20
96.5
 30
0.0
 11
118.1590572417620137
 21
96.5
 31
0.0
  0
LINE
  5
79
100
AcDbEntity
100
AcDbLine
  8
Perimeter
 62
256
370
-1
  6
ByLayer
 10
115.1590572417620137
 20
96.5
 30
0.0
 11
115.1590572417620137
 21
76.5
 31
0.0
  0
LINE
  5
7A
100
AcDbEntity
100
AcDbLine
  8
Perimeter
 62
256
370
-1
  6
ByLayer
 10
115.1590572417620137
 20
76.5
 30
0.0
 11
105.0590572417620194
 21
76.5
 31
0.0
  0
LINE
  5
7B
100
AcDbEntity
100
AcDbLine
  8
Perimeter
 62
256
370
-1
  6
ByLayer
 10
77.0638737068890123
 20
149.9999999999999716
 30
0.0
 11
87.0638737068890123
 21
149.9999999999999716
 31
0.0
  0
LINE
  5
7C
100
AcDbEntity
100
AcDbLine
  8
Perimeter
 62
256
370
-1
  6
ByLayer
 10
115.1590572417620137
 20
149.9999999999999716
 30
0.0
 11
115.1590572417620137
 21
132.9999999999999716
 31
0.0
  0
LINE
  5
7D
100
AcDbEntity
100
AcDbLine
  8
Perimeter
 62
256
370
-1
  6
ByLayer
 10
115.1590572417620137
 20
132.9999999999999716
 30
0.0
 11
118.1590572417620137
 21
132.9999999999999716
 31
0.0
  0
LINE
  5
7E
100
AcDbEntity
100
AcDbLine
  8
Perimeter
 62
256
370
-1
  6
ByLayer
 10
118.1590572417620137
 20
132.9999999999999716
 30
0.0
 11
118.1590572417620137
 21
96.5
 31
0.0
  0
LINE
  5
7F
100
AcDbEntity
100
AcDbLine
  8
Perimeter
 62
256
370
-1
  6
ByLayer
 10
77.0638737068890123
 20
76.5
 30
0.0
 11
77.0638737068890123
 21
96.5
 31
0.0
  0
LINE
  5
80
100
AcDbEntity
100
AcDbLine
  8
Perimeter
 62
256
370
-1
  6
ByLayer
 10
87.163873706889035
 20
76.5
 30
0.0
 11
87.163873706889035
 21
79.5
 31
0.0
  0
LINE
  5
81
100
AcDbEntity
100
AcDbLine
  8
Perimeter
 62
256
370
-1
  6
ByLayer
 10
87.163873706889035
 20
79.5
 30
0.0
 11
105.0590572417620194
 21
79.5
 31
0.0
  0
LINE
  5
82
100
AcDbEntity
100
AcDbLine
  8
Perimeter
 62
256
370
-1
  6
ByLayer
 10
105.0590572417620194
 20
76.5
 30
0.0
 11
105.0590572417620194
 21
79.5
 31
0.0
  0
LINE
  5
83
100
AcDbEntity
100
AcDbLine
  8
Perimeter
 62
256
370
-1
  6
ByLayer
 10
87.0638737068890123
 20
152.9999999999999716
 30
0.0
 11
87.0638737068890123
 21
149.9999999999999716
 31
0.0
  0
LINE
  5
84
100
AcDbEntity
100
AcDbLine
  8
Perimeter
 62
256
370
-1
  6
ByLayer
 10
105.1590572417620137
 20
152.9999999999999716
 30
0.0
 11
105.1590572417620137
 21
149.9999999999999716
 31
0.0
  0
LINE
  5
85
100
AcDbEntity
100
AcDbLine
  8
Perimeter
 62
256
370
-1
  6
ByLayer
 10
77.0638737068890123
 20
199.9999999999999716
 30
0.0
 11
77.0638737068890123
 21
212.0638737068894386
 31
0.0
  0
LINE
  5
86
100
AcDbEntity
100
AcDbLine
  8
Perimeter
 62
256
370
-1
  6
ByLayer
 10
115.1590572417620137
 20
199.9999999999999716
 30
0.0
 11
115.1590572417620137
 21
212.0638737068894386
 31
0.0
  0
LINE
  5
87
100
AcDbEntity
100
AcDbLine
  8
Perimeter
 62
256
370
-1
  6
ByLayer
 10
115.1590572417620137
 20
212.0638737068894386
 30
0.0
 11
105.1590572417620422
 21
212.0638737068894386
 31
0.0
  0
LINE
  5
88
100
AcDbEntity
100
AcDbLine
  8
Perimeter
 62
256
370
-1
  6
ByLayer
 10
77.0638737068890123
 20
155.9999999999999716
 30
0.0
 11
77.0638737068890123
 21
167.9999999999999716
 31
0.0
  0
LINE
  5
89
100
AcDbEntity
100
AcDbLine
  8
Perimeter
 62
256
370
-1
  6
ByLayer
 10
115.1590572417620137
 20
155.9999999999999716
 30
0.0
 11
110.1590572417620137
 21
155.9999999999999716
 31
0.0
  0
LINE
  5
8A
100
AcDbEntity
100
AcDbLine
  8
Perimeter
 62
256
370
-1
  6
ByLayer
 10
77.0638737068890123
 20
199.9999999999999716
 30
0.0
 11
74.0638737068890123
 21
199.9999999999999716
 31
0.0
  0
LINE
  5
8B
100
AcDbEntity
100
AcDbLine
  8
Perimeter
 62
256
370
-1
  6
ByLayer
 10
115.1590572417620137
 20
155.9999999999999716
 30
0.0
 11
115.1590572417620137
 21
167.9999999999999716
 31
0.0
  0
LINE
  5
8C
100
AcDbEntity
100
AcDbLine
  8
Perimeter
 62
256
370
-1
  6
ByLayer
 10
77.0638737068890123
 20
167.9999999999999716
 30
0.0
 11
74.0638737068890123
 21
167.9999999999999716
 31
0.0
  0
LINE
  5
8D
100
AcDbEntity
100
AcDbLine
  8
Perimeter
 62
256
370
-1
  6
ByLayer
 10
115.1590572417620137
 20
199.9999999999999716
 30
0.0
 11
118.1590572417620137
 21
199.9999999999999716
 31
0.0
  0
LINE
  5
8E
100
AcDbEntity
100
AcDbLine
  8
Perimeter
 62
256
370
-1
  6
ByLayer
 10
77.0638737068890123
 20
212.0638737068894386
 30
0.0
 11
87.0638737068890123
 21
212.0638737068894386
 31
0.0
  0
LINE
  5
8F
100
AcDbEntity
100
AcDbLine
  8
Perimeter
 62
256
370
-1
  6
ByLayer
 10
77.0638737068890123
 20
155.9999999999999716
 30
0.0
 11
87.0638737068890123
 21
155.9999999999999716
 31
0.0
  0
LINE
  5
90
100
AcDbEntity
100
AcDbLine
  8
Perimeter
 62
256
370
-1
  6
ByLayer
 10
118.1590572417620137
 20
167.9999999999999716
 30
0.0
 11
115.1590572417620137
 21
167.9999999999999716
 31
0.0
  0
LINE
  5
91
100
AcDbEntity
100
AcDbLine
  8
Perimeter
 62
256
370
-1
  6
ByLayer
 10
118.1590572417620137
 20
199.9999999999999716
 30
0.0
 11
118.1590572417620137
 21
167.9999999999999716
 31
0.0
  0
LINE
  5
92
100
AcDbEntity
100
AcDbLine
  8
Perimeter
 62
256
370
-1
  6
ByLayer
 10
105.1590572417620137
 20
152.9999999999999716
 30
0.0
 11
105.1590572417620137
 21
155.9999999999999716
 31
0.0
  0
LINE
  5
93
100
AcDbEntity
100
AcDbLine
  8
Perimeter
 62
256
370
-1
  6
ByLayer
 10
105.1590572417620137
 20
152.9999999999999716
 30
0.0
 11
87.0638737068890123
 21
152.9999999999999716
 31
0.0
  0
LINE
  5
94
100
AcDbEntity
100
AcDbLine
  8
Perimeter
 62
256
370
-1
  6
ByLayer
 10
87.0638737068890123
 20
152.9999999999999716
 30
0.0
 11
87.0638737068890123
 21
155.9999999999999716
 31
0.0
  0
LINE
  5
95
100
AcDbEntity
100
AcDbLine
  8
Perimeter
 62
256
370
-1
  6
ByLayer
 10
105.1590572417619853
 20
215.0000000000002558
 30
0.0
 11
105.1590572417620422
 21
212.0638737068894386
 31
0.0
  0
LINE
  5
96
100
AcDbEntity
100
AcDbLine
  8
Perimeter
 62
256
370
-1
  6
ByLayer
 10
105.1590572417619853
 20
215.0000000000002558
 30
0.0
 11
87.0638737068889839
 21
215.0000000000002558
 31
0.0
  0
LINE
  5
97
100
AcDbEntity
100
AcDbLine
  8
Perimeter
 62
256
370
-1
  6
ByLayer
 10
87.0638737068889839
 20
215.0000000000002558
 30
0.0
 11
87.0638737068890123
 21
212.0638737068894386
 31
0.0
  0
LINE
  5
98
100
AcDbEntity
100
AcDbLine
  8
Perimeter
 62
256
370
-1
  6
ByLayer
 10
110.1590572417620137
 20
155.9999999999999716
 30
0.0
 11
105.1590572417620137
 21
155.9999999999999716
 31
0.0
  0
LINE
  5
99
100
AcDbEntity
100
AcDbLine
  8
Perimeter
 62
256
370
-1
  6
ByLayer
 10
77.0638737068890123
 20
56.5000000000000142
 30
0.0
 11
74.0638737068890265
 21
56.5000000000000284
 31
0.0
  0
LINE
  5
9A
100
AcDbEntity
100
AcDbLine
  8
Perimeter
 62
256
370
-1
  6
ByLayer
 10
77.0638737068890265
 20
20.0000000000000213
 30
0.0
 11
74.0638737068890123
 21
20.0000000000000213
 31
0.0
  0
LINE
  5
9B
100
AcDbEntity
100
AcDbLine
  8
Perimeter
 62
256
370
-1
  6
ByLayer
 10
77.0638737068889554
 20
3.0000000000000142
 30
0.0
 11
77.0638737068890265
 21
20.0000000000000213
 31
0.0
  0
LINE
  5
9C
100
AcDbEntity
100
AcDbLine
  8
Perimeter
 62
256
370
-1
  6
ByLayer
 10
115.159057241762028
 20
3.0000000000000284
 30
0.0
 11
105.1590572417619853
 21
2.9999999999999858
 31
0.0
  0
LINE
  5
9D
100
AcDbEntity
100
AcDbLine
  8
Perimeter
 62
256
370
-1
  6
ByLayer
 10
115.159057241762028
 20
56.5000000000000142
 30
0.0
 11
118.1590572417620422
 21
56.5
 31
0.0
  0
LINE
  5
9E
100
AcDbEntity
100
AcDbLine
  8
Perimeter
 62
256
370
-1
  6
ByLayer
 10
115.159057241762028
 20
56.5000000000000142
 30
0.0
 11
115.1590572417620564
 21
76.5000000000000142
 31
0.0
  0
LINE
  5
9F
100
AcDbEntity
100
AcDbLine
  8
Perimeter
 62
256
370
-1
  6
ByLayer
 10
87.1638737068890492
 20
76.5000000000000142
 30
0.0
 11
77.0638737068890123
 21
76.5
 31
0.0
  0
LINE
  5
A0
100
AcDbEntity
100
AcDbLine
  8
Perimeter
 62
256
370
-1
  6
ByLayer
 10
77.0638737068889554
 20
3.0000000000000142
 30
0.0
 11
87.0638737068889839
 21
3.0
 31
0.0
  0
LINE
  5
A1
100
AcDbEntity
100
AcDbLine
  8
Perimeter
 62
256
370
-1
  6
ByLayer
 10
115.159057241762028
 20
3.0000000000000284
 30
0.0
 11
115.159057241762028
 21
20.0000000000000391
 31
0.0
  0
LINE
  5
A2
100
AcDbEntity
100
AcDbLine
  8
Perimeter
 62
256
370
-1
  6
ByLayer
 10
115.159057241762028
 20
20.0000000000000391
 30
0.0
 11
118.159057241762028
 21
20.0000000000000071
 31
0.0
  0
LINE
  5
A3
100
AcDbEntity
100
AcDbLine
  8
Perimeter
 62
256
370
-1
  6
ByLayer
 10
118.159057241762028
 20
20.0000000000000071
 30
0.0
 11
118.1590572417620422
 21
56.5
 31
0.0
  0
LINE
  5
A4
100
AcDbEntity
100
AcDbLine
  8
Perimeter
 62
256
370
-1
  6
ByLayer
 10
77.0638737068890123
 20
76.5
 30
0.0
 11
77.0638737068890123
 21
56.5000000000000142
 31
0.0
  0
LINE
  5
A5
100
AcDbEntity
100
AcDbLine
  8
Perimeter
 62
256
370
-1
  6
ByLayer
 10
87.1638737068890492
 20
76.5000000000000142
 30
0.0
 11
87.1638737068890208
 21
73.5000000000000142
 31
0.0
  0
LINE
  5
A6
100
AcDbEntity
100
AcDbLine
  8
Perimeter
 62
256
370
-1
  6
ByLayer
 10
87.1638737068890208
 20
73.5000000000000142
 30
0.0
 11
105.0590572417620621
 21
73.4999999999999858
 31
0.0
  0
LINE
  5
A7
100
AcDbEntity
100
AcDbLine
  8
Perimeter
 62
256
370
-1
  6
ByLayer
 10
105.0590572417620621
 20
76.5000000000000142
 30
0.0
 11
105.0590572417620621
 21
73.4999999999999858
 31
0.0
  0
LINE
  5
A8
100
AcDbEntity
100
AcDbLine
  8
Perimeter
 62
256
370
-1
  6
ByLayer
 10
87.0638737068889697
 20
0.0
 30
0.0
 11
87.0638737068889839
 21
3.0
 31
0.0
  0
LINE
  5
A9
100
AcDbEntity
100
AcDbLine
  8
Perimeter
 62
256
370
-1
  6
ByLayer
 10
105.1590572417620137
 20
0.0
 30
0.0
 11
105.1590572417619853
 21
2.9999999999999858
 31
0.0
  0
LINE
  5
AA
100
AcDbEntity
100
AcDbLine
  8
Perimeter
 62
256
370
-1
  6
ByLayer
 10
105.1590572417620137
 20
0.0
 30
0.0
 11
87.0638737068889697
 21
0.0
 31
0.0
  0
LINE
  5
AB
100
AcDbEntity
100
AcDbLine
  8
Perimeter
 62
256
370
-1
  6
ByLayer
 10
71.0638737068890123
 20
-0.0000000000000213
 30
0.0
 11
3.0
 21
0.0
 31
0.0
  0
LINE
  5
AC
100
AcDbEntity
100
AcDbLine
  8
Perimeter
 62
256
370
-1
  6
ByLayer
 10
3.0
 20
0.0
 30
0.0
 11
2.2235428646919786
 21
0.1022225211329086
 31
0.0
  0
LINE
  5
AD
100
AcDbEntity
100
AcDbLine
  8
Perimeter
 62
256
370
-1
  6
ByLayer
 10
2.2235428646919786
 20
0.1022225211329086
 30
0.0
 11
1.5
 21
0.4019237886466698
 31
0.0
  0
LINE
  5
AE
100
AcDbEntity
100
AcDbLine
  8
Perimeter
 62
256
370
-1
  6
ByLayer
 10
1.5
 20
0.4019237886466698
 30
0.0
 11
0.8786796564399992
 21
0.878679656440239
 31
0.0
  0
LINE
  5
AF
100
AcDbEntity
100
AcDbLine
  8
Perimeter
 62
256
370
-1
  6
ByLayer
 10
0.8786796564399992
 20
0.878679656440239
 30
0.0
 11
0.4019237886460019
 21
1.5000000000000391
 31
0.0
  0
LINE
  5
B0
100
AcDbEntity
100
AcDbLine
  8
Perimeter
 62
256
370
-1
  6
ByLayer
 10
0.4019237886460019
 20
1.5000000000000391
 30
0.0
 11
0.1022225211319778
 21
2.2235428646924387
 31
0.0
  0
LINE
  5
B1
100
AcDbEntity
100
AcDbLine
  8
Perimeter
 62
256
370
-1
  6
ByLayer
 10
0.1022225211319778
 20
2.2235428646924387
 30
0.0
 11
0.0
 21
3.0
 31
0.0
  0
LINE
  5
B2
100
AcDbEntity
100
AcDbLine
  8
Perimeter
 62
256
370
-1
  6
ByLayer
 10
0.0
 20
3.0
 30
0.0
 11
0.0
 21
85.5
 31
0.0
  0
LINE
  5
B3
100
AcDbEntity
100
AcDbLine
  8
Perimeter
 62
256
370
-1
  6
ByLayer
 10
0.0
 20
85.5
 30
0.0
 11
0.102222521133001
 21
86.2764571353075951
 31
0.0
  0
LINE
  5
B4
100
AcDbEntity
100
AcDbLine
  8
Perimeter
 62
256
370
-1
  6
ByLayer
 10
0.102222521133001
 20
86.2764571353075951
 30
0.0
 11
0.401923788647025
 21
87.0
 31
0.0
  0
LINE
  5
B5
100
AcDbEntity
100
AcDbLine
  8
Perimeter
 62
256
370
-1
  6
ByLayer
 10
0.401923788647025
 20
87.0
 30
0.0
 11
0.8786796564399992
 21
87.6213203435597023
 31
0.0
  0
LINE
  5
B6
100
AcDbEntity
100
AcDbLine
  8
Perimeter
 62
256
370
-1
  6
ByLayer
 10
0.8786796564399992
 20
87.6213203435597023
 30
0.0
 11
1.5
 21
88.0980762113533018
 31
0.0
  0
LINE
  5
B7
100
AcDbEntity
100
AcDbLine
  8
Perimeter
 62
256
370
-1
  6
ByLayer
 10
1.5
 20
88.0980762113533018
 30
0.0
 11
2.2235428646919786
 21
88.3977774788671979
 31
0.0
  0
LINE
  5
B8
100
AcDbEntity
100
AcDbLine
  8
Perimeter
 62
256
370
-1
  6
ByLayer
 10
2.2235428646919786
 20
88.3977774788671979
 30
0.0
 11
3.0
 21
88.5
 31
0.0
  0
LINE
  5
B9
100
AcDbEntity
100
AcDbLine
  8
Perimeter
 62
256
370
-1
  6
ByLayer
 10
71.0638737068890123
 20
88.4999999999999005
 30
0.0
 11
71.8403308421960105
 21
88.3977774788670985
 31
0.0
  0
LINE
  5
BA
100
AcDbEntity
100
AcDbLine
  8
Perimeter
 62
256
370
-1
  6
ByLayer
 10
71.8403308421960105
 20
88.3977774788670985
 30
0.0
 11
72.5638737068890123
 21
88.0980762113532023
 31
0.0
  0
LINE
  5
BB
100
AcDbEntity
100
AcDbLine
  8
Perimeter
 62
256
370
-1
  6
ByLayer
 10
72.5638737068890123
 20
88.0980762113532023
 30
0.0
 11
73.1851940504480183
 21
87.6213203435597023
 31
0.0
  0
LINE
  5
BC
100
AcDbEntity
100
AcDbLine
  8
Perimeter
 62
256
370
-1
  6
ByLayer
 10
73.1851940504480183
 20
87.6213203435597023
 30
0.0
 11
73.6619499182420157
 21
86.9999999999999005
 31
0.0
  0
LINE
  5
BD
100
AcDbEntity
100
AcDbLine
  8
Perimeter
 62
256
370
-1
  6
ByLayer
 10
73.6619499182420157
 20
86.9999999999999005
 30
0.0
 11
73.9616511857560113
 21
86.2764571353074956
 31
0.0
  0
LINE
  5
BE
100
AcDbEntity
100
AcDbLine
  8
Perimeter
 62
256
370
-1
  6
ByLayer
 10
73.9616511857560113
 20
86.2764571353074956
 30
0.0
 11
74.0638737068890123
 21
85.5
 31
0.0
  0
LINE
  5
BF
100
AcDbEntity
100
AcDbLine
  8
Perimeter
 62
256
370
-1
  6
ByLayer
 10
74.0638737068890123
 20
85.5
 30
0.0
 11
74.0638737068890123
 21
3.0
 31
0.0
  0
LINE
  5
C0
100
AcDbEntity
100
AcDbLine
  8
Perimeter
 62
256
370
-1
  6
ByLayer
 10
74.0638737068890123
 20
3.0
 30
0.0
 11
73.9616511857560113
 21
2.2235428646924191
 31
0.0
  0
LINE
  5
C1
100
AcDbEntity
100
AcDbLine
  8
Perimeter
 62
256
370
-1
  6
ByLayer
 10
73.9616511857560113
 20
2.2235428646924191
 30
0.0
 11
73.6619499182420157
 21
1.4999999999999787
 31
0.0
  0
LINE
  5
C2
100
AcDbEntity
100
AcDbLine
  8
Perimeter
 62
256
370
-1
  6
ByLayer
 10
73.6619499182420157
 20
1.4999999999999787
 30
0.0
 11
73.1851940504480183
 21
0.8786796564403296
 31
0.0
  0
LINE
  5
C3
100
AcDbEntity
100
AcDbLine
  8
Perimeter
 62
256
370
-1
  6
ByLayer
 10
73.1851940504480183
 20
0.8786796564403296
 30
0.0
 11
72.5638737068890123
 21
0.4019237886466485
 31
0.0
  0
LINE
  5
C4
100
AcDbEntity
100
AcDbLine
  8
Perimeter
 62
256
370
-1
  6
ByLayer
 10
72.5638737068890123
 20
0.4019237886466485
 30
0.0
 11
71.8403308421960105
 21
0.1022225211327701
 31
0.0
  0
LINE
  5
C5
100
AcDbEntity
100
AcDbLine
  8
Perimeter
 62
256
370
-1
  6
ByLayer
 10
71.8403308421960105
 20
0.1022225211327701
 30
0.0
 11
71.0638737068890123
 21
-0.0000000000000213
 31
0.0
  0
LINE
  5
C6
100
AcDbEntity
100
AcDbLine
  8
Perimeter
 62
256
370
-1
  6
ByLayer
 10
74.0638737068890123
 20
85.5
 30
0.0
 11
74.0638737068890123
 21
85.5
 31
0.0
  0
LINE
  5
C7
100
AcDbEntity
100
AcDbLine
  8
Perimeter
 62
256
370
-1
  6
ByLayer
 10
74.0638737068890123
 20
85.5
 30
0.0
 11
74.0638737068890123
 21
85.5
 31
0.0
  0
LINE
  5
C8
100
AcDbEntity
100
AcDbLine
  8
Perimeter
 62
256
370
-1
  6
ByLayer
 10
74.0638737068890123
 20
85.5
 30
0.0
 11
74.0638737068890123
 21
85.5
 31
0.0
  0
LINE
  5
C9
100
AcDbEntity
100
AcDbLine
  8
Perimeter
 62
256
370
-1
  6
ByLayer
 10
74.0638737068890123
 20
199.9999999999999716
 30
0.0
 11
74.0638737068890123
 21
173.9999999999998863
 31
0.0
  0
LINE
  5
CA
100
AcDbEntity
100
AcDbLine
  8
Interior
 62
256
370
-1
  6
ByLayer
 10
111.0590572417620479
 20
178.9999999999999716
 30
0.0
 11
99.0590572417620479
 21
178.9999999999999716
 31
0.0
  0
LINE
  5
CB
100
AcDbEntity
100
AcDbLine
  8
Interior
 62
256
370
-1
  6
ByLayer
 10
99.0590572417620479
 20
165.9999999999999716
 30
0.0
 11
111.0590572417620479
 21
165.9999999999999716
 31
0.0
  0
LINE
  5
CC
100
AcDbEntity
100
AcDbLine
  8
Interior
 62
256
370
-1
  6
ByLayer
 10
111.0590572417620194
 20
197.9999999999999716
 30
0.0
 11
99.0590572417620479
 21
197.9999999999999716
 31
0.0
  0
LINE
  5
CD
100
AcDbEntity
100
AcDbLine
  8
Interior
 62
256
370
-1
  6
ByLayer
 10
99.0590572417620479
 20
178.9999999999999716
 30
0.0
 11
99.0590572417620479
 21
165.9999999999999716
 31
0.0
  0
LINE
  5
CE
100
AcDbEntity
100
AcDbLine
  8
Interior
 62
256
370
-1
  6
ByLayer
 10
111.0590572417620479
 20
165.9999999999999716
 30
0.0
 11
111.0590572417620479
 21
178.9999999999999716
 31
0.0
  0
LINE
  5
CF
100
AcDbEntity
100
AcDbLine
  8
Interior
 62
256
370
-1
  6
ByLayer
 10
65.2381654579552048
 20
150.8999999999999773
 30
0.0
 11
65.2381654579552048
 21
114.6000000000000085
 31
0.0
  0
LINE
  5
D0
100
AcDbEntity
100
AcDbLine
  8
Interior
 62
256
370
-1
  6
ByLayer
 10
6.0
 20
172.4999999999998863
 30
0.0
 11
5.9488887394340395
 21
172.8882285676538686
 31
0.0
  0
LINE
  5
D1
100
AcDbEntity
100
AcDbLine
  8
Interior
 62
256
370
-1
  6
ByLayer
 10
5.9488887394340395
 20
172.8882285676538686
 30
0.0
 11
5.7990381056769706
 21
173.2499999999998863
 31
0.0
  0
LINE
  5
D2
100
AcDbEntity
100
AcDbLine
  8
Interior
 62
256
370
-1
  6
ByLayer
 10
5.7990381056769706
 20
173.2499999999998863
 30
0.0
 11
5.5606601717800004
 21
173.5606601717798867
 31
0.0
  0
LINE
  5
D3
100
AcDbEntity
100
AcDbLine
  8
Interior
 62
256
370
-1
  6
ByLayer
 10
5.5606601717800004
 20
173.5606601717798867
 30
0.0
 11
5.25
 21
173.7990381056769138
 31
0.0
  0
LINE
  5
D4
100
AcDbEntity
100
AcDbLine
  8
Interior
 62
256
370
-1
  6
ByLayer
 10
5.25
 20
173.7990381056769138
 30
0.0
 11
4.8882285676540391
 21
173.948888739433869
 31
0.0
  0
LINE
  5
D5
100
AcDbEntity
100
AcDbLine
  8
Interior
 62
256
370
-1
  6
ByLayer
 10
4.8882285676540391
 20
173.948888739433869
 30
0.0
 11
4.5
 21
173.9999999999998863
 31
0.0
  0
LINE
  5
D6
100
AcDbEntity
100
AcDbLine
  8
Interior
 62
256
370
-1
  6
ByLayer
 10
4.5
 20
173.9999999999998863
 30
0.0
 11
4.1117714323459609
 21
173.948888739433869
 31
0.0
  0
LINE
  5
D7
100
AcDbEntity
100
AcDbLine
  8
Interior
 62
256
370
-1
  6
ByLayer
 10
4.1117714323459609
 20
173.948888739433869
 30
0.0
 11
3.75
 21
173.7990381056769138
 31
0.0
  0
LINE
  5
D8
100
AcDbEntity
100
AcDbLine
  8
Interior
 62
256
370
-1
  6
ByLayer
 10
3.75
 20
173.7990381056769138
 30
0.0
 11
3.4393398282199996
 21
173.5606601717798867
 31
0.0
  0
LINE
  5
D9
100
AcDbEntity
100
AcDbLine
  8
Interior
 62
256
370
-1
  6
ByLayer
 10
3.4393398282199996
 20
173.5606601717798867
 30
0.0
 11
3.2009618943239957
 21
173.2499999999998863
 31
0.0
  0
LINE
  5
DA
100
AcDbEntity
100
AcDbLine
  8
Interior
 62
256
370
-1
  6
ByLayer
 10
3.2009618943239957
 20
173.2499999999998863
 30
0.0
 11
3.0511112605669837
 21
172.8882285676538686
 31
0.0
  0
LINE
  5
DB
100
AcDbEntity
100
AcDbLine
  8
Interior
 62
256
370
-1
  6
ByLayer
 10
3.0511112605669837
 20
172.8882285676538686
 30
0.0
 11
3.0
 21
172.4999999999998863
 31
0.0
  0
LINE
  5
DC
100
AcDbEntity
100
AcDbLine
  8
Interior
 62
256
370
-1
  6
ByLayer
 10
3.0
 20
172.4999999999998863
 30
0.0
 11
3.0511112605669837
 21
172.111771432345904
 31
0.0
  0
LINE
  5
DD
100
AcDbEntity
100
AcDbLine
  8
Interior
 62
256
370
-1
  6
ByLayer
 10
3.0511112605669837
 20
172.111771432345904
 30
0.0
 11
3.2009618943239957
 21
171.7499999999998863
 31
0.0
  0
LINE
  5
DE
100
AcDbEntity
100
AcDbLine
  8
Interior
 62
256
370
-1
  6
ByLayer
 10
3.2009618943239957
 20
171.7499999999998863
 30
0.0
 11
3.4393398282199996
 21
171.4393398282198859
 31
0.0
  0
LINE
  5
DF
100
AcDbEntity
100
AcDbLine
  8
Interior
 62
256
370
-1
  6
ByLayer
 10
3.4393398282199996
 20
171.4393398282198859
 30
0.0
 11
3.75
 21
171.2009618943229157
 31
0.0
  0
LINE
  5
E0
100
AcDbEntity
100
AcDbLine
  8
Interior
 62
256
370
-1
  6
ByLayer
 10
3.75
 20
171.2009618943229157
 30
0.0
 11
4.1117714323459609
 21
171.0511112605659036
 31
0.0
  0
LINE
  5
E1
100
AcDbEntity
100
AcDbLine
  8
Interior
 62
256
370
-1
  6
ByLayer
 10
4.1117714323459609
 20
171.0511112605659036
 30
0.0
 11
4.5
 21
170.9999999999998863
 31
0.0
  0
LINE
  5
E2
100
AcDbEntity
100
AcDbLine
  8
Interior
 62
256
370
-1
  6
ByLayer
 10
4.5
 20
170.9999999999998863
 30
0.0
 11
4.8882285676540391
 21
171.0511112605659036
 31
0.0
  0
LINE
  5
E3
100
AcDbEntity
100
AcDbLine
  8
Interior
 62
256
370
-1
  6
ByLayer
 10
4.8882285676540391
 20
171.0511112605659036
 30
0.0
 11
5.25
 21
171.2009618943229157
 31
0.0
  0
LINE
  5
E4
100
AcDbEntity
100
AcDbLine
  8
Interior
 62
256
370
-1
  6
ByLayer
 10
5.25
 20
171.2009618943229157
 30
0.0
 11
5.5606601717800004
 21
171.4393398282198859
 31
0.0
  0
LINE
  5
E5
100
AcDbEntity
100
AcDbLine
  8
Interior
 62
256
370
-1
  6
ByLayer
 10
5.5606601717800004
 20
171.4393398282198859
 30
0.0
 11
5.7990381056769706
 21
171.7499999999998863
 31
0.0
  0
LINE
  5
E6
100
AcDbEntity
100
AcDbLine
  8
Interior
 62
256
370
-1
  6
ByLayer
 10
5.7990381056769706
 20
171.7499999999998863
 30
0.0
 11
5.9488887394340395
 21
172.111771432345904
 31
0.0
  0
LINE
  5
E7
100
AcDbEntity
100
AcDbLine
  8
Interior
 62
256
370
-1
  6
ByLayer
 10
5.9488887394340395
 20
172.111771432345904
 30
0.0
 11
6.0
 21
172.4999999999998863
 31
0.0
  0
LINE
  5
E8
100
AcDbEntity
100
AcDbLine
  8
Interior
 62
256
370
-1
  6
ByLayer
 10
68.0638737068890123
 20
172.4999999999998863
 30
0.0
 11
68.114984967455996
 21
172.111771432345904
 31
0.0
  0
LINE
  5
E9
100
AcDbEntity
100
AcDbLine
  8
Interior
 62
256
370
-1
  6
ByLayer
 10
68.114984967455996
 20
172.111771432345904
 30
0.0
 11
68.264835601213008
 21
171.7499999999998863
 31
0.0
  0
LINE
  5
EA
100
AcDbEntity
100
AcDbLine
  8
Interior
 62
256
370
-1
  6
ByLayer
 10
68.264835601213008
 20
171.7499999999998863
 30
0.0
 11
68.5032135351100067
 21
171.4393398282198859
 31
0.0
  0
LINE
  5
EB
100
AcDbEntity
100
AcDbLine
  8
Interior
 62
256
370
-1
  6
ByLayer
 10
68.5032135351100067
 20
171.4393398282198859
 30
0.0
 11
68.8138737068890123
 21
171.2009618943229157
 31
0.0
  0
LINE
  5
EC
100
AcDbEntity
100
AcDbLine
  8
Interior
 62
256
370
-1
  6
ByLayer
 10
68.8138737068890123
 20
171.2009618943229157
 30
0.0
 11
69.1756451392359963
 21
171.0511112605659036
 31
0.0
  0
LINE
  5
ED
100
AcDbEntity
100
AcDbLine
  8
Interior
 62
256
370
-1
  6
ByLayer
 10
69.1756451392359963
 20
171.0511112605659036
 30
0.0
 11
69.5638737068890123
 21
170.9999999999998863
 31
0.0
  0
LINE
  5
EE
100
AcDbEntity
100
AcDbLine
  8
Interior
 62
256
370
-1
  6
ByLayer
 10
69.5638737068890123
 20
170.9999999999998863
 30
0.0
 11
69.9521022745429946
 21
171.0511112605659036
 31
0.0
  0
LINE
  5
EF
100
AcDbEntity
100
AcDbLine
  8
Interior
 62
256
370
-1
  6
ByLayer
 10
69.9521022745429946
 20
171.0511112605659036
 30
0.0
 11
70.3138737068890123
 21
171.2009618943229157
 31
0.0
  0
LINE
  5
F0
100
AcDbEntity
100
AcDbLine
  8
Interior
 62
256
370
-1
  6
ByLayer
 10
70.3138737068890123
 20
171.2009618943229157
 30
0.0
 11
70.6245338786690127
 21
171.4393398282198859
 31
0.0
  0
LINE
  5
F1
100
AcDbEntity
100
AcDbLine
  8
Interior
 62
256
370
-1
  6
ByLayer
 10
70.6245338786690127
 20
171.4393398282198859
 30
0.0
 11
70.8629118125659829
 21
171.7499999999998863
 31
0.0
  0
LINE
  5
F2
100
AcDbEntity
100
AcDbLine
  8
Interior
 62
256
370
-1
  6
ByLayer
 10
70.8629118125659829
 20
171.7499999999998863
 30
0.0
 11
71.0127624463229949
 21
172.111771432345904
 31
0.0
  0
LINE
  5
F3
100
AcDbEntity
100
AcDbLine
  8
Interior
 62
256
370
-1
  6
ByLayer
 10
71.0127624463229949
 20
172.111771432345904
 30
0.0
 11
71.0638737068890123
 21
172.4999999999998863
 31
0.0
  0
LINE
  5
F4
100
AcDbEntity
100
AcDbLine
  8
Interior
 62
256
370
-1
  6
ByLayer
 10
71.0638737068890123
 20
172.4999999999998863
 30
0.0
 11
71.0127624463229949
 21
172.8882285676538686
 31
0.0
  0
LINE
  5
F5
100
AcDbEntity
100
AcDbLine
  8
Interior
 62
256
370
-1
  6
ByLayer
 10
71.0127624463229949
 20
172.8882285676538686
 30
0.0
 11
70.8629118125659829
 21
173.2499999999998863
 31
0.0
  0
LINE
  5
F6
100
AcDbEntity
100
AcDbLine
  8
Interior
 62
256
370
-1
  6
ByLayer
 10
70.8629118125659829
 20
173.2499999999998863
 30
0.0
 11
70.6245338786690127
 21
173.5606601717798867
 31
0.0
  0
LINE
  5
F7
100
AcDbEntity
100
AcDbLine
  8
Interior
 62
256
370
-1
  6
ByLayer
 10
70.6245338786690127
 20
173.5606601717798867
 30
0.0
 11
70.3138737068890123
 21
173.7990381056769138
 31
0.0
  0
LINE
  5
F8
100
AcDbEntity
100
AcDbLine
  8
Interior
 62
256
370
-1
  6
ByLayer
 10
70.3138737068890123
 20
173.7990381056769138
 30
0.0
 11
69.9521022745429946
 21
173.948888739433869
 31
0.0
  0
LINE
  5
F9
100
AcDbEntity
100
AcDbLine
  8
Interior
 62
256
370
-1
  6
ByLayer
 10
69.9521022745429946
 20
173.948888739433869
 30
0.0
 11
69.5638737068890123
 21
173.9999999999998863
 31
0.0
  0
LINE
  5
FA
100
AcDbEntity
100
AcDbLine
  8
Interior
 62
256
370
-1
  6
ByLayer
 10
69.5638737068890123
 20
173.9999999999998863
 30
0.0
 11
69.1756451392359963
 21
173.948888739433869
 31
0.0
  0
LINE
  5
FB
100
AcDbEntity
100
AcDbLine
  8
Interior
 62
256
370
-1
  6
ByLayer
 10
69.1756451392359963
 20
173.948888739433869
 30
0.0
 11
68.8138737068890123
 21
173.7990381056769138
 31
0.0
  0
LINE
  5
FC
100
AcDbEntity
100
AcDbLine
  8
Interior
 62
256
370
-1
  6
ByLayer
 10
68.8138737068890123
 20
173.7990381056769138
 30
0.0
 11
68.5032135351100067
 21
173.5606601717798867
 31
0.0
  0
LINE
  5
FD
100
AcDbEntity
100
AcDbLine
  8
Interior
 62
256
370
-1
  6
ByLayer
 10
68.5032135351100067
 20
173.5606601717798867
 30
0.0
 11
68.264835601213008
 21
173.2499999999998863
 31
0.0
  0
LINE
  5
FE
100
AcDbEntity
100
AcDbLine
  8
Interior
 62
256
370
-1
  6
ByLayer
 10
68.264835601213008
 20
173.2499999999998863
 30
0.0
 11
68.114984967455996
 21
172.8882285676538686
 31
0.0
  0
LINE
  5
FF
100
AcDbEntity
100
AcDbLine
  8
Interior
 62
256
370
-1
  6
ByLayer
 10
68.114984967455996
 20
172.8882285676538686
 30
0.0
 11
68.0638737068890123
 21
172.4999999999998863
 31
0.0
  0
LINE
  5
100
100
AcDbEntity
100
AcDbLine
  8
Interior
 62
256
370
-1
  6
ByLayer
 10
68.0638737068890123
 20
93.0
 30
0.0
 11
68.114984967455996
 21
92.6117714323462025
 31
0.0
  0
LINE
  5
101
100
AcDbEntity
100
AcDbLine
  8
Interior
 62
256
370
-1
  6
ByLayer
 10
68.114984967455996
 20
92.6117714323462025
 30
0.0
 11
68.264835601213008
 21
92.25
 31
0.0
  0
LINE
  5
102
100
AcDbEntity
100
AcDbLine
  8
Interior
 62
256
370
-1
  6
ByLayer
 10
68.264835601213008
 20
92.25
 30
0.0
 11
68.5032135351100067
 21
91.9393398282200991
 31
0.0
  0
LINE
  5
103
100
AcDbEntity
100
AcDbLine
  8
Interior
 62
256
370
-1
  6
ByLayer
 10
68.5032135351100067
 20
91.9393398282200991
 30
0.0
 11
68.8138737068890123
 21
91.7009618943232994
 31
0.0
  0
LINE
  5
104
100
AcDbEntity
100
AcDbLine
  8
Interior
 62
256
370
-1
  6
ByLayer
 10
68.8138737068890123
 20
91.7009618943232994
 30
0.0
 11
69.1756451392359963
 21
91.551111260566401
 31
0.0
  0
LINE
  5
105
100
AcDbEntity
100
AcDbLine
  8
Interior
 62
256
370
-1
  6
ByLayer
 10
69.1756451392359963
 20
91.551111260566401
 30
0.0
 11
69.5638737068890123
 21
91.5
 31
0.0
  0
LINE
  5
106
100
AcDbEntity
100
AcDbLine
  8
Interior
 62
256
370
-1
  6
ByLayer
 10
69.5638737068890123
 20
91.5
 30
0.0
 11
69.9521022745429946
 21
91.551111260566401
 31
0.0
  0
LINE
  5
107
100
AcDbEntity
100
AcDbLine
  8
Interior
 62
256
370
-1
  6
ByLayer
 10
69.9521022745429946
 20
91.551111260566401
 30
0.0
 11
70.3138737068890123
 21
91.7009618943232994
 31
0.0
  0
LINE
  5
108
100
AcDbEntity
100
AcDbLine
  8
Interior
 62
256
370
-1
  6
ByLayer
 10
70.3138737068890123
 20
91.7009618943232994
 30
0.0
 11
70.6245338786690127
 21
91.9393398282200991
 31
0.0
  0
LINE
  5
109
100
AcDbEntity
100
AcDbLine
  8
Interior
 62
256
370
-1
  6
ByLayer
 10
70.6245338786690127
 20
91.9393398282200991
 30
0.0
 11
70.8629118125659829
 21
92.25
 31
0.0
  0
LINE
  5
10A
100
AcDbEntity
100
AcDbLine
  8
Interior
 62
256
370
-1
  6
ByLayer
 10
70.8629118125659829
 20
92.25
 30
0.0
 11
71.0127624463229949
 21
92.6117714323462025
 31
0.0
  0
LINE
  5
10B
100
AcDbEntity
100
AcDbLine
  8
Interior
 62
256
370
-1
  6
ByLayer
 10
71.0127624463229949
 20
92.6117714323462025
 30
0.0
 11
71.0638737068890123
 21
93.0
 31
0.0
  0
LINE
  5
10C
100
AcDbEntity
100
AcDbLine
  8
Interior
 62
256
370
-1
  6
ByLayer
 10
71.0638737068890123
 20
93.0
 30
0.0
 11
71.0127624463229949
 21
93.3882285676536981
 31
0.0
  0
LINE
  5
10D
100
AcDbEntity
100
AcDbLine
  8
Interior
 62
256
370
-1
  6
ByLayer
 10
71.0127624463229949
 20
93.3882285676536981
 30
0.0
 11
70.8629118125659829
 21
93.75
 31
0.0
  0
LINE
  5
10E
100
AcDbEntity
100
AcDbLine
  8
Interior
 62
256
370
-1
  6
ByLayer
 10
70.8629118125659829
 20
93.75
 30
0.0
 11
70.6245338786690127
 21
94.0606601717798014
 31
0.0
  0
LINE
  5
10F
100
AcDbEntity
100
AcDbLine
  8
Interior
 62
256
370
-1
  6
ByLayer
 10
70.6245338786690127
 20
94.0606601717798014
 30
0.0
 11
70.3138737068890123
 21
94.2990381056766012
 31
0.0
  0
LINE
  5
110
100
AcDbEntity
100
AcDbLine
  8
Interior
 62
256
370
-1
  6
ByLayer
 10
70.3138737068890123
 20
94.2990381056766012
 30
0.0
 11
69.9521022745429946
 21
94.448888739433599
 31
0.0
  0
LINE
  5
111
100
AcDbEntity
100
AcDbLine
  8
Interior
 62
256
370
-1
  6
ByLayer
 10
69.9521022745429946
 20
94.448888739433599
 30
0.0
 11
69.5638737068890123
 21
94.5
 31
0.0
  0
LINE
  5
112
100
AcDbEntity
100
AcDbLine
  8
Interior
 62
256
370
-1
  6
ByLayer
 10
69.5638737068890123
 20
94.5
 30
0.0
 11
69.1756451392359963
 21
94.448888739433599
 31
0.0
  0
LINE
  5
113
100
AcDbEntity
100
AcDbLine
  8
Interior
 62
256
370
-1
  6
ByLayer
 10
69.1756451392359963
 20
94.448888739433599
 30
0.0
 11
68.8138737068890123
 21
94.2990381056766012
 31
0.0
  0
LINE
  5
114
100
AcDbEntity
100
AcDbLine
  8
Interior
 62
256
370
-1
  6
ByLayer
 10
68.8138737068890123
 20
94.2990381056766012
 30
0.0
 11
68.5032135351100067
 21
94.0606601717798014
 31
0.0
  0
LINE
  5
115
100
AcDbEntity
100
AcDbLine
  8
Interior
 62
256
370
-1
  6
ByLayer
 10
68.5032135351100067
 20
94.0606601717798014
 30
0.0
 11
68.264835601213008
 21
93.75
 31
0.0
  0
LINE
  5
116
100
AcDbEntity
100
AcDbLine
  8
Interior
 62
256
370
-1
  6
ByLayer
 10
68.264835601213008
 20
93.75
 30
0.0
 11
68.114984967455996
 21
93.3882285676536981
 31
0.0
  0
LINE
  5
117
100
AcDbEntity
100
AcDbLine
  8
Interior
 62
256
370
-1
  6
ByLayer
 10
68.114984967455996
 20
93.3882285676536981
 30
0.0
 11
68.0638737068890123
 21
93.0
 31
0.0
  0
LINE
  5
118
100
AcDbEntity
100
AcDbLine
  8
Interior
 62
256
370
-1
  6
ByLayer
 10
4.5
 20
94.5
 30
0.0
 11
4.1117714323459609
 21
94.448888739433599
 31
0.0
  0
LINE
  5
119
100
AcDbEntity
100
AcDbLine
  8
Interior
 62
256
370
-1
  6
ByLayer
 10
4.1117714323459609
 20
94.448888739433599
 30
0.0
 11
3.75
 21
94.2990381056766012
 31
0.0
  0
LINE
  5
11A
100
AcDbEntity
100
AcDbLine
  8
Interior
 62
256
370
-1
  6
ByLayer
 10
3.75
 20
94.2990381056766012
 30
0.0
 11
3.4393398282199996
 21
94.0606601717798014
 31
0.0
  0
LINE
  5
11B
100
AcDbEntity
100
AcDbLine
  8
Interior
 62
256
370
-1
  6
ByLayer
 10
3.4393398282199996
 20
94.0606601717798014
 30
0.0
 11
3.2009618943230294
 21
93.75
 31
0.0
  0
LINE
  5
11C
100
AcDbEntity
100
AcDbLine
  8
Interior
 62
256
370
-1
  6
ByLayer
 10
3.2009618943230294
 20
93.75
 30
0.0
 11
3.0511112605659605
 21
93.3882285676537975
 31
0.0
  0
LINE
  5
11D
100
AcDbEntity
100
AcDbLine
  8
Interior
 62
256
370
-1
  6
ByLayer
 10
3.0511112605659605
 20
93.3882285676537975
 30
0.0
 11
3.0
 21
93.0
 31
0.0
  0
LINE
  5
11E
100
AcDbEntity
100
AcDbLine
  8
Interior
 62
256
370
-1
  6
ByLayer
 10
3.0
 20
93.0
 30
0.0
 11
3.0511112605659605
 21
92.6117714323462025
 31
0.0
  0
LINE
  5
11F
100
AcDbEntity
100
AcDbLine
  8
Interior
 62
256
370
-1
  6
ByLayer
 10
3.0511112605659605
 20
92.6117714323462025
 30
0.0
 11
3.2009618943230294
 21
92.25
 31
0.0
  0
LINE
  5
120
100
AcDbEntity
100
AcDbLine
  8
Interior
 62
256
370
-1
  6
ByLayer
 10
3.2009618943230294
 20
92.25
 30
0.0
 11
3.4393398282199996
 21
91.9393398282201986
 31
0.0
  0
LINE
  5
121
100
AcDbEntity
100
AcDbLine
  8
Interior
 62
256
370
-1
  6
ByLayer
 10
3.4393398282199996
 20
91.9393398282201986
 30
0.0
 11
3.75
 21
91.7009618943232994
 31
0.0
  0
LINE
  5
122
100
AcDbEntity
100
AcDbLine
  8
Interior
 62
256
370
-1
  6
ByLayer
 10
3.75
 20
91.7009618943232994
 30
0.0
 11
4.1117714323459609
 21
91.551111260566401
 31
0.0
  0
LINE
  5
123
100
AcDbEntity
100
AcDbLine
  8
Interior
 62
256
370
-1
  6
ByLayer
 10
4.1117714323459609
 20
91.551111260566401
 30
0.0
 11
4.5
 21
91.5
 31
0.0
  0
LINE
  5
124
100
AcDbEntity
100
AcDbLine
  8
Interior
 62
256
370
-1
  6
ByLayer
 10
4.5
 20
91.5
 30
0.0
 11
4.8882285676540391
 21
91.551111260566401
 31
0.0
  0
LINE
  5
125
100
AcDbEntity
100
AcDbLine
  8
Interior
 62
256
370
-1
  6
ByLayer
 10
4.8882285676540391
 20
91.551111260566401
 30
0.0
 11
5.25
 21
91.7009618943232994
 31
0.0
  0
LINE
  5
126
100
AcDbEntity
100
AcDbLine
  8
Interior
 62
256
370
-1
  6
ByLayer
 10
5.25
 20
91.7009618943232994
 30
0.0
 11
5.5606601717800004
 21
91.9393398282201986
 31
0.0
  0
LINE
  5
127
100
AcDbEntity
100
AcDbLine
  8
Interior
 62
256
370
-1
  6
ByLayer
 10
5.5606601717800004
 20
91.9393398282201986
 30
0.0
 11
5.7990381056769706
 21
92.25
 31
0.0
  0
LINE
  5
128
100
AcDbEntity
100
AcDbLine
  8
Interior
 62
256
370
-1
  6
ByLayer
 10
5.7990381056769706
 20
92.25
 30
0.0
 11
5.9488887394340395
 21
92.6117714323462025
 31
0.0
  0
LINE
  5
129
100
AcDbEntity
100
AcDbLine
  8
Interior
 62
256
370
-1
  6
ByLayer
 10
5.9488887394340395
 20
92.6117714323462025
 30
0.0
 11
6.0
 21
93.0
 31
0.0
  0
LINE
  5
12A
100
AcDbEntity
100
AcDbLine
  8
Interior
 62
256
370
-1
  6
ByLayer
 10
6.0
 20
93.0
 30
0.0
 11
5.9488887394340395
 21
93.3882285676537975
 31
0.0
  0
LINE
  5
12B
100
AcDbEntity
100
AcDbLine
  8
Interior
 62
256
370
-1
  6
ByLayer
 10
5.9488887394340395
 20
93.3882285676537975
 30
0.0
 11
5.7990381056769706
 21
93.75
 31
0.0
  0
LINE
  5
12C
100
AcDbEntity
100
AcDbLine
  8
Interior
 62
256
370
-1
  6
ByLayer
 10
5.7990381056769706
 20
93.75
 30
0.0
 11
5.5606601717800004
 21
94.0606601717798014
 31
0.0
  0
LINE
  5
12D
100
AcDbEntity
100
AcDbLine
  8
Interior
 62
256
370
-1
  6
ByLayer
 10
5.5606601717800004
 20
94.0606601717798014
 30
0.0
 11
5.25
 21
94.2990381056766012
 31
0.0
  0
LINE
  5
12E
100
AcDbEntity
100
AcDbLine
  8
Interior
 62
256
370
-1
  6
ByLayer
 10
5.25
 20
94.2990381056766012
 30
0.0
 11
4.8882285676540391
 21
94.448888739433599
 31
0.0
  0
LINE
  5
12F
100
AcDbEntity
100
AcDbLine
  8
Interior
 62
256
370
-1
  6
ByLayer
 10
4.8882285676540391
 20
94.448888739433599
 30
0.0
 11
4.5
 21
94.5
 31
0.0
  0
LINE
  5
130
100
AcDbEntity
100
AcDbLine
  8
Interior
 62
256
370
-1
  6
ByLayer
 10
8.9000000000000341
 20
150.8999999999999773
 30
0.0
 11
6.0999999999999659
 21
150.8999999999999773
 31
0.0
  0
LINE
  5
131
100
AcDbEntity
100
AcDbLine
  8
Interior
 62
256
370
-1
  6
ByLayer
 10
6.0999999999999659
 20
150.8999999999999773
 30
0.0
 11
6.0999999999999659
 21
114.6000000000000085
 31
0.0
  0
LINE
  5
132
100
AcDbEntity
100
AcDbLine
  8
Interior
 62
256
370
-1
  6
ByLayer
 10
6.0999999999999659
 20
114.6000000000000085
 30
0.0
 11
8.9000000000000341
 21
114.6000000000000085
 31
0.0
  0
LINE
  5
133
100
AcDbEntity
100
AcDbLine
  8
Interior
 62
256
370
-1
  6
ByLayer
 10
8.9000000000000341
 20
114.6000000000000085
 30
0.0
 11
8.9000000000000341
 21
150.8999999999999773
 31
0.0
  0
LINE
  5
134
100
AcDbEntity
100
AcDbLine
  8
Interior
 62
256
370
-1
  6
ByLayer
 10
52.9000000000000057
 20
97.3999999999999915
 30
0.0
 11
21.0999999999999943
 21
97.3999999999999915
 31
0.0
  0
LINE
  5
135
100
AcDbEntity
100
AcDbLine
  8
Interior
 62
256
370
-1
  6
ByLayer
 10
21.0999999999999943
 20
97.3999999999999915
 30
0.0
 11
21.0999999999999943
 21
94.5999999999999943
 31
0.0
  0
LINE
  5
136
100
AcDbEntity
100
AcDbLine
  8
Interior
 62
256
370
-1
  6
ByLayer
 10
21.0999999999999943
 20
94.5999999999999943
 30
0.0
 11
52.9000000000000057
 21
94.5999999999999943
 31
0.0
  0
LINE
  5
137
100
AcDbEntity
100
AcDbLine
  8
Interior
 62
256
370
-1
  6
ByLayer
 10
52.9000000000000057
 20
94.5999999999999943
 30
0.0
 11
52.9000000000000057
 21
97.3999999999999915
 31
0.0
  0
LINE
  5
138
100
AcDbEntity
100
AcDbLine
  8
Interior
 62
256
370
-1
  6
ByLayer
 10
65.1638737068890066
 20
114.6000000000000085
 30
0.0
 11
67.9638737068889895
 21
114.6000000000000085
 31
0.0
  0
LINE
  5
139
100
AcDbEntity
100
AcDbLine
  8
Interior
 62
256
370
-1
  6
ByLayer
 10
67.9638737068889895
 20
114.6000000000000085
 30
0.0
 11
67.9638737068889895
 21
150.8999999999999773
 31
0.0
  0
LINE
  5
13A
100
AcDbEntity
100
AcDbLine
  8
Interior
 62
256
370
-1
  6
ByLayer
 10
67.9638737068889895
 20
150.8999999999999773
 30
0.0
 11
65.1638737068890066
 21
150.8999999999999773
 31
0.0
  0
LINE
  5
13B
100
AcDbEntity
100
AcDbLine
  8
Interior
 62
256
370
-1
  6
ByLayer
 10
21.0999999999999943
 20
168.0999999999999091
 30
0.0
 11
52.9000000000000057
 21
168.0999999999999091
 31
0.0
  0
LINE
  5
13C
100
AcDbEntity
100
AcDbLine
  8
Interior
 62
256
370
-1
  6
ByLayer
 10
52.9000000000000057
 20
168.0999999999999091
 30
0.0
 11
52.9000000000000057
 21
170.8999999999998636
 31
0.0
  0
LINE
  5
13D
100
AcDbEntity
100
AcDbLine
  8
Interior
 62
256
370
-1
  6
ByLayer
 10
52.9000000000000057
 20
170.8999999999998636
 30
0.0
 11
21.0999999999999943
 21
170.8999999999998636
 31
0.0
  0
LINE
  5
13E
100
AcDbEntity
100
AcDbLine
  8
Interior
 62
256
370
-1
  6
ByLayer
 10
21.0999999999999943
 20
170.8999999999998636
 30
0.0
 11
21.0999999999999943
 21
168.0999999999999091
 31
0.0
  0
LINE
  5
13F
100
AcDbEntity
100
AcDbLine
  8
Interior
 62
256
370
-1
  6
ByLayer
 10
68.0638737068890123
 20
4.5
 30
0.0
 11
68.1149849674550012
 21
4.1117714323461989
 31
0.0
  0
LINE
  5
140
100
AcDbEntity
100
AcDbLine
  8
Interior
 62
256
370
-1
  6
ByLayer
 10
68.1149849674550012
 20
4.1117714323461989
 30
0.0
 11
68.2648356012120132
 21
3.75
 31
0.0
  0
LINE
  5
141
100
AcDbEntity
100
AcDbLine
  8
Interior
 62
256
370
-1
  6
ByLayer
 10
68.2648356012120132
 20
3.75
 30
0.0
 11
68.5032135351090119
 21
3.4393398282202003
 31
0.0
  0
LINE
  5
142
100
AcDbEntity
100
AcDbLine
  8
Interior
 62
256
370
-1
  6
ByLayer
 10
68.5032135351090119
 20
3.4393398282202003
 30
0.0
 11
68.8138737068890123
 21
3.2009618943232994
 31
0.0
  0
LINE
  5
143
100
AcDbEntity
100
AcDbLine
  8
Interior
 62
256
370
-1
  6
ByLayer
 10
68.8138737068890123
 20
3.2009618943232994
 30
0.0
 11
69.1756451392350016
 21
3.0511112605663993
 31
0.0
  0
LINE
  5
144
100
AcDbEntity
100
AcDbLine
  8
Interior
 62
256
370
-1
  6
ByLayer
 10
69.1756451392350016
 20
3.0511112605663993
 30
0.0
 11
69.5638737068890123
 21
3.0
 31
0.0
  0
LINE
  5
145
100
AcDbEntity
100
AcDbLine
  8
Interior
 62
256
370
-1
  6
ByLayer
 10
69.5638737068890123
 20
3.0
 30
0.0
 11
69.9521022745429946
 21
3.0511112605663993
 31
0.0
  0
LINE
  5
146
100
AcDbEntity
100
AcDbLine
  8
Interior
 62
256
370
-1
  6
ByLayer
 10
69.9521022745429946
 20
3.0511112605663993
 30
0.0
 11
70.3138737068890123
 21
3.2009618943232994
 31
0.0
  0
LINE
  5
147
100
AcDbEntity
100
AcDbLine
  8
Interior
 62
256
370
-1
  6
ByLayer
 10
70.3138737068890123
 20
3.2009618943232994
 30
0.0
 11
70.6245338786690127
 21
3.4393398282202003
 31
0.0
  0
LINE
  5
148
100
AcDbEntity
100
AcDbLine
  8
Interior
 62
256
370
-1
  6
ByLayer
 10
70.6245338786690127
 20
3.4393398282202003
 30
0.0
 11
70.8629118125650166
 21
3.75
 31
0.0
  0
LINE
  5
149
100
AcDbEntity
100
AcDbLine
  8
Interior
 62
256
370
-1
  6
ByLayer
 10
70.8629118125650166
 20
3.75
 30
0.0
 11
71.0127624463220002
 21
4.1117714323461989
 31
0.0
  0
LINE
  5
14A
100
AcDbEntity
100
AcDbLine
  8
Interior
 62
256
370
-1
  6
ByLayer
 10
71.0127624463220002
 20
4.1117714323461989
 30
0.0
 11
71.0638737068890123
 21
4.5
 31
0.0
  0
LINE
  5
14B
100
AcDbEntity
100
AcDbLine
  8
Interior
 62
256
370
-1
  6
ByLayer
 10
71.0638737068890123
 20
4.5
 30
0.0
 11
71.0127624463220002
 21
4.8882285676537993
 31
0.0
  0
LINE
  5
14C
100
AcDbEntity
100
AcDbLine
  8
Interior
 62
256
370
-1
  6
ByLayer
 10
71.0127624463220002
 20
4.8882285676537993
 30
0.0
 11
70.8629118125650166
 21
5.25
 31
0.0
  0
LINE
  5
14D
100
AcDbEntity
100
AcDbLine
  8
Interior
 62
256
370
-1
  6
ByLayer
 10
70.8629118125650166
 20
5.25
 30
0.0
 11
70.6245338786690127
 21
5.5606601717797997
 31
0.0
  0
LINE
  5
14E
100
AcDbEntity
100
AcDbLine
  8
Interior
 62
256
370
-1
  6
ByLayer
 10
70.6245338786690127
 20
5.5606601717797997
 30
0.0
 11
70.3138737068890123
 21
5.7990381056765994
 31
0.0
  0
LINE
  5
14F
100
AcDbEntity
100
AcDbLine
  8
Interior
 62
256
370
-1
  6
ByLayer
 10
70.3138737068890123
 20
5.7990381056765994
 30
0.0
 11
69.9521022745429946
 21
5.948888739433599
 31
0.0
  0
LINE
  5
150
100
AcDbEntity
100
AcDbLine
  8
Interior
 62
256
370
-1
  6
ByLayer
 10
69.9521022745429946
 20
5.948888739433599
 30
0.0
 11
69.5638737068890123
 21
6.0
 31
0.0
  0
LINE
  5
151
100
AcDbEntity
100
AcDbLine
  8
Interior
 62
256
370
-1
  6
ByLayer
 10
69.5638737068890123
 20
6.0
 30
0.0
 11
69.1756451392350016
 21
5.948888739433599
 31
0.0
  0
LINE
  5
152
100
AcDbEntity
100
AcDbLine
  8
Interior
 62
256
370
-1
  6
ByLayer
 10
69.1756451392350016
 20
5.948888739433599
 30
0.0
 11
68.8138737068890123
 21
5.7990381056765994
 31
0.0
  0
LINE
  5
153
100
AcDbEntity
100
AcDbLine
  8
Interior
 62
256
370
-1
  6
ByLayer
 10
68.8138737068890123
 20
5.7990381056765994
 30
0.0
 11
68.5032135351090119
 21
5.5606601717797997
 31
0.0
  0
LINE
  5
154
100
AcDbEntity
100
AcDbLine
  8
Interior
 62
256
370
-1
  6
ByLayer
 10
68.5032135351090119
 20
5.5606601717797997
 30
0.0
 11
68.2648356012120132
 21
5.25
 31
0.0
  0
LINE
  5
155
100
AcDbEntity
100
AcDbLine
  8
Interior
 62
256
370
-1
  6
ByLayer
 10
68.2648356012120132
 20
5.25
 30
0.0
 11
68.1149849674550012
 21
4.8882285676537993
 31
0.0
  0
LINE
  5
156
100
AcDbEntity
100
AcDbLine
  8
Interior
 62
256
370
-1
  6
ByLayer
 10
68.1149849674550012
 20
4.8882285676537993
 30
0.0
 11
68.0638737068890123
 21
4.5
 31
0.0
  0
LINE
  5
157
100
AcDbEntity
100
AcDbLine
  8
Interior
 62
256
370
-1
  6
ByLayer
 10
68.0638737068890123
 20
84.0
 30
0.0
 11
68.1149849674550012
 21
83.6117714323462025
 31
0.0
  0
LINE
  5
158
100
AcDbEntity
100
AcDbLine
  8
Interior
 62
256
370
-1
  6
ByLayer
 10
68.1149849674550012
 20
83.6117714323462025
 30
0.0
 11
68.2648356012120132
 21
83.25
 31
0.0
  0
LINE
  5
159
100
AcDbEntity
100
AcDbLine
  8
Interior
 62
256
370
-1
  6
ByLayer
 10
68.2648356012120132
 20
83.25
 30
0.0
 11
68.5032135351090119
 21
82.9393398282201986
 31
0.0
  0
LINE
  5
15A
100
AcDbEntity
100
AcDbLine
  8
Interior
 62
256
370
-1
  6
ByLayer
 10
68.5032135351090119
 20
82.9393398282201986
 30
0.0
 11
68.8138737068890123
 21
82.7009618943233988
 31
0.0
  0
LINE
  5
15B
100
AcDbEntity
100
AcDbLine
  8
Interior
 62
256
370
-1
  6
ByLayer
 10
68.8138737068890123
 20
82.7009618943233988
 30
0.0
 11
69.1756451392350016
 21
82.551111260566401
 31
0.0
  0
LINE
  5
15C
100
AcDbEntity
100
AcDbLine
  8
Interior
 62
256
370
-1
  6
ByLayer
 10
69.1756451392350016
 20
82.551111260566401
 30
0.0
 11
69.5638737068890123
 21
82.5
 31
0.0
  0
LINE
  5
15D
100
AcDbEntity
100
AcDbLine
  8
Interior
 62
256
370
-1
  6
ByLayer
 10
69.5638737068890123
 20
82.5
 30
0.0
 11
69.9521022745429946
 21
82.551111260566401
 31
0.0
  0
LINE
  5
15E
100
AcDbEntity
100
AcDbLine
  8
Interior
 62
256
370
-1
  6
ByLayer
 10
69.9521022745429946
 20
82.551111260566401
 30
0.0
 11
70.3138737068890123
 21
82.7009618943233988
 31
0.0
  0
LINE
  5
15F
100
AcDbEntity
100
AcDbLine
  8
Interior
 62
256
370
-1
  6
ByLayer
 10
70.3138737068890123
 20
82.7009618943233988
 30
0.0
 11
70.6245338786690127
 21
82.9393398282201986
 31
0.0
  0
LINE
  5
160
100
AcDbEntity
100
AcDbLine
  8
Interior
 62
256
370
-1
  6
ByLayer
 10
70.6245338786690127
 20
82.9393398282201986
 30
0.0
 11
70.8629118125650166
 21
83.25
 31
0.0
  0
LINE
  5
161
100
AcDbEntity
100
AcDbLine
  8
Interior
 62
256
370
-1
  6
ByLayer
 10
70.8629118125650166
 20
83.25
 30
0.0
 11
71.0127624463220002
 21
83.6117714323462025
 31
0.0
  0
LINE
  5
162
100
AcDbEntity
100
AcDbLine
  8
Interior
 62
256
370
-1
  6
ByLayer
 10
71.0127624463220002
 20
83.6117714323462025
 30
0.0
 11
71.0638737068890123
 21
84.0
 31
0.0
  0
LINE
  5
163
100
AcDbEntity
100
AcDbLine
  8
Interior
 62
256
370
-1
  6
ByLayer
 10
71.0638737068890123
 20
84.0
 30
0.0
 11
71.0127624463220002
 21
84.3882285676537975
 31
0.0
  0
LINE
  5
164
100
AcDbEntity
100
AcDbLine
  8
Interior
 62
256
370
-1
  6
ByLayer
 10
71.0127624463220002
 20
84.3882285676537975
 30
0.0
 11
70.8629118125650166
 21
84.75
 31
0.0
  0
LINE
  5
165
100
AcDbEntity
100
AcDbLine
  8
Interior
 62
256
370
-1
  6
ByLayer
 10
70.8629118125650166
 20
84.75
 30
0.0
 11
70.6245338786690127
 21
85.0606601717799009
 31
0.0
  0
LINE
  5
166
100
AcDbEntity
100
AcDbLine
  8
Interior
 62
256
370
-1
  6
ByLayer
 10
70.6245338786690127
 20
85.0606601717799009
 30
0.0
 11
70.3138737068890123
 21
85.2990381056767006
 31
0.0
  0
LINE
  5
167
100
AcDbEntity
100
AcDbLine
  8
Interior
 62
256
370
-1
  6
ByLayer
 10
70.3138737068890123
 20
85.2990381056767006
 30
0.0
 11
69.9521022745429946
 21
85.448888739433599
 31
0.0
  0
LINE
  5
168
100
AcDbEntity
100
AcDbLine
  8
Interior
 62
256
370
-1
  6
ByLayer
 10
69.9521022745429946
 20
85.448888739433599
 30
0.0
 11
69.5638737068890123
 21
85.5
 31
0.0
  0
LINE
  5
169
100
AcDbEntity
100
AcDbLine
  8
Interior
 62
256
370
-1
  6
ByLayer
 10
69.5638737068890123
 20
85.5
 30
0.0
 11
69.1756451392350016
 21
85.448888739433599
 31
0.0
  0
LINE
  5
16A
100
AcDbEntity
100
AcDbLine
  8
Interior
 62
256
370
-1
  6
ByLayer
 10
69.1756451392350016
 20
85.448888739433599
 30
0.0
 11
68.8138737068890123
 21
85.2990381056767006
 31
0.0
  0
LINE
  5
16B
100
AcDbEntity
100
AcDbLine
  8
Interior
 62
256
370
-1
  6
ByLayer
 10
68.8138737068890123
 20
85.2990381056767006
 30
0.0
 11
68.5032135351090119
 21
85.0606601717799009
 31
0.0
  0
LINE
  5
16C
100
AcDbEntity
100
AcDbLine
  8
Interior
 62
256
370
-1
  6
ByLayer
 10
68.5032135351090119
 20
85.0606601717799009
 30
0.0
 11
68.2648356012120132
 21
84.75
 31
0.0
  0
LINE
  5
16D
100
AcDbEntity
100
AcDbLine
  8
Interior
 62
256
370
-1
  6
ByLayer
 10
68.2648356012120132
 20
84.75
 30
0.0
 11
68.1149849674550012
 21
84.3882285676537975
 31
0.0
  0
LINE
  5
16E
100
AcDbEntity
100
AcDbLine
  8
Interior
 62
256
370
-1
  6
ByLayer
 10
68.1149849674550012
 20
84.3882285676537975
 30
0.0
 11
68.0638737068890123
 21
84.0
 31
0.0
  0
LINE
  5
16F
100
AcDbEntity
100
AcDbLine
  8
Interior
 62
256
370
-1
  6
ByLayer
 10
6.0
 20
4.5000000000000995
 30
0.0
 11
5.9488887394330163
 21
4.8882285676538988
 31
0.0
  0
LINE
  5
170
100
AcDbEntity
100
AcDbLine
  8
Interior
 62
256
370
-1
  6
ByLayer
 10
5.9488887394330163
 20
4.8882285676538988
 30
0.0
 11
5.7990381056760043
 21
5.2500000000000995
 31
0.0
  0
LINE
  5
171
100
AcDbEntity
100
AcDbLine
  8
Interior
 62
256
370
-1
  6
ByLayer
 10
5.7990381056760043
 20
5.2500000000000995
 30
0.0
 11
5.5606601717789772
 21
5.5606601717798991
 31
0.0
  0
LINE
  5
172
100
AcDbEntity
100
AcDbLine
  8
Interior
 62
256
370
-1
  6
ByLayer
 10
5.5606601717789772
 20
5.5606601717798991
 30
0.0
 11
5.25
 21
5.7990381056768001
 31
0.0
  0
LINE
  5
173
100
AcDbEntity
100
AcDbLine
  8
Interior
 62
256
370
-1
  6
ByLayer
 10
5.25
 20
5.7990381056768001
 30
0.0
 11
4.8882285676530159
 21
5.9488887394337002
 31
0.0
  0
LINE
  5
174
100
AcDbEntity
100
AcDbLine
  8
Interior
 62
256
370
-1
  6
ByLayer
 10
4.8882285676530159
 20
5.9488887394337002
 30
0.0
 11
4.5
 21
6.0000000000000995
 31
0.0
  0
LINE
  5
175
100
AcDbEntity
100
AcDbLine
  8
Interior
 62
256
370
-1
  6
ByLayer
 10
4.5
 20
6.0000000000000995
 30
0.0
 11
4.1117714323460177
 21
5.9488887394337002
 31
0.0
  0
LINE
  5
176
100
AcDbEntity
100
AcDbLine
  8
Interior
 62
256
370
-1
  6
ByLayer
 10
4.1117714323460177
 20
5.9488887394337002
 30
0.0
 11
3.75
 21
5.7990381056768001
 31
0.0
  0
LINE
  5
177
100
AcDbEntity
100
AcDbLine
  8
Interior
 62
256
370
-1
  6
ByLayer
 10
3.75
 20
5.7990381056768001
 30
0.0
 11
3.4393398282199996
 21
5.5606601717798991
 31
0.0
  0
LINE
  5
178
100
AcDbEntity
100
AcDbLine
  8
Interior
 62
256
370
-1
  6
ByLayer
 10
3.4393398282199996
 20
5.5606601717798991
 30
0.0
 11
3.2009618943230294
 21
5.2500000000000995
 31
0.0
  0
LINE
  5
179
100
AcDbEntity
100
AcDbLine
  8
Interior
 62
256
370
-1
  6
ByLayer
 10
3.2009618943230294
 20
5.2500000000000995
 30
0.0
 11
3.0511112605660173
 21
4.8882285676538988
 31
0.0
  0
LINE
  5
17A
100
AcDbEntity
100
AcDbLine
  8
Interior
 62
256
370
-1
  6
ByLayer
 10
3.0511112605660173
 20
4.8882285676538988
 30
0.0
 11
3.0
 21
4.5000000000000995
 31
0.0
  0
LINE
  5
17B
100
AcDbEntity
100
AcDbLine
  8
Interior
 62
256
370
-1
  6
ByLayer
 10
3.0
 20
4.5000000000000995
 30
0.0
 11
3.0511112605660173
 21
4.1117714323463002
 31
0.0
  0
LINE
  5
17C
100
AcDbEntity
100
AcDbLine
  8
Interior
 62
256
370
-1
  6
ByLayer
 10
3.0511112605660173
 20
4.1117714323463002
 30
0.0
 11
3.2009618943230294
 21
3.7500000000000995
 31
0.0
  0
LINE
  5
17D
100
AcDbEntity
100
AcDbLine
  8
Interior
 62
256
370
-1
  6
ByLayer
 10
3.2009618943230294
 20
3.7500000000000995
 30
0.0
 11
3.4393398282199996
 21
3.4393398282202998
 31
0.0
  0
LINE
  5
17E
100
AcDbEntity
100
AcDbLine
  8
Interior
 62
256
370
-1
  6
ByLayer
 10
3.4393398282199996
 20
3.4393398282202998
 30
0.0
 11
3.75
 21
3.2009618943233988
 31
0.0
  0
LINE
  5
17F
100
AcDbEntity
100
AcDbLine
  8
Interior
 62
256
370
-1
  6
ByLayer
 10
3.75
 20
3.2009618943233988
 30
0.0
 11
4.1117714323460177
 21
3.0511112605664987
 31
0.0
  0
LINE
  5
180
100
AcDbEntity
100
AcDbLine
  8
Interior
 62
256
370
-1
  6
ByLayer
 10
4.1117714323460177
 20
3.0511112605664987
 30
0.0
 11
4.5
 21
3.0000000000000995
 31
0.0
  0
LINE
  5
181
100
AcDbEntity
100
AcDbLine
  8
Interior
 62
256
370
-1
  6
ByLayer
 10
4.5
 20
3.0000000000000995
 30
0.0
 11
4.8882285676530159
 21
3.0511112605664987
 31
0.0
  0
LINE
  5
182
100
AcDbEntity
100
AcDbLine
  8
Interior
 62
256
370
-1
  6
ByLayer
 10
4.8882285676530159
 20
3.0511112605664987
 30
0.0
 11
5.25
 21
3.2009618943233988
 31
0.0
  0
LINE
  5
183
100
AcDbEntity
100
AcDbLine
  8
Interior
 62
256
370
-1
  6
ByLayer
 10
5.25
 20
3.2009618943233988
 30
0.0
 11
5.5606601717789772
 21
3.4393398282202998
 31
0.0
  0
LINE
  5
184
100
AcDbEntity
100
AcDbLine
  8
Interior
 62
256
370
-1
  6
ByLayer
 10
5.5606601717789772
 20
3.4393398282202998
 30
0.0
 11
5.7990381056760043
 21
3.7500000000000995
 31
0.0
  0
LINE
  5
185
100
AcDbEntity
100
AcDbLine
  8
Interior
 62
256
370
-1
  6
ByLayer
 10
5.7990381056760043
 20
3.7500000000000995
 30
0.0
 11
5.9488887394330163
 21
4.1117714323463002
 31
0.0
  0
LINE
  5
186
100
AcDbEntity
100
AcDbLine
  8
Interior
 62
256
370
-1
  6
ByLayer
 10
5.9488887394330163
 20
4.1117714323463002
 30
0.0
 11
6.0
 21
4.5000000000000995
 31
0.0
  0
LINE
  5
187
100
AcDbEntity
100
AcDbLine
  8
Interior
 62
256
370
-1
  6
ByLayer
 10
4.5
 20
82.5
 30
0.0
 11
4.8882285676530159
 21
82.551111260566401
 31
0.0
  0
LINE
  5
188
100
AcDbEntity
100
AcDbLine
  8
Interior
 62
256
370
-1
  6
ByLayer
 10
4.8882285676530159
 20
82.551111260566401
 30
0.0
 11
5.25
 21
82.7009618943233988
 31
0.0
  0
LINE
  5
189
100
AcDbEntity
100
AcDbLine
  8
Interior
 62
256
370
-1
  6
ByLayer
 10
5.25
 20
82.7009618943233988
 30
0.0
 11
5.5606601717789772
 21
82.9393398282201986
 31
0.0
  0
LINE
  5
18A
100
AcDbEntity
100
AcDbLine
  8
Interior
 62
256
370
-1
  6
ByLayer
 10
5.5606601717789772
 20
82.9393398282201986
 30
0.0
 11
5.7990381056760043
 21
83.25
 31
0.0
  0
LINE
  5
18B
100
AcDbEntity
100
AcDbLine
  8
Interior
 62
256
370
-1
  6
ByLayer
 10
5.7990381056760043
 20
83.25
 30
0.0
 11
5.9488887394330163
 21
83.6117714323462025
 31
0.0
  0
LINE
  5
18C
100
AcDbEntity
100
AcDbLine
  8
Interior
 62
256
370
-1
  6
ByLayer
 10
5.9488887394330163
 20
83.6117714323462025
 30
0.0
 11
6.0
 21
84.0
 31
0.0
  0
LINE
  5
18D
100
AcDbEntity
100
AcDbLine
  8
Interior
 62
256
370
-1
  6
ByLayer
 10
6.0
 20
84.0
 30
0.0
 11
5.9488887394330163
 21
84.3882285676537975
 31
0.0
  0
LINE
  5
18E
100
AcDbEntity
100
AcDbLine
  8
Interior
 62
256
370
-1
  6
ByLayer
 10
5.9488887394330163
 20
84.3882285676537975
 30
0.0
 11
5.7990381056760043
 21
84.75
 31
0.0
  0
LINE
  5
18F
100
AcDbEntity
100
AcDbLine
  8
Interior
 62
256
370
-1
  6
ByLayer
 10
5.7990381056760043
 20
84.75
 30
0.0
 11
5.5606601717789772
 21
85.0606601717799009
 31
0.0
  0
LINE
  5
190
100
AcDbEntity
100
AcDbLine
  8
Interior
 62
256
370
-1
  6
ByLayer
 10
5.5606601717789772
 20
85.0606601717799009
 30
0.0
 11
5.25
 21
85.2990381056767006
 31
0.0
  0
LINE
  5
191
100
AcDbEntity
100
AcDbLine
  8
Interior
 62
256
370
-1
  6
ByLayer
 10
5.25
 20
85.2990381056767006
 30
0.0
 11
4.8882285676530159
 21
85.448888739433599
 31
0.0
  0
LINE
  5
192
100
AcDbEntity
100
AcDbLine
  8
Interior
 62
256
370
-1
  6
ByLayer
 10
4.8882285676530159
 20
85.448888739433599
 30
0.0
 11
4.5
 21
85.5
 31
0.0
  0
LINE
  5
193
100
AcDbEntity
100
AcDbLine
  8
Interior
 62
256
370
-1
  6
ByLayer
 10
4.5
 20
85.5
 30
0.0
 11
4.1117714323460177
 21
85.448888739433599
 31
0.0
  0
LINE
  5
194
100
AcDbEntity
100
AcDbLine
  8
Interior
 62
256
370
-1
  6
ByLayer
 10
4.1117714323460177
 20
85.448888739433599
 30
0.0
 11
3.75
 21
85.2990381056767006
 31
0.0
  0
LINE
  5
195
100
AcDbEntity
100
AcDbLine
  8
Interior
 62
256
370
-1
  6
ByLayer
 10
3.75
 20
85.2990381056767006
 30
0.0
 11
3.4393398282199996
 21
85.0606601717799009
 31
0.0
  0
LINE
  5
196
100
AcDbEntity
100
AcDbLine
  8
Interior
 62
256
370
-1
  6
ByLayer
 10
3.4393398282199996
 20
85.0606601717799009
 30
0.0
 11
3.2009618943230294
 21
84.75
 31
0.0
  0
LINE
  5
197
100
AcDbEntity
100
AcDbLine
  8
Interior
 62
256
370
-1
  6
ByLayer
 10
3.2009618943230294
 20
84.75
 30
0.0
 11
3.0511112605660173
 21
84.3882285676537975
 31
0.0
  0
LINE
  5
198
100
AcDbEntity
100
AcDbLine
  8
Interior
 62
256
370
-1
  6
ByLayer
 10
3.0511112605660173
 20
84.3882285676537975
 30
0.0
 11
3.0
 21
84.0
 31
0.0
  0
LINE
  5
199
100
AcDbEntity
100
AcDbLine
  8
Interior
 62
256
370
-1
  6
ByLayer
 10
3.0
 20
84.0
 30
0.0
 11
3.0511112605660173
 21
83.6117714323462025
 31
0.0
  0
LINE
  5
19A
100
AcDbEntity
100
AcDbLine
  8
Interior
 62
256
370
-1
  6
ByLayer
 10
3.0511112605660173
 20
83.6117714323462025
 30
0.0
 11
3.2009618943230294
 21
83.25
 31
0.0
  0
LINE
  5
19B
100
AcDbEntity
100
AcDbLine
  8
Interior
 62
256
370
-1
  6
ByLayer
 10
3.2009618943230294
 20
83.25
 30
0.0
 11
3.4393398282199996
 21
82.9393398282201986
 31
0.0
  0
LINE
  5
19C
100
AcDbEntity
100
AcDbLine
  8
Interior
 62
256
370
-1
  6
ByLayer
 10
3.4393398282199996
 20
82.9393398282201986
 30
0.0
 11
3.75
 21
82.7009618943233988
 31
0.0
  0
LINE
  5
19D
100
AcDbEntity
100
AcDbLine
  8
Interior
 62
256
370
-1
  6
ByLayer
 10
3.75
 20
82.7009618943233988
 30
0.0
 11
4.1117714323460177
 21
82.551111260566401
 31
0.0
  0
LINE
  5
19E
100
AcDbEntity
100
AcDbLine
  8
Interior
 62
256
370
-1
  6
ByLayer
 10
4.1117714323460177
 20
82.551111260566401
 30
0.0
 11
4.5
 21
82.5
 31
0.0
  0
LINE
  5
19F
100
AcDbEntity
100
AcDbLine
  8
Interior
 62
256
370
-1
  6
ByLayer
 10
21.0999999999999943
 20
82.4000000000000057
 30
0.0
 11
21.0999999999999943
 21
79.5999999999999943
 31
0.0
  0
LINE
  5
1A0
100
AcDbEntity
100
AcDbLine
  8
Interior
 62
256
370
-1
  6
ByLayer
 10
21.0999999999999943
 20
79.5999999999999943
 30
0.0
 11
52.9000000000000057
 21
79.5999999999999943
 31
0.0
  0
LINE
  5
1A1
100
AcDbEntity
100
AcDbLine
  8
Interior
 62
256
370
-1
  6
ByLayer
 10
52.9000000000000057
 20
79.5999999999999943
 30
0.0
 11
52.9000000000000057
 21
82.4000000000000057
 31
0.0
  0
LINE
  5
1A2
100
AcDbEntity
100
AcDbLine
  8
Interior
 62
256
370
-1
  6
ByLayer
 10
52.9000000000000057
 20
82.4000000000000057
 30
0.0
 11
21.0999999999999943
 21
82.4000000000000057
 31
0.0
  0
LINE
  5
1A3
100
AcDbEntity
100
AcDbLine
  8
Interior
 62
256
370
-1
  6
ByLayer
 10
6.1000000000000227
 20
26.1000000000000014
 30
0.0
 11
8.8999999999999773
 21
26.1000000000000014
 31
0.0
  0
LINE
  5
1A4
100
AcDbEntity
100
AcDbLine
  8
Interior
 62
256
370
-1
  6
ByLayer
 10
8.8999999999999773
 20
26.1000000000000014
 30
0.0
 11
8.8999999999999773
 21
62.4000000000000057
 31
0.0
  0
LINE
  5
1A5
100
AcDbEntity
100
AcDbLine
  8
Interior
 62
256
370
-1
  6
ByLayer
 10
8.8999999999999773
 20
62.4000000000000057
 30
0.0
 11
6.1000000000000227
 21
62.4000000000000057
 31
0.0
  0
LINE
  5
1A6
100
AcDbEntity
100
AcDbLine
  8
Interior
 62
256
370
-1
  6
ByLayer
 10
6.1000000000000227
 20
62.4000000000000057
 30
0.0
 11
6.1000000000000227
 21
26.1000000000000014
 31
0.0
  0
LINE
  5
1A7
100
AcDbEntity
100
AcDbLine
  8
Interior
 62
256
370
-1
  6
ByLayer
 10
67.963873706889018
 20
26.1000000000000014
 30
0.0
 11
67.963873706889018
 21
62.4000000000000057
 31
0.0
  0
LINE
  5
1A8
100
AcDbEntity
100
AcDbLine
  8
Interior
 62
256
370
-1
  6
ByLayer
 10
67.963873706889018
 20
62.4000000000000057
 30
0.0
 11
65.1638737068890066
 21
62.4000000000000057
 31
0.0
  0
LINE
  5
1A9
100
AcDbEntity
100
AcDbLine
  8
Interior
 62
256
370
-1
  6
ByLayer
 10
65.1638737068890066
 20
62.4000000000000057
 30
0.0
 11
65.1638737068890066
 21
26.1000000000000014
 31
0.0
  0
LINE
  5
1AA
100
AcDbEntity
100
AcDbLine
  8
Interior
 62
256
370
-1
  6
ByLayer
 10
65.1638737068890066
 20
26.1000000000000014
 30
0.0
 11
67.963873706889018
 21
26.1000000000000014
 31
0.0
  0
LINE
  5
1AB
100
AcDbEntity
100
AcDbLine
  8
Interior
 62
256
370
-1
  6
ByLayer
 10
52.9000000000000057
 20
6.0999999999999996
 30
0.0
 11
52.9000000000000057
 21
8.8999999999999986
 31
0.0
  0
LINE
  5
1AC
100
AcDbEntity
100
AcDbLine
  8
Interior
 62
256
370
-1
  6
ByLayer
 10
52.9000000000000057
 20
8.8999999999999986
 30
0.0
 11
21.0999999999999943
 21
8.8999999999999986
 31
0.0
  0
LINE
  5
1AD
100
AcDbEntity
100
AcDbLine
  8
Interior
 62
256
370
-1
  6
ByLayer
 10
21.0999999999999943
 20
8.8999999999999986
 30
0.0
 11
21.0999999999999943
 21
6.0999999999999996
 31
0.0
  0
LINE
  5
1AE
100
AcDbEntity
100
AcDbLine
  8
Interior
 62
256
370
-1
  6
ByLayer
 10
21.0999999999999943
 20
6.0999999999999996
 30
0.0
 11
52.9000000000000057
 21
6.0999999999999996
 31
0.0
  0
LINE
  5
1AF
100
AcDbEntity
100
AcDbLine
  8
Interior
 62
256
370
-1
  6
ByLayer
 10
99.0591000000000008
 20
207.5
 30
0.0
 11
111.0589999999999975
 21
207.5
 31
0.0
  0
LINE
  5
1B0
100
AcDbEntity
100
AcDbLine
  8
Interior
 62
256
370
-1
  6
ByLayer
 10
99.0591000000000008
 20
198.0
 30
0.0
 11
99.0591000000000008
 21
207.5
 31
0.0
  0
LINE
  5
1B1
100
AcDbEntity
100
AcDbLine
  8
Interior
 62
256
370
-1
  6
ByLayer
 10
111.0589999999999975
 20
207.5
 30
0.0
 11
111.0589999999999975
 21
198.0
 31
0.0
  0
CIRCLE
  5
1B2
100
AcDbEntity
100
AcDbCircle
  8
Interior
 62
256
370
-1
  6
ByLayer
 10
28.1045000000000016
 20
163.0060000000000002
 30
0.0
 40
1.56332
  0
CIRCLE
  5
1B3
100
AcDbEntity
100
AcDbCircle
  8
Interior
 62
256
370
-1
  6
ByLayer
 10
55.8436999999999983
 20
163.0060000000000002
 30
0.0
 40
1.56332
  0
CIRCLE
  5
1B4
100
AcDbEntity
100
AcDbCircle
  8
Interior
 62
256
370
-1
  6
ByLayer
 10
13.1591000000000005
 20
112.7060000000000315
 30
0.0
 40
1.56332
  0
CIRCLE
  5
1B5
100
AcDbEntity
100
AcDbCircle
  8
Interior
 62
256
370
-1
  6
ByLayer
 10
61.4191000000000003
 20
111.4360000000000213
 30
0.0
 40
1.56332
  0
CIRCLE
  5
1B6
100
AcDbEntity
100
AcDbCircle
  8
Interior
 62
256
370
-1
  6
ByLayer
 10
91.0639000000000038
 20
166.5
 30
0.0
 40
4.7999999999999998
  0
LINE
  5
1B7
100
AcDbEntity
100
AcDbLine
  8
Interior
 62
256
370
-1
  6
ByLayer
 10
80.0639000000000038
 20
205.0
 30
0.0
 11
80.0639000000000038
 21
175.0
 31
0.0
  0
LINE
  5
1B8
100
AcDbEntity
100
AcDbLine
  8
Interior
 62
256
370
-1
  6
ByLayer
 10
94.0639000000000038
 20
175.0
 30
0.0
 11
94.0639000000000038
 21
205.0
 31
0.0
  0
LINE
  5
1B9
100
AcDbEntity
100
AcDbLine
  8
Interior
 62
256
370
-1
  6
ByLayer
 10
81.0639000000000038
 20
174.0
 30
0.0
 11
93.0639000000000038
 21
174.0
 31
0.0
  0
LINE
  5
1BA
100
AcDbEntity
100
AcDbLine
  8
Interior
 62
256
370
-1
  6
ByLayer
 10
93.0639000000000038
 20
206.0
 30
0.0
 11
81.0639000000000038
 21
206.0
 31
0.0
  0
ARC
  5
1BB
100
AcDbEntity
  8
Interior
 62
256
370
-1
  6
ByLayer
100
AcDbCircle
 10
81.0639000000000038
 20
205.0
 30
0.0
 40
1.0
100
AcDbArc
 50
90.0
 51
180.0
  0
ARC
  5
1BC
100
AcDbEntity
  8
Interior
 62
256
370
-1
  6
ByLayer
100
AcDbCircle
 10
81.0639000000000038
 20
175.0
 30
0.0
 40
1.0
100
AcDbArc
 50
180.0
 51
270.0
  0
ARC
  5
1BD
100
AcDbEntity
  8
Interior
 62
256
370
-1
  6
ByLayer
100
AcDbCircle
 10
93.0639000000000038
 20
175.0
 30
0.0
 40
1.0
100
AcDbArc
 50
270.0
 51
0.0
  0
ARC
  5
1BE
100
AcDbEntity
  8
Interior
 62
256
370
-1
  6
ByLayer
100
AcDbCircle
 10
93.0639000000000038
 20
205.0
 30
0.0
 40
1.0
100
AcDbArc
 50
0.0
 51
90.0
  0
ENDSEC
  0
SECTION
  2
OBJECTS
  0
DICTIONARY
  5
C
100
AcDbDictionary
280
0
281
1
  3
ACAD_GROUP
350
D
  3
ACAD_LAYOUT
350
1A
  3
ACAD_MLINESTYLE
350
17
  3
ACAD_PLOTSETTINGS
350
19
  3
ACAD_PLOTSTYLENAME
350
E
  3
AcDbVariableDictionary
350
1BF
  0
DICTIONARY
  5
D
100
AcDbDictionary
280
0
281
1
  0
ACDBDICTIONARYWDFLT
  5
E
100
AcDbDictionary
281
1
  3
Normal
350
F
100
AcDbDictionaryWithDefault
340
F
  0
ACDBPLACEHOLDER
  5
F
  0
DICTIONARY
  5
17
100
AcDbDictionary
280
0
281
1
  3
Standard
350
18
  0
MLINESTYLE
  5
18
100
AcDbMlineStyle
  2
STANDARD
 70
0
  3

 62
256
 51
90.0
 52
90.0
 71
2
 49
0.5
 62
256
  6
BYLAYER
 49
-0.5
 62
256
  6
BYLAYER
  0
DICTIONARY
  5
19
100
AcDbDictionary
280
0
281
1
  0
DICTIONARY
  5
1A
100
AcDbDictionary
281
1
  3
Layout1
350
1E
  3
Layout2
350
26
  3
Model
350
22
  0
LAYOUT
  5
1E
100
AcDbPlotSettings
  1

  2
C:\Program Files\AutoCAD 2002\plotters\DWF ePlot (optimized for plotting).pc3
  4

  6

 40
0.0
 41
0.0
 42
0.0
 43
0.0
 44
0.0
 45
0.0
 46
0.0
 47
0.0
 48
0.0
 49
0.0
140
0.0
141
0.0
142
1.0
143
1.0
 70
688
 72
0
 73
0
 74
5
  7

 75
16
147
1.0
148
0.0
149
0.0
100
AcDbLayout
  1
Layout1
 70
1
 71
1
 10
0.0
 20
0.0
 11
420.0
 21
297.0
 12
0.0
 22
0.0
 32
0.0
 14
100000000000000000000.0
 24
100000000000000000000.0
 34
100000000000000000000.0
 15
-100000000000000000000.0
 25
-100000000000000000000.0
 35
-100000000000000000000.0
146
0.0
 13
0.0
 23
0.0
 33
0.0
 16
1.0
 26
0.0
 36
0.0
 17
0.0
 27
1.0
 37
0.0
 76
0
330
1B
  0
LAYOUT
  5
22
100
AcDbPlotSettings
  1

  2
C:\Program Files\AutoCAD 2002\plotters\DWF ePlot (optimized for plotting).pc3
  4

  6

 40
0.0
 41
0.0
 42
0.0
 43
0.0
 44
0.0
 45
0.0
 46
0.0
 47
0.0
 48
0.0
 49
0.0
140
0.0
141
0.0
142
1.0
143
1.0
 70
1712
 72
0
 73
0
 74
0
  7

 75
0
147
1.0
148
0.0
149
0.0
100
AcDbLayout
  1
Model
 70
1
 71
0
 10
0.0
 20
0.0
 11
12.0
 21
9.0
 12
0.0
 22
0.0
 32
0.0
 14
0.0
 24
0.0
 34
0.0
 15
0.0
 25
0.0
 35
0.0
146
0.0
 13
0.0
 23
0.0
 33
0.0
 16
1.0
 26
0.0
 36
0.0
 17
0.0
 27
1.0
 37
0.0
 76
0
330
1F
  0
LAYOUT
  5
26
100
AcDbPlotSettings
  1

  2
C:\Program Files\AutoCAD 2002\plotters\DWF ePlot (optimized for plotting).pc3
  4

  6

 40
0.0
 41
0.0
 42
0.0
 43
0.0
 44
0.0
 45
0.0
 46
0.0
 47
0.0
 48
0.0
 49
0.0
140
0.0
141
0.0
142
1.0
143
1.0
 70
688
 72
0
 73
0
 74
5
  7

 75
16
147
1.0
148
0.0
149
0.0
100
AcDbLayout
  1
Layout2
 70
1
 71
2
 10
0.0
 20
0.0
 11
12.0
 21
9.0
 12
0.0
 22
0.0
 32
0.0
 14
0.0
 24
0.0
 34
0.0
 15
0.0
 25
0.0
 35
0.0
146
0.0
 13
0.0
 23
0.0
 33
0.0
 16
1.0
 26
0.0
 36
0.0
 17
0.0
 27
1.0
 37
0.0
 76
0
330
23
  0
DICTIONARY
  5
1BF
100
AcDbDictionary
281
1
  3
DIMASSOC
350
1C1
  3
HIDETEXT
350
1C0
  0
DICTIONARYVAR
  5
1C0
100
DictionaryVariables
280
0
  1
2
  0
DICTIONARYVAR
  5
1C1
100
DictionaryVariables
280
0
  1
1
  0
ENDSEC
  0
EOF
