G75*
G70*
%OFA0B0*%
%FSLAX24Y24*%
%IPPOS*%
%LPD*%
%AMOC8*
5,1,8,0,0,1.08239X$1,22.5*
%
%ADD10OC8,0.0680*%
%ADD11C,0.2080*%
%ADD12C,0.0680*%
%ADD13R,0.0474X0.0513*%
%ADD14R,0.0474X0.0533*%
%ADD15C,0.0415*%
%ADD16C,0.0552*%
%ADD17C,0.0940*%
%ADD18C,0.0480*%
D10*
X006701Y005565D03*
X007701Y005025D03*
X007701Y006105D03*
X006701Y006645D03*
X007701Y007185D03*
X006701Y007725D03*
X007701Y008265D03*
X006701Y008805D03*
X007701Y009345D03*
D11*
X007201Y012115D03*
X007201Y002255D03*
D12*
X012201Y001685D03*
X013201Y001685D03*
X014201Y001685D03*
X015201Y001685D03*
X016201Y001685D03*
X017201Y001685D03*
X019201Y001685D03*
X020201Y001685D03*
X021201Y001685D03*
X022201Y001685D03*
X023201Y001685D03*
X024201Y001685D03*
X016701Y004185D03*
X014701Y004185D03*
X013701Y004185D03*
X013701Y005185D03*
X014701Y005185D03*
X014701Y006185D03*
X013701Y006185D03*
X013701Y007185D03*
X014701Y007185D03*
X014701Y008185D03*
X013701Y008185D03*
X024201Y013185D03*
X024201Y014185D03*
X024201Y015185D03*
X024201Y016185D03*
X024201Y017185D03*
X024201Y018185D03*
X024201Y020685D03*
X023201Y020685D03*
X022201Y020685D03*
X021201Y020685D03*
X020201Y020685D03*
X019201Y020685D03*
X018201Y020685D03*
X017201Y020685D03*
X015601Y020685D03*
X014601Y020685D03*
X013601Y020685D03*
X012601Y020685D03*
X011601Y020685D03*
X010601Y020685D03*
X009601Y020685D03*
X008601Y020685D03*
D13*
X018201Y006520D03*
X018201Y005851D03*
X018201Y004520D03*
X018201Y003851D03*
X019701Y003851D03*
X019701Y004520D03*
X019701Y005851D03*
X019701Y006520D03*
X021201Y006520D03*
X021201Y005851D03*
X021201Y004520D03*
X021201Y003851D03*
X022701Y003851D03*
X022701Y004520D03*
X024201Y004520D03*
X024201Y003851D03*
X024201Y005851D03*
X024201Y006520D03*
X022701Y006520D03*
X022701Y005851D03*
D14*
X011685Y006073D03*
X010701Y006073D03*
X009717Y006073D03*
X009717Y008298D03*
X010701Y008298D03*
X011685Y008298D03*
D15*
X011292Y007185D03*
X010111Y007185D03*
D16*
X004201Y014217D03*
X003217Y014217D03*
X006170Y016185D03*
X004201Y018154D03*
X003217Y018154D03*
D17*
X004201Y016185D03*
X006170Y015201D03*
X006170Y014217D03*
X006170Y017170D03*
X006170Y018154D03*
D18*
X017741Y008045D03*
X020381Y006445D03*
X022221Y005885D03*
M02*
