G75*
G70*
%OFA0B0*%
%FSLAX24Y24*%
%IPPOS*%
%LPD*%
%AMOC8*
5,1,8,0,0,1.08239X$1,22.5*
%
%ADD10OC8,0.0680*%
%ADD11C,0.2080*%
%ADD12C,0.0680*%
%ADD13C,0.0556*%
%ADD14C,0.0634*%
D10*
X006705Y005717D03*
X007705Y006257D03*
X006705Y006797D03*
X007705Y007337D03*
X006705Y007877D03*
X007705Y008417D03*
X006705Y008957D03*
X007705Y009497D03*
X007705Y005177D03*
D11*
X007205Y002407D03*
X007205Y012267D03*
D12*
X010705Y008337D03*
X011705Y008337D03*
X011705Y007337D03*
X010705Y007337D03*
X010705Y006337D03*
X011705Y006337D03*
X011705Y005337D03*
X010705Y005337D03*
X010705Y004337D03*
X011705Y004337D03*
X011705Y001837D03*
X010705Y001837D03*
X012705Y001837D03*
X015205Y001837D03*
X016205Y001837D03*
X017205Y001837D03*
X018205Y001837D03*
X019205Y001837D03*
X020205Y001837D03*
X022205Y001837D03*
X023205Y001837D03*
X024205Y001837D03*
X025205Y001837D03*
X026205Y001837D03*
X027205Y001837D03*
X015205Y009337D03*
X027205Y013337D03*
X027205Y014337D03*
X027205Y015337D03*
X027205Y016337D03*
X027205Y017337D03*
X027205Y018337D03*
X027205Y020837D03*
X026205Y020837D03*
X025205Y020837D03*
X024205Y020837D03*
X023205Y020837D03*
X022205Y020837D03*
X021205Y020837D03*
X020205Y020837D03*
X018605Y020837D03*
X017605Y020837D03*
X016605Y020837D03*
X015605Y020837D03*
X014605Y020837D03*
X013605Y020837D03*
X012605Y020837D03*
X011605Y020837D03*
D13*
X013705Y006337D03*
X013705Y005337D03*
X016705Y005337D03*
X016705Y006337D03*
X019705Y006337D03*
X019705Y005337D03*
X022705Y005337D03*
X022705Y006337D03*
X025705Y006337D03*
X025705Y005337D03*
D14*
X027205Y004337D03*
X024205Y004337D03*
X021205Y004337D03*
X018205Y004337D03*
X015205Y004337D03*
X015205Y007337D03*
X018205Y007337D03*
X021205Y007337D03*
X024205Y007337D03*
X027205Y007337D03*
M02*
